G75*
%MOIN*%
%OFA0B0*%
%FSLAX24Y24*%
%IPPOS*%
%LPD*%
%AMOC8*
5,1,8,0,0,1.08239X$1,22.5*
%
%ADD10C,0.0080*%
%ADD11C,0.0740*%
%ADD12C,0.0660*%
%ADD13C,0.0000*%
%ADD14C,0.2200*%
%ADD15R,0.0740X0.0740*%
%ADD16C,0.0160*%
%ADD17C,0.0400*%
D10*
X001225Y000225D02*
X034225Y000225D01*
X034285Y000227D01*
X034346Y000232D01*
X034405Y000241D01*
X034464Y000254D01*
X034523Y000270D01*
X034580Y000290D01*
X034635Y000313D01*
X034690Y000340D01*
X034742Y000369D01*
X034793Y000402D01*
X034842Y000438D01*
X034888Y000476D01*
X034932Y000518D01*
X034974Y000562D01*
X035012Y000608D01*
X035048Y000657D01*
X035081Y000708D01*
X035110Y000760D01*
X035137Y000815D01*
X035160Y000870D01*
X035180Y000927D01*
X035196Y000986D01*
X035209Y001045D01*
X035218Y001104D01*
X035223Y001165D01*
X035225Y001225D01*
X035225Y027225D01*
X035223Y027285D01*
X035218Y027346D01*
X035209Y027405D01*
X035196Y027464D01*
X035180Y027523D01*
X035160Y027580D01*
X035137Y027635D01*
X035110Y027690D01*
X035081Y027742D01*
X035048Y027793D01*
X035012Y027842D01*
X034974Y027888D01*
X034932Y027932D01*
X034888Y027974D01*
X034842Y028012D01*
X034793Y028048D01*
X034742Y028081D01*
X034690Y028110D01*
X034635Y028137D01*
X034580Y028160D01*
X034523Y028180D01*
X034464Y028196D01*
X034405Y028209D01*
X034346Y028218D01*
X034285Y028223D01*
X034225Y028225D01*
X001199Y028225D01*
X001138Y028223D01*
X001077Y028217D01*
X001016Y028208D01*
X000957Y028194D01*
X000898Y028177D01*
X000840Y028157D01*
X000784Y028132D01*
X000730Y028105D01*
X000677Y028073D01*
X000626Y028039D01*
X000578Y028001D01*
X000532Y027961D01*
X000489Y027918D01*
X000449Y027872D01*
X000411Y027824D01*
X000377Y027773D01*
X000345Y027720D01*
X000318Y027666D01*
X000293Y027610D01*
X000273Y027552D01*
X000256Y027493D01*
X000242Y027434D01*
X000233Y027373D01*
X000227Y027312D01*
X000225Y027251D01*
X000225Y015975D01*
X000307Y015973D01*
X000389Y015967D01*
X000470Y015958D01*
X000551Y015944D01*
X000632Y015927D01*
X000711Y015906D01*
X000789Y015882D01*
X000866Y015853D01*
X000942Y015821D01*
X001016Y015786D01*
X001088Y015747D01*
X001159Y015705D01*
X001227Y015660D01*
X001293Y015611D01*
X001357Y015560D01*
X001418Y015505D01*
X001477Y015448D01*
X001533Y015388D01*
X001586Y015325D01*
X001636Y015260D01*
X001683Y015193D01*
X001727Y015124D01*
X001767Y015052D01*
X001804Y014979D01*
X001838Y014904D01*
X001868Y014828D01*
X001894Y014750D01*
X001917Y014671D01*
X001936Y014592D01*
X001951Y014511D01*
X001963Y014430D01*
X001971Y014348D01*
X001975Y014266D01*
X001975Y014184D01*
X001971Y014102D01*
X001963Y014020D01*
X001951Y013939D01*
X001936Y013858D01*
X001917Y013779D01*
X001894Y013700D01*
X001868Y013622D01*
X001838Y013546D01*
X001804Y013471D01*
X001767Y013398D01*
X001727Y013326D01*
X001683Y013257D01*
X001636Y013190D01*
X001586Y013125D01*
X001533Y013062D01*
X001477Y013002D01*
X001418Y012945D01*
X001357Y012890D01*
X001293Y012839D01*
X001227Y012790D01*
X001159Y012745D01*
X001088Y012703D01*
X001016Y012664D01*
X000942Y012629D01*
X000866Y012597D01*
X000789Y012568D01*
X000711Y012544D01*
X000632Y012523D01*
X000551Y012506D01*
X000470Y012492D01*
X000389Y012483D01*
X000307Y012477D01*
X000225Y012475D01*
X000225Y001225D01*
X000227Y001165D01*
X000232Y001104D01*
X000241Y001045D01*
X000254Y000986D01*
X000270Y000927D01*
X000290Y000870D01*
X000313Y000815D01*
X000340Y000760D01*
X000369Y000708D01*
X000402Y000657D01*
X000438Y000608D01*
X000476Y000562D01*
X000518Y000518D01*
X000562Y000476D01*
X000608Y000438D01*
X000657Y000402D01*
X000708Y000369D01*
X000760Y000340D01*
X000815Y000313D01*
X000870Y000290D01*
X000927Y000270D01*
X000986Y000254D01*
X001045Y000241D01*
X001104Y000232D01*
X001165Y000227D01*
X001225Y000225D01*
X006175Y002146D02*
X006237Y001991D01*
X006322Y001847D01*
X006428Y001717D01*
X006552Y001605D01*
X006691Y001513D01*
X006843Y001443D01*
X007004Y001398D01*
X007169Y001376D01*
X007336Y001381D01*
X007501Y001410D01*
X007659Y001464D01*
X007807Y001541D01*
X007942Y001640D01*
X008060Y001758D01*
X008159Y001893D01*
X008236Y002041D01*
X008290Y002199D01*
X008319Y002364D01*
X008324Y002531D01*
X008302Y002696D01*
X008257Y002857D01*
X008187Y003009D01*
X008095Y003148D01*
X007983Y003272D01*
X007853Y003378D01*
X007709Y003463D01*
X007554Y003525D01*
X007392Y003562D01*
X007225Y003575D01*
X007068Y003564D01*
X006915Y003530D01*
X006768Y003476D01*
X006630Y003400D01*
X006505Y003306D01*
X006394Y003195D01*
X006300Y003070D01*
X006224Y002932D01*
X006170Y002785D01*
X006136Y002632D01*
X006125Y002475D01*
X006138Y002308D01*
X006175Y002146D01*
X006190Y002109D02*
X008259Y002109D01*
X008286Y002188D02*
X006166Y002188D01*
X006148Y002266D02*
X008302Y002266D01*
X008316Y002345D02*
X006135Y002345D01*
X006129Y002423D02*
X008321Y002423D01*
X008323Y002502D02*
X006127Y002502D01*
X006133Y002580D02*
X008317Y002580D01*
X008307Y002659D02*
X006142Y002659D01*
X006159Y002737D02*
X008291Y002737D01*
X008268Y002816D02*
X006181Y002816D01*
X006210Y002894D02*
X008240Y002894D01*
X008203Y002973D02*
X006247Y002973D01*
X006289Y003051D02*
X008159Y003051D01*
X008107Y003130D02*
X006344Y003130D01*
X006406Y003208D02*
X008041Y003208D01*
X007965Y003287D02*
X006485Y003287D01*
X006583Y003365D02*
X007869Y003365D01*
X007742Y003444D02*
X006709Y003444D01*
X006892Y003522D02*
X007561Y003522D01*
X008230Y002031D02*
X006221Y002031D01*
X006260Y001952D02*
X008189Y001952D01*
X008144Y001874D02*
X006306Y001874D01*
X006364Y001795D02*
X008086Y001795D01*
X008018Y001717D02*
X006428Y001717D01*
X006515Y001638D02*
X007938Y001638D01*
X007831Y001560D02*
X006621Y001560D01*
X006761Y001481D02*
X007691Y001481D01*
X007458Y001403D02*
X006986Y001403D01*
X013138Y002308D02*
X013175Y002146D01*
X013237Y001991D01*
X013322Y001847D01*
X013428Y001717D01*
X013552Y001605D01*
X013691Y001513D01*
X013843Y001443D01*
X014004Y001398D01*
X014169Y001376D01*
X014336Y001381D01*
X014501Y001410D01*
X014659Y001464D01*
X014807Y001541D01*
X014942Y001640D01*
X015060Y001758D01*
X015159Y001893D01*
X015236Y002041D01*
X015290Y002199D01*
X015319Y002364D01*
X015324Y002531D01*
X015302Y002696D01*
X015257Y002857D01*
X015187Y003009D01*
X015095Y003148D01*
X014983Y003272D01*
X014853Y003378D01*
X014709Y003463D01*
X014554Y003525D01*
X014392Y003562D01*
X014225Y003575D01*
X014068Y003564D01*
X013915Y003530D01*
X013768Y003476D01*
X013630Y003400D01*
X013505Y003306D01*
X013394Y003195D01*
X013300Y003070D01*
X013224Y002932D01*
X013170Y002785D01*
X013136Y002632D01*
X013125Y002475D01*
X013138Y002308D01*
X013135Y002345D02*
X015316Y002345D01*
X015321Y002423D02*
X013129Y002423D01*
X013127Y002502D02*
X015323Y002502D01*
X015317Y002580D02*
X013133Y002580D01*
X013142Y002659D02*
X015307Y002659D01*
X015291Y002737D02*
X013159Y002737D01*
X013181Y002816D02*
X015268Y002816D01*
X015240Y002894D02*
X013210Y002894D01*
X013247Y002973D02*
X015203Y002973D01*
X015159Y003051D02*
X013289Y003051D01*
X013344Y003130D02*
X015107Y003130D01*
X015041Y003208D02*
X013406Y003208D01*
X013485Y003287D02*
X014965Y003287D01*
X014869Y003365D02*
X013583Y003365D01*
X013709Y003444D02*
X014742Y003444D01*
X014561Y003522D02*
X013892Y003522D01*
X013148Y002266D02*
X015302Y002266D01*
X015286Y002188D02*
X013166Y002188D01*
X013190Y002109D02*
X015259Y002109D01*
X015230Y002031D02*
X013221Y002031D01*
X013260Y001952D02*
X015189Y001952D01*
X015144Y001874D02*
X013306Y001874D01*
X013364Y001795D02*
X015086Y001795D01*
X015018Y001717D02*
X013428Y001717D01*
X013515Y001638D02*
X014938Y001638D01*
X014831Y001560D02*
X013621Y001560D01*
X013761Y001481D02*
X014691Y001481D01*
X014458Y001403D02*
X013986Y001403D01*
X020138Y002308D02*
X020175Y002146D01*
X020237Y001991D01*
X020322Y001847D01*
X020428Y001717D01*
X020552Y001605D01*
X020691Y001513D01*
X020843Y001443D01*
X021004Y001398D01*
X021169Y001376D01*
X021336Y001381D01*
X021501Y001410D01*
X021659Y001464D01*
X021807Y001541D01*
X021942Y001640D01*
X022060Y001758D01*
X022159Y001893D01*
X022236Y002041D01*
X022290Y002199D01*
X022319Y002364D01*
X022324Y002531D01*
X022302Y002696D01*
X022257Y002857D01*
X022187Y003009D01*
X022095Y003148D01*
X021983Y003272D01*
X021853Y003378D01*
X021709Y003463D01*
X021554Y003525D01*
X021392Y003562D01*
X021225Y003575D01*
X021068Y003564D01*
X020915Y003530D01*
X020768Y003476D01*
X020630Y003400D01*
X020505Y003306D01*
X020394Y003195D01*
X020300Y003070D01*
X020224Y002932D01*
X020170Y002785D01*
X020136Y002632D01*
X020125Y002475D01*
X020138Y002308D01*
X020135Y002345D02*
X022316Y002345D01*
X022321Y002423D02*
X020129Y002423D01*
X020127Y002502D02*
X022323Y002502D01*
X022317Y002580D02*
X020133Y002580D01*
X020142Y002659D02*
X022307Y002659D01*
X022291Y002737D02*
X020159Y002737D01*
X020181Y002816D02*
X022268Y002816D01*
X022240Y002894D02*
X020210Y002894D01*
X020247Y002973D02*
X022203Y002973D01*
X022159Y003051D02*
X020289Y003051D01*
X020344Y003130D02*
X022107Y003130D01*
X022041Y003208D02*
X020406Y003208D01*
X020485Y003287D02*
X021965Y003287D01*
X021869Y003365D02*
X020583Y003365D01*
X020709Y003444D02*
X021742Y003444D01*
X021561Y003522D02*
X020892Y003522D01*
X020148Y002266D02*
X022302Y002266D01*
X022286Y002188D02*
X020166Y002188D01*
X020190Y002109D02*
X022259Y002109D01*
X022230Y002031D02*
X020221Y002031D01*
X020260Y001952D02*
X022189Y001952D01*
X022144Y001874D02*
X020306Y001874D01*
X020364Y001795D02*
X022086Y001795D01*
X022018Y001717D02*
X020428Y001717D01*
X020515Y001638D02*
X021938Y001638D01*
X021831Y001560D02*
X020621Y001560D01*
X020761Y001481D02*
X021691Y001481D01*
X021458Y001403D02*
X020986Y001403D01*
X027138Y002308D02*
X027175Y002146D01*
X027237Y001991D01*
X027322Y001847D01*
X027428Y001717D01*
X027552Y001605D01*
X027691Y001513D01*
X027843Y001443D01*
X028004Y001398D01*
X028169Y001376D01*
X028336Y001381D01*
X028501Y001410D01*
X028659Y001464D01*
X028807Y001541D01*
X028942Y001640D01*
X029060Y001758D01*
X029159Y001893D01*
X029236Y002041D01*
X029290Y002199D01*
X029319Y002364D01*
X029324Y002531D01*
X029302Y002696D01*
X029257Y002857D01*
X029187Y003009D01*
X029095Y003148D01*
X028983Y003272D01*
X028853Y003378D01*
X028709Y003463D01*
X028554Y003525D01*
X028392Y003562D01*
X028225Y003575D01*
X028068Y003564D01*
X027915Y003530D01*
X027768Y003476D01*
X027630Y003400D01*
X027505Y003306D01*
X027394Y003195D01*
X027300Y003070D01*
X027224Y002932D01*
X027170Y002785D01*
X027136Y002632D01*
X027125Y002475D01*
X027138Y002308D01*
X027135Y002345D02*
X029316Y002345D01*
X029321Y002423D02*
X027129Y002423D01*
X027127Y002502D02*
X029323Y002502D01*
X029317Y002580D02*
X027133Y002580D01*
X027142Y002659D02*
X029307Y002659D01*
X029291Y002737D02*
X027159Y002737D01*
X027181Y002816D02*
X029268Y002816D01*
X029240Y002894D02*
X027210Y002894D01*
X027247Y002973D02*
X029203Y002973D01*
X029159Y003051D02*
X027289Y003051D01*
X027344Y003130D02*
X029107Y003130D01*
X029041Y003208D02*
X027406Y003208D01*
X027485Y003287D02*
X028965Y003287D01*
X028869Y003365D02*
X027583Y003365D01*
X027709Y003444D02*
X028742Y003444D01*
X028561Y003522D02*
X027892Y003522D01*
X027148Y002266D02*
X029302Y002266D01*
X029286Y002188D02*
X027166Y002188D01*
X027190Y002109D02*
X029259Y002109D01*
X029230Y002031D02*
X027221Y002031D01*
X027260Y001952D02*
X029189Y001952D01*
X029144Y001874D02*
X027306Y001874D01*
X027364Y001795D02*
X029086Y001795D01*
X029018Y001717D02*
X027428Y001717D01*
X027515Y001638D02*
X028938Y001638D01*
X028831Y001560D02*
X027621Y001560D01*
X027761Y001481D02*
X028691Y001481D01*
X028458Y001403D02*
X027986Y001403D01*
X028169Y024876D02*
X028004Y024898D01*
X027843Y024943D01*
X027691Y025013D01*
X027552Y025105D01*
X027428Y025217D01*
X027322Y025347D01*
X027237Y025491D01*
X027175Y025646D01*
X027138Y025808D01*
X027125Y025975D01*
X027136Y026132D01*
X027170Y026285D01*
X027224Y026432D01*
X027300Y026570D01*
X027394Y026695D01*
X027505Y026806D01*
X027630Y026900D01*
X027768Y026976D01*
X027915Y027030D01*
X028068Y027064D01*
X028225Y027075D01*
X028392Y027062D01*
X028554Y027025D01*
X028709Y026963D01*
X028853Y026878D01*
X028983Y026772D01*
X029095Y026648D01*
X029187Y026509D01*
X029257Y026357D01*
X029302Y026196D01*
X029324Y026031D01*
X029319Y025864D01*
X029290Y025699D01*
X029236Y025541D01*
X029159Y025393D01*
X029060Y025258D01*
X028942Y025140D01*
X028807Y025041D01*
X028659Y024964D01*
X028501Y024910D01*
X028336Y024881D01*
X028169Y024876D01*
X027823Y024953D02*
X028625Y024953D01*
X028787Y025031D02*
X027664Y025031D01*
X027547Y025110D02*
X028900Y025110D01*
X028989Y025188D02*
X027460Y025188D01*
X027387Y025267D02*
X029066Y025267D01*
X029123Y025345D02*
X027323Y025345D01*
X027277Y025424D02*
X029174Y025424D01*
X029215Y025502D02*
X027233Y025502D01*
X027201Y025581D02*
X029249Y025581D01*
X029276Y025659D02*
X027172Y025659D01*
X027154Y025738D02*
X029297Y025738D01*
X029311Y025816D02*
X027137Y025816D01*
X027131Y025895D02*
X029320Y025895D01*
X029322Y025973D02*
X027125Y025973D01*
X027130Y026052D02*
X029321Y026052D01*
X029311Y026130D02*
X027136Y026130D01*
X027153Y026209D02*
X029299Y026209D01*
X029277Y026287D02*
X027170Y026287D01*
X027200Y026366D02*
X029253Y026366D01*
X029217Y026444D02*
X027231Y026444D01*
X027274Y026523D02*
X029178Y026523D01*
X029126Y026601D02*
X027323Y026601D01*
X027382Y026680D02*
X029067Y026680D01*
X028996Y026758D02*
X027456Y026758D01*
X027545Y026837D02*
X028904Y026837D01*
X028790Y026915D02*
X027657Y026915D01*
X027816Y026994D02*
X028632Y026994D01*
X028263Y027072D02*
X028184Y027072D01*
X022302Y026196D02*
X022324Y026031D01*
X022319Y025864D01*
X022290Y025699D01*
X022236Y025541D01*
X022159Y025393D01*
X022060Y025258D01*
X021942Y025140D01*
X021807Y025041D01*
X021659Y024964D01*
X021501Y024910D01*
X021336Y024881D01*
X021169Y024876D01*
X021004Y024898D01*
X020843Y024943D01*
X020691Y025013D01*
X020552Y025105D01*
X020428Y025217D01*
X020322Y025347D01*
X020237Y025491D01*
X020175Y025646D01*
X020138Y025808D01*
X020125Y025975D01*
X020136Y026132D01*
X020170Y026285D01*
X020224Y026432D01*
X020300Y026570D01*
X020394Y026695D01*
X020505Y026806D01*
X020630Y026900D01*
X020768Y026976D01*
X020915Y027030D01*
X021068Y027064D01*
X021225Y027075D01*
X021392Y027062D01*
X021554Y027025D01*
X021709Y026963D01*
X021853Y026878D01*
X021983Y026772D01*
X022095Y026648D01*
X022187Y026509D01*
X022257Y026357D01*
X022302Y026196D01*
X022299Y026209D02*
X020153Y026209D01*
X020170Y026287D02*
X022277Y026287D01*
X022253Y026366D02*
X020200Y026366D01*
X020231Y026444D02*
X022217Y026444D01*
X022178Y026523D02*
X020274Y026523D01*
X020323Y026601D02*
X022126Y026601D01*
X022067Y026680D02*
X020382Y026680D01*
X020456Y026758D02*
X021996Y026758D01*
X021904Y026837D02*
X020545Y026837D01*
X020657Y026915D02*
X021790Y026915D01*
X021632Y026994D02*
X020816Y026994D01*
X021184Y027072D02*
X021263Y027072D01*
X022311Y026130D02*
X020136Y026130D01*
X020130Y026052D02*
X022321Y026052D01*
X022322Y025973D02*
X020125Y025973D01*
X020131Y025895D02*
X022320Y025895D01*
X022311Y025816D02*
X020137Y025816D01*
X020154Y025738D02*
X022297Y025738D01*
X022276Y025659D02*
X020172Y025659D01*
X020201Y025581D02*
X022249Y025581D01*
X022215Y025502D02*
X020233Y025502D01*
X020277Y025424D02*
X022174Y025424D01*
X022123Y025345D02*
X020323Y025345D01*
X020387Y025267D02*
X022066Y025267D01*
X021989Y025188D02*
X020460Y025188D01*
X020547Y025110D02*
X021900Y025110D01*
X021787Y025031D02*
X020664Y025031D01*
X020823Y024953D02*
X021625Y024953D01*
X015319Y025864D02*
X015324Y026031D01*
X015302Y026196D01*
X015257Y026357D01*
X015187Y026509D01*
X015095Y026648D01*
X014983Y026772D01*
X014853Y026878D01*
X014709Y026963D01*
X014554Y027025D01*
X014392Y027062D01*
X014225Y027075D01*
X014068Y027064D01*
X013915Y027030D01*
X013768Y026976D01*
X013630Y026900D01*
X013505Y026806D01*
X013394Y026695D01*
X013300Y026570D01*
X013224Y026432D01*
X013170Y026285D01*
X013136Y026132D01*
X013125Y025975D01*
X013138Y025808D01*
X013175Y025646D01*
X013237Y025491D01*
X013322Y025347D01*
X013428Y025217D01*
X013552Y025105D01*
X013691Y025013D01*
X013843Y024943D01*
X014004Y024898D01*
X014169Y024876D01*
X014336Y024881D01*
X014501Y024910D01*
X014659Y024964D01*
X014807Y025041D01*
X014942Y025140D01*
X015060Y025258D01*
X015159Y025393D01*
X015236Y025541D01*
X015290Y025699D01*
X015319Y025864D01*
X015320Y025895D02*
X013131Y025895D01*
X013125Y025973D02*
X015322Y025973D01*
X015321Y026052D02*
X013130Y026052D01*
X013136Y026130D02*
X015311Y026130D01*
X015299Y026209D02*
X013153Y026209D01*
X013170Y026287D02*
X015277Y026287D01*
X015253Y026366D02*
X013200Y026366D01*
X013231Y026444D02*
X015217Y026444D01*
X015178Y026523D02*
X013274Y026523D01*
X013323Y026601D02*
X015126Y026601D01*
X015067Y026680D02*
X013382Y026680D01*
X013456Y026758D02*
X014996Y026758D01*
X014904Y026837D02*
X013545Y026837D01*
X013657Y026915D02*
X014790Y026915D01*
X014632Y026994D02*
X013816Y026994D01*
X014184Y027072D02*
X014263Y027072D01*
X015311Y025816D02*
X013137Y025816D01*
X013154Y025738D02*
X015297Y025738D01*
X015276Y025659D02*
X013172Y025659D01*
X013201Y025581D02*
X015249Y025581D01*
X015215Y025502D02*
X013233Y025502D01*
X013277Y025424D02*
X015174Y025424D01*
X015123Y025345D02*
X013323Y025345D01*
X013387Y025267D02*
X015066Y025267D01*
X014989Y025188D02*
X013460Y025188D01*
X013547Y025110D02*
X014900Y025110D01*
X014787Y025031D02*
X013664Y025031D01*
X013823Y024953D02*
X014625Y024953D01*
X008319Y025864D02*
X008324Y026031D01*
X008302Y026196D01*
X008257Y026357D01*
X008187Y026509D01*
X008095Y026648D01*
X007983Y026772D01*
X007853Y026878D01*
X007709Y026963D01*
X007554Y027025D01*
X007392Y027062D01*
X007225Y027075D01*
X007068Y027064D01*
X006915Y027030D01*
X006768Y026976D01*
X006630Y026900D01*
X006505Y026806D01*
X006394Y026695D01*
X006300Y026570D01*
X006224Y026432D01*
X006170Y026285D01*
X006136Y026132D01*
X006125Y025975D01*
X006138Y025808D01*
X006175Y025646D01*
X006237Y025491D01*
X006322Y025347D01*
X006428Y025217D01*
X006552Y025105D01*
X006691Y025013D01*
X006843Y024943D01*
X007004Y024898D01*
X007169Y024876D01*
X007336Y024881D01*
X007501Y024910D01*
X007659Y024964D01*
X007807Y025041D01*
X007942Y025140D01*
X008060Y025258D01*
X008159Y025393D01*
X008236Y025541D01*
X008290Y025699D01*
X008319Y025864D01*
X008320Y025895D02*
X006131Y025895D01*
X006125Y025973D02*
X008322Y025973D01*
X008321Y026052D02*
X006130Y026052D01*
X006136Y026130D02*
X008311Y026130D01*
X008299Y026209D02*
X006153Y026209D01*
X006170Y026287D02*
X008277Y026287D01*
X008253Y026366D02*
X006200Y026366D01*
X006231Y026444D02*
X008217Y026444D01*
X008178Y026523D02*
X006274Y026523D01*
X006323Y026601D02*
X008126Y026601D01*
X008067Y026680D02*
X006382Y026680D01*
X006456Y026758D02*
X007996Y026758D01*
X007904Y026837D02*
X006545Y026837D01*
X006657Y026915D02*
X007790Y026915D01*
X007632Y026994D02*
X006816Y026994D01*
X007184Y027072D02*
X007263Y027072D01*
X008311Y025816D02*
X006137Y025816D01*
X006154Y025738D02*
X008297Y025738D01*
X008276Y025659D02*
X006172Y025659D01*
X006201Y025581D02*
X008249Y025581D01*
X008215Y025502D02*
X006233Y025502D01*
X006277Y025424D02*
X008174Y025424D01*
X008123Y025345D02*
X006323Y025345D01*
X006387Y025267D02*
X008066Y025267D01*
X007989Y025188D02*
X006460Y025188D01*
X006547Y025110D02*
X007900Y025110D01*
X007787Y025031D02*
X006664Y025031D01*
X006823Y024953D02*
X007625Y024953D01*
D11*
X008225Y022225D03*
X008225Y021225D03*
X008225Y020225D03*
X011225Y019975D03*
X011225Y018975D03*
X011225Y017975D03*
X011225Y015725D03*
X011225Y014725D03*
X011225Y013725D03*
X011225Y011775D03*
X011225Y010775D03*
X011225Y009775D03*
X011225Y008275D03*
X008225Y008275D03*
X005225Y008275D03*
X005225Y009775D03*
X005225Y010775D03*
X005225Y011775D03*
X005225Y013725D03*
X005225Y014725D03*
X005225Y015725D03*
X005225Y017725D03*
X005225Y018725D03*
X005225Y019725D03*
X008225Y013975D03*
X008225Y012975D03*
X008225Y011975D03*
X014975Y008575D03*
X018225Y008725D03*
X018225Y009725D03*
X018225Y010725D03*
X020725Y007275D03*
X020725Y006275D03*
X020725Y005275D03*
X022975Y004475D03*
X025725Y004475D03*
X025725Y008475D03*
X025725Y010225D03*
X025725Y011225D03*
X025725Y012225D03*
X028225Y013225D03*
X028225Y014225D03*
X028225Y015225D03*
X030725Y013975D03*
X030725Y012725D03*
X032975Y012725D03*
X032975Y013725D03*
X033975Y013725D03*
X033975Y014725D03*
X032975Y014725D03*
X032975Y015725D03*
X033975Y015725D03*
X030725Y017975D03*
X030725Y019225D03*
X030725Y020225D03*
X030725Y021225D03*
X025725Y021475D03*
X025725Y022475D03*
X025725Y020475D03*
X025725Y018725D03*
X025725Y017725D03*
X025725Y016725D03*
X022975Y017225D03*
X022975Y018475D03*
X018225Y018975D03*
X018225Y020225D03*
X018225Y021225D03*
X018225Y022225D03*
X014975Y022225D03*
X014975Y021225D03*
X014975Y020225D03*
X014975Y017975D03*
X014975Y016975D03*
X014975Y015975D03*
X018225Y014975D03*
X022975Y013225D03*
X022975Y012225D03*
X022975Y011225D03*
X022975Y010225D03*
X022975Y008475D03*
X030725Y008725D03*
X030725Y007475D03*
X030725Y006475D03*
X030725Y005475D03*
X014975Y004575D03*
X011225Y004275D03*
X008225Y004275D03*
X005225Y004275D03*
X022975Y022475D03*
D12*
X020725Y018725D03*
X020725Y017725D03*
D13*
X033575Y027225D02*
X033577Y027275D01*
X033583Y027325D01*
X033593Y027375D01*
X033606Y027423D01*
X033623Y027471D01*
X033644Y027517D01*
X033668Y027561D01*
X033696Y027603D01*
X033727Y027643D01*
X033761Y027680D01*
X033798Y027715D01*
X033837Y027746D01*
X033878Y027775D01*
X033922Y027800D01*
X033968Y027822D01*
X034015Y027840D01*
X034063Y027854D01*
X034112Y027865D01*
X034162Y027872D01*
X034212Y027875D01*
X034263Y027874D01*
X034313Y027869D01*
X034363Y027860D01*
X034411Y027848D01*
X034459Y027831D01*
X034505Y027811D01*
X034550Y027788D01*
X034593Y027761D01*
X034633Y027731D01*
X034671Y027698D01*
X034706Y027662D01*
X034739Y027623D01*
X034768Y027582D01*
X034794Y027539D01*
X034817Y027494D01*
X034836Y027447D01*
X034851Y027399D01*
X034863Y027350D01*
X034871Y027300D01*
X034875Y027250D01*
X034875Y027200D01*
X034871Y027150D01*
X034863Y027100D01*
X034851Y027051D01*
X034836Y027003D01*
X034817Y026956D01*
X034794Y026911D01*
X034768Y026868D01*
X034739Y026827D01*
X034706Y026788D01*
X034671Y026752D01*
X034633Y026719D01*
X034593Y026689D01*
X034550Y026662D01*
X034505Y026639D01*
X034459Y026619D01*
X034411Y026602D01*
X034363Y026590D01*
X034313Y026581D01*
X034263Y026576D01*
X034212Y026575D01*
X034162Y026578D01*
X034112Y026585D01*
X034063Y026596D01*
X034015Y026610D01*
X033968Y026628D01*
X033922Y026650D01*
X033878Y026675D01*
X033837Y026704D01*
X033798Y026735D01*
X033761Y026770D01*
X033727Y026807D01*
X033696Y026847D01*
X033668Y026889D01*
X033644Y026933D01*
X033623Y026979D01*
X033606Y027027D01*
X033593Y027075D01*
X033583Y027125D01*
X033577Y027175D01*
X033575Y027225D01*
X033575Y001225D02*
X033577Y001275D01*
X033583Y001325D01*
X033593Y001375D01*
X033606Y001423D01*
X033623Y001471D01*
X033644Y001517D01*
X033668Y001561D01*
X033696Y001603D01*
X033727Y001643D01*
X033761Y001680D01*
X033798Y001715D01*
X033837Y001746D01*
X033878Y001775D01*
X033922Y001800D01*
X033968Y001822D01*
X034015Y001840D01*
X034063Y001854D01*
X034112Y001865D01*
X034162Y001872D01*
X034212Y001875D01*
X034263Y001874D01*
X034313Y001869D01*
X034363Y001860D01*
X034411Y001848D01*
X034459Y001831D01*
X034505Y001811D01*
X034550Y001788D01*
X034593Y001761D01*
X034633Y001731D01*
X034671Y001698D01*
X034706Y001662D01*
X034739Y001623D01*
X034768Y001582D01*
X034794Y001539D01*
X034817Y001494D01*
X034836Y001447D01*
X034851Y001399D01*
X034863Y001350D01*
X034871Y001300D01*
X034875Y001250D01*
X034875Y001200D01*
X034871Y001150D01*
X034863Y001100D01*
X034851Y001051D01*
X034836Y001003D01*
X034817Y000956D01*
X034794Y000911D01*
X034768Y000868D01*
X034739Y000827D01*
X034706Y000788D01*
X034671Y000752D01*
X034633Y000719D01*
X034593Y000689D01*
X034550Y000662D01*
X034505Y000639D01*
X034459Y000619D01*
X034411Y000602D01*
X034363Y000590D01*
X034313Y000581D01*
X034263Y000576D01*
X034212Y000575D01*
X034162Y000578D01*
X034112Y000585D01*
X034063Y000596D01*
X034015Y000610D01*
X033968Y000628D01*
X033922Y000650D01*
X033878Y000675D01*
X033837Y000704D01*
X033798Y000735D01*
X033761Y000770D01*
X033727Y000807D01*
X033696Y000847D01*
X033668Y000889D01*
X033644Y000933D01*
X033623Y000979D01*
X033606Y001027D01*
X033593Y001075D01*
X033583Y001125D01*
X033577Y001175D01*
X033575Y001225D01*
X000575Y001225D02*
X000577Y001275D01*
X000583Y001325D01*
X000593Y001375D01*
X000606Y001423D01*
X000623Y001471D01*
X000644Y001517D01*
X000668Y001561D01*
X000696Y001603D01*
X000727Y001643D01*
X000761Y001680D01*
X000798Y001715D01*
X000837Y001746D01*
X000878Y001775D01*
X000922Y001800D01*
X000968Y001822D01*
X001015Y001840D01*
X001063Y001854D01*
X001112Y001865D01*
X001162Y001872D01*
X001212Y001875D01*
X001263Y001874D01*
X001313Y001869D01*
X001363Y001860D01*
X001411Y001848D01*
X001459Y001831D01*
X001505Y001811D01*
X001550Y001788D01*
X001593Y001761D01*
X001633Y001731D01*
X001671Y001698D01*
X001706Y001662D01*
X001739Y001623D01*
X001768Y001582D01*
X001794Y001539D01*
X001817Y001494D01*
X001836Y001447D01*
X001851Y001399D01*
X001863Y001350D01*
X001871Y001300D01*
X001875Y001250D01*
X001875Y001200D01*
X001871Y001150D01*
X001863Y001100D01*
X001851Y001051D01*
X001836Y001003D01*
X001817Y000956D01*
X001794Y000911D01*
X001768Y000868D01*
X001739Y000827D01*
X001706Y000788D01*
X001671Y000752D01*
X001633Y000719D01*
X001593Y000689D01*
X001550Y000662D01*
X001505Y000639D01*
X001459Y000619D01*
X001411Y000602D01*
X001363Y000590D01*
X001313Y000581D01*
X001263Y000576D01*
X001212Y000575D01*
X001162Y000578D01*
X001112Y000585D01*
X001063Y000596D01*
X001015Y000610D01*
X000968Y000628D01*
X000922Y000650D01*
X000878Y000675D01*
X000837Y000704D01*
X000798Y000735D01*
X000761Y000770D01*
X000727Y000807D01*
X000696Y000847D01*
X000668Y000889D01*
X000644Y000933D01*
X000623Y000979D01*
X000606Y001027D01*
X000593Y001075D01*
X000583Y001125D01*
X000577Y001175D01*
X000575Y001225D01*
X000575Y027225D02*
X000577Y027275D01*
X000583Y027325D01*
X000593Y027375D01*
X000606Y027423D01*
X000623Y027471D01*
X000644Y027517D01*
X000668Y027561D01*
X000696Y027603D01*
X000727Y027643D01*
X000761Y027680D01*
X000798Y027715D01*
X000837Y027746D01*
X000878Y027775D01*
X000922Y027800D01*
X000968Y027822D01*
X001015Y027840D01*
X001063Y027854D01*
X001112Y027865D01*
X001162Y027872D01*
X001212Y027875D01*
X001263Y027874D01*
X001313Y027869D01*
X001363Y027860D01*
X001411Y027848D01*
X001459Y027831D01*
X001505Y027811D01*
X001550Y027788D01*
X001593Y027761D01*
X001633Y027731D01*
X001671Y027698D01*
X001706Y027662D01*
X001739Y027623D01*
X001768Y027582D01*
X001794Y027539D01*
X001817Y027494D01*
X001836Y027447D01*
X001851Y027399D01*
X001863Y027350D01*
X001871Y027300D01*
X001875Y027250D01*
X001875Y027200D01*
X001871Y027150D01*
X001863Y027100D01*
X001851Y027051D01*
X001836Y027003D01*
X001817Y026956D01*
X001794Y026911D01*
X001768Y026868D01*
X001739Y026827D01*
X001706Y026788D01*
X001671Y026752D01*
X001633Y026719D01*
X001593Y026689D01*
X001550Y026662D01*
X001505Y026639D01*
X001459Y026619D01*
X001411Y026602D01*
X001363Y026590D01*
X001313Y026581D01*
X001263Y026576D01*
X001212Y026575D01*
X001162Y026578D01*
X001112Y026585D01*
X001063Y026596D01*
X001015Y026610D01*
X000968Y026628D01*
X000922Y026650D01*
X000878Y026675D01*
X000837Y026704D01*
X000798Y026735D01*
X000761Y026770D01*
X000727Y026807D01*
X000696Y026847D01*
X000668Y026889D01*
X000644Y026933D01*
X000623Y026979D01*
X000606Y027027D01*
X000593Y027075D01*
X000583Y027125D01*
X000577Y027175D01*
X000575Y027225D01*
D14*
X007225Y025975D03*
X014225Y025975D03*
X021225Y025975D03*
X028225Y025975D03*
X028225Y002475D03*
X021225Y002475D03*
X014225Y002475D03*
X007225Y002475D03*
D15*
X033975Y012725D03*
D16*
X033445Y012475D02*
X033445Y012289D01*
X033539Y012195D01*
X034411Y012195D01*
X034435Y012219D01*
X034435Y011574D01*
X034326Y011465D01*
X033677Y011465D01*
X033589Y011428D01*
X033496Y011335D01*
X033403Y011335D01*
X033271Y011280D01*
X033170Y011179D01*
X033115Y011047D01*
X033115Y010903D01*
X033170Y010771D01*
X033271Y010670D01*
X033403Y010615D01*
X033547Y010615D01*
X033679Y010670D01*
X033780Y010771D01*
X033835Y010903D01*
X033835Y010985D01*
X034473Y010985D01*
X034561Y011022D01*
X034628Y011089D01*
X034878Y011339D01*
X034915Y011427D01*
X034915Y014523D01*
X034878Y014611D01*
X034811Y014678D01*
X034561Y014928D01*
X034473Y014965D01*
X034449Y014965D01*
X034424Y015025D01*
X034275Y015174D01*
X034181Y015214D01*
X034186Y015215D01*
X034263Y015255D01*
X034333Y015305D01*
X034395Y015367D01*
X034445Y015437D01*
X034485Y015514D01*
X034511Y015596D01*
X034525Y015682D01*
X034525Y015705D01*
X033995Y015705D01*
X033995Y015745D01*
X033955Y015745D01*
X033955Y016275D01*
X033932Y016275D01*
X033846Y016261D01*
X033764Y016235D01*
X033687Y016195D01*
X033617Y016145D01*
X033555Y016083D01*
X033505Y016013D01*
X033465Y015936D01*
X033464Y015931D01*
X033424Y016025D01*
X033275Y016174D01*
X033080Y016255D01*
X032870Y016255D01*
X032773Y016215D01*
X032773Y016215D01*
X025879Y016215D01*
X026025Y016276D01*
X026174Y016425D01*
X026255Y016620D01*
X026255Y016830D01*
X026174Y017025D01*
X026025Y017174D01*
X025903Y017225D01*
X026025Y017276D01*
X026174Y017425D01*
X026255Y017620D01*
X026255Y017830D01*
X026174Y018025D01*
X026025Y018174D01*
X025903Y018225D01*
X026025Y018276D01*
X026174Y018425D01*
X026255Y018620D01*
X026255Y018830D01*
X026174Y019025D01*
X026025Y019174D01*
X025965Y019199D01*
X025965Y019626D01*
X026324Y019985D01*
X030251Y019985D01*
X030276Y019925D01*
X030425Y019776D01*
X030547Y019725D01*
X030425Y019674D01*
X030276Y019525D01*
X030195Y019330D01*
X030195Y019120D01*
X030276Y018925D01*
X030425Y018776D01*
X030620Y018695D01*
X030830Y018695D01*
X031025Y018776D01*
X031174Y018925D01*
X031255Y019120D01*
X031255Y019330D01*
X031174Y019525D01*
X031025Y019674D01*
X030903Y019725D01*
X031025Y019776D01*
X031174Y019925D01*
X031255Y020120D01*
X031255Y020330D01*
X031174Y020525D01*
X031025Y020674D01*
X030903Y020725D01*
X031025Y020776D01*
X031174Y020925D01*
X031255Y021120D01*
X031255Y021330D01*
X031174Y021525D01*
X031025Y021674D01*
X030830Y021755D01*
X030620Y021755D01*
X030425Y021674D01*
X030276Y021525D01*
X030251Y021465D01*
X026427Y021465D01*
X026339Y021428D01*
X026272Y021361D01*
X026237Y021327D01*
X026255Y021370D01*
X026255Y021580D01*
X026174Y021775D01*
X026025Y021924D01*
X025903Y021975D01*
X026025Y022026D01*
X026174Y022175D01*
X026255Y022370D01*
X026255Y022580D01*
X026174Y022775D01*
X026025Y022924D01*
X025830Y023005D01*
X025620Y023005D01*
X025425Y022924D01*
X025276Y022775D01*
X025251Y022715D01*
X023449Y022715D01*
X023424Y022775D01*
X023275Y022924D01*
X023080Y023005D01*
X022870Y023005D01*
X022675Y022924D01*
X022526Y022775D01*
X022445Y022580D01*
X022445Y022370D01*
X022526Y022175D01*
X022675Y022026D01*
X022870Y021945D01*
X023080Y021945D01*
X023275Y022026D01*
X023424Y022175D01*
X023449Y022235D01*
X025251Y022235D01*
X025276Y022175D01*
X025425Y022026D01*
X025547Y021975D01*
X025425Y021924D01*
X025276Y021775D01*
X025251Y021715D01*
X019074Y021715D01*
X018730Y022059D01*
X018755Y022120D01*
X018755Y022330D01*
X018674Y022525D01*
X018525Y022674D01*
X018330Y022755D01*
X018120Y022755D01*
X017925Y022674D01*
X017776Y022525D01*
X017695Y022330D01*
X017695Y022120D01*
X017776Y021925D01*
X017925Y021776D01*
X018047Y021725D01*
X017925Y021674D01*
X017776Y021525D01*
X017695Y021330D01*
X017695Y021120D01*
X017776Y020925D01*
X017925Y020776D01*
X018047Y020725D01*
X017925Y020674D01*
X017776Y020525D01*
X017751Y020465D01*
X015449Y020465D01*
X015424Y020525D01*
X015275Y020674D01*
X015153Y020725D01*
X015275Y020776D01*
X015424Y020925D01*
X015505Y021120D01*
X015505Y021330D01*
X015424Y021525D01*
X015275Y021674D01*
X015153Y021725D01*
X015275Y021776D01*
X015424Y021925D01*
X015505Y022120D01*
X015505Y022330D01*
X015424Y022525D01*
X015275Y022674D01*
X015080Y022755D01*
X014870Y022755D01*
X014675Y022674D01*
X014526Y022525D01*
X014445Y022330D01*
X014445Y022120D01*
X014526Y021925D01*
X014675Y021776D01*
X014797Y021725D01*
X014675Y021674D01*
X014526Y021525D01*
X014501Y021465D01*
X008699Y021465D01*
X008674Y021525D01*
X008525Y021674D01*
X008403Y021725D01*
X008525Y021776D01*
X008674Y021925D01*
X008755Y022120D01*
X008755Y022330D01*
X008674Y022525D01*
X008525Y022674D01*
X008330Y022755D01*
X008120Y022755D01*
X007925Y022674D01*
X007776Y022525D01*
X007695Y022330D01*
X007695Y022120D01*
X007776Y021925D01*
X007925Y021776D01*
X008047Y021725D01*
X007925Y021674D01*
X007776Y021525D01*
X007751Y021465D01*
X005677Y021465D01*
X005589Y021428D01*
X005522Y021361D01*
X005022Y020861D01*
X004985Y020773D01*
X004985Y020199D01*
X004925Y020174D01*
X004776Y020025D01*
X004695Y019830D01*
X004695Y019620D01*
X004776Y019425D01*
X004925Y019276D01*
X005047Y019225D01*
X004925Y019174D01*
X004776Y019025D01*
X004751Y018965D01*
X004177Y018965D01*
X004089Y018928D01*
X000425Y018928D01*
X000425Y018770D02*
X003930Y018770D01*
X004022Y018861D02*
X003772Y018611D01*
X000425Y018611D01*
X000425Y018453D02*
X003735Y018453D01*
X003735Y018523D02*
X003735Y001177D01*
X003772Y001089D01*
X003839Y001022D01*
X004089Y000772D01*
X004177Y000735D01*
X021023Y000735D01*
X021111Y000772D01*
X021428Y001089D01*
X021465Y001177D01*
X021465Y001201D01*
X021471Y001202D01*
X021487Y001194D01*
X021551Y001216D01*
X021618Y001228D01*
X021627Y001242D01*
X021661Y001254D01*
X021678Y001249D01*
X021738Y001280D01*
X021802Y001302D01*
X021809Y001317D01*
X021841Y001334D01*
X021858Y001331D01*
X021913Y001371D01*
X021973Y001403D01*
X021978Y001419D01*
X022007Y001440D01*
X022024Y001440D01*
X022072Y001488D01*
X022127Y001528D01*
X022129Y001545D01*
X022155Y001571D01*
X022172Y001573D01*
X022212Y001628D01*
X022260Y001676D01*
X022260Y001693D01*
X022281Y001722D01*
X022297Y001727D01*
X022329Y001787D01*
X022369Y001842D01*
X022366Y001859D01*
X022383Y001891D01*
X022398Y001898D01*
X022420Y001962D01*
X022451Y002022D01*
X022446Y002039D01*
X022458Y002073D01*
X022472Y002082D01*
X022484Y002149D01*
X022506Y002213D01*
X022498Y002229D01*
X022505Y002264D01*
X022517Y002276D01*
X022519Y002343D01*
X022531Y002410D01*
X022521Y002424D01*
X022522Y002460D01*
X022532Y002474D01*
X022524Y002541D01*
X022526Y002608D01*
X022514Y002621D01*
X022509Y002657D01*
X022518Y002672D01*
X022499Y002737D01*
X022490Y002804D01*
X022477Y002814D01*
X022467Y002849D01*
X022473Y002865D01*
X022445Y002927D01*
X022426Y002992D01*
X022411Y003000D01*
X022396Y003033D01*
X022399Y003050D01*
X022362Y003106D01*
X022334Y003168D01*
X022318Y003174D01*
X022298Y003204D01*
X022299Y003221D01*
X022253Y003271D01*
X022216Y003328D01*
X022199Y003331D01*
X022175Y003358D01*
X022173Y003375D01*
X022121Y003418D01*
X022076Y003468D01*
X022058Y003469D01*
X022031Y003491D01*
X022026Y003508D01*
X021968Y003542D01*
X021916Y003585D01*
X021898Y003583D01*
X021867Y003602D01*
X021861Y003618D01*
X021817Y003635D01*
X027594Y003635D01*
X027505Y003584D01*
X027393Y003502D01*
X027290Y003410D01*
X027198Y003307D01*
X027116Y003195D01*
X027090Y003149D01*
X027047Y003075D01*
X027023Y003021D01*
X026991Y002949D01*
X026991Y002949D01*
X026970Y002886D01*
X026948Y002817D01*
X026932Y002743D01*
X026919Y002682D01*
X026919Y002682D01*
X026906Y002555D01*
X028145Y002555D01*
X028145Y002395D01*
X028305Y002395D01*
X028305Y002555D01*
X029543Y002555D01*
X029537Y002640D01*
X029511Y002779D01*
X029472Y002915D01*
X029417Y003046D01*
X029350Y003170D01*
X029269Y003286D01*
X029176Y003393D01*
X029073Y003489D01*
X029040Y003514D01*
X028959Y003574D01*
X028921Y003597D01*
X028857Y003635D01*
X034423Y003635D01*
X034511Y003672D01*
X034704Y003865D01*
X034797Y003865D01*
X034929Y003920D01*
X035025Y004016D01*
X035025Y001515D01*
X034946Y001706D01*
X034946Y001706D01*
X034706Y001946D01*
X034394Y002075D01*
X034056Y002075D01*
X033744Y001946D01*
X033744Y001946D01*
X033504Y001706D01*
X033375Y001394D01*
X033375Y001056D01*
X033504Y000744D01*
X033744Y000504D01*
X033935Y000425D01*
X001515Y000425D01*
X001706Y000504D01*
X001706Y000504D01*
X001946Y000744D01*
X002075Y001056D01*
X002075Y001394D01*
X001946Y001706D01*
X001946Y001706D01*
X001706Y001946D01*
X001394Y002075D01*
X001056Y002075D01*
X000744Y001946D01*
X000744Y001946D01*
X000504Y001706D01*
X000425Y001515D01*
X000425Y012275D01*
X000482Y012275D01*
X000978Y012408D01*
X001422Y012665D01*
X001422Y012665D01*
X001785Y013028D01*
X002042Y013472D01*
X002042Y013472D01*
X002175Y013968D01*
X002175Y014482D01*
X002042Y014978D01*
X001785Y015422D01*
X001785Y015422D01*
X001422Y015785D01*
X000978Y016042D01*
X000978Y016042D01*
X000482Y016175D01*
X000425Y016175D01*
X000425Y026935D01*
X000504Y026744D01*
X000744Y026504D01*
X001056Y026375D01*
X001394Y026375D01*
X001706Y026504D01*
X001706Y026504D01*
X001946Y026744D01*
X002075Y027056D01*
X002075Y027394D01*
X001946Y027706D01*
X001946Y027706D01*
X001706Y027946D01*
X001515Y028025D01*
X033935Y028025D01*
X033744Y027946D01*
X033504Y027706D01*
X033375Y027394D01*
X033375Y027056D01*
X033504Y026744D01*
X033744Y026504D01*
X034056Y026375D01*
X034394Y026375D01*
X034706Y026504D01*
X034706Y026504D01*
X034946Y026744D01*
X035025Y026935D01*
X035025Y004434D01*
X034929Y004530D01*
X034797Y004585D01*
X034653Y004585D01*
X034521Y004530D01*
X034420Y004429D01*
X034365Y004297D01*
X034365Y004204D01*
X034276Y004115D01*
X026115Y004115D01*
X026174Y004175D01*
X026255Y004370D01*
X026255Y004580D01*
X026174Y004775D01*
X026025Y004924D01*
X025965Y004949D01*
X025965Y006073D01*
X025928Y006161D01*
X025861Y006228D01*
X025611Y006478D01*
X025523Y006515D01*
X021199Y006515D01*
X021174Y006575D01*
X021025Y006724D01*
X020903Y006775D01*
X021025Y006826D01*
X021174Y006975D01*
X021255Y007170D01*
X021255Y007380D01*
X021174Y007575D01*
X021025Y007724D01*
X020830Y007805D01*
X020620Y007805D01*
X020425Y007724D01*
X020276Y007575D01*
X020195Y007380D01*
X020195Y007170D01*
X020276Y006975D01*
X020425Y006826D01*
X020547Y006775D01*
X020425Y006724D01*
X020276Y006575D01*
X020195Y006380D01*
X020195Y006170D01*
X020276Y005975D01*
X020425Y005826D01*
X020519Y005786D01*
X020514Y005785D01*
X020437Y005745D01*
X020367Y005695D01*
X020305Y005633D01*
X020255Y005563D01*
X020215Y005486D01*
X020189Y005404D01*
X020175Y005318D01*
X020175Y005275D01*
X020725Y005275D01*
X021275Y005275D01*
X021275Y005318D01*
X021261Y005404D01*
X021235Y005486D01*
X021195Y005563D01*
X021145Y005633D01*
X021083Y005695D01*
X021013Y005745D01*
X020936Y005785D01*
X020931Y005786D01*
X021025Y005826D01*
X021174Y005975D01*
X021199Y006035D01*
X025376Y006035D01*
X025485Y005926D01*
X025485Y004949D01*
X025425Y004924D01*
X025276Y004775D01*
X025195Y004580D01*
X025195Y004370D01*
X025276Y004175D01*
X025335Y004115D01*
X023365Y004115D01*
X023424Y004175D01*
X023505Y004370D01*
X023505Y004580D01*
X023424Y004775D01*
X023275Y004924D01*
X023080Y005005D01*
X022870Y005005D01*
X022675Y004924D01*
X022526Y004775D01*
X022445Y004580D01*
X022445Y004370D01*
X022526Y004175D01*
X022585Y004115D01*
X015577Y004115D01*
X015489Y004078D01*
X015422Y004011D01*
X014960Y003549D01*
X014916Y003585D01*
X014898Y003583D01*
X014867Y003602D01*
X014861Y003618D01*
X014798Y003643D01*
X014740Y003677D01*
X014723Y003673D01*
X014689Y003686D01*
X014680Y003701D01*
X014614Y003716D01*
X014552Y003741D01*
X014536Y003734D01*
X014501Y003742D01*
X014489Y003755D01*
X014422Y003761D01*
X014356Y003776D01*
X014341Y003767D01*
X014306Y003769D01*
X014293Y003780D01*
X014225Y003776D01*
X014158Y003781D01*
X014145Y003770D01*
X014121Y003768D01*
X014107Y003777D01*
X014040Y003762D01*
X013972Y003757D01*
X013961Y003745D01*
X013938Y003740D01*
X013923Y003747D01*
X013859Y003723D01*
X013792Y003708D01*
X013783Y003695D01*
X013761Y003686D01*
X013745Y003691D01*
X013685Y003658D01*
X013621Y003634D01*
X013614Y003619D01*
X013593Y003608D01*
X013577Y003610D01*
X013522Y003569D01*
X013462Y003536D01*
X013457Y003521D01*
X013438Y003506D01*
X013422Y003506D01*
X013373Y003458D01*
X013318Y003417D01*
X013316Y003401D01*
X013299Y003384D01*
X013283Y003382D01*
X013242Y003327D01*
X013194Y003278D01*
X013194Y003262D01*
X013179Y003243D01*
X013164Y003238D01*
X013131Y003178D01*
X013090Y003123D01*
X013092Y003107D01*
X013081Y003086D01*
X013066Y003079D01*
X013042Y003015D01*
X013009Y002955D01*
X013014Y002939D01*
X013005Y002917D01*
X012992Y002908D01*
X012977Y002841D01*
X012953Y002777D01*
X012960Y002762D01*
X012955Y002739D01*
X012943Y002728D01*
X012938Y002660D01*
X012923Y002593D01*
X012932Y002579D01*
X012930Y002555D01*
X012919Y002542D01*
X012924Y002475D01*
X012920Y002407D01*
X012931Y002394D01*
X012933Y002359D01*
X012924Y002344D01*
X012939Y002278D01*
X012945Y002211D01*
X012958Y002199D01*
X012966Y002164D01*
X012959Y002148D01*
X012984Y002086D01*
X012999Y002020D01*
X013014Y002011D01*
X013027Y001977D01*
X013023Y001960D01*
X013057Y001902D01*
X013082Y001839D01*
X013098Y001833D01*
X013117Y001802D01*
X013115Y001784D01*
X013158Y001732D01*
X013192Y001674D01*
X013209Y001669D01*
X013231Y001642D01*
X013232Y001624D01*
X013282Y001579D01*
X013325Y001527D01*
X013342Y001525D01*
X013369Y001501D01*
X013372Y001484D01*
X013429Y001447D01*
X013479Y001401D01*
X013496Y001402D01*
X013526Y001382D01*
X013532Y001366D01*
X013594Y001338D01*
X013650Y001301D01*
X013667Y001304D01*
X013700Y001289D01*
X013708Y001274D01*
X013773Y001255D01*
X013835Y001227D01*
X013851Y001233D01*
X013886Y001223D01*
X013892Y001215D01*
X007548Y001215D01*
X007551Y001216D01*
X007618Y001228D01*
X007627Y001242D01*
X007661Y001254D01*
X007678Y001249D01*
X007738Y001280D01*
X007802Y001302D01*
X007809Y001317D01*
X007841Y001334D01*
X007858Y001331D01*
X007913Y001371D01*
X007973Y001403D01*
X007978Y001419D01*
X008007Y001440D01*
X008024Y001440D01*
X008072Y001488D01*
X008127Y001528D01*
X008129Y001545D01*
X008155Y001571D01*
X008172Y001573D01*
X008212Y001628D01*
X008260Y001676D01*
X008260Y001693D01*
X008281Y001722D01*
X008297Y001727D01*
X008329Y001787D01*
X008369Y001842D01*
X008366Y001859D01*
X008383Y001891D01*
X008398Y001898D01*
X008420Y001962D01*
X008451Y002022D01*
X008446Y002039D01*
X008458Y002073D01*
X008472Y002082D01*
X008484Y002149D01*
X008506Y002213D01*
X008498Y002229D01*
X008505Y002264D01*
X008517Y002276D01*
X008519Y002343D01*
X008531Y002410D01*
X008521Y002424D01*
X008522Y002460D01*
X008532Y002474D01*
X008524Y002541D01*
X008526Y002608D01*
X008514Y002621D01*
X008509Y002657D01*
X008518Y002672D01*
X008499Y002737D01*
X008490Y002804D01*
X008477Y002814D01*
X008467Y002849D01*
X008473Y002865D01*
X008445Y002927D01*
X008426Y002992D01*
X008411Y003000D01*
X008396Y003033D01*
X008399Y003050D01*
X008362Y003106D01*
X008334Y003168D01*
X008318Y003174D01*
X008298Y003204D01*
X008299Y003221D01*
X008253Y003271D01*
X008216Y003328D01*
X008199Y003331D01*
X008175Y003358D01*
X008173Y003375D01*
X008121Y003418D01*
X008076Y003468D01*
X008058Y003469D01*
X008031Y003491D01*
X008026Y003508D01*
X007968Y003542D01*
X007916Y003585D01*
X007898Y003583D01*
X007867Y003602D01*
X007861Y003618D01*
X007798Y003643D01*
X007740Y003677D01*
X007723Y003673D01*
X007689Y003686D01*
X007680Y003701D01*
X007614Y003716D01*
X007552Y003741D01*
X007536Y003734D01*
X007501Y003742D01*
X007489Y003755D01*
X007422Y003761D01*
X007356Y003776D01*
X007341Y003767D01*
X007306Y003769D01*
X007293Y003780D01*
X007225Y003776D01*
X007158Y003781D01*
X007145Y003770D01*
X007121Y003768D01*
X007107Y003777D01*
X007040Y003762D01*
X006972Y003757D01*
X006961Y003745D01*
X006938Y003740D01*
X006923Y003747D01*
X006859Y003723D01*
X006792Y003708D01*
X006783Y003695D01*
X006761Y003686D01*
X006745Y003691D01*
X006685Y003658D01*
X006621Y003634D01*
X006614Y003619D01*
X006593Y003608D01*
X006577Y003610D01*
X006522Y003569D01*
X006462Y003536D01*
X006457Y003521D01*
X006438Y003506D01*
X006422Y003506D01*
X006373Y003458D01*
X006318Y003417D01*
X006316Y003401D01*
X006299Y003384D01*
X006283Y003382D01*
X006242Y003327D01*
X006194Y003278D01*
X006194Y003262D01*
X006179Y003243D01*
X006164Y003238D01*
X006131Y003178D01*
X006090Y003123D01*
X006092Y003107D01*
X006081Y003086D01*
X006066Y003079D01*
X006042Y003015D01*
X006009Y002955D01*
X006014Y002939D01*
X006005Y002917D01*
X005992Y002908D01*
X005977Y002841D01*
X005953Y002777D01*
X005960Y002762D01*
X005955Y002739D01*
X005943Y002728D01*
X005938Y002660D01*
X005923Y002593D01*
X005932Y002579D01*
X005930Y002555D01*
X005919Y002542D01*
X005924Y002475D01*
X005920Y002407D01*
X005931Y002394D01*
X005933Y002359D01*
X005924Y002344D01*
X005939Y002278D01*
X005945Y002211D01*
X005958Y002199D01*
X005966Y002164D01*
X005959Y002148D01*
X005984Y002086D01*
X005999Y002020D01*
X006014Y002011D01*
X006027Y001977D01*
X006023Y001960D01*
X006057Y001902D01*
X006082Y001839D01*
X006098Y001833D01*
X006117Y001802D01*
X006115Y001784D01*
X006158Y001732D01*
X006192Y001674D01*
X006209Y001669D01*
X006231Y001642D01*
X006232Y001624D01*
X006282Y001579D01*
X006325Y001527D01*
X006342Y001525D01*
X006369Y001501D01*
X006372Y001484D01*
X006429Y001447D01*
X006479Y001401D01*
X006496Y001402D01*
X006526Y001382D01*
X006532Y001366D01*
X006594Y001338D01*
X006650Y001301D01*
X006667Y001304D01*
X006700Y001289D01*
X006708Y001274D01*
X006773Y001255D01*
X006835Y001227D01*
X006851Y001233D01*
X006886Y001223D01*
X006892Y001215D01*
X004324Y001215D01*
X004215Y001324D01*
X004215Y018376D01*
X004324Y018485D01*
X004751Y018485D01*
X004776Y018425D01*
X004925Y018276D01*
X005047Y018225D01*
X004925Y018174D01*
X004776Y018025D01*
X004695Y017830D01*
X004695Y017620D01*
X004776Y017425D01*
X004925Y017276D01*
X005120Y017195D01*
X005330Y017195D01*
X005525Y017276D01*
X005674Y017425D01*
X005755Y017620D01*
X005755Y017830D01*
X005674Y018025D01*
X005525Y018174D01*
X005403Y018225D01*
X005525Y018276D01*
X005674Y018425D01*
X005755Y018620D01*
X005755Y018830D01*
X005674Y019025D01*
X005525Y019174D01*
X005403Y019225D01*
X005525Y019276D01*
X005674Y019425D01*
X005755Y019620D01*
X005755Y019830D01*
X005674Y020025D01*
X005525Y020174D01*
X005465Y020199D01*
X005465Y020626D01*
X005824Y020985D01*
X007751Y020985D01*
X007776Y020925D01*
X007925Y020776D01*
X008047Y020725D01*
X007925Y020674D01*
X007776Y020525D01*
X007695Y020330D01*
X007695Y020120D01*
X007776Y019925D01*
X007925Y019776D01*
X008120Y019695D01*
X008330Y019695D01*
X008525Y019776D01*
X008674Y019925D01*
X008755Y020120D01*
X008755Y020330D01*
X008674Y020525D01*
X008525Y020674D01*
X008403Y020725D01*
X008525Y020776D01*
X008674Y020925D01*
X008699Y020985D01*
X010626Y020985D01*
X010985Y020626D01*
X010985Y020449D01*
X010925Y020424D01*
X010776Y020275D01*
X010695Y020080D01*
X010695Y019870D01*
X010776Y019675D01*
X010925Y019526D01*
X011047Y019475D01*
X010925Y019424D01*
X010776Y019275D01*
X010695Y019080D01*
X010695Y018870D01*
X010776Y018675D01*
X010925Y018526D01*
X011047Y018475D01*
X010925Y018424D01*
X010776Y018275D01*
X010695Y018080D01*
X010695Y017870D01*
X010776Y017675D01*
X010925Y017526D01*
X011120Y017445D01*
X011330Y017445D01*
X011525Y017526D01*
X011674Y017675D01*
X011755Y017870D01*
X011755Y018080D01*
X011674Y018275D01*
X011525Y018424D01*
X011403Y018475D01*
X011525Y018526D01*
X011674Y018675D01*
X011755Y018870D01*
X011755Y019080D01*
X011674Y019275D01*
X011525Y019424D01*
X011403Y019475D01*
X011525Y019526D01*
X011674Y019675D01*
X011755Y019870D01*
X011755Y020080D01*
X011674Y020275D01*
X011525Y020424D01*
X011465Y020449D01*
X011465Y020773D01*
X011428Y020861D01*
X011304Y020985D01*
X014501Y020985D01*
X014526Y020925D01*
X014675Y020776D01*
X014797Y020725D01*
X014675Y020674D01*
X014526Y020525D01*
X014445Y020330D01*
X014445Y020120D01*
X014526Y019925D01*
X014675Y019776D01*
X014870Y019695D01*
X015080Y019695D01*
X015275Y019776D01*
X015424Y019925D01*
X015449Y019985D01*
X017751Y019985D01*
X017776Y019925D01*
X017925Y019776D01*
X018120Y019695D01*
X018330Y019695D01*
X018525Y019776D01*
X018674Y019925D01*
X018755Y020120D01*
X018755Y020235D01*
X025251Y020235D01*
X025276Y020175D01*
X025425Y020026D01*
X025610Y019949D01*
X025522Y019861D01*
X025485Y019773D01*
X025485Y019199D01*
X025425Y019174D01*
X025276Y019025D01*
X025195Y018830D01*
X025195Y018620D01*
X025276Y018425D01*
X025425Y018276D01*
X025547Y018225D01*
X025425Y018174D01*
X025276Y018025D01*
X025251Y017965D01*
X023177Y017965D01*
X023089Y017928D01*
X023022Y017861D01*
X022916Y017755D01*
X022870Y017755D01*
X022675Y017674D01*
X022526Y017525D01*
X022445Y017330D01*
X022445Y017120D01*
X022526Y016925D01*
X022675Y016776D01*
X022870Y016695D01*
X023080Y016695D01*
X023275Y016776D01*
X023424Y016925D01*
X023505Y017120D01*
X023505Y017330D01*
X023441Y017485D01*
X025251Y017485D01*
X025276Y017425D01*
X025425Y017276D01*
X025547Y017225D01*
X025425Y017174D01*
X025276Y017025D01*
X025195Y016830D01*
X025195Y016620D01*
X025276Y016425D01*
X025425Y016276D01*
X025571Y016215D01*
X016744Y016215D01*
X016679Y016280D01*
X016547Y016335D01*
X016403Y016335D01*
X016271Y016280D01*
X016170Y016179D01*
X016115Y016047D01*
X016115Y015903D01*
X016170Y015771D01*
X016271Y015670D01*
X016403Y015615D01*
X016547Y015615D01*
X016679Y015670D01*
X016744Y015735D01*
X028071Y015735D01*
X027925Y015674D01*
X027776Y015525D01*
X027695Y015330D01*
X027695Y015120D01*
X027776Y014925D01*
X027925Y014776D01*
X028047Y014725D01*
X027925Y014674D01*
X027776Y014525D01*
X027695Y014330D01*
X027695Y014120D01*
X027713Y014077D01*
X027678Y014111D01*
X027611Y014178D01*
X027523Y014215D01*
X020744Y014215D01*
X020679Y014280D01*
X020547Y014335D01*
X020403Y014335D01*
X020271Y014280D01*
X020170Y014179D01*
X020115Y014047D01*
X020115Y013903D01*
X020170Y013771D01*
X020271Y013670D01*
X020403Y013615D01*
X020547Y013615D01*
X020679Y013670D01*
X020744Y013735D01*
X022821Y013735D01*
X022675Y013674D01*
X022526Y013525D01*
X022445Y013330D01*
X022445Y013120D01*
X022526Y012925D01*
X022675Y012776D01*
X022797Y012725D01*
X022675Y012674D01*
X022526Y012525D01*
X022445Y012330D01*
X022445Y012120D01*
X022526Y011925D01*
X022675Y011776D01*
X022797Y011725D01*
X022675Y011674D01*
X022526Y011525D01*
X022501Y011465D01*
X021624Y011465D01*
X021335Y011754D01*
X021335Y011847D01*
X021280Y011979D01*
X021179Y012080D01*
X021047Y012135D01*
X020903Y012135D01*
X020771Y012080D01*
X020706Y012015D01*
X011699Y012015D01*
X011674Y012075D01*
X011525Y012224D01*
X011330Y012305D01*
X011120Y012305D01*
X010925Y012224D01*
X010776Y012075D01*
X010695Y011880D01*
X010695Y011670D01*
X010776Y011475D01*
X010925Y011326D01*
X011047Y011275D01*
X010925Y011224D01*
X010776Y011075D01*
X010751Y011015D01*
X008824Y011015D01*
X008465Y011374D01*
X008465Y011501D01*
X008525Y011526D01*
X008674Y011675D01*
X008755Y011870D01*
X008755Y012080D01*
X008674Y012275D01*
X008525Y012424D01*
X008403Y012475D01*
X008525Y012526D01*
X008674Y012675D01*
X008755Y012870D01*
X008755Y013080D01*
X008674Y013275D01*
X008525Y013424D01*
X008403Y013475D01*
X008525Y013526D01*
X008674Y013675D01*
X008755Y013870D01*
X008755Y014080D01*
X008674Y014275D01*
X008525Y014424D01*
X008379Y014485D01*
X010751Y014485D01*
X010776Y014425D01*
X010925Y014276D01*
X011047Y014225D01*
X010925Y014174D01*
X010776Y014025D01*
X010695Y013830D01*
X010695Y013620D01*
X010776Y013425D01*
X010925Y013276D01*
X011120Y013195D01*
X011330Y013195D01*
X011525Y013276D01*
X011674Y013425D01*
X011755Y013620D01*
X011755Y013830D01*
X011674Y014025D01*
X011525Y014174D01*
X011403Y014225D01*
X011525Y014276D01*
X011674Y014425D01*
X011699Y014485D01*
X012023Y014485D01*
X012111Y014522D01*
X012361Y014772D01*
X012428Y014839D01*
X012465Y014927D01*
X012465Y017626D01*
X012574Y017735D01*
X014501Y017735D01*
X014526Y017675D01*
X014675Y017526D01*
X014797Y017475D01*
X014675Y017424D01*
X014526Y017275D01*
X014445Y017080D01*
X014445Y016870D01*
X014526Y016675D01*
X014675Y016526D01*
X014797Y016475D01*
X014675Y016424D01*
X014526Y016275D01*
X014445Y016080D01*
X014445Y015870D01*
X014526Y015675D01*
X014675Y015526D01*
X014870Y015445D01*
X015080Y015445D01*
X015275Y015526D01*
X015424Y015675D01*
X015505Y015870D01*
X015505Y016080D01*
X015424Y016275D01*
X015275Y016424D01*
X015153Y016475D01*
X015275Y016526D01*
X015424Y016675D01*
X015505Y016870D01*
X015505Y017080D01*
X015424Y017275D01*
X015275Y017424D01*
X015153Y017475D01*
X015275Y017526D01*
X015424Y017675D01*
X015505Y017870D01*
X015505Y018080D01*
X015424Y018275D01*
X015275Y018424D01*
X015080Y018505D01*
X014870Y018505D01*
X014675Y018424D01*
X014526Y018275D01*
X014501Y018215D01*
X012427Y018215D01*
X012339Y018178D01*
X012272Y018111D01*
X012022Y017861D01*
X011985Y017773D01*
X011985Y015074D01*
X011876Y014965D01*
X011699Y014965D01*
X011674Y015025D01*
X011525Y015174D01*
X011403Y015225D01*
X011525Y015276D01*
X011674Y015425D01*
X011755Y015620D01*
X011755Y015830D01*
X011674Y016025D01*
X011525Y016174D01*
X011330Y016255D01*
X011120Y016255D01*
X010925Y016174D01*
X010776Y016025D01*
X010695Y015830D01*
X010695Y015620D01*
X010776Y015425D01*
X010925Y015276D01*
X011047Y015225D01*
X010925Y015174D01*
X010776Y015025D01*
X010751Y014965D01*
X005699Y014965D01*
X005674Y015025D01*
X005525Y015174D01*
X005403Y015225D01*
X005525Y015276D01*
X005674Y015425D01*
X005755Y015620D01*
X005755Y015830D01*
X005674Y016025D01*
X005525Y016174D01*
X005330Y016255D01*
X005120Y016255D01*
X004925Y016174D01*
X004776Y016025D01*
X004695Y015830D01*
X004695Y015620D01*
X004776Y015425D01*
X004925Y015276D01*
X005047Y015225D01*
X004925Y015174D01*
X004776Y015025D01*
X004695Y014830D01*
X004695Y014620D01*
X004776Y014425D01*
X004925Y014276D01*
X005047Y014225D01*
X004925Y014174D01*
X004776Y014025D01*
X004695Y013830D01*
X004695Y013620D01*
X004776Y013425D01*
X004925Y013276D01*
X005120Y013195D01*
X005330Y013195D01*
X005525Y013276D01*
X005674Y013425D01*
X005755Y013620D01*
X005755Y013830D01*
X005674Y014025D01*
X005525Y014174D01*
X005403Y014225D01*
X005525Y014276D01*
X005674Y014425D01*
X005699Y014485D01*
X008071Y014485D01*
X007925Y014424D01*
X007776Y014275D01*
X007695Y014080D01*
X007695Y013870D01*
X007776Y013675D01*
X007925Y013526D01*
X008047Y013475D01*
X007925Y013424D01*
X007776Y013275D01*
X007751Y013215D01*
X005677Y013215D01*
X005589Y013178D01*
X005522Y013111D01*
X005022Y012611D01*
X004985Y012523D01*
X004985Y012249D01*
X004925Y012224D01*
X004776Y012075D01*
X004695Y011880D01*
X004695Y011670D01*
X004776Y011475D01*
X004925Y011326D01*
X005047Y011275D01*
X004925Y011224D01*
X004776Y011075D01*
X004695Y010880D01*
X004695Y010670D01*
X004776Y010475D01*
X004925Y010326D01*
X005047Y010275D01*
X004925Y010224D01*
X004776Y010075D01*
X004695Y009880D01*
X004695Y009670D01*
X004776Y009475D01*
X004925Y009326D01*
X005120Y009245D01*
X005330Y009245D01*
X005525Y009326D01*
X005674Y009475D01*
X005755Y009670D01*
X005755Y009880D01*
X005674Y010075D01*
X005525Y010224D01*
X005403Y010275D01*
X005525Y010326D01*
X005674Y010475D01*
X005699Y010535D01*
X007773Y010535D01*
X007861Y010572D01*
X007928Y010639D01*
X008225Y010936D01*
X008589Y010572D01*
X008677Y010535D01*
X010751Y010535D01*
X010776Y010475D01*
X010925Y010326D01*
X011047Y010275D01*
X010925Y010224D01*
X010776Y010075D01*
X010695Y009880D01*
X010695Y009670D01*
X010776Y009475D01*
X010925Y009326D01*
X011120Y009245D01*
X011330Y009245D01*
X011525Y009326D01*
X011674Y009475D01*
X011699Y009535D01*
X015823Y009535D01*
X015911Y009572D01*
X015954Y009615D01*
X016047Y009615D01*
X016179Y009670D01*
X016280Y009771D01*
X016335Y009903D01*
X016335Y010047D01*
X016280Y010179D01*
X016179Y010280D01*
X016047Y010335D01*
X015903Y010335D01*
X015771Y010280D01*
X015670Y010179D01*
X015615Y010047D01*
X015615Y010015D01*
X011699Y010015D01*
X011674Y010075D01*
X011525Y010224D01*
X011403Y010275D01*
X011525Y010326D01*
X011674Y010475D01*
X011755Y010670D01*
X011755Y010880D01*
X011674Y011075D01*
X011525Y011224D01*
X011403Y011275D01*
X011525Y011326D01*
X011674Y011475D01*
X011699Y011535D01*
X020706Y011535D01*
X020771Y011470D01*
X020903Y011415D01*
X020996Y011415D01*
X021322Y011089D01*
X021389Y011022D01*
X021477Y010985D01*
X022501Y010985D01*
X022526Y010925D01*
X022675Y010776D01*
X022797Y010725D01*
X022675Y010674D01*
X022526Y010525D01*
X022445Y010330D01*
X022445Y010120D01*
X022526Y009925D01*
X022675Y009776D01*
X022870Y009695D01*
X023080Y009695D01*
X023275Y009776D01*
X023424Y009925D01*
X023449Y009985D01*
X024773Y009985D01*
X024861Y010022D01*
X024928Y010089D01*
X025213Y010373D01*
X025195Y010330D01*
X025195Y010120D01*
X025276Y009925D01*
X025425Y009776D01*
X025620Y009695D01*
X025830Y009695D01*
X026025Y009776D01*
X026174Y009925D01*
X026255Y010120D01*
X026255Y010330D01*
X026174Y010525D01*
X026025Y010674D01*
X025903Y010725D01*
X026025Y010776D01*
X026174Y010925D01*
X026255Y011120D01*
X026255Y011330D01*
X026174Y011525D01*
X026025Y011674D01*
X025903Y011725D01*
X026025Y011776D01*
X026174Y011925D01*
X026199Y011985D01*
X029126Y011985D01*
X029365Y011746D01*
X029365Y011653D01*
X029420Y011521D01*
X029521Y011420D01*
X029653Y011365D01*
X029797Y011365D01*
X029929Y011420D01*
X030030Y011521D01*
X030085Y011653D01*
X030085Y011797D01*
X030030Y011929D01*
X029929Y012030D01*
X029797Y012085D01*
X029704Y012085D01*
X029361Y012428D01*
X029273Y012465D01*
X026199Y012465D01*
X026174Y012525D01*
X026025Y012674D01*
X025830Y012755D01*
X025620Y012755D01*
X025425Y012674D01*
X025276Y012525D01*
X025251Y012465D01*
X023449Y012465D01*
X023424Y012525D01*
X023275Y012674D01*
X023153Y012725D01*
X023275Y012776D01*
X023424Y012925D01*
X023505Y013120D01*
X023505Y013330D01*
X023424Y013525D01*
X023275Y013674D01*
X023129Y013735D01*
X027376Y013735D01*
X027720Y013391D01*
X027695Y013330D01*
X027695Y013120D01*
X027776Y012925D01*
X027925Y012776D01*
X028120Y012695D01*
X028330Y012695D01*
X028391Y012720D01*
X028589Y012522D01*
X028677Y012485D01*
X030251Y012485D01*
X030276Y012425D01*
X030425Y012276D01*
X030620Y012195D01*
X030830Y012195D01*
X031025Y012276D01*
X031174Y012425D01*
X031255Y012620D01*
X031255Y012830D01*
X031174Y013025D01*
X031025Y013174D01*
X030830Y013255D01*
X030620Y013255D01*
X030425Y013174D01*
X030276Y013025D01*
X030251Y012965D01*
X028824Y012965D01*
X028730Y013059D01*
X028755Y013120D01*
X028755Y013330D01*
X028674Y013525D01*
X028525Y013674D01*
X028403Y013725D01*
X028525Y013776D01*
X028674Y013925D01*
X028699Y013985D01*
X029706Y013985D01*
X029771Y013920D01*
X029903Y013865D01*
X030047Y013865D01*
X030179Y013920D01*
X030195Y013936D01*
X030195Y013870D01*
X030276Y013675D01*
X030425Y013526D01*
X030620Y013445D01*
X030830Y013445D01*
X031025Y013526D01*
X031174Y013675D01*
X031255Y013870D01*
X031255Y014080D01*
X031174Y014275D01*
X031025Y014424D01*
X031017Y014428D01*
X031074Y014485D01*
X032501Y014485D01*
X032526Y014425D01*
X032675Y014276D01*
X032797Y014225D01*
X032675Y014174D01*
X032526Y014025D01*
X032445Y013830D01*
X032445Y013620D01*
X032526Y013425D01*
X032675Y013276D01*
X032797Y013225D01*
X032675Y013174D01*
X032526Y013025D01*
X032445Y012830D01*
X032445Y012620D01*
X032526Y012425D01*
X032675Y012276D01*
X032870Y012195D01*
X033080Y012195D01*
X033275Y012276D01*
X033424Y012425D01*
X033445Y012475D01*
X033445Y012430D02*
X033426Y012430D01*
X033463Y012271D02*
X033264Y012271D01*
X032686Y012271D02*
X031014Y012271D01*
X031176Y012430D02*
X032524Y012430D01*
X032458Y012588D02*
X031242Y012588D01*
X031255Y012747D02*
X032445Y012747D01*
X032476Y012905D02*
X031224Y012905D01*
X031136Y013064D02*
X032564Y013064D01*
X032790Y013222D02*
X030910Y013222D01*
X031039Y013539D02*
X032478Y013539D01*
X032445Y013698D02*
X031184Y013698D01*
X031249Y013856D02*
X032456Y013856D01*
X032521Y014015D02*
X031255Y014015D01*
X031217Y014173D02*
X032673Y014173D01*
X032619Y014332D02*
X031118Y014332D01*
X030725Y014475D02*
X030725Y013975D01*
X030725Y014475D02*
X030975Y014725D01*
X032975Y014725D01*
X033975Y014725D02*
X034425Y014725D01*
X034675Y014475D01*
X034675Y011475D01*
X034425Y011225D01*
X033725Y011225D01*
X033475Y010975D01*
X033811Y010845D02*
X035025Y010845D01*
X035025Y011003D02*
X034516Y011003D01*
X034701Y011162D02*
X035025Y011162D01*
X035025Y011320D02*
X034859Y011320D01*
X034915Y011479D02*
X035025Y011479D01*
X035025Y011637D02*
X034915Y011637D01*
X034915Y011796D02*
X035025Y011796D01*
X035025Y011954D02*
X034915Y011954D01*
X034915Y012113D02*
X035025Y012113D01*
X035025Y012271D02*
X034915Y012271D01*
X034915Y012430D02*
X035025Y012430D01*
X035025Y012588D02*
X034915Y012588D01*
X034915Y012747D02*
X035025Y012747D01*
X035025Y012905D02*
X034915Y012905D01*
X034915Y013064D02*
X035025Y013064D01*
X035025Y013222D02*
X034915Y013222D01*
X034915Y013381D02*
X035025Y013381D01*
X035025Y013539D02*
X034915Y013539D01*
X034915Y013698D02*
X035025Y013698D01*
X035025Y013856D02*
X034915Y013856D01*
X034915Y014015D02*
X035025Y014015D01*
X035025Y014173D02*
X034915Y014173D01*
X034915Y014332D02*
X035025Y014332D01*
X035025Y014490D02*
X034915Y014490D01*
X034841Y014649D02*
X035025Y014649D01*
X035025Y014807D02*
X034682Y014807D01*
X034449Y014966D02*
X035025Y014966D01*
X035025Y015124D02*
X034326Y015124D01*
X034302Y015283D02*
X035025Y015283D01*
X035025Y015441D02*
X034448Y015441D01*
X034512Y015600D02*
X035025Y015600D01*
X035025Y015758D02*
X034525Y015758D01*
X034525Y015768D02*
X034511Y015854D01*
X034485Y015936D01*
X034445Y016013D01*
X034395Y016083D01*
X034333Y016145D01*
X034263Y016195D01*
X034186Y016235D01*
X034104Y016261D01*
X034018Y016275D01*
X033995Y016275D01*
X033995Y015745D01*
X034525Y015745D01*
X034525Y015768D01*
X034491Y015917D02*
X035025Y015917D01*
X035025Y016075D02*
X034401Y016075D01*
X034188Y016234D02*
X035025Y016234D01*
X035025Y016392D02*
X026142Y016392D01*
X026226Y016551D02*
X035025Y016551D01*
X035025Y016709D02*
X026255Y016709D01*
X026240Y016868D02*
X035025Y016868D01*
X035025Y017026D02*
X026174Y017026D01*
X026001Y017185D02*
X035025Y017185D01*
X035025Y017343D02*
X026093Y017343D01*
X026206Y017502D02*
X030483Y017502D01*
X030425Y017526D02*
X030620Y017445D01*
X030830Y017445D01*
X031025Y017526D01*
X031174Y017675D01*
X031255Y017870D01*
X031255Y018080D01*
X031174Y018275D01*
X031025Y018424D01*
X030830Y018505D01*
X030620Y018505D01*
X030425Y018424D01*
X030276Y018275D01*
X030195Y018080D01*
X030195Y017870D01*
X030276Y017675D01*
X030425Y017526D01*
X030290Y017660D02*
X026255Y017660D01*
X026255Y017819D02*
X030216Y017819D01*
X030195Y017977D02*
X026194Y017977D01*
X026064Y018136D02*
X030218Y018136D01*
X030294Y018294D02*
X026044Y018294D01*
X026186Y018453D02*
X030493Y018453D01*
X030440Y018770D02*
X026255Y018770D01*
X026251Y018611D02*
X035025Y018611D01*
X035025Y018453D02*
X030957Y018453D01*
X031156Y018294D02*
X035025Y018294D01*
X035025Y018136D02*
X031232Y018136D01*
X031255Y017977D02*
X035025Y017977D01*
X035025Y017819D02*
X031234Y017819D01*
X031160Y017660D02*
X035025Y017660D01*
X035025Y017502D02*
X030967Y017502D01*
X031010Y018770D02*
X035025Y018770D01*
X035025Y018928D02*
X031176Y018928D01*
X031241Y019087D02*
X035025Y019087D01*
X035025Y019245D02*
X031255Y019245D01*
X031225Y019404D02*
X035025Y019404D01*
X035025Y019562D02*
X031138Y019562D01*
X030914Y019721D02*
X035025Y019721D01*
X035025Y019879D02*
X031129Y019879D01*
X031221Y020038D02*
X035025Y020038D01*
X035025Y020196D02*
X031255Y020196D01*
X031245Y020355D02*
X035025Y020355D01*
X035025Y020513D02*
X031179Y020513D01*
X031028Y020672D02*
X035025Y020672D01*
X035025Y020830D02*
X031080Y020830D01*
X031201Y020989D02*
X035025Y020989D01*
X035025Y021147D02*
X031255Y021147D01*
X031255Y021306D02*
X035025Y021306D01*
X035025Y021464D02*
X031200Y021464D01*
X031077Y021623D02*
X035025Y021623D01*
X035025Y021781D02*
X026168Y021781D01*
X026238Y021623D02*
X030373Y021623D01*
X030725Y021225D02*
X026475Y021225D01*
X025725Y020475D01*
X018475Y020475D01*
X018225Y020225D01*
X014975Y020225D01*
X015429Y020513D02*
X017771Y020513D01*
X017922Y020672D02*
X015278Y020672D01*
X015330Y020830D02*
X017870Y020830D01*
X017749Y020989D02*
X015451Y020989D01*
X015505Y021147D02*
X017695Y021147D01*
X017695Y021306D02*
X015505Y021306D01*
X015450Y021464D02*
X017750Y021464D01*
X017873Y021623D02*
X015327Y021623D01*
X015281Y021781D02*
X017919Y021781D01*
X017770Y021940D02*
X015430Y021940D01*
X015496Y022098D02*
X017704Y022098D01*
X017695Y022257D02*
X015505Y022257D01*
X015470Y022415D02*
X017730Y022415D01*
X017824Y022574D02*
X015376Y022574D01*
X015136Y022732D02*
X018064Y022732D01*
X018386Y022732D02*
X022508Y022732D01*
X022445Y022574D02*
X018626Y022574D01*
X018720Y022415D02*
X022445Y022415D01*
X022492Y022257D02*
X018755Y022257D01*
X018746Y022098D02*
X022602Y022098D01*
X022975Y022475D02*
X025725Y022475D01*
X025352Y022098D02*
X023348Y022098D01*
X023442Y022732D02*
X025258Y022732D01*
X025391Y022891D02*
X023309Y022891D01*
X022641Y022891D02*
X000425Y022891D01*
X000425Y023049D02*
X035025Y023049D01*
X035025Y022891D02*
X026059Y022891D01*
X026192Y022732D02*
X035025Y022732D01*
X035025Y022574D02*
X026255Y022574D01*
X026255Y022415D02*
X035025Y022415D01*
X035025Y022257D02*
X026208Y022257D01*
X026098Y022098D02*
X035025Y022098D01*
X035025Y021940D02*
X025988Y021940D01*
X025462Y021940D02*
X018850Y021940D01*
X019008Y021781D02*
X025282Y021781D01*
X025725Y021475D02*
X018975Y021475D01*
X018225Y022225D01*
X018755Y020196D02*
X025267Y020196D01*
X025413Y020038D02*
X018721Y020038D01*
X018629Y019879D02*
X025540Y019879D01*
X025485Y019721D02*
X018392Y019721D01*
X018330Y019505D02*
X018120Y019505D01*
X017925Y019424D01*
X017776Y019275D01*
X017695Y019080D01*
X017695Y018870D01*
X017776Y018675D01*
X017925Y018526D01*
X018120Y018445D01*
X018330Y018445D01*
X018525Y018526D01*
X018674Y018675D01*
X018755Y018870D01*
X018755Y019080D01*
X018674Y019275D01*
X018525Y019424D01*
X018330Y019505D01*
X018546Y019404D02*
X025485Y019404D01*
X025485Y019562D02*
X011562Y019562D01*
X011546Y019404D02*
X017904Y019404D01*
X017763Y019245D02*
X011687Y019245D01*
X011752Y019087D02*
X017698Y019087D01*
X017695Y018928D02*
X011755Y018928D01*
X011714Y018770D02*
X017736Y018770D01*
X017839Y018611D02*
X011611Y018611D01*
X011457Y018453D02*
X014743Y018453D01*
X014544Y018294D02*
X011656Y018294D01*
X011732Y018136D02*
X012296Y018136D01*
X012138Y017977D02*
X011755Y017977D01*
X011734Y017819D02*
X012004Y017819D01*
X011985Y017660D02*
X011660Y017660D01*
X011467Y017502D02*
X011985Y017502D01*
X011985Y017343D02*
X005593Y017343D01*
X005706Y017502D02*
X010983Y017502D01*
X010790Y017660D02*
X005755Y017660D01*
X005755Y017819D02*
X010716Y017819D01*
X010695Y017977D02*
X005694Y017977D01*
X005564Y018136D02*
X010718Y018136D01*
X010794Y018294D02*
X005544Y018294D01*
X005686Y018453D02*
X010993Y018453D01*
X010839Y018611D02*
X005751Y018611D01*
X005755Y018770D02*
X010736Y018770D01*
X010695Y018928D02*
X005715Y018928D01*
X005613Y019087D02*
X010698Y019087D01*
X010763Y019245D02*
X005451Y019245D01*
X005653Y019404D02*
X010904Y019404D01*
X010888Y019562D02*
X005731Y019562D01*
X005755Y019721D02*
X008058Y019721D01*
X007821Y019879D02*
X005735Y019879D01*
X005662Y020038D02*
X007729Y020038D01*
X007695Y020196D02*
X005473Y020196D01*
X005465Y020355D02*
X007705Y020355D01*
X007771Y020513D02*
X005465Y020513D01*
X005511Y020672D02*
X007922Y020672D01*
X007870Y020830D02*
X005669Y020830D01*
X005725Y021225D02*
X005225Y020725D01*
X005225Y019725D01*
X004695Y019721D02*
X000425Y019721D01*
X000425Y019879D02*
X004715Y019879D01*
X004788Y020038D02*
X000425Y020038D01*
X000425Y020196D02*
X004977Y020196D01*
X004985Y020355D02*
X000425Y020355D01*
X000425Y020513D02*
X004985Y020513D01*
X004985Y020672D02*
X000425Y020672D01*
X000425Y020830D02*
X005009Y020830D01*
X005149Y020989D02*
X000425Y020989D01*
X000425Y021147D02*
X005308Y021147D01*
X005466Y021306D02*
X000425Y021306D01*
X000425Y021464D02*
X005675Y021464D01*
X005725Y021225D02*
X008225Y021225D01*
X010725Y021225D01*
X014975Y021225D01*
X014620Y020830D02*
X011441Y020830D01*
X011465Y020672D02*
X014672Y020672D01*
X014521Y020513D02*
X011465Y020513D01*
X011595Y020355D02*
X014455Y020355D01*
X014445Y020196D02*
X011707Y020196D01*
X011755Y020038D02*
X014479Y020038D01*
X014571Y019879D02*
X011755Y019879D01*
X011693Y019721D02*
X014808Y019721D01*
X015142Y019721D02*
X018058Y019721D01*
X017821Y019879D02*
X015379Y019879D01*
X015207Y018453D02*
X018101Y018453D01*
X018349Y018453D02*
X020307Y018453D01*
X020310Y018447D02*
X020447Y018310D01*
X020628Y018235D01*
X020822Y018235D01*
X021003Y018310D01*
X021140Y018447D01*
X021215Y018628D01*
X021215Y018822D01*
X021140Y019003D01*
X021003Y019140D01*
X020822Y019215D01*
X020628Y019215D01*
X020447Y019140D01*
X020310Y019003D01*
X020235Y018822D01*
X020235Y018628D01*
X020310Y018447D01*
X020242Y018611D02*
X018611Y018611D01*
X018714Y018770D02*
X020235Y018770D01*
X020279Y018928D02*
X018755Y018928D01*
X018752Y019087D02*
X020394Y019087D01*
X021056Y019087D02*
X025337Y019087D01*
X025235Y018928D02*
X023266Y018928D01*
X023275Y018924D02*
X023080Y019005D01*
X022870Y019005D01*
X022675Y018924D01*
X022526Y018775D01*
X022445Y018580D01*
X022445Y018370D01*
X022526Y018175D01*
X022675Y018026D01*
X022870Y017945D01*
X023080Y017945D01*
X023275Y018026D01*
X023424Y018175D01*
X023505Y018370D01*
X023505Y018580D01*
X023424Y018775D01*
X023275Y018924D01*
X023427Y018770D02*
X025195Y018770D01*
X025199Y018611D02*
X023492Y018611D01*
X023505Y018453D02*
X025264Y018453D01*
X025406Y018294D02*
X023474Y018294D01*
X023385Y018136D02*
X025386Y018136D01*
X025256Y017977D02*
X023158Y017977D01*
X022979Y017819D02*
X021215Y017819D01*
X021215Y017822D02*
X021140Y018003D01*
X021003Y018140D01*
X020822Y018215D01*
X020628Y018215D01*
X020447Y018140D01*
X020310Y018003D01*
X020235Y017822D01*
X020235Y017628D01*
X020310Y017447D01*
X020447Y017310D01*
X020628Y017235D01*
X020822Y017235D01*
X021003Y017310D01*
X021140Y017447D01*
X021215Y017628D01*
X021215Y017822D01*
X021215Y017660D02*
X022660Y017660D01*
X022516Y017502D02*
X021163Y017502D01*
X021036Y017343D02*
X022450Y017343D01*
X022445Y017185D02*
X015462Y017185D01*
X015505Y017026D02*
X022484Y017026D01*
X022583Y016868D02*
X015504Y016868D01*
X015438Y016709D02*
X022836Y016709D01*
X023114Y016709D02*
X025195Y016709D01*
X025210Y016868D02*
X023367Y016868D01*
X023466Y017026D02*
X025276Y017026D01*
X025449Y017185D02*
X023505Y017185D01*
X023500Y017343D02*
X025357Y017343D01*
X025725Y017725D02*
X023225Y017725D01*
X022975Y017475D01*
X022975Y017225D01*
X022792Y017977D02*
X021151Y017977D01*
X021007Y018136D02*
X022565Y018136D01*
X022476Y018294D02*
X020965Y018294D01*
X021143Y018453D02*
X022445Y018453D01*
X022458Y018611D02*
X021208Y018611D01*
X021215Y018770D02*
X022523Y018770D01*
X022684Y018928D02*
X021171Y018928D01*
X020485Y018294D02*
X015406Y018294D01*
X015482Y018136D02*
X020443Y018136D01*
X020299Y017977D02*
X015505Y017977D01*
X015484Y017819D02*
X020235Y017819D01*
X020235Y017660D02*
X015410Y017660D01*
X015217Y017502D02*
X020287Y017502D01*
X020414Y017343D02*
X015357Y017343D01*
X014733Y017502D02*
X012465Y017502D01*
X012465Y017343D02*
X014593Y017343D01*
X014488Y017185D02*
X012465Y017185D01*
X012465Y017026D02*
X014445Y017026D01*
X014446Y016868D02*
X012465Y016868D01*
X012465Y016709D02*
X014512Y016709D01*
X014650Y016551D02*
X012465Y016551D01*
X012465Y016392D02*
X014642Y016392D01*
X014508Y016234D02*
X012465Y016234D01*
X012465Y016075D02*
X014445Y016075D01*
X014445Y015917D02*
X012465Y015917D01*
X012465Y015758D02*
X014491Y015758D01*
X014601Y015600D02*
X012465Y015600D01*
X012465Y015441D02*
X017965Y015441D01*
X017925Y015424D02*
X017776Y015275D01*
X017695Y015080D01*
X017695Y014870D01*
X017776Y014675D01*
X017925Y014526D01*
X018120Y014445D01*
X018330Y014445D01*
X018525Y014526D01*
X018674Y014675D01*
X018755Y014870D01*
X018755Y015080D01*
X018674Y015275D01*
X018525Y015424D01*
X018330Y015505D01*
X018120Y015505D01*
X017925Y015424D01*
X017783Y015283D02*
X012465Y015283D01*
X012465Y015124D02*
X017713Y015124D01*
X017695Y014966D02*
X012465Y014966D01*
X012396Y014807D02*
X017721Y014807D01*
X017802Y014649D02*
X012238Y014649D01*
X012035Y014490D02*
X018011Y014490D01*
X018439Y014490D02*
X027761Y014490D01*
X027695Y014332D02*
X020555Y014332D01*
X020395Y014332D02*
X011581Y014332D01*
X011527Y014173D02*
X020167Y014173D01*
X020115Y014015D02*
X011679Y014015D01*
X011744Y013856D02*
X020135Y013856D01*
X020243Y013698D02*
X011755Y013698D01*
X011722Y013539D02*
X022539Y013539D01*
X022466Y013381D02*
X011630Y013381D01*
X011396Y013222D02*
X022445Y013222D01*
X022468Y013064D02*
X008755Y013064D01*
X008755Y012905D02*
X022545Y012905D01*
X022745Y012747D02*
X008704Y012747D01*
X008588Y012588D02*
X022588Y012588D01*
X022486Y012430D02*
X008513Y012430D01*
X008676Y012271D02*
X011038Y012271D01*
X010813Y012113D02*
X008742Y012113D01*
X008755Y011954D02*
X010725Y011954D01*
X010695Y011796D02*
X008724Y011796D01*
X008637Y011637D02*
X010708Y011637D01*
X010774Y011479D02*
X008465Y011479D01*
X008519Y011320D02*
X010938Y011320D01*
X010862Y011162D02*
X008678Y011162D01*
X008725Y010775D02*
X008225Y011275D01*
X007725Y010775D01*
X005225Y010775D01*
X004746Y011003D02*
X004215Y011003D01*
X004215Y010845D02*
X004695Y010845D01*
X004695Y010686D02*
X004215Y010686D01*
X004215Y010528D02*
X004754Y010528D01*
X004881Y010369D02*
X004215Y010369D01*
X004215Y010211D02*
X004911Y010211D01*
X004766Y010052D02*
X004215Y010052D01*
X004215Y009894D02*
X004700Y009894D01*
X004695Y009735D02*
X004215Y009735D01*
X004215Y009577D02*
X004734Y009577D01*
X004832Y009418D02*
X004215Y009418D01*
X004215Y009260D02*
X005085Y009260D01*
X005365Y009260D02*
X011085Y009260D01*
X011365Y009260D02*
X017964Y009260D01*
X017925Y009276D02*
X018019Y009236D01*
X018014Y009235D01*
X017937Y009195D01*
X017867Y009145D01*
X017805Y009083D01*
X017755Y009013D01*
X017715Y008936D01*
X017689Y008854D01*
X017675Y008768D01*
X017675Y008725D01*
X018225Y008725D01*
X018775Y008725D01*
X018775Y008768D01*
X018761Y008854D01*
X018735Y008936D01*
X018695Y009013D01*
X018645Y009083D01*
X018583Y009145D01*
X018513Y009195D01*
X018436Y009235D01*
X018431Y009236D01*
X018525Y009276D01*
X018674Y009425D01*
X018755Y009620D01*
X018755Y009830D01*
X018674Y010025D01*
X018525Y010174D01*
X018403Y010225D01*
X018525Y010276D01*
X018674Y010425D01*
X018755Y010620D01*
X018755Y010830D01*
X018674Y011025D01*
X018525Y011174D01*
X018330Y011255D01*
X018120Y011255D01*
X017925Y011174D01*
X017776Y011025D01*
X017695Y010830D01*
X017695Y010620D01*
X017776Y010425D01*
X017925Y010276D01*
X018047Y010225D01*
X017925Y010174D01*
X017776Y010025D01*
X017695Y009830D01*
X017695Y009620D01*
X017776Y009425D01*
X017925Y009276D01*
X017782Y009418D02*
X011618Y009418D01*
X011225Y009775D02*
X015775Y009775D01*
X015975Y009975D01*
X016244Y009735D02*
X017695Y009735D01*
X017713Y009577D02*
X015916Y009577D01*
X016331Y009894D02*
X017721Y009894D01*
X017802Y010052D02*
X016333Y010052D01*
X016249Y010211D02*
X018012Y010211D01*
X017831Y010369D02*
X011569Y010369D01*
X011539Y010211D02*
X015701Y010211D01*
X015617Y010052D02*
X011684Y010052D01*
X011696Y010528D02*
X017733Y010528D01*
X017695Y010686D02*
X011755Y010686D01*
X011755Y010845D02*
X017701Y010845D01*
X017766Y011003D02*
X011704Y011003D01*
X011588Y011162D02*
X017912Y011162D01*
X018538Y011162D02*
X021249Y011162D01*
X021091Y011320D02*
X011512Y011320D01*
X011676Y011479D02*
X020762Y011479D01*
X020975Y011775D02*
X011225Y011775D01*
X011637Y012113D02*
X020849Y012113D01*
X021101Y012113D02*
X022448Y012113D01*
X022445Y012271D02*
X011412Y012271D01*
X011054Y013222D02*
X008696Y013222D01*
X008569Y013381D02*
X010820Y013381D01*
X010728Y013539D02*
X008539Y013539D01*
X008684Y013698D02*
X010695Y013698D01*
X010706Y013856D02*
X008749Y013856D01*
X008755Y014015D02*
X010771Y014015D01*
X010923Y014173D02*
X008717Y014173D01*
X008618Y014332D02*
X010869Y014332D01*
X011225Y014725D02*
X005225Y014725D01*
X004869Y014332D02*
X004215Y014332D01*
X004215Y014490D02*
X004749Y014490D01*
X004695Y014649D02*
X004215Y014649D01*
X004215Y014807D02*
X004695Y014807D01*
X004751Y014966D02*
X004215Y014966D01*
X004215Y015124D02*
X004874Y015124D01*
X004918Y015283D02*
X004215Y015283D01*
X004215Y015441D02*
X004769Y015441D01*
X004703Y015600D02*
X004215Y015600D01*
X004215Y015758D02*
X004695Y015758D01*
X004731Y015917D02*
X004215Y015917D01*
X004215Y016075D02*
X004825Y016075D01*
X005068Y016234D02*
X004215Y016234D01*
X004215Y016392D02*
X011985Y016392D01*
X011985Y016234D02*
X011382Y016234D01*
X011625Y016075D02*
X011985Y016075D01*
X011985Y015917D02*
X011719Y015917D01*
X011755Y015758D02*
X011985Y015758D01*
X011985Y015600D02*
X011747Y015600D01*
X011681Y015441D02*
X011985Y015441D01*
X011985Y015283D02*
X011532Y015283D01*
X011576Y015124D02*
X011985Y015124D01*
X011876Y014966D02*
X011699Y014966D01*
X011975Y014725D02*
X012225Y014975D01*
X012225Y017725D01*
X012475Y017975D01*
X014975Y017975D01*
X014540Y017660D02*
X012499Y017660D01*
X011985Y017185D02*
X004215Y017185D01*
X004215Y017343D02*
X004857Y017343D01*
X004744Y017502D02*
X004215Y017502D01*
X004215Y017660D02*
X004695Y017660D01*
X004695Y017819D02*
X004215Y017819D01*
X004215Y017977D02*
X004756Y017977D01*
X004886Y018136D02*
X004215Y018136D01*
X004215Y018294D02*
X004906Y018294D01*
X004764Y018453D02*
X004292Y018453D01*
X004225Y018725D02*
X005225Y018725D01*
X004837Y019087D02*
X000425Y019087D01*
X000425Y019245D02*
X004999Y019245D01*
X004797Y019404D02*
X000425Y019404D01*
X000425Y019562D02*
X004719Y019562D01*
X004089Y018928D02*
X004022Y018861D01*
X004225Y018725D02*
X003975Y018475D01*
X003975Y001225D01*
X004225Y000975D01*
X020975Y000975D01*
X021225Y001225D01*
X021225Y002475D01*
X022079Y001493D02*
X027343Y001493D01*
X027320Y001513D02*
X027414Y001431D01*
X027429Y001421D01*
X027530Y001350D01*
X027530Y001350D01*
X027548Y001341D01*
X027654Y001283D01*
X027654Y001283D01*
X027677Y001273D01*
X027785Y001228D01*
X027813Y001220D01*
X027921Y001189D01*
X027957Y001182D01*
X028060Y001163D01*
X028145Y001157D01*
X028145Y002395D01*
X026906Y002395D01*
X026920Y002264D01*
X026920Y002264D01*
X026950Y002125D01*
X026995Y001991D01*
X027054Y001862D01*
X027126Y001741D01*
X027126Y001741D01*
X027211Y001627D01*
X027307Y001524D01*
X027307Y001524D01*
X027320Y001513D01*
X027307Y001524D02*
X027307Y001524D01*
X027211Y001627D02*
X027211Y001627D01*
X027193Y001652D02*
X022235Y001652D01*
X022346Y001810D02*
X027085Y001810D01*
X027054Y001862D02*
X027054Y001862D01*
X027005Y001969D02*
X022424Y001969D01*
X022480Y002127D02*
X026950Y002127D01*
X026950Y002125D02*
X026950Y002125D01*
X026995Y001991D02*
X026995Y001991D01*
X027414Y001431D02*
X027414Y001431D01*
X027559Y001335D02*
X021863Y001335D01*
X021464Y001176D02*
X027990Y001176D01*
X027921Y001189D02*
X027921Y001189D01*
X027785Y001228D02*
X027785Y001228D01*
X028060Y001163D02*
X028060Y001163D01*
X028145Y001176D02*
X028305Y001176D01*
X028305Y001157D02*
X028343Y001158D01*
X028483Y001179D01*
X028620Y001213D01*
X028620Y001214D01*
X028753Y001263D01*
X028879Y001326D01*
X028998Y001403D01*
X029108Y001492D01*
X029208Y001592D01*
X029208Y001592D01*
X029297Y001702D01*
X029374Y001821D01*
X029437Y001947D01*
X029486Y002080D01*
X029521Y002217D01*
X029542Y002357D01*
X029543Y002395D01*
X028305Y002395D01*
X028305Y001157D01*
X028343Y001158D02*
X028343Y001158D01*
X028465Y001176D02*
X033375Y001176D01*
X033375Y001335D02*
X028892Y001335D01*
X029110Y001493D02*
X033416Y001493D01*
X033482Y001652D02*
X029257Y001652D01*
X029367Y001810D02*
X033608Y001810D01*
X033504Y001706D02*
X033504Y001706D01*
X033799Y001969D02*
X029445Y001969D01*
X029498Y002127D02*
X035025Y002127D01*
X035025Y001969D02*
X034651Y001969D01*
X034706Y001946D02*
X034706Y001946D01*
X034842Y001810D02*
X035025Y001810D01*
X035025Y001652D02*
X034968Y001652D01*
X035025Y002286D02*
X029531Y002286D01*
X029521Y002217D02*
X029521Y002217D01*
X029539Y002603D02*
X035025Y002603D01*
X035025Y002761D02*
X029515Y002761D01*
X029511Y002779D02*
X029511Y002779D01*
X029472Y002915D02*
X029472Y002915D01*
X029470Y002920D02*
X035025Y002920D01*
X035025Y003078D02*
X029400Y003078D01*
X029417Y003046D02*
X029417Y003046D01*
X029350Y003170D02*
X029350Y003170D01*
X029303Y003237D02*
X035025Y003237D01*
X035025Y003395D02*
X029174Y003395D01*
X029176Y003393D02*
X029176Y003393D01*
X029073Y003489D02*
X029073Y003489D01*
X028987Y003554D02*
X035025Y003554D01*
X035025Y003712D02*
X034551Y003712D01*
X034375Y003875D02*
X034725Y004225D01*
X034385Y004346D02*
X026245Y004346D01*
X026255Y004505D02*
X034495Y004505D01*
X034348Y004188D02*
X026180Y004188D01*
X025725Y004475D02*
X025725Y006025D01*
X025475Y006275D01*
X020725Y006275D01*
X020228Y006090D02*
X004215Y006090D01*
X004215Y006248D02*
X020195Y006248D01*
X020206Y006407D02*
X004215Y006407D01*
X004215Y006565D02*
X020271Y006565D01*
X020424Y006724D02*
X004215Y006724D01*
X004215Y006882D02*
X020368Y006882D01*
X020248Y007041D02*
X004215Y007041D01*
X004215Y007199D02*
X020195Y007199D01*
X020195Y007358D02*
X004215Y007358D01*
X004215Y007516D02*
X020251Y007516D01*
X020375Y007675D02*
X004215Y007675D01*
X004215Y007833D02*
X004917Y007833D01*
X004925Y007826D02*
X005120Y007745D01*
X005330Y007745D01*
X005525Y007826D01*
X005674Y007975D01*
X005755Y008170D01*
X005755Y008380D01*
X005674Y008575D01*
X005525Y008724D01*
X005330Y008805D01*
X005120Y008805D01*
X004925Y008724D01*
X004776Y008575D01*
X004695Y008380D01*
X004695Y008170D01*
X004776Y007975D01*
X004925Y007826D01*
X004769Y007992D02*
X004215Y007992D01*
X004215Y008150D02*
X004703Y008150D01*
X004695Y008309D02*
X004215Y008309D01*
X004215Y008467D02*
X004731Y008467D01*
X004826Y008626D02*
X004215Y008626D01*
X004215Y008784D02*
X005069Y008784D01*
X005381Y008784D02*
X008069Y008784D01*
X008120Y008805D02*
X007925Y008724D01*
X007776Y008575D01*
X007695Y008380D01*
X007695Y008170D01*
X007776Y007975D01*
X007925Y007826D01*
X008120Y007745D01*
X008330Y007745D01*
X008525Y007826D01*
X008674Y007975D01*
X008755Y008170D01*
X008755Y008380D01*
X008674Y008575D01*
X008525Y008724D01*
X008330Y008805D01*
X008120Y008805D01*
X008381Y008784D02*
X011069Y008784D01*
X011120Y008805D02*
X010925Y008724D01*
X010776Y008575D01*
X010695Y008380D01*
X010695Y008170D01*
X010776Y007975D01*
X010925Y007826D01*
X011120Y007745D01*
X011330Y007745D01*
X011525Y007826D01*
X011674Y007975D01*
X011755Y008170D01*
X011755Y008380D01*
X011674Y008575D01*
X011525Y008724D01*
X011330Y008805D01*
X011120Y008805D01*
X011381Y008784D02*
X014488Y008784D01*
X014526Y008875D02*
X014445Y008680D01*
X014445Y008470D01*
X014526Y008275D01*
X014675Y008126D01*
X014870Y008045D01*
X015080Y008045D01*
X015275Y008126D01*
X015424Y008275D01*
X015505Y008470D01*
X015505Y008680D01*
X015424Y008875D01*
X015275Y009024D01*
X015080Y009105D01*
X014870Y009105D01*
X014675Y009024D01*
X014526Y008875D01*
X014593Y008943D02*
X004215Y008943D01*
X004215Y009101D02*
X014860Y009101D01*
X015090Y009101D02*
X017823Y009101D01*
X017719Y008943D02*
X015357Y008943D01*
X015462Y008784D02*
X017677Y008784D01*
X017675Y008725D02*
X017675Y008682D01*
X017689Y008596D01*
X017715Y008514D01*
X017755Y008437D01*
X017805Y008367D01*
X017867Y008305D01*
X017937Y008255D01*
X018014Y008215D01*
X018096Y008189D01*
X018182Y008175D01*
X018225Y008175D01*
X018268Y008175D01*
X018354Y008189D01*
X018436Y008215D01*
X018513Y008255D01*
X018583Y008305D01*
X018645Y008367D01*
X018695Y008437D01*
X018735Y008514D01*
X018761Y008596D01*
X018775Y008682D01*
X018775Y008725D01*
X018225Y008725D01*
X018225Y008725D01*
X018225Y008725D01*
X018225Y008175D01*
X018225Y008725D01*
X018225Y008725D01*
X017675Y008725D01*
X017684Y008626D02*
X015505Y008626D01*
X015504Y008467D02*
X017739Y008467D01*
X017864Y008309D02*
X015438Y008309D01*
X015300Y008150D02*
X022531Y008150D01*
X022555Y008117D02*
X022617Y008055D01*
X022687Y008005D01*
X022764Y007965D01*
X022846Y007939D01*
X022932Y007925D01*
X022966Y007925D01*
X022966Y008466D01*
X022425Y008466D01*
X022425Y008432D01*
X022439Y008346D01*
X022465Y008264D01*
X022505Y008187D01*
X022555Y008117D01*
X022712Y007992D02*
X011681Y007992D01*
X011747Y008150D02*
X014650Y008150D01*
X014512Y008309D02*
X011755Y008309D01*
X011719Y008467D02*
X014446Y008467D01*
X014445Y008626D02*
X011624Y008626D01*
X010826Y008626D02*
X008624Y008626D01*
X008719Y008467D02*
X010731Y008467D01*
X010695Y008309D02*
X008755Y008309D01*
X008747Y008150D02*
X010703Y008150D01*
X010769Y007992D02*
X008681Y007992D01*
X008533Y007833D02*
X010917Y007833D01*
X011533Y007833D02*
X030305Y007833D01*
X030255Y007763D01*
X030215Y007686D01*
X030189Y007604D01*
X030175Y007518D01*
X030175Y007475D01*
X030725Y007475D01*
X031275Y007475D01*
X031275Y007518D01*
X031261Y007604D01*
X031235Y007686D01*
X031195Y007763D01*
X031145Y007833D01*
X035025Y007833D01*
X035025Y007675D02*
X031238Y007675D01*
X031275Y007516D02*
X035025Y007516D01*
X035025Y007358D02*
X031263Y007358D01*
X031261Y007346D02*
X031275Y007432D01*
X031275Y007475D01*
X030725Y007475D01*
X030725Y007475D01*
X030725Y007475D01*
X030725Y008025D01*
X030768Y008025D01*
X030854Y008011D01*
X030936Y007985D01*
X031013Y007945D01*
X031083Y007895D01*
X031145Y007833D01*
X030915Y007992D02*
X035025Y007992D01*
X035025Y008150D02*
X026169Y008150D01*
X026145Y008117D02*
X026195Y008187D01*
X026235Y008264D01*
X026261Y008346D01*
X026275Y008432D01*
X026275Y008466D01*
X025734Y008466D01*
X025734Y008484D01*
X025716Y008484D01*
X025716Y009025D01*
X025682Y009025D01*
X025596Y009011D01*
X025514Y008985D01*
X025437Y008945D01*
X025367Y008895D01*
X025305Y008833D01*
X025255Y008763D01*
X025215Y008686D01*
X025189Y008604D01*
X025175Y008518D01*
X025175Y008484D01*
X025716Y008484D01*
X025716Y008466D01*
X025175Y008466D01*
X025175Y008432D01*
X025189Y008346D01*
X025215Y008264D01*
X025255Y008187D01*
X025305Y008117D01*
X025367Y008055D01*
X025437Y008005D01*
X025514Y007965D01*
X025596Y007939D01*
X025682Y007925D01*
X025716Y007925D01*
X025716Y008466D01*
X025734Y008466D01*
X025734Y007925D01*
X025768Y007925D01*
X025854Y007939D01*
X025936Y007965D01*
X026013Y008005D01*
X026083Y008055D01*
X026145Y008117D01*
X025988Y007992D02*
X030535Y007992D01*
X030514Y007985D02*
X030437Y007945D01*
X030367Y007895D01*
X030305Y007833D01*
X030212Y007675D02*
X021075Y007675D01*
X021199Y007516D02*
X030175Y007516D01*
X030175Y007475D02*
X030175Y007432D01*
X030189Y007346D01*
X030215Y007264D01*
X030255Y007187D01*
X030305Y007117D01*
X030367Y007055D01*
X030437Y007005D01*
X030514Y006965D01*
X030519Y006964D01*
X030425Y006924D01*
X030276Y006775D01*
X030195Y006580D01*
X030195Y006370D01*
X030276Y006175D01*
X030425Y006026D01*
X030547Y005975D01*
X030425Y005924D01*
X030276Y005775D01*
X030195Y005580D01*
X030195Y005370D01*
X030276Y005175D01*
X030425Y005026D01*
X030620Y004945D01*
X030830Y004945D01*
X031025Y005026D01*
X031174Y005175D01*
X031255Y005370D01*
X031255Y005580D01*
X031174Y005775D01*
X031025Y005924D01*
X030903Y005975D01*
X031025Y006026D01*
X031174Y006175D01*
X031255Y006370D01*
X031255Y006580D01*
X031174Y006775D01*
X031025Y006924D01*
X030931Y006964D01*
X030936Y006965D01*
X031013Y007005D01*
X031083Y007055D01*
X031145Y007117D01*
X031195Y007187D01*
X031235Y007264D01*
X031261Y007346D01*
X031202Y007199D02*
X035025Y007199D01*
X035025Y007041D02*
X031063Y007041D01*
X031068Y006882D02*
X035025Y006882D01*
X035025Y006724D02*
X031196Y006724D01*
X031255Y006565D02*
X035025Y006565D01*
X035025Y006407D02*
X031255Y006407D01*
X031205Y006248D02*
X035025Y006248D01*
X035025Y006090D02*
X031089Y006090D01*
X031009Y005931D02*
X035025Y005931D01*
X035025Y005773D02*
X031175Y005773D01*
X031241Y005614D02*
X035025Y005614D01*
X035025Y005456D02*
X031255Y005456D01*
X031225Y005297D02*
X035025Y005297D01*
X035025Y005139D02*
X031138Y005139D01*
X030915Y004980D02*
X035025Y004980D01*
X035025Y004822D02*
X026128Y004822D01*
X026221Y004663D02*
X035025Y004663D01*
X035025Y004505D02*
X034955Y004505D01*
X035025Y003871D02*
X034810Y003871D01*
X034375Y003875D02*
X015625Y003875D01*
X014225Y002475D01*
X013223Y001652D02*
X008235Y001652D01*
X008346Y001810D02*
X013112Y001810D01*
X013025Y001969D02*
X008424Y001969D01*
X008480Y002127D02*
X012968Y002127D01*
X012938Y002286D02*
X008517Y002286D01*
X008521Y002444D02*
X012922Y002444D01*
X012925Y002603D02*
X008525Y002603D01*
X008496Y002761D02*
X012960Y002761D01*
X013006Y002920D02*
X008448Y002920D01*
X008381Y003078D02*
X013065Y003078D01*
X013163Y003237D02*
X008285Y003237D01*
X008149Y003395D02*
X013310Y003395D01*
X013493Y003554D02*
X007954Y003554D01*
X008014Y003765D02*
X008096Y003739D01*
X008182Y003725D01*
X008216Y003725D01*
X008216Y004266D01*
X007675Y004266D01*
X007675Y004232D01*
X007689Y004146D01*
X007715Y004064D01*
X007755Y003987D01*
X007805Y003917D01*
X007867Y003855D01*
X007937Y003805D01*
X008014Y003765D01*
X007852Y003871D02*
X005598Y003871D01*
X005583Y003855D02*
X005645Y003917D01*
X005695Y003987D01*
X005735Y004064D01*
X005761Y004146D01*
X005775Y004232D01*
X005775Y004266D01*
X005234Y004266D01*
X005234Y004284D01*
X005216Y004284D01*
X005216Y004825D01*
X005182Y004825D01*
X005096Y004811D01*
X005014Y004785D01*
X004937Y004745D01*
X004867Y004695D01*
X004805Y004633D01*
X004755Y004563D01*
X004715Y004486D01*
X004689Y004404D01*
X004675Y004318D01*
X004675Y004284D01*
X005216Y004284D01*
X005216Y004266D01*
X004675Y004266D01*
X004675Y004232D01*
X004689Y004146D01*
X004715Y004064D01*
X004755Y003987D01*
X004805Y003917D01*
X004867Y003855D01*
X004937Y003805D01*
X005014Y003765D01*
X005096Y003739D01*
X005182Y003725D01*
X005216Y003725D01*
X005216Y004266D01*
X005234Y004266D01*
X005234Y003725D01*
X005268Y003725D01*
X005354Y003739D01*
X005436Y003765D01*
X005513Y003805D01*
X005583Y003855D01*
X005717Y004029D02*
X007733Y004029D01*
X007682Y004188D02*
X005768Y004188D01*
X005775Y004284D02*
X005775Y004318D01*
X005761Y004404D01*
X005735Y004486D01*
X005695Y004563D01*
X005645Y004633D01*
X005583Y004695D01*
X005513Y004745D01*
X005436Y004785D01*
X005354Y004811D01*
X005268Y004825D01*
X005234Y004825D01*
X005234Y004284D01*
X005775Y004284D01*
X005771Y004346D02*
X007679Y004346D01*
X007675Y004318D02*
X007675Y004284D01*
X008216Y004284D01*
X008216Y004825D01*
X008182Y004825D01*
X008096Y004811D01*
X008014Y004785D01*
X007937Y004745D01*
X007867Y004695D01*
X007805Y004633D01*
X007755Y004563D01*
X007715Y004486D01*
X007689Y004404D01*
X007675Y004318D01*
X007725Y004505D02*
X005725Y004505D01*
X005615Y004663D02*
X007835Y004663D01*
X008160Y004822D02*
X005290Y004822D01*
X005234Y004822D02*
X005216Y004822D01*
X005160Y004822D02*
X004215Y004822D01*
X004215Y004980D02*
X014602Y004980D01*
X014617Y004995D02*
X014555Y004933D01*
X014505Y004863D01*
X014465Y004786D01*
X014439Y004704D01*
X014425Y004618D01*
X014425Y004584D01*
X014966Y004584D01*
X014966Y005125D01*
X014932Y005125D01*
X014846Y005111D01*
X014764Y005085D01*
X014687Y005045D01*
X014617Y004995D01*
X014483Y004822D02*
X011290Y004822D01*
X011268Y004825D02*
X011234Y004825D01*
X011234Y004284D01*
X011216Y004284D01*
X011216Y004825D01*
X011182Y004825D01*
X011096Y004811D01*
X011014Y004785D01*
X010937Y004745D01*
X010867Y004695D01*
X010805Y004633D01*
X010755Y004563D01*
X010715Y004486D01*
X010689Y004404D01*
X010675Y004318D01*
X010675Y004284D01*
X011216Y004284D01*
X011216Y004266D01*
X010675Y004266D01*
X010675Y004232D01*
X010689Y004146D01*
X010715Y004064D01*
X010755Y003987D01*
X010805Y003917D01*
X010867Y003855D01*
X010937Y003805D01*
X011014Y003765D01*
X011096Y003739D01*
X011182Y003725D01*
X011216Y003725D01*
X011216Y004266D01*
X011234Y004266D01*
X011234Y004284D01*
X011775Y004284D01*
X011775Y004318D01*
X011761Y004404D01*
X011735Y004486D01*
X011695Y004563D01*
X011645Y004633D01*
X011583Y004695D01*
X011513Y004745D01*
X011436Y004785D01*
X011354Y004811D01*
X011268Y004825D01*
X011234Y004822D02*
X011216Y004822D01*
X011160Y004822D02*
X008290Y004822D01*
X008268Y004825D02*
X008234Y004825D01*
X008234Y004284D01*
X008216Y004284D01*
X008216Y004266D01*
X008234Y004266D01*
X008234Y004284D01*
X008775Y004284D01*
X008775Y004318D01*
X008761Y004404D01*
X008735Y004486D01*
X008695Y004563D01*
X008645Y004633D01*
X008583Y004695D01*
X008513Y004745D01*
X008436Y004785D01*
X008354Y004811D01*
X008268Y004825D01*
X008234Y004822D02*
X008216Y004822D01*
X008216Y004663D02*
X008234Y004663D01*
X008234Y004505D02*
X008216Y004505D01*
X008216Y004346D02*
X008234Y004346D01*
X008234Y004266D02*
X008775Y004266D01*
X008775Y004232D01*
X008761Y004146D01*
X008735Y004064D01*
X008695Y003987D01*
X008645Y003917D01*
X008583Y003855D01*
X008513Y003805D01*
X008436Y003765D01*
X008354Y003739D01*
X008268Y003725D01*
X008234Y003725D01*
X008234Y004266D01*
X008234Y004188D02*
X008216Y004188D01*
X008216Y004029D02*
X008234Y004029D01*
X008234Y003871D02*
X008216Y003871D01*
X008598Y003871D02*
X010852Y003871D01*
X010733Y004029D02*
X008717Y004029D01*
X008768Y004188D02*
X010682Y004188D01*
X010679Y004346D02*
X008771Y004346D01*
X008725Y004505D02*
X010725Y004505D01*
X010835Y004663D02*
X008615Y004663D01*
X007631Y003712D02*
X013809Y003712D01*
X014555Y004217D02*
X014505Y004287D01*
X014465Y004364D01*
X014439Y004446D01*
X014425Y004532D01*
X014425Y004566D01*
X014966Y004566D01*
X014966Y004584D01*
X014984Y004584D01*
X014984Y005125D01*
X015018Y005125D01*
X015104Y005111D01*
X015186Y005085D01*
X015263Y005045D01*
X015333Y004995D01*
X015395Y004933D01*
X015445Y004863D01*
X015485Y004786D01*
X015511Y004704D01*
X015525Y004618D01*
X015525Y004584D01*
X014984Y004584D01*
X014984Y004566D01*
X015525Y004566D01*
X015525Y004532D01*
X015511Y004446D01*
X015485Y004364D01*
X015445Y004287D01*
X015395Y004217D01*
X015333Y004155D01*
X015263Y004105D01*
X015186Y004065D01*
X015104Y004039D01*
X015018Y004025D01*
X014984Y004025D01*
X014984Y004566D01*
X014966Y004566D01*
X014966Y004025D01*
X014932Y004025D01*
X014846Y004039D01*
X014764Y004065D01*
X014687Y004105D01*
X014617Y004155D01*
X014555Y004217D01*
X014585Y004188D02*
X011768Y004188D01*
X011761Y004146D02*
X011775Y004232D01*
X011775Y004266D01*
X011234Y004266D01*
X011234Y003725D01*
X011268Y003725D01*
X011354Y003739D01*
X011436Y003765D01*
X011513Y003805D01*
X011583Y003855D01*
X011645Y003917D01*
X011695Y003987D01*
X011735Y004064D01*
X011761Y004146D01*
X011717Y004029D02*
X014906Y004029D01*
X014966Y004029D02*
X014984Y004029D01*
X015044Y004029D02*
X015440Y004029D01*
X015365Y004188D02*
X022520Y004188D01*
X022455Y004346D02*
X015476Y004346D01*
X015521Y004505D02*
X022445Y004505D01*
X022479Y004663D02*
X015518Y004663D01*
X015467Y004822D02*
X020413Y004822D01*
X020437Y004805D02*
X020514Y004765D01*
X020596Y004739D01*
X020682Y004725D01*
X020725Y004725D01*
X020768Y004725D01*
X020854Y004739D01*
X020936Y004765D01*
X021013Y004805D01*
X021083Y004855D01*
X021145Y004917D01*
X021195Y004987D01*
X021235Y005064D01*
X021261Y005146D01*
X021275Y005232D01*
X021275Y005275D01*
X020725Y005275D01*
X020725Y005275D01*
X020725Y004725D01*
X020725Y005275D01*
X020725Y005275D01*
X020725Y005275D01*
X020175Y005275D01*
X020175Y005232D01*
X020189Y005146D01*
X020215Y005064D01*
X020255Y004987D01*
X020305Y004917D01*
X020367Y004855D01*
X020437Y004805D01*
X020259Y004980D02*
X015348Y004980D01*
X014984Y004980D02*
X014966Y004980D01*
X014966Y004822D02*
X014984Y004822D01*
X014984Y004663D02*
X014966Y004663D01*
X014966Y004505D02*
X014984Y004505D01*
X014984Y004346D02*
X014966Y004346D01*
X014966Y004188D02*
X014984Y004188D01*
X015281Y003871D02*
X011598Y003871D01*
X011234Y003871D02*
X011216Y003871D01*
X011216Y004029D02*
X011234Y004029D01*
X011234Y004188D02*
X011216Y004188D01*
X011216Y004346D02*
X011234Y004346D01*
X011234Y004505D02*
X011216Y004505D01*
X011216Y004663D02*
X011234Y004663D01*
X011615Y004663D02*
X014432Y004663D01*
X014429Y004505D02*
X011725Y004505D01*
X011771Y004346D02*
X014474Y004346D01*
X014631Y003712D02*
X015123Y003712D01*
X014964Y003554D02*
X014954Y003554D01*
X013371Y001493D02*
X008079Y001493D01*
X007863Y001335D02*
X013599Y001335D01*
X020191Y005139D02*
X004215Y005139D01*
X004215Y005297D02*
X020175Y005297D01*
X020205Y005456D02*
X004215Y005456D01*
X004215Y005614D02*
X020291Y005614D01*
X020490Y005773D02*
X004215Y005773D01*
X004215Y005931D02*
X020319Y005931D01*
X020960Y005773D02*
X025485Y005773D01*
X025480Y005931D02*
X021131Y005931D01*
X021159Y005614D02*
X025485Y005614D01*
X025485Y005456D02*
X021245Y005456D01*
X021275Y005297D02*
X025485Y005297D01*
X025485Y005139D02*
X021259Y005139D01*
X021191Y004980D02*
X022809Y004980D01*
X022572Y004822D02*
X021037Y004822D01*
X020725Y004822D02*
X020725Y004822D01*
X020725Y004980D02*
X020725Y004980D01*
X020725Y005139D02*
X020725Y005139D01*
X021179Y006565D02*
X030195Y006565D01*
X030195Y006407D02*
X025683Y006407D01*
X025841Y006248D02*
X030245Y006248D01*
X030361Y006090D02*
X025958Y006090D01*
X025965Y005931D02*
X030441Y005931D01*
X030275Y005773D02*
X025965Y005773D01*
X025965Y005614D02*
X030209Y005614D01*
X030195Y005456D02*
X025965Y005456D01*
X025965Y005297D02*
X030225Y005297D01*
X030312Y005139D02*
X025965Y005139D01*
X025965Y004980D02*
X030535Y004980D01*
X028959Y003574D02*
X028959Y003574D01*
X029269Y003286D02*
X029269Y003286D01*
X029537Y002640D02*
X029537Y002640D01*
X028305Y002444D02*
X035025Y002444D01*
X033391Y001018D02*
X021357Y001018D01*
X021198Y000859D02*
X033457Y000859D01*
X033504Y000744D02*
X033504Y000744D01*
X033547Y000701D02*
X001903Y000701D01*
X001946Y000744D02*
X001946Y000744D01*
X001993Y000859D02*
X004002Y000859D01*
X003843Y001018D02*
X002059Y001018D01*
X002075Y001176D02*
X003736Y001176D01*
X003735Y001335D02*
X002075Y001335D01*
X002034Y001493D02*
X003735Y001493D01*
X003735Y001652D02*
X001968Y001652D01*
X001842Y001810D02*
X003735Y001810D01*
X003735Y001969D02*
X001651Y001969D01*
X001706Y001946D02*
X001706Y001946D01*
X000799Y001969D02*
X000425Y001969D01*
X000425Y002127D02*
X003735Y002127D01*
X003735Y002286D02*
X000425Y002286D01*
X000425Y002444D02*
X003735Y002444D01*
X003735Y002603D02*
X000425Y002603D01*
X000425Y002761D02*
X003735Y002761D01*
X003735Y002920D02*
X000425Y002920D01*
X000425Y003078D02*
X003735Y003078D01*
X003735Y003237D02*
X000425Y003237D01*
X000425Y003395D02*
X003735Y003395D01*
X003735Y003554D02*
X000425Y003554D01*
X000425Y003712D02*
X003735Y003712D01*
X003735Y003871D02*
X000425Y003871D01*
X000425Y004029D02*
X003735Y004029D01*
X003735Y004188D02*
X000425Y004188D01*
X000425Y004346D02*
X003735Y004346D01*
X003735Y004505D02*
X000425Y004505D01*
X000425Y004663D02*
X003735Y004663D01*
X003735Y004822D02*
X000425Y004822D01*
X000425Y004980D02*
X003735Y004980D01*
X003735Y005139D02*
X000425Y005139D01*
X000425Y005297D02*
X003735Y005297D01*
X003735Y005456D02*
X000425Y005456D01*
X000425Y005614D02*
X003735Y005614D01*
X003735Y005773D02*
X000425Y005773D01*
X000425Y005931D02*
X003735Y005931D01*
X003735Y006090D02*
X000425Y006090D01*
X000425Y006248D02*
X003735Y006248D01*
X003735Y006407D02*
X000425Y006407D01*
X000425Y006565D02*
X003735Y006565D01*
X003735Y006724D02*
X000425Y006724D01*
X000425Y006882D02*
X003735Y006882D01*
X003735Y007041D02*
X000425Y007041D01*
X000425Y007199D02*
X003735Y007199D01*
X003735Y007358D02*
X000425Y007358D01*
X000425Y007516D02*
X003735Y007516D01*
X003735Y007675D02*
X000425Y007675D01*
X000425Y007833D02*
X003735Y007833D01*
X003735Y007992D02*
X000425Y007992D01*
X000425Y008150D02*
X003735Y008150D01*
X003735Y008309D02*
X000425Y008309D01*
X000425Y008467D02*
X003735Y008467D01*
X003735Y008626D02*
X000425Y008626D01*
X000425Y008784D02*
X003735Y008784D01*
X003735Y008943D02*
X000425Y008943D01*
X000425Y009101D02*
X003735Y009101D01*
X003735Y009260D02*
X000425Y009260D01*
X000425Y009418D02*
X003735Y009418D01*
X003735Y009577D02*
X000425Y009577D01*
X000425Y009735D02*
X003735Y009735D01*
X003735Y009894D02*
X000425Y009894D01*
X000425Y010052D02*
X003735Y010052D01*
X003735Y010211D02*
X000425Y010211D01*
X000425Y010369D02*
X003735Y010369D01*
X003735Y010528D02*
X000425Y010528D01*
X000425Y010686D02*
X003735Y010686D01*
X003735Y010845D02*
X000425Y010845D01*
X000425Y011003D02*
X003735Y011003D01*
X003735Y011162D02*
X000425Y011162D01*
X000425Y011320D02*
X003735Y011320D01*
X003735Y011479D02*
X000425Y011479D01*
X000425Y011637D02*
X003735Y011637D01*
X003735Y011796D02*
X000425Y011796D01*
X000425Y011954D02*
X003735Y011954D01*
X003735Y012113D02*
X000425Y012113D01*
X000425Y012271D02*
X003735Y012271D01*
X003735Y012430D02*
X001015Y012430D01*
X001290Y012588D02*
X003735Y012588D01*
X003735Y012747D02*
X001504Y012747D01*
X001663Y012905D02*
X003735Y012905D01*
X003735Y013064D02*
X001806Y013064D01*
X001785Y013028D02*
X001785Y013028D01*
X001785Y013028D01*
X001898Y013222D02*
X003735Y013222D01*
X003735Y013381D02*
X001989Y013381D01*
X002060Y013539D02*
X003735Y013539D01*
X003735Y013698D02*
X002102Y013698D01*
X002145Y013856D02*
X003735Y013856D01*
X003735Y014015D02*
X002175Y014015D01*
X002175Y014173D02*
X003735Y014173D01*
X003735Y014332D02*
X002175Y014332D01*
X002173Y014490D02*
X003735Y014490D01*
X003735Y014649D02*
X002130Y014649D01*
X002088Y014807D02*
X003735Y014807D01*
X003735Y014966D02*
X002045Y014966D01*
X002042Y014978D02*
X002042Y014978D01*
X001958Y015124D02*
X003735Y015124D01*
X003735Y015283D02*
X001866Y015283D01*
X001767Y015441D02*
X003735Y015441D01*
X003735Y015600D02*
X001608Y015600D01*
X001450Y015758D02*
X003735Y015758D01*
X003735Y015917D02*
X001195Y015917D01*
X001422Y015785D02*
X001422Y015785D01*
X000855Y016075D02*
X003735Y016075D01*
X003735Y016234D02*
X000425Y016234D01*
X000425Y016392D02*
X003735Y016392D01*
X003735Y016551D02*
X000425Y016551D01*
X000425Y016709D02*
X003735Y016709D01*
X003735Y016868D02*
X000425Y016868D01*
X000425Y017026D02*
X003735Y017026D01*
X003735Y017185D02*
X000425Y017185D01*
X000425Y017343D02*
X003735Y017343D01*
X003735Y017502D02*
X000425Y017502D01*
X000425Y017660D02*
X003735Y017660D01*
X003735Y017819D02*
X000425Y017819D01*
X000425Y017977D02*
X003735Y017977D01*
X003735Y018136D02*
X000425Y018136D01*
X000425Y018294D02*
X003735Y018294D01*
X003735Y018523D02*
X003772Y018611D01*
X004215Y017026D02*
X011985Y017026D01*
X011985Y016868D02*
X004215Y016868D01*
X004215Y016709D02*
X011985Y016709D01*
X011985Y016551D02*
X004215Y016551D01*
X005382Y016234D02*
X011068Y016234D01*
X010825Y016075D02*
X005625Y016075D01*
X005719Y015917D02*
X010731Y015917D01*
X010695Y015758D02*
X005755Y015758D01*
X005747Y015600D02*
X010703Y015600D01*
X010769Y015441D02*
X005681Y015441D01*
X005532Y015283D02*
X010918Y015283D01*
X010874Y015124D02*
X005576Y015124D01*
X005699Y014966D02*
X010751Y014966D01*
X011225Y014725D02*
X011975Y014725D01*
X015349Y015600D02*
X027850Y015600D01*
X027741Y015441D02*
X018485Y015441D01*
X018667Y015283D02*
X027695Y015283D01*
X027695Y015124D02*
X018737Y015124D01*
X018755Y014966D02*
X027759Y014966D01*
X027893Y014807D02*
X018729Y014807D01*
X018648Y014649D02*
X027899Y014649D01*
X028225Y014225D02*
X029975Y014225D01*
X030201Y013856D02*
X028606Y013856D01*
X028469Y013698D02*
X030266Y013698D01*
X030411Y013539D02*
X028661Y013539D01*
X028734Y013381D02*
X032570Y013381D01*
X030725Y012725D02*
X028725Y012725D01*
X028225Y013225D01*
X027475Y013975D01*
X020475Y013975D01*
X020707Y013698D02*
X022731Y013698D01*
X023219Y013698D02*
X027413Y013698D01*
X027572Y013539D02*
X023411Y013539D01*
X023484Y013381D02*
X027716Y013381D01*
X027695Y013222D02*
X023505Y013222D01*
X023482Y013064D02*
X027718Y013064D01*
X027795Y012905D02*
X023405Y012905D01*
X023205Y012747D02*
X025599Y012747D01*
X025851Y012747D02*
X027995Y012747D01*
X028523Y012588D02*
X026112Y012588D01*
X025725Y012225D02*
X022975Y012225D01*
X022514Y011954D02*
X021291Y011954D01*
X021335Y011796D02*
X022655Y011796D01*
X022637Y011637D02*
X021452Y011637D01*
X021611Y011479D02*
X022506Y011479D01*
X022975Y011225D02*
X021525Y011225D01*
X020975Y011775D01*
X021434Y011003D02*
X018684Y011003D01*
X018749Y010845D02*
X022606Y010845D01*
X022703Y010686D02*
X018755Y010686D01*
X018717Y010528D02*
X022528Y010528D01*
X022461Y010369D02*
X018619Y010369D01*
X018438Y010211D02*
X022445Y010211D01*
X022473Y010052D02*
X018648Y010052D01*
X018729Y009894D02*
X022557Y009894D01*
X022773Y009735D02*
X018755Y009735D01*
X018737Y009577D02*
X035025Y009577D01*
X035025Y009735D02*
X025927Y009735D01*
X026143Y009894D02*
X035025Y009894D01*
X035025Y010052D02*
X026227Y010052D01*
X026255Y010211D02*
X035025Y010211D01*
X035025Y010369D02*
X026239Y010369D01*
X026172Y010528D02*
X035025Y010528D01*
X035025Y010686D02*
X033695Y010686D01*
X033255Y010686D02*
X025997Y010686D01*
X026094Y010845D02*
X033139Y010845D01*
X033115Y011003D02*
X026207Y011003D01*
X026255Y011162D02*
X033163Y011162D01*
X033367Y011320D02*
X026255Y011320D01*
X026194Y011479D02*
X029462Y011479D01*
X029372Y011637D02*
X026063Y011637D01*
X026045Y011796D02*
X029315Y011796D01*
X029157Y011954D02*
X026186Y011954D01*
X025725Y012225D02*
X029225Y012225D01*
X029725Y011725D01*
X029988Y011479D02*
X034339Y011479D01*
X034435Y011637D02*
X030078Y011637D01*
X030085Y011796D02*
X034435Y011796D01*
X034435Y011954D02*
X030005Y011954D01*
X029677Y012113D02*
X034435Y012113D01*
X035025Y009418D02*
X018668Y009418D01*
X018486Y009260D02*
X035025Y009260D01*
X035025Y009101D02*
X031099Y009101D01*
X031025Y009174D02*
X031174Y009025D01*
X031255Y008830D01*
X031255Y008620D01*
X031174Y008425D01*
X031025Y008276D01*
X030830Y008195D01*
X030620Y008195D01*
X030425Y008276D01*
X030276Y008425D01*
X030195Y008620D01*
X030195Y008830D01*
X030276Y009025D01*
X030425Y009174D01*
X030620Y009255D01*
X030830Y009255D01*
X031025Y009174D01*
X031209Y008943D02*
X035025Y008943D01*
X035025Y008784D02*
X031255Y008784D01*
X031255Y008626D02*
X035025Y008626D01*
X035025Y008467D02*
X031192Y008467D01*
X031058Y008309D02*
X035025Y008309D01*
X030725Y008025D02*
X030725Y007475D01*
X030725Y007475D01*
X030175Y007475D01*
X030187Y007358D02*
X021255Y007358D01*
X021255Y007199D02*
X030248Y007199D01*
X030387Y007041D02*
X021202Y007041D01*
X021082Y006882D02*
X030382Y006882D01*
X030254Y006724D02*
X021026Y006724D01*
X022984Y007925D02*
X023018Y007925D01*
X023104Y007939D01*
X023186Y007965D01*
X023263Y008005D01*
X023333Y008055D01*
X023395Y008117D01*
X023445Y008187D01*
X023485Y008264D01*
X023511Y008346D01*
X023525Y008432D01*
X023525Y008466D01*
X022984Y008466D01*
X022984Y008484D01*
X022966Y008484D01*
X022966Y009025D01*
X022932Y009025D01*
X022846Y009011D01*
X022764Y008985D01*
X022687Y008945D01*
X022617Y008895D01*
X022555Y008833D01*
X022505Y008763D01*
X022465Y008686D01*
X022439Y008604D01*
X022425Y008518D01*
X022425Y008484D01*
X022966Y008484D01*
X022966Y008466D01*
X022984Y008466D01*
X022984Y007925D01*
X022984Y007992D02*
X022966Y007992D01*
X022966Y008150D02*
X022984Y008150D01*
X022984Y008309D02*
X022966Y008309D01*
X022966Y008467D02*
X018711Y008467D01*
X018766Y008626D02*
X022446Y008626D01*
X022520Y008784D02*
X018773Y008784D01*
X018731Y008943D02*
X022683Y008943D01*
X022966Y008943D02*
X022984Y008943D01*
X022984Y009025D02*
X022984Y008484D01*
X023525Y008484D01*
X023525Y008518D01*
X023511Y008604D01*
X023485Y008686D01*
X023445Y008763D01*
X023395Y008833D01*
X023333Y008895D01*
X023263Y008945D01*
X023186Y008985D01*
X023104Y009011D01*
X023018Y009025D01*
X022984Y009025D01*
X022966Y008784D02*
X022984Y008784D01*
X022984Y008626D02*
X022966Y008626D01*
X022984Y008467D02*
X025716Y008467D01*
X025734Y008467D02*
X030258Y008467D01*
X030195Y008626D02*
X026254Y008626D01*
X026261Y008604D02*
X026235Y008686D01*
X026195Y008763D01*
X026145Y008833D01*
X026083Y008895D01*
X026013Y008945D01*
X025936Y008985D01*
X025854Y009011D01*
X025768Y009025D01*
X025734Y009025D01*
X025734Y008484D01*
X026275Y008484D01*
X026275Y008518D01*
X026261Y008604D01*
X026180Y008784D02*
X030195Y008784D01*
X030241Y008943D02*
X026017Y008943D01*
X025734Y008943D02*
X025716Y008943D01*
X025716Y008784D02*
X025734Y008784D01*
X025734Y008626D02*
X025716Y008626D01*
X025716Y008309D02*
X025734Y008309D01*
X025734Y008150D02*
X025716Y008150D01*
X025716Y007992D02*
X025734Y007992D01*
X025462Y007992D02*
X023238Y007992D01*
X023419Y008150D02*
X025281Y008150D01*
X025201Y008309D02*
X023499Y008309D01*
X023504Y008626D02*
X025196Y008626D01*
X025270Y008784D02*
X023430Y008784D01*
X023267Y008943D02*
X025433Y008943D01*
X025523Y009735D02*
X023177Y009735D01*
X023393Y009894D02*
X025307Y009894D01*
X025223Y010052D02*
X024891Y010052D01*
X025050Y010211D02*
X025195Y010211D01*
X025208Y010369D02*
X025211Y010369D01*
X024725Y010225D02*
X022975Y010225D01*
X024725Y010225D02*
X025725Y011225D01*
X025338Y012588D02*
X023362Y012588D01*
X027616Y014173D02*
X027695Y014173D01*
X027678Y014111D02*
X027678Y014111D01*
X028755Y013222D02*
X030540Y013222D01*
X030314Y013064D02*
X028732Y013064D01*
X029358Y012430D02*
X030274Y012430D01*
X030436Y012271D02*
X029518Y012271D01*
X030351Y009101D02*
X018627Y009101D01*
X018225Y008626D02*
X018225Y008626D01*
X018225Y008467D02*
X018225Y008467D01*
X018225Y008309D02*
X018225Y008309D01*
X018586Y008309D02*
X022451Y008309D01*
X026249Y008309D02*
X030392Y008309D01*
X030514Y007985D02*
X030596Y008011D01*
X030682Y008025D01*
X030725Y008025D01*
X030725Y007992D02*
X030725Y007992D01*
X030725Y007833D02*
X030725Y007833D01*
X030725Y007675D02*
X030725Y007675D01*
X030725Y007516D02*
X030725Y007516D01*
X027464Y003554D02*
X021954Y003554D01*
X022149Y003395D02*
X027277Y003395D01*
X027290Y003410D02*
X027290Y003410D01*
X027147Y003237D02*
X022285Y003237D01*
X022381Y003078D02*
X027049Y003078D01*
X027047Y003075D02*
X027047Y003075D01*
X027116Y003195D02*
X027116Y003195D01*
X026981Y002920D02*
X022448Y002920D01*
X022496Y002761D02*
X026936Y002761D01*
X026948Y002817D02*
X026948Y002817D01*
X026911Y002603D02*
X022525Y002603D01*
X022521Y002444D02*
X028145Y002444D01*
X028145Y002286D02*
X028305Y002286D01*
X028305Y002127D02*
X028145Y002127D01*
X028145Y001969D02*
X028305Y001969D01*
X028305Y001810D02*
X028145Y001810D01*
X028145Y001652D02*
X028305Y001652D01*
X028305Y001493D02*
X028145Y001493D01*
X028145Y001335D02*
X028305Y001335D01*
X028483Y001179D02*
X028483Y001179D01*
X026918Y002286D02*
X022517Y002286D01*
X023430Y004188D02*
X025270Y004188D01*
X025205Y004346D02*
X023495Y004346D01*
X023505Y004505D02*
X025195Y004505D01*
X025229Y004663D02*
X023471Y004663D01*
X023378Y004822D02*
X025322Y004822D01*
X025485Y004980D02*
X023141Y004980D01*
X033706Y000542D02*
X001744Y000542D01*
X000482Y001652D02*
X000425Y001652D01*
X000504Y001706D02*
X000504Y001706D01*
X000425Y001810D02*
X000608Y001810D01*
X003839Y001022D02*
X003839Y001022D01*
X004215Y001335D02*
X006599Y001335D01*
X006371Y001493D02*
X004215Y001493D01*
X004215Y001652D02*
X006223Y001652D01*
X006112Y001810D02*
X004215Y001810D01*
X004215Y001969D02*
X006025Y001969D01*
X005968Y002127D02*
X004215Y002127D01*
X004215Y002286D02*
X005938Y002286D01*
X005922Y002444D02*
X004215Y002444D01*
X004215Y002603D02*
X005925Y002603D01*
X005960Y002761D02*
X004215Y002761D01*
X004215Y002920D02*
X006006Y002920D01*
X006065Y003078D02*
X004215Y003078D01*
X004215Y003237D02*
X006163Y003237D01*
X006310Y003395D02*
X004215Y003395D01*
X004215Y003554D02*
X006493Y003554D01*
X006809Y003712D02*
X004215Y003712D01*
X004215Y003871D02*
X004852Y003871D01*
X004733Y004029D02*
X004215Y004029D01*
X004215Y004188D02*
X004682Y004188D01*
X004679Y004346D02*
X004215Y004346D01*
X004215Y004505D02*
X004725Y004505D01*
X004835Y004663D02*
X004215Y004663D01*
X005216Y004663D02*
X005234Y004663D01*
X005234Y004505D02*
X005216Y004505D01*
X005216Y004346D02*
X005234Y004346D01*
X005234Y004188D02*
X005216Y004188D01*
X005216Y004029D02*
X005234Y004029D01*
X005234Y003871D02*
X005216Y003871D01*
X005533Y007833D02*
X007917Y007833D01*
X007769Y007992D02*
X005681Y007992D01*
X005747Y008150D02*
X007703Y008150D01*
X007695Y008309D02*
X005755Y008309D01*
X005719Y008467D02*
X007731Y008467D01*
X007826Y008626D02*
X005624Y008626D01*
X005618Y009418D02*
X010832Y009418D01*
X010734Y009577D02*
X005716Y009577D01*
X005755Y009735D02*
X010695Y009735D01*
X010700Y009894D02*
X005750Y009894D01*
X005684Y010052D02*
X010766Y010052D01*
X010911Y010211D02*
X005539Y010211D01*
X005569Y010369D02*
X010881Y010369D01*
X010754Y010528D02*
X005696Y010528D01*
X004862Y011162D02*
X004215Y011162D01*
X004215Y011320D02*
X004938Y011320D01*
X004774Y011479D02*
X004215Y011479D01*
X004215Y011637D02*
X004708Y011637D01*
X004695Y011796D02*
X004215Y011796D01*
X004215Y011954D02*
X004725Y011954D01*
X004813Y012113D02*
X004215Y012113D01*
X004215Y012271D02*
X004985Y012271D01*
X004985Y012430D02*
X004215Y012430D01*
X004215Y012588D02*
X005012Y012588D01*
X005157Y012747D02*
X004215Y012747D01*
X004215Y012905D02*
X005316Y012905D01*
X005474Y013064D02*
X004215Y013064D01*
X004215Y013222D02*
X005054Y013222D01*
X004820Y013381D02*
X004215Y013381D01*
X004215Y013539D02*
X004728Y013539D01*
X004695Y013698D02*
X004215Y013698D01*
X004215Y013856D02*
X004706Y013856D01*
X004771Y014015D02*
X004215Y014015D01*
X004215Y014173D02*
X004923Y014173D01*
X005527Y014173D02*
X007733Y014173D01*
X007695Y014015D02*
X005679Y014015D01*
X005744Y013856D02*
X007701Y013856D01*
X007766Y013698D02*
X005755Y013698D01*
X005722Y013539D02*
X007911Y013539D01*
X007881Y013381D02*
X005630Y013381D01*
X005396Y013222D02*
X007754Y013222D01*
X008225Y012975D02*
X005725Y012975D01*
X005225Y012475D01*
X005225Y011775D01*
X007975Y010686D02*
X008475Y010686D01*
X008316Y010845D02*
X008134Y010845D01*
X008225Y011275D02*
X008225Y011975D01*
X008725Y010775D02*
X011225Y010775D01*
X007832Y014332D02*
X005581Y014332D01*
X008392Y019721D02*
X010757Y019721D01*
X010695Y019879D02*
X008629Y019879D01*
X008721Y020038D02*
X010695Y020038D01*
X010743Y020196D02*
X008755Y020196D01*
X008745Y020355D02*
X010855Y020355D01*
X010985Y020513D02*
X008679Y020513D01*
X008528Y020672D02*
X010939Y020672D01*
X010781Y020830D02*
X008580Y020830D01*
X008577Y021623D02*
X014623Y021623D01*
X014669Y021781D02*
X008531Y021781D01*
X008680Y021940D02*
X014520Y021940D01*
X014454Y022098D02*
X008746Y022098D01*
X008755Y022257D02*
X014445Y022257D01*
X014480Y022415D02*
X008720Y022415D01*
X008626Y022574D02*
X014574Y022574D01*
X014814Y022732D02*
X008386Y022732D01*
X008064Y022732D02*
X000425Y022732D01*
X000425Y022574D02*
X007824Y022574D01*
X007730Y022415D02*
X000425Y022415D01*
X000425Y022257D02*
X007695Y022257D01*
X007704Y022098D02*
X000425Y022098D01*
X000425Y021940D02*
X007770Y021940D01*
X007919Y021781D02*
X000425Y021781D01*
X000425Y021623D02*
X007873Y021623D01*
X010725Y021225D02*
X011225Y020725D01*
X011225Y019975D01*
X015300Y016551D02*
X025224Y016551D01*
X025308Y016392D02*
X015308Y016392D01*
X015442Y016234D02*
X016224Y016234D01*
X016127Y016075D02*
X015505Y016075D01*
X015505Y015917D02*
X016115Y015917D01*
X016183Y015758D02*
X015459Y015758D01*
X016475Y015975D02*
X032725Y015975D01*
X032975Y015725D01*
X033375Y016075D02*
X033549Y016075D01*
X033762Y016234D02*
X033132Y016234D01*
X032818Y016234D02*
X025923Y016234D01*
X025527Y016234D02*
X016726Y016234D01*
X018687Y019245D02*
X025485Y019245D01*
X025965Y019245D02*
X030195Y019245D01*
X030209Y019087D02*
X026113Y019087D01*
X026215Y018928D02*
X030274Y018928D01*
X030225Y019404D02*
X025965Y019404D01*
X025965Y019562D02*
X030312Y019562D01*
X030536Y019721D02*
X026060Y019721D01*
X026218Y019879D02*
X030321Y019879D01*
X030725Y020225D02*
X026225Y020225D01*
X025725Y019725D01*
X025725Y018725D01*
X026255Y021464D02*
X026425Y021464D01*
X027835Y024727D02*
X027851Y024733D01*
X027886Y024723D01*
X027896Y024710D01*
X027963Y024701D01*
X028028Y024682D01*
X028043Y024691D01*
X028079Y024686D01*
X028092Y024674D01*
X028159Y024676D01*
X028226Y024668D01*
X028240Y024678D01*
X028276Y024679D01*
X028290Y024669D01*
X028357Y024681D01*
X028424Y024683D01*
X028436Y024695D01*
X028471Y024702D01*
X028487Y024694D01*
X028551Y024716D01*
X028618Y024728D01*
X028627Y024742D01*
X028661Y024754D01*
X028678Y024749D01*
X028738Y024780D01*
X028802Y024802D01*
X028809Y024817D01*
X028841Y024834D01*
X028858Y024831D01*
X028913Y024871D01*
X028973Y024903D01*
X028978Y024919D01*
X029007Y024940D01*
X029024Y024940D01*
X029072Y024988D01*
X029127Y025028D01*
X029129Y025045D01*
X029155Y025071D01*
X029172Y025073D01*
X029212Y025128D01*
X029260Y025176D01*
X029260Y025193D01*
X029281Y025222D01*
X029297Y025227D01*
X029329Y025287D01*
X029369Y025342D01*
X029366Y025359D01*
X029383Y025391D01*
X029398Y025398D01*
X029420Y025462D01*
X029451Y025522D01*
X029446Y025539D01*
X029458Y025573D01*
X029472Y025582D01*
X029484Y025649D01*
X029506Y025713D01*
X029498Y025729D01*
X029505Y025764D01*
X029517Y025776D01*
X029519Y025843D01*
X029531Y025910D01*
X029521Y025924D01*
X029522Y025960D01*
X029532Y025974D01*
X029524Y026041D01*
X029526Y026108D01*
X029514Y026121D01*
X029509Y026157D01*
X029518Y026172D01*
X029499Y026237D01*
X029490Y026304D01*
X029477Y026314D01*
X029467Y026349D01*
X029473Y026365D01*
X029445Y026427D01*
X029426Y026492D01*
X029411Y026500D01*
X029396Y026533D01*
X029399Y026550D01*
X029362Y026606D01*
X029334Y026668D01*
X029318Y026674D01*
X029298Y026704D01*
X029299Y026721D01*
X029253Y026771D01*
X029216Y026828D01*
X029199Y026831D01*
X029175Y026858D01*
X029173Y026875D01*
X029121Y026918D01*
X029076Y026968D01*
X029058Y026969D01*
X029031Y026991D01*
X029026Y027008D01*
X028968Y027042D01*
X028916Y027085D01*
X028898Y027083D01*
X028867Y027102D01*
X028861Y027118D01*
X028798Y027143D01*
X028740Y027177D01*
X028723Y027173D01*
X028689Y027186D01*
X028680Y027201D01*
X028614Y027216D01*
X028552Y027241D01*
X028536Y027234D01*
X028501Y027242D01*
X028489Y027255D01*
X028422Y027261D01*
X028356Y027276D01*
X028341Y027267D01*
X028306Y027269D01*
X028293Y027280D01*
X028225Y027276D01*
X028158Y027281D01*
X028145Y027270D01*
X028121Y027268D01*
X028107Y027277D01*
X028040Y027262D01*
X027972Y027257D01*
X027961Y027245D01*
X027938Y027240D01*
X027923Y027247D01*
X027859Y027223D01*
X027792Y027208D01*
X027783Y027195D01*
X027761Y027186D01*
X027745Y027191D01*
X027685Y027158D01*
X027621Y027134D01*
X027614Y027119D01*
X027593Y027108D01*
X027577Y027110D01*
X027522Y027069D01*
X027462Y027036D01*
X027457Y027021D01*
X027438Y027006D01*
X027422Y027006D01*
X027373Y026958D01*
X027318Y026917D01*
X027316Y026901D01*
X027299Y026884D01*
X027283Y026882D01*
X027242Y026827D01*
X027194Y026778D01*
X027194Y026762D01*
X027179Y026743D01*
X027164Y026738D01*
X027131Y026678D01*
X027090Y026623D01*
X027092Y026607D01*
X027081Y026586D01*
X027066Y026579D01*
X027042Y026515D01*
X027009Y026455D01*
X027014Y026439D01*
X027005Y026417D01*
X026992Y026408D01*
X026977Y026341D01*
X026953Y026277D01*
X026960Y026262D01*
X026955Y026239D01*
X026943Y026228D01*
X026938Y026160D01*
X026923Y026093D01*
X026932Y026079D01*
X026930Y026055D01*
X026919Y026042D01*
X026924Y025975D01*
X026920Y025907D01*
X026931Y025894D01*
X026933Y025859D01*
X026924Y025844D01*
X026939Y025778D01*
X026945Y025711D01*
X026958Y025699D01*
X026966Y025664D01*
X026959Y025648D01*
X026984Y025586D01*
X026999Y025520D01*
X027014Y025511D01*
X027027Y025477D01*
X027023Y025460D01*
X027057Y025402D01*
X027082Y025339D01*
X027098Y025333D01*
X027117Y025302D01*
X027115Y025284D01*
X027158Y025232D01*
X027192Y025174D01*
X027209Y025169D01*
X027231Y025142D01*
X027232Y025124D01*
X027282Y025079D01*
X027325Y025027D01*
X027342Y025025D01*
X027369Y025001D01*
X027372Y024984D01*
X027429Y024947D01*
X027479Y024901D01*
X027496Y024902D01*
X027526Y024882D01*
X027532Y024866D01*
X027594Y024838D01*
X027650Y024801D01*
X027667Y024804D01*
X027700Y024789D01*
X027708Y024774D01*
X027773Y024755D01*
X027835Y024727D01*
X027692Y024793D02*
X021775Y024793D01*
X021802Y024802D02*
X021809Y024817D01*
X021841Y024834D01*
X021858Y024831D01*
X021913Y024871D01*
X021973Y024903D01*
X021978Y024919D01*
X022007Y024940D01*
X022024Y024940D01*
X022072Y024988D01*
X022127Y025028D01*
X022129Y025045D01*
X022155Y025071D01*
X022172Y025073D01*
X022212Y025128D01*
X022260Y025176D01*
X022260Y025193D01*
X022281Y025222D01*
X022297Y025227D01*
X022329Y025287D01*
X022369Y025342D01*
X022366Y025359D01*
X022383Y025391D01*
X022398Y025398D01*
X022420Y025462D01*
X022451Y025522D01*
X022446Y025539D01*
X022458Y025573D01*
X022472Y025582D01*
X022484Y025649D01*
X022506Y025713D01*
X022498Y025729D01*
X022505Y025764D01*
X022517Y025776D01*
X022519Y025843D01*
X022531Y025910D01*
X022521Y025924D01*
X022522Y025960D01*
X022532Y025974D01*
X022524Y026041D01*
X022526Y026108D01*
X022514Y026121D01*
X022509Y026157D01*
X022518Y026172D01*
X022499Y026237D01*
X022490Y026304D01*
X022477Y026314D01*
X022467Y026349D01*
X022473Y026365D01*
X022445Y026427D01*
X022426Y026492D01*
X022411Y026500D01*
X022396Y026533D01*
X022399Y026550D01*
X022362Y026606D01*
X022334Y026668D01*
X022318Y026674D01*
X022298Y026704D01*
X022299Y026721D01*
X022253Y026771D01*
X022216Y026828D01*
X022199Y026831D01*
X022175Y026858D01*
X022173Y026875D01*
X022121Y026918D01*
X022076Y026968D01*
X022058Y026969D01*
X022031Y026991D01*
X022026Y027008D01*
X021968Y027042D01*
X021916Y027085D01*
X021898Y027083D01*
X021867Y027102D01*
X021861Y027118D01*
X021798Y027143D01*
X021740Y027177D01*
X021723Y027173D01*
X021689Y027186D01*
X021680Y027201D01*
X021614Y027216D01*
X021552Y027241D01*
X021536Y027234D01*
X021501Y027242D01*
X021489Y027255D01*
X021422Y027261D01*
X021356Y027276D01*
X021341Y027267D01*
X021306Y027269D01*
X021293Y027280D01*
X021225Y027276D01*
X021158Y027281D01*
X021145Y027270D01*
X021121Y027268D01*
X021107Y027277D01*
X021040Y027262D01*
X020972Y027257D01*
X020961Y027245D01*
X020938Y027240D01*
X020923Y027247D01*
X020859Y027223D01*
X020792Y027208D01*
X020783Y027195D01*
X020761Y027186D01*
X020745Y027191D01*
X020685Y027158D01*
X020621Y027134D01*
X020614Y027119D01*
X020593Y027108D01*
X020577Y027110D01*
X020522Y027069D01*
X020462Y027036D01*
X020457Y027021D01*
X020438Y027006D01*
X020422Y027006D01*
X020373Y026958D01*
X020318Y026917D01*
X020316Y026901D01*
X020299Y026884D01*
X020283Y026882D01*
X020242Y026827D01*
X020194Y026778D01*
X020194Y026762D01*
X020179Y026743D01*
X020164Y026738D01*
X020131Y026678D01*
X020090Y026623D01*
X020092Y026607D01*
X020081Y026586D01*
X020066Y026579D01*
X020042Y026515D01*
X020009Y026455D01*
X020014Y026439D01*
X020005Y026417D01*
X019992Y026408D01*
X019977Y026341D01*
X019953Y026277D01*
X019960Y026262D01*
X019955Y026239D01*
X019943Y026228D01*
X019938Y026160D01*
X019923Y026093D01*
X019932Y026079D01*
X019930Y026055D01*
X019919Y026042D01*
X019924Y025975D01*
X019920Y025907D01*
X019931Y025894D01*
X019933Y025859D01*
X019924Y025844D01*
X019939Y025778D01*
X019945Y025711D01*
X019958Y025699D01*
X019966Y025664D01*
X019959Y025648D01*
X019984Y025586D01*
X019999Y025520D01*
X020014Y025511D01*
X020027Y025477D01*
X020023Y025460D01*
X020057Y025402D01*
X020082Y025339D01*
X020098Y025333D01*
X020117Y025302D01*
X020115Y025284D01*
X020158Y025232D01*
X020192Y025174D01*
X020209Y025169D01*
X020231Y025142D01*
X020232Y025124D01*
X020282Y025079D01*
X020325Y025027D01*
X020342Y025025D01*
X020369Y025001D01*
X020372Y024984D01*
X020429Y024947D01*
X020479Y024901D01*
X020496Y024902D01*
X020526Y024882D01*
X020532Y024866D01*
X020594Y024838D01*
X020650Y024801D01*
X020667Y024804D01*
X020700Y024789D01*
X020708Y024774D01*
X020773Y024755D01*
X020835Y024727D01*
X020851Y024733D01*
X020886Y024723D01*
X020896Y024710D01*
X020963Y024701D01*
X021028Y024682D01*
X021043Y024691D01*
X021079Y024686D01*
X021092Y024674D01*
X021159Y024676D01*
X021226Y024668D01*
X021240Y024678D01*
X021276Y024679D01*
X021290Y024669D01*
X021357Y024681D01*
X021424Y024683D01*
X021436Y024695D01*
X021471Y024702D01*
X021487Y024694D01*
X021551Y024716D01*
X021618Y024728D01*
X021627Y024742D01*
X021661Y024754D01*
X021678Y024749D01*
X021738Y024780D01*
X021802Y024802D01*
X022035Y024951D02*
X027422Y024951D01*
X027248Y025110D02*
X022198Y025110D01*
X022319Y025268D02*
X027128Y025268D01*
X027043Y025427D02*
X022408Y025427D01*
X022473Y025585D02*
X026984Y025585D01*
X026942Y025744D02*
X022501Y025744D01*
X022529Y025902D02*
X026924Y025902D01*
X026931Y026061D02*
X022524Y026061D01*
X022504Y026219D02*
X026942Y026219D01*
X026985Y026378D02*
X022467Y026378D01*
X022397Y026536D02*
X027050Y026536D01*
X027140Y026695D02*
X022304Y026695D01*
X022179Y026853D02*
X027262Y026853D01*
X027445Y027012D02*
X022021Y027012D01*
X021751Y027170D02*
X027707Y027170D01*
X028751Y027170D02*
X033375Y027170D01*
X033375Y027329D02*
X002075Y027329D01*
X002075Y027170D02*
X006707Y027170D01*
X006685Y027158D02*
X006621Y027134D01*
X006614Y027119D01*
X006593Y027108D01*
X006577Y027110D01*
X006522Y027069D01*
X006462Y027036D01*
X006457Y027021D01*
X006438Y027006D01*
X006422Y027006D01*
X006373Y026958D01*
X006318Y026917D01*
X006316Y026901D01*
X006299Y026884D01*
X006283Y026882D01*
X006242Y026827D01*
X006194Y026778D01*
X006194Y026762D01*
X006179Y026743D01*
X006164Y026738D01*
X006131Y026678D01*
X006090Y026623D01*
X006092Y026607D01*
X006081Y026586D01*
X006066Y026579D01*
X006042Y026515D01*
X006009Y026455D01*
X006014Y026439D01*
X006005Y026417D01*
X005992Y026408D01*
X005977Y026341D01*
X005953Y026277D01*
X005960Y026262D01*
X005955Y026239D01*
X005943Y026228D01*
X005938Y026160D01*
X005923Y026093D01*
X005932Y026079D01*
X005930Y026055D01*
X005919Y026042D01*
X005924Y025975D01*
X005920Y025907D01*
X005931Y025894D01*
X005933Y025859D01*
X005924Y025844D01*
X005939Y025778D01*
X005945Y025711D01*
X005958Y025699D01*
X005966Y025664D01*
X005959Y025648D01*
X005984Y025586D01*
X005999Y025520D01*
X006014Y025511D01*
X006027Y025477D01*
X006023Y025460D01*
X006057Y025402D01*
X006082Y025339D01*
X006098Y025333D01*
X006117Y025302D01*
X006115Y025284D01*
X006158Y025232D01*
X006192Y025174D01*
X006209Y025169D01*
X006231Y025142D01*
X006232Y025124D01*
X006282Y025079D01*
X006325Y025027D01*
X006342Y025025D01*
X006369Y025001D01*
X006372Y024984D01*
X006429Y024947D01*
X006479Y024901D01*
X006496Y024902D01*
X006526Y024882D01*
X006532Y024866D01*
X006594Y024838D01*
X006650Y024801D01*
X006667Y024804D01*
X006700Y024789D01*
X006708Y024774D01*
X006773Y024755D01*
X006835Y024727D01*
X006851Y024733D01*
X006886Y024723D01*
X006896Y024710D01*
X006963Y024701D01*
X007028Y024682D01*
X007043Y024691D01*
X007079Y024686D01*
X007092Y024674D01*
X007159Y024676D01*
X007226Y024668D01*
X007240Y024678D01*
X007276Y024679D01*
X007290Y024669D01*
X007357Y024681D01*
X007424Y024683D01*
X007436Y024695D01*
X007471Y024702D01*
X007487Y024694D01*
X007551Y024716D01*
X007618Y024728D01*
X007627Y024742D01*
X007661Y024754D01*
X007678Y024749D01*
X007738Y024780D01*
X007802Y024802D01*
X007809Y024817D01*
X007841Y024834D01*
X007858Y024831D01*
X007913Y024871D01*
X007973Y024903D01*
X007978Y024919D01*
X008007Y024940D01*
X008024Y024940D01*
X008072Y024988D01*
X008127Y025028D01*
X008129Y025045D01*
X008155Y025071D01*
X008172Y025073D01*
X008212Y025128D01*
X008260Y025176D01*
X008260Y025193D01*
X008281Y025222D01*
X008297Y025227D01*
X008329Y025287D01*
X008369Y025342D01*
X008366Y025359D01*
X008383Y025391D01*
X008398Y025398D01*
X008420Y025462D01*
X008451Y025522D01*
X008446Y025539D01*
X008458Y025573D01*
X008472Y025582D01*
X008484Y025649D01*
X008506Y025713D01*
X008498Y025729D01*
X008505Y025764D01*
X008517Y025776D01*
X008519Y025843D01*
X008531Y025910D01*
X008521Y025924D01*
X008522Y025960D01*
X008532Y025974D01*
X008524Y026041D01*
X008526Y026108D01*
X008514Y026121D01*
X008509Y026157D01*
X008518Y026172D01*
X008499Y026237D01*
X008490Y026304D01*
X008477Y026314D01*
X008467Y026349D01*
X008473Y026365D01*
X008445Y026427D01*
X008426Y026492D01*
X008411Y026500D01*
X008396Y026533D01*
X008399Y026550D01*
X008362Y026606D01*
X008334Y026668D01*
X008318Y026674D01*
X008298Y026704D01*
X008299Y026721D01*
X008253Y026771D01*
X008216Y026828D01*
X008199Y026831D01*
X008175Y026858D01*
X008173Y026875D01*
X008121Y026918D01*
X008076Y026968D01*
X008058Y026969D01*
X008031Y026991D01*
X008026Y027008D01*
X007968Y027042D01*
X007916Y027085D01*
X007898Y027083D01*
X007867Y027102D01*
X007861Y027118D01*
X007798Y027143D01*
X007740Y027177D01*
X007723Y027173D01*
X007689Y027186D01*
X007680Y027201D01*
X007614Y027216D01*
X007552Y027241D01*
X007536Y027234D01*
X007501Y027242D01*
X007489Y027255D01*
X007422Y027261D01*
X007356Y027276D01*
X007341Y027267D01*
X007306Y027269D01*
X007293Y027280D01*
X007225Y027276D01*
X007158Y027281D01*
X007145Y027270D01*
X007121Y027268D01*
X007107Y027277D01*
X007040Y027262D01*
X006972Y027257D01*
X006961Y027245D01*
X006938Y027240D01*
X006923Y027247D01*
X006859Y027223D01*
X006792Y027208D01*
X006783Y027195D01*
X006761Y027186D01*
X006745Y027191D01*
X006685Y027158D01*
X006445Y027012D02*
X002057Y027012D01*
X001991Y026853D02*
X006262Y026853D01*
X006140Y026695D02*
X001897Y026695D01*
X001946Y026744D02*
X001946Y026744D01*
X001946Y026744D01*
X001738Y026536D02*
X006050Y026536D01*
X005985Y026378D02*
X001400Y026378D01*
X001050Y026378D02*
X000425Y026378D01*
X000425Y026536D02*
X000712Y026536D01*
X000744Y026504D02*
X000744Y026504D01*
X000553Y026695D02*
X000425Y026695D01*
X000504Y026744D02*
X000504Y026744D01*
X000459Y026853D02*
X000425Y026853D01*
X000425Y026219D02*
X005942Y026219D01*
X005931Y026061D02*
X000425Y026061D01*
X000425Y025902D02*
X005924Y025902D01*
X005942Y025744D02*
X000425Y025744D01*
X000425Y025585D02*
X005984Y025585D01*
X006043Y025427D02*
X000425Y025427D01*
X000425Y025268D02*
X006128Y025268D01*
X006248Y025110D02*
X000425Y025110D01*
X000425Y024951D02*
X006422Y024951D01*
X006692Y024793D02*
X000425Y024793D01*
X000425Y024634D02*
X035025Y024634D01*
X035025Y024476D02*
X000425Y024476D01*
X000425Y024317D02*
X035025Y024317D01*
X035025Y024159D02*
X000425Y024159D01*
X000425Y024000D02*
X035025Y024000D01*
X035025Y023842D02*
X000425Y023842D01*
X000425Y023683D02*
X035025Y023683D01*
X035025Y023525D02*
X000425Y023525D01*
X000425Y023366D02*
X035025Y023366D01*
X035025Y023208D02*
X000425Y023208D01*
X002036Y027487D02*
X033414Y027487D01*
X033479Y027646D02*
X001971Y027646D01*
X001848Y027804D02*
X033602Y027804D01*
X033504Y027706D02*
X033504Y027706D01*
X033504Y027706D01*
X033784Y027963D02*
X001666Y027963D01*
X001706Y027946D02*
X001706Y027946D01*
X007751Y027170D02*
X013707Y027170D01*
X013685Y027158D02*
X013621Y027134D01*
X013614Y027119D01*
X013593Y027108D01*
X013577Y027110D01*
X013522Y027069D01*
X013462Y027036D01*
X013457Y027021D01*
X013438Y027006D01*
X013422Y027006D01*
X013373Y026958D01*
X013318Y026917D01*
X013316Y026901D01*
X013299Y026884D01*
X013283Y026882D01*
X013242Y026827D01*
X013194Y026778D01*
X013194Y026762D01*
X013179Y026743D01*
X013164Y026738D01*
X013131Y026678D01*
X013090Y026623D01*
X013092Y026607D01*
X013081Y026586D01*
X013066Y026579D01*
X013042Y026515D01*
X013009Y026455D01*
X013014Y026439D01*
X013005Y026417D01*
X012992Y026408D01*
X012977Y026341D01*
X012953Y026277D01*
X012960Y026262D01*
X012955Y026239D01*
X012943Y026228D01*
X012938Y026160D01*
X012923Y026093D01*
X012932Y026079D01*
X012930Y026055D01*
X012919Y026042D01*
X012924Y025975D01*
X012920Y025907D01*
X012931Y025894D01*
X012933Y025859D01*
X012924Y025844D01*
X012939Y025778D01*
X012945Y025711D01*
X012958Y025699D01*
X012966Y025664D01*
X012959Y025648D01*
X012984Y025586D01*
X012999Y025520D01*
X013014Y025511D01*
X013027Y025477D01*
X013023Y025460D01*
X013057Y025402D01*
X013082Y025339D01*
X013098Y025333D01*
X013117Y025302D01*
X013115Y025284D01*
X013158Y025232D01*
X013192Y025174D01*
X013209Y025169D01*
X013231Y025142D01*
X013232Y025124D01*
X013282Y025079D01*
X013325Y025027D01*
X013342Y025025D01*
X013369Y025001D01*
X013372Y024984D01*
X013429Y024947D01*
X013479Y024901D01*
X013496Y024902D01*
X013526Y024882D01*
X013532Y024866D01*
X013594Y024838D01*
X013650Y024801D01*
X013667Y024804D01*
X013700Y024789D01*
X013708Y024774D01*
X013773Y024755D01*
X013835Y024727D01*
X013851Y024733D01*
X013886Y024723D01*
X013896Y024710D01*
X013963Y024701D01*
X014028Y024682D01*
X014043Y024691D01*
X014079Y024686D01*
X014092Y024674D01*
X014159Y024676D01*
X014226Y024668D01*
X014240Y024678D01*
X014276Y024679D01*
X014290Y024669D01*
X014357Y024681D01*
X014424Y024683D01*
X014436Y024695D01*
X014471Y024702D01*
X014487Y024694D01*
X014551Y024716D01*
X014618Y024728D01*
X014627Y024742D01*
X014661Y024754D01*
X014678Y024749D01*
X014738Y024780D01*
X014802Y024802D01*
X014809Y024817D01*
X014841Y024834D01*
X014858Y024831D01*
X014913Y024871D01*
X014973Y024903D01*
X014978Y024919D01*
X015007Y024940D01*
X015024Y024940D01*
X015072Y024988D01*
X015127Y025028D01*
X015129Y025045D01*
X015155Y025071D01*
X015172Y025073D01*
X015212Y025128D01*
X015260Y025176D01*
X015260Y025193D01*
X015281Y025222D01*
X015297Y025227D01*
X015329Y025287D01*
X015369Y025342D01*
X015366Y025359D01*
X015383Y025391D01*
X015398Y025398D01*
X015420Y025462D01*
X015451Y025522D01*
X015446Y025539D01*
X015458Y025573D01*
X015472Y025582D01*
X015484Y025649D01*
X015506Y025713D01*
X015498Y025729D01*
X015505Y025764D01*
X015517Y025776D01*
X015519Y025843D01*
X015531Y025910D01*
X015521Y025924D01*
X015522Y025960D01*
X015532Y025974D01*
X015524Y026041D01*
X015526Y026108D01*
X015514Y026121D01*
X015509Y026157D01*
X015518Y026172D01*
X015499Y026237D01*
X015490Y026304D01*
X015477Y026314D01*
X015467Y026349D01*
X015473Y026365D01*
X015445Y026427D01*
X015426Y026492D01*
X015411Y026500D01*
X015396Y026533D01*
X015399Y026550D01*
X015362Y026606D01*
X015334Y026668D01*
X015318Y026674D01*
X015298Y026704D01*
X015299Y026721D01*
X015253Y026771D01*
X015216Y026828D01*
X015199Y026831D01*
X015175Y026858D01*
X015173Y026875D01*
X015121Y026918D01*
X015076Y026968D01*
X015058Y026969D01*
X015031Y026991D01*
X015026Y027008D01*
X014968Y027042D01*
X014916Y027085D01*
X014898Y027083D01*
X014867Y027102D01*
X014861Y027118D01*
X014798Y027143D01*
X014740Y027177D01*
X014723Y027173D01*
X014689Y027186D01*
X014680Y027201D01*
X014614Y027216D01*
X014552Y027241D01*
X014536Y027234D01*
X014501Y027242D01*
X014489Y027255D01*
X014422Y027261D01*
X014356Y027276D01*
X014341Y027267D01*
X014306Y027269D01*
X014293Y027280D01*
X014225Y027276D01*
X014158Y027281D01*
X014145Y027270D01*
X014121Y027268D01*
X014107Y027277D01*
X014040Y027262D01*
X013972Y027257D01*
X013961Y027245D01*
X013938Y027240D01*
X013923Y027247D01*
X013859Y027223D01*
X013792Y027208D01*
X013783Y027195D01*
X013761Y027186D01*
X013745Y027191D01*
X013685Y027158D01*
X013445Y027012D02*
X008021Y027012D01*
X008179Y026853D02*
X013262Y026853D01*
X013140Y026695D02*
X008304Y026695D01*
X008397Y026536D02*
X013050Y026536D01*
X012985Y026378D02*
X008467Y026378D01*
X008504Y026219D02*
X012942Y026219D01*
X012931Y026061D02*
X008524Y026061D01*
X008529Y025902D02*
X012924Y025902D01*
X012942Y025744D02*
X008501Y025744D01*
X008473Y025585D02*
X012984Y025585D01*
X013043Y025427D02*
X008408Y025427D01*
X008319Y025268D02*
X013128Y025268D01*
X013248Y025110D02*
X008198Y025110D01*
X008035Y024951D02*
X013422Y024951D01*
X013692Y024793D02*
X007775Y024793D01*
X014775Y024793D02*
X020692Y024793D01*
X020422Y024951D02*
X015035Y024951D01*
X015198Y025110D02*
X020248Y025110D01*
X020128Y025268D02*
X015319Y025268D01*
X015408Y025427D02*
X020043Y025427D01*
X019984Y025585D02*
X015473Y025585D01*
X015501Y025744D02*
X019942Y025744D01*
X019924Y025902D02*
X015529Y025902D01*
X015524Y026061D02*
X019931Y026061D01*
X019942Y026219D02*
X015504Y026219D01*
X015467Y026378D02*
X019985Y026378D01*
X020050Y026536D02*
X015397Y026536D01*
X015304Y026695D02*
X020140Y026695D01*
X020262Y026853D02*
X015179Y026853D01*
X015021Y027012D02*
X020445Y027012D01*
X020707Y027170D02*
X014751Y027170D01*
X028775Y024793D02*
X035025Y024793D01*
X035025Y024951D02*
X029035Y024951D01*
X029198Y025110D02*
X035025Y025110D01*
X035025Y025268D02*
X029319Y025268D01*
X029408Y025427D02*
X035025Y025427D01*
X035025Y025585D02*
X029473Y025585D01*
X029501Y025744D02*
X035025Y025744D01*
X035025Y025902D02*
X029529Y025902D01*
X029524Y026061D02*
X035025Y026061D01*
X035025Y026219D02*
X029504Y026219D01*
X029467Y026378D02*
X034050Y026378D01*
X033744Y026504D02*
X033744Y026504D01*
X033712Y026536D02*
X029397Y026536D01*
X029304Y026695D02*
X033553Y026695D01*
X033504Y026744D02*
X033504Y026744D01*
X033459Y026853D02*
X029179Y026853D01*
X029021Y027012D02*
X033393Y027012D01*
X034400Y026378D02*
X035025Y026378D01*
X035025Y026536D02*
X034738Y026536D01*
X034897Y026695D02*
X035025Y026695D01*
X034946Y026744D02*
X034946Y026744D01*
X034991Y026853D02*
X035025Y026853D01*
X033995Y016234D02*
X033955Y016234D01*
X033955Y016075D02*
X033995Y016075D01*
X033995Y015917D02*
X033955Y015917D01*
X033955Y015758D02*
X033995Y015758D01*
X033744Y000504D02*
X033744Y000504D01*
D17*
X034725Y004225D03*
X033475Y010975D03*
X029725Y011725D03*
X029975Y014225D03*
X020975Y011775D03*
X020475Y013975D03*
X016475Y015975D03*
X015975Y009975D03*
M02*
