G75*
%MOIN*%
%OFA0B0*%
%FSLAX24Y24*%
%IPPOS*%
%LPD*%
%AMOC8*
5,1,8,0,0,1.08239X$1,22.5*
%
%ADD10C,0.0110*%
%ADD11C,0.0060*%
%ADD12C,0.0080*%
%ADD13C,0.0050*%
D10*
X014264Y013180D02*
X014264Y013475D01*
X014362Y013574D01*
X014658Y013574D01*
X014658Y013180D01*
X014909Y013180D02*
X014909Y013574D01*
X015302Y013574D02*
X015302Y013278D01*
X015204Y013180D01*
X014909Y013180D01*
X015553Y013771D02*
X015947Y013771D01*
X015947Y013180D01*
X016198Y013180D02*
X016493Y013180D01*
X016591Y013278D01*
X016591Y013574D01*
X016824Y013574D02*
X017021Y013574D01*
X016923Y013672D02*
X016923Y013278D01*
X016824Y013180D01*
X016394Y012983D02*
X016296Y012983D01*
X016198Y013082D01*
X016198Y013574D01*
X015947Y013475D02*
X015750Y013475D01*
X017263Y013574D02*
X017361Y013574D01*
X017558Y013377D01*
X017558Y013180D02*
X017558Y013574D01*
X017809Y013475D02*
X017907Y013574D01*
X018104Y013574D01*
X018203Y013475D01*
X018203Y013278D01*
X018104Y013180D01*
X017907Y013180D01*
X017809Y013278D01*
X017809Y013475D01*
X018454Y013771D02*
X018847Y013771D01*
X018847Y013180D01*
X019098Y013180D02*
X019098Y013475D01*
X019197Y013574D01*
X019492Y013574D01*
X019492Y013180D01*
X019743Y013377D02*
X020136Y013377D01*
X020136Y013475D02*
X020038Y013574D01*
X019841Y013574D01*
X019743Y013475D01*
X019743Y013377D01*
X019841Y013180D02*
X020038Y013180D01*
X020136Y013278D01*
X020136Y013475D01*
X020387Y013574D02*
X020584Y013180D01*
X020781Y013574D01*
X021032Y013475D02*
X021032Y013377D01*
X021425Y013377D01*
X021425Y013475D02*
X021327Y013574D01*
X021130Y013574D01*
X021032Y013475D01*
X021130Y013180D02*
X021327Y013180D01*
X021425Y013278D01*
X021425Y013475D01*
X021676Y013377D02*
X021676Y013278D01*
X021775Y013180D01*
X021972Y013180D01*
X022070Y013278D01*
X021972Y013475D02*
X021775Y013475D01*
X021676Y013377D01*
X021676Y013672D02*
X021775Y013771D01*
X021972Y013771D01*
X022070Y013672D01*
X022070Y013574D01*
X021972Y013475D01*
X018847Y013475D02*
X018650Y013475D01*
D11*
X018394Y012745D02*
X018394Y012405D01*
X018224Y012405D01*
X018167Y012462D01*
X018167Y012575D01*
X018224Y012632D01*
X018394Y012632D01*
X018535Y012575D02*
X018592Y012632D01*
X018706Y012632D01*
X018762Y012575D01*
X018762Y012462D01*
X018706Y012405D01*
X018592Y012405D01*
X018535Y012462D01*
X018535Y012575D01*
X018899Y012632D02*
X018956Y012632D01*
X019069Y012518D01*
X019069Y012405D02*
X019069Y012632D01*
X019211Y012632D02*
X019381Y012632D01*
X019438Y012575D01*
X019438Y012462D01*
X019381Y012405D01*
X019211Y012405D01*
X019579Y012405D02*
X019749Y012405D01*
X019806Y012462D01*
X019749Y012518D01*
X019579Y012518D01*
X019579Y012575D02*
X019579Y012405D01*
X019579Y012575D02*
X019636Y012632D01*
X019749Y012632D01*
X019933Y012462D02*
X019933Y012405D01*
X019990Y012405D01*
X019990Y012462D01*
X019933Y012462D01*
X020132Y012462D02*
X020132Y012632D01*
X020132Y012462D02*
X020188Y012405D01*
X020245Y012462D01*
X020302Y012405D01*
X020358Y012462D01*
X020358Y012632D01*
X020500Y012632D02*
X020500Y012462D01*
X020557Y012405D01*
X020613Y012462D01*
X020670Y012405D01*
X020727Y012462D01*
X020727Y012632D01*
X020868Y012632D02*
X020868Y012462D01*
X020925Y012405D01*
X020982Y012462D01*
X021038Y012405D01*
X021095Y012462D01*
X021095Y012632D01*
X018026Y012575D02*
X018026Y012462D01*
X017969Y012405D01*
X017856Y012405D01*
X017799Y012462D01*
X017799Y012575D01*
X017856Y012632D01*
X017969Y012632D01*
X018026Y012575D01*
X017657Y012632D02*
X017544Y012632D01*
X017601Y012689D02*
X017601Y012462D01*
X017544Y012405D01*
X017412Y012405D02*
X017298Y012405D01*
X017355Y012405D02*
X017355Y012632D01*
X017412Y012632D01*
X017355Y012745D02*
X017355Y012802D01*
X017166Y012575D02*
X017110Y012632D01*
X016939Y012632D01*
X016798Y012462D02*
X016741Y012462D01*
X016741Y012405D01*
X016798Y012405D01*
X016798Y012462D01*
X016939Y012405D02*
X017110Y012405D01*
X017166Y012462D01*
X017166Y012575D01*
X016614Y012575D02*
X016614Y012462D01*
X016557Y012405D01*
X016387Y012405D01*
X016246Y012462D02*
X016189Y012405D01*
X016075Y012405D01*
X016019Y012462D01*
X016019Y012575D01*
X016075Y012632D01*
X016189Y012632D01*
X016246Y012575D01*
X016246Y012462D01*
X016387Y012632D02*
X016557Y012632D01*
X016614Y012575D01*
X015877Y012632D02*
X015820Y012632D01*
X015764Y012575D01*
X015707Y012632D01*
X015650Y012575D01*
X015650Y012405D01*
X015764Y012405D02*
X015764Y012575D01*
X015877Y012632D02*
X015877Y012405D01*
D12*
X018775Y008875D02*
X018812Y008883D01*
X018847Y008893D01*
X018882Y008907D01*
X018915Y008923D01*
X018947Y008942D01*
X018977Y008964D01*
X019005Y008989D01*
X019031Y009015D01*
X019054Y009044D01*
X019075Y009075D01*
X021575Y005625D02*
X021554Y005594D01*
X021531Y005565D01*
X021505Y005539D01*
X021477Y005514D01*
X021447Y005492D01*
X021415Y005473D01*
X021382Y005457D01*
X021347Y005443D01*
X021312Y005433D01*
X021275Y005425D01*
X023525Y010375D02*
X023562Y010383D01*
X023597Y010393D01*
X023632Y010407D01*
X023665Y010423D01*
X023697Y010442D01*
X023727Y010464D01*
X023755Y010489D01*
X023781Y010515D01*
X023804Y010544D01*
X023825Y010575D01*
X026275Y010375D02*
X026312Y010383D01*
X026347Y010393D01*
X026382Y010407D01*
X026415Y010423D01*
X026447Y010442D01*
X026477Y010464D01*
X026505Y010489D01*
X026531Y010515D01*
X026554Y010544D01*
X026575Y010575D01*
X030175Y007425D02*
X030196Y007456D01*
X030219Y007485D01*
X030245Y007511D01*
X030273Y007536D01*
X030303Y007558D01*
X030335Y007577D01*
X030368Y007593D01*
X030403Y007607D01*
X030438Y007617D01*
X030475Y007625D01*
X028775Y013375D02*
X028812Y013383D01*
X028847Y013393D01*
X028882Y013407D01*
X028915Y013423D01*
X028947Y013442D01*
X028977Y013464D01*
X029005Y013489D01*
X029031Y013515D01*
X029054Y013544D01*
X029075Y013575D01*
X026575Y017075D02*
X026554Y017044D01*
X026531Y017015D01*
X026505Y016989D01*
X026477Y016964D01*
X026447Y016942D01*
X026415Y016923D01*
X026382Y016907D01*
X026347Y016893D01*
X026312Y016883D01*
X026275Y016875D01*
X031275Y019375D02*
X031312Y019383D01*
X031347Y019393D01*
X031382Y019407D01*
X031415Y019423D01*
X031447Y019442D01*
X031477Y019464D01*
X031505Y019489D01*
X031531Y019515D01*
X031554Y019544D01*
X031575Y019575D01*
X025475Y022625D02*
X025438Y022617D01*
X025403Y022607D01*
X025368Y022593D01*
X025335Y022577D01*
X025303Y022558D01*
X025273Y022536D01*
X025245Y022511D01*
X025219Y022485D01*
X025196Y022456D01*
X025175Y022425D01*
X017975Y022375D02*
X017938Y022367D01*
X017903Y022357D01*
X017868Y022343D01*
X017835Y022327D01*
X017803Y022308D01*
X017773Y022286D01*
X017745Y022261D01*
X017719Y022235D01*
X017696Y022206D01*
X017675Y022175D01*
X014725Y022375D02*
X014688Y022367D01*
X014653Y022357D01*
X014618Y022343D01*
X014585Y022327D01*
X014553Y022308D01*
X014523Y022286D01*
X014495Y022261D01*
X014469Y022235D01*
X014446Y022206D01*
X014425Y022175D01*
X012075Y018325D02*
X012054Y018294D01*
X012031Y018265D01*
X012005Y018239D01*
X011977Y018214D01*
X011947Y018192D01*
X011915Y018173D01*
X011882Y018157D01*
X011847Y018143D01*
X011812Y018133D01*
X011775Y018125D01*
X010975Y015875D02*
X010938Y015867D01*
X010903Y015857D01*
X010868Y015843D01*
X010835Y015827D01*
X010803Y015808D01*
X010773Y015786D01*
X010745Y015761D01*
X010719Y015735D01*
X010696Y015706D01*
X010675Y015675D01*
X009075Y012325D02*
X009054Y012294D01*
X009031Y012265D01*
X009005Y012239D01*
X008977Y012214D01*
X008947Y012192D01*
X008915Y012173D01*
X008882Y012157D01*
X008847Y012143D01*
X008812Y012133D01*
X008775Y012125D01*
X011775Y009925D02*
X011812Y009933D01*
X011847Y009943D01*
X011882Y009957D01*
X011915Y009973D01*
X011947Y009992D01*
X011977Y010014D01*
X012005Y010039D01*
X012031Y010065D01*
X012054Y010094D01*
X012075Y010125D01*
X006075Y010125D02*
X006054Y010094D01*
X006031Y010065D01*
X006005Y010039D01*
X005977Y010014D01*
X005947Y009992D01*
X005915Y009973D01*
X005882Y009957D01*
X005847Y009943D01*
X005812Y009933D01*
X005775Y009925D01*
X004675Y015675D02*
X004696Y015706D01*
X004719Y015735D01*
X004745Y015761D01*
X004773Y015786D01*
X004803Y015808D01*
X004835Y015827D01*
X004868Y015843D01*
X004903Y015857D01*
X004938Y015867D01*
X004975Y015875D01*
X005775Y017875D02*
X005812Y017883D01*
X005847Y017893D01*
X005882Y017907D01*
X005915Y017923D01*
X005947Y017942D01*
X005977Y017964D01*
X006005Y017989D01*
X006031Y018015D01*
X006054Y018044D01*
X006075Y018075D01*
X007675Y022175D02*
X007696Y022206D01*
X007719Y022235D01*
X007745Y022261D01*
X007773Y022286D01*
X007803Y022308D01*
X007835Y022327D01*
X007868Y022343D01*
X007903Y022357D01*
X007938Y022367D01*
X007975Y022375D01*
X015525Y016125D02*
X015562Y016133D01*
X015597Y016143D01*
X015632Y016157D01*
X015665Y016173D01*
X015697Y016192D01*
X015727Y016214D01*
X015755Y016239D01*
X015781Y016265D01*
X015804Y016294D01*
X015825Y016325D01*
D13*
X006225Y002625D02*
X006227Y002692D01*
X006233Y002760D01*
X006243Y002827D01*
X006257Y002893D01*
X006274Y002958D01*
X006296Y003022D01*
X006321Y003085D01*
X006350Y003146D01*
X006382Y003205D01*
X006418Y003262D01*
X006457Y003317D01*
X006499Y003370D01*
X006544Y003420D01*
X006592Y003467D01*
X006643Y003512D01*
X006696Y003553D01*
X006752Y003592D01*
X006810Y003627D01*
X006870Y003658D01*
X006931Y003686D01*
X006994Y003710D01*
X007058Y003731D01*
X007124Y003747D01*
X007190Y003760D01*
X007257Y003769D01*
X007324Y003774D01*
X007392Y003775D01*
X007459Y003772D01*
X007526Y003765D01*
X007593Y003754D01*
X007659Y003739D01*
X007724Y003721D01*
X007788Y003698D01*
X007850Y003672D01*
X007911Y003643D01*
X007969Y003609D01*
X008026Y003573D01*
X008081Y003533D01*
X008133Y003490D01*
X008182Y003444D01*
X008229Y003395D01*
X008273Y003344D01*
X008313Y003290D01*
X008351Y003234D01*
X008385Y003175D01*
X008415Y003115D01*
X008442Y003053D01*
X008466Y002990D01*
X008485Y002925D01*
X008501Y002860D01*
X008513Y002793D01*
X008521Y002726D01*
X008525Y002659D01*
X008525Y002591D01*
X008521Y002524D01*
X008513Y002457D01*
X008501Y002390D01*
X008485Y002325D01*
X008466Y002260D01*
X008442Y002197D01*
X008415Y002135D01*
X008385Y002075D01*
X008351Y002016D01*
X008313Y001960D01*
X008273Y001906D01*
X008229Y001855D01*
X008182Y001806D01*
X008133Y001760D01*
X008081Y001717D01*
X008026Y001677D01*
X007969Y001641D01*
X007911Y001607D01*
X007850Y001578D01*
X007788Y001552D01*
X007724Y001529D01*
X007659Y001511D01*
X007593Y001496D01*
X007526Y001485D01*
X007459Y001478D01*
X007392Y001475D01*
X007324Y001476D01*
X007257Y001481D01*
X007190Y001490D01*
X007124Y001503D01*
X007058Y001519D01*
X006994Y001540D01*
X006931Y001564D01*
X006870Y001592D01*
X006810Y001623D01*
X006752Y001658D01*
X006696Y001697D01*
X006643Y001738D01*
X006592Y001783D01*
X006544Y001830D01*
X006499Y001880D01*
X006457Y001933D01*
X006418Y001988D01*
X006382Y002045D01*
X006350Y002104D01*
X006321Y002165D01*
X006296Y002228D01*
X006274Y002292D01*
X006257Y002357D01*
X006243Y002423D01*
X006233Y002490D01*
X006227Y002558D01*
X006225Y002625D01*
X013225Y002625D02*
X013227Y002692D01*
X013233Y002760D01*
X013243Y002827D01*
X013257Y002893D01*
X013274Y002958D01*
X013296Y003022D01*
X013321Y003085D01*
X013350Y003146D01*
X013382Y003205D01*
X013418Y003262D01*
X013457Y003317D01*
X013499Y003370D01*
X013544Y003420D01*
X013592Y003467D01*
X013643Y003512D01*
X013696Y003553D01*
X013752Y003592D01*
X013810Y003627D01*
X013870Y003658D01*
X013931Y003686D01*
X013994Y003710D01*
X014058Y003731D01*
X014124Y003747D01*
X014190Y003760D01*
X014257Y003769D01*
X014324Y003774D01*
X014392Y003775D01*
X014459Y003772D01*
X014526Y003765D01*
X014593Y003754D01*
X014659Y003739D01*
X014724Y003721D01*
X014788Y003698D01*
X014850Y003672D01*
X014911Y003643D01*
X014969Y003609D01*
X015026Y003573D01*
X015081Y003533D01*
X015133Y003490D01*
X015182Y003444D01*
X015229Y003395D01*
X015273Y003344D01*
X015313Y003290D01*
X015351Y003234D01*
X015385Y003175D01*
X015415Y003115D01*
X015442Y003053D01*
X015466Y002990D01*
X015485Y002925D01*
X015501Y002860D01*
X015513Y002793D01*
X015521Y002726D01*
X015525Y002659D01*
X015525Y002591D01*
X015521Y002524D01*
X015513Y002457D01*
X015501Y002390D01*
X015485Y002325D01*
X015466Y002260D01*
X015442Y002197D01*
X015415Y002135D01*
X015385Y002075D01*
X015351Y002016D01*
X015313Y001960D01*
X015273Y001906D01*
X015229Y001855D01*
X015182Y001806D01*
X015133Y001760D01*
X015081Y001717D01*
X015026Y001677D01*
X014969Y001641D01*
X014911Y001607D01*
X014850Y001578D01*
X014788Y001552D01*
X014724Y001529D01*
X014659Y001511D01*
X014593Y001496D01*
X014526Y001485D01*
X014459Y001478D01*
X014392Y001475D01*
X014324Y001476D01*
X014257Y001481D01*
X014190Y001490D01*
X014124Y001503D01*
X014058Y001519D01*
X013994Y001540D01*
X013931Y001564D01*
X013870Y001592D01*
X013810Y001623D01*
X013752Y001658D01*
X013696Y001697D01*
X013643Y001738D01*
X013592Y001783D01*
X013544Y001830D01*
X013499Y001880D01*
X013457Y001933D01*
X013418Y001988D01*
X013382Y002045D01*
X013350Y002104D01*
X013321Y002165D01*
X013296Y002228D01*
X013274Y002292D01*
X013257Y002357D01*
X013243Y002423D01*
X013233Y002490D01*
X013227Y002558D01*
X013225Y002625D01*
X020225Y002625D02*
X020227Y002692D01*
X020233Y002760D01*
X020243Y002827D01*
X020257Y002893D01*
X020274Y002958D01*
X020296Y003022D01*
X020321Y003085D01*
X020350Y003146D01*
X020382Y003205D01*
X020418Y003262D01*
X020457Y003317D01*
X020499Y003370D01*
X020544Y003420D01*
X020592Y003467D01*
X020643Y003512D01*
X020696Y003553D01*
X020752Y003592D01*
X020810Y003627D01*
X020870Y003658D01*
X020931Y003686D01*
X020994Y003710D01*
X021058Y003731D01*
X021124Y003747D01*
X021190Y003760D01*
X021257Y003769D01*
X021324Y003774D01*
X021392Y003775D01*
X021459Y003772D01*
X021526Y003765D01*
X021593Y003754D01*
X021659Y003739D01*
X021724Y003721D01*
X021788Y003698D01*
X021850Y003672D01*
X021911Y003643D01*
X021969Y003609D01*
X022026Y003573D01*
X022081Y003533D01*
X022133Y003490D01*
X022182Y003444D01*
X022229Y003395D01*
X022273Y003344D01*
X022313Y003290D01*
X022351Y003234D01*
X022385Y003175D01*
X022415Y003115D01*
X022442Y003053D01*
X022466Y002990D01*
X022485Y002925D01*
X022501Y002860D01*
X022513Y002793D01*
X022521Y002726D01*
X022525Y002659D01*
X022525Y002591D01*
X022521Y002524D01*
X022513Y002457D01*
X022501Y002390D01*
X022485Y002325D01*
X022466Y002260D01*
X022442Y002197D01*
X022415Y002135D01*
X022385Y002075D01*
X022351Y002016D01*
X022313Y001960D01*
X022273Y001906D01*
X022229Y001855D01*
X022182Y001806D01*
X022133Y001760D01*
X022081Y001717D01*
X022026Y001677D01*
X021969Y001641D01*
X021911Y001607D01*
X021850Y001578D01*
X021788Y001552D01*
X021724Y001529D01*
X021659Y001511D01*
X021593Y001496D01*
X021526Y001485D01*
X021459Y001478D01*
X021392Y001475D01*
X021324Y001476D01*
X021257Y001481D01*
X021190Y001490D01*
X021124Y001503D01*
X021058Y001519D01*
X020994Y001540D01*
X020931Y001564D01*
X020870Y001592D01*
X020810Y001623D01*
X020752Y001658D01*
X020696Y001697D01*
X020643Y001738D01*
X020592Y001783D01*
X020544Y001830D01*
X020499Y001880D01*
X020457Y001933D01*
X020418Y001988D01*
X020382Y002045D01*
X020350Y002104D01*
X020321Y002165D01*
X020296Y002228D01*
X020274Y002292D01*
X020257Y002357D01*
X020243Y002423D01*
X020233Y002490D01*
X020227Y002558D01*
X020225Y002625D01*
X027225Y002625D02*
X027227Y002692D01*
X027233Y002760D01*
X027243Y002827D01*
X027257Y002893D01*
X027274Y002958D01*
X027296Y003022D01*
X027321Y003085D01*
X027350Y003146D01*
X027382Y003205D01*
X027418Y003262D01*
X027457Y003317D01*
X027499Y003370D01*
X027544Y003420D01*
X027592Y003467D01*
X027643Y003512D01*
X027696Y003553D01*
X027752Y003592D01*
X027810Y003627D01*
X027870Y003658D01*
X027931Y003686D01*
X027994Y003710D01*
X028058Y003731D01*
X028124Y003747D01*
X028190Y003760D01*
X028257Y003769D01*
X028324Y003774D01*
X028392Y003775D01*
X028459Y003772D01*
X028526Y003765D01*
X028593Y003754D01*
X028659Y003739D01*
X028724Y003721D01*
X028788Y003698D01*
X028850Y003672D01*
X028911Y003643D01*
X028969Y003609D01*
X029026Y003573D01*
X029081Y003533D01*
X029133Y003490D01*
X029182Y003444D01*
X029229Y003395D01*
X029273Y003344D01*
X029313Y003290D01*
X029351Y003234D01*
X029385Y003175D01*
X029415Y003115D01*
X029442Y003053D01*
X029466Y002990D01*
X029485Y002925D01*
X029501Y002860D01*
X029513Y002793D01*
X029521Y002726D01*
X029525Y002659D01*
X029525Y002591D01*
X029521Y002524D01*
X029513Y002457D01*
X029501Y002390D01*
X029485Y002325D01*
X029466Y002260D01*
X029442Y002197D01*
X029415Y002135D01*
X029385Y002075D01*
X029351Y002016D01*
X029313Y001960D01*
X029273Y001906D01*
X029229Y001855D01*
X029182Y001806D01*
X029133Y001760D01*
X029081Y001717D01*
X029026Y001677D01*
X028969Y001641D01*
X028911Y001607D01*
X028850Y001578D01*
X028788Y001552D01*
X028724Y001529D01*
X028659Y001511D01*
X028593Y001496D01*
X028526Y001485D01*
X028459Y001478D01*
X028392Y001475D01*
X028324Y001476D01*
X028257Y001481D01*
X028190Y001490D01*
X028124Y001503D01*
X028058Y001519D01*
X027994Y001540D01*
X027931Y001564D01*
X027870Y001592D01*
X027810Y001623D01*
X027752Y001658D01*
X027696Y001697D01*
X027643Y001738D01*
X027592Y001783D01*
X027544Y001830D01*
X027499Y001880D01*
X027457Y001933D01*
X027418Y001988D01*
X027382Y002045D01*
X027350Y002104D01*
X027321Y002165D01*
X027296Y002228D01*
X027274Y002292D01*
X027257Y002357D01*
X027243Y002423D01*
X027233Y002490D01*
X027227Y002558D01*
X027225Y002625D01*
X027225Y026125D02*
X027227Y026192D01*
X027233Y026260D01*
X027243Y026327D01*
X027257Y026393D01*
X027274Y026458D01*
X027296Y026522D01*
X027321Y026585D01*
X027350Y026646D01*
X027382Y026705D01*
X027418Y026762D01*
X027457Y026817D01*
X027499Y026870D01*
X027544Y026920D01*
X027592Y026967D01*
X027643Y027012D01*
X027696Y027053D01*
X027752Y027092D01*
X027810Y027127D01*
X027870Y027158D01*
X027931Y027186D01*
X027994Y027210D01*
X028058Y027231D01*
X028124Y027247D01*
X028190Y027260D01*
X028257Y027269D01*
X028324Y027274D01*
X028392Y027275D01*
X028459Y027272D01*
X028526Y027265D01*
X028593Y027254D01*
X028659Y027239D01*
X028724Y027221D01*
X028788Y027198D01*
X028850Y027172D01*
X028911Y027143D01*
X028969Y027109D01*
X029026Y027073D01*
X029081Y027033D01*
X029133Y026990D01*
X029182Y026944D01*
X029229Y026895D01*
X029273Y026844D01*
X029313Y026790D01*
X029351Y026734D01*
X029385Y026675D01*
X029415Y026615D01*
X029442Y026553D01*
X029466Y026490D01*
X029485Y026425D01*
X029501Y026360D01*
X029513Y026293D01*
X029521Y026226D01*
X029525Y026159D01*
X029525Y026091D01*
X029521Y026024D01*
X029513Y025957D01*
X029501Y025890D01*
X029485Y025825D01*
X029466Y025760D01*
X029442Y025697D01*
X029415Y025635D01*
X029385Y025575D01*
X029351Y025516D01*
X029313Y025460D01*
X029273Y025406D01*
X029229Y025355D01*
X029182Y025306D01*
X029133Y025260D01*
X029081Y025217D01*
X029026Y025177D01*
X028969Y025141D01*
X028911Y025107D01*
X028850Y025078D01*
X028788Y025052D01*
X028724Y025029D01*
X028659Y025011D01*
X028593Y024996D01*
X028526Y024985D01*
X028459Y024978D01*
X028392Y024975D01*
X028324Y024976D01*
X028257Y024981D01*
X028190Y024990D01*
X028124Y025003D01*
X028058Y025019D01*
X027994Y025040D01*
X027931Y025064D01*
X027870Y025092D01*
X027810Y025123D01*
X027752Y025158D01*
X027696Y025197D01*
X027643Y025238D01*
X027592Y025283D01*
X027544Y025330D01*
X027499Y025380D01*
X027457Y025433D01*
X027418Y025488D01*
X027382Y025545D01*
X027350Y025604D01*
X027321Y025665D01*
X027296Y025728D01*
X027274Y025792D01*
X027257Y025857D01*
X027243Y025923D01*
X027233Y025990D01*
X027227Y026058D01*
X027225Y026125D01*
X020225Y026125D02*
X020227Y026192D01*
X020233Y026260D01*
X020243Y026327D01*
X020257Y026393D01*
X020274Y026458D01*
X020296Y026522D01*
X020321Y026585D01*
X020350Y026646D01*
X020382Y026705D01*
X020418Y026762D01*
X020457Y026817D01*
X020499Y026870D01*
X020544Y026920D01*
X020592Y026967D01*
X020643Y027012D01*
X020696Y027053D01*
X020752Y027092D01*
X020810Y027127D01*
X020870Y027158D01*
X020931Y027186D01*
X020994Y027210D01*
X021058Y027231D01*
X021124Y027247D01*
X021190Y027260D01*
X021257Y027269D01*
X021324Y027274D01*
X021392Y027275D01*
X021459Y027272D01*
X021526Y027265D01*
X021593Y027254D01*
X021659Y027239D01*
X021724Y027221D01*
X021788Y027198D01*
X021850Y027172D01*
X021911Y027143D01*
X021969Y027109D01*
X022026Y027073D01*
X022081Y027033D01*
X022133Y026990D01*
X022182Y026944D01*
X022229Y026895D01*
X022273Y026844D01*
X022313Y026790D01*
X022351Y026734D01*
X022385Y026675D01*
X022415Y026615D01*
X022442Y026553D01*
X022466Y026490D01*
X022485Y026425D01*
X022501Y026360D01*
X022513Y026293D01*
X022521Y026226D01*
X022525Y026159D01*
X022525Y026091D01*
X022521Y026024D01*
X022513Y025957D01*
X022501Y025890D01*
X022485Y025825D01*
X022466Y025760D01*
X022442Y025697D01*
X022415Y025635D01*
X022385Y025575D01*
X022351Y025516D01*
X022313Y025460D01*
X022273Y025406D01*
X022229Y025355D01*
X022182Y025306D01*
X022133Y025260D01*
X022081Y025217D01*
X022026Y025177D01*
X021969Y025141D01*
X021911Y025107D01*
X021850Y025078D01*
X021788Y025052D01*
X021724Y025029D01*
X021659Y025011D01*
X021593Y024996D01*
X021526Y024985D01*
X021459Y024978D01*
X021392Y024975D01*
X021324Y024976D01*
X021257Y024981D01*
X021190Y024990D01*
X021124Y025003D01*
X021058Y025019D01*
X020994Y025040D01*
X020931Y025064D01*
X020870Y025092D01*
X020810Y025123D01*
X020752Y025158D01*
X020696Y025197D01*
X020643Y025238D01*
X020592Y025283D01*
X020544Y025330D01*
X020499Y025380D01*
X020457Y025433D01*
X020418Y025488D01*
X020382Y025545D01*
X020350Y025604D01*
X020321Y025665D01*
X020296Y025728D01*
X020274Y025792D01*
X020257Y025857D01*
X020243Y025923D01*
X020233Y025990D01*
X020227Y026058D01*
X020225Y026125D01*
X013225Y026125D02*
X013227Y026192D01*
X013233Y026260D01*
X013243Y026327D01*
X013257Y026393D01*
X013274Y026458D01*
X013296Y026522D01*
X013321Y026585D01*
X013350Y026646D01*
X013382Y026705D01*
X013418Y026762D01*
X013457Y026817D01*
X013499Y026870D01*
X013544Y026920D01*
X013592Y026967D01*
X013643Y027012D01*
X013696Y027053D01*
X013752Y027092D01*
X013810Y027127D01*
X013870Y027158D01*
X013931Y027186D01*
X013994Y027210D01*
X014058Y027231D01*
X014124Y027247D01*
X014190Y027260D01*
X014257Y027269D01*
X014324Y027274D01*
X014392Y027275D01*
X014459Y027272D01*
X014526Y027265D01*
X014593Y027254D01*
X014659Y027239D01*
X014724Y027221D01*
X014788Y027198D01*
X014850Y027172D01*
X014911Y027143D01*
X014969Y027109D01*
X015026Y027073D01*
X015081Y027033D01*
X015133Y026990D01*
X015182Y026944D01*
X015229Y026895D01*
X015273Y026844D01*
X015313Y026790D01*
X015351Y026734D01*
X015385Y026675D01*
X015415Y026615D01*
X015442Y026553D01*
X015466Y026490D01*
X015485Y026425D01*
X015501Y026360D01*
X015513Y026293D01*
X015521Y026226D01*
X015525Y026159D01*
X015525Y026091D01*
X015521Y026024D01*
X015513Y025957D01*
X015501Y025890D01*
X015485Y025825D01*
X015466Y025760D01*
X015442Y025697D01*
X015415Y025635D01*
X015385Y025575D01*
X015351Y025516D01*
X015313Y025460D01*
X015273Y025406D01*
X015229Y025355D01*
X015182Y025306D01*
X015133Y025260D01*
X015081Y025217D01*
X015026Y025177D01*
X014969Y025141D01*
X014911Y025107D01*
X014850Y025078D01*
X014788Y025052D01*
X014724Y025029D01*
X014659Y025011D01*
X014593Y024996D01*
X014526Y024985D01*
X014459Y024978D01*
X014392Y024975D01*
X014324Y024976D01*
X014257Y024981D01*
X014190Y024990D01*
X014124Y025003D01*
X014058Y025019D01*
X013994Y025040D01*
X013931Y025064D01*
X013870Y025092D01*
X013810Y025123D01*
X013752Y025158D01*
X013696Y025197D01*
X013643Y025238D01*
X013592Y025283D01*
X013544Y025330D01*
X013499Y025380D01*
X013457Y025433D01*
X013418Y025488D01*
X013382Y025545D01*
X013350Y025604D01*
X013321Y025665D01*
X013296Y025728D01*
X013274Y025792D01*
X013257Y025857D01*
X013243Y025923D01*
X013233Y025990D01*
X013227Y026058D01*
X013225Y026125D01*
X006225Y026125D02*
X006227Y026192D01*
X006233Y026260D01*
X006243Y026327D01*
X006257Y026393D01*
X006274Y026458D01*
X006296Y026522D01*
X006321Y026585D01*
X006350Y026646D01*
X006382Y026705D01*
X006418Y026762D01*
X006457Y026817D01*
X006499Y026870D01*
X006544Y026920D01*
X006592Y026967D01*
X006643Y027012D01*
X006696Y027053D01*
X006752Y027092D01*
X006810Y027127D01*
X006870Y027158D01*
X006931Y027186D01*
X006994Y027210D01*
X007058Y027231D01*
X007124Y027247D01*
X007190Y027260D01*
X007257Y027269D01*
X007324Y027274D01*
X007392Y027275D01*
X007459Y027272D01*
X007526Y027265D01*
X007593Y027254D01*
X007659Y027239D01*
X007724Y027221D01*
X007788Y027198D01*
X007850Y027172D01*
X007911Y027143D01*
X007969Y027109D01*
X008026Y027073D01*
X008081Y027033D01*
X008133Y026990D01*
X008182Y026944D01*
X008229Y026895D01*
X008273Y026844D01*
X008313Y026790D01*
X008351Y026734D01*
X008385Y026675D01*
X008415Y026615D01*
X008442Y026553D01*
X008466Y026490D01*
X008485Y026425D01*
X008501Y026360D01*
X008513Y026293D01*
X008521Y026226D01*
X008525Y026159D01*
X008525Y026091D01*
X008521Y026024D01*
X008513Y025957D01*
X008501Y025890D01*
X008485Y025825D01*
X008466Y025760D01*
X008442Y025697D01*
X008415Y025635D01*
X008385Y025575D01*
X008351Y025516D01*
X008313Y025460D01*
X008273Y025406D01*
X008229Y025355D01*
X008182Y025306D01*
X008133Y025260D01*
X008081Y025217D01*
X008026Y025177D01*
X007969Y025141D01*
X007911Y025107D01*
X007850Y025078D01*
X007788Y025052D01*
X007724Y025029D01*
X007659Y025011D01*
X007593Y024996D01*
X007526Y024985D01*
X007459Y024978D01*
X007392Y024975D01*
X007324Y024976D01*
X007257Y024981D01*
X007190Y024990D01*
X007124Y025003D01*
X007058Y025019D01*
X006994Y025040D01*
X006931Y025064D01*
X006870Y025092D01*
X006810Y025123D01*
X006752Y025158D01*
X006696Y025197D01*
X006643Y025238D01*
X006592Y025283D01*
X006544Y025330D01*
X006499Y025380D01*
X006457Y025433D01*
X006418Y025488D01*
X006382Y025545D01*
X006350Y025604D01*
X006321Y025665D01*
X006296Y025728D01*
X006274Y025792D01*
X006257Y025857D01*
X006243Y025923D01*
X006233Y025990D01*
X006227Y026058D01*
X006225Y026125D01*
M02*
