G75*
%MOIN*%
%OFA0B0*%
%FSLAX24Y24*%
%IPPOS*%
%LPD*%
%AMOC8*
5,1,8,0,0,1.08239X$1,22.5*
%
%ADD10C,0.0820*%
%ADD11C,0.0740*%
%ADD12C,0.1380*%
%ADD13C,0.2280*%
%ADD14R,0.0820X0.0820*%
D10*
X005225Y004275D03*
X008225Y004275D03*
X011225Y004275D03*
X014975Y004575D03*
X011225Y008275D03*
X011225Y009775D03*
X011225Y010775D03*
X011225Y011775D03*
X011225Y013725D03*
X011225Y014725D03*
X011225Y015725D03*
X011225Y017975D03*
X011225Y018975D03*
X011225Y019975D03*
X008225Y020225D03*
X008225Y021225D03*
X008225Y022225D03*
X005225Y019725D03*
X005225Y018725D03*
X005225Y017725D03*
X005225Y015725D03*
X005225Y014725D03*
X005225Y013725D03*
X005225Y011775D03*
X005225Y010775D03*
X005225Y009775D03*
X005225Y008275D03*
X008225Y008275D03*
X008225Y011975D03*
X008225Y012975D03*
X008225Y013975D03*
X014975Y015975D03*
X014975Y016975D03*
X014975Y017975D03*
X014975Y020225D03*
X014975Y021225D03*
X014975Y022225D03*
X018225Y022225D03*
X018225Y021225D03*
X018225Y020225D03*
X018225Y018975D03*
X022975Y018475D03*
X022975Y017225D03*
X025725Y016725D03*
X025725Y017725D03*
X025725Y018725D03*
X025725Y020475D03*
X025725Y021475D03*
X025725Y022475D03*
X022975Y022475D03*
X030725Y021225D03*
X030725Y020225D03*
X030725Y019225D03*
X030725Y017975D03*
X032975Y015725D03*
X033975Y015725D03*
X033975Y014725D03*
X032975Y014725D03*
X032975Y013725D03*
X033975Y013725D03*
X032975Y012725D03*
X030725Y012725D03*
X030725Y013975D03*
X028225Y014225D03*
X028225Y015225D03*
X028225Y013225D03*
X025725Y012225D03*
X025725Y011225D03*
X025725Y010225D03*
X025725Y008475D03*
X022975Y008475D03*
X022975Y010225D03*
X022975Y011225D03*
X022975Y012225D03*
X022975Y013225D03*
X018225Y014975D03*
X018225Y010725D03*
X018225Y009725D03*
X018225Y008725D03*
X020725Y007275D03*
X020725Y006275D03*
X020725Y005275D03*
X022975Y004475D03*
X025725Y004475D03*
X030725Y005475D03*
X030725Y006475D03*
X030725Y007475D03*
X030725Y008725D03*
X014975Y008575D03*
D11*
X020725Y017725D03*
X020725Y018725D03*
D12*
X001225Y001225D03*
X001225Y027225D03*
X034225Y027225D03*
X034225Y001225D03*
D13*
X028225Y002475D03*
X021225Y002475D03*
X014225Y002475D03*
X007225Y002475D03*
X007225Y025975D03*
X014225Y025975D03*
X021225Y025975D03*
X028225Y025975D03*
D14*
X033975Y012725D03*
M02*
