%
M48
M72
T01C0.0200
T02C0.0320
T03C0.0354
T04C0.0400
T05C0.1300
T06C0.1660
%
T01
X15975Y9975
X20975Y11775
X20475Y13975
X16475Y15975
X29725Y11725
X29975Y14225
X33475Y10975
X34725Y4225
T02
X30725Y5475
X30725Y6475
X30725Y7475
X25725Y10225
X25725Y11225
X25725Y12225
X28225Y13225
X28225Y14225
X28225Y15225
X25725Y16725
X25725Y17725
X25725Y18725
X25725Y20475
X25725Y21475
X25725Y22475
X30725Y21225
X30725Y20225
X30725Y19225
X22975Y12225
X22975Y11225
X22975Y10225
X20725Y7275
X20725Y6275
X20725Y5275
X18225Y8725
X18225Y9725
X18225Y10725
X14975Y15975
X14975Y16975
X14975Y17975
X14975Y20225
X14975Y21225
X14975Y22225
X18225Y22225
X18225Y21225
X18225Y20225
X20725Y18725
X20725Y17725
X11225Y17975
X11225Y18975
X11225Y19975
X8225Y20225
X8225Y21225
X8225Y22225
X5225Y19725
X5225Y18725
X5225Y17725
X5225Y15725
X5225Y14725
X5225Y13725
X5225Y11775
X5225Y10775
X5225Y9775
X8225Y11975
X8225Y12975
X8225Y13975
X11225Y13725
X11225Y14725
X11225Y15725
X11225Y11775
X11225Y10775
X11225Y9775
T03
X11225Y8275
X8225Y8275
X5225Y8275
X5225Y4275
X8225Y4275
X11225Y4275
X14975Y4575
X14975Y8575
X18225Y14975
X22975Y13225
X22975Y17225
X22975Y18475
X18225Y18975
X22975Y22475
X30725Y17975
X30725Y13975
X30725Y12725
X30725Y8725
X25725Y8475
X22975Y8475
X22975Y4475
X25725Y4475
T04
X32975Y12725
X33975Y12725
X33975Y13725
X32975Y13725
X32975Y14725
X33975Y14725
X33975Y15725
X32975Y15725
T05
X1225Y1225
X1225Y27225
X34225Y27225
X34225Y1225
T06
X28225Y2475
X21225Y2475
X14225Y2475
X7225Y2475
X7225Y25975
X14225Y25975
X21225Y25975
X28225Y25975
M30
