%
M48
M72
T01C0.0200
T02C0.0320
T03C0.0354
T04C0.0400
T05C0.1300
T06C0.1660
%
T01
X16125Y10125
X21125Y11925
X20625Y14125
X16625Y16125
X28375Y7125
X33625Y11125
X29875Y11875
X30125Y14375
X34875Y4375
T02
X30875Y5625
X30875Y6625
X30875Y7625
X25875Y10375
X25875Y11375
X25875Y12375
X28375Y13375
X28375Y14375
X28375Y15375
X25875Y16875
X25875Y17875
X25875Y18875
X25875Y20625
X25875Y21625
X25875Y22625
X30875Y21375
X30875Y20375
X30875Y19375
X23125Y12375
X23125Y11375
X23125Y10375
X20875Y7425
X20875Y6425
X20875Y5425
X18375Y8875
X18375Y9875
X18375Y10875
X15125Y16125
X15125Y17125
X15125Y18125
X15125Y20375
X15125Y21375
X15125Y22375
X18375Y22375
X18375Y21375
X18375Y20375
X20875Y18875
X20875Y17875
X11375Y18125
X11375Y19125
X11375Y20125
X8375Y20375
X8375Y21375
X8375Y22375
X5375Y19875
X5375Y18875
X5375Y17875
X5375Y15875
X5375Y14875
X5375Y13875
X5375Y11925
X5375Y10925
X5375Y9925
X8375Y12125
X8375Y13125
X8375Y14125
X11375Y13875
X11375Y14875
X11375Y15875
X11375Y11925
X11375Y10925
X11375Y9925
T03
X11375Y8425
X8375Y8425
X5375Y8425
X5375Y4425
X8375Y4425
X11375Y4425
X15125Y4725
X15125Y8725
X18375Y15125
X23125Y13375
X23125Y17375
X23125Y18625
X18375Y19125
X23125Y22625
X30875Y18125
X30875Y14125
X30875Y12875
X30875Y8875
X25875Y8625
X23125Y8625
X23125Y4625
X25875Y4625
T04
X33125Y12875
X34125Y12875
X34125Y13875
X34125Y14875
X33125Y14875
X33125Y13875
X33125Y15875
X34125Y15875
T05
X1375Y1375
X1375Y27375
X34375Y27375
X34375Y1375
T06
X28375Y2625
X21375Y2625
X14375Y2625
X7375Y2625
X7375Y26125
X14375Y26125
X21375Y26125
X28375Y26125
M30
