G75*
%MOIN*%
%OFA0B0*%
%FSLAX24Y24*%
%IPPOS*%
%LPD*%
%AMOC8*
5,1,8,0,0,1.08239X$1,22.5*
%
%ADD10C,0.0070*%
%ADD11C,0.0040*%
%ADD12C,0.0050*%
D10*
X014107Y013010D02*
X014107Y013325D01*
X014212Y013430D01*
X014528Y013430D01*
X014528Y013010D01*
X014752Y013010D02*
X014752Y013430D01*
X015172Y013430D02*
X015172Y013115D01*
X015067Y013010D01*
X014752Y013010D01*
X015396Y013641D02*
X015817Y013641D01*
X015817Y013010D01*
X016041Y013010D02*
X016356Y013010D01*
X016461Y013115D01*
X016461Y013430D01*
X016681Y013430D02*
X016891Y013430D01*
X016786Y013535D02*
X016786Y013115D01*
X016681Y013010D01*
X016251Y012800D02*
X016146Y012800D01*
X016041Y012905D01*
X016041Y013430D01*
X015817Y013325D02*
X015607Y013325D01*
X017113Y013430D02*
X017218Y013430D01*
X017428Y013220D01*
X017428Y013010D02*
X017428Y013430D01*
X017652Y013325D02*
X017757Y013430D01*
X017968Y013430D01*
X018073Y013325D01*
X018073Y013115D01*
X017968Y013010D01*
X017757Y013010D01*
X017652Y013115D01*
X017652Y013325D01*
X018297Y013641D02*
X018717Y013641D01*
X018717Y013010D01*
X018941Y013010D02*
X018941Y013325D01*
X019047Y013430D01*
X019362Y013430D01*
X019362Y013010D01*
X019586Y013220D02*
X020006Y013220D01*
X020006Y013115D02*
X020006Y013325D01*
X019901Y013430D01*
X019691Y013430D01*
X019586Y013325D01*
X019586Y013220D01*
X019691Y013010D02*
X019901Y013010D01*
X020006Y013115D01*
X020231Y013430D02*
X020441Y013010D01*
X020651Y013430D01*
X020875Y013325D02*
X020875Y013220D01*
X021295Y013220D01*
X021295Y013115D02*
X021295Y013325D01*
X021190Y013430D01*
X020980Y013430D01*
X020875Y013325D01*
X020980Y013010D02*
X021190Y013010D01*
X021295Y013115D01*
X021520Y013115D02*
X021625Y013010D01*
X021835Y013010D01*
X021940Y013115D01*
X021835Y013325D02*
X021625Y013325D01*
X021520Y013220D01*
X021520Y013115D01*
X021835Y013325D02*
X021940Y013430D01*
X021940Y013535D01*
X021835Y013641D01*
X021625Y013641D01*
X021520Y013535D01*
X018717Y013325D02*
X018507Y013325D01*
D11*
X018254Y012605D02*
X018254Y012245D01*
X018074Y012245D01*
X018014Y012305D01*
X018014Y012425D01*
X018074Y012485D01*
X018254Y012485D01*
X018382Y012425D02*
X018442Y012485D01*
X018562Y012485D01*
X018622Y012425D01*
X018622Y012305D01*
X018562Y012245D01*
X018442Y012245D01*
X018382Y012305D01*
X018382Y012425D01*
X018749Y012485D02*
X018809Y012485D01*
X018929Y012365D01*
X018929Y012245D02*
X018929Y012485D01*
X019057Y012485D02*
X019238Y012485D01*
X019298Y012425D01*
X019298Y012305D01*
X019238Y012245D01*
X019057Y012245D01*
X019426Y012245D02*
X019606Y012245D01*
X019666Y012305D01*
X019606Y012365D01*
X019426Y012365D01*
X019426Y012425D02*
X019426Y012245D01*
X019426Y012425D02*
X019486Y012485D01*
X019606Y012485D01*
X019790Y012305D02*
X019790Y012245D01*
X019850Y012245D01*
X019850Y012305D01*
X019790Y012305D01*
X019978Y012305D02*
X019978Y012485D01*
X019978Y012305D02*
X020038Y012245D01*
X020098Y012305D01*
X020158Y012245D01*
X020218Y012305D01*
X020218Y012485D01*
X020346Y012485D02*
X020346Y012305D01*
X020407Y012245D01*
X020467Y012305D01*
X020527Y012245D01*
X020587Y012305D01*
X020587Y012485D01*
X020715Y012485D02*
X020715Y012305D01*
X020775Y012245D01*
X020835Y012305D01*
X020895Y012245D01*
X020955Y012305D01*
X020955Y012485D01*
X017886Y012425D02*
X017886Y012305D01*
X017826Y012245D01*
X017706Y012245D01*
X017646Y012305D01*
X017646Y012425D01*
X017706Y012485D01*
X017826Y012485D01*
X017886Y012425D01*
X017517Y012485D02*
X017397Y012485D01*
X017457Y012545D02*
X017457Y012305D01*
X017397Y012245D01*
X017272Y012245D02*
X017152Y012245D01*
X017212Y012245D02*
X017212Y012485D01*
X017272Y012485D01*
X017212Y012605D02*
X017212Y012665D01*
X017026Y012425D02*
X016966Y012485D01*
X016786Y012485D01*
X016658Y012305D02*
X016598Y012305D01*
X016598Y012245D01*
X016658Y012245D01*
X016658Y012305D01*
X016786Y012245D02*
X016966Y012245D01*
X017026Y012305D01*
X017026Y012425D01*
X016474Y012425D02*
X016474Y012305D01*
X016414Y012245D01*
X016234Y012245D01*
X016106Y012305D02*
X016045Y012245D01*
X015925Y012245D01*
X015865Y012305D01*
X015865Y012425D01*
X015925Y012485D01*
X016045Y012485D01*
X016106Y012425D01*
X016106Y012305D01*
X016234Y012485D02*
X016414Y012485D01*
X016474Y012425D01*
X015737Y012485D02*
X015677Y012485D01*
X015617Y012425D01*
X015557Y012485D01*
X015497Y012425D01*
X015497Y012245D01*
X015617Y012245D02*
X015617Y012425D01*
X015737Y012485D02*
X015737Y012245D01*
D12*
X006075Y002475D02*
X006077Y002542D01*
X006083Y002610D01*
X006093Y002677D01*
X006107Y002743D01*
X006124Y002808D01*
X006146Y002872D01*
X006171Y002935D01*
X006200Y002996D01*
X006232Y003055D01*
X006268Y003112D01*
X006307Y003167D01*
X006349Y003220D01*
X006394Y003270D01*
X006442Y003317D01*
X006493Y003362D01*
X006546Y003403D01*
X006602Y003442D01*
X006660Y003477D01*
X006720Y003508D01*
X006781Y003536D01*
X006844Y003560D01*
X006908Y003581D01*
X006974Y003597D01*
X007040Y003610D01*
X007107Y003619D01*
X007174Y003624D01*
X007242Y003625D01*
X007309Y003622D01*
X007376Y003615D01*
X007443Y003604D01*
X007509Y003589D01*
X007574Y003571D01*
X007638Y003548D01*
X007700Y003522D01*
X007761Y003493D01*
X007819Y003459D01*
X007876Y003423D01*
X007931Y003383D01*
X007983Y003340D01*
X008032Y003294D01*
X008079Y003245D01*
X008123Y003194D01*
X008163Y003140D01*
X008201Y003084D01*
X008235Y003025D01*
X008265Y002965D01*
X008292Y002903D01*
X008316Y002840D01*
X008335Y002775D01*
X008351Y002710D01*
X008363Y002643D01*
X008371Y002576D01*
X008375Y002509D01*
X008375Y002441D01*
X008371Y002374D01*
X008363Y002307D01*
X008351Y002240D01*
X008335Y002175D01*
X008316Y002110D01*
X008292Y002047D01*
X008265Y001985D01*
X008235Y001925D01*
X008201Y001866D01*
X008163Y001810D01*
X008123Y001756D01*
X008079Y001705D01*
X008032Y001656D01*
X007983Y001610D01*
X007931Y001567D01*
X007876Y001527D01*
X007819Y001491D01*
X007761Y001457D01*
X007700Y001428D01*
X007638Y001402D01*
X007574Y001379D01*
X007509Y001361D01*
X007443Y001346D01*
X007376Y001335D01*
X007309Y001328D01*
X007242Y001325D01*
X007174Y001326D01*
X007107Y001331D01*
X007040Y001340D01*
X006974Y001353D01*
X006908Y001369D01*
X006844Y001390D01*
X006781Y001414D01*
X006720Y001442D01*
X006660Y001473D01*
X006602Y001508D01*
X006546Y001547D01*
X006493Y001588D01*
X006442Y001633D01*
X006394Y001680D01*
X006349Y001730D01*
X006307Y001783D01*
X006268Y001838D01*
X006232Y001895D01*
X006200Y001954D01*
X006171Y002015D01*
X006146Y002078D01*
X006124Y002142D01*
X006107Y002207D01*
X006093Y002273D01*
X006083Y002340D01*
X006077Y002408D01*
X006075Y002475D01*
X013075Y002475D02*
X013077Y002542D01*
X013083Y002610D01*
X013093Y002677D01*
X013107Y002743D01*
X013124Y002808D01*
X013146Y002872D01*
X013171Y002935D01*
X013200Y002996D01*
X013232Y003055D01*
X013268Y003112D01*
X013307Y003167D01*
X013349Y003220D01*
X013394Y003270D01*
X013442Y003317D01*
X013493Y003362D01*
X013546Y003403D01*
X013602Y003442D01*
X013660Y003477D01*
X013720Y003508D01*
X013781Y003536D01*
X013844Y003560D01*
X013908Y003581D01*
X013974Y003597D01*
X014040Y003610D01*
X014107Y003619D01*
X014174Y003624D01*
X014242Y003625D01*
X014309Y003622D01*
X014376Y003615D01*
X014443Y003604D01*
X014509Y003589D01*
X014574Y003571D01*
X014638Y003548D01*
X014700Y003522D01*
X014761Y003493D01*
X014819Y003459D01*
X014876Y003423D01*
X014931Y003383D01*
X014983Y003340D01*
X015032Y003294D01*
X015079Y003245D01*
X015123Y003194D01*
X015163Y003140D01*
X015201Y003084D01*
X015235Y003025D01*
X015265Y002965D01*
X015292Y002903D01*
X015316Y002840D01*
X015335Y002775D01*
X015351Y002710D01*
X015363Y002643D01*
X015371Y002576D01*
X015375Y002509D01*
X015375Y002441D01*
X015371Y002374D01*
X015363Y002307D01*
X015351Y002240D01*
X015335Y002175D01*
X015316Y002110D01*
X015292Y002047D01*
X015265Y001985D01*
X015235Y001925D01*
X015201Y001866D01*
X015163Y001810D01*
X015123Y001756D01*
X015079Y001705D01*
X015032Y001656D01*
X014983Y001610D01*
X014931Y001567D01*
X014876Y001527D01*
X014819Y001491D01*
X014761Y001457D01*
X014700Y001428D01*
X014638Y001402D01*
X014574Y001379D01*
X014509Y001361D01*
X014443Y001346D01*
X014376Y001335D01*
X014309Y001328D01*
X014242Y001325D01*
X014174Y001326D01*
X014107Y001331D01*
X014040Y001340D01*
X013974Y001353D01*
X013908Y001369D01*
X013844Y001390D01*
X013781Y001414D01*
X013720Y001442D01*
X013660Y001473D01*
X013602Y001508D01*
X013546Y001547D01*
X013493Y001588D01*
X013442Y001633D01*
X013394Y001680D01*
X013349Y001730D01*
X013307Y001783D01*
X013268Y001838D01*
X013232Y001895D01*
X013200Y001954D01*
X013171Y002015D01*
X013146Y002078D01*
X013124Y002142D01*
X013107Y002207D01*
X013093Y002273D01*
X013083Y002340D01*
X013077Y002408D01*
X013075Y002475D01*
X020075Y002475D02*
X020077Y002542D01*
X020083Y002610D01*
X020093Y002677D01*
X020107Y002743D01*
X020124Y002808D01*
X020146Y002872D01*
X020171Y002935D01*
X020200Y002996D01*
X020232Y003055D01*
X020268Y003112D01*
X020307Y003167D01*
X020349Y003220D01*
X020394Y003270D01*
X020442Y003317D01*
X020493Y003362D01*
X020546Y003403D01*
X020602Y003442D01*
X020660Y003477D01*
X020720Y003508D01*
X020781Y003536D01*
X020844Y003560D01*
X020908Y003581D01*
X020974Y003597D01*
X021040Y003610D01*
X021107Y003619D01*
X021174Y003624D01*
X021242Y003625D01*
X021309Y003622D01*
X021376Y003615D01*
X021443Y003604D01*
X021509Y003589D01*
X021574Y003571D01*
X021638Y003548D01*
X021700Y003522D01*
X021761Y003493D01*
X021819Y003459D01*
X021876Y003423D01*
X021931Y003383D01*
X021983Y003340D01*
X022032Y003294D01*
X022079Y003245D01*
X022123Y003194D01*
X022163Y003140D01*
X022201Y003084D01*
X022235Y003025D01*
X022265Y002965D01*
X022292Y002903D01*
X022316Y002840D01*
X022335Y002775D01*
X022351Y002710D01*
X022363Y002643D01*
X022371Y002576D01*
X022375Y002509D01*
X022375Y002441D01*
X022371Y002374D01*
X022363Y002307D01*
X022351Y002240D01*
X022335Y002175D01*
X022316Y002110D01*
X022292Y002047D01*
X022265Y001985D01*
X022235Y001925D01*
X022201Y001866D01*
X022163Y001810D01*
X022123Y001756D01*
X022079Y001705D01*
X022032Y001656D01*
X021983Y001610D01*
X021931Y001567D01*
X021876Y001527D01*
X021819Y001491D01*
X021761Y001457D01*
X021700Y001428D01*
X021638Y001402D01*
X021574Y001379D01*
X021509Y001361D01*
X021443Y001346D01*
X021376Y001335D01*
X021309Y001328D01*
X021242Y001325D01*
X021174Y001326D01*
X021107Y001331D01*
X021040Y001340D01*
X020974Y001353D01*
X020908Y001369D01*
X020844Y001390D01*
X020781Y001414D01*
X020720Y001442D01*
X020660Y001473D01*
X020602Y001508D01*
X020546Y001547D01*
X020493Y001588D01*
X020442Y001633D01*
X020394Y001680D01*
X020349Y001730D01*
X020307Y001783D01*
X020268Y001838D01*
X020232Y001895D01*
X020200Y001954D01*
X020171Y002015D01*
X020146Y002078D01*
X020124Y002142D01*
X020107Y002207D01*
X020093Y002273D01*
X020083Y002340D01*
X020077Y002408D01*
X020075Y002475D01*
X027075Y002475D02*
X027077Y002542D01*
X027083Y002610D01*
X027093Y002677D01*
X027107Y002743D01*
X027124Y002808D01*
X027146Y002872D01*
X027171Y002935D01*
X027200Y002996D01*
X027232Y003055D01*
X027268Y003112D01*
X027307Y003167D01*
X027349Y003220D01*
X027394Y003270D01*
X027442Y003317D01*
X027493Y003362D01*
X027546Y003403D01*
X027602Y003442D01*
X027660Y003477D01*
X027720Y003508D01*
X027781Y003536D01*
X027844Y003560D01*
X027908Y003581D01*
X027974Y003597D01*
X028040Y003610D01*
X028107Y003619D01*
X028174Y003624D01*
X028242Y003625D01*
X028309Y003622D01*
X028376Y003615D01*
X028443Y003604D01*
X028509Y003589D01*
X028574Y003571D01*
X028638Y003548D01*
X028700Y003522D01*
X028761Y003493D01*
X028819Y003459D01*
X028876Y003423D01*
X028931Y003383D01*
X028983Y003340D01*
X029032Y003294D01*
X029079Y003245D01*
X029123Y003194D01*
X029163Y003140D01*
X029201Y003084D01*
X029235Y003025D01*
X029265Y002965D01*
X029292Y002903D01*
X029316Y002840D01*
X029335Y002775D01*
X029351Y002710D01*
X029363Y002643D01*
X029371Y002576D01*
X029375Y002509D01*
X029375Y002441D01*
X029371Y002374D01*
X029363Y002307D01*
X029351Y002240D01*
X029335Y002175D01*
X029316Y002110D01*
X029292Y002047D01*
X029265Y001985D01*
X029235Y001925D01*
X029201Y001866D01*
X029163Y001810D01*
X029123Y001756D01*
X029079Y001705D01*
X029032Y001656D01*
X028983Y001610D01*
X028931Y001567D01*
X028876Y001527D01*
X028819Y001491D01*
X028761Y001457D01*
X028700Y001428D01*
X028638Y001402D01*
X028574Y001379D01*
X028509Y001361D01*
X028443Y001346D01*
X028376Y001335D01*
X028309Y001328D01*
X028242Y001325D01*
X028174Y001326D01*
X028107Y001331D01*
X028040Y001340D01*
X027974Y001353D01*
X027908Y001369D01*
X027844Y001390D01*
X027781Y001414D01*
X027720Y001442D01*
X027660Y001473D01*
X027602Y001508D01*
X027546Y001547D01*
X027493Y001588D01*
X027442Y001633D01*
X027394Y001680D01*
X027349Y001730D01*
X027307Y001783D01*
X027268Y001838D01*
X027232Y001895D01*
X027200Y001954D01*
X027171Y002015D01*
X027146Y002078D01*
X027124Y002142D01*
X027107Y002207D01*
X027093Y002273D01*
X027083Y002340D01*
X027077Y002408D01*
X027075Y002475D01*
X027075Y025975D02*
X027077Y026042D01*
X027083Y026110D01*
X027093Y026177D01*
X027107Y026243D01*
X027124Y026308D01*
X027146Y026372D01*
X027171Y026435D01*
X027200Y026496D01*
X027232Y026555D01*
X027268Y026612D01*
X027307Y026667D01*
X027349Y026720D01*
X027394Y026770D01*
X027442Y026817D01*
X027493Y026862D01*
X027546Y026903D01*
X027602Y026942D01*
X027660Y026977D01*
X027720Y027008D01*
X027781Y027036D01*
X027844Y027060D01*
X027908Y027081D01*
X027974Y027097D01*
X028040Y027110D01*
X028107Y027119D01*
X028174Y027124D01*
X028242Y027125D01*
X028309Y027122D01*
X028376Y027115D01*
X028443Y027104D01*
X028509Y027089D01*
X028574Y027071D01*
X028638Y027048D01*
X028700Y027022D01*
X028761Y026993D01*
X028819Y026959D01*
X028876Y026923D01*
X028931Y026883D01*
X028983Y026840D01*
X029032Y026794D01*
X029079Y026745D01*
X029123Y026694D01*
X029163Y026640D01*
X029201Y026584D01*
X029235Y026525D01*
X029265Y026465D01*
X029292Y026403D01*
X029316Y026340D01*
X029335Y026275D01*
X029351Y026210D01*
X029363Y026143D01*
X029371Y026076D01*
X029375Y026009D01*
X029375Y025941D01*
X029371Y025874D01*
X029363Y025807D01*
X029351Y025740D01*
X029335Y025675D01*
X029316Y025610D01*
X029292Y025547D01*
X029265Y025485D01*
X029235Y025425D01*
X029201Y025366D01*
X029163Y025310D01*
X029123Y025256D01*
X029079Y025205D01*
X029032Y025156D01*
X028983Y025110D01*
X028931Y025067D01*
X028876Y025027D01*
X028819Y024991D01*
X028761Y024957D01*
X028700Y024928D01*
X028638Y024902D01*
X028574Y024879D01*
X028509Y024861D01*
X028443Y024846D01*
X028376Y024835D01*
X028309Y024828D01*
X028242Y024825D01*
X028174Y024826D01*
X028107Y024831D01*
X028040Y024840D01*
X027974Y024853D01*
X027908Y024869D01*
X027844Y024890D01*
X027781Y024914D01*
X027720Y024942D01*
X027660Y024973D01*
X027602Y025008D01*
X027546Y025047D01*
X027493Y025088D01*
X027442Y025133D01*
X027394Y025180D01*
X027349Y025230D01*
X027307Y025283D01*
X027268Y025338D01*
X027232Y025395D01*
X027200Y025454D01*
X027171Y025515D01*
X027146Y025578D01*
X027124Y025642D01*
X027107Y025707D01*
X027093Y025773D01*
X027083Y025840D01*
X027077Y025908D01*
X027075Y025975D01*
X020075Y025975D02*
X020077Y026042D01*
X020083Y026110D01*
X020093Y026177D01*
X020107Y026243D01*
X020124Y026308D01*
X020146Y026372D01*
X020171Y026435D01*
X020200Y026496D01*
X020232Y026555D01*
X020268Y026612D01*
X020307Y026667D01*
X020349Y026720D01*
X020394Y026770D01*
X020442Y026817D01*
X020493Y026862D01*
X020546Y026903D01*
X020602Y026942D01*
X020660Y026977D01*
X020720Y027008D01*
X020781Y027036D01*
X020844Y027060D01*
X020908Y027081D01*
X020974Y027097D01*
X021040Y027110D01*
X021107Y027119D01*
X021174Y027124D01*
X021242Y027125D01*
X021309Y027122D01*
X021376Y027115D01*
X021443Y027104D01*
X021509Y027089D01*
X021574Y027071D01*
X021638Y027048D01*
X021700Y027022D01*
X021761Y026993D01*
X021819Y026959D01*
X021876Y026923D01*
X021931Y026883D01*
X021983Y026840D01*
X022032Y026794D01*
X022079Y026745D01*
X022123Y026694D01*
X022163Y026640D01*
X022201Y026584D01*
X022235Y026525D01*
X022265Y026465D01*
X022292Y026403D01*
X022316Y026340D01*
X022335Y026275D01*
X022351Y026210D01*
X022363Y026143D01*
X022371Y026076D01*
X022375Y026009D01*
X022375Y025941D01*
X022371Y025874D01*
X022363Y025807D01*
X022351Y025740D01*
X022335Y025675D01*
X022316Y025610D01*
X022292Y025547D01*
X022265Y025485D01*
X022235Y025425D01*
X022201Y025366D01*
X022163Y025310D01*
X022123Y025256D01*
X022079Y025205D01*
X022032Y025156D01*
X021983Y025110D01*
X021931Y025067D01*
X021876Y025027D01*
X021819Y024991D01*
X021761Y024957D01*
X021700Y024928D01*
X021638Y024902D01*
X021574Y024879D01*
X021509Y024861D01*
X021443Y024846D01*
X021376Y024835D01*
X021309Y024828D01*
X021242Y024825D01*
X021174Y024826D01*
X021107Y024831D01*
X021040Y024840D01*
X020974Y024853D01*
X020908Y024869D01*
X020844Y024890D01*
X020781Y024914D01*
X020720Y024942D01*
X020660Y024973D01*
X020602Y025008D01*
X020546Y025047D01*
X020493Y025088D01*
X020442Y025133D01*
X020394Y025180D01*
X020349Y025230D01*
X020307Y025283D01*
X020268Y025338D01*
X020232Y025395D01*
X020200Y025454D01*
X020171Y025515D01*
X020146Y025578D01*
X020124Y025642D01*
X020107Y025707D01*
X020093Y025773D01*
X020083Y025840D01*
X020077Y025908D01*
X020075Y025975D01*
X013075Y025975D02*
X013077Y026042D01*
X013083Y026110D01*
X013093Y026177D01*
X013107Y026243D01*
X013124Y026308D01*
X013146Y026372D01*
X013171Y026435D01*
X013200Y026496D01*
X013232Y026555D01*
X013268Y026612D01*
X013307Y026667D01*
X013349Y026720D01*
X013394Y026770D01*
X013442Y026817D01*
X013493Y026862D01*
X013546Y026903D01*
X013602Y026942D01*
X013660Y026977D01*
X013720Y027008D01*
X013781Y027036D01*
X013844Y027060D01*
X013908Y027081D01*
X013974Y027097D01*
X014040Y027110D01*
X014107Y027119D01*
X014174Y027124D01*
X014242Y027125D01*
X014309Y027122D01*
X014376Y027115D01*
X014443Y027104D01*
X014509Y027089D01*
X014574Y027071D01*
X014638Y027048D01*
X014700Y027022D01*
X014761Y026993D01*
X014819Y026959D01*
X014876Y026923D01*
X014931Y026883D01*
X014983Y026840D01*
X015032Y026794D01*
X015079Y026745D01*
X015123Y026694D01*
X015163Y026640D01*
X015201Y026584D01*
X015235Y026525D01*
X015265Y026465D01*
X015292Y026403D01*
X015316Y026340D01*
X015335Y026275D01*
X015351Y026210D01*
X015363Y026143D01*
X015371Y026076D01*
X015375Y026009D01*
X015375Y025941D01*
X015371Y025874D01*
X015363Y025807D01*
X015351Y025740D01*
X015335Y025675D01*
X015316Y025610D01*
X015292Y025547D01*
X015265Y025485D01*
X015235Y025425D01*
X015201Y025366D01*
X015163Y025310D01*
X015123Y025256D01*
X015079Y025205D01*
X015032Y025156D01*
X014983Y025110D01*
X014931Y025067D01*
X014876Y025027D01*
X014819Y024991D01*
X014761Y024957D01*
X014700Y024928D01*
X014638Y024902D01*
X014574Y024879D01*
X014509Y024861D01*
X014443Y024846D01*
X014376Y024835D01*
X014309Y024828D01*
X014242Y024825D01*
X014174Y024826D01*
X014107Y024831D01*
X014040Y024840D01*
X013974Y024853D01*
X013908Y024869D01*
X013844Y024890D01*
X013781Y024914D01*
X013720Y024942D01*
X013660Y024973D01*
X013602Y025008D01*
X013546Y025047D01*
X013493Y025088D01*
X013442Y025133D01*
X013394Y025180D01*
X013349Y025230D01*
X013307Y025283D01*
X013268Y025338D01*
X013232Y025395D01*
X013200Y025454D01*
X013171Y025515D01*
X013146Y025578D01*
X013124Y025642D01*
X013107Y025707D01*
X013093Y025773D01*
X013083Y025840D01*
X013077Y025908D01*
X013075Y025975D01*
X006075Y025975D02*
X006077Y026042D01*
X006083Y026110D01*
X006093Y026177D01*
X006107Y026243D01*
X006124Y026308D01*
X006146Y026372D01*
X006171Y026435D01*
X006200Y026496D01*
X006232Y026555D01*
X006268Y026612D01*
X006307Y026667D01*
X006349Y026720D01*
X006394Y026770D01*
X006442Y026817D01*
X006493Y026862D01*
X006546Y026903D01*
X006602Y026942D01*
X006660Y026977D01*
X006720Y027008D01*
X006781Y027036D01*
X006844Y027060D01*
X006908Y027081D01*
X006974Y027097D01*
X007040Y027110D01*
X007107Y027119D01*
X007174Y027124D01*
X007242Y027125D01*
X007309Y027122D01*
X007376Y027115D01*
X007443Y027104D01*
X007509Y027089D01*
X007574Y027071D01*
X007638Y027048D01*
X007700Y027022D01*
X007761Y026993D01*
X007819Y026959D01*
X007876Y026923D01*
X007931Y026883D01*
X007983Y026840D01*
X008032Y026794D01*
X008079Y026745D01*
X008123Y026694D01*
X008163Y026640D01*
X008201Y026584D01*
X008235Y026525D01*
X008265Y026465D01*
X008292Y026403D01*
X008316Y026340D01*
X008335Y026275D01*
X008351Y026210D01*
X008363Y026143D01*
X008371Y026076D01*
X008375Y026009D01*
X008375Y025941D01*
X008371Y025874D01*
X008363Y025807D01*
X008351Y025740D01*
X008335Y025675D01*
X008316Y025610D01*
X008292Y025547D01*
X008265Y025485D01*
X008235Y025425D01*
X008201Y025366D01*
X008163Y025310D01*
X008123Y025256D01*
X008079Y025205D01*
X008032Y025156D01*
X007983Y025110D01*
X007931Y025067D01*
X007876Y025027D01*
X007819Y024991D01*
X007761Y024957D01*
X007700Y024928D01*
X007638Y024902D01*
X007574Y024879D01*
X007509Y024861D01*
X007443Y024846D01*
X007376Y024835D01*
X007309Y024828D01*
X007242Y024825D01*
X007174Y024826D01*
X007107Y024831D01*
X007040Y024840D01*
X006974Y024853D01*
X006908Y024869D01*
X006844Y024890D01*
X006781Y024914D01*
X006720Y024942D01*
X006660Y024973D01*
X006602Y025008D01*
X006546Y025047D01*
X006493Y025088D01*
X006442Y025133D01*
X006394Y025180D01*
X006349Y025230D01*
X006307Y025283D01*
X006268Y025338D01*
X006232Y025395D01*
X006200Y025454D01*
X006171Y025515D01*
X006146Y025578D01*
X006124Y025642D01*
X006107Y025707D01*
X006093Y025773D01*
X006083Y025840D01*
X006077Y025908D01*
X006075Y025975D01*
M02*
