G75*
%MOIN*%
%OFA0B0*%
%FSLAX24Y24*%
%IPPOS*%
%LPD*%
%AMOC8*
5,1,8,0,0,1.08239X$1,22.5*
%
%ADD10C,0.0820*%
%ADD11C,0.0740*%
%ADD12C,0.1380*%
%ADD13C,0.2280*%
%ADD14R,0.0820X0.0820*%
D10*
X005375Y004425D03*
X008375Y004425D03*
X011375Y004425D03*
X015125Y004725D03*
X011375Y008425D03*
X011375Y009925D03*
X011375Y010925D03*
X011375Y011925D03*
X011375Y013875D03*
X011375Y014875D03*
X011375Y015875D03*
X011375Y018125D03*
X011375Y019125D03*
X011375Y020125D03*
X008375Y020375D03*
X008375Y021375D03*
X008375Y022375D03*
X005375Y019875D03*
X005375Y018875D03*
X005375Y017875D03*
X005375Y015875D03*
X005375Y014875D03*
X005375Y013875D03*
X005375Y011925D03*
X005375Y010925D03*
X005375Y009925D03*
X005375Y008425D03*
X008375Y008425D03*
X008375Y012125D03*
X008375Y013125D03*
X008375Y014125D03*
X015125Y016125D03*
X015125Y017125D03*
X015125Y018125D03*
X015125Y020375D03*
X015125Y021375D03*
X015125Y022375D03*
X018375Y022375D03*
X018375Y021375D03*
X018375Y020375D03*
X018375Y019125D03*
X023125Y018625D03*
X023125Y017375D03*
X025875Y016875D03*
X025875Y017875D03*
X025875Y018875D03*
X025875Y020625D03*
X025875Y021625D03*
X025875Y022625D03*
X023125Y022625D03*
X030875Y021375D03*
X030875Y020375D03*
X030875Y019375D03*
X030875Y018125D03*
X033125Y015875D03*
X034125Y015875D03*
X034125Y014875D03*
X034125Y013875D03*
X033125Y013875D03*
X033125Y014875D03*
X030875Y014125D03*
X030875Y012875D03*
X033125Y012875D03*
X028375Y013375D03*
X028375Y014375D03*
X028375Y015375D03*
X025875Y012375D03*
X025875Y011375D03*
X025875Y010375D03*
X025875Y008625D03*
X023125Y008625D03*
X023125Y010375D03*
X023125Y011375D03*
X023125Y012375D03*
X023125Y013375D03*
X018375Y015125D03*
X018375Y010875D03*
X018375Y009875D03*
X018375Y008875D03*
X020125Y007425D03*
X020125Y006425D03*
X020125Y005425D03*
X023125Y004625D03*
X025875Y004625D03*
X030875Y005625D03*
X030875Y006625D03*
X030875Y007625D03*
X030875Y008875D03*
X015125Y008725D03*
D11*
X020875Y017875D03*
X020875Y018875D03*
D12*
X001375Y001375D03*
X001375Y027375D03*
X034375Y027375D03*
X034375Y001375D03*
D13*
X028375Y002625D03*
X021375Y002625D03*
X014375Y002625D03*
X007375Y002625D03*
X007375Y026125D03*
X014375Y026125D03*
X021375Y026125D03*
X028375Y026125D03*
D14*
X034125Y012875D03*
M02*
