G75*
%MOIN*%
%OFA0B0*%
%FSLAX24Y24*%
%IPPOS*%
%LPD*%
%AMOC8*
5,1,8,0,0,1.08239X$1,22.5*
%
%ADD10C,0.0740*%
%ADD11C,0.0660*%
%ADD12C,0.2200*%
%ADD13C,0.0080*%
%ADD14R,0.0740X0.0740*%
%ADD15C,0.0160*%
%ADD16C,0.0400*%
D10*
X005375Y004425D03*
X008375Y004425D03*
X011375Y004425D03*
X015125Y004725D03*
X011375Y008425D03*
X011375Y009925D03*
X011375Y010925D03*
X011375Y011925D03*
X011375Y013875D03*
X011375Y014875D03*
X011375Y015875D03*
X011375Y018125D03*
X011375Y019125D03*
X011375Y020125D03*
X008375Y020375D03*
X008375Y021375D03*
X008375Y022375D03*
X005375Y019875D03*
X005375Y018875D03*
X005375Y017875D03*
X005375Y015875D03*
X005375Y014875D03*
X005375Y013875D03*
X005375Y011925D03*
X005375Y010925D03*
X005375Y009925D03*
X005375Y008425D03*
X008375Y008425D03*
X008375Y012125D03*
X008375Y013125D03*
X008375Y014125D03*
X015125Y016125D03*
X015125Y017125D03*
X015125Y018125D03*
X015125Y020375D03*
X015125Y021375D03*
X015125Y022375D03*
X018375Y022375D03*
X018375Y021375D03*
X018375Y020375D03*
X018375Y019125D03*
X023125Y018625D03*
X023125Y017375D03*
X025875Y016875D03*
X025875Y017875D03*
X025875Y018875D03*
X025875Y020625D03*
X025875Y021625D03*
X025875Y022625D03*
X023125Y022625D03*
X030875Y021375D03*
X030875Y020375D03*
X030875Y019375D03*
X030875Y018125D03*
X033125Y015875D03*
X034125Y015875D03*
X034125Y014875D03*
X034125Y013875D03*
X033125Y013875D03*
X033125Y014875D03*
X030875Y014125D03*
X030875Y012875D03*
X033125Y012875D03*
X028375Y013375D03*
X028375Y014375D03*
X028375Y015375D03*
X025875Y012375D03*
X025875Y011375D03*
X025875Y010375D03*
X025875Y008625D03*
X023125Y008625D03*
X023125Y010375D03*
X023125Y011375D03*
X023125Y012375D03*
X023125Y013375D03*
X018375Y015125D03*
X018375Y010875D03*
X018375Y009875D03*
X018375Y008875D03*
X020125Y007425D03*
X020125Y006425D03*
X020125Y005425D03*
X023125Y004625D03*
X025875Y004625D03*
X030875Y005625D03*
X030875Y006625D03*
X030875Y007625D03*
X030875Y008875D03*
X015125Y008725D03*
D11*
X020875Y017875D03*
X020875Y018875D03*
D12*
X021375Y026125D03*
X014375Y026125D03*
X007375Y026125D03*
X028375Y026125D03*
X028375Y002625D03*
X021375Y002625D03*
X014375Y002625D03*
X007375Y002625D03*
D13*
X008191Y003358D02*
X006556Y003358D01*
X006544Y003345D02*
X006450Y003220D01*
X006374Y003082D01*
X006320Y002935D01*
X006286Y002782D01*
X006275Y002625D01*
X006288Y002458D01*
X006325Y002296D01*
X006387Y002141D01*
X006472Y001997D01*
X006578Y001867D01*
X006702Y001755D01*
X006841Y001663D01*
X006993Y001593D01*
X007154Y001548D01*
X007319Y001526D01*
X007486Y001531D01*
X007651Y001560D01*
X007809Y001614D01*
X007957Y001691D01*
X008092Y001790D01*
X008210Y001908D01*
X008309Y002043D01*
X008386Y002191D01*
X008440Y002349D01*
X008469Y002514D01*
X008474Y002681D01*
X008452Y002846D01*
X008407Y003007D01*
X008337Y003159D01*
X008245Y003298D01*
X008133Y003422D01*
X008003Y003528D01*
X007859Y003613D01*
X007704Y003675D01*
X007542Y003712D01*
X007375Y003725D01*
X007218Y003714D01*
X007065Y003680D01*
X006918Y003626D01*
X006780Y003550D01*
X006655Y003456D01*
X006544Y003345D01*
X006494Y003280D02*
X008257Y003280D01*
X008309Y003201D02*
X006439Y003201D01*
X006397Y003123D02*
X008353Y003123D01*
X008390Y003044D02*
X006360Y003044D01*
X006331Y002966D02*
X008418Y002966D01*
X008441Y002887D02*
X006309Y002887D01*
X006292Y002809D02*
X008457Y002809D01*
X008467Y002730D02*
X006283Y002730D01*
X006277Y002652D02*
X008473Y002652D01*
X008471Y002573D02*
X006279Y002573D01*
X006285Y002495D02*
X008466Y002495D01*
X008452Y002416D02*
X006298Y002416D01*
X006316Y002338D02*
X008436Y002338D01*
X008409Y002259D02*
X006340Y002259D01*
X006371Y002181D02*
X008380Y002181D01*
X008339Y002102D02*
X006410Y002102D01*
X006456Y002024D02*
X008294Y002024D01*
X008236Y001945D02*
X006514Y001945D01*
X006578Y001867D02*
X008168Y001867D01*
X008088Y001788D02*
X006665Y001788D01*
X006771Y001710D02*
X007981Y001710D01*
X007841Y001631D02*
X006911Y001631D01*
X007136Y001553D02*
X007608Y001553D01*
X008115Y003437D02*
X006635Y003437D01*
X006733Y003515D02*
X008019Y003515D01*
X007892Y003594D02*
X006859Y003594D01*
X007042Y003672D02*
X007711Y003672D01*
X013286Y002782D02*
X013275Y002625D01*
X013288Y002458D01*
X013325Y002296D01*
X013387Y002141D01*
X013472Y001997D01*
X013578Y001867D01*
X013702Y001755D01*
X013841Y001663D01*
X013993Y001593D01*
X014154Y001548D01*
X014319Y001526D01*
X014486Y001531D01*
X014651Y001560D01*
X014809Y001614D01*
X014957Y001691D01*
X015092Y001790D01*
X015210Y001908D01*
X015309Y002043D01*
X015386Y002191D01*
X015440Y002349D01*
X015469Y002514D01*
X015474Y002681D01*
X015452Y002846D01*
X015407Y003007D01*
X015337Y003159D01*
X015245Y003298D01*
X015133Y003422D01*
X015003Y003528D01*
X014859Y003613D01*
X014704Y003675D01*
X014542Y003712D01*
X014375Y003725D01*
X014218Y003714D01*
X014065Y003680D01*
X013918Y003626D01*
X013780Y003550D01*
X013655Y003456D01*
X013544Y003345D01*
X013450Y003220D01*
X013374Y003082D01*
X013320Y002935D01*
X013286Y002782D01*
X013292Y002809D02*
X015457Y002809D01*
X015441Y002887D02*
X013309Y002887D01*
X013331Y002966D02*
X015418Y002966D01*
X015390Y003044D02*
X013360Y003044D01*
X013397Y003123D02*
X015353Y003123D01*
X015309Y003201D02*
X013439Y003201D01*
X013494Y003280D02*
X015257Y003280D01*
X015191Y003358D02*
X013556Y003358D01*
X013635Y003437D02*
X015115Y003437D01*
X015019Y003515D02*
X013733Y003515D01*
X013859Y003594D02*
X014892Y003594D01*
X014711Y003672D02*
X014042Y003672D01*
X013283Y002730D02*
X015467Y002730D01*
X015473Y002652D02*
X013277Y002652D01*
X013279Y002573D02*
X015471Y002573D01*
X015466Y002495D02*
X013285Y002495D01*
X013298Y002416D02*
X015452Y002416D01*
X015436Y002338D02*
X013316Y002338D01*
X013340Y002259D02*
X015409Y002259D01*
X015380Y002181D02*
X013371Y002181D01*
X013410Y002102D02*
X015339Y002102D01*
X015294Y002024D02*
X013456Y002024D01*
X013514Y001945D02*
X015236Y001945D01*
X015168Y001867D02*
X013578Y001867D01*
X013665Y001788D02*
X015088Y001788D01*
X014981Y001710D02*
X013771Y001710D01*
X013911Y001631D02*
X014841Y001631D01*
X014608Y001553D02*
X014136Y001553D01*
X020288Y002458D02*
X020325Y002296D01*
X020387Y002141D01*
X020472Y001997D01*
X020578Y001867D01*
X020702Y001755D01*
X020841Y001663D01*
X020993Y001593D01*
X021154Y001548D01*
X021319Y001526D01*
X021486Y001531D01*
X021651Y001560D01*
X021809Y001614D01*
X021957Y001691D01*
X022092Y001790D01*
X022210Y001908D01*
X022309Y002043D01*
X022386Y002191D01*
X022440Y002349D01*
X022469Y002514D01*
X022474Y002681D01*
X022452Y002846D01*
X022407Y003007D01*
X022337Y003159D01*
X022245Y003298D01*
X022133Y003422D01*
X022003Y003528D01*
X021859Y003613D01*
X021704Y003675D01*
X021542Y003712D01*
X021375Y003725D01*
X021218Y003714D01*
X021065Y003680D01*
X020918Y003626D01*
X020780Y003550D01*
X020655Y003456D01*
X020544Y003345D01*
X020450Y003220D01*
X020374Y003082D01*
X020320Y002935D01*
X020286Y002782D01*
X020275Y002625D01*
X020288Y002458D01*
X020285Y002495D02*
X022466Y002495D01*
X022471Y002573D02*
X020279Y002573D01*
X020277Y002652D02*
X022473Y002652D01*
X022467Y002730D02*
X020283Y002730D01*
X020292Y002809D02*
X022457Y002809D01*
X022441Y002887D02*
X020309Y002887D01*
X020331Y002966D02*
X022418Y002966D01*
X022390Y003044D02*
X020360Y003044D01*
X020397Y003123D02*
X022353Y003123D01*
X022309Y003201D02*
X020439Y003201D01*
X020494Y003280D02*
X022257Y003280D01*
X022191Y003358D02*
X020556Y003358D01*
X020635Y003437D02*
X022115Y003437D01*
X022019Y003515D02*
X020733Y003515D01*
X020859Y003594D02*
X021892Y003594D01*
X021711Y003672D02*
X021042Y003672D01*
X020298Y002416D02*
X022452Y002416D01*
X022436Y002338D02*
X020316Y002338D01*
X020340Y002259D02*
X022409Y002259D01*
X022380Y002181D02*
X020371Y002181D01*
X020410Y002102D02*
X022339Y002102D01*
X022294Y002024D02*
X020456Y002024D01*
X020514Y001945D02*
X022236Y001945D01*
X022168Y001867D02*
X020578Y001867D01*
X020665Y001788D02*
X022088Y001788D01*
X021981Y001710D02*
X020771Y001710D01*
X020911Y001631D02*
X021841Y001631D01*
X021608Y001553D02*
X021136Y001553D01*
X027288Y002458D02*
X027325Y002296D01*
X027387Y002141D01*
X027472Y001997D01*
X027578Y001867D01*
X027702Y001755D01*
X027841Y001663D01*
X027993Y001593D01*
X028154Y001548D01*
X028319Y001526D01*
X028486Y001531D01*
X028651Y001560D01*
X028809Y001614D01*
X028957Y001691D01*
X029092Y001790D01*
X029210Y001908D01*
X029309Y002043D01*
X029386Y002191D01*
X029440Y002349D01*
X029469Y002514D01*
X029474Y002681D01*
X029452Y002846D01*
X029407Y003007D01*
X029337Y003159D01*
X029245Y003298D01*
X029133Y003422D01*
X029003Y003528D01*
X028859Y003613D01*
X028704Y003675D01*
X028542Y003712D01*
X028375Y003725D01*
X028218Y003714D01*
X028065Y003680D01*
X027918Y003626D01*
X027780Y003550D01*
X027655Y003456D01*
X027544Y003345D01*
X027450Y003220D01*
X027374Y003082D01*
X027320Y002935D01*
X027286Y002782D01*
X027275Y002625D01*
X027288Y002458D01*
X027285Y002495D02*
X029466Y002495D01*
X029471Y002573D02*
X027279Y002573D01*
X027277Y002652D02*
X029473Y002652D01*
X029467Y002730D02*
X027283Y002730D01*
X027292Y002809D02*
X029457Y002809D01*
X029441Y002887D02*
X027309Y002887D01*
X027331Y002966D02*
X029418Y002966D01*
X029390Y003044D02*
X027360Y003044D01*
X027397Y003123D02*
X029353Y003123D01*
X029309Y003201D02*
X027439Y003201D01*
X027494Y003280D02*
X029257Y003280D01*
X029191Y003358D02*
X027556Y003358D01*
X027635Y003437D02*
X029115Y003437D01*
X029019Y003515D02*
X027733Y003515D01*
X027859Y003594D02*
X028892Y003594D01*
X028711Y003672D02*
X028042Y003672D01*
X027298Y002416D02*
X029452Y002416D01*
X029436Y002338D02*
X027316Y002338D01*
X027340Y002259D02*
X029409Y002259D01*
X029380Y002181D02*
X027371Y002181D01*
X027410Y002102D02*
X029339Y002102D01*
X029294Y002024D02*
X027456Y002024D01*
X027514Y001945D02*
X029236Y001945D01*
X029168Y001867D02*
X027578Y001867D01*
X027665Y001788D02*
X029088Y001788D01*
X028981Y001710D02*
X027771Y001710D01*
X027911Y001631D02*
X028841Y001631D01*
X028608Y001553D02*
X028136Y001553D01*
X028319Y025026D02*
X028154Y025048D01*
X027993Y025093D01*
X027841Y025163D01*
X027702Y025255D01*
X027578Y025367D01*
X027472Y025497D01*
X027387Y025641D01*
X027325Y025796D01*
X027288Y025958D01*
X027275Y026125D01*
X027286Y026282D01*
X027320Y026435D01*
X027374Y026582D01*
X027450Y026720D01*
X027544Y026845D01*
X027655Y026956D01*
X027780Y027050D01*
X027918Y027126D01*
X028065Y027180D01*
X028218Y027214D01*
X028375Y027225D01*
X028542Y027212D01*
X028704Y027175D01*
X028859Y027113D01*
X029003Y027028D01*
X029133Y026922D01*
X029245Y026798D01*
X029337Y026659D01*
X029407Y026507D01*
X029452Y026346D01*
X029474Y026181D01*
X029469Y026014D01*
X029440Y025849D01*
X029386Y025691D01*
X029309Y025543D01*
X029210Y025408D01*
X029092Y025290D01*
X028957Y025191D01*
X028809Y025114D01*
X028651Y025060D01*
X028486Y025031D01*
X028319Y025026D01*
X027973Y025103D02*
X028775Y025103D01*
X028937Y025181D02*
X027814Y025181D01*
X027697Y025260D02*
X029050Y025260D01*
X029139Y025338D02*
X027610Y025338D01*
X027537Y025417D02*
X029216Y025417D01*
X029273Y025495D02*
X027473Y025495D01*
X027427Y025574D02*
X029324Y025574D01*
X029365Y025652D02*
X027383Y025652D01*
X027351Y025731D02*
X029399Y025731D01*
X029426Y025809D02*
X027322Y025809D01*
X027304Y025888D02*
X029447Y025888D01*
X029461Y025966D02*
X027287Y025966D01*
X027281Y026045D02*
X029470Y026045D01*
X029472Y026123D02*
X027275Y026123D01*
X027280Y026202D02*
X029471Y026202D01*
X029461Y026280D02*
X027286Y026280D01*
X027303Y026359D02*
X029449Y026359D01*
X029427Y026437D02*
X027320Y026437D01*
X027350Y026516D02*
X029403Y026516D01*
X029367Y026594D02*
X027381Y026594D01*
X027424Y026673D02*
X029328Y026673D01*
X029276Y026751D02*
X027473Y026751D01*
X027532Y026830D02*
X029217Y026830D01*
X029146Y026908D02*
X027606Y026908D01*
X027695Y026987D02*
X029054Y026987D01*
X028940Y027065D02*
X027807Y027065D01*
X027966Y027144D02*
X028782Y027144D01*
X028413Y027222D02*
X028334Y027222D01*
X022452Y026346D02*
X022407Y026507D01*
X022337Y026659D01*
X022245Y026798D01*
X022133Y026922D01*
X022003Y027028D01*
X021859Y027113D01*
X021704Y027175D01*
X021542Y027212D01*
X021375Y027225D01*
X021218Y027214D01*
X021065Y027180D01*
X020918Y027126D01*
X020780Y027050D01*
X020655Y026956D01*
X020544Y026845D01*
X020450Y026720D01*
X020374Y026582D01*
X020320Y026435D01*
X020286Y026282D01*
X020275Y026125D01*
X020288Y025958D01*
X020325Y025796D01*
X020387Y025641D01*
X020472Y025497D01*
X020578Y025367D01*
X020702Y025255D01*
X020841Y025163D01*
X020993Y025093D01*
X021154Y025048D01*
X021319Y025026D01*
X021486Y025031D01*
X021651Y025060D01*
X021809Y025114D01*
X021957Y025191D01*
X022092Y025290D01*
X022210Y025408D01*
X022309Y025543D01*
X022386Y025691D01*
X022440Y025849D01*
X022469Y026014D01*
X022474Y026181D01*
X022452Y026346D01*
X022449Y026359D02*
X020303Y026359D01*
X020320Y026437D02*
X022427Y026437D01*
X022403Y026516D02*
X020350Y026516D01*
X020381Y026594D02*
X022367Y026594D01*
X022328Y026673D02*
X020424Y026673D01*
X020473Y026751D02*
X022276Y026751D01*
X022217Y026830D02*
X020532Y026830D01*
X020606Y026908D02*
X022146Y026908D01*
X022054Y026987D02*
X020695Y026987D01*
X020807Y027065D02*
X021940Y027065D01*
X021782Y027144D02*
X020966Y027144D01*
X021334Y027222D02*
X021413Y027222D01*
X022461Y026280D02*
X020286Y026280D01*
X020280Y026202D02*
X022471Y026202D01*
X022472Y026123D02*
X020275Y026123D01*
X020281Y026045D02*
X022470Y026045D01*
X022461Y025966D02*
X020287Y025966D01*
X020304Y025888D02*
X022447Y025888D01*
X022426Y025809D02*
X020322Y025809D01*
X020351Y025731D02*
X022399Y025731D01*
X022365Y025652D02*
X020383Y025652D01*
X020427Y025574D02*
X022324Y025574D01*
X022273Y025495D02*
X020473Y025495D01*
X020537Y025417D02*
X022216Y025417D01*
X022139Y025338D02*
X020610Y025338D01*
X020697Y025260D02*
X022050Y025260D01*
X021937Y025181D02*
X020814Y025181D01*
X020973Y025103D02*
X021775Y025103D01*
X015469Y026014D02*
X015440Y025849D01*
X015386Y025691D01*
X015309Y025543D01*
X015210Y025408D01*
X015092Y025290D01*
X014957Y025191D01*
X014809Y025114D01*
X014651Y025060D01*
X014486Y025031D01*
X014319Y025026D01*
X014154Y025048D01*
X013993Y025093D01*
X013841Y025163D01*
X013702Y025255D01*
X013578Y025367D01*
X013472Y025497D01*
X013387Y025641D01*
X013325Y025796D01*
X013288Y025958D01*
X013275Y026125D01*
X013286Y026282D01*
X013320Y026435D01*
X013374Y026582D01*
X013450Y026720D01*
X013544Y026845D01*
X013655Y026956D01*
X013780Y027050D01*
X013918Y027126D01*
X014065Y027180D01*
X014218Y027214D01*
X014375Y027225D01*
X014542Y027212D01*
X014704Y027175D01*
X014859Y027113D01*
X015003Y027028D01*
X015133Y026922D01*
X015245Y026798D01*
X015337Y026659D01*
X015407Y026507D01*
X015452Y026346D01*
X015474Y026181D01*
X015469Y026014D01*
X015470Y026045D02*
X013281Y026045D01*
X013275Y026123D02*
X015472Y026123D01*
X015471Y026202D02*
X013280Y026202D01*
X013286Y026280D02*
X015461Y026280D01*
X015449Y026359D02*
X013303Y026359D01*
X013320Y026437D02*
X015427Y026437D01*
X015403Y026516D02*
X013350Y026516D01*
X013381Y026594D02*
X015367Y026594D01*
X015328Y026673D02*
X013424Y026673D01*
X013473Y026751D02*
X015276Y026751D01*
X015217Y026830D02*
X013532Y026830D01*
X013606Y026908D02*
X015146Y026908D01*
X015054Y026987D02*
X013695Y026987D01*
X013807Y027065D02*
X014940Y027065D01*
X014782Y027144D02*
X013966Y027144D01*
X014334Y027222D02*
X014413Y027222D01*
X015461Y025966D02*
X013287Y025966D01*
X013304Y025888D02*
X015447Y025888D01*
X015426Y025809D02*
X013322Y025809D01*
X013351Y025731D02*
X015399Y025731D01*
X015365Y025652D02*
X013383Y025652D01*
X013427Y025574D02*
X015324Y025574D01*
X015273Y025495D02*
X013473Y025495D01*
X013537Y025417D02*
X015216Y025417D01*
X015139Y025338D02*
X013610Y025338D01*
X013697Y025260D02*
X015050Y025260D01*
X014937Y025181D02*
X013814Y025181D01*
X013973Y025103D02*
X014775Y025103D01*
X008469Y026014D02*
X008440Y025849D01*
X008386Y025691D01*
X008309Y025543D01*
X008210Y025408D01*
X008092Y025290D01*
X007957Y025191D01*
X007809Y025114D01*
X007651Y025060D01*
X007486Y025031D01*
X007319Y025026D01*
X007154Y025048D01*
X006993Y025093D01*
X006841Y025163D01*
X006702Y025255D01*
X006578Y025367D01*
X006472Y025497D01*
X006387Y025641D01*
X006325Y025796D01*
X006288Y025958D01*
X006275Y026125D01*
X006286Y026282D01*
X006320Y026435D01*
X006374Y026582D01*
X006450Y026720D01*
X006544Y026845D01*
X006655Y026956D01*
X006780Y027050D01*
X006918Y027126D01*
X007065Y027180D01*
X007218Y027214D01*
X007375Y027225D01*
X007542Y027212D01*
X007704Y027175D01*
X007859Y027113D01*
X008003Y027028D01*
X008133Y026922D01*
X008245Y026798D01*
X008337Y026659D01*
X008407Y026507D01*
X008452Y026346D01*
X008474Y026181D01*
X008469Y026014D01*
X008470Y026045D02*
X006281Y026045D01*
X006275Y026123D02*
X008472Y026123D01*
X008471Y026202D02*
X006280Y026202D01*
X006286Y026280D02*
X008461Y026280D01*
X008449Y026359D02*
X006303Y026359D01*
X006320Y026437D02*
X008427Y026437D01*
X008403Y026516D02*
X006350Y026516D01*
X006381Y026594D02*
X008367Y026594D01*
X008328Y026673D02*
X006424Y026673D01*
X006473Y026751D02*
X008276Y026751D01*
X008217Y026830D02*
X006532Y026830D01*
X006606Y026908D02*
X008146Y026908D01*
X008054Y026987D02*
X006695Y026987D01*
X006807Y027065D02*
X007940Y027065D01*
X007782Y027144D02*
X006966Y027144D01*
X007334Y027222D02*
X007413Y027222D01*
X008461Y025966D02*
X006287Y025966D01*
X006304Y025888D02*
X008447Y025888D01*
X008426Y025809D02*
X006322Y025809D01*
X006351Y025731D02*
X008399Y025731D01*
X008365Y025652D02*
X006383Y025652D01*
X006427Y025574D02*
X008324Y025574D01*
X008273Y025495D02*
X006473Y025495D01*
X006537Y025417D02*
X008216Y025417D01*
X008139Y025338D02*
X006610Y025338D01*
X006697Y025260D02*
X008050Y025260D01*
X007937Y025181D02*
X006814Y025181D01*
X006973Y025103D02*
X007775Y025103D01*
D14*
X034125Y012875D03*
D15*
X001856Y000654D02*
X001665Y000575D01*
X007586Y000575D01*
X007239Y000922D01*
X007172Y000989D01*
X007135Y001077D01*
X007135Y001345D01*
X007113Y001351D01*
X007046Y001360D01*
X007036Y001373D01*
X007001Y001383D01*
X006985Y001377D01*
X006923Y001405D01*
X006858Y001424D01*
X006850Y001439D01*
X006817Y001454D01*
X006800Y001451D01*
X006744Y001488D01*
X006682Y001516D01*
X006676Y001532D01*
X006646Y001552D01*
X006629Y001551D01*
X006579Y001597D01*
X006522Y001634D01*
X006519Y001651D01*
X006492Y001675D01*
X006475Y001677D01*
X006432Y001729D01*
X006382Y001774D01*
X006381Y001792D01*
X006359Y001819D01*
X006342Y001824D01*
X006308Y001882D01*
X006265Y001934D01*
X006267Y001952D01*
X006248Y001983D01*
X006232Y001989D01*
X006207Y002052D01*
X006173Y002110D01*
X006177Y002127D01*
X006164Y002161D01*
X006149Y002170D01*
X006134Y002236D01*
X006109Y002298D01*
X006116Y002314D01*
X006108Y002349D01*
X006095Y002361D01*
X006089Y002428D01*
X006074Y002494D01*
X006083Y002509D01*
X006081Y002544D01*
X006070Y002557D01*
X006074Y002625D01*
X006069Y002692D01*
X006080Y002705D01*
X006082Y002729D01*
X006073Y002743D01*
X006088Y002810D01*
X006093Y002878D01*
X006105Y002889D01*
X006110Y002912D01*
X006103Y002927D01*
X006127Y002991D01*
X006142Y003058D01*
X006155Y003067D01*
X006164Y003089D01*
X006159Y003105D01*
X006192Y003165D01*
X006216Y003229D01*
X006231Y003236D01*
X006242Y003257D01*
X006240Y003273D01*
X006281Y003328D01*
X006314Y003388D01*
X006329Y003393D01*
X006344Y003412D01*
X006344Y003428D01*
X006392Y003477D01*
X006433Y003532D01*
X006449Y003534D01*
X006466Y003551D01*
X006468Y003567D01*
X006523Y003608D01*
X006572Y003656D01*
X006588Y003656D01*
X006607Y003671D01*
X006612Y003686D01*
X006672Y003719D01*
X006727Y003760D01*
X006743Y003758D01*
X006764Y003769D01*
X006771Y003784D01*
X006835Y003808D01*
X006895Y003841D01*
X006911Y003836D01*
X006933Y003845D01*
X006942Y003858D01*
X007009Y003873D01*
X007073Y003897D01*
X007088Y003890D01*
X007111Y003895D01*
X007122Y003907D01*
X007135Y003908D01*
X007135Y006326D01*
X005541Y007920D01*
X005480Y007895D01*
X005270Y007895D01*
X005075Y007976D01*
X004926Y008125D01*
X004845Y008320D01*
X004845Y008530D01*
X004926Y008725D01*
X005075Y008874D01*
X005135Y008899D01*
X005135Y009451D01*
X005075Y009476D01*
X004926Y009625D01*
X004845Y009820D01*
X004845Y010030D01*
X004926Y010225D01*
X005075Y010374D01*
X005197Y010425D01*
X005075Y010476D01*
X004926Y010625D01*
X004845Y010820D01*
X004845Y011030D01*
X004926Y011225D01*
X005075Y011374D01*
X005197Y011425D01*
X005075Y011476D01*
X004926Y011625D01*
X004901Y011685D01*
X004827Y011685D01*
X004739Y011722D01*
X004239Y012222D01*
X004172Y012289D01*
X004135Y012377D01*
X004135Y015423D01*
X004172Y015511D01*
X004672Y016011D01*
X004739Y016078D01*
X004827Y016115D01*
X004901Y016115D01*
X004926Y016175D01*
X005075Y016324D01*
X005270Y016405D01*
X005480Y016405D01*
X005675Y016324D01*
X005824Y016175D01*
X005905Y015980D01*
X005905Y015770D01*
X005824Y015575D01*
X005675Y015426D01*
X005553Y015375D01*
X005675Y015324D01*
X005824Y015175D01*
X005905Y014980D01*
X005905Y014770D01*
X005824Y014575D01*
X005675Y014426D01*
X005553Y014375D01*
X005675Y014324D01*
X005824Y014175D01*
X005828Y014167D01*
X006135Y014474D01*
X006135Y017276D01*
X005828Y017583D01*
X005824Y017575D01*
X005675Y017426D01*
X005480Y017345D01*
X005270Y017345D01*
X005075Y017426D01*
X004926Y017575D01*
X004845Y017770D01*
X004845Y017980D01*
X004926Y018175D01*
X005075Y018324D01*
X005197Y018375D01*
X005075Y018426D01*
X004926Y018575D01*
X004845Y018770D01*
X004845Y018980D01*
X004926Y019175D01*
X005075Y019324D01*
X005197Y019375D01*
X005075Y019426D01*
X004926Y019575D01*
X004845Y019770D01*
X004845Y019980D01*
X004926Y020175D01*
X005075Y020324D01*
X005270Y020405D01*
X005480Y020405D01*
X005675Y020324D01*
X005824Y020175D01*
X005905Y019980D01*
X005905Y019770D01*
X005824Y019575D01*
X005675Y019426D01*
X005553Y019375D01*
X005675Y019324D01*
X005824Y019175D01*
X005905Y018980D01*
X005905Y018770D01*
X005824Y018575D01*
X005675Y018426D01*
X005553Y018375D01*
X005675Y018324D01*
X005824Y018175D01*
X005849Y018115D01*
X005923Y018115D01*
X006011Y018078D01*
X006078Y018011D01*
X006578Y017511D01*
X006615Y017423D01*
X006615Y014327D01*
X006578Y014239D01*
X006511Y014172D01*
X006011Y013672D01*
X005923Y013635D01*
X005849Y013635D01*
X005824Y013575D01*
X005675Y013426D01*
X005480Y013345D01*
X005270Y013345D01*
X005075Y013426D01*
X004926Y013575D01*
X004845Y013770D01*
X004845Y013980D01*
X004926Y014175D01*
X005075Y014324D01*
X005197Y014375D01*
X005075Y014426D01*
X004926Y014575D01*
X004845Y014770D01*
X004845Y014980D01*
X004926Y015175D01*
X005075Y015324D01*
X005197Y015375D01*
X005075Y015426D01*
X004926Y015575D01*
X004922Y015583D01*
X004615Y015276D01*
X004615Y012524D01*
X004922Y012217D01*
X004926Y012225D01*
X005075Y012374D01*
X005270Y012455D01*
X005480Y012455D01*
X005675Y012374D01*
X005824Y012225D01*
X005905Y012030D01*
X005905Y011820D01*
X005824Y011625D01*
X005675Y011476D01*
X005553Y011425D01*
X005675Y011374D01*
X005824Y011225D01*
X005905Y011030D01*
X005905Y010820D01*
X005824Y010625D01*
X005675Y010476D01*
X005553Y010425D01*
X005675Y010374D01*
X005824Y010225D01*
X005905Y010030D01*
X005905Y009820D01*
X005824Y009625D01*
X005675Y009476D01*
X005615Y009451D01*
X005615Y008899D01*
X005675Y008874D01*
X005824Y008725D01*
X005905Y008530D01*
X005905Y008320D01*
X005880Y008259D01*
X007511Y006628D01*
X007578Y006561D01*
X007615Y006473D01*
X007615Y003907D01*
X007639Y003905D01*
X007651Y003892D01*
X007686Y003884D01*
X007702Y003891D01*
X007764Y003866D01*
X007830Y003851D01*
X007839Y003836D01*
X007873Y003823D01*
X007890Y003827D01*
X007948Y003793D01*
X008011Y003768D01*
X008017Y003752D01*
X008048Y003733D01*
X008066Y003735D01*
X008118Y003692D01*
X008176Y003658D01*
X008181Y003641D01*
X008208Y003619D01*
X008226Y003618D01*
X008271Y003568D01*
X008323Y003525D01*
X008325Y003508D01*
X008349Y003481D01*
X008366Y003478D01*
X008403Y003421D01*
X008449Y003371D01*
X008448Y003354D01*
X008468Y003324D01*
X008484Y003318D01*
X008512Y003256D01*
X008549Y003200D01*
X008546Y003183D01*
X008561Y003150D01*
X008576Y003142D01*
X008595Y003077D01*
X008623Y003015D01*
X008617Y002999D01*
X008627Y002964D01*
X008640Y002954D01*
X008649Y002887D01*
X008668Y002822D01*
X008659Y002807D01*
X008664Y002771D01*
X008676Y002758D01*
X008674Y002691D01*
X008682Y002624D01*
X008672Y002610D01*
X008671Y002574D01*
X008681Y002560D01*
X008669Y002493D01*
X008667Y002426D01*
X008655Y002414D01*
X008648Y002379D01*
X008656Y002363D01*
X008634Y002299D01*
X008622Y002232D01*
X008608Y002223D01*
X008596Y002189D01*
X008601Y002172D01*
X008570Y002112D01*
X008548Y002048D01*
X008533Y002041D01*
X008516Y002009D01*
X008519Y001992D01*
X008479Y001937D01*
X008447Y001877D01*
X008431Y001872D01*
X008410Y001843D01*
X008410Y001826D01*
X008362Y001778D01*
X008322Y001723D01*
X008305Y001721D01*
X008279Y001695D01*
X008277Y001678D01*
X008222Y001638D01*
X008174Y001590D01*
X008157Y001590D01*
X008128Y001569D01*
X008123Y001553D01*
X008063Y001521D01*
X008008Y001481D01*
X007991Y001484D01*
X007959Y001467D01*
X007952Y001452D01*
X007888Y001430D01*
X007828Y001399D01*
X007811Y001404D01*
X007777Y001392D01*
X007768Y001378D01*
X007701Y001366D01*
X007637Y001344D01*
X007621Y001352D01*
X007615Y001351D01*
X007615Y001224D01*
X007974Y000865D01*
X031526Y000865D01*
X033885Y003224D01*
X033885Y010876D01*
X033865Y010856D01*
X033865Y003410D01*
X033869Y003399D01*
X033865Y003363D01*
X033865Y003327D01*
X033860Y003316D01*
X033859Y003304D01*
X033842Y003272D01*
X033828Y003239D01*
X033820Y003230D01*
X033814Y003219D01*
X033786Y003197D01*
X033761Y003172D01*
X033750Y003167D01*
X031036Y000947D01*
X031011Y000922D01*
X031000Y000917D01*
X030990Y000909D01*
X030956Y000899D01*
X030923Y000885D01*
X030910Y000885D01*
X030899Y000881D01*
X030863Y000885D01*
X021577Y000885D01*
X021489Y000922D01*
X021422Y000989D01*
X021172Y001239D01*
X021135Y001327D01*
X021135Y001345D01*
X021113Y001351D01*
X021046Y001360D01*
X021036Y001373D01*
X021001Y001383D01*
X020985Y001377D01*
X020923Y001405D01*
X020858Y001424D01*
X020850Y001439D01*
X020817Y001454D01*
X020800Y001451D01*
X020744Y001488D01*
X020682Y001516D01*
X020676Y001532D01*
X020646Y001552D01*
X020629Y001551D01*
X020579Y001597D01*
X020522Y001634D01*
X020519Y001651D01*
X020492Y001675D01*
X020475Y001677D01*
X020432Y001729D01*
X020382Y001774D01*
X020381Y001792D01*
X020359Y001819D01*
X020342Y001824D01*
X020308Y001882D01*
X020265Y001934D01*
X020267Y001952D01*
X020248Y001983D01*
X020232Y001989D01*
X020207Y002052D01*
X020173Y002110D01*
X020177Y002127D01*
X020164Y002161D01*
X020149Y002170D01*
X020134Y002236D01*
X020109Y002298D01*
X020116Y002314D01*
X020108Y002349D01*
X020095Y002361D01*
X020089Y002428D01*
X020074Y002494D01*
X020083Y002509D01*
X020081Y002544D01*
X020070Y002557D01*
X020074Y002625D01*
X020069Y002692D01*
X020080Y002705D01*
X020082Y002729D01*
X020073Y002743D01*
X020088Y002810D01*
X020093Y002878D01*
X020105Y002889D01*
X020110Y002912D01*
X020103Y002927D01*
X020127Y002991D01*
X020142Y003058D01*
X020155Y003067D01*
X020164Y003089D01*
X020159Y003105D01*
X020192Y003165D01*
X020216Y003229D01*
X020231Y003236D01*
X020242Y003257D01*
X020240Y003273D01*
X020281Y003328D01*
X020314Y003388D01*
X020329Y003393D01*
X020344Y003412D01*
X020344Y003428D01*
X020392Y003477D01*
X020433Y003532D01*
X020449Y003534D01*
X020466Y003551D01*
X020468Y003567D01*
X020523Y003608D01*
X020572Y003656D01*
X020588Y003656D01*
X020607Y003671D01*
X020612Y003686D01*
X020672Y003719D01*
X020727Y003760D01*
X020743Y003758D01*
X020764Y003769D01*
X020771Y003784D01*
X020835Y003808D01*
X020895Y003841D01*
X020911Y003836D01*
X020933Y003845D01*
X020942Y003858D01*
X021009Y003873D01*
X021073Y003897D01*
X021088Y003890D01*
X021111Y003895D01*
X021122Y003907D01*
X021190Y003912D01*
X021257Y003927D01*
X021271Y003918D01*
X021295Y003920D01*
X021308Y003931D01*
X021375Y003926D01*
X021443Y003930D01*
X021456Y003919D01*
X021491Y003917D01*
X021506Y003926D01*
X021572Y003911D01*
X021639Y003905D01*
X021651Y003892D01*
X021686Y003884D01*
X021702Y003891D01*
X021764Y003866D01*
X021830Y003851D01*
X021839Y003836D01*
X021873Y003823D01*
X021890Y003827D01*
X021948Y003793D01*
X022011Y003768D01*
X022017Y003752D01*
X022048Y003733D01*
X022066Y003735D01*
X022118Y003692D01*
X022176Y003658D01*
X022181Y003641D01*
X022208Y003619D01*
X022226Y003618D01*
X022271Y003568D01*
X022323Y003525D01*
X022325Y003508D01*
X022349Y003481D01*
X022366Y003478D01*
X022403Y003421D01*
X022449Y003371D01*
X022448Y003354D01*
X022468Y003324D01*
X022484Y003318D01*
X022512Y003256D01*
X022549Y003200D01*
X022546Y003183D01*
X022561Y003150D01*
X022576Y003142D01*
X022595Y003077D01*
X022623Y003015D01*
X022617Y002999D01*
X022627Y002964D01*
X022640Y002954D01*
X022649Y002887D01*
X022668Y002822D01*
X022659Y002807D01*
X022664Y002771D01*
X022676Y002758D01*
X022674Y002691D01*
X022682Y002624D01*
X022672Y002610D01*
X022671Y002574D01*
X022681Y002560D01*
X022669Y002493D01*
X022667Y002426D01*
X022655Y002414D01*
X022648Y002379D01*
X022656Y002363D01*
X022634Y002299D01*
X022622Y002232D01*
X022608Y002223D01*
X022596Y002189D01*
X022601Y002172D01*
X022570Y002112D01*
X022548Y002048D01*
X022533Y002041D01*
X022516Y002009D01*
X022519Y001992D01*
X022479Y001937D01*
X022447Y001877D01*
X022431Y001872D01*
X022410Y001843D01*
X022410Y001826D01*
X022362Y001778D01*
X022322Y001723D01*
X022305Y001721D01*
X022279Y001695D01*
X022277Y001678D01*
X022222Y001638D01*
X022174Y001590D01*
X022157Y001590D01*
X022128Y001569D01*
X022123Y001553D01*
X022063Y001521D01*
X022008Y001481D01*
X021991Y001484D01*
X021959Y001467D01*
X021952Y001452D01*
X021888Y001430D01*
X021828Y001399D01*
X021811Y001404D01*
X021777Y001392D01*
X021768Y001378D01*
X021720Y001369D01*
X021724Y001365D01*
X027981Y001365D01*
X027963Y001370D01*
X027935Y001378D01*
X027935Y001378D01*
X027827Y001423D01*
X027804Y001433D01*
X027804Y001433D01*
X027698Y001491D01*
X027680Y001500D01*
X027680Y001500D01*
X027579Y001571D01*
X027564Y001581D01*
X027564Y001581D01*
X027470Y001663D01*
X027457Y001674D01*
X027457Y001674D01*
X027361Y001777D01*
X027361Y001777D01*
X027276Y001891D01*
X027276Y001891D01*
X027204Y002012D01*
X027204Y002012D01*
X027145Y002141D01*
X027145Y002141D01*
X027100Y002275D01*
X027100Y002275D01*
X027070Y002414D01*
X027070Y002414D01*
X027056Y002545D01*
X028295Y002545D01*
X028295Y002705D01*
X028295Y003944D01*
X028168Y003931D01*
X028033Y003902D01*
X027901Y003859D01*
X027775Y003803D01*
X027655Y003734D01*
X027543Y003652D01*
X027440Y003560D01*
X027348Y003457D01*
X027266Y003345D01*
X027240Y003299D01*
X027197Y003225D01*
X027173Y003171D01*
X027141Y003099D01*
X027141Y003099D01*
X027120Y003036D01*
X027098Y002967D01*
X027082Y002893D01*
X027069Y002832D01*
X027069Y002832D01*
X027056Y002705D01*
X028295Y002705D01*
X028455Y002705D01*
X028455Y003944D01*
X028586Y003930D01*
X028586Y003930D01*
X028660Y003914D01*
X028725Y003900D01*
X028725Y003900D01*
X028805Y003873D01*
X028859Y003855D01*
X028859Y003855D01*
X028943Y003817D01*
X028988Y003796D01*
X028988Y003796D01*
X029071Y003747D01*
X029109Y003724D01*
X029109Y003724D01*
X029190Y003664D01*
X029223Y003639D01*
X029223Y003639D01*
X029326Y003543D01*
X029326Y003543D01*
X029419Y003436D01*
X029419Y003436D01*
X029500Y003320D01*
X029500Y003320D01*
X029567Y003196D01*
X029567Y003196D01*
X029622Y003065D01*
X029622Y003065D01*
X029661Y002929D01*
X029661Y002929D01*
X029687Y002790D01*
X029687Y002790D01*
X029693Y002705D01*
X028455Y002705D01*
X028455Y002545D01*
X029693Y002545D01*
X029692Y002507D01*
X029671Y002367D01*
X029671Y002367D01*
X029636Y002230D01*
X029587Y002097D01*
X029524Y001971D01*
X029447Y001852D01*
X029358Y001742D01*
X029358Y001742D01*
X029258Y001642D01*
X029148Y001553D01*
X029029Y001476D01*
X028903Y001413D01*
X028774Y001365D01*
X030789Y001365D01*
X033385Y003489D01*
X033385Y010856D01*
X033320Y010921D01*
X033265Y011053D01*
X033265Y011197D01*
X033320Y011329D01*
X033421Y011430D01*
X033553Y011485D01*
X033697Y011485D01*
X033829Y011430D01*
X033885Y011374D01*
X033885Y012345D01*
X033689Y012345D01*
X033595Y012439D01*
X033595Y012625D01*
X033574Y012575D01*
X033425Y012426D01*
X033230Y012345D01*
X033020Y012345D01*
X032825Y012426D01*
X032676Y012575D01*
X032595Y012770D01*
X032595Y012980D01*
X032676Y013175D01*
X032825Y013324D01*
X032947Y013375D01*
X032825Y013426D01*
X032676Y013575D01*
X032651Y013635D01*
X032577Y013635D01*
X032489Y013672D01*
X032239Y013922D01*
X032172Y013989D01*
X032135Y014077D01*
X032135Y021026D01*
X032026Y021135D01*
X031349Y021135D01*
X031324Y021075D01*
X031175Y020926D01*
X031053Y020875D01*
X031175Y020824D01*
X031324Y020675D01*
X031405Y020480D01*
X031405Y020270D01*
X031324Y020075D01*
X031175Y019926D01*
X031053Y019875D01*
X031175Y019824D01*
X031324Y019675D01*
X031405Y019480D01*
X031405Y019270D01*
X031324Y019075D01*
X031175Y018926D01*
X031115Y018901D01*
X031115Y018599D01*
X031175Y018574D01*
X031324Y018425D01*
X031405Y018230D01*
X031405Y018020D01*
X031324Y017825D01*
X031175Y017676D01*
X031115Y017651D01*
X031115Y015077D01*
X031078Y014989D01*
X031011Y014922D01*
X030727Y014637D01*
X030770Y014655D01*
X030980Y014655D01*
X031175Y014574D01*
X031324Y014425D01*
X031405Y014230D01*
X031405Y014020D01*
X031324Y013825D01*
X031175Y013676D01*
X031115Y013651D01*
X031115Y013349D01*
X031175Y013324D01*
X031324Y013175D01*
X031405Y012980D01*
X031405Y012770D01*
X031324Y012575D01*
X031175Y012426D01*
X030980Y012345D01*
X030770Y012345D01*
X030575Y012426D01*
X030426Y012575D01*
X030345Y012770D01*
X030345Y012980D01*
X030426Y013175D01*
X030575Y013324D01*
X030635Y013349D01*
X030635Y013651D01*
X030575Y013676D01*
X030426Y013825D01*
X030345Y014020D01*
X030345Y014086D01*
X030329Y014070D01*
X030197Y014015D01*
X030053Y014015D01*
X029921Y014070D01*
X029820Y014171D01*
X029765Y014303D01*
X029765Y014447D01*
X029820Y014579D01*
X029921Y014680D01*
X030053Y014735D01*
X030146Y014735D01*
X030635Y015224D01*
X030635Y017651D01*
X030575Y017676D01*
X030426Y017825D01*
X030345Y018020D01*
X030345Y018230D01*
X030426Y018425D01*
X030575Y018574D01*
X030635Y018599D01*
X030635Y018901D01*
X030575Y018926D01*
X030426Y019075D01*
X030345Y019270D01*
X030345Y019480D01*
X030426Y019675D01*
X030575Y019824D01*
X030697Y019875D01*
X030575Y019926D01*
X030426Y020075D01*
X030401Y020135D01*
X028974Y020135D01*
X028615Y019776D01*
X028615Y015849D01*
X028675Y015824D01*
X028824Y015675D01*
X028905Y015480D01*
X028905Y015270D01*
X028824Y015075D01*
X028675Y014926D01*
X028553Y014875D01*
X028675Y014824D01*
X028824Y014675D01*
X028905Y014480D01*
X028905Y014270D01*
X028824Y014075D01*
X028675Y013926D01*
X028553Y013875D01*
X028675Y013824D01*
X028824Y013675D01*
X028905Y013480D01*
X028905Y013270D01*
X028824Y013075D01*
X028675Y012926D01*
X028480Y012845D01*
X028270Y012845D01*
X028075Y012926D01*
X027926Y013075D01*
X027845Y013270D01*
X027845Y013480D01*
X027926Y013675D01*
X028075Y013824D01*
X028197Y013875D01*
X028075Y013926D01*
X027926Y014075D01*
X027845Y014270D01*
X027845Y014480D01*
X027926Y014675D01*
X028075Y014824D01*
X028197Y014875D01*
X028075Y014926D01*
X027926Y015075D01*
X027845Y015270D01*
X027845Y015480D01*
X027926Y015675D01*
X028075Y015824D01*
X028135Y015849D01*
X028135Y019923D01*
X028172Y020011D01*
X028672Y020511D01*
X028739Y020578D01*
X028827Y020615D01*
X030401Y020615D01*
X030426Y020675D01*
X030575Y020824D01*
X030697Y020875D01*
X030575Y020926D01*
X030426Y021075D01*
X030345Y021270D01*
X030345Y021480D01*
X030426Y021675D01*
X030575Y021824D01*
X030770Y021905D01*
X030980Y021905D01*
X031175Y021824D01*
X031324Y021675D01*
X031349Y021615D01*
X032173Y021615D01*
X032261Y021578D01*
X032328Y021511D01*
X032578Y021261D01*
X032615Y021173D01*
X032615Y016029D01*
X032676Y016175D01*
X032825Y016324D01*
X032885Y016349D01*
X032885Y025526D01*
X032526Y025885D01*
X029649Y025885D01*
X029648Y025879D01*
X029656Y025863D01*
X029634Y025799D01*
X029622Y025732D01*
X029608Y025723D01*
X029596Y025689D01*
X029601Y025672D01*
X029570Y025612D01*
X029548Y025548D01*
X029533Y025541D01*
X029516Y025509D01*
X029519Y025492D01*
X029479Y025437D01*
X029447Y025377D01*
X029431Y025372D01*
X029410Y025343D01*
X029410Y025326D01*
X029362Y025278D01*
X029322Y025223D01*
X029305Y025221D01*
X029279Y025195D01*
X029277Y025178D01*
X029222Y025138D01*
X029174Y025090D01*
X029157Y025090D01*
X029128Y025069D01*
X029123Y025053D01*
X029063Y025021D01*
X029008Y024981D01*
X028991Y024984D01*
X028959Y024967D01*
X028952Y024952D01*
X028888Y024930D01*
X028828Y024899D01*
X028811Y024904D01*
X028777Y024892D01*
X028768Y024878D01*
X028701Y024866D01*
X028637Y024844D01*
X028621Y024852D01*
X028586Y024845D01*
X028574Y024833D01*
X028507Y024831D01*
X028440Y024819D01*
X028426Y024829D01*
X028390Y024828D01*
X028376Y024818D01*
X028309Y024826D01*
X028242Y024824D01*
X028229Y024836D01*
X028193Y024841D01*
X028178Y024832D01*
X028113Y024851D01*
X028046Y024860D01*
X028036Y024873D01*
X028001Y024883D01*
X027985Y024877D01*
X027923Y024905D01*
X027858Y024924D01*
X027850Y024939D01*
X027817Y024954D01*
X027800Y024951D01*
X027744Y024988D01*
X027682Y025016D01*
X027676Y025032D01*
X027646Y025052D01*
X027629Y025051D01*
X027579Y025097D01*
X027522Y025134D01*
X027519Y025151D01*
X027492Y025175D01*
X027475Y025177D01*
X027432Y025229D01*
X027382Y025274D01*
X027381Y025292D01*
X027359Y025319D01*
X027342Y025324D01*
X027308Y025382D01*
X027265Y025434D01*
X027267Y025452D01*
X027248Y025483D01*
X027232Y025489D01*
X027207Y025552D01*
X027173Y025610D01*
X027177Y025627D01*
X027164Y025661D01*
X027149Y025670D01*
X027134Y025736D01*
X027109Y025798D01*
X027116Y025814D01*
X027108Y025849D01*
X027095Y025861D01*
X027089Y025928D01*
X027074Y025994D01*
X027083Y026009D01*
X027081Y026044D01*
X027070Y026057D01*
X027074Y026125D01*
X027069Y026192D01*
X027080Y026205D01*
X027082Y026229D01*
X027073Y026243D01*
X027088Y026310D01*
X027093Y026378D01*
X027105Y026389D01*
X027110Y026412D01*
X027103Y026427D01*
X027127Y026491D01*
X027142Y026558D01*
X027155Y026567D01*
X027164Y026589D01*
X027159Y026605D01*
X027192Y026665D01*
X027216Y026729D01*
X027231Y026736D01*
X027242Y026757D01*
X027240Y026773D01*
X027281Y026828D01*
X027314Y026888D01*
X027329Y026893D01*
X027344Y026912D01*
X027344Y026928D01*
X027392Y026977D01*
X027433Y027032D01*
X027449Y027034D01*
X027466Y027051D01*
X027468Y027067D01*
X027523Y027108D01*
X027572Y027156D01*
X027588Y027156D01*
X027607Y027171D01*
X027612Y027186D01*
X027672Y027219D01*
X027727Y027260D01*
X027743Y027258D01*
X027764Y027269D01*
X027771Y027284D01*
X027835Y027308D01*
X027895Y027341D01*
X027911Y027336D01*
X027933Y027345D01*
X027942Y027358D01*
X028009Y027373D01*
X028073Y027397D01*
X028088Y027390D01*
X028111Y027395D01*
X028122Y027407D01*
X028190Y027412D01*
X028257Y027427D01*
X028271Y027418D01*
X028295Y027420D01*
X028308Y027431D01*
X028375Y027426D01*
X028443Y027430D01*
X028456Y027419D01*
X028491Y027417D01*
X028506Y027426D01*
X028572Y027411D01*
X028639Y027405D01*
X028651Y027392D01*
X028686Y027384D01*
X028702Y027391D01*
X028764Y027366D01*
X028830Y027351D01*
X028839Y027336D01*
X028873Y027323D01*
X028890Y027327D01*
X028948Y027293D01*
X029011Y027268D01*
X029017Y027252D01*
X029048Y027233D01*
X029066Y027235D01*
X029118Y027192D01*
X029176Y027158D01*
X029181Y027141D01*
X029208Y027119D01*
X029226Y027118D01*
X029271Y027068D01*
X029323Y027025D01*
X029325Y027008D01*
X029349Y026981D01*
X029366Y026978D01*
X029403Y026921D01*
X029449Y026871D01*
X029448Y026854D01*
X029468Y026824D01*
X029484Y026818D01*
X029512Y026756D01*
X029549Y026700D01*
X029546Y026683D01*
X029561Y026650D01*
X029576Y026642D01*
X029595Y026577D01*
X029623Y026515D01*
X029617Y026499D01*
X029627Y026464D01*
X029640Y026454D01*
X029649Y026387D01*
X029655Y026365D01*
X032673Y026365D01*
X032761Y026328D01*
X033261Y025828D01*
X033328Y025761D01*
X033365Y025673D01*
X033365Y016349D01*
X033425Y016324D01*
X033574Y016175D01*
X033614Y016081D01*
X033615Y016086D01*
X033655Y016163D01*
X033705Y016233D01*
X033767Y016295D01*
X033837Y016345D01*
X033914Y016385D01*
X033996Y016411D01*
X034082Y016425D01*
X034105Y016425D01*
X034105Y015895D01*
X034145Y015895D01*
X034145Y016425D01*
X034168Y016425D01*
X034254Y016411D01*
X034336Y016385D01*
X034413Y016345D01*
X034483Y016295D01*
X034545Y016233D01*
X034595Y016163D01*
X034635Y016086D01*
X034661Y016004D01*
X034675Y015918D01*
X034675Y015895D01*
X034145Y015895D01*
X034145Y015855D01*
X034675Y015855D01*
X034675Y015832D01*
X034661Y015746D01*
X034635Y015664D01*
X034595Y015587D01*
X034545Y015517D01*
X034483Y015455D01*
X034413Y015405D01*
X034336Y015365D01*
X034331Y015364D01*
X034425Y015324D01*
X034574Y015175D01*
X034655Y014980D01*
X034655Y014770D01*
X034574Y014575D01*
X034425Y014426D01*
X034303Y014375D01*
X034425Y014324D01*
X034574Y014175D01*
X034599Y014115D01*
X034673Y014115D01*
X034761Y014078D01*
X034828Y014011D01*
X035078Y013761D01*
X035115Y013673D01*
X035115Y004644D01*
X035175Y004584D01*
X035175Y027085D01*
X035096Y026894D01*
X035096Y026894D01*
X034856Y026654D01*
X034856Y026654D01*
X034544Y026525D01*
X034206Y026525D01*
X033894Y026654D01*
X033894Y026654D01*
X033654Y026894D01*
X033654Y026894D01*
X033525Y027206D01*
X033525Y027544D01*
X033654Y027856D01*
X033654Y027856D01*
X033654Y027856D01*
X033894Y028096D01*
X034085Y028175D01*
X001665Y028175D01*
X001856Y028096D01*
X001856Y028096D01*
X002096Y027856D01*
X002096Y027856D01*
X002225Y027544D01*
X002225Y027206D01*
X002096Y026894D01*
X002096Y026894D01*
X002096Y026894D01*
X001856Y026654D01*
X001856Y026654D01*
X001544Y026525D01*
X001206Y026525D01*
X000894Y026654D01*
X000894Y026654D01*
X000654Y026894D01*
X000654Y026894D01*
X000575Y027085D01*
X000575Y016325D01*
X000632Y016325D01*
X001128Y016192D01*
X001128Y016192D01*
X001572Y015935D01*
X001572Y015935D01*
X001935Y015572D01*
X001935Y015572D01*
X002192Y015128D01*
X002192Y015128D01*
X002325Y014632D01*
X002325Y014118D01*
X002192Y013622D01*
X002192Y013622D01*
X001935Y013178D01*
X001935Y013178D01*
X001935Y013178D01*
X001572Y012815D01*
X001572Y012815D01*
X001128Y012558D01*
X000632Y012425D01*
X000575Y012425D01*
X000575Y001665D01*
X000654Y001856D01*
X000654Y001856D01*
X000894Y002096D01*
X000894Y002096D01*
X001206Y002225D01*
X001544Y002225D01*
X001856Y002096D01*
X001856Y002096D01*
X002096Y001856D01*
X002096Y001856D01*
X002225Y001544D01*
X002225Y001206D01*
X002096Y000894D01*
X002096Y000894D01*
X001856Y000654D01*
X001856Y000654D01*
X001894Y000692D02*
X007469Y000692D01*
X007310Y000851D02*
X002053Y000851D01*
X002143Y001009D02*
X007163Y001009D01*
X007135Y001168D02*
X002209Y001168D01*
X002225Y001326D02*
X007135Y001326D01*
X007375Y001125D02*
X007375Y002625D01*
X007375Y006425D01*
X005375Y008425D01*
X005375Y009925D01*
X005866Y009727D02*
X008135Y009727D01*
X008135Y009885D02*
X005905Y009885D01*
X005900Y010044D02*
X008135Y010044D01*
X008135Y010202D02*
X005834Y010202D01*
X005689Y010361D02*
X008135Y010361D01*
X008135Y010519D02*
X005719Y010519D01*
X005846Y010678D02*
X008135Y010678D01*
X008135Y010836D02*
X005905Y010836D01*
X005905Y010995D02*
X008135Y010995D01*
X008135Y011153D02*
X005854Y011153D01*
X005738Y011312D02*
X008135Y011312D01*
X008135Y011470D02*
X005662Y011470D01*
X005826Y011629D02*
X008135Y011629D01*
X008135Y011651D02*
X008135Y008899D01*
X008075Y008874D01*
X007926Y008725D01*
X007845Y008530D01*
X007845Y008320D01*
X007926Y008125D01*
X008075Y007976D01*
X008270Y007895D01*
X008480Y007895D01*
X008675Y007976D01*
X008824Y008125D01*
X008905Y008320D01*
X008905Y008530D01*
X008824Y008725D01*
X008675Y008874D01*
X008615Y008899D01*
X008615Y011651D01*
X008675Y011676D01*
X008824Y011825D01*
X008905Y012020D01*
X008905Y012230D01*
X008824Y012425D01*
X008675Y012574D01*
X008553Y012625D01*
X008675Y012676D01*
X008824Y012825D01*
X008905Y013020D01*
X008905Y013230D01*
X008824Y013425D01*
X008675Y013574D01*
X008553Y013625D01*
X008675Y013676D01*
X008824Y013825D01*
X008905Y014020D01*
X008905Y014230D01*
X008824Y014425D01*
X008675Y014574D01*
X008615Y014599D01*
X008615Y019901D01*
X008675Y019926D01*
X008824Y020075D01*
X008905Y020270D01*
X008905Y020480D01*
X008880Y020541D01*
X008974Y020635D01*
X011221Y020635D01*
X011075Y020574D01*
X010926Y020425D01*
X010845Y020230D01*
X010845Y020020D01*
X010926Y019825D01*
X011075Y019676D01*
X011197Y019625D01*
X011075Y019574D01*
X010926Y019425D01*
X010845Y019230D01*
X010845Y019020D01*
X010926Y018825D01*
X011075Y018676D01*
X011197Y018625D01*
X011075Y018574D01*
X010926Y018425D01*
X010901Y018365D01*
X010827Y018365D01*
X010739Y018328D01*
X010489Y018078D01*
X010422Y018011D01*
X010385Y017923D01*
X010385Y014077D01*
X010422Y013989D01*
X010672Y013739D01*
X010739Y013672D01*
X010827Y013635D01*
X010901Y013635D01*
X010926Y013575D01*
X011075Y013426D01*
X011270Y013345D01*
X011480Y013345D01*
X011675Y013426D01*
X011824Y013575D01*
X011885Y013721D01*
X011885Y012274D01*
X011828Y012217D01*
X011824Y012225D01*
X011675Y012374D01*
X011480Y012455D01*
X011270Y012455D01*
X011075Y012374D01*
X010926Y012225D01*
X010845Y012030D01*
X010845Y011820D01*
X010926Y011625D01*
X011075Y011476D01*
X011197Y011425D01*
X011075Y011374D01*
X010926Y011225D01*
X010845Y011030D01*
X010845Y010820D01*
X010926Y010625D01*
X011075Y010476D01*
X011197Y010425D01*
X011075Y010374D01*
X010926Y010225D01*
X010845Y010030D01*
X010845Y009820D01*
X010926Y009625D01*
X011075Y009476D01*
X011135Y009451D01*
X011135Y008899D01*
X011075Y008874D01*
X010926Y008725D01*
X010845Y008530D01*
X010845Y008320D01*
X010926Y008125D01*
X011075Y007976D01*
X011270Y007895D01*
X011480Y007895D01*
X011675Y007976D01*
X011824Y008125D01*
X011905Y008320D01*
X011905Y008530D01*
X011824Y008725D01*
X011675Y008874D01*
X011615Y008899D01*
X011615Y009451D01*
X011675Y009476D01*
X011824Y009625D01*
X011905Y009820D01*
X011905Y010030D01*
X011824Y010225D01*
X011675Y010374D01*
X011553Y010425D01*
X011675Y010476D01*
X011824Y010625D01*
X011905Y010820D01*
X011905Y011030D01*
X011824Y011225D01*
X011675Y011374D01*
X011553Y011425D01*
X011675Y011476D01*
X011824Y011625D01*
X011849Y011685D01*
X011923Y011685D01*
X012011Y011722D01*
X012078Y011789D01*
X012328Y012039D01*
X012365Y012127D01*
X012365Y015673D01*
X012328Y015761D01*
X012261Y015828D01*
X012011Y016078D01*
X011923Y016115D01*
X011849Y016115D01*
X011824Y016175D01*
X011675Y016324D01*
X011480Y016405D01*
X011270Y016405D01*
X011075Y016324D01*
X010926Y016175D01*
X010865Y016029D01*
X010865Y017776D01*
X010922Y017833D01*
X010926Y017825D01*
X011075Y017676D01*
X011270Y017595D01*
X011480Y017595D01*
X011675Y017676D01*
X011824Y017825D01*
X011905Y018020D01*
X011905Y018230D01*
X011824Y018425D01*
X011675Y018574D01*
X011553Y018625D01*
X011675Y018676D01*
X011824Y018825D01*
X011849Y018885D01*
X012276Y018885D01*
X012885Y018276D01*
X012885Y003577D01*
X012922Y003489D01*
X013206Y003204D01*
X013192Y003165D01*
X013159Y003105D01*
X013164Y003089D01*
X013155Y003067D01*
X013142Y003058D01*
X013127Y002991D01*
X013103Y002927D01*
X013110Y002912D01*
X013105Y002889D01*
X013093Y002878D01*
X013088Y002810D01*
X013073Y002743D01*
X013082Y002729D01*
X013080Y002705D01*
X013069Y002692D01*
X013074Y002625D01*
X013070Y002557D01*
X013081Y002544D01*
X013083Y002509D01*
X013074Y002494D01*
X013089Y002428D01*
X013095Y002361D01*
X013108Y002349D01*
X013116Y002314D01*
X013109Y002298D01*
X013134Y002236D01*
X013149Y002170D01*
X013164Y002161D01*
X013177Y002127D01*
X013173Y002110D01*
X013207Y002052D01*
X013232Y001989D01*
X013248Y001983D01*
X013267Y001952D01*
X013265Y001934D01*
X013308Y001882D01*
X013342Y001824D01*
X013359Y001819D01*
X013381Y001792D01*
X013382Y001774D01*
X013432Y001729D01*
X013475Y001677D01*
X013492Y001675D01*
X013519Y001651D01*
X013522Y001634D01*
X013579Y001597D01*
X013629Y001551D01*
X013646Y001552D01*
X013676Y001532D01*
X013682Y001516D01*
X013744Y001488D01*
X013800Y001451D01*
X013817Y001454D01*
X013850Y001439D01*
X013858Y001424D01*
X013923Y001405D01*
X013985Y001377D01*
X014001Y001383D01*
X014036Y001373D01*
X014046Y001360D01*
X014113Y001351D01*
X014178Y001332D01*
X014193Y001341D01*
X014229Y001336D01*
X014242Y001324D01*
X014309Y001326D01*
X014376Y001318D01*
X014390Y001328D01*
X014426Y001329D01*
X014440Y001319D01*
X014507Y001331D01*
X014574Y001333D01*
X014586Y001345D01*
X014621Y001352D01*
X014637Y001344D01*
X014701Y001366D01*
X014768Y001378D01*
X014777Y001392D01*
X014811Y001404D01*
X014828Y001399D01*
X014888Y001430D01*
X014952Y001452D01*
X014959Y001467D01*
X014991Y001484D01*
X015008Y001481D01*
X015063Y001521D01*
X015123Y001553D01*
X015128Y001569D01*
X015157Y001590D01*
X015174Y001590D01*
X015222Y001638D01*
X015277Y001678D01*
X015279Y001695D01*
X015305Y001721D01*
X015322Y001723D01*
X015362Y001778D01*
X015410Y001826D01*
X015410Y001843D01*
X015431Y001872D01*
X015447Y001877D01*
X015479Y001937D01*
X015519Y001992D01*
X015516Y002009D01*
X015533Y002041D01*
X015548Y002048D01*
X015570Y002112D01*
X015601Y002172D01*
X015596Y002189D01*
X015608Y002223D01*
X015622Y002232D01*
X015634Y002299D01*
X015656Y002363D01*
X015648Y002379D01*
X015655Y002414D01*
X015667Y002426D01*
X015669Y002493D01*
X015681Y002560D01*
X015671Y002574D01*
X015672Y002610D01*
X015682Y002624D01*
X015674Y002691D01*
X015676Y002758D01*
X015664Y002771D01*
X015659Y002807D01*
X015668Y002822D01*
X015649Y002887D01*
X015640Y002954D01*
X015627Y002964D01*
X015617Y002999D01*
X015623Y003015D01*
X015595Y003077D01*
X015576Y003142D01*
X015561Y003150D01*
X015546Y003183D01*
X015549Y003200D01*
X015512Y003256D01*
X015484Y003318D01*
X015468Y003324D01*
X015448Y003354D01*
X015449Y003371D01*
X015403Y003421D01*
X015366Y003478D01*
X015349Y003481D01*
X015325Y003508D01*
X015323Y003525D01*
X015271Y003568D01*
X015226Y003618D01*
X015208Y003619D01*
X015181Y003641D01*
X015176Y003658D01*
X015118Y003692D01*
X015066Y003735D01*
X015048Y003733D01*
X015017Y003752D01*
X015011Y003768D01*
X014948Y003793D01*
X014890Y003827D01*
X014873Y003823D01*
X014839Y003836D01*
X014830Y003851D01*
X014764Y003866D01*
X014702Y003891D01*
X014686Y003884D01*
X014651Y003892D01*
X014639Y003905D01*
X014572Y003911D01*
X014506Y003926D01*
X014491Y003917D01*
X014456Y003919D01*
X014443Y003930D01*
X014375Y003926D01*
X014308Y003931D01*
X014295Y003920D01*
X014271Y003918D01*
X014257Y003927D01*
X014190Y003912D01*
X014122Y003907D01*
X014111Y003895D01*
X014088Y003890D01*
X014073Y003897D01*
X014009Y003873D01*
X013942Y003858D01*
X013933Y003845D01*
X013911Y003836D01*
X013895Y003841D01*
X013835Y003808D01*
X013771Y003784D01*
X013764Y003769D01*
X013743Y003758D01*
X013727Y003760D01*
X013672Y003719D01*
X013612Y003686D01*
X013607Y003671D01*
X013588Y003656D01*
X013572Y003656D01*
X013523Y003608D01*
X013499Y003590D01*
X013365Y003724D01*
X013365Y018423D01*
X013328Y018511D01*
X013261Y018578D01*
X012511Y019328D01*
X012423Y019365D01*
X011849Y019365D01*
X011824Y019425D01*
X011675Y019574D01*
X011553Y019625D01*
X011675Y019676D01*
X011824Y019825D01*
X011905Y020020D01*
X011905Y020230D01*
X011824Y020425D01*
X011675Y020574D01*
X011529Y020635D01*
X014276Y020635D01*
X014595Y020316D01*
X014595Y020270D01*
X014676Y020075D01*
X014825Y019926D01*
X015020Y019845D01*
X015230Y019845D01*
X015425Y019926D01*
X015574Y020075D01*
X015635Y020221D01*
X015635Y018474D01*
X015578Y018417D01*
X015574Y018425D01*
X015425Y018574D01*
X015230Y018655D01*
X015020Y018655D01*
X014825Y018574D01*
X014676Y018425D01*
X014595Y018230D01*
X014595Y018020D01*
X014676Y017825D01*
X014825Y017676D01*
X014947Y017625D01*
X014825Y017574D01*
X014676Y017425D01*
X014595Y017230D01*
X014595Y017020D01*
X014676Y016825D01*
X014825Y016676D01*
X014947Y016625D01*
X014825Y016574D01*
X014676Y016425D01*
X014595Y016230D01*
X014595Y016020D01*
X014676Y015825D01*
X014825Y015676D01*
X014885Y015651D01*
X014885Y009199D01*
X014825Y009174D01*
X014676Y009025D01*
X014595Y008830D01*
X014595Y008620D01*
X014676Y008425D01*
X014825Y008276D01*
X015020Y008195D01*
X015230Y008195D01*
X015425Y008276D01*
X015574Y008425D01*
X015655Y008620D01*
X015655Y008830D01*
X015574Y009025D01*
X015425Y009174D01*
X015365Y009199D01*
X015365Y015651D01*
X015425Y015676D01*
X015574Y015825D01*
X015655Y016020D01*
X015655Y016230D01*
X015574Y016425D01*
X015425Y016574D01*
X015303Y016625D01*
X015425Y016676D01*
X015574Y016825D01*
X015599Y016885D01*
X018026Y016885D01*
X018135Y016776D01*
X018135Y015599D01*
X018075Y015574D01*
X017926Y015425D01*
X017845Y015230D01*
X017845Y015020D01*
X017926Y014825D01*
X018075Y014676D01*
X018135Y014651D01*
X018135Y011349D01*
X018075Y011324D01*
X017926Y011175D01*
X017845Y010980D01*
X017845Y010770D01*
X017926Y010575D01*
X018075Y010426D01*
X018135Y010401D01*
X018135Y010349D01*
X018075Y010324D01*
X017926Y010175D01*
X017845Y009980D01*
X017845Y009770D01*
X017926Y009575D01*
X018075Y009426D01*
X018169Y009386D01*
X018164Y009385D01*
X018087Y009345D01*
X018017Y009295D01*
X017955Y009233D01*
X017905Y009163D01*
X017865Y009086D01*
X017839Y009004D01*
X017825Y008918D01*
X017825Y008875D01*
X018375Y008875D01*
X018375Y005925D01*
X018875Y005425D01*
X020125Y005425D01*
X020675Y005425D01*
X020675Y005468D01*
X020661Y005554D01*
X020635Y005636D01*
X020595Y005713D01*
X020545Y005783D01*
X020483Y005845D01*
X020413Y005895D01*
X020336Y005935D01*
X020331Y005936D01*
X020425Y005976D01*
X020574Y006125D01*
X020655Y006320D01*
X020655Y006530D01*
X020574Y006725D01*
X020425Y006874D01*
X020303Y006925D01*
X020425Y006976D01*
X020574Y007125D01*
X020655Y007320D01*
X020655Y007530D01*
X020630Y007591D01*
X021261Y008222D01*
X021328Y008289D01*
X021365Y008377D01*
X021365Y011656D01*
X021430Y011721D01*
X021485Y011853D01*
X021485Y011997D01*
X021430Y012129D01*
X021365Y012194D01*
X021365Y017673D01*
X021343Y017725D01*
X021365Y017778D01*
X021365Y017972D01*
X021290Y018153D01*
X021153Y018290D01*
X020972Y018365D01*
X020778Y018365D01*
X020597Y018290D01*
X020460Y018153D01*
X020385Y017972D01*
X020385Y017778D01*
X020460Y017597D01*
X020597Y017460D01*
X020778Y017385D01*
X020885Y017385D01*
X020885Y014374D01*
X020829Y014430D01*
X020697Y014485D01*
X020604Y014485D01*
X020365Y014724D01*
X020365Y025026D01*
X020504Y025164D01*
X020519Y025151D01*
X020522Y025134D01*
X020579Y025097D01*
X020629Y025051D01*
X020646Y025052D01*
X020676Y025032D01*
X020682Y025016D01*
X020744Y024988D01*
X020800Y024951D01*
X020817Y024954D01*
X020850Y024939D01*
X020858Y024924D01*
X020923Y024905D01*
X020985Y024877D01*
X021001Y024883D01*
X021036Y024873D01*
X021046Y024860D01*
X021113Y024851D01*
X021178Y024832D01*
X021193Y024841D01*
X021229Y024836D01*
X021242Y024824D01*
X021309Y024826D01*
X021376Y024818D01*
X021390Y024828D01*
X021426Y024829D01*
X021440Y024819D01*
X021507Y024831D01*
X021574Y024833D01*
X021586Y024845D01*
X021621Y024852D01*
X021637Y024844D01*
X021701Y024866D01*
X021768Y024878D01*
X021777Y024892D01*
X021811Y024904D01*
X021828Y024899D01*
X021888Y024930D01*
X021952Y024952D01*
X021959Y024967D01*
X021991Y024984D01*
X022008Y024981D01*
X022063Y025021D01*
X022123Y025053D01*
X022128Y025069D01*
X022157Y025090D01*
X022174Y025090D01*
X022222Y025138D01*
X022277Y025178D01*
X022279Y025195D01*
X022305Y025221D01*
X022322Y025223D01*
X022362Y025278D01*
X022410Y025326D01*
X022410Y025343D01*
X022431Y025372D01*
X022447Y025377D01*
X022479Y025437D01*
X022519Y025492D01*
X022516Y025509D01*
X022533Y025541D01*
X022548Y025548D01*
X022570Y025612D01*
X022601Y025672D01*
X022596Y025689D01*
X022608Y025723D01*
X022622Y025732D01*
X022634Y025799D01*
X022656Y025863D01*
X022648Y025879D01*
X022655Y025914D01*
X022667Y025926D01*
X022669Y025993D01*
X022681Y026060D01*
X022671Y026074D01*
X022672Y026110D01*
X022682Y026124D01*
X022674Y026191D01*
X022676Y026258D01*
X022664Y026271D01*
X022659Y026307D01*
X022668Y026322D01*
X022649Y026387D01*
X022640Y026454D01*
X022627Y026464D01*
X022617Y026499D01*
X022623Y026515D01*
X022595Y026577D01*
X022576Y026642D01*
X022561Y026650D01*
X022546Y026683D01*
X022549Y026700D01*
X022512Y026756D01*
X022484Y026818D01*
X022468Y026824D01*
X022448Y026854D01*
X022449Y026871D01*
X022403Y026921D01*
X022366Y026978D01*
X022349Y026981D01*
X022325Y027008D01*
X022323Y027025D01*
X022271Y027068D01*
X022226Y027118D01*
X022208Y027119D01*
X022181Y027141D01*
X022176Y027158D01*
X022118Y027192D01*
X022066Y027235D01*
X022048Y027233D01*
X022017Y027252D01*
X022011Y027268D01*
X021948Y027293D01*
X021890Y027327D01*
X021873Y027323D01*
X021839Y027336D01*
X021830Y027351D01*
X021764Y027366D01*
X021702Y027391D01*
X021686Y027384D01*
X021651Y027392D01*
X021639Y027405D01*
X021572Y027411D01*
X021506Y027426D01*
X021491Y027417D01*
X021456Y027419D01*
X021443Y027430D01*
X021375Y027426D01*
X021308Y027431D01*
X021295Y027420D01*
X021271Y027418D01*
X021257Y027427D01*
X021190Y027412D01*
X021122Y027407D01*
X021111Y027395D01*
X021088Y027390D01*
X021073Y027397D01*
X021009Y027373D01*
X020942Y027358D01*
X020933Y027345D01*
X020911Y027336D01*
X020895Y027341D01*
X020835Y027308D01*
X020771Y027284D01*
X020764Y027269D01*
X020743Y027258D01*
X020727Y027260D01*
X020672Y027219D01*
X020612Y027186D01*
X020607Y027171D01*
X020588Y027156D01*
X020572Y027156D01*
X020523Y027108D01*
X020468Y027067D01*
X020466Y027051D01*
X020449Y027034D01*
X020433Y027032D01*
X020392Y026977D01*
X020344Y026928D01*
X020344Y026912D01*
X020329Y026893D01*
X020314Y026888D01*
X020281Y026828D01*
X020240Y026773D01*
X020242Y026757D01*
X020231Y026736D01*
X020216Y026729D01*
X020192Y026665D01*
X020159Y026605D01*
X020164Y026589D01*
X020155Y026567D01*
X020142Y026558D01*
X020127Y026491D01*
X020103Y026427D01*
X020110Y026412D01*
X020105Y026389D01*
X020093Y026378D01*
X020088Y026310D01*
X020073Y026243D01*
X020082Y026229D01*
X020080Y026205D01*
X020069Y026192D01*
X020074Y026125D01*
X020070Y026057D01*
X020081Y026044D01*
X020083Y026009D01*
X020074Y025994D01*
X020089Y025928D01*
X020095Y025861D01*
X020108Y025849D01*
X020116Y025814D01*
X020109Y025798D01*
X020134Y025736D01*
X020149Y025670D01*
X020164Y025661D01*
X020177Y025627D01*
X020173Y025610D01*
X020207Y025552D01*
X020209Y025548D01*
X019922Y025261D01*
X019885Y025173D01*
X019885Y014577D01*
X019922Y014489D01*
X019989Y014422D01*
X020265Y014146D01*
X020265Y014053D01*
X020320Y013921D01*
X020421Y013820D01*
X020553Y013765D01*
X020697Y013765D01*
X020829Y013820D01*
X020885Y013876D01*
X020885Y012194D01*
X020820Y012129D01*
X020765Y011997D01*
X020765Y011853D01*
X020820Y011721D01*
X020885Y011656D01*
X020885Y008524D01*
X020291Y007930D01*
X020230Y007955D01*
X020020Y007955D01*
X019825Y007874D01*
X019676Y007725D01*
X019595Y007530D01*
X019595Y007320D01*
X019676Y007125D01*
X019825Y006976D01*
X019947Y006925D01*
X019825Y006874D01*
X019676Y006725D01*
X019595Y006530D01*
X019595Y006320D01*
X019676Y006125D01*
X019825Y005976D01*
X019919Y005936D01*
X019914Y005935D01*
X019837Y005895D01*
X019767Y005845D01*
X019705Y005783D01*
X019655Y005713D01*
X019615Y005636D01*
X019589Y005554D01*
X019575Y005468D01*
X019575Y005425D01*
X020125Y005425D01*
X020125Y005425D01*
X020125Y005425D01*
X020675Y005425D01*
X020675Y005382D01*
X020661Y005296D01*
X020635Y005214D01*
X020595Y005137D01*
X020545Y005067D01*
X020483Y005005D01*
X020413Y004955D01*
X020336Y004915D01*
X020254Y004889D01*
X020168Y004875D01*
X020125Y004875D01*
X020125Y005425D01*
X020125Y005425D01*
X019575Y005425D01*
X019575Y005382D01*
X019589Y005296D01*
X019615Y005214D01*
X019655Y005137D01*
X019705Y005067D01*
X019767Y005005D01*
X019837Y004955D01*
X019914Y004915D01*
X019996Y004889D01*
X020082Y004875D01*
X020125Y004875D01*
X020125Y005425D01*
X020125Y005289D02*
X020125Y005289D01*
X020125Y005130D02*
X020125Y005130D01*
X020125Y004972D02*
X020125Y004972D01*
X020437Y004972D02*
X022722Y004972D01*
X022676Y004925D02*
X022595Y004730D01*
X022595Y004520D01*
X022676Y004325D01*
X022825Y004176D01*
X023020Y004095D01*
X023230Y004095D01*
X023425Y004176D01*
X023574Y004325D01*
X023599Y004385D01*
X023673Y004385D01*
X023761Y004422D01*
X024078Y004739D01*
X024115Y004827D01*
X024115Y010173D01*
X024078Y010261D01*
X023761Y010578D01*
X023673Y010615D01*
X023599Y010615D01*
X023574Y010675D01*
X023425Y010824D01*
X023303Y010875D01*
X023425Y010926D01*
X023574Y011075D01*
X023655Y011270D01*
X023655Y011480D01*
X023574Y011675D01*
X023425Y011824D01*
X023303Y011875D01*
X023425Y011926D01*
X023574Y012075D01*
X023655Y012270D01*
X023655Y012480D01*
X023574Y012675D01*
X023425Y012824D01*
X023365Y012849D01*
X023365Y012901D01*
X023425Y012926D01*
X023574Y013075D01*
X023655Y013270D01*
X023655Y013480D01*
X023574Y013675D01*
X023425Y013824D01*
X023230Y013905D01*
X023020Y013905D01*
X022825Y013824D01*
X022676Y013675D01*
X022595Y013480D01*
X022595Y013270D01*
X022676Y013075D01*
X022825Y012926D01*
X022885Y012901D01*
X022885Y012849D01*
X022825Y012824D01*
X022676Y012675D01*
X022595Y012480D01*
X022595Y012270D01*
X022676Y012075D01*
X022825Y011926D01*
X022947Y011875D01*
X022825Y011824D01*
X022676Y011675D01*
X022595Y011480D01*
X022595Y011270D01*
X022676Y011075D01*
X022825Y010926D01*
X022947Y010875D01*
X022825Y010824D01*
X022676Y010675D01*
X022595Y010480D01*
X022595Y010270D01*
X022676Y010075D01*
X022825Y009926D01*
X023020Y009845D01*
X023230Y009845D01*
X023425Y009926D01*
X023574Y010075D01*
X023578Y010083D01*
X023635Y010026D01*
X023635Y008835D01*
X023635Y008836D01*
X023595Y008913D01*
X023545Y008983D01*
X023483Y009045D01*
X023413Y009095D01*
X023336Y009135D01*
X023254Y009161D01*
X023168Y009175D01*
X023134Y009175D01*
X023134Y008634D01*
X023116Y008634D01*
X023116Y009175D01*
X023082Y009175D01*
X022996Y009161D01*
X022914Y009135D01*
X022837Y009095D01*
X022767Y009045D01*
X022705Y008983D01*
X022655Y008913D01*
X022615Y008836D01*
X022589Y008754D01*
X022575Y008668D01*
X022575Y008634D01*
X023116Y008634D01*
X023116Y008616D01*
X023134Y008616D01*
X023134Y008075D01*
X023168Y008075D01*
X023254Y008089D01*
X023336Y008115D01*
X023413Y008155D01*
X023483Y008205D01*
X023545Y008267D01*
X023595Y008337D01*
X023635Y008414D01*
X023635Y008415D01*
X023635Y004974D01*
X023578Y004917D01*
X023574Y004925D01*
X023425Y005074D01*
X023230Y005155D01*
X023020Y005155D01*
X022825Y005074D01*
X022676Y004925D01*
X022629Y004813D02*
X015668Y004813D01*
X015661Y004854D02*
X015635Y004936D01*
X015595Y005013D01*
X015545Y005083D01*
X015483Y005145D01*
X015413Y005195D01*
X015336Y005235D01*
X015254Y005261D01*
X015168Y005275D01*
X015134Y005275D01*
X015134Y004734D01*
X015116Y004734D01*
X015116Y005275D01*
X015082Y005275D01*
X014996Y005261D01*
X014914Y005235D01*
X014837Y005195D01*
X014767Y005145D01*
X014705Y005083D01*
X014655Y005013D01*
X014615Y004936D01*
X014589Y004854D01*
X014575Y004768D01*
X014575Y004734D01*
X015116Y004734D01*
X015116Y004716D01*
X014575Y004716D01*
X014575Y004682D01*
X014589Y004596D01*
X014615Y004514D01*
X014655Y004437D01*
X014705Y004367D01*
X014767Y004305D01*
X014837Y004255D01*
X014914Y004215D01*
X014996Y004189D01*
X015082Y004175D01*
X015116Y004175D01*
X015116Y004716D01*
X015134Y004716D01*
X015134Y004734D01*
X015675Y004734D01*
X015675Y004768D01*
X015661Y004854D01*
X015617Y004972D02*
X019813Y004972D01*
X019659Y005130D02*
X015498Y005130D01*
X015134Y005130D02*
X015116Y005130D01*
X015116Y004972D02*
X015134Y004972D01*
X015134Y004813D02*
X015116Y004813D01*
X015134Y004716D02*
X015675Y004716D01*
X015675Y004682D01*
X015661Y004596D01*
X015635Y004514D01*
X015595Y004437D01*
X015545Y004367D01*
X015483Y004305D01*
X015413Y004255D01*
X015336Y004215D01*
X015254Y004189D01*
X015168Y004175D01*
X015134Y004175D01*
X015134Y004716D01*
X015134Y004655D02*
X015116Y004655D01*
X015116Y004496D02*
X015134Y004496D01*
X015134Y004338D02*
X015116Y004338D01*
X015116Y004179D02*
X015134Y004179D01*
X015194Y004179D02*
X022821Y004179D01*
X022670Y004338D02*
X015515Y004338D01*
X015626Y004496D02*
X022605Y004496D01*
X022595Y004655D02*
X015671Y004655D01*
X015056Y004179D02*
X013365Y004179D01*
X013365Y004021D02*
X033385Y004021D01*
X033385Y004179D02*
X026179Y004179D01*
X026175Y004176D02*
X026324Y004325D01*
X026349Y004385D01*
X026423Y004385D01*
X026511Y004422D01*
X026828Y004739D01*
X026865Y004827D01*
X026865Y010173D01*
X026828Y010261D01*
X026578Y010511D01*
X026511Y010578D01*
X026423Y010615D01*
X026349Y010615D01*
X026324Y010675D01*
X026175Y010824D01*
X026053Y010875D01*
X026175Y010926D01*
X026324Y011075D01*
X026405Y011270D01*
X026405Y011480D01*
X026324Y011675D01*
X026175Y011824D01*
X026053Y011875D01*
X026175Y011926D01*
X026324Y012075D01*
X026405Y012270D01*
X026405Y012480D01*
X026324Y012675D01*
X026175Y012824D01*
X026115Y012849D01*
X026115Y016401D01*
X026175Y016426D01*
X026324Y016575D01*
X026405Y016770D01*
X026405Y016980D01*
X026324Y017175D01*
X026175Y017324D01*
X026053Y017375D01*
X026175Y017426D01*
X026324Y017575D01*
X026405Y017770D01*
X026405Y017980D01*
X026324Y018175D01*
X026175Y018324D01*
X026053Y018375D01*
X026175Y018426D01*
X026324Y018575D01*
X026405Y018770D01*
X026405Y018980D01*
X026324Y019175D01*
X026175Y019324D01*
X025980Y019405D01*
X025770Y019405D01*
X025575Y019324D01*
X025426Y019175D01*
X025422Y019167D01*
X025365Y019224D01*
X025365Y020471D01*
X025426Y020325D01*
X025575Y020176D01*
X025770Y020095D01*
X025980Y020095D01*
X026175Y020176D01*
X026324Y020325D01*
X026405Y020520D01*
X026405Y020730D01*
X026324Y020925D01*
X026175Y021074D01*
X026053Y021125D01*
X026175Y021176D01*
X026324Y021325D01*
X026405Y021520D01*
X026405Y021730D01*
X026324Y021925D01*
X026175Y022074D01*
X026053Y022125D01*
X026175Y022176D01*
X026324Y022325D01*
X026405Y022520D01*
X026405Y022730D01*
X026324Y022925D01*
X026175Y023074D01*
X025980Y023155D01*
X025770Y023155D01*
X025575Y023074D01*
X025426Y022925D01*
X025401Y022865D01*
X025327Y022865D01*
X025239Y022828D01*
X025172Y022761D01*
X024922Y022511D01*
X024885Y022423D01*
X024885Y019077D01*
X024922Y018989D01*
X024989Y018922D01*
X025239Y018672D01*
X025327Y018635D01*
X025401Y018635D01*
X025426Y018575D01*
X025575Y018426D01*
X025697Y018375D01*
X025575Y018324D01*
X025426Y018175D01*
X025345Y017980D01*
X025345Y017770D01*
X025426Y017575D01*
X025575Y017426D01*
X025697Y017375D01*
X025575Y017324D01*
X025426Y017175D01*
X025345Y016980D01*
X025345Y016770D01*
X025426Y016575D01*
X025575Y016426D01*
X025635Y016401D01*
X025635Y012849D01*
X025575Y012824D01*
X025426Y012675D01*
X025345Y012480D01*
X025345Y012270D01*
X025426Y012075D01*
X025575Y011926D01*
X025697Y011875D01*
X025575Y011824D01*
X025426Y011675D01*
X025345Y011480D01*
X025345Y011270D01*
X025426Y011075D01*
X025575Y010926D01*
X025697Y010875D01*
X025575Y010824D01*
X025426Y010675D01*
X025345Y010480D01*
X025345Y010270D01*
X025426Y010075D01*
X025575Y009926D01*
X025770Y009845D01*
X025980Y009845D01*
X026175Y009926D01*
X026324Y010075D01*
X026328Y010083D01*
X026385Y010026D01*
X026385Y008835D01*
X026385Y008836D01*
X026345Y008913D01*
X026295Y008983D01*
X026233Y009045D01*
X026163Y009095D01*
X026086Y009135D01*
X026004Y009161D01*
X025918Y009175D01*
X025884Y009175D01*
X025884Y008634D01*
X025866Y008634D01*
X025866Y009175D01*
X025832Y009175D01*
X025746Y009161D01*
X025664Y009135D01*
X025587Y009095D01*
X025517Y009045D01*
X025455Y008983D01*
X025405Y008913D01*
X025365Y008836D01*
X025339Y008754D01*
X025325Y008668D01*
X025325Y008634D01*
X025866Y008634D01*
X025866Y008616D01*
X025325Y008616D01*
X025325Y008582D01*
X025339Y008496D01*
X025365Y008414D01*
X025405Y008337D01*
X025455Y008267D01*
X025517Y008205D01*
X025587Y008155D01*
X025664Y008115D01*
X025746Y008089D01*
X025832Y008075D01*
X025866Y008075D01*
X025866Y008616D01*
X025884Y008616D01*
X025884Y008075D01*
X025918Y008075D01*
X026004Y008089D01*
X026086Y008115D01*
X026163Y008155D01*
X026233Y008205D01*
X026295Y008267D01*
X026345Y008337D01*
X026385Y008414D01*
X026385Y008415D01*
X026385Y004974D01*
X026328Y004917D01*
X026324Y004925D01*
X026175Y005074D01*
X025980Y005155D01*
X025770Y005155D01*
X025575Y005074D01*
X025426Y004925D01*
X025345Y004730D01*
X025345Y004520D01*
X025426Y004325D01*
X025575Y004176D01*
X025770Y004095D01*
X025980Y004095D01*
X026175Y004176D01*
X026330Y004338D02*
X033385Y004338D01*
X033385Y004496D02*
X026585Y004496D01*
X026744Y004655D02*
X033385Y004655D01*
X033385Y004813D02*
X026859Y004813D01*
X026865Y004972D02*
X033385Y004972D01*
X033385Y005130D02*
X031065Y005130D01*
X030980Y005095D02*
X031175Y005176D01*
X031324Y005325D01*
X031349Y005385D01*
X031423Y005385D01*
X031511Y005422D01*
X031761Y005672D01*
X031828Y005739D01*
X031865Y005827D01*
X031865Y008673D01*
X031828Y008761D01*
X031578Y009011D01*
X031511Y009078D01*
X031423Y009115D01*
X031349Y009115D01*
X031324Y009175D01*
X031175Y009324D01*
X030980Y009405D01*
X030770Y009405D01*
X030575Y009324D01*
X030426Y009175D01*
X030345Y008980D01*
X030345Y008770D01*
X030426Y008575D01*
X030575Y008426D01*
X030770Y008345D01*
X030980Y008345D01*
X031175Y008426D01*
X031324Y008575D01*
X031328Y008583D01*
X031385Y008526D01*
X031385Y007835D01*
X031385Y007836D01*
X031345Y007913D01*
X031295Y007983D01*
X031385Y007983D01*
X031295Y007983D02*
X031233Y008045D01*
X031163Y008095D01*
X031086Y008135D01*
X031004Y008161D01*
X030918Y008175D01*
X030875Y008175D01*
X030875Y007625D01*
X030875Y007625D01*
X030875Y007625D01*
X030325Y007625D01*
X030325Y007668D01*
X030339Y007754D01*
X030365Y007836D01*
X030405Y007913D01*
X030455Y007983D01*
X030115Y007983D01*
X030115Y007825D02*
X030362Y007825D01*
X030325Y007666D02*
X030115Y007666D01*
X030115Y007508D02*
X030337Y007508D01*
X030339Y007496D02*
X030365Y007414D01*
X030405Y007337D01*
X030455Y007267D01*
X030517Y007205D01*
X030587Y007155D01*
X030664Y007115D01*
X030669Y007114D01*
X030575Y007074D01*
X030426Y006925D01*
X030401Y006865D01*
X030224Y006865D01*
X030115Y006974D01*
X030115Y011606D01*
X030180Y011671D01*
X030235Y011803D01*
X030235Y011947D01*
X030180Y012079D01*
X030079Y012180D01*
X029947Y012235D01*
X029803Y012235D01*
X029671Y012180D01*
X029570Y012079D01*
X029515Y011947D01*
X029515Y011803D01*
X029570Y011671D01*
X029635Y011606D01*
X029635Y006827D01*
X029672Y006739D01*
X029739Y006672D01*
X029989Y006422D01*
X030077Y006385D01*
X030401Y006385D01*
X030426Y006325D01*
X030575Y006176D01*
X030697Y006125D01*
X030575Y006074D01*
X030426Y005925D01*
X030345Y005730D01*
X030345Y005520D01*
X030426Y005325D01*
X030575Y005176D01*
X030770Y005095D01*
X030980Y005095D01*
X030685Y005130D02*
X026865Y005130D01*
X026865Y005289D02*
X030462Y005289D01*
X030375Y005447D02*
X026865Y005447D01*
X026865Y005606D02*
X030345Y005606D01*
X030359Y005764D02*
X026865Y005764D01*
X026865Y005923D02*
X030425Y005923D01*
X030591Y006081D02*
X026865Y006081D01*
X026865Y006240D02*
X030511Y006240D01*
X030046Y006398D02*
X026865Y006398D01*
X026865Y006557D02*
X029854Y006557D01*
X029696Y006715D02*
X026865Y006715D01*
X026865Y006874D02*
X029635Y006874D01*
X029635Y007032D02*
X026865Y007032D01*
X026865Y007191D02*
X029635Y007191D01*
X029635Y007349D02*
X026865Y007349D01*
X026865Y007508D02*
X029635Y007508D01*
X029635Y007666D02*
X026865Y007666D01*
X026865Y007825D02*
X029635Y007825D01*
X029635Y007983D02*
X026865Y007983D01*
X026865Y008142D02*
X029635Y008142D01*
X029635Y008300D02*
X026865Y008300D01*
X026865Y008459D02*
X029635Y008459D01*
X029635Y008617D02*
X026865Y008617D01*
X026865Y008776D02*
X029635Y008776D01*
X029635Y008934D02*
X026865Y008934D01*
X026865Y009093D02*
X029635Y009093D01*
X029635Y009251D02*
X026865Y009251D01*
X026865Y009410D02*
X029635Y009410D01*
X029635Y009568D02*
X026865Y009568D01*
X026865Y009727D02*
X029635Y009727D01*
X029635Y009885D02*
X026865Y009885D01*
X026865Y010044D02*
X029635Y010044D01*
X029635Y010202D02*
X026853Y010202D01*
X026729Y010361D02*
X029635Y010361D01*
X029635Y010519D02*
X026570Y010519D01*
X026375Y010375D02*
X026625Y010125D01*
X026625Y004875D01*
X026375Y004625D01*
X025875Y004625D01*
X026278Y004972D02*
X026382Y004972D01*
X026385Y005130D02*
X026041Y005130D01*
X025709Y005130D02*
X024115Y005130D01*
X024115Y004972D02*
X025472Y004972D01*
X025379Y004813D02*
X024109Y004813D01*
X023994Y004655D02*
X025345Y004655D01*
X025355Y004496D02*
X023835Y004496D01*
X023625Y004625D02*
X023875Y004875D01*
X023875Y010125D01*
X023625Y010375D01*
X023125Y010375D01*
X022595Y010361D02*
X021365Y010361D01*
X021365Y010519D02*
X022611Y010519D01*
X022678Y010678D02*
X021365Y010678D01*
X021365Y010836D02*
X022853Y010836D01*
X022756Y010995D02*
X021365Y010995D01*
X021365Y011153D02*
X022643Y011153D01*
X022595Y011312D02*
X021365Y011312D01*
X021365Y011470D02*
X022595Y011470D01*
X022656Y011629D02*
X021365Y011629D01*
X021458Y011787D02*
X022787Y011787D01*
X022805Y011946D02*
X021485Y011946D01*
X021441Y012104D02*
X022664Y012104D01*
X022598Y012263D02*
X021365Y012263D01*
X021365Y012421D02*
X022595Y012421D01*
X022636Y012580D02*
X021365Y012580D01*
X021365Y012738D02*
X022738Y012738D01*
X022885Y012897D02*
X021365Y012897D01*
X021365Y013055D02*
X022695Y013055D01*
X022618Y013214D02*
X021365Y013214D01*
X021365Y013372D02*
X022595Y013372D01*
X022616Y013531D02*
X021365Y013531D01*
X021365Y013689D02*
X022689Y013689D01*
X022881Y013848D02*
X021365Y013848D01*
X021365Y014006D02*
X025635Y014006D01*
X025635Y013848D02*
X023369Y013848D01*
X023561Y013689D02*
X025635Y013689D01*
X025635Y013531D02*
X023634Y013531D01*
X023655Y013372D02*
X025635Y013372D01*
X025635Y013214D02*
X023632Y013214D01*
X023555Y013055D02*
X025635Y013055D01*
X025635Y012897D02*
X023365Y012897D01*
X023512Y012738D02*
X025488Y012738D01*
X025386Y012580D02*
X023614Y012580D01*
X023655Y012421D02*
X025345Y012421D01*
X025348Y012263D02*
X023652Y012263D01*
X023586Y012104D02*
X025414Y012104D01*
X025555Y011946D02*
X023445Y011946D01*
X023463Y011787D02*
X025537Y011787D01*
X025406Y011629D02*
X023594Y011629D01*
X023655Y011470D02*
X025345Y011470D01*
X025345Y011312D02*
X023655Y011312D01*
X023607Y011153D02*
X025393Y011153D01*
X025506Y010995D02*
X023494Y010995D01*
X023397Y010836D02*
X025603Y010836D01*
X025428Y010678D02*
X023572Y010678D01*
X023820Y010519D02*
X025361Y010519D01*
X025345Y010361D02*
X023979Y010361D01*
X024103Y010202D02*
X025373Y010202D01*
X025457Y010044D02*
X024115Y010044D01*
X024115Y009885D02*
X025673Y009885D01*
X026077Y009885D02*
X026385Y009885D01*
X026385Y009727D02*
X024115Y009727D01*
X024115Y009568D02*
X026385Y009568D01*
X026385Y009410D02*
X024115Y009410D01*
X024115Y009251D02*
X026385Y009251D01*
X026385Y009093D02*
X026167Y009093D01*
X026330Y008934D02*
X026385Y008934D01*
X025884Y008934D02*
X025866Y008934D01*
X025866Y008776D02*
X025884Y008776D01*
X025866Y008617D02*
X024115Y008617D01*
X024115Y008459D02*
X025351Y008459D01*
X025431Y008300D02*
X024115Y008300D01*
X024115Y008142D02*
X025612Y008142D01*
X025866Y008142D02*
X025884Y008142D01*
X025884Y008300D02*
X025866Y008300D01*
X025866Y008459D02*
X025884Y008459D01*
X026138Y008142D02*
X026385Y008142D01*
X026385Y008300D02*
X026319Y008300D01*
X026385Y007983D02*
X024115Y007983D01*
X024115Y007825D02*
X026385Y007825D01*
X026385Y007666D02*
X024115Y007666D01*
X024115Y007508D02*
X026385Y007508D01*
X026385Y007349D02*
X024115Y007349D01*
X024115Y007191D02*
X026385Y007191D01*
X026385Y007032D02*
X024115Y007032D01*
X024115Y006874D02*
X026385Y006874D01*
X026385Y006715D02*
X024115Y006715D01*
X024115Y006557D02*
X026385Y006557D01*
X026385Y006398D02*
X024115Y006398D01*
X024115Y006240D02*
X026385Y006240D01*
X026385Y006081D02*
X024115Y006081D01*
X024115Y005923D02*
X026385Y005923D01*
X026385Y005764D02*
X024115Y005764D01*
X024115Y005606D02*
X026385Y005606D01*
X026385Y005447D02*
X024115Y005447D01*
X024115Y005289D02*
X026385Y005289D01*
X025420Y004338D02*
X023580Y004338D01*
X023429Y004179D02*
X025571Y004179D01*
X027131Y003070D02*
X022598Y003070D01*
X022646Y002911D02*
X027086Y002911D01*
X027098Y002967D02*
X027098Y002967D01*
X027061Y002753D02*
X022675Y002753D01*
X022671Y002594D02*
X028295Y002594D01*
X028375Y002625D02*
X028375Y007125D01*
X029875Y006875D02*
X029875Y011875D01*
X029612Y011629D02*
X026344Y011629D01*
X026405Y011470D02*
X029635Y011470D01*
X029635Y011312D02*
X026405Y011312D01*
X026357Y011153D02*
X029635Y011153D01*
X029635Y010995D02*
X026244Y010995D01*
X026147Y010836D02*
X029635Y010836D01*
X029635Y010678D02*
X026322Y010678D01*
X026375Y010375D02*
X025875Y010375D01*
X026293Y010044D02*
X026367Y010044D01*
X025884Y009093D02*
X025866Y009093D01*
X025583Y009093D02*
X024115Y009093D01*
X024115Y008934D02*
X025420Y008934D01*
X025346Y008776D02*
X024115Y008776D01*
X023635Y008934D02*
X023580Y008934D01*
X023635Y009093D02*
X023417Y009093D01*
X023635Y009251D02*
X021365Y009251D01*
X021365Y009093D02*
X022833Y009093D01*
X022670Y008934D02*
X021365Y008934D01*
X021365Y008776D02*
X022596Y008776D01*
X022575Y008616D02*
X022575Y008582D01*
X022589Y008496D01*
X022615Y008414D01*
X022655Y008337D01*
X022705Y008267D01*
X022767Y008205D01*
X022837Y008155D01*
X022914Y008115D01*
X022996Y008089D01*
X023082Y008075D01*
X023116Y008075D01*
X023116Y008616D01*
X022575Y008616D01*
X022601Y008459D02*
X021365Y008459D01*
X021365Y008617D02*
X023116Y008617D01*
X023116Y008459D02*
X023134Y008459D01*
X023134Y008300D02*
X023116Y008300D01*
X023116Y008142D02*
X023134Y008142D01*
X023388Y008142D02*
X023635Y008142D01*
X023635Y008300D02*
X023569Y008300D01*
X023635Y007983D02*
X021022Y007983D01*
X020864Y007825D02*
X023635Y007825D01*
X023635Y007666D02*
X020705Y007666D01*
X020655Y007508D02*
X023635Y007508D01*
X023635Y007349D02*
X020655Y007349D01*
X020602Y007191D02*
X023635Y007191D01*
X023635Y007032D02*
X020482Y007032D01*
X020426Y006874D02*
X023635Y006874D01*
X023635Y006715D02*
X020579Y006715D01*
X020644Y006557D02*
X023635Y006557D01*
X023635Y006398D02*
X020655Y006398D01*
X020622Y006240D02*
X023635Y006240D01*
X023635Y006081D02*
X020531Y006081D01*
X020360Y005923D02*
X023635Y005923D01*
X023635Y005764D02*
X020559Y005764D01*
X020645Y005606D02*
X023635Y005606D01*
X023635Y005447D02*
X020675Y005447D01*
X020659Y005289D02*
X023635Y005289D01*
X023635Y005130D02*
X023291Y005130D01*
X023528Y004972D02*
X023632Y004972D01*
X023625Y004625D02*
X023125Y004625D01*
X022959Y005130D02*
X020591Y005130D01*
X019591Y005289D02*
X013365Y005289D01*
X013365Y005447D02*
X019575Y005447D01*
X019605Y005606D02*
X013365Y005606D01*
X013365Y005764D02*
X019691Y005764D01*
X019890Y005923D02*
X013365Y005923D01*
X013365Y006081D02*
X019719Y006081D01*
X019628Y006240D02*
X013365Y006240D01*
X013365Y006398D02*
X019595Y006398D01*
X019606Y006557D02*
X013365Y006557D01*
X013365Y006715D02*
X019671Y006715D01*
X019824Y006874D02*
X013365Y006874D01*
X013365Y007032D02*
X019768Y007032D01*
X019648Y007191D02*
X013365Y007191D01*
X013365Y007349D02*
X019595Y007349D01*
X019595Y007508D02*
X013365Y007508D01*
X013365Y007666D02*
X019651Y007666D01*
X019775Y007825D02*
X013365Y007825D01*
X013365Y007983D02*
X020344Y007983D01*
X020502Y008142D02*
X013365Y008142D01*
X013365Y008300D02*
X014800Y008300D01*
X014662Y008459D02*
X013365Y008459D01*
X013365Y008617D02*
X014596Y008617D01*
X014595Y008776D02*
X013365Y008776D01*
X013365Y008934D02*
X014638Y008934D01*
X014743Y009093D02*
X013365Y009093D01*
X013365Y009251D02*
X014885Y009251D01*
X014885Y009410D02*
X013365Y009410D01*
X013365Y009568D02*
X014885Y009568D01*
X014885Y009727D02*
X013365Y009727D01*
X013365Y009885D02*
X014885Y009885D01*
X014885Y010044D02*
X013365Y010044D01*
X013365Y010202D02*
X014885Y010202D01*
X014885Y010361D02*
X013365Y010361D01*
X013365Y010519D02*
X014885Y010519D01*
X014885Y010678D02*
X013365Y010678D01*
X013365Y010836D02*
X014885Y010836D01*
X014885Y010995D02*
X013365Y010995D01*
X013365Y011153D02*
X014885Y011153D01*
X014885Y011312D02*
X013365Y011312D01*
X013365Y011470D02*
X014885Y011470D01*
X014885Y011629D02*
X013365Y011629D01*
X013365Y011787D02*
X014885Y011787D01*
X014885Y011946D02*
X013365Y011946D01*
X013365Y012104D02*
X014885Y012104D01*
X014885Y012263D02*
X013365Y012263D01*
X013365Y012421D02*
X014885Y012421D01*
X014885Y012580D02*
X013365Y012580D01*
X013365Y012738D02*
X014885Y012738D01*
X014885Y012897D02*
X013365Y012897D01*
X013365Y013055D02*
X014885Y013055D01*
X014885Y013214D02*
X013365Y013214D01*
X013365Y013372D02*
X014885Y013372D01*
X014885Y013531D02*
X013365Y013531D01*
X013365Y013689D02*
X014885Y013689D01*
X014885Y013848D02*
X013365Y013848D01*
X013365Y014006D02*
X014885Y014006D01*
X014885Y014165D02*
X013365Y014165D01*
X013365Y014323D02*
X014885Y014323D01*
X014885Y014482D02*
X013365Y014482D01*
X013365Y014640D02*
X014885Y014640D01*
X014885Y014799D02*
X013365Y014799D01*
X013365Y014957D02*
X014885Y014957D01*
X014885Y015116D02*
X013365Y015116D01*
X013365Y015274D02*
X014885Y015274D01*
X014885Y015433D02*
X013365Y015433D01*
X013365Y015591D02*
X014885Y015591D01*
X014751Y015750D02*
X013365Y015750D01*
X013365Y015908D02*
X014641Y015908D01*
X014595Y016067D02*
X013365Y016067D01*
X013365Y016225D02*
X014595Y016225D01*
X014658Y016384D02*
X013365Y016384D01*
X013365Y016542D02*
X014792Y016542D01*
X014800Y016701D02*
X013365Y016701D01*
X013365Y016859D02*
X014662Y016859D01*
X014596Y017018D02*
X013365Y017018D01*
X013365Y017176D02*
X014595Y017176D01*
X014638Y017335D02*
X013365Y017335D01*
X013365Y017493D02*
X014743Y017493D01*
X014883Y017652D02*
X013365Y017652D01*
X013365Y017810D02*
X014690Y017810D01*
X014616Y017969D02*
X013365Y017969D01*
X013365Y018127D02*
X014595Y018127D01*
X014618Y018286D02*
X013365Y018286D01*
X013356Y018444D02*
X014694Y018444D01*
X014893Y018603D02*
X013237Y018603D01*
X013078Y018761D02*
X015635Y018761D01*
X015635Y018603D02*
X015357Y018603D01*
X015556Y018444D02*
X015605Y018444D01*
X015875Y018375D02*
X015625Y018125D01*
X015125Y018125D01*
X015599Y017885D02*
X015673Y017885D01*
X015761Y017922D01*
X015828Y017989D01*
X016078Y018239D01*
X016115Y018327D01*
X016115Y022173D01*
X016078Y022261D01*
X016011Y022328D01*
X015761Y022578D01*
X015673Y022615D01*
X015599Y022615D01*
X015574Y022675D01*
X015425Y022824D01*
X015230Y022905D01*
X015020Y022905D01*
X014825Y022824D01*
X014676Y022675D01*
X014615Y022529D01*
X014615Y024851D01*
X014621Y024852D01*
X014637Y024844D01*
X014701Y024866D01*
X014768Y024878D01*
X014777Y024892D01*
X014811Y024904D01*
X014828Y024899D01*
X014888Y024930D01*
X014952Y024952D01*
X014959Y024967D01*
X014991Y024984D01*
X015008Y024981D01*
X015063Y025021D01*
X015123Y025053D01*
X015128Y025069D01*
X015157Y025090D01*
X015174Y025090D01*
X015222Y025138D01*
X015277Y025178D01*
X015279Y025195D01*
X015305Y025221D01*
X015322Y025223D01*
X015362Y025278D01*
X015410Y025326D01*
X015410Y025343D01*
X015431Y025372D01*
X015447Y025377D01*
X015479Y025437D01*
X015519Y025492D01*
X015516Y025509D01*
X015533Y025541D01*
X015548Y025548D01*
X015570Y025612D01*
X015601Y025672D01*
X015596Y025689D01*
X015608Y025723D01*
X015622Y025732D01*
X015634Y025799D01*
X015656Y025863D01*
X015648Y025879D01*
X015655Y025914D01*
X015667Y025926D01*
X015669Y025993D01*
X015681Y026060D01*
X015671Y026074D01*
X015672Y026110D01*
X015682Y026124D01*
X015674Y026191D01*
X015676Y026258D01*
X015664Y026271D01*
X015659Y026307D01*
X015668Y026322D01*
X015649Y026387D01*
X015640Y026454D01*
X015627Y026464D01*
X015617Y026499D01*
X015623Y026515D01*
X015595Y026577D01*
X015576Y026642D01*
X015561Y026650D01*
X015546Y026683D01*
X015549Y026700D01*
X015512Y026756D01*
X015484Y026818D01*
X015468Y026824D01*
X015448Y026854D01*
X015449Y026871D01*
X015403Y026921D01*
X015366Y026978D01*
X015349Y026981D01*
X015325Y027008D01*
X015323Y027025D01*
X015271Y027068D01*
X015226Y027118D01*
X015208Y027119D01*
X015181Y027141D01*
X015176Y027158D01*
X015118Y027192D01*
X015066Y027235D01*
X015048Y027233D01*
X015017Y027252D01*
X015011Y027268D01*
X014948Y027293D01*
X014890Y027327D01*
X014873Y027323D01*
X014839Y027336D01*
X014830Y027351D01*
X014764Y027366D01*
X014702Y027391D01*
X014686Y027384D01*
X014651Y027392D01*
X014639Y027405D01*
X014572Y027411D01*
X014506Y027426D01*
X014491Y027417D01*
X014456Y027419D01*
X014443Y027430D01*
X014375Y027426D01*
X014308Y027431D01*
X014295Y027420D01*
X014271Y027418D01*
X014257Y027427D01*
X014190Y027412D01*
X014122Y027407D01*
X014111Y027395D01*
X014088Y027390D01*
X014073Y027397D01*
X014009Y027373D01*
X013942Y027358D01*
X013933Y027345D01*
X013911Y027336D01*
X013895Y027341D01*
X013835Y027308D01*
X013771Y027284D01*
X013764Y027269D01*
X013743Y027258D01*
X013727Y027260D01*
X013672Y027219D01*
X013612Y027186D01*
X013607Y027171D01*
X013588Y027156D01*
X013572Y027156D01*
X013523Y027108D01*
X013468Y027067D01*
X013466Y027051D01*
X013449Y027034D01*
X013433Y027032D01*
X013392Y026977D01*
X013344Y026928D01*
X013344Y026912D01*
X013329Y026893D01*
X013314Y026888D01*
X013281Y026828D01*
X013240Y026773D01*
X013242Y026757D01*
X013231Y026736D01*
X013216Y026729D01*
X013192Y026665D01*
X013159Y026605D01*
X013164Y026589D01*
X013155Y026567D01*
X013142Y026558D01*
X013127Y026491D01*
X013103Y026427D01*
X013110Y026412D01*
X013105Y026389D01*
X013093Y026378D01*
X013088Y026310D01*
X013073Y026243D01*
X013082Y026229D01*
X013080Y026205D01*
X013069Y026192D01*
X013074Y026125D01*
X013070Y026057D01*
X013081Y026044D01*
X013083Y026009D01*
X013074Y025994D01*
X013089Y025928D01*
X013095Y025861D01*
X013108Y025849D01*
X013116Y025814D01*
X013109Y025798D01*
X013134Y025736D01*
X013149Y025670D01*
X013164Y025661D01*
X013177Y025627D01*
X013173Y025610D01*
X013207Y025552D01*
X013232Y025489D01*
X013248Y025483D01*
X013267Y025452D01*
X013265Y025434D01*
X013308Y025382D01*
X013342Y025324D01*
X013359Y025319D01*
X013381Y025292D01*
X013382Y025274D01*
X013432Y025229D01*
X013475Y025177D01*
X013492Y025175D01*
X013519Y025151D01*
X013522Y025134D01*
X013579Y025097D01*
X013629Y025051D01*
X013646Y025052D01*
X013676Y025032D01*
X013682Y025016D01*
X013744Y024988D01*
X013800Y024951D01*
X013817Y024954D01*
X013850Y024939D01*
X013858Y024924D01*
X013923Y024905D01*
X013985Y024877D01*
X014001Y024883D01*
X014036Y024873D01*
X014046Y024860D01*
X014113Y024851D01*
X014135Y024845D01*
X014135Y021115D01*
X008841Y021115D01*
X008905Y021270D01*
X008905Y021480D01*
X008824Y021675D01*
X008675Y021824D01*
X008615Y021849D01*
X008615Y021901D01*
X008675Y021926D01*
X008824Y022075D01*
X008905Y022270D01*
X008905Y022480D01*
X008824Y022675D01*
X008675Y022824D01*
X008480Y022905D01*
X008270Y022905D01*
X008075Y022824D01*
X007926Y022675D01*
X007845Y022480D01*
X007845Y022270D01*
X007926Y022075D01*
X008075Y021926D01*
X008135Y021901D01*
X008135Y021849D01*
X008075Y021824D01*
X007926Y021675D01*
X007845Y021480D01*
X007845Y021270D01*
X007926Y021075D01*
X008075Y020926D01*
X008197Y020875D01*
X008075Y020824D01*
X007926Y020675D01*
X007845Y020480D01*
X007845Y020270D01*
X007926Y020075D01*
X008075Y019926D01*
X008135Y019901D01*
X008135Y014599D01*
X008075Y014574D01*
X007926Y014425D01*
X007845Y014230D01*
X007845Y014020D01*
X007926Y013825D01*
X008075Y013676D01*
X008197Y013625D01*
X008075Y013574D01*
X007926Y013425D01*
X007845Y013230D01*
X007845Y013020D01*
X007926Y012825D01*
X008075Y012676D01*
X008197Y012625D01*
X008075Y012574D01*
X007926Y012425D01*
X007845Y012230D01*
X007845Y012020D01*
X007926Y011825D01*
X008075Y011676D01*
X008135Y011651D01*
X007963Y011787D02*
X005892Y011787D01*
X005905Y011946D02*
X007876Y011946D01*
X007845Y012104D02*
X005875Y012104D01*
X005787Y012263D02*
X007858Y012263D01*
X007924Y012421D02*
X005562Y012421D01*
X005188Y012421D02*
X004718Y012421D01*
X004615Y012580D02*
X008087Y012580D01*
X008012Y012738D02*
X004615Y012738D01*
X004615Y012897D02*
X007896Y012897D01*
X007845Y013055D02*
X004615Y013055D01*
X004615Y013214D02*
X007845Y013214D01*
X007904Y013372D02*
X005546Y013372D01*
X005780Y013531D02*
X008031Y013531D01*
X008061Y013689D02*
X006028Y013689D01*
X006187Y013848D02*
X007916Y013848D01*
X007851Y014006D02*
X006345Y014006D01*
X006504Y014165D02*
X007845Y014165D01*
X007883Y014323D02*
X006613Y014323D01*
X006615Y014482D02*
X007982Y014482D01*
X008135Y014640D02*
X006615Y014640D01*
X006615Y014799D02*
X008135Y014799D01*
X008135Y014957D02*
X006615Y014957D01*
X006615Y015116D02*
X008135Y015116D01*
X008135Y015274D02*
X006615Y015274D01*
X006615Y015433D02*
X008135Y015433D01*
X008135Y015591D02*
X006615Y015591D01*
X006615Y015750D02*
X008135Y015750D01*
X008135Y015908D02*
X006615Y015908D01*
X006615Y016067D02*
X008135Y016067D01*
X008135Y016225D02*
X006615Y016225D01*
X006615Y016384D02*
X008135Y016384D01*
X008135Y016542D02*
X006615Y016542D01*
X006615Y016701D02*
X008135Y016701D01*
X008135Y016859D02*
X006615Y016859D01*
X006615Y017018D02*
X008135Y017018D01*
X008135Y017176D02*
X006615Y017176D01*
X006615Y017335D02*
X008135Y017335D01*
X008135Y017493D02*
X006586Y017493D01*
X006438Y017652D02*
X008135Y017652D01*
X008135Y017810D02*
X006279Y017810D01*
X006121Y017969D02*
X008135Y017969D01*
X008135Y018127D02*
X005844Y018127D01*
X005714Y018286D02*
X008135Y018286D01*
X008135Y018444D02*
X005694Y018444D01*
X005836Y018603D02*
X008135Y018603D01*
X008135Y018761D02*
X005901Y018761D01*
X005905Y018920D02*
X008135Y018920D01*
X008135Y019078D02*
X005865Y019078D01*
X005763Y019237D02*
X008135Y019237D01*
X008135Y019395D02*
X005601Y019395D01*
X005803Y019554D02*
X008135Y019554D01*
X008135Y019712D02*
X005881Y019712D01*
X005905Y019871D02*
X008135Y019871D01*
X007971Y020029D02*
X005885Y020029D01*
X005812Y020188D02*
X007879Y020188D01*
X007845Y020346D02*
X005623Y020346D01*
X005127Y020346D02*
X000575Y020346D01*
X000575Y020188D02*
X004938Y020188D01*
X004865Y020029D02*
X000575Y020029D01*
X000575Y019871D02*
X004845Y019871D01*
X004869Y019712D02*
X000575Y019712D01*
X000575Y019554D02*
X004947Y019554D01*
X005149Y019395D02*
X000575Y019395D01*
X000575Y019237D02*
X004987Y019237D01*
X004885Y019078D02*
X000575Y019078D01*
X000575Y018920D02*
X004845Y018920D01*
X004849Y018761D02*
X000575Y018761D01*
X000575Y018603D02*
X004914Y018603D01*
X005056Y018444D02*
X000575Y018444D01*
X000575Y018286D02*
X005036Y018286D01*
X004906Y018127D02*
X000575Y018127D01*
X000575Y017969D02*
X004845Y017969D01*
X004845Y017810D02*
X000575Y017810D01*
X000575Y017652D02*
X004894Y017652D01*
X005007Y017493D02*
X000575Y017493D01*
X000575Y017335D02*
X006076Y017335D01*
X006135Y017176D02*
X000575Y017176D01*
X000575Y017018D02*
X006135Y017018D01*
X006135Y016859D02*
X000575Y016859D01*
X000575Y016701D02*
X006135Y016701D01*
X006135Y016542D02*
X000575Y016542D01*
X000575Y016384D02*
X005218Y016384D01*
X004975Y016225D02*
X001005Y016225D01*
X001345Y016067D02*
X004727Y016067D01*
X004569Y015908D02*
X001600Y015908D01*
X001758Y015750D02*
X004410Y015750D01*
X004252Y015591D02*
X001917Y015591D01*
X002016Y015433D02*
X004139Y015433D01*
X004135Y015274D02*
X002108Y015274D01*
X002195Y015116D02*
X004135Y015116D01*
X004135Y014957D02*
X002238Y014957D01*
X002280Y014799D02*
X004135Y014799D01*
X004135Y014640D02*
X002323Y014640D01*
X002325Y014482D02*
X004135Y014482D01*
X004135Y014323D02*
X002325Y014323D01*
X002325Y014165D02*
X004135Y014165D01*
X004135Y014006D02*
X002295Y014006D01*
X002252Y013848D02*
X004135Y013848D01*
X004135Y013689D02*
X002210Y013689D01*
X002139Y013531D02*
X004135Y013531D01*
X004135Y013372D02*
X002048Y013372D01*
X001956Y013214D02*
X004135Y013214D01*
X004135Y013055D02*
X001813Y013055D01*
X001654Y012897D02*
X004135Y012897D01*
X004135Y012738D02*
X001440Y012738D01*
X001165Y012580D02*
X004135Y012580D01*
X004135Y012421D02*
X000575Y012421D01*
X000575Y012263D02*
X004198Y012263D01*
X004357Y012104D02*
X000575Y012104D01*
X000575Y011946D02*
X004515Y011946D01*
X004674Y011787D02*
X000575Y011787D01*
X000575Y011629D02*
X004924Y011629D01*
X005088Y011470D02*
X000575Y011470D01*
X000575Y011312D02*
X005012Y011312D01*
X004896Y011153D02*
X000575Y011153D01*
X000575Y010995D02*
X004845Y010995D01*
X004845Y010836D02*
X000575Y010836D01*
X000575Y010678D02*
X004904Y010678D01*
X005031Y010519D02*
X000575Y010519D01*
X000575Y010361D02*
X005061Y010361D01*
X004916Y010202D02*
X000575Y010202D01*
X000575Y010044D02*
X004850Y010044D01*
X004845Y009885D02*
X000575Y009885D01*
X000575Y009727D02*
X004884Y009727D01*
X004982Y009568D02*
X000575Y009568D01*
X000575Y009410D02*
X005135Y009410D01*
X005135Y009251D02*
X000575Y009251D01*
X000575Y009093D02*
X005135Y009093D01*
X005135Y008934D02*
X000575Y008934D01*
X000575Y008776D02*
X004976Y008776D01*
X004881Y008617D02*
X000575Y008617D01*
X000575Y008459D02*
X004845Y008459D01*
X004853Y008300D02*
X000575Y008300D01*
X000575Y008142D02*
X004919Y008142D01*
X005067Y007983D02*
X000575Y007983D01*
X000575Y007825D02*
X005636Y007825D01*
X005795Y007666D02*
X000575Y007666D01*
X000575Y007508D02*
X005953Y007508D01*
X006112Y007349D02*
X000575Y007349D01*
X000575Y007191D02*
X006270Y007191D01*
X006429Y007032D02*
X000575Y007032D01*
X000575Y006874D02*
X006587Y006874D01*
X006746Y006715D02*
X000575Y006715D01*
X000575Y006557D02*
X006904Y006557D01*
X007063Y006398D02*
X000575Y006398D01*
X000575Y006240D02*
X007135Y006240D01*
X007135Y006081D02*
X000575Y006081D01*
X000575Y005923D02*
X007135Y005923D01*
X007135Y005764D02*
X000575Y005764D01*
X000575Y005606D02*
X007135Y005606D01*
X007135Y005447D02*
X000575Y005447D01*
X000575Y005289D02*
X007135Y005289D01*
X007135Y005130D02*
X000575Y005130D01*
X000575Y004972D02*
X005310Y004972D01*
X005332Y004975D02*
X005246Y004961D01*
X005164Y004935D01*
X005087Y004895D01*
X005017Y004845D01*
X004955Y004783D01*
X004905Y004713D01*
X004865Y004636D01*
X004839Y004554D01*
X004825Y004468D01*
X004825Y004434D01*
X005366Y004434D01*
X005366Y004975D01*
X005332Y004975D01*
X005366Y004972D02*
X005384Y004972D01*
X005384Y004975D02*
X005384Y004434D01*
X005366Y004434D01*
X005366Y004416D01*
X004825Y004416D01*
X004825Y004382D01*
X004839Y004296D01*
X004865Y004214D01*
X004905Y004137D01*
X004955Y004067D01*
X005017Y004005D01*
X005087Y003955D01*
X005164Y003915D01*
X005246Y003889D01*
X005332Y003875D01*
X005366Y003875D01*
X005366Y004416D01*
X005384Y004416D01*
X005384Y004434D01*
X005925Y004434D01*
X005925Y004468D01*
X005911Y004554D01*
X005885Y004636D01*
X005845Y004713D01*
X005795Y004783D01*
X005733Y004845D01*
X005663Y004895D01*
X005586Y004935D01*
X005504Y004961D01*
X005418Y004975D01*
X005384Y004975D01*
X005440Y004972D02*
X007135Y004972D01*
X007135Y004813D02*
X005765Y004813D01*
X005875Y004655D02*
X007135Y004655D01*
X007135Y004496D02*
X005921Y004496D01*
X005925Y004416D02*
X005384Y004416D01*
X005384Y003875D01*
X005418Y003875D01*
X005504Y003889D01*
X005586Y003915D01*
X005663Y003955D01*
X005733Y004005D01*
X005795Y004067D01*
X005845Y004137D01*
X005885Y004214D01*
X005911Y004296D01*
X005925Y004382D01*
X005925Y004416D01*
X005918Y004338D02*
X007135Y004338D01*
X007135Y004179D02*
X005867Y004179D01*
X005748Y004021D02*
X007135Y004021D01*
X006959Y003862D02*
X000575Y003862D01*
X000575Y003704D02*
X006643Y003704D01*
X006460Y003545D02*
X000575Y003545D01*
X000575Y003387D02*
X006313Y003387D01*
X006215Y003228D02*
X000575Y003228D01*
X000575Y003070D02*
X006156Y003070D01*
X006110Y002911D02*
X000575Y002911D01*
X000575Y002753D02*
X006075Y002753D01*
X006072Y002594D02*
X000575Y002594D01*
X000575Y002436D02*
X006088Y002436D01*
X006118Y002277D02*
X000575Y002277D01*
X000575Y002119D02*
X000949Y002119D01*
X000758Y001960D02*
X000575Y001960D01*
X000575Y001802D02*
X000632Y001802D01*
X001801Y002119D02*
X006175Y002119D01*
X006262Y001960D02*
X001992Y001960D01*
X002118Y001802D02*
X006373Y001802D01*
X006521Y001643D02*
X002184Y001643D01*
X002225Y001485D02*
X006749Y001485D01*
X007375Y001125D02*
X007875Y000625D01*
X031625Y000625D01*
X034125Y003125D01*
X034125Y012875D01*
X033613Y012421D02*
X033414Y012421D01*
X033576Y012580D02*
X033595Y012580D01*
X033885Y012263D02*
X026402Y012263D01*
X026405Y012421D02*
X030586Y012421D01*
X030424Y012580D02*
X026364Y012580D01*
X026262Y012738D02*
X030358Y012738D01*
X030345Y012897D02*
X028605Y012897D01*
X028805Y013055D02*
X030376Y013055D01*
X030464Y013214D02*
X028882Y013214D01*
X028905Y013372D02*
X030635Y013372D01*
X030635Y013531D02*
X028884Y013531D01*
X028811Y013689D02*
X030561Y013689D01*
X030416Y013848D02*
X028619Y013848D01*
X028756Y014006D02*
X030351Y014006D01*
X029826Y014165D02*
X028861Y014165D01*
X028905Y014323D02*
X029765Y014323D01*
X029779Y014482D02*
X028905Y014482D01*
X028839Y014640D02*
X029881Y014640D01*
X030125Y014375D02*
X030875Y015125D01*
X030875Y018125D01*
X030875Y019375D01*
X031405Y019395D02*
X032135Y019395D01*
X032135Y019237D02*
X031391Y019237D01*
X031326Y019078D02*
X032135Y019078D01*
X032135Y018920D02*
X031160Y018920D01*
X031115Y018761D02*
X032135Y018761D01*
X032135Y018603D02*
X031115Y018603D01*
X031306Y018444D02*
X032135Y018444D01*
X032135Y018286D02*
X031382Y018286D01*
X031405Y018127D02*
X032135Y018127D01*
X032135Y017969D02*
X031384Y017969D01*
X031310Y017810D02*
X032135Y017810D01*
X032135Y017652D02*
X031117Y017652D01*
X031115Y017493D02*
X032135Y017493D01*
X032135Y017335D02*
X031115Y017335D01*
X031115Y017176D02*
X032135Y017176D01*
X032135Y017018D02*
X031115Y017018D01*
X031115Y016859D02*
X032135Y016859D01*
X032135Y016701D02*
X031115Y016701D01*
X031115Y016542D02*
X032135Y016542D01*
X032135Y016384D02*
X031115Y016384D01*
X031115Y016225D02*
X032135Y016225D01*
X032135Y016067D02*
X031115Y016067D01*
X031115Y015908D02*
X032135Y015908D01*
X032135Y015750D02*
X031115Y015750D01*
X031115Y015591D02*
X032135Y015591D01*
X032135Y015433D02*
X031115Y015433D01*
X031115Y015274D02*
X032135Y015274D01*
X032135Y015116D02*
X031115Y015116D01*
X031046Y014957D02*
X032135Y014957D01*
X032135Y014799D02*
X030888Y014799D01*
X031017Y014640D02*
X032135Y014640D01*
X032135Y014482D02*
X031268Y014482D01*
X031367Y014323D02*
X032135Y014323D01*
X032135Y014165D02*
X031405Y014165D01*
X031399Y014006D02*
X032165Y014006D01*
X032313Y013848D02*
X031334Y013848D01*
X031189Y013689D02*
X032472Y013689D01*
X032625Y013875D02*
X032375Y014125D01*
X032375Y021125D01*
X032125Y021375D01*
X030875Y021375D01*
X030523Y021773D02*
X026388Y021773D01*
X026405Y021614D02*
X030400Y021614D01*
X030345Y021456D02*
X026378Y021456D01*
X026297Y021297D02*
X030345Y021297D01*
X030399Y021139D02*
X026086Y021139D01*
X026269Y020980D02*
X030520Y020980D01*
X030572Y020822D02*
X026367Y020822D01*
X026405Y020663D02*
X030421Y020663D01*
X030875Y020375D02*
X028875Y020375D01*
X028375Y019875D01*
X028375Y015375D01*
X028750Y015750D02*
X030635Y015750D01*
X030635Y015908D02*
X028615Y015908D01*
X028615Y016067D02*
X030635Y016067D01*
X030635Y016225D02*
X028615Y016225D01*
X028615Y016384D02*
X030635Y016384D01*
X030635Y016542D02*
X028615Y016542D01*
X028615Y016701D02*
X030635Y016701D01*
X030635Y016859D02*
X028615Y016859D01*
X028615Y017018D02*
X030635Y017018D01*
X030635Y017176D02*
X028615Y017176D01*
X028615Y017335D02*
X030635Y017335D01*
X030635Y017493D02*
X028615Y017493D01*
X028615Y017652D02*
X030633Y017652D01*
X030440Y017810D02*
X028615Y017810D01*
X028615Y017969D02*
X030366Y017969D01*
X030345Y018127D02*
X028615Y018127D01*
X028615Y018286D02*
X030368Y018286D01*
X030444Y018444D02*
X028615Y018444D01*
X028615Y018603D02*
X030635Y018603D01*
X030635Y018761D02*
X028615Y018761D01*
X028615Y018920D02*
X030590Y018920D01*
X030424Y019078D02*
X028615Y019078D01*
X028615Y019237D02*
X030359Y019237D01*
X030345Y019395D02*
X028615Y019395D01*
X028615Y019554D02*
X030375Y019554D01*
X030462Y019712D02*
X028615Y019712D01*
X028710Y019871D02*
X030686Y019871D01*
X030471Y020029D02*
X028868Y020029D01*
X028507Y020346D02*
X026333Y020346D01*
X026399Y020505D02*
X028665Y020505D01*
X028348Y020188D02*
X026187Y020188D01*
X025563Y020188D02*
X025365Y020188D01*
X025365Y020346D02*
X025417Y020346D01*
X025365Y020029D02*
X028190Y020029D01*
X028135Y019871D02*
X025365Y019871D01*
X025365Y019712D02*
X028135Y019712D01*
X028135Y019554D02*
X025365Y019554D01*
X025365Y019395D02*
X025746Y019395D01*
X026004Y019395D02*
X028135Y019395D01*
X028135Y019237D02*
X026263Y019237D01*
X026365Y019078D02*
X028135Y019078D01*
X028135Y018920D02*
X026405Y018920D01*
X026401Y018761D02*
X028135Y018761D01*
X028135Y018603D02*
X026336Y018603D01*
X026194Y018444D02*
X028135Y018444D01*
X028135Y018286D02*
X026214Y018286D01*
X026344Y018127D02*
X028135Y018127D01*
X028135Y017969D02*
X026405Y017969D01*
X026405Y017810D02*
X028135Y017810D01*
X028135Y017652D02*
X026356Y017652D01*
X026243Y017493D02*
X028135Y017493D01*
X028135Y017335D02*
X026151Y017335D01*
X026324Y017176D02*
X028135Y017176D01*
X028135Y017018D02*
X026390Y017018D01*
X026405Y016859D02*
X028135Y016859D01*
X028135Y016701D02*
X026376Y016701D01*
X026292Y016542D02*
X028135Y016542D01*
X028135Y016384D02*
X026115Y016384D01*
X026115Y016225D02*
X028135Y016225D01*
X028135Y016067D02*
X026115Y016067D01*
X026115Y015908D02*
X028135Y015908D01*
X028000Y015750D02*
X026115Y015750D01*
X026115Y015591D02*
X027891Y015591D01*
X027845Y015433D02*
X026115Y015433D01*
X026115Y015274D02*
X027845Y015274D01*
X027909Y015116D02*
X026115Y015116D01*
X026115Y014957D02*
X028043Y014957D01*
X028049Y014799D02*
X026115Y014799D01*
X026115Y014640D02*
X027911Y014640D01*
X027845Y014482D02*
X026115Y014482D01*
X026115Y014323D02*
X027845Y014323D01*
X027889Y014165D02*
X026115Y014165D01*
X026115Y014006D02*
X027994Y014006D01*
X028131Y013848D02*
X026115Y013848D01*
X026115Y013689D02*
X027939Y013689D01*
X027866Y013531D02*
X026115Y013531D01*
X026115Y013372D02*
X027845Y013372D01*
X027868Y013214D02*
X026115Y013214D01*
X026115Y013055D02*
X027945Y013055D01*
X028145Y012897D02*
X026115Y012897D01*
X025875Y012375D02*
X025875Y016875D01*
X025458Y016542D02*
X021365Y016542D01*
X021365Y016384D02*
X025635Y016384D01*
X025635Y016225D02*
X021365Y016225D01*
X021365Y016067D02*
X025635Y016067D01*
X025635Y015908D02*
X021365Y015908D01*
X021365Y015750D02*
X025635Y015750D01*
X025635Y015591D02*
X021365Y015591D01*
X021365Y015433D02*
X025635Y015433D01*
X025635Y015274D02*
X021365Y015274D01*
X021365Y015116D02*
X025635Y015116D01*
X025635Y014957D02*
X021365Y014957D01*
X021365Y014799D02*
X025635Y014799D01*
X025635Y014640D02*
X021365Y014640D01*
X021365Y014482D02*
X025635Y014482D01*
X025635Y014323D02*
X021365Y014323D01*
X021365Y014165D02*
X025635Y014165D01*
X026336Y012104D02*
X029595Y012104D01*
X029515Y011946D02*
X026195Y011946D01*
X026213Y011787D02*
X029522Y011787D01*
X030138Y011629D02*
X033885Y011629D01*
X033885Y011787D02*
X030228Y011787D01*
X030235Y011946D02*
X033885Y011946D01*
X033885Y012104D02*
X030155Y012104D01*
X030875Y012875D02*
X030875Y014125D01*
X030733Y014640D02*
X030729Y014640D01*
X030209Y014799D02*
X028701Y014799D01*
X028707Y014957D02*
X030368Y014957D01*
X030526Y015116D02*
X028841Y015116D01*
X028905Y015274D02*
X030635Y015274D01*
X030635Y015433D02*
X028905Y015433D01*
X028859Y015591D02*
X030635Y015591D01*
X032615Y016067D02*
X032631Y016067D01*
X032615Y016225D02*
X032725Y016225D01*
X032615Y016384D02*
X032885Y016384D01*
X032885Y016542D02*
X032615Y016542D01*
X032615Y016701D02*
X032885Y016701D01*
X032885Y016859D02*
X032615Y016859D01*
X032615Y017018D02*
X032885Y017018D01*
X032885Y017176D02*
X032615Y017176D01*
X032615Y017335D02*
X032885Y017335D01*
X032885Y017493D02*
X032615Y017493D01*
X032615Y017652D02*
X032885Y017652D01*
X032885Y017810D02*
X032615Y017810D01*
X032615Y017969D02*
X032885Y017969D01*
X032885Y018127D02*
X032615Y018127D01*
X032615Y018286D02*
X032885Y018286D01*
X032885Y018444D02*
X032615Y018444D01*
X032615Y018603D02*
X032885Y018603D01*
X032885Y018761D02*
X032615Y018761D01*
X032615Y018920D02*
X032885Y018920D01*
X032885Y019078D02*
X032615Y019078D01*
X032615Y019237D02*
X032885Y019237D01*
X032885Y019395D02*
X032615Y019395D01*
X032615Y019554D02*
X032885Y019554D01*
X032885Y019712D02*
X032615Y019712D01*
X032615Y019871D02*
X032885Y019871D01*
X032885Y020029D02*
X032615Y020029D01*
X032615Y020188D02*
X032885Y020188D01*
X032885Y020346D02*
X032615Y020346D01*
X032615Y020505D02*
X032885Y020505D01*
X032885Y020663D02*
X032615Y020663D01*
X032615Y020822D02*
X032885Y020822D01*
X032885Y020980D02*
X032615Y020980D01*
X032615Y021139D02*
X032885Y021139D01*
X032885Y021297D02*
X032542Y021297D01*
X032384Y021456D02*
X032885Y021456D01*
X032885Y021614D02*
X032175Y021614D01*
X032885Y021773D02*
X031227Y021773D01*
X031230Y020980D02*
X032135Y020980D01*
X032135Y020822D02*
X031178Y020822D01*
X031329Y020663D02*
X032135Y020663D01*
X032135Y020505D02*
X031395Y020505D01*
X031405Y020346D02*
X032135Y020346D01*
X032135Y020188D02*
X031371Y020188D01*
X031279Y020029D02*
X032135Y020029D01*
X032135Y019871D02*
X031064Y019871D01*
X031288Y019712D02*
X032135Y019712D01*
X032135Y019554D02*
X031375Y019554D01*
X033365Y019554D02*
X035175Y019554D01*
X035175Y019712D02*
X033365Y019712D01*
X033365Y019871D02*
X035175Y019871D01*
X035175Y020029D02*
X033365Y020029D01*
X033365Y020188D02*
X035175Y020188D01*
X035175Y020346D02*
X033365Y020346D01*
X033365Y020505D02*
X035175Y020505D01*
X035175Y020663D02*
X033365Y020663D01*
X033365Y020822D02*
X035175Y020822D01*
X035175Y020980D02*
X033365Y020980D01*
X033365Y021139D02*
X035175Y021139D01*
X035175Y021297D02*
X033365Y021297D01*
X033365Y021456D02*
X035175Y021456D01*
X035175Y021614D02*
X033365Y021614D01*
X033365Y021773D02*
X035175Y021773D01*
X035175Y021931D02*
X033365Y021931D01*
X033365Y022090D02*
X035175Y022090D01*
X035175Y022248D02*
X033365Y022248D01*
X033365Y022407D02*
X035175Y022407D01*
X035175Y022565D02*
X033365Y022565D01*
X033365Y022724D02*
X035175Y022724D01*
X035175Y022882D02*
X033365Y022882D01*
X033365Y023041D02*
X035175Y023041D01*
X035175Y023199D02*
X033365Y023199D01*
X033365Y023358D02*
X035175Y023358D01*
X035175Y023516D02*
X033365Y023516D01*
X033365Y023675D02*
X035175Y023675D01*
X035175Y023833D02*
X033365Y023833D01*
X033365Y023992D02*
X035175Y023992D01*
X035175Y024150D02*
X033365Y024150D01*
X033365Y024309D02*
X035175Y024309D01*
X035175Y024467D02*
X033365Y024467D01*
X033365Y024626D02*
X035175Y024626D01*
X035175Y024784D02*
X033365Y024784D01*
X033365Y024943D02*
X035175Y024943D01*
X035175Y025101D02*
X033365Y025101D01*
X033365Y025260D02*
X035175Y025260D01*
X035175Y025418D02*
X033365Y025418D01*
X033365Y025577D02*
X035175Y025577D01*
X035175Y025735D02*
X033339Y025735D01*
X033196Y025894D02*
X035175Y025894D01*
X035175Y026052D02*
X033037Y026052D01*
X032879Y026211D02*
X035175Y026211D01*
X035175Y026369D02*
X029654Y026369D01*
X029617Y026528D02*
X034200Y026528D01*
X034550Y026528D02*
X035175Y026528D01*
X035175Y026686D02*
X034888Y026686D01*
X035047Y026845D02*
X035175Y026845D01*
X035175Y027003D02*
X035141Y027003D01*
X033862Y026686D02*
X029547Y026686D01*
X029454Y026845D02*
X033703Y026845D01*
X033609Y027003D02*
X029329Y027003D01*
X029171Y027162D02*
X033543Y027162D01*
X033525Y027320D02*
X028901Y027320D01*
X027857Y027320D02*
X021901Y027320D01*
X022171Y027162D02*
X027595Y027162D01*
X027412Y027003D02*
X022329Y027003D01*
X022454Y026845D02*
X027290Y026845D01*
X027200Y026686D02*
X022547Y026686D01*
X022617Y026528D02*
X027135Y026528D01*
X027092Y026369D02*
X022654Y026369D01*
X022674Y026211D02*
X027081Y026211D01*
X027074Y026052D02*
X022679Y026052D01*
X022651Y025894D02*
X027092Y025894D01*
X027134Y025735D02*
X022623Y025735D01*
X022558Y025577D02*
X027193Y025577D01*
X027278Y025418D02*
X022469Y025418D01*
X022348Y025260D02*
X027398Y025260D01*
X027572Y025101D02*
X022185Y025101D01*
X021925Y024943D02*
X027842Y024943D01*
X028925Y024943D02*
X032885Y024943D01*
X032885Y025101D02*
X029185Y025101D01*
X029348Y025260D02*
X032885Y025260D01*
X032885Y025418D02*
X029469Y025418D01*
X029558Y025577D02*
X032834Y025577D01*
X032676Y025735D02*
X029623Y025735D01*
X028375Y026125D02*
X032625Y026125D01*
X033125Y025625D01*
X033125Y015875D01*
X033525Y016225D02*
X033699Y016225D01*
X033912Y016384D02*
X033365Y016384D01*
X033365Y016542D02*
X035175Y016542D01*
X035175Y016384D02*
X034338Y016384D01*
X034145Y016384D02*
X034105Y016384D01*
X034105Y016225D02*
X034145Y016225D01*
X034145Y016067D02*
X034105Y016067D01*
X034105Y015908D02*
X034145Y015908D01*
X034551Y016225D02*
X035175Y016225D01*
X035175Y016067D02*
X034641Y016067D01*
X034675Y015908D02*
X035175Y015908D01*
X035175Y015750D02*
X034662Y015750D01*
X034598Y015591D02*
X035175Y015591D01*
X035175Y015433D02*
X034452Y015433D01*
X034476Y015274D02*
X035175Y015274D01*
X035175Y015116D02*
X034599Y015116D01*
X034655Y014957D02*
X035175Y014957D01*
X035175Y014799D02*
X034655Y014799D01*
X034601Y014640D02*
X035175Y014640D01*
X035175Y014482D02*
X034481Y014482D01*
X034427Y014323D02*
X035175Y014323D01*
X035175Y014165D02*
X034579Y014165D01*
X034625Y013875D02*
X034125Y013875D01*
X034625Y013875D02*
X034875Y013625D01*
X034875Y004375D01*
X035115Y004655D02*
X035175Y004655D01*
X035175Y004813D02*
X035115Y004813D01*
X035115Y004972D02*
X035175Y004972D01*
X035175Y005130D02*
X035115Y005130D01*
X035115Y005289D02*
X035175Y005289D01*
X035175Y005447D02*
X035115Y005447D01*
X035115Y005606D02*
X035175Y005606D01*
X035175Y005764D02*
X035115Y005764D01*
X035115Y005923D02*
X035175Y005923D01*
X035175Y006081D02*
X035115Y006081D01*
X035115Y006240D02*
X035175Y006240D01*
X035175Y006398D02*
X035115Y006398D01*
X035115Y006557D02*
X035175Y006557D01*
X035175Y006715D02*
X035115Y006715D01*
X035115Y006874D02*
X035175Y006874D01*
X035175Y007032D02*
X035115Y007032D01*
X035115Y007191D02*
X035175Y007191D01*
X035175Y007349D02*
X035115Y007349D01*
X035115Y007508D02*
X035175Y007508D01*
X035175Y007666D02*
X035115Y007666D01*
X035115Y007825D02*
X035175Y007825D01*
X035175Y007983D02*
X035115Y007983D01*
X035115Y008142D02*
X035175Y008142D01*
X035175Y008300D02*
X035115Y008300D01*
X035115Y008459D02*
X035175Y008459D01*
X035175Y008617D02*
X035115Y008617D01*
X035115Y008776D02*
X035175Y008776D01*
X035175Y008934D02*
X035115Y008934D01*
X035115Y009093D02*
X035175Y009093D01*
X035175Y009251D02*
X035115Y009251D01*
X035115Y009410D02*
X035175Y009410D01*
X035175Y009568D02*
X035115Y009568D01*
X035115Y009727D02*
X035175Y009727D01*
X035175Y009885D02*
X035115Y009885D01*
X035115Y010044D02*
X035175Y010044D01*
X035175Y010202D02*
X035115Y010202D01*
X035115Y010361D02*
X035175Y010361D01*
X035175Y010519D02*
X035115Y010519D01*
X035115Y010678D02*
X035175Y010678D01*
X035175Y010836D02*
X035115Y010836D01*
X035115Y010995D02*
X035175Y010995D01*
X035175Y011153D02*
X035115Y011153D01*
X035115Y011312D02*
X035175Y011312D01*
X035175Y011470D02*
X035115Y011470D01*
X035115Y011629D02*
X035175Y011629D01*
X035175Y011787D02*
X035115Y011787D01*
X035115Y011946D02*
X035175Y011946D01*
X035175Y012104D02*
X035115Y012104D01*
X035115Y012263D02*
X035175Y012263D01*
X035175Y012421D02*
X035115Y012421D01*
X035115Y012580D02*
X035175Y012580D01*
X035175Y012738D02*
X035115Y012738D01*
X035115Y012897D02*
X035175Y012897D01*
X035175Y013055D02*
X035115Y013055D01*
X035115Y013214D02*
X035175Y013214D01*
X035175Y013372D02*
X035115Y013372D01*
X035115Y013531D02*
X035175Y013531D01*
X035175Y013689D02*
X035108Y013689D01*
X035175Y013848D02*
X034992Y013848D01*
X034833Y014006D02*
X035175Y014006D01*
X033125Y013875D02*
X032625Y013875D01*
X032720Y013531D02*
X031115Y013531D01*
X031115Y013372D02*
X032940Y013372D01*
X032714Y013214D02*
X031286Y013214D01*
X031374Y013055D02*
X032626Y013055D01*
X032595Y012897D02*
X031405Y012897D01*
X031392Y012738D02*
X032608Y012738D01*
X032674Y012580D02*
X031326Y012580D01*
X031164Y012421D02*
X032836Y012421D01*
X033517Y011470D02*
X030115Y011470D01*
X030115Y011312D02*
X033313Y011312D01*
X033265Y011153D02*
X030115Y011153D01*
X030115Y010995D02*
X033289Y010995D01*
X033385Y010836D02*
X030115Y010836D01*
X030115Y010678D02*
X033385Y010678D01*
X033385Y010519D02*
X030115Y010519D01*
X030115Y010361D02*
X033385Y010361D01*
X033385Y010202D02*
X030115Y010202D01*
X030115Y010044D02*
X033385Y010044D01*
X033385Y009885D02*
X030115Y009885D01*
X030115Y009727D02*
X033385Y009727D01*
X033385Y009568D02*
X030115Y009568D01*
X030115Y009410D02*
X033385Y009410D01*
X033385Y009251D02*
X031249Y009251D01*
X031477Y009093D02*
X033385Y009093D01*
X033385Y008934D02*
X031655Y008934D01*
X031814Y008776D02*
X033385Y008776D01*
X033385Y008617D02*
X031865Y008617D01*
X031865Y008459D02*
X033385Y008459D01*
X033385Y008300D02*
X031865Y008300D01*
X031865Y008142D02*
X033385Y008142D01*
X033385Y007983D02*
X031865Y007983D01*
X031865Y007825D02*
X033385Y007825D01*
X033385Y007666D02*
X031865Y007666D01*
X031865Y007508D02*
X033385Y007508D01*
X033385Y007349D02*
X031865Y007349D01*
X031865Y007191D02*
X033385Y007191D01*
X033385Y007032D02*
X031865Y007032D01*
X031865Y006874D02*
X033385Y006874D01*
X033385Y006715D02*
X031865Y006715D01*
X031865Y006557D02*
X033385Y006557D01*
X033385Y006398D02*
X031865Y006398D01*
X031865Y006240D02*
X033385Y006240D01*
X033385Y006081D02*
X031865Y006081D01*
X031865Y005923D02*
X033385Y005923D01*
X033385Y005764D02*
X031839Y005764D01*
X031695Y005606D02*
X033385Y005606D01*
X033385Y005447D02*
X031536Y005447D01*
X031375Y005625D02*
X031625Y005875D01*
X031625Y008625D01*
X031375Y008875D01*
X030875Y008875D01*
X030391Y009093D02*
X030115Y009093D01*
X030115Y009251D02*
X030501Y009251D01*
X030345Y008934D02*
X030115Y008934D01*
X030115Y008776D02*
X030345Y008776D01*
X030408Y008617D02*
X030115Y008617D01*
X030115Y008459D02*
X030542Y008459D01*
X030664Y008135D02*
X030587Y008095D01*
X030517Y008045D01*
X030455Y007983D01*
X030664Y008135D02*
X030746Y008161D01*
X030832Y008175D01*
X030875Y008175D01*
X030875Y007625D01*
X030325Y007625D01*
X030325Y007582D01*
X030339Y007496D01*
X030398Y007349D02*
X030115Y007349D01*
X030115Y007191D02*
X030537Y007191D01*
X030532Y007032D02*
X030115Y007032D01*
X030216Y006874D02*
X030404Y006874D01*
X030125Y006625D02*
X029875Y006875D01*
X030125Y006625D02*
X030875Y006625D01*
X030875Y007666D02*
X030875Y007666D01*
X030875Y007825D02*
X030875Y007825D01*
X030875Y007983D02*
X030875Y007983D01*
X030875Y008142D02*
X030875Y008142D01*
X031065Y008142D02*
X031385Y008142D01*
X031385Y008300D02*
X030115Y008300D01*
X030115Y008142D02*
X030685Y008142D01*
X031208Y008459D02*
X031385Y008459D01*
X033865Y008459D02*
X033885Y008459D01*
X033885Y008617D02*
X033865Y008617D01*
X033865Y008776D02*
X033885Y008776D01*
X033885Y008934D02*
X033865Y008934D01*
X033865Y009093D02*
X033885Y009093D01*
X033885Y009251D02*
X033865Y009251D01*
X033865Y009410D02*
X033885Y009410D01*
X033885Y009568D02*
X033865Y009568D01*
X033865Y009727D02*
X033885Y009727D01*
X033885Y009885D02*
X033865Y009885D01*
X033865Y010044D02*
X033885Y010044D01*
X033885Y010202D02*
X033865Y010202D01*
X033865Y010361D02*
X033885Y010361D01*
X033885Y010519D02*
X033865Y010519D01*
X033865Y010678D02*
X033885Y010678D01*
X033885Y010836D02*
X033865Y010836D01*
X033625Y011125D02*
X033625Y003375D01*
X030875Y001125D01*
X021625Y001125D01*
X021375Y001375D01*
X021375Y002625D01*
X020373Y001802D02*
X015385Y001802D01*
X015496Y001960D02*
X020262Y001960D01*
X020175Y002119D02*
X015574Y002119D01*
X015630Y002277D02*
X020118Y002277D01*
X020088Y002436D02*
X015667Y002436D01*
X015671Y002594D02*
X020072Y002594D01*
X020075Y002753D02*
X015675Y002753D01*
X015646Y002911D02*
X020110Y002911D01*
X020156Y003070D02*
X015598Y003070D01*
X015531Y003228D02*
X020215Y003228D01*
X020313Y003387D02*
X015435Y003387D01*
X015299Y003545D02*
X020460Y003545D01*
X020643Y003704D02*
X015104Y003704D01*
X014781Y003862D02*
X020959Y003862D01*
X021781Y003862D02*
X027911Y003862D01*
X027614Y003704D02*
X022104Y003704D01*
X022299Y003545D02*
X027427Y003545D01*
X027440Y003560D02*
X027440Y003560D01*
X027297Y003387D02*
X022435Y003387D01*
X022531Y003228D02*
X027199Y003228D01*
X027197Y003225D02*
X027197Y003225D01*
X027266Y003345D02*
X027266Y003345D01*
X027068Y002436D02*
X022667Y002436D01*
X022630Y002277D02*
X027100Y002277D01*
X027155Y002119D02*
X022574Y002119D01*
X022496Y001960D02*
X027235Y001960D01*
X027343Y001802D02*
X022385Y001802D01*
X022229Y001643D02*
X027493Y001643D01*
X027457Y001674D02*
X027457Y001674D01*
X027709Y001485D02*
X022013Y001485D01*
X021402Y001009D02*
X007830Y001009D01*
X007672Y001168D02*
X021243Y001168D01*
X021136Y001326D02*
X014478Y001326D01*
X014430Y001326D02*
X014387Y001326D01*
X014310Y001326D02*
X014306Y001326D01*
X014240Y001326D02*
X007615Y001326D01*
X008013Y001485D02*
X013749Y001485D01*
X013521Y001643D02*
X008229Y001643D01*
X008385Y001802D02*
X013373Y001802D01*
X013262Y001960D02*
X008496Y001960D01*
X008574Y002119D02*
X013175Y002119D01*
X013118Y002277D02*
X008630Y002277D01*
X008667Y002436D02*
X013088Y002436D01*
X013072Y002594D02*
X008671Y002594D01*
X008675Y002753D02*
X013075Y002753D01*
X013110Y002911D02*
X008646Y002911D01*
X008598Y003070D02*
X013156Y003070D01*
X013183Y003228D02*
X008531Y003228D01*
X008435Y003387D02*
X013024Y003387D01*
X012898Y003545D02*
X008299Y003545D01*
X008104Y003704D02*
X012885Y003704D01*
X012885Y003862D02*
X007781Y003862D01*
X007615Y004021D02*
X008002Y004021D01*
X008017Y004005D02*
X008087Y003955D01*
X008164Y003915D01*
X008246Y003889D01*
X008332Y003875D01*
X008366Y003875D01*
X008366Y004416D01*
X007825Y004416D01*
X007825Y004382D01*
X007839Y004296D01*
X007865Y004214D01*
X007905Y004137D01*
X007955Y004067D01*
X008017Y004005D01*
X007883Y004179D02*
X007615Y004179D01*
X007615Y004338D02*
X007832Y004338D01*
X007825Y004434D02*
X008366Y004434D01*
X008366Y004975D01*
X008332Y004975D01*
X008246Y004961D01*
X008164Y004935D01*
X008087Y004895D01*
X008017Y004845D01*
X007955Y004783D01*
X007905Y004713D01*
X007865Y004636D01*
X007839Y004554D01*
X007825Y004468D01*
X007825Y004434D01*
X007829Y004496D02*
X007615Y004496D01*
X007615Y004655D02*
X007875Y004655D01*
X007985Y004813D02*
X007615Y004813D01*
X007615Y004972D02*
X008310Y004972D01*
X008366Y004972D02*
X008384Y004972D01*
X008384Y004975D02*
X008384Y004434D01*
X008366Y004434D01*
X008366Y004416D01*
X008384Y004416D01*
X008384Y004434D01*
X008925Y004434D01*
X008925Y004468D01*
X008911Y004554D01*
X008885Y004636D01*
X008845Y004713D01*
X008795Y004783D01*
X008733Y004845D01*
X008663Y004895D01*
X008586Y004935D01*
X008504Y004961D01*
X008418Y004975D01*
X008384Y004975D01*
X008440Y004972D02*
X011310Y004972D01*
X011332Y004975D02*
X011246Y004961D01*
X011164Y004935D01*
X011087Y004895D01*
X011017Y004845D01*
X010955Y004783D01*
X010905Y004713D01*
X010865Y004636D01*
X010839Y004554D01*
X010825Y004468D01*
X010825Y004434D01*
X011366Y004434D01*
X011366Y004975D01*
X011332Y004975D01*
X011366Y004972D02*
X011384Y004972D01*
X011384Y004975D02*
X011384Y004434D01*
X011366Y004434D01*
X011366Y004416D01*
X010825Y004416D01*
X010825Y004382D01*
X010839Y004296D01*
X010865Y004214D01*
X010905Y004137D01*
X010955Y004067D01*
X011017Y004005D01*
X011087Y003955D01*
X011164Y003915D01*
X011246Y003889D01*
X011332Y003875D01*
X011366Y003875D01*
X011366Y004416D01*
X011384Y004416D01*
X011384Y004434D01*
X011925Y004434D01*
X011925Y004468D01*
X011911Y004554D01*
X011885Y004636D01*
X011845Y004713D01*
X011795Y004783D01*
X011733Y004845D01*
X011663Y004895D01*
X011586Y004935D01*
X011504Y004961D01*
X011418Y004975D01*
X011384Y004975D01*
X011440Y004972D02*
X012885Y004972D01*
X012885Y005130D02*
X007615Y005130D01*
X007615Y005289D02*
X012885Y005289D01*
X012885Y005447D02*
X007615Y005447D01*
X007615Y005606D02*
X012885Y005606D01*
X012885Y005764D02*
X007615Y005764D01*
X007615Y005923D02*
X012885Y005923D01*
X012885Y006081D02*
X007615Y006081D01*
X007615Y006240D02*
X012885Y006240D01*
X012885Y006398D02*
X007615Y006398D01*
X007580Y006557D02*
X012885Y006557D01*
X012885Y006715D02*
X007424Y006715D01*
X007266Y006874D02*
X012885Y006874D01*
X012885Y007032D02*
X007107Y007032D01*
X006949Y007191D02*
X012885Y007191D01*
X012885Y007349D02*
X006790Y007349D01*
X006632Y007508D02*
X012885Y007508D01*
X012885Y007666D02*
X006473Y007666D01*
X006315Y007825D02*
X012885Y007825D01*
X012885Y007983D02*
X011683Y007983D01*
X011831Y008142D02*
X012885Y008142D01*
X012885Y008300D02*
X011897Y008300D01*
X011905Y008459D02*
X012885Y008459D01*
X012885Y008617D02*
X011869Y008617D01*
X011774Y008776D02*
X012885Y008776D01*
X012885Y008934D02*
X011615Y008934D01*
X011615Y009093D02*
X012885Y009093D01*
X012885Y009251D02*
X011615Y009251D01*
X011615Y009410D02*
X012885Y009410D01*
X012885Y009568D02*
X011768Y009568D01*
X011866Y009727D02*
X012885Y009727D01*
X012885Y009885D02*
X011905Y009885D01*
X011900Y010044D02*
X012885Y010044D01*
X012885Y010202D02*
X011834Y010202D01*
X011689Y010361D02*
X012885Y010361D01*
X012885Y010519D02*
X011719Y010519D01*
X011846Y010678D02*
X012885Y010678D01*
X012885Y010836D02*
X011905Y010836D01*
X011905Y010995D02*
X012885Y010995D01*
X012885Y011153D02*
X011854Y011153D01*
X011738Y011312D02*
X012885Y011312D01*
X012885Y011470D02*
X011662Y011470D01*
X011826Y011629D02*
X012885Y011629D01*
X012885Y011787D02*
X012076Y011787D01*
X012235Y011946D02*
X012885Y011946D01*
X012885Y012104D02*
X012355Y012104D01*
X012365Y012263D02*
X012885Y012263D01*
X012885Y012421D02*
X012365Y012421D01*
X012365Y012580D02*
X012885Y012580D01*
X012885Y012738D02*
X012365Y012738D01*
X012365Y012897D02*
X012885Y012897D01*
X012885Y013055D02*
X012365Y013055D01*
X012365Y013214D02*
X012885Y013214D01*
X012885Y013372D02*
X012365Y013372D01*
X012365Y013531D02*
X012885Y013531D01*
X012885Y013689D02*
X012365Y013689D01*
X012365Y013848D02*
X012885Y013848D01*
X012885Y014006D02*
X012365Y014006D01*
X012365Y014165D02*
X012885Y014165D01*
X012885Y014323D02*
X012365Y014323D01*
X012365Y014482D02*
X012885Y014482D01*
X012885Y014640D02*
X012365Y014640D01*
X012365Y014799D02*
X012885Y014799D01*
X012885Y014957D02*
X012365Y014957D01*
X012365Y015116D02*
X012885Y015116D01*
X012885Y015274D02*
X012365Y015274D01*
X012365Y015433D02*
X012885Y015433D01*
X012885Y015591D02*
X012365Y015591D01*
X012333Y015750D02*
X012885Y015750D01*
X012885Y015908D02*
X012181Y015908D01*
X012023Y016067D02*
X012885Y016067D01*
X012885Y016225D02*
X011775Y016225D01*
X011532Y016384D02*
X012885Y016384D01*
X012885Y016542D02*
X010865Y016542D01*
X010865Y016384D02*
X011218Y016384D01*
X010975Y016225D02*
X010865Y016225D01*
X010865Y016067D02*
X010881Y016067D01*
X010385Y016067D02*
X008615Y016067D01*
X008615Y016225D02*
X010385Y016225D01*
X010385Y016384D02*
X008615Y016384D01*
X008615Y016542D02*
X010385Y016542D01*
X010385Y016701D02*
X008615Y016701D01*
X008615Y016859D02*
X010385Y016859D01*
X010385Y017018D02*
X008615Y017018D01*
X008615Y017176D02*
X010385Y017176D01*
X010385Y017335D02*
X008615Y017335D01*
X008615Y017493D02*
X010385Y017493D01*
X010385Y017652D02*
X008615Y017652D01*
X008615Y017810D02*
X010385Y017810D01*
X010404Y017969D02*
X008615Y017969D01*
X008615Y018127D02*
X010538Y018127D01*
X010696Y018286D02*
X008615Y018286D01*
X008615Y018444D02*
X010944Y018444D01*
X011143Y018603D02*
X008615Y018603D01*
X008615Y018761D02*
X010989Y018761D01*
X010886Y018920D02*
X008615Y018920D01*
X008615Y019078D02*
X010845Y019078D01*
X010848Y019237D02*
X008615Y019237D01*
X008615Y019395D02*
X010913Y019395D01*
X011054Y019554D02*
X008615Y019554D01*
X008615Y019712D02*
X011038Y019712D01*
X010907Y019871D02*
X008615Y019871D01*
X008779Y020029D02*
X010845Y020029D01*
X010845Y020188D02*
X008871Y020188D01*
X008905Y020346D02*
X010893Y020346D01*
X011005Y020505D02*
X008895Y020505D01*
X008875Y020875D02*
X008375Y020375D01*
X008375Y014125D01*
X008867Y014323D02*
X010385Y014323D01*
X010385Y014165D02*
X008905Y014165D01*
X008899Y014006D02*
X010415Y014006D01*
X010563Y013848D02*
X008834Y013848D01*
X008689Y013689D02*
X010722Y013689D01*
X010875Y013875D02*
X011375Y013875D01*
X010875Y013875D02*
X010625Y014125D01*
X010625Y017875D01*
X010875Y018125D01*
X011375Y018125D01*
X011607Y018603D02*
X012558Y018603D01*
X012400Y018761D02*
X011761Y018761D01*
X011806Y018444D02*
X012717Y018444D01*
X012875Y018286D02*
X011882Y018286D01*
X011905Y018127D02*
X012885Y018127D01*
X012885Y017969D02*
X011884Y017969D01*
X011810Y017810D02*
X012885Y017810D01*
X012885Y017652D02*
X011617Y017652D01*
X011133Y017652D02*
X010865Y017652D01*
X010865Y017493D02*
X012885Y017493D01*
X012885Y017335D02*
X010865Y017335D01*
X010865Y017176D02*
X012885Y017176D01*
X012885Y017018D02*
X010865Y017018D01*
X010865Y016859D02*
X012885Y016859D01*
X012885Y016701D02*
X010865Y016701D01*
X010385Y015908D02*
X008615Y015908D01*
X008615Y015750D02*
X010385Y015750D01*
X010385Y015591D02*
X008615Y015591D01*
X008615Y015433D02*
X010385Y015433D01*
X010385Y015274D02*
X008615Y015274D01*
X008615Y015116D02*
X010385Y015116D01*
X010385Y014957D02*
X008615Y014957D01*
X008615Y014799D02*
X010385Y014799D01*
X010385Y014640D02*
X008615Y014640D01*
X008768Y014482D02*
X010385Y014482D01*
X010970Y013531D02*
X008719Y013531D01*
X008846Y013372D02*
X011204Y013372D01*
X011546Y013372D02*
X011885Y013372D01*
X011885Y013214D02*
X008905Y013214D01*
X008905Y013055D02*
X011885Y013055D01*
X011885Y012897D02*
X008854Y012897D01*
X008738Y012738D02*
X011885Y012738D01*
X011885Y012580D02*
X008663Y012580D01*
X008826Y012421D02*
X011188Y012421D01*
X010963Y012263D02*
X008892Y012263D01*
X008905Y012104D02*
X010875Y012104D01*
X010845Y011946D02*
X008874Y011946D01*
X008787Y011787D02*
X010858Y011787D01*
X010924Y011629D02*
X008615Y011629D01*
X008615Y011470D02*
X011088Y011470D01*
X011012Y011312D02*
X008615Y011312D01*
X008615Y011153D02*
X010896Y011153D01*
X010845Y010995D02*
X008615Y010995D01*
X008615Y010836D02*
X010845Y010836D01*
X010904Y010678D02*
X008615Y010678D01*
X008615Y010519D02*
X011031Y010519D01*
X011061Y010361D02*
X008615Y010361D01*
X008615Y010202D02*
X010916Y010202D01*
X010850Y010044D02*
X008615Y010044D01*
X008615Y009885D02*
X010845Y009885D01*
X010884Y009727D02*
X008615Y009727D01*
X008615Y009568D02*
X010982Y009568D01*
X011135Y009410D02*
X008615Y009410D01*
X008615Y009251D02*
X011135Y009251D01*
X011135Y009093D02*
X008615Y009093D01*
X008615Y008934D02*
X011135Y008934D01*
X010976Y008776D02*
X008774Y008776D01*
X008869Y008617D02*
X010881Y008617D01*
X010845Y008459D02*
X008905Y008459D01*
X008897Y008300D02*
X010853Y008300D01*
X010919Y008142D02*
X008831Y008142D01*
X008683Y007983D02*
X011067Y007983D01*
X011375Y008425D02*
X011375Y009925D01*
X011375Y011925D02*
X011875Y011925D01*
X012125Y012175D01*
X012125Y015625D01*
X011875Y015875D01*
X011375Y015875D01*
X010940Y017810D02*
X010899Y017810D01*
X011375Y019125D02*
X012375Y019125D01*
X013125Y018375D01*
X013125Y003625D01*
X014125Y002625D01*
X014375Y002625D01*
X013643Y003704D02*
X013386Y003704D01*
X013365Y003862D02*
X013959Y003862D01*
X013365Y004338D02*
X014735Y004338D01*
X014624Y004496D02*
X013365Y004496D01*
X013365Y004655D02*
X014579Y004655D01*
X014582Y004813D02*
X013365Y004813D01*
X013365Y004972D02*
X014633Y004972D01*
X014752Y005130D02*
X013365Y005130D01*
X012885Y004813D02*
X011765Y004813D01*
X011875Y004655D02*
X012885Y004655D01*
X012885Y004496D02*
X011921Y004496D01*
X011925Y004416D02*
X011384Y004416D01*
X011384Y003875D01*
X011418Y003875D01*
X011504Y003889D01*
X011586Y003915D01*
X011663Y003955D01*
X011733Y004005D01*
X011795Y004067D01*
X011845Y004137D01*
X011885Y004214D01*
X011911Y004296D01*
X011925Y004382D01*
X011925Y004416D01*
X011918Y004338D02*
X012885Y004338D01*
X012885Y004179D02*
X011867Y004179D01*
X011748Y004021D02*
X012885Y004021D01*
X011384Y004021D02*
X011366Y004021D01*
X011366Y004179D02*
X011384Y004179D01*
X011384Y004338D02*
X011366Y004338D01*
X011366Y004496D02*
X011384Y004496D01*
X011384Y004655D02*
X011366Y004655D01*
X011366Y004813D02*
X011384Y004813D01*
X010985Y004813D02*
X008765Y004813D01*
X008875Y004655D02*
X010875Y004655D01*
X010829Y004496D02*
X008921Y004496D01*
X008925Y004416D02*
X008384Y004416D01*
X008384Y003875D01*
X008418Y003875D01*
X008504Y003889D01*
X008586Y003915D01*
X008663Y003955D01*
X008733Y004005D01*
X008795Y004067D01*
X008845Y004137D01*
X008885Y004214D01*
X008911Y004296D01*
X008925Y004382D01*
X008925Y004416D01*
X008918Y004338D02*
X010832Y004338D01*
X010883Y004179D02*
X008867Y004179D01*
X008748Y004021D02*
X011002Y004021D01*
X008384Y004021D02*
X008366Y004021D01*
X008366Y004179D02*
X008384Y004179D01*
X008384Y004338D02*
X008366Y004338D01*
X008366Y004496D02*
X008384Y004496D01*
X008384Y004655D02*
X008366Y004655D01*
X008366Y004813D02*
X008384Y004813D01*
X005384Y004813D02*
X005366Y004813D01*
X005366Y004655D02*
X005384Y004655D01*
X005384Y004496D02*
X005366Y004496D01*
X005366Y004338D02*
X005384Y004338D01*
X005384Y004179D02*
X005366Y004179D01*
X005366Y004021D02*
X005384Y004021D01*
X005002Y004021D02*
X000575Y004021D01*
X000575Y004179D02*
X004883Y004179D01*
X004832Y004338D02*
X000575Y004338D01*
X000575Y004496D02*
X004829Y004496D01*
X004875Y004655D02*
X000575Y004655D01*
X000575Y004813D02*
X004985Y004813D01*
X006156Y007983D02*
X008067Y007983D01*
X007919Y008142D02*
X005998Y008142D01*
X005897Y008300D02*
X007853Y008300D01*
X007845Y008459D02*
X005905Y008459D01*
X005869Y008617D02*
X007881Y008617D01*
X007976Y008776D02*
X005774Y008776D01*
X005615Y008934D02*
X008135Y008934D01*
X008135Y009093D02*
X005615Y009093D01*
X005615Y009251D02*
X008135Y009251D01*
X008135Y009410D02*
X005615Y009410D01*
X005768Y009568D02*
X008135Y009568D01*
X008375Y008425D02*
X008375Y012125D01*
X006375Y014375D02*
X005875Y013875D01*
X005375Y013875D01*
X005677Y014323D02*
X005984Y014323D01*
X006135Y014482D02*
X005731Y014482D01*
X005851Y014640D02*
X006135Y014640D01*
X006135Y014799D02*
X005905Y014799D01*
X005905Y014957D02*
X006135Y014957D01*
X006135Y015116D02*
X005849Y015116D01*
X005726Y015274D02*
X006135Y015274D01*
X006135Y015433D02*
X005682Y015433D01*
X005831Y015591D02*
X006135Y015591D01*
X006135Y015750D02*
X005897Y015750D01*
X005905Y015908D02*
X006135Y015908D01*
X006135Y016067D02*
X005869Y016067D01*
X005775Y016225D02*
X006135Y016225D01*
X006135Y016384D02*
X005532Y016384D01*
X005375Y015875D02*
X004875Y015875D01*
X004375Y015375D01*
X004375Y012425D01*
X004875Y011925D01*
X005375Y011925D01*
X004963Y012263D02*
X004877Y012263D01*
X004615Y013372D02*
X005204Y013372D01*
X004970Y013531D02*
X004615Y013531D01*
X004615Y013689D02*
X004878Y013689D01*
X004845Y013848D02*
X004615Y013848D01*
X004615Y014006D02*
X004856Y014006D01*
X004921Y014165D02*
X004615Y014165D01*
X004615Y014323D02*
X005073Y014323D01*
X005019Y014482D02*
X004615Y014482D01*
X004615Y014640D02*
X004899Y014640D01*
X004845Y014799D02*
X004615Y014799D01*
X004615Y014957D02*
X004845Y014957D01*
X004901Y015116D02*
X004615Y015116D01*
X004615Y015274D02*
X005024Y015274D01*
X005068Y015433D02*
X004772Y015433D01*
X006375Y014375D02*
X006375Y017375D01*
X005875Y017875D01*
X005375Y017875D01*
X005743Y017493D02*
X005918Y017493D01*
X007855Y020505D02*
X000575Y020505D01*
X000575Y020663D02*
X007921Y020663D01*
X008072Y020822D02*
X000575Y020822D01*
X000575Y020980D02*
X008020Y020980D01*
X007899Y021139D02*
X000575Y021139D01*
X000575Y021297D02*
X007845Y021297D01*
X007845Y021456D02*
X000575Y021456D01*
X000575Y021614D02*
X007900Y021614D01*
X008023Y021773D02*
X000575Y021773D01*
X000575Y021931D02*
X008069Y021931D01*
X007920Y022090D02*
X000575Y022090D01*
X000575Y022248D02*
X007854Y022248D01*
X007845Y022407D02*
X000575Y022407D01*
X000575Y022565D02*
X007880Y022565D01*
X007974Y022724D02*
X000575Y022724D01*
X000575Y022882D02*
X008214Y022882D01*
X008536Y022882D02*
X014135Y022882D01*
X014135Y022724D02*
X008776Y022724D01*
X008870Y022565D02*
X014135Y022565D01*
X014135Y022407D02*
X008905Y022407D01*
X008896Y022248D02*
X014135Y022248D01*
X014135Y022090D02*
X008830Y022090D01*
X008681Y021931D02*
X014135Y021931D01*
X014135Y021773D02*
X008727Y021773D01*
X008850Y021614D02*
X014135Y021614D01*
X014135Y021456D02*
X008905Y021456D01*
X008905Y021297D02*
X014135Y021297D01*
X014135Y021139D02*
X008851Y021139D01*
X008875Y020875D02*
X014375Y020875D01*
X014875Y020375D01*
X015125Y020375D01*
X015621Y020188D02*
X015635Y020188D01*
X015635Y020029D02*
X015529Y020029D01*
X015635Y019871D02*
X015292Y019871D01*
X014958Y019871D02*
X011843Y019871D01*
X011905Y020029D02*
X014721Y020029D01*
X014629Y020188D02*
X011905Y020188D01*
X011857Y020346D02*
X014565Y020346D01*
X014406Y020505D02*
X011745Y020505D01*
X011712Y019712D02*
X015635Y019712D01*
X015635Y019554D02*
X011696Y019554D01*
X011837Y019395D02*
X015635Y019395D01*
X015635Y019237D02*
X012603Y019237D01*
X012761Y019078D02*
X015635Y019078D01*
X015635Y018920D02*
X012920Y018920D01*
X015303Y017625D02*
X015425Y017676D01*
X015574Y017825D01*
X015599Y017885D01*
X015560Y017810D02*
X019885Y017810D01*
X019885Y017652D02*
X015367Y017652D01*
X015303Y017625D02*
X015425Y017574D01*
X015574Y017425D01*
X015599Y017365D01*
X018173Y017365D01*
X018261Y017328D01*
X018328Y017261D01*
X018578Y017011D01*
X018615Y016923D01*
X018615Y015599D01*
X018675Y015574D01*
X018824Y015425D01*
X018905Y015230D01*
X018905Y015020D01*
X018824Y014825D01*
X018675Y014676D01*
X018615Y014651D01*
X018615Y011349D01*
X018675Y011324D01*
X018824Y011175D01*
X018905Y010980D01*
X018905Y010770D01*
X018824Y010575D01*
X018675Y010426D01*
X018615Y010401D01*
X018615Y010349D01*
X018675Y010324D01*
X018824Y010175D01*
X018905Y009980D01*
X018905Y009770D01*
X018824Y009575D01*
X018675Y009426D01*
X018581Y009386D01*
X018586Y009385D01*
X018663Y009345D01*
X018733Y009295D01*
X018795Y009233D01*
X018845Y009163D01*
X018885Y009086D01*
X018911Y009004D01*
X018925Y008918D01*
X018925Y008875D01*
X018375Y008875D01*
X018375Y008875D01*
X018925Y008875D01*
X018925Y008832D01*
X018911Y008746D01*
X018885Y008664D01*
X018845Y008587D01*
X018795Y008517D01*
X018733Y008455D01*
X018663Y008405D01*
X018586Y008365D01*
X018504Y008339D01*
X018418Y008325D01*
X018375Y008325D01*
X018375Y008875D01*
X018375Y008875D01*
X018375Y008875D01*
X018375Y008325D01*
X018332Y008325D01*
X018246Y008339D01*
X018164Y008365D01*
X018087Y008405D01*
X018017Y008455D01*
X017955Y008517D01*
X017905Y008587D01*
X017865Y008664D01*
X017839Y008746D01*
X017825Y008832D01*
X017825Y008875D01*
X018375Y008875D01*
X018375Y008776D02*
X018375Y008776D01*
X018375Y008617D02*
X018375Y008617D01*
X018375Y008459D02*
X018375Y008459D01*
X018736Y008459D02*
X020819Y008459D01*
X020885Y008617D02*
X018861Y008617D01*
X018916Y008776D02*
X020885Y008776D01*
X020885Y008934D02*
X018923Y008934D01*
X018881Y009093D02*
X020885Y009093D01*
X020885Y009251D02*
X018777Y009251D01*
X018636Y009410D02*
X020885Y009410D01*
X020885Y009568D02*
X018818Y009568D01*
X018887Y009727D02*
X020885Y009727D01*
X020885Y009885D02*
X018905Y009885D01*
X018879Y010044D02*
X020885Y010044D01*
X020885Y010202D02*
X018798Y010202D01*
X018615Y010361D02*
X020885Y010361D01*
X020885Y010519D02*
X018769Y010519D01*
X018867Y010678D02*
X020885Y010678D01*
X020885Y010836D02*
X018905Y010836D01*
X018899Y010995D02*
X020885Y010995D01*
X020885Y011153D02*
X018834Y011153D01*
X018688Y011312D02*
X020885Y011312D01*
X020885Y011470D02*
X018615Y011470D01*
X018615Y011629D02*
X020885Y011629D01*
X020792Y011787D02*
X018615Y011787D01*
X018615Y011946D02*
X020765Y011946D01*
X020809Y012104D02*
X018615Y012104D01*
X018615Y012263D02*
X020885Y012263D01*
X020885Y012421D02*
X018615Y012421D01*
X018615Y012580D02*
X020885Y012580D01*
X020885Y012738D02*
X018615Y012738D01*
X018615Y012897D02*
X020885Y012897D01*
X020885Y013055D02*
X018615Y013055D01*
X018615Y013214D02*
X020885Y013214D01*
X020885Y013372D02*
X018615Y013372D01*
X018615Y013531D02*
X020885Y013531D01*
X020885Y013689D02*
X018615Y013689D01*
X018615Y013848D02*
X020393Y013848D01*
X020285Y014006D02*
X018615Y014006D01*
X018615Y014165D02*
X020246Y014165D01*
X020088Y014323D02*
X018615Y014323D01*
X018615Y014482D02*
X019929Y014482D01*
X019885Y014640D02*
X018615Y014640D01*
X018798Y014799D02*
X019885Y014799D01*
X019885Y014957D02*
X018879Y014957D01*
X018905Y015116D02*
X019885Y015116D01*
X019885Y015274D02*
X018887Y015274D01*
X018817Y015433D02*
X019885Y015433D01*
X019885Y015591D02*
X018635Y015591D01*
X018615Y015750D02*
X019885Y015750D01*
X019885Y015908D02*
X018615Y015908D01*
X018615Y016067D02*
X019885Y016067D01*
X019885Y016225D02*
X018615Y016225D01*
X018615Y016384D02*
X019885Y016384D01*
X019885Y016542D02*
X018615Y016542D01*
X018615Y016701D02*
X019885Y016701D01*
X019885Y016859D02*
X018615Y016859D01*
X018572Y017018D02*
X019885Y017018D01*
X019885Y017176D02*
X018413Y017176D01*
X018246Y017335D02*
X019885Y017335D01*
X019885Y017493D02*
X015507Y017493D01*
X015125Y017125D02*
X018125Y017125D01*
X018375Y016875D01*
X018375Y015125D01*
X018375Y010875D01*
X018375Y009875D01*
X017952Y010202D02*
X016483Y010202D01*
X016485Y010197D02*
X016430Y010329D01*
X016365Y010394D01*
X016365Y015526D01*
X016604Y015765D01*
X016697Y015765D01*
X016829Y015820D01*
X016930Y015921D01*
X016985Y016053D01*
X016985Y016197D01*
X016930Y016329D01*
X016829Y016430D01*
X016697Y016485D01*
X016553Y016485D01*
X016421Y016430D01*
X016320Y016329D01*
X016265Y016197D01*
X016265Y016104D01*
X015922Y015761D01*
X015885Y015673D01*
X015885Y010394D01*
X015820Y010329D01*
X015765Y010197D01*
X015765Y010053D01*
X015820Y009921D01*
X015921Y009820D01*
X016053Y009765D01*
X016197Y009765D01*
X016329Y009820D01*
X016430Y009921D01*
X016485Y010053D01*
X016485Y010197D01*
X016481Y010044D02*
X017871Y010044D01*
X017845Y009885D02*
X016394Y009885D01*
X016125Y010125D02*
X016125Y015625D01*
X016625Y016125D01*
X016876Y016384D02*
X018135Y016384D01*
X018135Y016542D02*
X015458Y016542D01*
X015450Y016701D02*
X018135Y016701D01*
X018052Y016859D02*
X015588Y016859D01*
X015592Y016384D02*
X016374Y016384D01*
X016277Y016225D02*
X015655Y016225D01*
X015655Y016067D02*
X016227Y016067D01*
X016069Y015908D02*
X015609Y015908D01*
X015499Y015750D02*
X015917Y015750D01*
X015885Y015591D02*
X015365Y015591D01*
X015365Y015433D02*
X015885Y015433D01*
X015885Y015274D02*
X015365Y015274D01*
X015365Y015116D02*
X015885Y015116D01*
X015885Y014957D02*
X015365Y014957D01*
X015365Y014799D02*
X015885Y014799D01*
X015885Y014640D02*
X015365Y014640D01*
X015365Y014482D02*
X015885Y014482D01*
X015885Y014323D02*
X015365Y014323D01*
X015365Y014165D02*
X015885Y014165D01*
X015885Y014006D02*
X015365Y014006D01*
X015365Y013848D02*
X015885Y013848D01*
X015885Y013689D02*
X015365Y013689D01*
X015365Y013531D02*
X015885Y013531D01*
X015885Y013372D02*
X015365Y013372D01*
X015365Y013214D02*
X015885Y013214D01*
X015885Y013055D02*
X015365Y013055D01*
X015365Y012897D02*
X015885Y012897D01*
X015885Y012738D02*
X015365Y012738D01*
X015365Y012580D02*
X015885Y012580D01*
X015885Y012421D02*
X015365Y012421D01*
X015365Y012263D02*
X015885Y012263D01*
X015885Y012104D02*
X015365Y012104D01*
X015365Y011946D02*
X015885Y011946D01*
X015885Y011787D02*
X015365Y011787D01*
X015365Y011629D02*
X015885Y011629D01*
X015885Y011470D02*
X015365Y011470D01*
X015365Y011312D02*
X015885Y011312D01*
X015885Y011153D02*
X015365Y011153D01*
X015365Y010995D02*
X015885Y010995D01*
X015885Y010836D02*
X015365Y010836D01*
X015365Y010678D02*
X015885Y010678D01*
X015885Y010519D02*
X015365Y010519D01*
X015365Y010361D02*
X015851Y010361D01*
X015767Y010202D02*
X015365Y010202D01*
X015365Y010044D02*
X015769Y010044D01*
X015856Y009885D02*
X015365Y009885D01*
X015365Y009727D02*
X017863Y009727D01*
X017932Y009568D02*
X015365Y009568D01*
X015365Y009410D02*
X018114Y009410D01*
X017973Y009251D02*
X015365Y009251D01*
X015507Y009093D02*
X017869Y009093D01*
X017827Y008934D02*
X015612Y008934D01*
X015655Y008776D02*
X017834Y008776D01*
X017889Y008617D02*
X015654Y008617D01*
X015588Y008459D02*
X018014Y008459D01*
X020125Y007425D02*
X021125Y008425D01*
X021125Y011925D01*
X021125Y017625D01*
X020875Y017875D01*
X020437Y017652D02*
X020365Y017652D01*
X020365Y017810D02*
X020385Y017810D01*
X020385Y017969D02*
X020365Y017969D01*
X020365Y018127D02*
X020449Y018127D01*
X020365Y018286D02*
X020593Y018286D01*
X020635Y018444D02*
X020365Y018444D01*
X020365Y018603D02*
X020457Y018603D01*
X020460Y018597D02*
X020597Y018460D01*
X020778Y018385D01*
X020972Y018385D01*
X021153Y018460D01*
X021290Y018597D01*
X021365Y018778D01*
X021365Y018972D01*
X021290Y019153D01*
X021153Y019290D01*
X021115Y019306D01*
X021115Y021776D01*
X021724Y022385D01*
X022651Y022385D01*
X022676Y022325D01*
X022825Y022176D01*
X023020Y022095D01*
X023230Y022095D01*
X023425Y022176D01*
X023574Y022325D01*
X023655Y022520D01*
X023655Y022730D01*
X023574Y022925D01*
X023425Y023074D01*
X023230Y023155D01*
X023020Y023155D01*
X022825Y023074D01*
X022676Y022925D01*
X022651Y022865D01*
X021577Y022865D01*
X021489Y022828D01*
X020739Y022078D01*
X020672Y022011D01*
X020635Y021923D01*
X020635Y019306D01*
X020597Y019290D01*
X020460Y019153D01*
X020385Y018972D01*
X020385Y018778D01*
X020460Y018597D01*
X020392Y018761D02*
X020365Y018761D01*
X020365Y018920D02*
X020385Y018920D01*
X020365Y019078D02*
X020429Y019078D01*
X020365Y019237D02*
X020544Y019237D01*
X020635Y019395D02*
X020365Y019395D01*
X020365Y019554D02*
X020635Y019554D01*
X020635Y019712D02*
X020365Y019712D01*
X020365Y019871D02*
X020635Y019871D01*
X020635Y020029D02*
X020365Y020029D01*
X020365Y020188D02*
X020635Y020188D01*
X020635Y020346D02*
X020365Y020346D01*
X020365Y020505D02*
X020635Y020505D01*
X020635Y020663D02*
X020365Y020663D01*
X020365Y020822D02*
X020635Y020822D01*
X020635Y020980D02*
X020365Y020980D01*
X020365Y021139D02*
X020635Y021139D01*
X020635Y021297D02*
X020365Y021297D01*
X020365Y021456D02*
X020635Y021456D01*
X020635Y021614D02*
X020365Y021614D01*
X020365Y021773D02*
X020635Y021773D01*
X020638Y021931D02*
X020365Y021931D01*
X020365Y022090D02*
X020750Y022090D01*
X020909Y022248D02*
X020365Y022248D01*
X020365Y022407D02*
X021067Y022407D01*
X021226Y022565D02*
X020365Y022565D01*
X020365Y022724D02*
X021384Y022724D01*
X021625Y022625D02*
X020875Y021875D01*
X020875Y018875D01*
X021321Y019078D02*
X022834Y019078D01*
X022825Y019074D02*
X022676Y018925D01*
X022595Y018730D01*
X022595Y018520D01*
X022676Y018325D01*
X022825Y018176D01*
X022885Y018151D01*
X022885Y017849D01*
X022825Y017824D01*
X022676Y017675D01*
X022595Y017480D01*
X022595Y017270D01*
X022676Y017075D01*
X022825Y016926D01*
X023020Y016845D01*
X023230Y016845D01*
X023425Y016926D01*
X023574Y017075D01*
X023655Y017270D01*
X023655Y017480D01*
X023574Y017675D01*
X023425Y017824D01*
X023365Y017849D01*
X023365Y018151D01*
X023425Y018176D01*
X023574Y018325D01*
X023655Y018520D01*
X023655Y018730D01*
X023574Y018925D01*
X023425Y019074D01*
X023230Y019155D01*
X023020Y019155D01*
X022825Y019074D01*
X022673Y018920D02*
X021365Y018920D01*
X021358Y018761D02*
X022608Y018761D01*
X022595Y018603D02*
X021293Y018603D01*
X021115Y018444D02*
X022626Y018444D01*
X022715Y018286D02*
X021157Y018286D01*
X021301Y018127D02*
X022885Y018127D01*
X022885Y017969D02*
X021365Y017969D01*
X021365Y017810D02*
X022810Y017810D01*
X022666Y017652D02*
X021365Y017652D01*
X021365Y017493D02*
X022600Y017493D01*
X022595Y017335D02*
X021365Y017335D01*
X021365Y017176D02*
X022634Y017176D01*
X022733Y017018D02*
X021365Y017018D01*
X021365Y016859D02*
X022986Y016859D01*
X023264Y016859D02*
X025345Y016859D01*
X025360Y017018D02*
X023517Y017018D01*
X023616Y017176D02*
X025426Y017176D01*
X025599Y017335D02*
X023655Y017335D01*
X023650Y017493D02*
X025507Y017493D01*
X025394Y017652D02*
X023584Y017652D01*
X023440Y017810D02*
X025345Y017810D01*
X025345Y017969D02*
X023365Y017969D01*
X023365Y018127D02*
X025406Y018127D01*
X025536Y018286D02*
X023535Y018286D01*
X023624Y018444D02*
X025556Y018444D01*
X025414Y018603D02*
X023655Y018603D01*
X023642Y018761D02*
X025150Y018761D01*
X024991Y018920D02*
X023577Y018920D01*
X023416Y019078D02*
X024885Y019078D01*
X024885Y019237D02*
X021206Y019237D01*
X021115Y019395D02*
X024885Y019395D01*
X024885Y019554D02*
X021115Y019554D01*
X021115Y019712D02*
X024885Y019712D01*
X024885Y019871D02*
X021115Y019871D01*
X021115Y020029D02*
X024885Y020029D01*
X024885Y020188D02*
X021115Y020188D01*
X021115Y020346D02*
X024885Y020346D01*
X024885Y020505D02*
X021115Y020505D01*
X021115Y020663D02*
X024885Y020663D01*
X024885Y020822D02*
X021115Y020822D01*
X021115Y020980D02*
X024885Y020980D01*
X024885Y021139D02*
X021115Y021139D01*
X021115Y021297D02*
X024885Y021297D01*
X024885Y021456D02*
X021115Y021456D01*
X021115Y021614D02*
X024885Y021614D01*
X024885Y021773D02*
X021115Y021773D01*
X021270Y021931D02*
X024885Y021931D01*
X024885Y022090D02*
X021429Y022090D01*
X021587Y022248D02*
X022752Y022248D01*
X023125Y022625D02*
X021625Y022625D01*
X022658Y022882D02*
X020365Y022882D01*
X020365Y023041D02*
X022791Y023041D01*
X023459Y023041D02*
X025541Y023041D01*
X025408Y022882D02*
X023592Y022882D01*
X023655Y022724D02*
X025134Y022724D01*
X024976Y022565D02*
X023655Y022565D01*
X023608Y022407D02*
X024885Y022407D01*
X024885Y022248D02*
X023498Y022248D01*
X025125Y022375D02*
X025375Y022625D01*
X025875Y022625D01*
X026248Y022248D02*
X032885Y022248D01*
X032885Y022090D02*
X026138Y022090D01*
X026318Y021931D02*
X032885Y021931D01*
X032885Y022407D02*
X026358Y022407D01*
X026405Y022565D02*
X032885Y022565D01*
X032885Y022724D02*
X026405Y022724D01*
X026342Y022882D02*
X032885Y022882D01*
X032885Y023041D02*
X026209Y023041D01*
X025125Y022375D02*
X025125Y019125D01*
X025375Y018875D01*
X025875Y018875D01*
X025487Y019237D02*
X025365Y019237D01*
X023125Y018625D02*
X023125Y017375D01*
X021365Y016701D02*
X025374Y016701D01*
X023125Y013375D02*
X023125Y012375D01*
X020885Y013848D02*
X020857Y013848D01*
X020625Y014125D02*
X020125Y014625D01*
X020125Y025125D01*
X021125Y026125D01*
X021375Y026125D01*
X020081Y026211D02*
X015674Y026211D01*
X015679Y026052D02*
X020074Y026052D01*
X020092Y025894D02*
X015651Y025894D01*
X015623Y025735D02*
X020134Y025735D01*
X020193Y025577D02*
X015558Y025577D01*
X015469Y025418D02*
X020079Y025418D01*
X019921Y025260D02*
X015348Y025260D01*
X015185Y025101D02*
X019885Y025101D01*
X019885Y024943D02*
X014925Y024943D01*
X014615Y024784D02*
X019885Y024784D01*
X019885Y024626D02*
X014615Y024626D01*
X014615Y024467D02*
X019885Y024467D01*
X019885Y024309D02*
X014615Y024309D01*
X014615Y024150D02*
X019885Y024150D01*
X019885Y023992D02*
X014615Y023992D01*
X014615Y023833D02*
X019885Y023833D01*
X019885Y023675D02*
X014615Y023675D01*
X014615Y023516D02*
X019885Y023516D01*
X019885Y023358D02*
X014615Y023358D01*
X014615Y023199D02*
X019885Y023199D01*
X019885Y023041D02*
X014615Y023041D01*
X014615Y022882D02*
X014964Y022882D01*
X014724Y022724D02*
X014615Y022724D01*
X014615Y022565D02*
X014630Y022565D01*
X015125Y022375D02*
X015625Y022375D01*
X015875Y022125D01*
X015875Y018375D01*
X016098Y018286D02*
X019885Y018286D01*
X019885Y018444D02*
X016115Y018444D01*
X016115Y018603D02*
X018251Y018603D01*
X018270Y018595D02*
X018480Y018595D01*
X018675Y018676D01*
X018824Y018825D01*
X018905Y019020D01*
X018905Y019230D01*
X018824Y019425D01*
X018675Y019574D01*
X018480Y019655D01*
X018270Y019655D01*
X018075Y019574D01*
X017926Y019425D01*
X017922Y019417D01*
X017865Y019474D01*
X017865Y020221D01*
X017926Y020075D01*
X018075Y019926D01*
X018270Y019845D01*
X018480Y019845D01*
X018675Y019926D01*
X018824Y020075D01*
X018905Y020270D01*
X018905Y020480D01*
X018824Y020675D01*
X018675Y020824D01*
X018553Y020875D01*
X018675Y020926D01*
X018824Y021075D01*
X018905Y021270D01*
X018905Y021480D01*
X018824Y021675D01*
X018675Y021824D01*
X018615Y021849D01*
X018615Y021901D01*
X018675Y021926D01*
X018824Y022075D01*
X018905Y022270D01*
X018905Y022480D01*
X018824Y022675D01*
X018675Y022824D01*
X018480Y022905D01*
X018270Y022905D01*
X018075Y022824D01*
X017926Y022675D01*
X017845Y022480D01*
X017845Y022270D01*
X017926Y022075D01*
X018075Y021926D01*
X018135Y021901D01*
X018135Y021849D01*
X018075Y021824D01*
X017926Y021675D01*
X017901Y021615D01*
X017827Y021615D01*
X017739Y021578D01*
X017489Y021328D01*
X017422Y021261D01*
X017385Y021173D01*
X017385Y019327D01*
X017422Y019239D01*
X017672Y018989D01*
X017739Y018922D01*
X017827Y018885D01*
X017901Y018885D01*
X017926Y018825D01*
X018075Y018676D01*
X018270Y018595D01*
X018499Y018603D02*
X019885Y018603D01*
X019885Y018761D02*
X018761Y018761D01*
X018864Y018920D02*
X019885Y018920D01*
X019885Y019078D02*
X018905Y019078D01*
X018902Y019237D02*
X019885Y019237D01*
X019885Y019395D02*
X018837Y019395D01*
X018696Y019554D02*
X019885Y019554D01*
X019885Y019712D02*
X017865Y019712D01*
X017865Y019554D02*
X018054Y019554D01*
X018208Y019871D02*
X017865Y019871D01*
X017865Y020029D02*
X017971Y020029D01*
X017879Y020188D02*
X017865Y020188D01*
X017385Y020188D02*
X016115Y020188D01*
X016115Y020346D02*
X017385Y020346D01*
X017385Y020505D02*
X016115Y020505D01*
X016115Y020663D02*
X017385Y020663D01*
X017385Y020822D02*
X016115Y020822D01*
X016115Y020980D02*
X017385Y020980D01*
X017385Y021139D02*
X016115Y021139D01*
X016115Y021297D02*
X017458Y021297D01*
X017616Y021456D02*
X016115Y021456D01*
X016115Y021614D02*
X017825Y021614D01*
X017875Y021375D02*
X017625Y021125D01*
X017625Y019375D01*
X017875Y019125D01*
X018625Y019125D01*
X017989Y018761D02*
X016115Y018761D01*
X016115Y018920D02*
X017744Y018920D01*
X017583Y019078D02*
X016115Y019078D01*
X016115Y019237D02*
X017424Y019237D01*
X017385Y019395D02*
X016115Y019395D01*
X016115Y019554D02*
X017385Y019554D01*
X017385Y019712D02*
X016115Y019712D01*
X016115Y019871D02*
X017385Y019871D01*
X017385Y020029D02*
X016115Y020029D01*
X014375Y020875D02*
X014375Y026125D01*
X015454Y026845D02*
X020290Y026845D01*
X020200Y026686D02*
X015547Y026686D01*
X015617Y026528D02*
X020135Y026528D01*
X020092Y026369D02*
X015654Y026369D01*
X015329Y027003D02*
X020412Y027003D01*
X020595Y027162D02*
X015171Y027162D01*
X014901Y027320D02*
X020857Y027320D01*
X020572Y025101D02*
X020440Y025101D01*
X020365Y024943D02*
X020842Y024943D01*
X020365Y024784D02*
X032885Y024784D01*
X032885Y024626D02*
X020365Y024626D01*
X020365Y024467D02*
X032885Y024467D01*
X032885Y024309D02*
X020365Y024309D01*
X020365Y024150D02*
X032885Y024150D01*
X032885Y023992D02*
X020365Y023992D01*
X020365Y023833D02*
X032885Y023833D01*
X032885Y023675D02*
X020365Y023675D01*
X020365Y023516D02*
X032885Y023516D01*
X032885Y023358D02*
X020365Y023358D01*
X020365Y023199D02*
X032885Y023199D01*
X033365Y019395D02*
X035175Y019395D01*
X035175Y019237D02*
X033365Y019237D01*
X033365Y019078D02*
X035175Y019078D01*
X035175Y018920D02*
X033365Y018920D01*
X033365Y018761D02*
X035175Y018761D01*
X035175Y018603D02*
X033365Y018603D01*
X033365Y018444D02*
X035175Y018444D01*
X035175Y018286D02*
X033365Y018286D01*
X033365Y018127D02*
X035175Y018127D01*
X035175Y017969D02*
X033365Y017969D01*
X033365Y017810D02*
X035175Y017810D01*
X035175Y017652D02*
X033365Y017652D01*
X033365Y017493D02*
X035175Y017493D01*
X035175Y017335D02*
X033365Y017335D01*
X033365Y017176D02*
X035175Y017176D01*
X035175Y017018D02*
X033365Y017018D01*
X033365Y016859D02*
X035175Y016859D01*
X035175Y016701D02*
X033365Y016701D01*
X033733Y011470D02*
X033885Y011470D01*
X033865Y008300D02*
X033885Y008300D01*
X033885Y008142D02*
X033865Y008142D01*
X033865Y007983D02*
X033885Y007983D01*
X033885Y007825D02*
X033865Y007825D01*
X033865Y007666D02*
X033885Y007666D01*
X033885Y007508D02*
X033865Y007508D01*
X033865Y007349D02*
X033885Y007349D01*
X033885Y007191D02*
X033865Y007191D01*
X033865Y007032D02*
X033885Y007032D01*
X033885Y006874D02*
X033865Y006874D01*
X033865Y006715D02*
X033885Y006715D01*
X033885Y006557D02*
X033865Y006557D01*
X033865Y006398D02*
X033885Y006398D01*
X033885Y006240D02*
X033865Y006240D01*
X033865Y006081D02*
X033885Y006081D01*
X033885Y005923D02*
X033865Y005923D01*
X033865Y005764D02*
X033885Y005764D01*
X033885Y005606D02*
X033865Y005606D01*
X033865Y005447D02*
X033885Y005447D01*
X033885Y005289D02*
X033865Y005289D01*
X033865Y005130D02*
X033885Y005130D01*
X033885Y004972D02*
X033865Y004972D01*
X033865Y004813D02*
X033885Y004813D01*
X033885Y004655D02*
X033865Y004655D01*
X033865Y004496D02*
X033885Y004496D01*
X033885Y004338D02*
X033865Y004338D01*
X033865Y004179D02*
X033885Y004179D01*
X033885Y004021D02*
X033865Y004021D01*
X033865Y003862D02*
X033885Y003862D01*
X033885Y003704D02*
X033865Y003704D01*
X033865Y003545D02*
X033885Y003545D01*
X033885Y003387D02*
X033867Y003387D01*
X033885Y003228D02*
X033818Y003228D01*
X033730Y003070D02*
X033631Y003070D01*
X033572Y002911D02*
X033437Y002911D01*
X033413Y002753D02*
X033243Y002753D01*
X033255Y002594D02*
X033049Y002594D01*
X033096Y002436D02*
X032856Y002436D01*
X032938Y002277D02*
X032662Y002277D01*
X032779Y002119D02*
X032468Y002119D01*
X032621Y001960D02*
X032275Y001960D01*
X032462Y001802D02*
X032081Y001802D01*
X031887Y001643D02*
X032304Y001643D01*
X032145Y001485D02*
X031693Y001485D01*
X031500Y001326D02*
X031987Y001326D01*
X031828Y001168D02*
X031306Y001168D01*
X031112Y001009D02*
X031670Y001009D01*
X031129Y001643D02*
X029260Y001643D01*
X029407Y001802D02*
X031323Y001802D01*
X031517Y001960D02*
X029517Y001960D01*
X029595Y002119D02*
X031710Y002119D01*
X031904Y002277D02*
X029648Y002277D01*
X029681Y002436D02*
X032098Y002436D01*
X032291Y002594D02*
X028455Y002594D01*
X028455Y002753D02*
X028295Y002753D01*
X028295Y002911D02*
X028455Y002911D01*
X028455Y003070D02*
X028295Y003070D01*
X028295Y003228D02*
X028455Y003228D01*
X028455Y003387D02*
X028295Y003387D01*
X028295Y003545D02*
X028455Y003545D01*
X028455Y003704D02*
X028295Y003704D01*
X028295Y003862D02*
X028455Y003862D01*
X028838Y003862D02*
X033385Y003862D01*
X033385Y003704D02*
X029137Y003704D01*
X029324Y003545D02*
X033385Y003545D01*
X033260Y003387D02*
X029453Y003387D01*
X029550Y003228D02*
X033066Y003228D01*
X032873Y003070D02*
X029620Y003070D01*
X029665Y002911D02*
X032679Y002911D01*
X032485Y002753D02*
X029689Y002753D01*
X029042Y001485D02*
X030935Y001485D01*
X031288Y005289D02*
X033385Y005289D01*
X031375Y005625D02*
X030875Y005625D01*
X023635Y009410D02*
X021365Y009410D01*
X021365Y009568D02*
X023635Y009568D01*
X023635Y009727D02*
X021365Y009727D01*
X021365Y009885D02*
X022923Y009885D01*
X022707Y010044D02*
X021365Y010044D01*
X021365Y010202D02*
X022623Y010202D01*
X023327Y009885D02*
X023635Y009885D01*
X023617Y010044D02*
X023543Y010044D01*
X023134Y009093D02*
X023116Y009093D01*
X023116Y008934D02*
X023134Y008934D01*
X023134Y008776D02*
X023116Y008776D01*
X022681Y008300D02*
X021333Y008300D01*
X021181Y008142D02*
X022862Y008142D01*
X020661Y008300D02*
X015450Y008300D01*
X015125Y008725D02*
X015125Y016125D01*
X016430Y015591D02*
X018115Y015591D01*
X018135Y015750D02*
X016589Y015750D01*
X016917Y015908D02*
X018135Y015908D01*
X018135Y016067D02*
X016985Y016067D01*
X016973Y016225D02*
X018135Y016225D01*
X017933Y015433D02*
X016365Y015433D01*
X016365Y015274D02*
X017863Y015274D01*
X017845Y015116D02*
X016365Y015116D01*
X016365Y014957D02*
X017871Y014957D01*
X017952Y014799D02*
X016365Y014799D01*
X016365Y014640D02*
X018135Y014640D01*
X018135Y014482D02*
X016365Y014482D01*
X016365Y014323D02*
X018135Y014323D01*
X018135Y014165D02*
X016365Y014165D01*
X016365Y014006D02*
X018135Y014006D01*
X018135Y013848D02*
X016365Y013848D01*
X016365Y013689D02*
X018135Y013689D01*
X018135Y013531D02*
X016365Y013531D01*
X016365Y013372D02*
X018135Y013372D01*
X018135Y013214D02*
X016365Y013214D01*
X016365Y013055D02*
X018135Y013055D01*
X018135Y012897D02*
X016365Y012897D01*
X016365Y012738D02*
X018135Y012738D01*
X018135Y012580D02*
X016365Y012580D01*
X016365Y012421D02*
X018135Y012421D01*
X018135Y012263D02*
X016365Y012263D01*
X016365Y012104D02*
X018135Y012104D01*
X018135Y011946D02*
X016365Y011946D01*
X016365Y011787D02*
X018135Y011787D01*
X018135Y011629D02*
X016365Y011629D01*
X016365Y011470D02*
X018135Y011470D01*
X018062Y011312D02*
X016365Y011312D01*
X016365Y011153D02*
X017916Y011153D01*
X017851Y010995D02*
X016365Y010995D01*
X016365Y010836D02*
X017845Y010836D01*
X017883Y010678D02*
X016365Y010678D01*
X016365Y010519D02*
X017981Y010519D01*
X018135Y010361D02*
X016399Y010361D01*
X011873Y012263D02*
X011787Y012263D01*
X011885Y012421D02*
X011562Y012421D01*
X011780Y013531D02*
X011885Y013531D01*
X011872Y013689D02*
X011885Y013689D01*
X015808Y017969D02*
X019885Y017969D01*
X019885Y018127D02*
X015966Y018127D01*
X018542Y019871D02*
X019885Y019871D01*
X019885Y020029D02*
X018779Y020029D01*
X018871Y020188D02*
X019885Y020188D01*
X019885Y020346D02*
X018905Y020346D01*
X018895Y020505D02*
X019885Y020505D01*
X019885Y020663D02*
X018829Y020663D01*
X018678Y020822D02*
X019885Y020822D01*
X019885Y020980D02*
X018730Y020980D01*
X018851Y021139D02*
X019885Y021139D01*
X019885Y021297D02*
X018905Y021297D01*
X018905Y021456D02*
X019885Y021456D01*
X019885Y021614D02*
X018850Y021614D01*
X018727Y021773D02*
X019885Y021773D01*
X019885Y021931D02*
X018681Y021931D01*
X018830Y022090D02*
X019885Y022090D01*
X019885Y022248D02*
X018896Y022248D01*
X018905Y022407D02*
X019885Y022407D01*
X019885Y022565D02*
X018870Y022565D01*
X018776Y022724D02*
X019885Y022724D01*
X019885Y022882D02*
X018536Y022882D01*
X018214Y022882D02*
X015286Y022882D01*
X015526Y022724D02*
X017974Y022724D01*
X017880Y022565D02*
X015774Y022565D01*
X015933Y022407D02*
X017845Y022407D01*
X017854Y022248D02*
X016084Y022248D01*
X016115Y022090D02*
X017920Y022090D01*
X018069Y021931D02*
X016115Y021931D01*
X016115Y021773D02*
X018023Y021773D01*
X017875Y021375D02*
X018375Y021375D01*
X018375Y022375D01*
X014135Y023041D02*
X000575Y023041D01*
X000575Y023199D02*
X014135Y023199D01*
X014135Y023358D02*
X000575Y023358D01*
X000575Y023516D02*
X014135Y023516D01*
X014135Y023675D02*
X000575Y023675D01*
X000575Y023833D02*
X014135Y023833D01*
X014135Y023992D02*
X000575Y023992D01*
X000575Y024150D02*
X014135Y024150D01*
X014135Y024309D02*
X000575Y024309D01*
X000575Y024467D02*
X014135Y024467D01*
X014135Y024626D02*
X000575Y024626D01*
X000575Y024784D02*
X014135Y024784D01*
X013842Y024943D02*
X007925Y024943D01*
X007952Y024952D02*
X007959Y024967D01*
X007991Y024984D01*
X008008Y024981D01*
X008063Y025021D01*
X008123Y025053D01*
X008128Y025069D01*
X008157Y025090D01*
X008174Y025090D01*
X008222Y025138D01*
X008277Y025178D01*
X008279Y025195D01*
X008305Y025221D01*
X008322Y025223D01*
X008362Y025278D01*
X008410Y025326D01*
X008410Y025343D01*
X008431Y025372D01*
X008447Y025377D01*
X008479Y025437D01*
X008519Y025492D01*
X008516Y025509D01*
X008533Y025541D01*
X008548Y025548D01*
X008570Y025612D01*
X008601Y025672D01*
X008596Y025689D01*
X008608Y025723D01*
X008622Y025732D01*
X008634Y025799D01*
X008656Y025863D01*
X008648Y025879D01*
X008655Y025914D01*
X008667Y025926D01*
X008669Y025993D01*
X008681Y026060D01*
X008671Y026074D01*
X008672Y026110D01*
X008682Y026124D01*
X008674Y026191D01*
X008676Y026258D01*
X008664Y026271D01*
X008659Y026307D01*
X008668Y026322D01*
X008649Y026387D01*
X008640Y026454D01*
X008627Y026464D01*
X008617Y026499D01*
X008623Y026515D01*
X008595Y026577D01*
X008576Y026642D01*
X008561Y026650D01*
X008546Y026683D01*
X008549Y026700D01*
X008512Y026756D01*
X008484Y026818D01*
X008468Y026824D01*
X008448Y026854D01*
X008449Y026871D01*
X008403Y026921D01*
X008366Y026978D01*
X008349Y026981D01*
X008325Y027008D01*
X008323Y027025D01*
X008271Y027068D01*
X008226Y027118D01*
X008208Y027119D01*
X008181Y027141D01*
X008176Y027158D01*
X008118Y027192D01*
X008066Y027235D01*
X008048Y027233D01*
X008017Y027252D01*
X008011Y027268D01*
X007948Y027293D01*
X007890Y027327D01*
X007873Y027323D01*
X007839Y027336D01*
X007830Y027351D01*
X007764Y027366D01*
X007702Y027391D01*
X007686Y027384D01*
X007651Y027392D01*
X007639Y027405D01*
X007572Y027411D01*
X007506Y027426D01*
X007491Y027417D01*
X007456Y027419D01*
X007443Y027430D01*
X007375Y027426D01*
X007308Y027431D01*
X007295Y027420D01*
X007271Y027418D01*
X007257Y027427D01*
X007190Y027412D01*
X007122Y027407D01*
X007111Y027395D01*
X007088Y027390D01*
X007073Y027397D01*
X007009Y027373D01*
X006942Y027358D01*
X006933Y027345D01*
X006911Y027336D01*
X006895Y027341D01*
X006835Y027308D01*
X006771Y027284D01*
X006764Y027269D01*
X006743Y027258D01*
X006727Y027260D01*
X006672Y027219D01*
X006612Y027186D01*
X006607Y027171D01*
X006588Y027156D01*
X006572Y027156D01*
X006523Y027108D01*
X006468Y027067D01*
X006466Y027051D01*
X006449Y027034D01*
X006433Y027032D01*
X006392Y026977D01*
X006344Y026928D01*
X006344Y026912D01*
X006329Y026893D01*
X006314Y026888D01*
X006281Y026828D01*
X006240Y026773D01*
X006242Y026757D01*
X006231Y026736D01*
X006216Y026729D01*
X006192Y026665D01*
X006159Y026605D01*
X006164Y026589D01*
X006155Y026567D01*
X006142Y026558D01*
X006127Y026491D01*
X006103Y026427D01*
X006110Y026412D01*
X006105Y026389D01*
X006093Y026378D01*
X006088Y026310D01*
X006073Y026243D01*
X006082Y026229D01*
X006080Y026205D01*
X006069Y026192D01*
X006074Y026125D01*
X006070Y026057D01*
X006081Y026044D01*
X006083Y026009D01*
X006074Y025994D01*
X006089Y025928D01*
X006095Y025861D01*
X006108Y025849D01*
X006116Y025814D01*
X006109Y025798D01*
X006134Y025736D01*
X006149Y025670D01*
X006164Y025661D01*
X006177Y025627D01*
X006173Y025610D01*
X006207Y025552D01*
X006232Y025489D01*
X006248Y025483D01*
X006267Y025452D01*
X006265Y025434D01*
X006308Y025382D01*
X006342Y025324D01*
X006359Y025319D01*
X006381Y025292D01*
X006382Y025274D01*
X006432Y025229D01*
X006475Y025177D01*
X006492Y025175D01*
X006519Y025151D01*
X006522Y025134D01*
X006579Y025097D01*
X006629Y025051D01*
X006646Y025052D01*
X006676Y025032D01*
X006682Y025016D01*
X006744Y024988D01*
X006800Y024951D01*
X006817Y024954D01*
X006850Y024939D01*
X006858Y024924D01*
X006923Y024905D01*
X006985Y024877D01*
X007001Y024883D01*
X007036Y024873D01*
X007046Y024860D01*
X007113Y024851D01*
X007178Y024832D01*
X007193Y024841D01*
X007229Y024836D01*
X007242Y024824D01*
X007309Y024826D01*
X007376Y024818D01*
X007390Y024828D01*
X007426Y024829D01*
X007440Y024819D01*
X007507Y024831D01*
X007574Y024833D01*
X007586Y024845D01*
X007621Y024852D01*
X007637Y024844D01*
X007701Y024866D01*
X007768Y024878D01*
X007777Y024892D01*
X007811Y024904D01*
X007828Y024899D01*
X007888Y024930D01*
X007952Y024952D01*
X008185Y025101D02*
X013572Y025101D01*
X013398Y025260D02*
X008348Y025260D01*
X008469Y025418D02*
X013278Y025418D01*
X013193Y025577D02*
X008558Y025577D01*
X008623Y025735D02*
X013134Y025735D01*
X013092Y025894D02*
X008651Y025894D01*
X008679Y026052D02*
X013074Y026052D01*
X013081Y026211D02*
X008674Y026211D01*
X008654Y026369D02*
X013092Y026369D01*
X013135Y026528D02*
X008617Y026528D01*
X008547Y026686D02*
X013200Y026686D01*
X013290Y026845D02*
X008454Y026845D01*
X008329Y027003D02*
X013412Y027003D01*
X013595Y027162D02*
X008171Y027162D01*
X007901Y027320D02*
X013857Y027320D01*
X008375Y022375D02*
X008375Y021375D01*
X006842Y024943D02*
X000575Y024943D01*
X000575Y025101D02*
X006572Y025101D01*
X006398Y025260D02*
X000575Y025260D01*
X000575Y025418D02*
X006278Y025418D01*
X006193Y025577D02*
X000575Y025577D01*
X000575Y025735D02*
X006134Y025735D01*
X006092Y025894D02*
X000575Y025894D01*
X000575Y026052D02*
X006074Y026052D01*
X006081Y026211D02*
X000575Y026211D01*
X000575Y026369D02*
X006092Y026369D01*
X006135Y026528D02*
X001550Y026528D01*
X001200Y026528D02*
X000575Y026528D01*
X000575Y026686D02*
X000862Y026686D01*
X000703Y026845D02*
X000575Y026845D01*
X000575Y027003D02*
X000609Y027003D01*
X001888Y026686D02*
X006200Y026686D01*
X006290Y026845D02*
X002047Y026845D01*
X002141Y027003D02*
X006412Y027003D01*
X006595Y027162D02*
X002207Y027162D01*
X002225Y027320D02*
X006857Y027320D01*
X002225Y027479D02*
X033525Y027479D01*
X033564Y027637D02*
X002186Y027637D01*
X002121Y027796D02*
X033629Y027796D01*
X033752Y027954D02*
X001998Y027954D01*
X001816Y028113D02*
X033934Y028113D01*
X020885Y017335D02*
X020365Y017335D01*
X020365Y017493D02*
X020564Y017493D01*
X020365Y017176D02*
X020885Y017176D01*
X020885Y017018D02*
X020365Y017018D01*
X020365Y016859D02*
X020885Y016859D01*
X020885Y016701D02*
X020365Y016701D01*
X020365Y016542D02*
X020885Y016542D01*
X020885Y016384D02*
X020365Y016384D01*
X020365Y016225D02*
X020885Y016225D01*
X020885Y016067D02*
X020365Y016067D01*
X020365Y015908D02*
X020885Y015908D01*
X020885Y015750D02*
X020365Y015750D01*
X020365Y015591D02*
X020885Y015591D01*
X020885Y015433D02*
X020365Y015433D01*
X020365Y015274D02*
X020885Y015274D01*
X020885Y015116D02*
X020365Y015116D01*
X020365Y014957D02*
X020885Y014957D01*
X020885Y014799D02*
X020365Y014799D01*
X020449Y014640D02*
X020885Y014640D01*
X020885Y014482D02*
X020705Y014482D01*
X020521Y001643D02*
X015229Y001643D01*
X015013Y001485D02*
X020749Y001485D01*
D16*
X028375Y007125D03*
X033625Y011125D03*
X029875Y011875D03*
X030125Y014375D03*
X021125Y011925D03*
X020625Y014125D03*
X016625Y016125D03*
X016125Y010125D03*
X034875Y004375D03*
M02*
