G75*
%MOIN*%
%OFA0B0*%
%FSLAX24Y24*%
%IPPOS*%
%LPD*%
%AMOC8*
5,1,8,0,0,1.08239X$1,22.5*
%
%ADD10C,0.0740*%
%ADD11C,0.0660*%
%ADD12C,0.2200*%
%ADD13C,0.0080*%
%ADD14R,0.0740X0.0740*%
%ADD15C,0.0160*%
%ADD16C,0.0400*%
D10*
X005225Y004275D03*
X008225Y004275D03*
X011225Y004275D03*
X014975Y004575D03*
X011225Y008275D03*
X011225Y009775D03*
X011225Y010775D03*
X011225Y011775D03*
X011225Y013725D03*
X011225Y014725D03*
X011225Y015725D03*
X011225Y017975D03*
X011225Y018975D03*
X011225Y019975D03*
X008225Y020225D03*
X008225Y021225D03*
X008225Y022225D03*
X005225Y019725D03*
X005225Y018725D03*
X005225Y017725D03*
X005225Y015725D03*
X005225Y014725D03*
X005225Y013725D03*
X005225Y011775D03*
X005225Y010775D03*
X005225Y009775D03*
X005225Y008275D03*
X008225Y008275D03*
X008225Y011975D03*
X008225Y012975D03*
X008225Y013975D03*
X014975Y015975D03*
X014975Y016975D03*
X014975Y017975D03*
X014975Y020225D03*
X014975Y021225D03*
X014975Y022225D03*
X018225Y022225D03*
X018225Y021225D03*
X018225Y020225D03*
X018225Y018975D03*
X022975Y018475D03*
X022975Y017225D03*
X025725Y016725D03*
X025725Y017725D03*
X025725Y018725D03*
X025725Y020475D03*
X025725Y021475D03*
X025725Y022475D03*
X022975Y022475D03*
X030725Y021225D03*
X030725Y020225D03*
X030725Y019225D03*
X030725Y017975D03*
X032975Y015725D03*
X033975Y015725D03*
X033975Y014725D03*
X032975Y014725D03*
X032975Y013725D03*
X033975Y013725D03*
X032975Y012725D03*
X030725Y012725D03*
X030725Y013975D03*
X028225Y014225D03*
X028225Y015225D03*
X028225Y013225D03*
X025725Y012225D03*
X025725Y011225D03*
X025725Y010225D03*
X025725Y008475D03*
X022975Y008475D03*
X022975Y010225D03*
X022975Y011225D03*
X022975Y012225D03*
X022975Y013225D03*
X018225Y014975D03*
X018225Y010725D03*
X018225Y009725D03*
X018225Y008725D03*
X020725Y007275D03*
X020725Y006275D03*
X020725Y005275D03*
X022975Y004475D03*
X025725Y004475D03*
X030725Y005475D03*
X030725Y006475D03*
X030725Y007475D03*
X030725Y008725D03*
X014975Y008575D03*
D11*
X020725Y017725D03*
X020725Y018725D03*
D12*
X021225Y025975D03*
X014225Y025975D03*
X007225Y025975D03*
X028225Y025975D03*
X028225Y002475D03*
X021225Y002475D03*
X014225Y002475D03*
X007225Y002475D03*
D13*
X006364Y001795D02*
X008086Y001795D01*
X008060Y001758D02*
X008159Y001893D01*
X008236Y002041D01*
X008290Y002199D01*
X008319Y002364D01*
X008324Y002531D01*
X008302Y002696D01*
X008257Y002857D01*
X008187Y003009D01*
X008095Y003148D01*
X007983Y003272D01*
X007853Y003378D01*
X007709Y003463D01*
X007554Y003525D01*
X007392Y003562D01*
X007225Y003575D01*
X007068Y003564D01*
X006915Y003530D01*
X006768Y003476D01*
X006630Y003400D01*
X006505Y003306D01*
X006394Y003195D01*
X006300Y003070D01*
X006224Y002932D01*
X006170Y002785D01*
X006136Y002632D01*
X006125Y002475D01*
X006138Y002308D01*
X006175Y002146D01*
X006237Y001991D01*
X006322Y001847D01*
X006428Y001717D01*
X006552Y001605D01*
X006691Y001513D01*
X006843Y001443D01*
X007004Y001398D01*
X007169Y001376D01*
X007336Y001381D01*
X007501Y001410D01*
X007659Y001464D01*
X007807Y001541D01*
X007942Y001640D01*
X008060Y001758D01*
X008018Y001717D02*
X006428Y001717D01*
X006515Y001638D02*
X007938Y001638D01*
X007831Y001560D02*
X006621Y001560D01*
X006761Y001481D02*
X007691Y001481D01*
X007458Y001403D02*
X006986Y001403D01*
X006306Y001874D02*
X008144Y001874D01*
X008189Y001952D02*
X006260Y001952D01*
X006221Y002031D02*
X008230Y002031D01*
X008259Y002109D02*
X006190Y002109D01*
X006166Y002188D02*
X008286Y002188D01*
X008302Y002266D02*
X006148Y002266D01*
X006135Y002345D02*
X008316Y002345D01*
X008321Y002423D02*
X006129Y002423D01*
X006127Y002502D02*
X008323Y002502D01*
X008317Y002580D02*
X006133Y002580D01*
X006142Y002659D02*
X008307Y002659D01*
X008291Y002737D02*
X006159Y002737D01*
X006181Y002816D02*
X008268Y002816D01*
X008240Y002894D02*
X006210Y002894D01*
X006247Y002973D02*
X008203Y002973D01*
X008159Y003051D02*
X006289Y003051D01*
X006344Y003130D02*
X008107Y003130D01*
X008041Y003208D02*
X006406Y003208D01*
X006485Y003287D02*
X007965Y003287D01*
X007869Y003365D02*
X006583Y003365D01*
X006709Y003444D02*
X007742Y003444D01*
X007561Y003522D02*
X006892Y003522D01*
X013136Y002632D02*
X013125Y002475D01*
X013138Y002308D01*
X013175Y002146D01*
X013237Y001991D01*
X013322Y001847D01*
X013428Y001717D01*
X013552Y001605D01*
X013691Y001513D01*
X013843Y001443D01*
X014004Y001398D01*
X014169Y001376D01*
X014336Y001381D01*
X014501Y001410D01*
X014659Y001464D01*
X014807Y001541D01*
X014942Y001640D01*
X015060Y001758D01*
X015159Y001893D01*
X015236Y002041D01*
X015290Y002199D01*
X015319Y002364D01*
X015324Y002531D01*
X015302Y002696D01*
X015257Y002857D01*
X015187Y003009D01*
X015095Y003148D01*
X014983Y003272D01*
X014853Y003378D01*
X014709Y003463D01*
X014554Y003525D01*
X014392Y003562D01*
X014225Y003575D01*
X014068Y003564D01*
X013915Y003530D01*
X013768Y003476D01*
X013630Y003400D01*
X013505Y003306D01*
X013394Y003195D01*
X013300Y003070D01*
X013224Y002932D01*
X013170Y002785D01*
X013136Y002632D01*
X013142Y002659D02*
X015307Y002659D01*
X015291Y002737D02*
X013159Y002737D01*
X013181Y002816D02*
X015268Y002816D01*
X015240Y002894D02*
X013210Y002894D01*
X013247Y002973D02*
X015203Y002973D01*
X015159Y003051D02*
X013289Y003051D01*
X013344Y003130D02*
X015107Y003130D01*
X015041Y003208D02*
X013406Y003208D01*
X013485Y003287D02*
X014965Y003287D01*
X014869Y003365D02*
X013583Y003365D01*
X013709Y003444D02*
X014742Y003444D01*
X014561Y003522D02*
X013892Y003522D01*
X013133Y002580D02*
X015317Y002580D01*
X015323Y002502D02*
X013127Y002502D01*
X013129Y002423D02*
X015321Y002423D01*
X015316Y002345D02*
X013135Y002345D01*
X013148Y002266D02*
X015302Y002266D01*
X015286Y002188D02*
X013166Y002188D01*
X013190Y002109D02*
X015259Y002109D01*
X015230Y002031D02*
X013221Y002031D01*
X013260Y001952D02*
X015189Y001952D01*
X015144Y001874D02*
X013306Y001874D01*
X013364Y001795D02*
X015086Y001795D01*
X015018Y001717D02*
X013428Y001717D01*
X013515Y001638D02*
X014938Y001638D01*
X014831Y001560D02*
X013621Y001560D01*
X013761Y001481D02*
X014691Y001481D01*
X014458Y001403D02*
X013986Y001403D01*
X020138Y002308D02*
X020175Y002146D01*
X020237Y001991D01*
X020322Y001847D01*
X020428Y001717D01*
X020552Y001605D01*
X020691Y001513D01*
X020843Y001443D01*
X021004Y001398D01*
X021169Y001376D01*
X021336Y001381D01*
X021501Y001410D01*
X021659Y001464D01*
X021807Y001541D01*
X021942Y001640D01*
X022060Y001758D01*
X022159Y001893D01*
X022236Y002041D01*
X022290Y002199D01*
X022319Y002364D01*
X022324Y002531D01*
X022302Y002696D01*
X022257Y002857D01*
X022187Y003009D01*
X022095Y003148D01*
X021983Y003272D01*
X021853Y003378D01*
X021709Y003463D01*
X021554Y003525D01*
X021392Y003562D01*
X021225Y003575D01*
X021068Y003564D01*
X020915Y003530D01*
X020768Y003476D01*
X020630Y003400D01*
X020505Y003306D01*
X020394Y003195D01*
X020300Y003070D01*
X020224Y002932D01*
X020170Y002785D01*
X020136Y002632D01*
X020125Y002475D01*
X020138Y002308D01*
X020135Y002345D02*
X022316Y002345D01*
X022321Y002423D02*
X020129Y002423D01*
X020127Y002502D02*
X022323Y002502D01*
X022317Y002580D02*
X020133Y002580D01*
X020142Y002659D02*
X022307Y002659D01*
X022291Y002737D02*
X020159Y002737D01*
X020181Y002816D02*
X022268Y002816D01*
X022240Y002894D02*
X020210Y002894D01*
X020247Y002973D02*
X022203Y002973D01*
X022159Y003051D02*
X020289Y003051D01*
X020344Y003130D02*
X022107Y003130D01*
X022041Y003208D02*
X020406Y003208D01*
X020485Y003287D02*
X021965Y003287D01*
X021869Y003365D02*
X020583Y003365D01*
X020709Y003444D02*
X021742Y003444D01*
X021561Y003522D02*
X020892Y003522D01*
X020148Y002266D02*
X022302Y002266D01*
X022286Y002188D02*
X020166Y002188D01*
X020190Y002109D02*
X022259Y002109D01*
X022230Y002031D02*
X020221Y002031D01*
X020260Y001952D02*
X022189Y001952D01*
X022144Y001874D02*
X020306Y001874D01*
X020364Y001795D02*
X022086Y001795D01*
X022018Y001717D02*
X020428Y001717D01*
X020515Y001638D02*
X021938Y001638D01*
X021831Y001560D02*
X020621Y001560D01*
X020761Y001481D02*
X021691Y001481D01*
X021458Y001403D02*
X020986Y001403D01*
X027138Y002308D02*
X027175Y002146D01*
X027237Y001991D01*
X027322Y001847D01*
X027428Y001717D01*
X027552Y001605D01*
X027691Y001513D01*
X027843Y001443D01*
X028004Y001398D01*
X028169Y001376D01*
X028336Y001381D01*
X028501Y001410D01*
X028659Y001464D01*
X028807Y001541D01*
X028942Y001640D01*
X029060Y001758D01*
X029159Y001893D01*
X029236Y002041D01*
X029290Y002199D01*
X029319Y002364D01*
X029324Y002531D01*
X029302Y002696D01*
X029257Y002857D01*
X029187Y003009D01*
X029095Y003148D01*
X028983Y003272D01*
X028853Y003378D01*
X028709Y003463D01*
X028554Y003525D01*
X028392Y003562D01*
X028225Y003575D01*
X028068Y003564D01*
X027915Y003530D01*
X027768Y003476D01*
X027630Y003400D01*
X027505Y003306D01*
X027394Y003195D01*
X027300Y003070D01*
X027224Y002932D01*
X027170Y002785D01*
X027136Y002632D01*
X027125Y002475D01*
X027138Y002308D01*
X027135Y002345D02*
X029316Y002345D01*
X029321Y002423D02*
X027129Y002423D01*
X027127Y002502D02*
X029323Y002502D01*
X029317Y002580D02*
X027133Y002580D01*
X027142Y002659D02*
X029307Y002659D01*
X029291Y002737D02*
X027159Y002737D01*
X027181Y002816D02*
X029268Y002816D01*
X029240Y002894D02*
X027210Y002894D01*
X027247Y002973D02*
X029203Y002973D01*
X029159Y003051D02*
X027289Y003051D01*
X027344Y003130D02*
X029107Y003130D01*
X029041Y003208D02*
X027406Y003208D01*
X027485Y003287D02*
X028965Y003287D01*
X028869Y003365D02*
X027583Y003365D01*
X027709Y003444D02*
X028742Y003444D01*
X028561Y003522D02*
X027892Y003522D01*
X027148Y002266D02*
X029302Y002266D01*
X029286Y002188D02*
X027166Y002188D01*
X027190Y002109D02*
X029259Y002109D01*
X029230Y002031D02*
X027221Y002031D01*
X027260Y001952D02*
X029189Y001952D01*
X029144Y001874D02*
X027306Y001874D01*
X027364Y001795D02*
X029086Y001795D01*
X029018Y001717D02*
X027428Y001717D01*
X027515Y001638D02*
X028938Y001638D01*
X028831Y001560D02*
X027621Y001560D01*
X027761Y001481D02*
X028691Y001481D01*
X028458Y001403D02*
X027986Y001403D01*
X028169Y024876D02*
X028004Y024898D01*
X027843Y024943D01*
X027691Y025013D01*
X027552Y025105D01*
X027428Y025217D01*
X027322Y025347D01*
X027237Y025491D01*
X027175Y025646D01*
X027138Y025808D01*
X027125Y025975D01*
X027136Y026132D01*
X027170Y026285D01*
X027224Y026432D01*
X027300Y026570D01*
X027394Y026695D01*
X027505Y026806D01*
X027630Y026900D01*
X027768Y026976D01*
X027915Y027030D01*
X028068Y027064D01*
X028225Y027075D01*
X028392Y027062D01*
X028554Y027025D01*
X028709Y026963D01*
X028853Y026878D01*
X028983Y026772D01*
X029095Y026648D01*
X029187Y026509D01*
X029257Y026357D01*
X029302Y026196D01*
X029324Y026031D01*
X029319Y025864D01*
X029290Y025699D01*
X029236Y025541D01*
X029159Y025393D01*
X029060Y025258D01*
X028942Y025140D01*
X028807Y025041D01*
X028659Y024964D01*
X028501Y024910D01*
X028336Y024881D01*
X028169Y024876D01*
X027823Y024953D02*
X028625Y024953D01*
X028787Y025031D02*
X027664Y025031D01*
X027547Y025110D02*
X028900Y025110D01*
X028989Y025188D02*
X027460Y025188D01*
X027387Y025267D02*
X029066Y025267D01*
X029123Y025345D02*
X027323Y025345D01*
X027277Y025424D02*
X029174Y025424D01*
X029215Y025502D02*
X027233Y025502D01*
X027201Y025581D02*
X029249Y025581D01*
X029276Y025659D02*
X027172Y025659D01*
X027154Y025738D02*
X029297Y025738D01*
X029311Y025816D02*
X027137Y025816D01*
X027131Y025895D02*
X029320Y025895D01*
X029322Y025973D02*
X027125Y025973D01*
X027130Y026052D02*
X029321Y026052D01*
X029311Y026130D02*
X027136Y026130D01*
X027153Y026209D02*
X029299Y026209D01*
X029277Y026287D02*
X027170Y026287D01*
X027200Y026366D02*
X029253Y026366D01*
X029217Y026444D02*
X027231Y026444D01*
X027274Y026523D02*
X029178Y026523D01*
X029126Y026601D02*
X027323Y026601D01*
X027382Y026680D02*
X029067Y026680D01*
X028996Y026758D02*
X027456Y026758D01*
X027545Y026837D02*
X028904Y026837D01*
X028790Y026915D02*
X027657Y026915D01*
X027816Y026994D02*
X028632Y026994D01*
X028263Y027072D02*
X028184Y027072D01*
X022302Y026196D02*
X022324Y026031D01*
X022319Y025864D01*
X022290Y025699D01*
X022236Y025541D01*
X022159Y025393D01*
X022060Y025258D01*
X021942Y025140D01*
X021807Y025041D01*
X021659Y024964D01*
X021501Y024910D01*
X021336Y024881D01*
X021169Y024876D01*
X021004Y024898D01*
X020843Y024943D01*
X020691Y025013D01*
X020552Y025105D01*
X020428Y025217D01*
X020322Y025347D01*
X020237Y025491D01*
X020175Y025646D01*
X020138Y025808D01*
X020125Y025975D01*
X020136Y026132D01*
X020170Y026285D01*
X020224Y026432D01*
X020300Y026570D01*
X020394Y026695D01*
X020505Y026806D01*
X020630Y026900D01*
X020768Y026976D01*
X020915Y027030D01*
X021068Y027064D01*
X021225Y027075D01*
X021392Y027062D01*
X021554Y027025D01*
X021709Y026963D01*
X021853Y026878D01*
X021983Y026772D01*
X022095Y026648D01*
X022187Y026509D01*
X022257Y026357D01*
X022302Y026196D01*
X022299Y026209D02*
X020153Y026209D01*
X020170Y026287D02*
X022277Y026287D01*
X022253Y026366D02*
X020200Y026366D01*
X020231Y026444D02*
X022217Y026444D01*
X022178Y026523D02*
X020274Y026523D01*
X020323Y026601D02*
X022126Y026601D01*
X022067Y026680D02*
X020382Y026680D01*
X020456Y026758D02*
X021996Y026758D01*
X021904Y026837D02*
X020545Y026837D01*
X020657Y026915D02*
X021790Y026915D01*
X021632Y026994D02*
X020816Y026994D01*
X021184Y027072D02*
X021263Y027072D01*
X022311Y026130D02*
X020136Y026130D01*
X020130Y026052D02*
X022321Y026052D01*
X022322Y025973D02*
X020125Y025973D01*
X020131Y025895D02*
X022320Y025895D01*
X022311Y025816D02*
X020137Y025816D01*
X020154Y025738D02*
X022297Y025738D01*
X022276Y025659D02*
X020172Y025659D01*
X020201Y025581D02*
X022249Y025581D01*
X022215Y025502D02*
X020233Y025502D01*
X020277Y025424D02*
X022174Y025424D01*
X022123Y025345D02*
X020323Y025345D01*
X020387Y025267D02*
X022066Y025267D01*
X021989Y025188D02*
X020460Y025188D01*
X020547Y025110D02*
X021900Y025110D01*
X021787Y025031D02*
X020664Y025031D01*
X020823Y024953D02*
X021625Y024953D01*
X015319Y025864D02*
X015324Y026031D01*
X015302Y026196D01*
X015257Y026357D01*
X015187Y026509D01*
X015095Y026648D01*
X014983Y026772D01*
X014853Y026878D01*
X014709Y026963D01*
X014554Y027025D01*
X014392Y027062D01*
X014225Y027075D01*
X014068Y027064D01*
X013915Y027030D01*
X013768Y026976D01*
X013630Y026900D01*
X013505Y026806D01*
X013394Y026695D01*
X013300Y026570D01*
X013224Y026432D01*
X013170Y026285D01*
X013136Y026132D01*
X013125Y025975D01*
X013138Y025808D01*
X013175Y025646D01*
X013237Y025491D01*
X013322Y025347D01*
X013428Y025217D01*
X013552Y025105D01*
X013691Y025013D01*
X013843Y024943D01*
X014004Y024898D01*
X014169Y024876D01*
X014336Y024881D01*
X014501Y024910D01*
X014659Y024964D01*
X014807Y025041D01*
X014942Y025140D01*
X015060Y025258D01*
X015159Y025393D01*
X015236Y025541D01*
X015290Y025699D01*
X015319Y025864D01*
X015320Y025895D02*
X013131Y025895D01*
X013125Y025973D02*
X015322Y025973D01*
X015321Y026052D02*
X013130Y026052D01*
X013136Y026130D02*
X015311Y026130D01*
X015299Y026209D02*
X013153Y026209D01*
X013170Y026287D02*
X015277Y026287D01*
X015253Y026366D02*
X013200Y026366D01*
X013231Y026444D02*
X015217Y026444D01*
X015178Y026523D02*
X013274Y026523D01*
X013323Y026601D02*
X015126Y026601D01*
X015067Y026680D02*
X013382Y026680D01*
X013456Y026758D02*
X014996Y026758D01*
X014904Y026837D02*
X013545Y026837D01*
X013657Y026915D02*
X014790Y026915D01*
X014632Y026994D02*
X013816Y026994D01*
X014184Y027072D02*
X014263Y027072D01*
X015311Y025816D02*
X013137Y025816D01*
X013154Y025738D02*
X015297Y025738D01*
X015276Y025659D02*
X013172Y025659D01*
X013201Y025581D02*
X015249Y025581D01*
X015215Y025502D02*
X013233Y025502D01*
X013277Y025424D02*
X015174Y025424D01*
X015123Y025345D02*
X013323Y025345D01*
X013387Y025267D02*
X015066Y025267D01*
X014989Y025188D02*
X013460Y025188D01*
X013547Y025110D02*
X014900Y025110D01*
X014787Y025031D02*
X013664Y025031D01*
X013823Y024953D02*
X014625Y024953D01*
X008319Y025864D02*
X008324Y026031D01*
X008302Y026196D01*
X008257Y026357D01*
X008187Y026509D01*
X008095Y026648D01*
X007983Y026772D01*
X007853Y026878D01*
X007709Y026963D01*
X007554Y027025D01*
X007392Y027062D01*
X007225Y027075D01*
X007068Y027064D01*
X006915Y027030D01*
X006768Y026976D01*
X006630Y026900D01*
X006505Y026806D01*
X006394Y026695D01*
X006300Y026570D01*
X006224Y026432D01*
X006170Y026285D01*
X006136Y026132D01*
X006125Y025975D01*
X006138Y025808D01*
X006175Y025646D01*
X006237Y025491D01*
X006322Y025347D01*
X006428Y025217D01*
X006552Y025105D01*
X006691Y025013D01*
X006843Y024943D01*
X007004Y024898D01*
X007169Y024876D01*
X007336Y024881D01*
X007501Y024910D01*
X007659Y024964D01*
X007807Y025041D01*
X007942Y025140D01*
X008060Y025258D01*
X008159Y025393D01*
X008236Y025541D01*
X008290Y025699D01*
X008319Y025864D01*
X008320Y025895D02*
X006131Y025895D01*
X006125Y025973D02*
X008322Y025973D01*
X008321Y026052D02*
X006130Y026052D01*
X006136Y026130D02*
X008311Y026130D01*
X008299Y026209D02*
X006153Y026209D01*
X006170Y026287D02*
X008277Y026287D01*
X008253Y026366D02*
X006200Y026366D01*
X006231Y026444D02*
X008217Y026444D01*
X008178Y026523D02*
X006274Y026523D01*
X006323Y026601D02*
X008126Y026601D01*
X008067Y026680D02*
X006382Y026680D01*
X006456Y026758D02*
X007996Y026758D01*
X007904Y026837D02*
X006545Y026837D01*
X006657Y026915D02*
X007790Y026915D01*
X007632Y026994D02*
X006816Y026994D01*
X007184Y027072D02*
X007263Y027072D01*
X008311Y025816D02*
X006137Y025816D01*
X006154Y025738D02*
X008297Y025738D01*
X008276Y025659D02*
X006172Y025659D01*
X006201Y025581D02*
X008249Y025581D01*
X008215Y025502D02*
X006233Y025502D01*
X006277Y025424D02*
X008174Y025424D01*
X008123Y025345D02*
X006323Y025345D01*
X006387Y025267D02*
X008066Y025267D01*
X007989Y025188D02*
X006460Y025188D01*
X006547Y025110D02*
X007900Y025110D01*
X007787Y025031D02*
X006664Y025031D01*
X006823Y024953D02*
X007625Y024953D01*
D14*
X033975Y012725D03*
D15*
X001706Y000504D02*
X001515Y000425D01*
X007436Y000425D01*
X007089Y000772D01*
X007022Y000839D01*
X006985Y000927D01*
X006985Y001195D01*
X006963Y001201D01*
X006896Y001210D01*
X006886Y001223D01*
X006851Y001233D01*
X006835Y001227D01*
X006773Y001255D01*
X006708Y001274D01*
X006700Y001289D01*
X006667Y001304D01*
X006650Y001301D01*
X006594Y001338D01*
X006532Y001366D01*
X006526Y001382D01*
X006496Y001402D01*
X006479Y001401D01*
X006429Y001447D01*
X006372Y001484D01*
X006369Y001501D01*
X006342Y001525D01*
X006325Y001527D01*
X006282Y001579D01*
X006232Y001624D01*
X006231Y001642D01*
X006209Y001669D01*
X006192Y001674D01*
X006158Y001732D01*
X006115Y001784D01*
X006117Y001802D01*
X006098Y001833D01*
X006082Y001839D01*
X006057Y001902D01*
X006023Y001960D01*
X006027Y001977D01*
X006014Y002011D01*
X005999Y002020D01*
X005984Y002086D01*
X005959Y002148D01*
X005966Y002164D01*
X005958Y002199D01*
X005945Y002211D01*
X005939Y002278D01*
X005924Y002344D01*
X005933Y002359D01*
X005931Y002394D01*
X005920Y002407D01*
X005924Y002475D01*
X005919Y002542D01*
X005930Y002555D01*
X005932Y002579D01*
X005923Y002593D01*
X005938Y002660D01*
X005943Y002728D01*
X005955Y002739D01*
X005960Y002762D01*
X005953Y002777D01*
X005977Y002841D01*
X005992Y002908D01*
X006005Y002917D01*
X006014Y002939D01*
X006009Y002955D01*
X006042Y003015D01*
X006066Y003079D01*
X006081Y003086D01*
X006092Y003107D01*
X006090Y003123D01*
X006131Y003178D01*
X006164Y003238D01*
X006179Y003243D01*
X006194Y003262D01*
X006194Y003278D01*
X006242Y003327D01*
X006283Y003382D01*
X006299Y003384D01*
X006316Y003401D01*
X006318Y003417D01*
X006373Y003458D01*
X006422Y003506D01*
X006438Y003506D01*
X006457Y003521D01*
X006462Y003536D01*
X006522Y003569D01*
X006577Y003610D01*
X006593Y003608D01*
X006614Y003619D01*
X006621Y003634D01*
X006685Y003658D01*
X006745Y003691D01*
X006761Y003686D01*
X006783Y003695D01*
X006792Y003708D01*
X006859Y003723D01*
X006923Y003747D01*
X006938Y003740D01*
X006961Y003745D01*
X006972Y003757D01*
X006985Y003758D01*
X006985Y006176D01*
X005391Y007770D01*
X005330Y007745D01*
X005120Y007745D01*
X004925Y007826D01*
X004776Y007975D01*
X004695Y008170D01*
X004695Y008380D01*
X004776Y008575D01*
X004925Y008724D01*
X004985Y008749D01*
X004985Y009301D01*
X004925Y009326D01*
X004776Y009475D01*
X004695Y009670D01*
X004695Y009880D01*
X004776Y010075D01*
X004925Y010224D01*
X005047Y010275D01*
X004925Y010326D01*
X004776Y010475D01*
X004695Y010670D01*
X004695Y010880D01*
X004776Y011075D01*
X004925Y011224D01*
X005047Y011275D01*
X004925Y011326D01*
X004776Y011475D01*
X004751Y011535D01*
X004677Y011535D01*
X004589Y011572D01*
X004089Y012072D01*
X004022Y012139D01*
X003985Y012227D01*
X003985Y015273D01*
X004022Y015361D01*
X004522Y015861D01*
X004589Y015928D01*
X004677Y015965D01*
X004751Y015965D01*
X004776Y016025D01*
X004925Y016174D01*
X005120Y016255D01*
X005330Y016255D01*
X005525Y016174D01*
X005674Y016025D01*
X005755Y015830D01*
X005755Y015620D01*
X005674Y015425D01*
X005525Y015276D01*
X005403Y015225D01*
X005525Y015174D01*
X005674Y015025D01*
X005755Y014830D01*
X005755Y014620D01*
X005674Y014425D01*
X005525Y014276D01*
X005403Y014225D01*
X005525Y014174D01*
X005674Y014025D01*
X005678Y014017D01*
X005985Y014324D01*
X005985Y017126D01*
X005678Y017433D01*
X005674Y017425D01*
X005525Y017276D01*
X005330Y017195D01*
X005120Y017195D01*
X004925Y017276D01*
X004776Y017425D01*
X004695Y017620D01*
X004695Y017830D01*
X004776Y018025D01*
X004925Y018174D01*
X005047Y018225D01*
X004925Y018276D01*
X004776Y018425D01*
X004695Y018620D01*
X004695Y018830D01*
X004776Y019025D01*
X004925Y019174D01*
X005047Y019225D01*
X004925Y019276D01*
X004776Y019425D01*
X004695Y019620D01*
X004695Y019830D01*
X004776Y020025D01*
X004925Y020174D01*
X005120Y020255D01*
X005330Y020255D01*
X005525Y020174D01*
X005674Y020025D01*
X005755Y019830D01*
X005755Y019620D01*
X005674Y019425D01*
X005525Y019276D01*
X005403Y019225D01*
X005525Y019174D01*
X005674Y019025D01*
X005755Y018830D01*
X005755Y018620D01*
X005674Y018425D01*
X005525Y018276D01*
X005403Y018225D01*
X005525Y018174D01*
X005674Y018025D01*
X005699Y017965D01*
X005773Y017965D01*
X005861Y017928D01*
X005928Y017861D01*
X006428Y017361D01*
X006465Y017273D01*
X006465Y014177D01*
X006428Y014089D01*
X006361Y014022D01*
X005861Y013522D01*
X005773Y013485D01*
X005699Y013485D01*
X005674Y013425D01*
X005525Y013276D01*
X005330Y013195D01*
X005120Y013195D01*
X004925Y013276D01*
X004776Y013425D01*
X004695Y013620D01*
X004695Y013830D01*
X004776Y014025D01*
X004925Y014174D01*
X005047Y014225D01*
X004925Y014276D01*
X004776Y014425D01*
X004695Y014620D01*
X004695Y014830D01*
X004776Y015025D01*
X004925Y015174D01*
X005047Y015225D01*
X004925Y015276D01*
X004776Y015425D01*
X004772Y015433D01*
X004465Y015126D01*
X004465Y012374D01*
X004772Y012067D01*
X004776Y012075D01*
X004925Y012224D01*
X005120Y012305D01*
X005330Y012305D01*
X005525Y012224D01*
X005674Y012075D01*
X005755Y011880D01*
X005755Y011670D01*
X005674Y011475D01*
X005525Y011326D01*
X005403Y011275D01*
X005525Y011224D01*
X005674Y011075D01*
X005755Y010880D01*
X005755Y010670D01*
X005674Y010475D01*
X005525Y010326D01*
X005403Y010275D01*
X005525Y010224D01*
X005674Y010075D01*
X005755Y009880D01*
X005755Y009670D01*
X005674Y009475D01*
X005525Y009326D01*
X005465Y009301D01*
X005465Y008749D01*
X005525Y008724D01*
X005674Y008575D01*
X005755Y008380D01*
X005755Y008170D01*
X005730Y008109D01*
X007361Y006478D01*
X007428Y006411D01*
X007465Y006323D01*
X007465Y003757D01*
X007489Y003755D01*
X007501Y003742D01*
X007536Y003734D01*
X007552Y003741D01*
X007614Y003716D01*
X007680Y003701D01*
X007689Y003686D01*
X007723Y003673D01*
X007740Y003677D01*
X007798Y003643D01*
X007861Y003618D01*
X007867Y003602D01*
X007898Y003583D01*
X007916Y003585D01*
X007968Y003542D01*
X008026Y003508D01*
X008031Y003491D01*
X008058Y003469D01*
X008076Y003468D01*
X008121Y003418D01*
X008173Y003375D01*
X008175Y003358D01*
X008199Y003331D01*
X008216Y003328D01*
X008253Y003271D01*
X008299Y003221D01*
X008298Y003204D01*
X008318Y003174D01*
X008334Y003168D01*
X008362Y003106D01*
X008399Y003050D01*
X008396Y003033D01*
X008411Y003000D01*
X008426Y002992D01*
X008445Y002927D01*
X008473Y002865D01*
X008467Y002849D01*
X008477Y002814D01*
X008490Y002804D01*
X008499Y002737D01*
X008518Y002672D01*
X008509Y002657D01*
X008514Y002621D01*
X008526Y002608D01*
X008524Y002541D01*
X008532Y002474D01*
X008522Y002460D01*
X008521Y002424D01*
X008531Y002410D01*
X008519Y002343D01*
X008517Y002276D01*
X008505Y002264D01*
X008498Y002229D01*
X008506Y002213D01*
X008484Y002149D01*
X008472Y002082D01*
X008458Y002073D01*
X008446Y002039D01*
X008451Y002022D01*
X008420Y001962D01*
X008398Y001898D01*
X008383Y001891D01*
X008366Y001859D01*
X008369Y001842D01*
X008329Y001787D01*
X008297Y001727D01*
X008281Y001722D01*
X008260Y001693D01*
X008260Y001676D01*
X008212Y001628D01*
X008172Y001573D01*
X008155Y001571D01*
X008129Y001545D01*
X008127Y001528D01*
X008072Y001488D01*
X008024Y001440D01*
X008007Y001440D01*
X007978Y001419D01*
X007973Y001403D01*
X007913Y001371D01*
X007858Y001331D01*
X007841Y001334D01*
X007809Y001317D01*
X007802Y001302D01*
X007738Y001280D01*
X007678Y001249D01*
X007661Y001254D01*
X007627Y001242D01*
X007618Y001228D01*
X007551Y001216D01*
X007487Y001194D01*
X007471Y001202D01*
X007465Y001201D01*
X007465Y001074D01*
X007824Y000715D01*
X031376Y000715D01*
X033735Y003074D01*
X033735Y010726D01*
X033715Y010706D01*
X033715Y003177D01*
X033678Y003089D01*
X033611Y003022D01*
X031361Y000772D01*
X031273Y000735D01*
X021427Y000735D01*
X021339Y000772D01*
X021272Y000839D01*
X021022Y001089D01*
X020985Y001177D01*
X020985Y001195D01*
X020963Y001201D01*
X020896Y001210D01*
X020886Y001223D01*
X020851Y001233D01*
X020835Y001227D01*
X020773Y001255D01*
X020708Y001274D01*
X020700Y001289D01*
X020667Y001304D01*
X020650Y001301D01*
X020594Y001338D01*
X020532Y001366D01*
X020526Y001382D01*
X020496Y001402D01*
X020479Y001401D01*
X020429Y001447D01*
X020372Y001484D01*
X020369Y001501D01*
X020342Y001525D01*
X020325Y001527D01*
X020282Y001579D01*
X020232Y001624D01*
X020231Y001642D01*
X020209Y001669D01*
X020192Y001674D01*
X020158Y001732D01*
X020115Y001784D01*
X020117Y001802D01*
X020098Y001833D01*
X020082Y001839D01*
X020057Y001902D01*
X020023Y001960D01*
X020027Y001977D01*
X020014Y002011D01*
X019999Y002020D01*
X019984Y002086D01*
X019959Y002148D01*
X019966Y002164D01*
X019958Y002199D01*
X019945Y002211D01*
X019939Y002278D01*
X019924Y002344D01*
X019933Y002359D01*
X019931Y002394D01*
X019920Y002407D01*
X019924Y002475D01*
X019919Y002542D01*
X019930Y002555D01*
X019932Y002579D01*
X019923Y002593D01*
X019938Y002660D01*
X019943Y002728D01*
X019955Y002739D01*
X019960Y002762D01*
X019953Y002777D01*
X019977Y002841D01*
X019992Y002908D01*
X020005Y002917D01*
X020014Y002939D01*
X020009Y002955D01*
X020042Y003015D01*
X020066Y003079D01*
X020081Y003086D01*
X020092Y003107D01*
X020090Y003123D01*
X020131Y003178D01*
X020164Y003238D01*
X020179Y003243D01*
X020194Y003262D01*
X020194Y003278D01*
X020242Y003327D01*
X020283Y003382D01*
X020299Y003384D01*
X020316Y003401D01*
X020318Y003417D01*
X020373Y003458D01*
X020422Y003506D01*
X020438Y003506D01*
X020457Y003521D01*
X020462Y003536D01*
X020522Y003569D01*
X020577Y003610D01*
X020593Y003608D01*
X020614Y003619D01*
X020621Y003634D01*
X020685Y003658D01*
X020745Y003691D01*
X020761Y003686D01*
X020783Y003695D01*
X020792Y003708D01*
X020859Y003723D01*
X020923Y003747D01*
X020938Y003740D01*
X020961Y003745D01*
X020972Y003757D01*
X021040Y003762D01*
X021107Y003777D01*
X021121Y003768D01*
X021145Y003770D01*
X021158Y003781D01*
X021225Y003776D01*
X021293Y003780D01*
X021306Y003769D01*
X021341Y003767D01*
X021356Y003776D01*
X021422Y003761D01*
X021489Y003755D01*
X021501Y003742D01*
X021536Y003734D01*
X021552Y003741D01*
X021614Y003716D01*
X021680Y003701D01*
X021689Y003686D01*
X021723Y003673D01*
X021740Y003677D01*
X021798Y003643D01*
X021861Y003618D01*
X021867Y003602D01*
X021898Y003583D01*
X021916Y003585D01*
X021968Y003542D01*
X022026Y003508D01*
X022031Y003491D01*
X022058Y003469D01*
X022076Y003468D01*
X022121Y003418D01*
X022173Y003375D01*
X022175Y003358D01*
X022199Y003331D01*
X022216Y003328D01*
X022253Y003271D01*
X022299Y003221D01*
X022298Y003204D01*
X022318Y003174D01*
X022334Y003168D01*
X022362Y003106D01*
X022399Y003050D01*
X022396Y003033D01*
X022411Y003000D01*
X022426Y002992D01*
X022445Y002927D01*
X022473Y002865D01*
X022467Y002849D01*
X022477Y002814D01*
X022490Y002804D01*
X022499Y002737D01*
X022518Y002672D01*
X022509Y002657D01*
X022514Y002621D01*
X022526Y002608D01*
X022524Y002541D01*
X022532Y002474D01*
X022522Y002460D01*
X022521Y002424D01*
X022531Y002410D01*
X022519Y002343D01*
X022517Y002276D01*
X022505Y002264D01*
X022498Y002229D01*
X022506Y002213D01*
X022484Y002149D01*
X022472Y002082D01*
X022458Y002073D01*
X022446Y002039D01*
X022451Y002022D01*
X022420Y001962D01*
X022398Y001898D01*
X022383Y001891D01*
X022366Y001859D01*
X022369Y001842D01*
X022329Y001787D01*
X022297Y001727D01*
X022281Y001722D01*
X022260Y001693D01*
X022260Y001676D01*
X022212Y001628D01*
X022172Y001573D01*
X022155Y001571D01*
X022129Y001545D01*
X022127Y001528D01*
X022072Y001488D01*
X022024Y001440D01*
X022007Y001440D01*
X021978Y001419D01*
X021973Y001403D01*
X021913Y001371D01*
X021858Y001331D01*
X021841Y001334D01*
X021809Y001317D01*
X021802Y001302D01*
X021738Y001280D01*
X021678Y001249D01*
X021661Y001254D01*
X021627Y001242D01*
X021618Y001228D01*
X021570Y001219D01*
X021574Y001215D01*
X027831Y001215D01*
X027813Y001220D01*
X027785Y001228D01*
X027785Y001228D01*
X027677Y001273D01*
X027654Y001283D01*
X027654Y001283D01*
X027548Y001341D01*
X027530Y001350D01*
X027530Y001350D01*
X027429Y001421D01*
X027414Y001431D01*
X027414Y001431D01*
X027320Y001513D01*
X027307Y001524D01*
X027307Y001524D01*
X027211Y001627D01*
X027211Y001627D01*
X027126Y001741D01*
X027126Y001741D01*
X027054Y001862D01*
X027054Y001862D01*
X026995Y001991D01*
X026995Y001991D01*
X026950Y002125D01*
X026950Y002125D01*
X026920Y002264D01*
X026920Y002264D01*
X026906Y002395D01*
X028145Y002395D01*
X028145Y002555D01*
X028145Y003794D01*
X028018Y003781D01*
X027883Y003752D01*
X027751Y003709D01*
X027625Y003653D01*
X027505Y003584D01*
X027393Y003502D01*
X027290Y003410D01*
X027198Y003307D01*
X027116Y003195D01*
X027090Y003149D01*
X027047Y003075D01*
X027023Y003021D01*
X026991Y002949D01*
X026991Y002949D01*
X026970Y002886D01*
X026948Y002817D01*
X026932Y002743D01*
X026919Y002682D01*
X026919Y002682D01*
X026906Y002555D01*
X028145Y002555D01*
X028305Y002555D01*
X028305Y003794D01*
X028436Y003780D01*
X028436Y003780D01*
X028510Y003764D01*
X028575Y003750D01*
X028575Y003750D01*
X028655Y003723D01*
X028709Y003705D01*
X028709Y003705D01*
X028793Y003667D01*
X028838Y003646D01*
X028838Y003646D01*
X028921Y003597D01*
X028959Y003574D01*
X028959Y003574D01*
X029040Y003514D01*
X029073Y003489D01*
X029073Y003489D01*
X029176Y003393D01*
X029176Y003393D01*
X029269Y003286D01*
X029269Y003286D01*
X029350Y003170D01*
X029350Y003170D01*
X029417Y003046D01*
X029417Y003046D01*
X029472Y002915D01*
X029472Y002915D01*
X029511Y002779D01*
X029511Y002779D01*
X029537Y002640D01*
X029537Y002640D01*
X029543Y002555D01*
X028305Y002555D01*
X028305Y002395D01*
X029543Y002395D01*
X029542Y002357D01*
X029521Y002217D01*
X029521Y002217D01*
X029486Y002080D01*
X029437Y001947D01*
X029374Y001821D01*
X029297Y001702D01*
X029208Y001592D01*
X029208Y001592D01*
X029108Y001492D01*
X028998Y001403D01*
X028879Y001326D01*
X028753Y001263D01*
X028624Y001215D01*
X031126Y001215D01*
X033235Y003324D01*
X033235Y010706D01*
X033170Y010771D01*
X033115Y010903D01*
X033115Y011047D01*
X033170Y011179D01*
X033271Y011280D01*
X033403Y011335D01*
X033547Y011335D01*
X033679Y011280D01*
X033735Y011224D01*
X033735Y012195D01*
X033539Y012195D01*
X033445Y012289D01*
X033445Y012475D01*
X033424Y012425D01*
X033275Y012276D01*
X033080Y012195D01*
X032870Y012195D01*
X032675Y012276D01*
X032526Y012425D01*
X032445Y012620D01*
X032445Y012830D01*
X032526Y013025D01*
X032675Y013174D01*
X032797Y013225D01*
X032675Y013276D01*
X032526Y013425D01*
X032501Y013485D01*
X032427Y013485D01*
X032339Y013522D01*
X032089Y013772D01*
X032022Y013839D01*
X031985Y013927D01*
X031985Y020876D01*
X031876Y020985D01*
X031199Y020985D01*
X031174Y020925D01*
X031025Y020776D01*
X030903Y020725D01*
X031025Y020674D01*
X031174Y020525D01*
X031255Y020330D01*
X031255Y020120D01*
X031174Y019925D01*
X031025Y019776D01*
X030903Y019725D01*
X031025Y019674D01*
X031174Y019525D01*
X031255Y019330D01*
X031255Y019120D01*
X031174Y018925D01*
X031025Y018776D01*
X030965Y018751D01*
X030965Y018449D01*
X031025Y018424D01*
X031174Y018275D01*
X031255Y018080D01*
X031255Y017870D01*
X031174Y017675D01*
X031025Y017526D01*
X030965Y017501D01*
X030965Y014927D01*
X030928Y014839D01*
X030861Y014772D01*
X030577Y014487D01*
X030620Y014505D01*
X030830Y014505D01*
X031025Y014424D01*
X031174Y014275D01*
X031255Y014080D01*
X031255Y013870D01*
X031174Y013675D01*
X031025Y013526D01*
X030965Y013501D01*
X030965Y013199D01*
X031025Y013174D01*
X031174Y013025D01*
X031255Y012830D01*
X031255Y012620D01*
X031174Y012425D01*
X031025Y012276D01*
X030830Y012195D01*
X030620Y012195D01*
X030425Y012276D01*
X030276Y012425D01*
X030195Y012620D01*
X030195Y012830D01*
X030276Y013025D01*
X030425Y013174D01*
X030485Y013199D01*
X030485Y013501D01*
X030425Y013526D01*
X030276Y013675D01*
X030195Y013870D01*
X030195Y013936D01*
X030179Y013920D01*
X030047Y013865D01*
X029903Y013865D01*
X029771Y013920D01*
X029670Y014021D01*
X029615Y014153D01*
X029615Y014297D01*
X029670Y014429D01*
X029771Y014530D01*
X029903Y014585D01*
X029996Y014585D01*
X030485Y015074D01*
X030485Y017501D01*
X030425Y017526D01*
X030276Y017675D01*
X030195Y017870D01*
X030195Y018080D01*
X030276Y018275D01*
X030425Y018424D01*
X030485Y018449D01*
X030485Y018751D01*
X030425Y018776D01*
X030276Y018925D01*
X030195Y019120D01*
X030195Y019330D01*
X030276Y019525D01*
X030425Y019674D01*
X030547Y019725D01*
X030425Y019776D01*
X030276Y019925D01*
X030251Y019985D01*
X028824Y019985D01*
X028465Y019626D01*
X028465Y015699D01*
X028525Y015674D01*
X028674Y015525D01*
X028755Y015330D01*
X028755Y015120D01*
X028674Y014925D01*
X028525Y014776D01*
X028403Y014725D01*
X028525Y014674D01*
X028674Y014525D01*
X028755Y014330D01*
X028755Y014120D01*
X028674Y013925D01*
X028525Y013776D01*
X028403Y013725D01*
X028525Y013674D01*
X028674Y013525D01*
X028755Y013330D01*
X028755Y013120D01*
X028674Y012925D01*
X028525Y012776D01*
X028330Y012695D01*
X028120Y012695D01*
X027925Y012776D01*
X027776Y012925D01*
X027695Y013120D01*
X027695Y013330D01*
X027776Y013525D01*
X027925Y013674D01*
X028047Y013725D01*
X027925Y013776D01*
X027776Y013925D01*
X027695Y014120D01*
X027695Y014330D01*
X027776Y014525D01*
X027925Y014674D01*
X028047Y014725D01*
X027925Y014776D01*
X027776Y014925D01*
X027695Y015120D01*
X027695Y015330D01*
X027776Y015525D01*
X027925Y015674D01*
X027985Y015699D01*
X027985Y019773D01*
X028022Y019861D01*
X028522Y020361D01*
X028589Y020428D01*
X028677Y020465D01*
X030251Y020465D01*
X030276Y020525D01*
X030425Y020674D01*
X030547Y020725D01*
X030425Y020776D01*
X030276Y020925D01*
X030195Y021120D01*
X030195Y021330D01*
X030276Y021525D01*
X030425Y021674D01*
X030620Y021755D01*
X030830Y021755D01*
X031025Y021674D01*
X031174Y021525D01*
X031199Y021465D01*
X032023Y021465D01*
X032111Y021428D01*
X032178Y021361D01*
X032428Y021111D01*
X032465Y021023D01*
X032465Y015879D01*
X032526Y016025D01*
X032675Y016174D01*
X032735Y016199D01*
X032735Y025376D01*
X032376Y025735D01*
X029499Y025735D01*
X029498Y025729D01*
X029506Y025713D01*
X029484Y025649D01*
X029472Y025582D01*
X029458Y025573D01*
X029446Y025539D01*
X029451Y025522D01*
X029420Y025462D01*
X029398Y025398D01*
X029383Y025391D01*
X029366Y025359D01*
X029369Y025342D01*
X029329Y025287D01*
X029297Y025227D01*
X029281Y025222D01*
X029260Y025193D01*
X029260Y025176D01*
X029212Y025128D01*
X029172Y025073D01*
X029155Y025071D01*
X029129Y025045D01*
X029127Y025028D01*
X029072Y024988D01*
X029024Y024940D01*
X029007Y024940D01*
X028978Y024919D01*
X028973Y024903D01*
X028913Y024871D01*
X028858Y024831D01*
X028841Y024834D01*
X028809Y024817D01*
X028802Y024802D01*
X028738Y024780D01*
X028678Y024749D01*
X028661Y024754D01*
X028627Y024742D01*
X028618Y024728D01*
X028551Y024716D01*
X028487Y024694D01*
X028471Y024702D01*
X028436Y024695D01*
X028424Y024683D01*
X028357Y024681D01*
X028290Y024669D01*
X028276Y024679D01*
X028240Y024678D01*
X028226Y024668D01*
X028159Y024676D01*
X028092Y024674D01*
X028079Y024686D01*
X028043Y024691D01*
X028028Y024682D01*
X027963Y024701D01*
X027896Y024710D01*
X027886Y024723D01*
X027851Y024733D01*
X027835Y024727D01*
X027773Y024755D01*
X027708Y024774D01*
X027700Y024789D01*
X027667Y024804D01*
X027650Y024801D01*
X027594Y024838D01*
X027532Y024866D01*
X027526Y024882D01*
X027496Y024902D01*
X027479Y024901D01*
X027429Y024947D01*
X027372Y024984D01*
X027369Y025001D01*
X027342Y025025D01*
X027325Y025027D01*
X027282Y025079D01*
X027232Y025124D01*
X027231Y025142D01*
X027209Y025169D01*
X027192Y025174D01*
X027158Y025232D01*
X027115Y025284D01*
X027117Y025302D01*
X027098Y025333D01*
X027082Y025339D01*
X027057Y025402D01*
X027023Y025460D01*
X027027Y025477D01*
X027014Y025511D01*
X026999Y025520D01*
X026984Y025586D01*
X026959Y025648D01*
X026966Y025664D01*
X026958Y025699D01*
X026945Y025711D01*
X026939Y025778D01*
X026924Y025844D01*
X026933Y025859D01*
X026931Y025894D01*
X026920Y025907D01*
X026924Y025975D01*
X026919Y026042D01*
X026930Y026055D01*
X026932Y026079D01*
X026923Y026093D01*
X026938Y026160D01*
X026943Y026228D01*
X026955Y026239D01*
X026960Y026262D01*
X026953Y026277D01*
X026977Y026341D01*
X026992Y026408D01*
X027005Y026417D01*
X027014Y026439D01*
X027009Y026455D01*
X027042Y026515D01*
X027066Y026579D01*
X027081Y026586D01*
X027092Y026607D01*
X027090Y026623D01*
X027131Y026678D01*
X027164Y026738D01*
X027179Y026743D01*
X027194Y026762D01*
X027194Y026778D01*
X027242Y026827D01*
X027283Y026882D01*
X027299Y026884D01*
X027316Y026901D01*
X027318Y026917D01*
X027373Y026958D01*
X027422Y027006D01*
X027438Y027006D01*
X027457Y027021D01*
X027462Y027036D01*
X027522Y027069D01*
X027577Y027110D01*
X027593Y027108D01*
X027614Y027119D01*
X027621Y027134D01*
X027685Y027158D01*
X027745Y027191D01*
X027761Y027186D01*
X027783Y027195D01*
X027792Y027208D01*
X027859Y027223D01*
X027923Y027247D01*
X027938Y027240D01*
X027961Y027245D01*
X027972Y027257D01*
X028040Y027262D01*
X028107Y027277D01*
X028121Y027268D01*
X028145Y027270D01*
X028158Y027281D01*
X028225Y027276D01*
X028293Y027280D01*
X028306Y027269D01*
X028341Y027267D01*
X028356Y027276D01*
X028422Y027261D01*
X028489Y027255D01*
X028501Y027242D01*
X028536Y027234D01*
X028552Y027241D01*
X028614Y027216D01*
X028680Y027201D01*
X028689Y027186D01*
X028723Y027173D01*
X028740Y027177D01*
X028798Y027143D01*
X028861Y027118D01*
X028867Y027102D01*
X028898Y027083D01*
X028916Y027085D01*
X028968Y027042D01*
X029026Y027008D01*
X029031Y026991D01*
X029058Y026969D01*
X029076Y026968D01*
X029121Y026918D01*
X029173Y026875D01*
X029175Y026858D01*
X029199Y026831D01*
X029216Y026828D01*
X029253Y026771D01*
X029299Y026721D01*
X029298Y026704D01*
X029318Y026674D01*
X029334Y026668D01*
X029362Y026606D01*
X029399Y026550D01*
X029396Y026533D01*
X029411Y026500D01*
X029426Y026492D01*
X029445Y026427D01*
X029473Y026365D01*
X029467Y026349D01*
X029477Y026314D01*
X029490Y026304D01*
X029499Y026237D01*
X029505Y026215D01*
X032523Y026215D01*
X032611Y026178D01*
X033111Y025678D01*
X033178Y025611D01*
X033215Y025523D01*
X033215Y016199D01*
X033275Y016174D01*
X033424Y016025D01*
X033464Y015931D01*
X033465Y015936D01*
X033505Y016013D01*
X033555Y016083D01*
X033617Y016145D01*
X033687Y016195D01*
X033764Y016235D01*
X033846Y016261D01*
X033932Y016275D01*
X033955Y016275D01*
X033955Y015745D01*
X033995Y015745D01*
X033995Y016275D01*
X034018Y016275D01*
X034104Y016261D01*
X034186Y016235D01*
X034263Y016195D01*
X034333Y016145D01*
X034395Y016083D01*
X034445Y016013D01*
X034485Y015936D01*
X034511Y015854D01*
X034525Y015768D01*
X034525Y015745D01*
X033995Y015745D01*
X033995Y015705D01*
X034525Y015705D01*
X034525Y015682D01*
X034511Y015596D01*
X034485Y015514D01*
X034445Y015437D01*
X034395Y015367D01*
X034333Y015305D01*
X034263Y015255D01*
X034186Y015215D01*
X034181Y015214D01*
X034275Y015174D01*
X034424Y015025D01*
X034505Y014830D01*
X034505Y014620D01*
X034424Y014425D01*
X034275Y014276D01*
X034153Y014225D01*
X034275Y014174D01*
X034424Y014025D01*
X034449Y013965D01*
X034523Y013965D01*
X034611Y013928D01*
X034678Y013861D01*
X034928Y013611D01*
X034965Y013523D01*
X034965Y004494D01*
X035025Y004434D01*
X035025Y026935D01*
X034946Y026744D01*
X034946Y026744D01*
X034706Y026504D01*
X034706Y026504D01*
X034394Y026375D01*
X034056Y026375D01*
X033744Y026504D01*
X033744Y026504D01*
X033504Y026744D01*
X033504Y026744D01*
X033375Y027056D01*
X033375Y027394D01*
X033504Y027706D01*
X033504Y027706D01*
X033504Y027706D01*
X033744Y027946D01*
X033935Y028025D01*
X001515Y028025D01*
X001706Y027946D01*
X001706Y027946D01*
X001946Y027706D01*
X001946Y027706D01*
X002075Y027394D01*
X002075Y027056D01*
X001946Y026744D01*
X001946Y026744D01*
X001946Y026744D01*
X001706Y026504D01*
X001706Y026504D01*
X001394Y026375D01*
X001056Y026375D01*
X000744Y026504D01*
X000744Y026504D01*
X000504Y026744D01*
X000504Y026744D01*
X000425Y026935D01*
X000425Y016175D01*
X000482Y016175D01*
X000978Y016042D01*
X000978Y016042D01*
X001422Y015785D01*
X001422Y015785D01*
X001785Y015422D01*
X001785Y015422D01*
X002042Y014978D01*
X002042Y014978D01*
X002175Y014482D01*
X002175Y013968D01*
X002042Y013472D01*
X002042Y013472D01*
X001785Y013028D01*
X001785Y013028D01*
X001785Y013028D01*
X001422Y012665D01*
X001422Y012665D01*
X000978Y012408D01*
X000482Y012275D01*
X000425Y012275D01*
X000425Y001515D01*
X000504Y001706D01*
X000504Y001706D01*
X000744Y001946D01*
X000744Y001946D01*
X001056Y002075D01*
X001394Y002075D01*
X001706Y001946D01*
X001706Y001946D01*
X001946Y001706D01*
X001946Y001706D01*
X002075Y001394D01*
X002075Y001056D01*
X001946Y000744D01*
X001946Y000744D01*
X001706Y000504D01*
X001706Y000504D01*
X001744Y000542D02*
X007319Y000542D01*
X007160Y000701D02*
X001903Y000701D01*
X001993Y000859D02*
X007013Y000859D01*
X006985Y001018D02*
X002059Y001018D01*
X002075Y001176D02*
X006985Y001176D01*
X007225Y000975D02*
X007225Y002475D01*
X007225Y006275D01*
X005225Y008275D01*
X005225Y009775D01*
X004734Y009577D02*
X000425Y009577D01*
X000425Y009735D02*
X004695Y009735D01*
X004700Y009894D02*
X000425Y009894D01*
X000425Y010052D02*
X004766Y010052D01*
X004911Y010211D02*
X000425Y010211D01*
X000425Y010369D02*
X004881Y010369D01*
X004754Y010528D02*
X000425Y010528D01*
X000425Y010686D02*
X004695Y010686D01*
X004695Y010845D02*
X000425Y010845D01*
X000425Y011003D02*
X004746Y011003D01*
X004862Y011162D02*
X000425Y011162D01*
X000425Y011320D02*
X004938Y011320D01*
X004774Y011479D02*
X000425Y011479D01*
X000425Y011637D02*
X004524Y011637D01*
X004365Y011796D02*
X000425Y011796D01*
X000425Y011954D02*
X004207Y011954D01*
X004048Y012113D02*
X000425Y012113D01*
X000425Y012271D02*
X003985Y012271D01*
X003985Y012430D02*
X001015Y012430D01*
X001290Y012588D02*
X003985Y012588D01*
X003985Y012747D02*
X001504Y012747D01*
X001663Y012905D02*
X003985Y012905D01*
X003985Y013064D02*
X001806Y013064D01*
X001898Y013222D02*
X003985Y013222D01*
X003985Y013381D02*
X001989Y013381D01*
X002060Y013539D02*
X003985Y013539D01*
X003985Y013698D02*
X002102Y013698D01*
X002145Y013856D02*
X003985Y013856D01*
X003985Y014015D02*
X002175Y014015D01*
X002175Y014173D02*
X003985Y014173D01*
X003985Y014332D02*
X002175Y014332D01*
X002173Y014490D02*
X003985Y014490D01*
X003985Y014649D02*
X002130Y014649D01*
X002088Y014807D02*
X003985Y014807D01*
X003985Y014966D02*
X002045Y014966D01*
X001958Y015124D02*
X003985Y015124D01*
X003989Y015283D02*
X001866Y015283D01*
X001767Y015441D02*
X004102Y015441D01*
X004260Y015600D02*
X001608Y015600D01*
X001450Y015758D02*
X004419Y015758D01*
X004577Y015917D02*
X001195Y015917D01*
X000855Y016075D02*
X004825Y016075D01*
X005068Y016234D02*
X000425Y016234D01*
X000425Y016392D02*
X005985Y016392D01*
X005985Y016234D02*
X005382Y016234D01*
X005625Y016075D02*
X005985Y016075D01*
X005985Y015917D02*
X005719Y015917D01*
X005755Y015758D02*
X005985Y015758D01*
X005985Y015600D02*
X005747Y015600D01*
X005681Y015441D02*
X005985Y015441D01*
X005985Y015283D02*
X005532Y015283D01*
X005576Y015124D02*
X005985Y015124D01*
X005985Y014966D02*
X005699Y014966D01*
X005755Y014807D02*
X005985Y014807D01*
X005985Y014649D02*
X005755Y014649D01*
X005701Y014490D02*
X005985Y014490D01*
X005985Y014332D02*
X005581Y014332D01*
X005527Y014173D02*
X005834Y014173D01*
X006225Y014225D02*
X005725Y013725D01*
X005225Y013725D01*
X004728Y013539D02*
X004465Y013539D01*
X004465Y013381D02*
X004820Y013381D01*
X005054Y013222D02*
X004465Y013222D01*
X004465Y013064D02*
X007695Y013064D01*
X007695Y013080D02*
X007695Y012870D01*
X007776Y012675D01*
X007925Y012526D01*
X008047Y012475D01*
X007925Y012424D01*
X007776Y012275D01*
X007695Y012080D01*
X007695Y011870D01*
X007776Y011675D01*
X007925Y011526D01*
X007985Y011501D01*
X007985Y008749D01*
X007925Y008724D01*
X007776Y008575D01*
X007695Y008380D01*
X007695Y008170D01*
X007776Y007975D01*
X007925Y007826D01*
X008120Y007745D01*
X008330Y007745D01*
X008525Y007826D01*
X008674Y007975D01*
X008755Y008170D01*
X008755Y008380D01*
X008674Y008575D01*
X008525Y008724D01*
X008465Y008749D01*
X008465Y011501D01*
X008525Y011526D01*
X008674Y011675D01*
X008755Y011870D01*
X008755Y012080D01*
X008674Y012275D01*
X008525Y012424D01*
X008403Y012475D01*
X008525Y012526D01*
X008674Y012675D01*
X008755Y012870D01*
X008755Y013080D01*
X008674Y013275D01*
X008525Y013424D01*
X008403Y013475D01*
X008525Y013526D01*
X008674Y013675D01*
X008755Y013870D01*
X008755Y014080D01*
X008674Y014275D01*
X008525Y014424D01*
X008465Y014449D01*
X008465Y019751D01*
X008525Y019776D01*
X008674Y019925D01*
X008755Y020120D01*
X008755Y020330D01*
X008730Y020391D01*
X008824Y020485D01*
X011071Y020485D01*
X010925Y020424D01*
X010776Y020275D01*
X010695Y020080D01*
X010695Y019870D01*
X010776Y019675D01*
X010925Y019526D01*
X011047Y019475D01*
X010925Y019424D01*
X010776Y019275D01*
X010695Y019080D01*
X010695Y018870D01*
X010776Y018675D01*
X010925Y018526D01*
X011047Y018475D01*
X010925Y018424D01*
X010776Y018275D01*
X010751Y018215D01*
X010677Y018215D01*
X010589Y018178D01*
X010339Y017928D01*
X010272Y017861D01*
X010235Y017773D01*
X010235Y013927D01*
X010272Y013839D01*
X010522Y013589D01*
X010589Y013522D01*
X010677Y013485D01*
X010751Y013485D01*
X010776Y013425D01*
X010925Y013276D01*
X011120Y013195D01*
X011330Y013195D01*
X011525Y013276D01*
X011674Y013425D01*
X011735Y013571D01*
X011735Y012124D01*
X011678Y012067D01*
X011674Y012075D01*
X011525Y012224D01*
X011330Y012305D01*
X011120Y012305D01*
X010925Y012224D01*
X010776Y012075D01*
X010695Y011880D01*
X010695Y011670D01*
X010776Y011475D01*
X010925Y011326D01*
X011047Y011275D01*
X010925Y011224D01*
X010776Y011075D01*
X010695Y010880D01*
X010695Y010670D01*
X010776Y010475D01*
X010925Y010326D01*
X011047Y010275D01*
X010925Y010224D01*
X010776Y010075D01*
X010695Y009880D01*
X010695Y009670D01*
X010776Y009475D01*
X010925Y009326D01*
X010985Y009301D01*
X010985Y008749D01*
X010925Y008724D01*
X010776Y008575D01*
X010695Y008380D01*
X010695Y008170D01*
X010776Y007975D01*
X010925Y007826D01*
X011120Y007745D01*
X011330Y007745D01*
X011525Y007826D01*
X011674Y007975D01*
X011755Y008170D01*
X011755Y008380D01*
X011674Y008575D01*
X011525Y008724D01*
X011465Y008749D01*
X011465Y009301D01*
X011525Y009326D01*
X011674Y009475D01*
X011755Y009670D01*
X011755Y009880D01*
X011674Y010075D01*
X011525Y010224D01*
X011403Y010275D01*
X011525Y010326D01*
X011674Y010475D01*
X011755Y010670D01*
X011755Y010880D01*
X011674Y011075D01*
X011525Y011224D01*
X011403Y011275D01*
X011525Y011326D01*
X011674Y011475D01*
X011699Y011535D01*
X011773Y011535D01*
X011861Y011572D01*
X011928Y011639D01*
X012178Y011889D01*
X012215Y011977D01*
X012215Y015523D01*
X012178Y015611D01*
X012111Y015678D01*
X011861Y015928D01*
X011773Y015965D01*
X011699Y015965D01*
X011674Y016025D01*
X011525Y016174D01*
X011330Y016255D01*
X011120Y016255D01*
X010925Y016174D01*
X010776Y016025D01*
X010715Y015879D01*
X010715Y017626D01*
X010772Y017683D01*
X010776Y017675D01*
X010925Y017526D01*
X011120Y017445D01*
X011330Y017445D01*
X011525Y017526D01*
X011674Y017675D01*
X011755Y017870D01*
X011755Y018080D01*
X011674Y018275D01*
X011525Y018424D01*
X011403Y018475D01*
X011525Y018526D01*
X011674Y018675D01*
X011699Y018735D01*
X012126Y018735D01*
X012735Y018126D01*
X012735Y003427D01*
X012772Y003339D01*
X013056Y003054D01*
X013042Y003015D01*
X013009Y002955D01*
X013014Y002939D01*
X013005Y002917D01*
X012992Y002908D01*
X012977Y002841D01*
X012953Y002777D01*
X012960Y002762D01*
X012955Y002739D01*
X012943Y002728D01*
X012938Y002660D01*
X012923Y002593D01*
X012932Y002579D01*
X012930Y002555D01*
X012919Y002542D01*
X012924Y002475D01*
X012920Y002407D01*
X012931Y002394D01*
X012933Y002359D01*
X012924Y002344D01*
X012939Y002278D01*
X012945Y002211D01*
X012958Y002199D01*
X012966Y002164D01*
X012959Y002148D01*
X012984Y002086D01*
X012999Y002020D01*
X013014Y002011D01*
X013027Y001977D01*
X013023Y001960D01*
X013057Y001902D01*
X013082Y001839D01*
X013098Y001833D01*
X013117Y001802D01*
X013115Y001784D01*
X013158Y001732D01*
X013192Y001674D01*
X013209Y001669D01*
X013231Y001642D01*
X013232Y001624D01*
X013282Y001579D01*
X013325Y001527D01*
X013342Y001525D01*
X013369Y001501D01*
X013372Y001484D01*
X013429Y001447D01*
X013479Y001401D01*
X013496Y001402D01*
X013526Y001382D01*
X013532Y001366D01*
X013594Y001338D01*
X013650Y001301D01*
X013667Y001304D01*
X013700Y001289D01*
X013708Y001274D01*
X013773Y001255D01*
X013835Y001227D01*
X013851Y001233D01*
X013886Y001223D01*
X013896Y001210D01*
X013963Y001201D01*
X014028Y001182D01*
X014043Y001191D01*
X014079Y001186D01*
X014092Y001174D01*
X014159Y001176D01*
X014226Y001168D01*
X014240Y001178D01*
X014276Y001179D01*
X014290Y001169D01*
X014357Y001181D01*
X014424Y001183D01*
X014436Y001195D01*
X014471Y001202D01*
X014487Y001194D01*
X014551Y001216D01*
X014618Y001228D01*
X014627Y001242D01*
X014661Y001254D01*
X014678Y001249D01*
X014738Y001280D01*
X014802Y001302D01*
X014809Y001317D01*
X014841Y001334D01*
X014858Y001331D01*
X014913Y001371D01*
X014973Y001403D01*
X014978Y001419D01*
X015007Y001440D01*
X015024Y001440D01*
X015072Y001488D01*
X015127Y001528D01*
X015129Y001545D01*
X015155Y001571D01*
X015172Y001573D01*
X015212Y001628D01*
X015260Y001676D01*
X015260Y001693D01*
X015281Y001722D01*
X015297Y001727D01*
X015329Y001787D01*
X015369Y001842D01*
X015366Y001859D01*
X015383Y001891D01*
X015398Y001898D01*
X015420Y001962D01*
X015451Y002022D01*
X015446Y002039D01*
X015458Y002073D01*
X015472Y002082D01*
X015484Y002149D01*
X015506Y002213D01*
X015498Y002229D01*
X015505Y002264D01*
X015517Y002276D01*
X015519Y002343D01*
X015531Y002410D01*
X015521Y002424D01*
X015522Y002460D01*
X015532Y002474D01*
X015524Y002541D01*
X015526Y002608D01*
X015514Y002621D01*
X015509Y002657D01*
X015518Y002672D01*
X015499Y002737D01*
X015490Y002804D01*
X015477Y002814D01*
X015467Y002849D01*
X015473Y002865D01*
X015445Y002927D01*
X015426Y002992D01*
X015411Y003000D01*
X015396Y003033D01*
X015399Y003050D01*
X015362Y003106D01*
X015334Y003168D01*
X015318Y003174D01*
X015298Y003204D01*
X015299Y003221D01*
X015253Y003271D01*
X015216Y003328D01*
X015199Y003331D01*
X015175Y003358D01*
X015173Y003375D01*
X015121Y003418D01*
X015076Y003468D01*
X015058Y003469D01*
X015031Y003491D01*
X015026Y003508D01*
X014968Y003542D01*
X014916Y003585D01*
X014898Y003583D01*
X014867Y003602D01*
X014861Y003618D01*
X014798Y003643D01*
X014740Y003677D01*
X014723Y003673D01*
X014689Y003686D01*
X014680Y003701D01*
X014614Y003716D01*
X014552Y003741D01*
X014536Y003734D01*
X014501Y003742D01*
X014489Y003755D01*
X014422Y003761D01*
X014356Y003776D01*
X014341Y003767D01*
X014306Y003769D01*
X014293Y003780D01*
X014225Y003776D01*
X014158Y003781D01*
X014145Y003770D01*
X014121Y003768D01*
X014107Y003777D01*
X014040Y003762D01*
X013972Y003757D01*
X013961Y003745D01*
X013938Y003740D01*
X013923Y003747D01*
X013859Y003723D01*
X013792Y003708D01*
X013783Y003695D01*
X013761Y003686D01*
X013745Y003691D01*
X013685Y003658D01*
X013621Y003634D01*
X013614Y003619D01*
X013593Y003608D01*
X013577Y003610D01*
X013522Y003569D01*
X013462Y003536D01*
X013457Y003521D01*
X013438Y003506D01*
X013422Y003506D01*
X013373Y003458D01*
X013349Y003440D01*
X013215Y003574D01*
X013215Y018273D01*
X013178Y018361D01*
X013111Y018428D01*
X012361Y019178D01*
X012273Y019215D01*
X011699Y019215D01*
X011674Y019275D01*
X011525Y019424D01*
X011403Y019475D01*
X011525Y019526D01*
X011674Y019675D01*
X011755Y019870D01*
X011755Y020080D01*
X011674Y020275D01*
X011525Y020424D01*
X011379Y020485D01*
X014126Y020485D01*
X014445Y020166D01*
X014445Y020120D01*
X014526Y019925D01*
X014675Y019776D01*
X014870Y019695D01*
X015080Y019695D01*
X015275Y019776D01*
X015424Y019925D01*
X015485Y020071D01*
X015485Y018324D01*
X015428Y018267D01*
X015424Y018275D01*
X015275Y018424D01*
X015080Y018505D01*
X014870Y018505D01*
X014675Y018424D01*
X014526Y018275D01*
X014445Y018080D01*
X014445Y017870D01*
X014526Y017675D01*
X014675Y017526D01*
X014797Y017475D01*
X014675Y017424D01*
X014526Y017275D01*
X014445Y017080D01*
X014445Y016870D01*
X014526Y016675D01*
X014675Y016526D01*
X014797Y016475D01*
X014675Y016424D01*
X014526Y016275D01*
X014445Y016080D01*
X014445Y015870D01*
X014526Y015675D01*
X014675Y015526D01*
X014735Y015501D01*
X014735Y009049D01*
X014675Y009024D01*
X014526Y008875D01*
X014445Y008680D01*
X014445Y008470D01*
X014526Y008275D01*
X014675Y008126D01*
X014870Y008045D01*
X015080Y008045D01*
X015275Y008126D01*
X015424Y008275D01*
X015505Y008470D01*
X015505Y008680D01*
X015424Y008875D01*
X015275Y009024D01*
X015215Y009049D01*
X015215Y015501D01*
X015275Y015526D01*
X015424Y015675D01*
X015505Y015870D01*
X015505Y016080D01*
X015424Y016275D01*
X015275Y016424D01*
X015153Y016475D01*
X015275Y016526D01*
X015424Y016675D01*
X015449Y016735D01*
X017876Y016735D01*
X017985Y016626D01*
X017985Y015449D01*
X017925Y015424D01*
X017776Y015275D01*
X017695Y015080D01*
X017695Y014870D01*
X017776Y014675D01*
X017925Y014526D01*
X017985Y014501D01*
X017985Y011199D01*
X017925Y011174D01*
X017776Y011025D01*
X017695Y010830D01*
X017695Y010620D01*
X017776Y010425D01*
X017925Y010276D01*
X017985Y010251D01*
X017985Y010199D01*
X017925Y010174D01*
X017776Y010025D01*
X017695Y009830D01*
X017695Y009620D01*
X017776Y009425D01*
X017925Y009276D01*
X018019Y009236D01*
X018014Y009235D01*
X017937Y009195D01*
X017867Y009145D01*
X017805Y009083D01*
X017755Y009013D01*
X017715Y008936D01*
X017689Y008854D01*
X017675Y008768D01*
X017675Y008725D01*
X018225Y008725D01*
X018775Y008725D01*
X018775Y008768D01*
X018761Y008854D01*
X018735Y008936D01*
X018695Y009013D01*
X018645Y009083D01*
X018583Y009145D01*
X018513Y009195D01*
X018436Y009235D01*
X018431Y009236D01*
X018525Y009276D01*
X018674Y009425D01*
X018755Y009620D01*
X018755Y009830D01*
X018674Y010025D01*
X018525Y010174D01*
X018465Y010199D01*
X018465Y010251D01*
X018525Y010276D01*
X018674Y010425D01*
X018755Y010620D01*
X018755Y010830D01*
X018674Y011025D01*
X018525Y011174D01*
X018465Y011199D01*
X018465Y014501D01*
X018525Y014526D01*
X018674Y014675D01*
X018755Y014870D01*
X018755Y015080D01*
X018674Y015275D01*
X018525Y015424D01*
X018465Y015449D01*
X018465Y016773D01*
X018428Y016861D01*
X018178Y017111D01*
X018111Y017178D01*
X018023Y017215D01*
X015449Y017215D01*
X015424Y017275D01*
X015275Y017424D01*
X015153Y017475D01*
X015275Y017526D01*
X015424Y017675D01*
X015449Y017735D01*
X015523Y017735D01*
X015611Y017772D01*
X015678Y017839D01*
X015928Y018089D01*
X015965Y018177D01*
X015965Y022023D01*
X015928Y022111D01*
X015861Y022178D01*
X015611Y022428D01*
X015523Y022465D01*
X015449Y022465D01*
X015424Y022525D01*
X015275Y022674D01*
X015080Y022755D01*
X014870Y022755D01*
X014675Y022674D01*
X014526Y022525D01*
X014465Y022379D01*
X014465Y024701D01*
X014471Y024702D01*
X014487Y024694D01*
X014551Y024716D01*
X014618Y024728D01*
X014627Y024742D01*
X014661Y024754D01*
X014678Y024749D01*
X014738Y024780D01*
X014802Y024802D01*
X014809Y024817D01*
X014841Y024834D01*
X014858Y024831D01*
X014913Y024871D01*
X014973Y024903D01*
X014978Y024919D01*
X015007Y024940D01*
X015024Y024940D01*
X015072Y024988D01*
X015127Y025028D01*
X015129Y025045D01*
X015155Y025071D01*
X015172Y025073D01*
X015212Y025128D01*
X015260Y025176D01*
X015260Y025193D01*
X015281Y025222D01*
X015297Y025227D01*
X015329Y025287D01*
X015369Y025342D01*
X015366Y025359D01*
X015383Y025391D01*
X015398Y025398D01*
X015420Y025462D01*
X015451Y025522D01*
X015446Y025539D01*
X015458Y025573D01*
X015472Y025582D01*
X015484Y025649D01*
X015506Y025713D01*
X015498Y025729D01*
X015505Y025764D01*
X015517Y025776D01*
X015519Y025843D01*
X015531Y025910D01*
X015521Y025924D01*
X015522Y025960D01*
X015532Y025974D01*
X015524Y026041D01*
X015526Y026108D01*
X015514Y026121D01*
X015509Y026157D01*
X015518Y026172D01*
X015499Y026237D01*
X015490Y026304D01*
X015477Y026314D01*
X015467Y026349D01*
X015473Y026365D01*
X015445Y026427D01*
X015426Y026492D01*
X015411Y026500D01*
X015396Y026533D01*
X015399Y026550D01*
X015362Y026606D01*
X015334Y026668D01*
X015318Y026674D01*
X015298Y026704D01*
X015299Y026721D01*
X015253Y026771D01*
X015216Y026828D01*
X015199Y026831D01*
X015175Y026858D01*
X015173Y026875D01*
X015121Y026918D01*
X015076Y026968D01*
X015058Y026969D01*
X015031Y026991D01*
X015026Y027008D01*
X014968Y027042D01*
X014916Y027085D01*
X014898Y027083D01*
X014867Y027102D01*
X014861Y027118D01*
X014798Y027143D01*
X014740Y027177D01*
X014723Y027173D01*
X014689Y027186D01*
X014680Y027201D01*
X014614Y027216D01*
X014552Y027241D01*
X014536Y027234D01*
X014501Y027242D01*
X014489Y027255D01*
X014422Y027261D01*
X014356Y027276D01*
X014341Y027267D01*
X014306Y027269D01*
X014293Y027280D01*
X014225Y027276D01*
X014158Y027281D01*
X014145Y027270D01*
X014121Y027268D01*
X014107Y027277D01*
X014040Y027262D01*
X013972Y027257D01*
X013961Y027245D01*
X013938Y027240D01*
X013923Y027247D01*
X013859Y027223D01*
X013792Y027208D01*
X013783Y027195D01*
X013761Y027186D01*
X013745Y027191D01*
X013685Y027158D01*
X013621Y027134D01*
X013614Y027119D01*
X013593Y027108D01*
X013577Y027110D01*
X013522Y027069D01*
X013462Y027036D01*
X013457Y027021D01*
X013438Y027006D01*
X013422Y027006D01*
X013373Y026958D01*
X013318Y026917D01*
X013316Y026901D01*
X013299Y026884D01*
X013283Y026882D01*
X013242Y026827D01*
X013194Y026778D01*
X013194Y026762D01*
X013179Y026743D01*
X013164Y026738D01*
X013131Y026678D01*
X013090Y026623D01*
X013092Y026607D01*
X013081Y026586D01*
X013066Y026579D01*
X013042Y026515D01*
X013009Y026455D01*
X013014Y026439D01*
X013005Y026417D01*
X012992Y026408D01*
X012977Y026341D01*
X012953Y026277D01*
X012960Y026262D01*
X012955Y026239D01*
X012943Y026228D01*
X012938Y026160D01*
X012923Y026093D01*
X012932Y026079D01*
X012930Y026055D01*
X012919Y026042D01*
X012924Y025975D01*
X012920Y025907D01*
X012931Y025894D01*
X012933Y025859D01*
X012924Y025844D01*
X012939Y025778D01*
X012945Y025711D01*
X012958Y025699D01*
X012966Y025664D01*
X012959Y025648D01*
X012984Y025586D01*
X012999Y025520D01*
X013014Y025511D01*
X013027Y025477D01*
X013023Y025460D01*
X013057Y025402D01*
X013082Y025339D01*
X013098Y025333D01*
X013117Y025302D01*
X013115Y025284D01*
X013158Y025232D01*
X013192Y025174D01*
X013209Y025169D01*
X013231Y025142D01*
X013232Y025124D01*
X013282Y025079D01*
X013325Y025027D01*
X013342Y025025D01*
X013369Y025001D01*
X013372Y024984D01*
X013429Y024947D01*
X013479Y024901D01*
X013496Y024902D01*
X013526Y024882D01*
X013532Y024866D01*
X013594Y024838D01*
X013650Y024801D01*
X013667Y024804D01*
X013700Y024789D01*
X013708Y024774D01*
X013773Y024755D01*
X013835Y024727D01*
X013851Y024733D01*
X013886Y024723D01*
X013896Y024710D01*
X013963Y024701D01*
X013985Y024695D01*
X013985Y020965D01*
X008691Y020965D01*
X008755Y021120D01*
X008755Y021330D01*
X008674Y021525D01*
X008525Y021674D01*
X008465Y021699D01*
X008465Y021751D01*
X008525Y021776D01*
X008674Y021925D01*
X008755Y022120D01*
X008755Y022330D01*
X008674Y022525D01*
X008525Y022674D01*
X008330Y022755D01*
X008120Y022755D01*
X007925Y022674D01*
X007776Y022525D01*
X007695Y022330D01*
X007695Y022120D01*
X007776Y021925D01*
X007925Y021776D01*
X007985Y021751D01*
X007985Y021699D01*
X007925Y021674D01*
X007776Y021525D01*
X007695Y021330D01*
X007695Y021120D01*
X007776Y020925D01*
X007925Y020776D01*
X008047Y020725D01*
X007925Y020674D01*
X007776Y020525D01*
X007695Y020330D01*
X007695Y020120D01*
X007776Y019925D01*
X007925Y019776D01*
X007985Y019751D01*
X007985Y014449D01*
X007925Y014424D01*
X007776Y014275D01*
X007695Y014080D01*
X007695Y013870D01*
X007776Y013675D01*
X007925Y013526D01*
X008047Y013475D01*
X007925Y013424D01*
X007776Y013275D01*
X007695Y013080D01*
X007754Y013222D02*
X005396Y013222D01*
X005630Y013381D02*
X007881Y013381D01*
X007911Y013539D02*
X005878Y013539D01*
X006037Y013698D02*
X007766Y013698D01*
X007701Y013856D02*
X006195Y013856D01*
X006354Y014015D02*
X007695Y014015D01*
X007733Y014173D02*
X006463Y014173D01*
X006465Y014332D02*
X007832Y014332D01*
X007985Y014490D02*
X006465Y014490D01*
X006465Y014649D02*
X007985Y014649D01*
X007985Y014807D02*
X006465Y014807D01*
X006465Y014966D02*
X007985Y014966D01*
X007985Y015124D02*
X006465Y015124D01*
X006465Y015283D02*
X007985Y015283D01*
X007985Y015441D02*
X006465Y015441D01*
X006465Y015600D02*
X007985Y015600D01*
X007985Y015758D02*
X006465Y015758D01*
X006465Y015917D02*
X007985Y015917D01*
X007985Y016075D02*
X006465Y016075D01*
X006465Y016234D02*
X007985Y016234D01*
X007985Y016392D02*
X006465Y016392D01*
X006465Y016551D02*
X007985Y016551D01*
X007985Y016709D02*
X006465Y016709D01*
X006465Y016868D02*
X007985Y016868D01*
X007985Y017026D02*
X006465Y017026D01*
X006465Y017185D02*
X007985Y017185D01*
X007985Y017343D02*
X006436Y017343D01*
X006288Y017502D02*
X007985Y017502D01*
X007985Y017660D02*
X006129Y017660D01*
X005971Y017819D02*
X007985Y017819D01*
X007985Y017977D02*
X005694Y017977D01*
X005564Y018136D02*
X007985Y018136D01*
X007985Y018294D02*
X005544Y018294D01*
X005686Y018453D02*
X007985Y018453D01*
X007985Y018611D02*
X005751Y018611D01*
X005755Y018770D02*
X007985Y018770D01*
X007985Y018928D02*
X005715Y018928D01*
X005613Y019087D02*
X007985Y019087D01*
X007985Y019245D02*
X005451Y019245D01*
X005653Y019404D02*
X007985Y019404D01*
X007985Y019562D02*
X005731Y019562D01*
X005755Y019721D02*
X007985Y019721D01*
X007821Y019879D02*
X005735Y019879D01*
X005662Y020038D02*
X007729Y020038D01*
X007695Y020196D02*
X005473Y020196D01*
X004977Y020196D02*
X000425Y020196D01*
X000425Y020038D02*
X004788Y020038D01*
X004715Y019879D02*
X000425Y019879D01*
X000425Y019721D02*
X004695Y019721D01*
X004719Y019562D02*
X000425Y019562D01*
X000425Y019404D02*
X004797Y019404D01*
X004999Y019245D02*
X000425Y019245D01*
X000425Y019087D02*
X004837Y019087D01*
X004735Y018928D02*
X000425Y018928D01*
X000425Y018770D02*
X004695Y018770D01*
X004699Y018611D02*
X000425Y018611D01*
X000425Y018453D02*
X004764Y018453D01*
X004906Y018294D02*
X000425Y018294D01*
X000425Y018136D02*
X004886Y018136D01*
X004756Y017977D02*
X000425Y017977D01*
X000425Y017819D02*
X004695Y017819D01*
X004695Y017660D02*
X000425Y017660D01*
X000425Y017502D02*
X004744Y017502D01*
X004857Y017343D02*
X000425Y017343D01*
X000425Y017185D02*
X005926Y017185D01*
X005985Y017026D02*
X000425Y017026D01*
X000425Y016868D02*
X005985Y016868D01*
X005985Y016709D02*
X000425Y016709D01*
X000425Y016551D02*
X005985Y016551D01*
X006225Y017225D02*
X005725Y017725D01*
X005225Y017725D01*
X005593Y017343D02*
X005768Y017343D01*
X006225Y017225D02*
X006225Y014225D01*
X004923Y014173D02*
X004465Y014173D01*
X004465Y014015D02*
X004771Y014015D01*
X004706Y013856D02*
X004465Y013856D01*
X004465Y013698D02*
X004695Y013698D01*
X004869Y014332D02*
X004465Y014332D01*
X004465Y014490D02*
X004749Y014490D01*
X004695Y014649D02*
X004465Y014649D01*
X004465Y014807D02*
X004695Y014807D01*
X004751Y014966D02*
X004465Y014966D01*
X004465Y015124D02*
X004874Y015124D01*
X004918Y015283D02*
X004622Y015283D01*
X004225Y015225D02*
X004725Y015725D01*
X005225Y015725D01*
X004225Y015225D02*
X004225Y012275D01*
X004725Y011775D01*
X005225Y011775D01*
X005637Y012113D02*
X007708Y012113D01*
X007695Y011954D02*
X005725Y011954D01*
X005755Y011796D02*
X007726Y011796D01*
X007813Y011637D02*
X005742Y011637D01*
X005676Y011479D02*
X007985Y011479D01*
X007985Y011320D02*
X005512Y011320D01*
X005588Y011162D02*
X007985Y011162D01*
X007985Y011003D02*
X005704Y011003D01*
X005755Y010845D02*
X007985Y010845D01*
X007985Y010686D02*
X005755Y010686D01*
X005696Y010528D02*
X007985Y010528D01*
X007985Y010369D02*
X005569Y010369D01*
X005539Y010211D02*
X007985Y010211D01*
X007985Y010052D02*
X005684Y010052D01*
X005750Y009894D02*
X007985Y009894D01*
X007985Y009735D02*
X005755Y009735D01*
X005716Y009577D02*
X007985Y009577D01*
X007985Y009418D02*
X005618Y009418D01*
X005465Y009260D02*
X007985Y009260D01*
X007985Y009101D02*
X005465Y009101D01*
X005465Y008943D02*
X007985Y008943D01*
X007985Y008784D02*
X005465Y008784D01*
X005624Y008626D02*
X007826Y008626D01*
X007731Y008467D02*
X005719Y008467D01*
X005755Y008309D02*
X007695Y008309D01*
X007703Y008150D02*
X005747Y008150D01*
X005848Y007992D02*
X007769Y007992D01*
X007917Y007833D02*
X006006Y007833D01*
X006165Y007675D02*
X012735Y007675D01*
X012735Y007833D02*
X011533Y007833D01*
X011681Y007992D02*
X012735Y007992D01*
X012735Y008150D02*
X011747Y008150D01*
X011755Y008309D02*
X012735Y008309D01*
X012735Y008467D02*
X011719Y008467D01*
X011624Y008626D02*
X012735Y008626D01*
X012735Y008784D02*
X011465Y008784D01*
X011465Y008943D02*
X012735Y008943D01*
X012735Y009101D02*
X011465Y009101D01*
X011465Y009260D02*
X012735Y009260D01*
X012735Y009418D02*
X011618Y009418D01*
X011716Y009577D02*
X012735Y009577D01*
X012735Y009735D02*
X011755Y009735D01*
X011750Y009894D02*
X012735Y009894D01*
X012735Y010052D02*
X011684Y010052D01*
X011539Y010211D02*
X012735Y010211D01*
X012735Y010369D02*
X011569Y010369D01*
X011696Y010528D02*
X012735Y010528D01*
X012735Y010686D02*
X011755Y010686D01*
X011755Y010845D02*
X012735Y010845D01*
X012735Y011003D02*
X011704Y011003D01*
X011588Y011162D02*
X012735Y011162D01*
X012735Y011320D02*
X011512Y011320D01*
X011676Y011479D02*
X012735Y011479D01*
X012735Y011637D02*
X011926Y011637D01*
X012085Y011796D02*
X012735Y011796D01*
X012735Y011954D02*
X012205Y011954D01*
X012215Y012113D02*
X012735Y012113D01*
X012735Y012271D02*
X012215Y012271D01*
X012215Y012430D02*
X012735Y012430D01*
X012735Y012588D02*
X012215Y012588D01*
X012215Y012747D02*
X012735Y012747D01*
X012735Y012905D02*
X012215Y012905D01*
X012215Y013064D02*
X012735Y013064D01*
X012735Y013222D02*
X012215Y013222D01*
X012215Y013381D02*
X012735Y013381D01*
X012735Y013539D02*
X012215Y013539D01*
X012215Y013698D02*
X012735Y013698D01*
X012735Y013856D02*
X012215Y013856D01*
X012215Y014015D02*
X012735Y014015D01*
X012735Y014173D02*
X012215Y014173D01*
X012215Y014332D02*
X012735Y014332D01*
X012735Y014490D02*
X012215Y014490D01*
X012215Y014649D02*
X012735Y014649D01*
X012735Y014807D02*
X012215Y014807D01*
X012215Y014966D02*
X012735Y014966D01*
X012735Y015124D02*
X012215Y015124D01*
X012215Y015283D02*
X012735Y015283D01*
X012735Y015441D02*
X012215Y015441D01*
X012183Y015600D02*
X012735Y015600D01*
X012735Y015758D02*
X012031Y015758D01*
X011873Y015917D02*
X012735Y015917D01*
X012735Y016075D02*
X011625Y016075D01*
X011382Y016234D02*
X012735Y016234D01*
X012735Y016392D02*
X010715Y016392D01*
X010715Y016234D02*
X011068Y016234D01*
X010825Y016075D02*
X010715Y016075D01*
X010715Y015917D02*
X010731Y015917D01*
X011225Y015725D02*
X011725Y015725D01*
X011975Y015475D01*
X011975Y012025D01*
X011725Y011775D01*
X011225Y011775D01*
X010695Y011796D02*
X008724Y011796D01*
X008755Y011954D02*
X010725Y011954D01*
X010813Y012113D02*
X008742Y012113D01*
X008676Y012271D02*
X011038Y012271D01*
X011412Y012271D02*
X011735Y012271D01*
X011735Y012430D02*
X008513Y012430D01*
X008588Y012588D02*
X011735Y012588D01*
X011735Y012747D02*
X008704Y012747D01*
X008755Y012905D02*
X011735Y012905D01*
X011735Y013064D02*
X008755Y013064D01*
X008696Y013222D02*
X011054Y013222D01*
X010820Y013381D02*
X008569Y013381D01*
X008539Y013539D02*
X010572Y013539D01*
X010413Y013698D02*
X008684Y013698D01*
X008749Y013856D02*
X010265Y013856D01*
X010235Y014015D02*
X008755Y014015D01*
X008717Y014173D02*
X010235Y014173D01*
X010235Y014332D02*
X008618Y014332D01*
X008465Y014490D02*
X010235Y014490D01*
X010235Y014649D02*
X008465Y014649D01*
X008465Y014807D02*
X010235Y014807D01*
X010235Y014966D02*
X008465Y014966D01*
X008465Y015124D02*
X010235Y015124D01*
X010235Y015283D02*
X008465Y015283D01*
X008465Y015441D02*
X010235Y015441D01*
X010235Y015600D02*
X008465Y015600D01*
X008465Y015758D02*
X010235Y015758D01*
X010235Y015917D02*
X008465Y015917D01*
X008465Y016075D02*
X010235Y016075D01*
X010235Y016234D02*
X008465Y016234D01*
X008465Y016392D02*
X010235Y016392D01*
X010235Y016551D02*
X008465Y016551D01*
X008465Y016709D02*
X010235Y016709D01*
X010235Y016868D02*
X008465Y016868D01*
X008465Y017026D02*
X010235Y017026D01*
X010235Y017185D02*
X008465Y017185D01*
X008465Y017343D02*
X010235Y017343D01*
X010235Y017502D02*
X008465Y017502D01*
X008465Y017660D02*
X010235Y017660D01*
X010254Y017819D02*
X008465Y017819D01*
X008465Y017977D02*
X010388Y017977D01*
X010546Y018136D02*
X008465Y018136D01*
X008465Y018294D02*
X010794Y018294D01*
X010993Y018453D02*
X008465Y018453D01*
X008465Y018611D02*
X010839Y018611D01*
X010736Y018770D02*
X008465Y018770D01*
X008465Y018928D02*
X010695Y018928D01*
X010698Y019087D02*
X008465Y019087D01*
X008465Y019245D02*
X010763Y019245D01*
X010904Y019404D02*
X008465Y019404D01*
X008465Y019562D02*
X010888Y019562D01*
X010757Y019721D02*
X008465Y019721D01*
X008629Y019879D02*
X010695Y019879D01*
X010695Y020038D02*
X008721Y020038D01*
X008755Y020196D02*
X010743Y020196D01*
X010855Y020355D02*
X008745Y020355D01*
X008725Y020725D02*
X008225Y020225D01*
X008225Y013975D01*
X007695Y012905D02*
X004465Y012905D01*
X004465Y012747D02*
X007746Y012747D01*
X007862Y012588D02*
X004465Y012588D01*
X004465Y012430D02*
X007937Y012430D01*
X007774Y012271D02*
X005412Y012271D01*
X005038Y012271D02*
X004568Y012271D01*
X004727Y012113D02*
X004813Y012113D01*
X004832Y009418D02*
X000425Y009418D01*
X000425Y009260D02*
X004985Y009260D01*
X004985Y009101D02*
X000425Y009101D01*
X000425Y008943D02*
X004985Y008943D01*
X004985Y008784D02*
X000425Y008784D01*
X000425Y008626D02*
X004826Y008626D01*
X004731Y008467D02*
X000425Y008467D01*
X000425Y008309D02*
X004695Y008309D01*
X004703Y008150D02*
X000425Y008150D01*
X000425Y007992D02*
X004769Y007992D01*
X004917Y007833D02*
X000425Y007833D01*
X000425Y007675D02*
X005486Y007675D01*
X005645Y007516D02*
X000425Y007516D01*
X000425Y007358D02*
X005803Y007358D01*
X005962Y007199D02*
X000425Y007199D01*
X000425Y007041D02*
X006120Y007041D01*
X006279Y006882D02*
X000425Y006882D01*
X000425Y006724D02*
X006437Y006724D01*
X006596Y006565D02*
X000425Y006565D01*
X000425Y006407D02*
X006754Y006407D01*
X006913Y006248D02*
X000425Y006248D01*
X000425Y006090D02*
X006985Y006090D01*
X006985Y005931D02*
X000425Y005931D01*
X000425Y005773D02*
X006985Y005773D01*
X006985Y005614D02*
X000425Y005614D01*
X000425Y005456D02*
X006985Y005456D01*
X006985Y005297D02*
X000425Y005297D01*
X000425Y005139D02*
X006985Y005139D01*
X006985Y004980D02*
X000425Y004980D01*
X000425Y004822D02*
X005160Y004822D01*
X005182Y004825D02*
X005096Y004811D01*
X005014Y004785D01*
X004937Y004745D01*
X004867Y004695D01*
X004805Y004633D01*
X004755Y004563D01*
X004715Y004486D01*
X004689Y004404D01*
X004675Y004318D01*
X004675Y004284D01*
X005216Y004284D01*
X005216Y004825D01*
X005182Y004825D01*
X005216Y004822D02*
X005234Y004822D01*
X005234Y004825D02*
X005234Y004284D01*
X005216Y004284D01*
X005216Y004266D01*
X004675Y004266D01*
X004675Y004232D01*
X004689Y004146D01*
X004715Y004064D01*
X004755Y003987D01*
X004805Y003917D01*
X004867Y003855D01*
X004937Y003805D01*
X005014Y003765D01*
X005096Y003739D01*
X005182Y003725D01*
X005216Y003725D01*
X005216Y004266D01*
X005234Y004266D01*
X005234Y004284D01*
X005775Y004284D01*
X005775Y004318D01*
X005761Y004404D01*
X005735Y004486D01*
X005695Y004563D01*
X005645Y004633D01*
X005583Y004695D01*
X005513Y004745D01*
X005436Y004785D01*
X005354Y004811D01*
X005268Y004825D01*
X005234Y004825D01*
X005290Y004822D02*
X006985Y004822D01*
X006985Y004663D02*
X005615Y004663D01*
X005725Y004505D02*
X006985Y004505D01*
X006985Y004346D02*
X005771Y004346D01*
X005775Y004266D02*
X005234Y004266D01*
X005234Y003725D01*
X005268Y003725D01*
X005354Y003739D01*
X005436Y003765D01*
X005513Y003805D01*
X005583Y003855D01*
X005645Y003917D01*
X005695Y003987D01*
X005735Y004064D01*
X005761Y004146D01*
X005775Y004232D01*
X005775Y004266D01*
X005768Y004188D02*
X006985Y004188D01*
X006985Y004029D02*
X005717Y004029D01*
X005598Y003871D02*
X006985Y003871D01*
X006809Y003712D02*
X000425Y003712D01*
X000425Y003554D02*
X006493Y003554D01*
X006310Y003395D02*
X000425Y003395D01*
X000425Y003237D02*
X006163Y003237D01*
X006065Y003078D02*
X000425Y003078D01*
X000425Y002920D02*
X006006Y002920D01*
X005960Y002761D02*
X000425Y002761D01*
X000425Y002603D02*
X005925Y002603D01*
X005922Y002444D02*
X000425Y002444D01*
X000425Y002286D02*
X005938Y002286D01*
X005968Y002127D02*
X000425Y002127D01*
X000425Y001969D02*
X000799Y001969D01*
X000608Y001810D02*
X000425Y001810D01*
X000425Y001652D02*
X000482Y001652D01*
X001651Y001969D02*
X006025Y001969D01*
X006112Y001810D02*
X001842Y001810D01*
X001968Y001652D02*
X006223Y001652D01*
X006371Y001493D02*
X002034Y001493D01*
X002075Y001335D02*
X006599Y001335D01*
X007225Y000975D02*
X007725Y000475D01*
X031475Y000475D01*
X033975Y002975D01*
X033975Y012725D01*
X033445Y012430D02*
X033426Y012430D01*
X033463Y012271D02*
X033264Y012271D01*
X032686Y012271D02*
X031014Y012271D01*
X031176Y012430D02*
X032524Y012430D01*
X032458Y012588D02*
X031242Y012588D01*
X031255Y012747D02*
X032445Y012747D01*
X032476Y012905D02*
X031224Y012905D01*
X031136Y013064D02*
X032564Y013064D01*
X032790Y013222D02*
X030965Y013222D01*
X030965Y013381D02*
X032570Y013381D01*
X032322Y013539D02*
X031039Y013539D01*
X031184Y013698D02*
X032163Y013698D01*
X032015Y013856D02*
X031249Y013856D01*
X031255Y014015D02*
X031985Y014015D01*
X031985Y014173D02*
X031217Y014173D01*
X031118Y014332D02*
X031985Y014332D01*
X031985Y014490D02*
X030867Y014490D01*
X030738Y014649D02*
X031985Y014649D01*
X031985Y014807D02*
X030896Y014807D01*
X030965Y014966D02*
X031985Y014966D01*
X031985Y015124D02*
X030965Y015124D01*
X030965Y015283D02*
X031985Y015283D01*
X031985Y015441D02*
X030965Y015441D01*
X030965Y015600D02*
X031985Y015600D01*
X031985Y015758D02*
X030965Y015758D01*
X030965Y015917D02*
X031985Y015917D01*
X031985Y016075D02*
X030965Y016075D01*
X030965Y016234D02*
X031985Y016234D01*
X031985Y016392D02*
X030965Y016392D01*
X030965Y016551D02*
X031985Y016551D01*
X031985Y016709D02*
X030965Y016709D01*
X030965Y016868D02*
X031985Y016868D01*
X031985Y017026D02*
X030965Y017026D01*
X030965Y017185D02*
X031985Y017185D01*
X031985Y017343D02*
X030965Y017343D01*
X030967Y017502D02*
X031985Y017502D01*
X031985Y017660D02*
X031160Y017660D01*
X031234Y017819D02*
X031985Y017819D01*
X031985Y017977D02*
X031255Y017977D01*
X031232Y018136D02*
X031985Y018136D01*
X031985Y018294D02*
X031156Y018294D01*
X030965Y018453D02*
X031985Y018453D01*
X031985Y018611D02*
X030965Y018611D01*
X031010Y018770D02*
X031985Y018770D01*
X031985Y018928D02*
X031176Y018928D01*
X031241Y019087D02*
X031985Y019087D01*
X031985Y019245D02*
X031255Y019245D01*
X031225Y019404D02*
X031985Y019404D01*
X031985Y019562D02*
X031138Y019562D01*
X030914Y019721D02*
X031985Y019721D01*
X031985Y019879D02*
X031129Y019879D01*
X031221Y020038D02*
X031985Y020038D01*
X031985Y020196D02*
X031255Y020196D01*
X031245Y020355D02*
X031985Y020355D01*
X031985Y020513D02*
X031179Y020513D01*
X031028Y020672D02*
X031985Y020672D01*
X031985Y020830D02*
X031080Y020830D01*
X030725Y021225D02*
X031975Y021225D01*
X032225Y020975D01*
X032225Y013975D01*
X032475Y013725D01*
X032975Y013725D01*
X033975Y013725D02*
X034475Y013725D01*
X034725Y013475D01*
X034725Y004225D01*
X034965Y004505D02*
X035025Y004505D01*
X035025Y004663D02*
X034965Y004663D01*
X034965Y004822D02*
X035025Y004822D01*
X035025Y004980D02*
X034965Y004980D01*
X034965Y005139D02*
X035025Y005139D01*
X035025Y005297D02*
X034965Y005297D01*
X034965Y005456D02*
X035025Y005456D01*
X035025Y005614D02*
X034965Y005614D01*
X034965Y005773D02*
X035025Y005773D01*
X035025Y005931D02*
X034965Y005931D01*
X034965Y006090D02*
X035025Y006090D01*
X035025Y006248D02*
X034965Y006248D01*
X034965Y006407D02*
X035025Y006407D01*
X035025Y006565D02*
X034965Y006565D01*
X034965Y006724D02*
X035025Y006724D01*
X035025Y006882D02*
X034965Y006882D01*
X034965Y007041D02*
X035025Y007041D01*
X035025Y007199D02*
X034965Y007199D01*
X034965Y007358D02*
X035025Y007358D01*
X035025Y007516D02*
X034965Y007516D01*
X034965Y007675D02*
X035025Y007675D01*
X035025Y007833D02*
X034965Y007833D01*
X034965Y007992D02*
X035025Y007992D01*
X035025Y008150D02*
X034965Y008150D01*
X034965Y008309D02*
X035025Y008309D01*
X035025Y008467D02*
X034965Y008467D01*
X034965Y008626D02*
X035025Y008626D01*
X035025Y008784D02*
X034965Y008784D01*
X034965Y008943D02*
X035025Y008943D01*
X035025Y009101D02*
X034965Y009101D01*
X034965Y009260D02*
X035025Y009260D01*
X035025Y009418D02*
X034965Y009418D01*
X034965Y009577D02*
X035025Y009577D01*
X035025Y009735D02*
X034965Y009735D01*
X034965Y009894D02*
X035025Y009894D01*
X035025Y010052D02*
X034965Y010052D01*
X034965Y010211D02*
X035025Y010211D01*
X035025Y010369D02*
X034965Y010369D01*
X034965Y010528D02*
X035025Y010528D01*
X035025Y010686D02*
X034965Y010686D01*
X034965Y010845D02*
X035025Y010845D01*
X035025Y011003D02*
X034965Y011003D01*
X034965Y011162D02*
X035025Y011162D01*
X035025Y011320D02*
X034965Y011320D01*
X034965Y011479D02*
X035025Y011479D01*
X035025Y011637D02*
X034965Y011637D01*
X034965Y011796D02*
X035025Y011796D01*
X035025Y011954D02*
X034965Y011954D01*
X034965Y012113D02*
X035025Y012113D01*
X035025Y012271D02*
X034965Y012271D01*
X034965Y012430D02*
X035025Y012430D01*
X035025Y012588D02*
X034965Y012588D01*
X034965Y012747D02*
X035025Y012747D01*
X035025Y012905D02*
X034965Y012905D01*
X034965Y013064D02*
X035025Y013064D01*
X035025Y013222D02*
X034965Y013222D01*
X034965Y013381D02*
X035025Y013381D01*
X035025Y013539D02*
X034958Y013539D01*
X035025Y013698D02*
X034842Y013698D01*
X034683Y013856D02*
X035025Y013856D01*
X035025Y014015D02*
X034429Y014015D01*
X034277Y014173D02*
X035025Y014173D01*
X035025Y014332D02*
X034331Y014332D01*
X034451Y014490D02*
X035025Y014490D01*
X035025Y014649D02*
X034505Y014649D01*
X034505Y014807D02*
X035025Y014807D01*
X035025Y014966D02*
X034449Y014966D01*
X034326Y015124D02*
X035025Y015124D01*
X035025Y015283D02*
X034302Y015283D01*
X034448Y015441D02*
X035025Y015441D01*
X035025Y015600D02*
X034512Y015600D01*
X034525Y015758D02*
X035025Y015758D01*
X035025Y015917D02*
X034491Y015917D01*
X034401Y016075D02*
X035025Y016075D01*
X035025Y016234D02*
X034188Y016234D01*
X033995Y016234D02*
X033955Y016234D01*
X033955Y016075D02*
X033995Y016075D01*
X033995Y015917D02*
X033955Y015917D01*
X033955Y015758D02*
X033995Y015758D01*
X033549Y016075D02*
X033375Y016075D01*
X033215Y016234D02*
X033762Y016234D01*
X033215Y016392D02*
X035025Y016392D01*
X035025Y016551D02*
X033215Y016551D01*
X033215Y016709D02*
X035025Y016709D01*
X035025Y016868D02*
X033215Y016868D01*
X033215Y017026D02*
X035025Y017026D01*
X035025Y017185D02*
X033215Y017185D01*
X033215Y017343D02*
X035025Y017343D01*
X035025Y017502D02*
X033215Y017502D01*
X033215Y017660D02*
X035025Y017660D01*
X035025Y017819D02*
X033215Y017819D01*
X033215Y017977D02*
X035025Y017977D01*
X035025Y018136D02*
X033215Y018136D01*
X033215Y018294D02*
X035025Y018294D01*
X035025Y018453D02*
X033215Y018453D01*
X033215Y018611D02*
X035025Y018611D01*
X035025Y018770D02*
X033215Y018770D01*
X033215Y018928D02*
X035025Y018928D01*
X035025Y019087D02*
X033215Y019087D01*
X033215Y019245D02*
X035025Y019245D01*
X035025Y019404D02*
X033215Y019404D01*
X033215Y019562D02*
X035025Y019562D01*
X035025Y019721D02*
X033215Y019721D01*
X033215Y019879D02*
X035025Y019879D01*
X035025Y020038D02*
X033215Y020038D01*
X033215Y020196D02*
X035025Y020196D01*
X035025Y020355D02*
X033215Y020355D01*
X033215Y020513D02*
X035025Y020513D01*
X035025Y020672D02*
X033215Y020672D01*
X033215Y020830D02*
X035025Y020830D01*
X035025Y020989D02*
X033215Y020989D01*
X033215Y021147D02*
X035025Y021147D01*
X035025Y021306D02*
X033215Y021306D01*
X033215Y021464D02*
X035025Y021464D01*
X035025Y021623D02*
X033215Y021623D01*
X033215Y021781D02*
X035025Y021781D01*
X035025Y021940D02*
X033215Y021940D01*
X033215Y022098D02*
X035025Y022098D01*
X035025Y022257D02*
X033215Y022257D01*
X033215Y022415D02*
X035025Y022415D01*
X035025Y022574D02*
X033215Y022574D01*
X033215Y022732D02*
X035025Y022732D01*
X035025Y022891D02*
X033215Y022891D01*
X033215Y023049D02*
X035025Y023049D01*
X035025Y023208D02*
X033215Y023208D01*
X033215Y023366D02*
X035025Y023366D01*
X035025Y023525D02*
X033215Y023525D01*
X033215Y023683D02*
X035025Y023683D01*
X035025Y023842D02*
X033215Y023842D01*
X033215Y024000D02*
X035025Y024000D01*
X035025Y024159D02*
X033215Y024159D01*
X033215Y024317D02*
X035025Y024317D01*
X035025Y024476D02*
X033215Y024476D01*
X033215Y024634D02*
X035025Y024634D01*
X035025Y024793D02*
X033215Y024793D01*
X033215Y024951D02*
X035025Y024951D01*
X035025Y025110D02*
X033215Y025110D01*
X033215Y025268D02*
X035025Y025268D01*
X035025Y025427D02*
X033215Y025427D01*
X033189Y025585D02*
X035025Y025585D01*
X035025Y025744D02*
X033046Y025744D01*
X032887Y025902D02*
X035025Y025902D01*
X035025Y026061D02*
X032729Y026061D01*
X032475Y025975D02*
X032975Y025475D01*
X032975Y015725D01*
X032481Y015917D02*
X032465Y015917D01*
X032465Y016075D02*
X032575Y016075D01*
X032465Y016234D02*
X032735Y016234D01*
X032735Y016392D02*
X032465Y016392D01*
X032465Y016551D02*
X032735Y016551D01*
X032735Y016709D02*
X032465Y016709D01*
X032465Y016868D02*
X032735Y016868D01*
X032735Y017026D02*
X032465Y017026D01*
X032465Y017185D02*
X032735Y017185D01*
X032735Y017343D02*
X032465Y017343D01*
X032465Y017502D02*
X032735Y017502D01*
X032735Y017660D02*
X032465Y017660D01*
X032465Y017819D02*
X032735Y017819D01*
X032735Y017977D02*
X032465Y017977D01*
X032465Y018136D02*
X032735Y018136D01*
X032735Y018294D02*
X032465Y018294D01*
X032465Y018453D02*
X032735Y018453D01*
X032735Y018611D02*
X032465Y018611D01*
X032465Y018770D02*
X032735Y018770D01*
X032735Y018928D02*
X032465Y018928D01*
X032465Y019087D02*
X032735Y019087D01*
X032735Y019245D02*
X032465Y019245D01*
X032465Y019404D02*
X032735Y019404D01*
X032735Y019562D02*
X032465Y019562D01*
X032465Y019721D02*
X032735Y019721D01*
X032735Y019879D02*
X032465Y019879D01*
X032465Y020038D02*
X032735Y020038D01*
X032735Y020196D02*
X032465Y020196D01*
X032465Y020355D02*
X032735Y020355D01*
X032735Y020513D02*
X032465Y020513D01*
X032465Y020672D02*
X032735Y020672D01*
X032735Y020830D02*
X032465Y020830D01*
X032465Y020989D02*
X032735Y020989D01*
X032735Y021147D02*
X032392Y021147D01*
X032234Y021306D02*
X032735Y021306D01*
X032735Y021464D02*
X032025Y021464D01*
X032735Y021623D02*
X031077Y021623D01*
X030373Y021623D02*
X026238Y021623D01*
X026255Y021580D02*
X026174Y021775D01*
X026025Y021924D01*
X025903Y021975D01*
X026025Y022026D01*
X026174Y022175D01*
X026255Y022370D01*
X026255Y022580D01*
X026174Y022775D01*
X026025Y022924D01*
X025830Y023005D01*
X025620Y023005D01*
X025425Y022924D01*
X025276Y022775D01*
X025251Y022715D01*
X025177Y022715D01*
X025089Y022678D01*
X025022Y022611D01*
X024772Y022361D01*
X024735Y022273D01*
X024735Y018927D01*
X024772Y018839D01*
X024839Y018772D01*
X025089Y018522D01*
X025177Y018485D01*
X025251Y018485D01*
X025276Y018425D01*
X025425Y018276D01*
X025547Y018225D01*
X025425Y018174D01*
X025276Y018025D01*
X025195Y017830D01*
X025195Y017620D01*
X025276Y017425D01*
X025425Y017276D01*
X025547Y017225D01*
X025425Y017174D01*
X025276Y017025D01*
X025195Y016830D01*
X025195Y016620D01*
X025276Y016425D01*
X025425Y016276D01*
X025485Y016251D01*
X025485Y012699D01*
X025425Y012674D01*
X025276Y012525D01*
X025195Y012330D01*
X025195Y012120D01*
X025276Y011925D01*
X025425Y011776D01*
X025547Y011725D01*
X025425Y011674D01*
X025276Y011525D01*
X025195Y011330D01*
X025195Y011120D01*
X025276Y010925D01*
X025425Y010776D01*
X025547Y010725D01*
X025425Y010674D01*
X025276Y010525D01*
X025195Y010330D01*
X025195Y010120D01*
X025276Y009925D01*
X025425Y009776D01*
X025620Y009695D01*
X025830Y009695D01*
X026025Y009776D01*
X026174Y009925D01*
X026178Y009933D01*
X026235Y009876D01*
X026235Y008685D01*
X026235Y008686D01*
X026195Y008763D01*
X026145Y008833D01*
X026083Y008895D01*
X026013Y008945D01*
X025936Y008985D01*
X025854Y009011D01*
X025768Y009025D01*
X025734Y009025D01*
X025734Y008484D01*
X025716Y008484D01*
X025716Y009025D01*
X025682Y009025D01*
X025596Y009011D01*
X025514Y008985D01*
X025437Y008945D01*
X025367Y008895D01*
X025305Y008833D01*
X025255Y008763D01*
X025215Y008686D01*
X025189Y008604D01*
X025175Y008518D01*
X025175Y008484D01*
X025716Y008484D01*
X025716Y008466D01*
X025175Y008466D01*
X025175Y008432D01*
X025189Y008346D01*
X025215Y008264D01*
X025255Y008187D01*
X025305Y008117D01*
X025367Y008055D01*
X025437Y008005D01*
X025514Y007965D01*
X025596Y007939D01*
X025682Y007925D01*
X025716Y007925D01*
X025716Y008466D01*
X025734Y008466D01*
X025734Y007925D01*
X025768Y007925D01*
X025854Y007939D01*
X025936Y007965D01*
X026013Y008005D01*
X026083Y008055D01*
X026145Y008117D01*
X026195Y008187D01*
X026235Y008264D01*
X026235Y008265D01*
X026235Y004824D01*
X026178Y004767D01*
X026174Y004775D01*
X026025Y004924D01*
X025830Y005005D01*
X025620Y005005D01*
X025425Y004924D01*
X025276Y004775D01*
X025195Y004580D01*
X025195Y004370D01*
X025276Y004175D01*
X025425Y004026D01*
X025620Y003945D01*
X025830Y003945D01*
X026025Y004026D01*
X026174Y004175D01*
X026199Y004235D01*
X026273Y004235D01*
X026361Y004272D01*
X026678Y004589D01*
X026715Y004677D01*
X026715Y010023D01*
X026678Y010111D01*
X026428Y010361D01*
X026361Y010428D01*
X026273Y010465D01*
X026199Y010465D01*
X026174Y010525D01*
X026025Y010674D01*
X025903Y010725D01*
X026025Y010776D01*
X026174Y010925D01*
X026255Y011120D01*
X026255Y011330D01*
X026174Y011525D01*
X026025Y011674D01*
X025903Y011725D01*
X026025Y011776D01*
X026174Y011925D01*
X026255Y012120D01*
X026255Y012330D01*
X026174Y012525D01*
X026025Y012674D01*
X025965Y012699D01*
X025965Y016251D01*
X026025Y016276D01*
X026174Y016425D01*
X026255Y016620D01*
X026255Y016830D01*
X026174Y017025D01*
X026025Y017174D01*
X025903Y017225D01*
X026025Y017276D01*
X026174Y017425D01*
X026255Y017620D01*
X026255Y017830D01*
X026174Y018025D01*
X026025Y018174D01*
X025903Y018225D01*
X026025Y018276D01*
X026174Y018425D01*
X026255Y018620D01*
X026255Y018830D01*
X026174Y019025D01*
X026025Y019174D01*
X025830Y019255D01*
X025620Y019255D01*
X025425Y019174D01*
X025276Y019025D01*
X025272Y019017D01*
X025215Y019074D01*
X025215Y020321D01*
X025276Y020175D01*
X025425Y020026D01*
X025620Y019945D01*
X025830Y019945D01*
X026025Y020026D01*
X026174Y020175D01*
X026255Y020370D01*
X026255Y020580D01*
X026174Y020775D01*
X026025Y020924D01*
X025903Y020975D01*
X026025Y021026D01*
X026174Y021175D01*
X026255Y021370D01*
X026255Y021580D01*
X026255Y021464D02*
X030250Y021464D01*
X030195Y021306D02*
X026228Y021306D01*
X026147Y021147D02*
X030195Y021147D01*
X030249Y020989D02*
X025936Y020989D01*
X026119Y020830D02*
X030370Y020830D01*
X030422Y020672D02*
X026217Y020672D01*
X026255Y020513D02*
X030271Y020513D01*
X030725Y020225D02*
X028725Y020225D01*
X028225Y019725D01*
X028225Y015225D01*
X028600Y015600D02*
X030485Y015600D01*
X030485Y015758D02*
X028465Y015758D01*
X028465Y015917D02*
X030485Y015917D01*
X030485Y016075D02*
X028465Y016075D01*
X028465Y016234D02*
X030485Y016234D01*
X030485Y016392D02*
X028465Y016392D01*
X028465Y016551D02*
X030485Y016551D01*
X030485Y016709D02*
X028465Y016709D01*
X028465Y016868D02*
X030485Y016868D01*
X030485Y017026D02*
X028465Y017026D01*
X028465Y017185D02*
X030485Y017185D01*
X030485Y017343D02*
X028465Y017343D01*
X028465Y017502D02*
X030483Y017502D01*
X030290Y017660D02*
X028465Y017660D01*
X028465Y017819D02*
X030216Y017819D01*
X030195Y017977D02*
X028465Y017977D01*
X028465Y018136D02*
X030218Y018136D01*
X030294Y018294D02*
X028465Y018294D01*
X028465Y018453D02*
X030485Y018453D01*
X030485Y018611D02*
X028465Y018611D01*
X028465Y018770D02*
X030440Y018770D01*
X030274Y018928D02*
X028465Y018928D01*
X028465Y019087D02*
X030209Y019087D01*
X030195Y019245D02*
X028465Y019245D01*
X028465Y019404D02*
X030225Y019404D01*
X030312Y019562D02*
X028465Y019562D01*
X028560Y019721D02*
X030536Y019721D01*
X030321Y019879D02*
X028718Y019879D01*
X028357Y020196D02*
X026183Y020196D01*
X026249Y020355D02*
X028515Y020355D01*
X028198Y020038D02*
X026037Y020038D01*
X025413Y020038D02*
X025215Y020038D01*
X025215Y020196D02*
X025267Y020196D01*
X025215Y019879D02*
X028040Y019879D01*
X027985Y019721D02*
X025215Y019721D01*
X025215Y019562D02*
X027985Y019562D01*
X027985Y019404D02*
X025215Y019404D01*
X025215Y019245D02*
X025596Y019245D01*
X025854Y019245D02*
X027985Y019245D01*
X027985Y019087D02*
X026113Y019087D01*
X026215Y018928D02*
X027985Y018928D01*
X027985Y018770D02*
X026255Y018770D01*
X026251Y018611D02*
X027985Y018611D01*
X027985Y018453D02*
X026186Y018453D01*
X026044Y018294D02*
X027985Y018294D01*
X027985Y018136D02*
X026064Y018136D01*
X026194Y017977D02*
X027985Y017977D01*
X027985Y017819D02*
X026255Y017819D01*
X026255Y017660D02*
X027985Y017660D01*
X027985Y017502D02*
X026206Y017502D01*
X026093Y017343D02*
X027985Y017343D01*
X027985Y017185D02*
X026001Y017185D01*
X026174Y017026D02*
X027985Y017026D01*
X027985Y016868D02*
X026240Y016868D01*
X026255Y016709D02*
X027985Y016709D01*
X027985Y016551D02*
X026226Y016551D01*
X026142Y016392D02*
X027985Y016392D01*
X027985Y016234D02*
X025965Y016234D01*
X025965Y016075D02*
X027985Y016075D01*
X027985Y015917D02*
X025965Y015917D01*
X025965Y015758D02*
X027985Y015758D01*
X027850Y015600D02*
X025965Y015600D01*
X025965Y015441D02*
X027741Y015441D01*
X027695Y015283D02*
X025965Y015283D01*
X025965Y015124D02*
X027695Y015124D01*
X027759Y014966D02*
X025965Y014966D01*
X025965Y014807D02*
X027893Y014807D01*
X027899Y014649D02*
X025965Y014649D01*
X025965Y014490D02*
X027761Y014490D01*
X027695Y014332D02*
X025965Y014332D01*
X025965Y014173D02*
X027695Y014173D01*
X027739Y014015D02*
X025965Y014015D01*
X025965Y013856D02*
X027844Y013856D01*
X027981Y013698D02*
X025965Y013698D01*
X025965Y013539D02*
X027789Y013539D01*
X027716Y013381D02*
X025965Y013381D01*
X025965Y013222D02*
X027695Y013222D01*
X027718Y013064D02*
X025965Y013064D01*
X025965Y012905D02*
X027795Y012905D01*
X027995Y012747D02*
X025965Y012747D01*
X026112Y012588D02*
X030208Y012588D01*
X030195Y012747D02*
X028455Y012747D01*
X028655Y012905D02*
X030226Y012905D01*
X030314Y013064D02*
X028732Y013064D01*
X028755Y013222D02*
X030485Y013222D01*
X030485Y013381D02*
X028734Y013381D01*
X028661Y013539D02*
X030411Y013539D01*
X030266Y013698D02*
X028469Y013698D01*
X028606Y013856D02*
X030201Y013856D01*
X030725Y013975D02*
X030725Y012725D01*
X030436Y012271D02*
X026255Y012271D01*
X026252Y012113D02*
X033735Y012113D01*
X033735Y011954D02*
X030005Y011954D01*
X030030Y011929D02*
X029929Y012030D01*
X029797Y012085D01*
X029653Y012085D01*
X029521Y012030D01*
X029420Y011929D01*
X029365Y011797D01*
X029365Y011653D01*
X029420Y011521D01*
X029485Y011456D01*
X029485Y006677D01*
X029522Y006589D01*
X029589Y006522D01*
X029839Y006272D01*
X029927Y006235D01*
X030251Y006235D01*
X030276Y006175D01*
X030425Y006026D01*
X030547Y005975D01*
X030425Y005924D01*
X030276Y005775D01*
X030195Y005580D01*
X030195Y005370D01*
X030276Y005175D01*
X030425Y005026D01*
X030620Y004945D01*
X030830Y004945D01*
X031025Y005026D01*
X031174Y005175D01*
X031199Y005235D01*
X031273Y005235D01*
X031361Y005272D01*
X031611Y005522D01*
X031678Y005589D01*
X031715Y005677D01*
X031715Y008523D01*
X031678Y008611D01*
X031428Y008861D01*
X031361Y008928D01*
X031273Y008965D01*
X031199Y008965D01*
X031174Y009025D01*
X031025Y009174D01*
X030830Y009255D01*
X030620Y009255D01*
X030425Y009174D01*
X030276Y009025D01*
X030195Y008830D01*
X030195Y008620D01*
X030276Y008425D01*
X030425Y008276D01*
X030620Y008195D01*
X030830Y008195D01*
X031025Y008276D01*
X031174Y008425D01*
X031178Y008433D01*
X031235Y008376D01*
X031235Y007685D01*
X031235Y007686D01*
X031195Y007763D01*
X031145Y007833D01*
X031235Y007833D01*
X031145Y007833D02*
X031083Y007895D01*
X031013Y007945D01*
X030936Y007985D01*
X030854Y008011D01*
X030768Y008025D01*
X030725Y008025D01*
X030725Y007475D01*
X030725Y007475D01*
X030725Y007475D01*
X030175Y007475D01*
X030175Y007518D01*
X030189Y007604D01*
X030215Y007686D01*
X030255Y007763D01*
X030305Y007833D01*
X029965Y007833D01*
X029965Y007675D02*
X030212Y007675D01*
X030175Y007516D02*
X029965Y007516D01*
X029965Y007358D02*
X030187Y007358D01*
X030189Y007346D02*
X030215Y007264D01*
X030255Y007187D01*
X030305Y007117D01*
X030367Y007055D01*
X030437Y007005D01*
X030514Y006965D01*
X030519Y006964D01*
X030425Y006924D01*
X030276Y006775D01*
X030251Y006715D01*
X030074Y006715D01*
X029965Y006824D01*
X029965Y011456D01*
X030030Y011521D01*
X030085Y011653D01*
X030085Y011797D01*
X030030Y011929D01*
X030085Y011796D02*
X033735Y011796D01*
X033735Y011637D02*
X030078Y011637D01*
X029988Y011479D02*
X033735Y011479D01*
X033735Y011320D02*
X033583Y011320D01*
X033367Y011320D02*
X029965Y011320D01*
X029965Y011162D02*
X033163Y011162D01*
X033115Y011003D02*
X029965Y011003D01*
X029965Y010845D02*
X033139Y010845D01*
X033235Y010686D02*
X029965Y010686D01*
X029965Y010528D02*
X033235Y010528D01*
X033235Y010369D02*
X029965Y010369D01*
X029965Y010211D02*
X033235Y010211D01*
X033235Y010052D02*
X029965Y010052D01*
X029965Y009894D02*
X033235Y009894D01*
X033235Y009735D02*
X029965Y009735D01*
X029965Y009577D02*
X033235Y009577D01*
X033235Y009418D02*
X029965Y009418D01*
X029965Y009260D02*
X033235Y009260D01*
X033235Y009101D02*
X031099Y009101D01*
X031327Y008943D02*
X033235Y008943D01*
X033235Y008784D02*
X031505Y008784D01*
X031664Y008626D02*
X033235Y008626D01*
X033235Y008467D02*
X031715Y008467D01*
X031715Y008309D02*
X033235Y008309D01*
X033235Y008150D02*
X031715Y008150D01*
X031715Y007992D02*
X033235Y007992D01*
X033235Y007833D02*
X031715Y007833D01*
X031715Y007675D02*
X033235Y007675D01*
X033235Y007516D02*
X031715Y007516D01*
X031715Y007358D02*
X033235Y007358D01*
X033235Y007199D02*
X031715Y007199D01*
X031715Y007041D02*
X033235Y007041D01*
X033235Y006882D02*
X031715Y006882D01*
X031715Y006724D02*
X033235Y006724D01*
X033235Y006565D02*
X031715Y006565D01*
X031715Y006407D02*
X033235Y006407D01*
X033235Y006248D02*
X031715Y006248D01*
X031715Y006090D02*
X033235Y006090D01*
X033235Y005931D02*
X031715Y005931D01*
X031715Y005773D02*
X033235Y005773D01*
X033235Y005614D02*
X031689Y005614D01*
X031545Y005456D02*
X033235Y005456D01*
X033235Y005297D02*
X031386Y005297D01*
X031225Y005475D02*
X031475Y005725D01*
X031475Y008475D01*
X031225Y008725D01*
X030725Y008725D01*
X030351Y009101D02*
X029965Y009101D01*
X029965Y008943D02*
X030241Y008943D01*
X030195Y008784D02*
X029965Y008784D01*
X029965Y008626D02*
X030195Y008626D01*
X030258Y008467D02*
X029965Y008467D01*
X029965Y008309D02*
X030392Y008309D01*
X030514Y007985D02*
X030437Y007945D01*
X030367Y007895D01*
X030305Y007833D01*
X030514Y007985D02*
X030596Y008011D01*
X030682Y008025D01*
X030725Y008025D01*
X030725Y007475D01*
X030175Y007475D01*
X030175Y007432D01*
X030189Y007346D01*
X030248Y007199D02*
X029965Y007199D01*
X029965Y007041D02*
X030387Y007041D01*
X030382Y006882D02*
X029965Y006882D01*
X030066Y006724D02*
X030254Y006724D01*
X029975Y006475D02*
X029725Y006725D01*
X029725Y011725D01*
X029462Y011479D02*
X026194Y011479D01*
X026255Y011320D02*
X029485Y011320D01*
X029485Y011162D02*
X026255Y011162D01*
X026207Y011003D02*
X029485Y011003D01*
X029485Y010845D02*
X026094Y010845D01*
X025997Y010686D02*
X029485Y010686D01*
X029485Y010528D02*
X026172Y010528D01*
X026420Y010369D02*
X029485Y010369D01*
X029485Y010211D02*
X026579Y010211D01*
X026703Y010052D02*
X029485Y010052D01*
X029485Y009894D02*
X026715Y009894D01*
X026715Y009735D02*
X029485Y009735D01*
X029485Y009577D02*
X026715Y009577D01*
X026715Y009418D02*
X029485Y009418D01*
X029485Y009260D02*
X026715Y009260D01*
X026715Y009101D02*
X029485Y009101D01*
X029485Y008943D02*
X026715Y008943D01*
X026715Y008784D02*
X029485Y008784D01*
X029485Y008626D02*
X026715Y008626D01*
X026715Y008467D02*
X029485Y008467D01*
X029485Y008309D02*
X026715Y008309D01*
X026715Y008150D02*
X029485Y008150D01*
X029485Y007992D02*
X026715Y007992D01*
X026715Y007833D02*
X029485Y007833D01*
X029485Y007675D02*
X026715Y007675D01*
X026715Y007516D02*
X029485Y007516D01*
X029485Y007358D02*
X026715Y007358D01*
X026715Y007199D02*
X029485Y007199D01*
X029485Y007041D02*
X026715Y007041D01*
X026715Y006882D02*
X029485Y006882D01*
X029485Y006724D02*
X026715Y006724D01*
X026715Y006565D02*
X029546Y006565D01*
X029704Y006407D02*
X026715Y006407D01*
X026715Y006248D02*
X029896Y006248D01*
X029975Y006475D02*
X030725Y006475D01*
X030361Y006090D02*
X026715Y006090D01*
X026715Y005931D02*
X030441Y005931D01*
X030275Y005773D02*
X026715Y005773D01*
X026715Y005614D02*
X030209Y005614D01*
X030195Y005456D02*
X026715Y005456D01*
X026715Y005297D02*
X030225Y005297D01*
X030312Y005139D02*
X026715Y005139D01*
X026715Y004980D02*
X030535Y004980D01*
X030915Y004980D02*
X033235Y004980D01*
X033235Y004822D02*
X026715Y004822D01*
X026709Y004663D02*
X033235Y004663D01*
X033235Y004505D02*
X026594Y004505D01*
X026435Y004346D02*
X033235Y004346D01*
X033235Y004188D02*
X026180Y004188D01*
X026029Y004029D02*
X033235Y004029D01*
X033235Y003871D02*
X013215Y003871D01*
X013215Y004029D02*
X014906Y004029D01*
X014932Y004025D02*
X014846Y004039D01*
X014764Y004065D01*
X014687Y004105D01*
X014617Y004155D01*
X014555Y004217D01*
X014505Y004287D01*
X014465Y004364D01*
X014439Y004446D01*
X014425Y004532D01*
X014425Y004566D01*
X014966Y004566D01*
X014966Y004584D01*
X014966Y005125D01*
X014932Y005125D01*
X014846Y005111D01*
X014764Y005085D01*
X014687Y005045D01*
X014617Y004995D01*
X014555Y004933D01*
X014505Y004863D01*
X014465Y004786D01*
X014439Y004704D01*
X014425Y004618D01*
X014425Y004584D01*
X014966Y004584D01*
X014984Y004584D01*
X014984Y005125D01*
X015018Y005125D01*
X015104Y005111D01*
X015186Y005085D01*
X015263Y005045D01*
X015333Y004995D01*
X015395Y004933D01*
X015445Y004863D01*
X015485Y004786D01*
X015511Y004704D01*
X015525Y004618D01*
X015525Y004584D01*
X014984Y004584D01*
X014984Y004566D01*
X015525Y004566D01*
X015525Y004532D01*
X015511Y004446D01*
X015485Y004364D01*
X015445Y004287D01*
X015395Y004217D01*
X015333Y004155D01*
X015263Y004105D01*
X015186Y004065D01*
X015104Y004039D01*
X015018Y004025D01*
X014984Y004025D01*
X014984Y004566D01*
X014966Y004566D01*
X014966Y004025D01*
X014932Y004025D01*
X014966Y004029D02*
X014984Y004029D01*
X015044Y004029D02*
X022671Y004029D01*
X022675Y004026D02*
X022870Y003945D01*
X023080Y003945D01*
X023275Y004026D01*
X023424Y004175D01*
X023449Y004235D01*
X023523Y004235D01*
X023611Y004272D01*
X023928Y004589D01*
X023965Y004677D01*
X023965Y010023D01*
X023928Y010111D01*
X023611Y010428D01*
X023523Y010465D01*
X023449Y010465D01*
X023424Y010525D01*
X023275Y010674D01*
X023153Y010725D01*
X023275Y010776D01*
X023424Y010925D01*
X023505Y011120D01*
X023505Y011330D01*
X023424Y011525D01*
X023275Y011674D01*
X023153Y011725D01*
X023275Y011776D01*
X023424Y011925D01*
X023505Y012120D01*
X023505Y012330D01*
X023424Y012525D01*
X023275Y012674D01*
X023215Y012699D01*
X023215Y012751D01*
X023275Y012776D01*
X023424Y012925D01*
X023505Y013120D01*
X023505Y013330D01*
X023424Y013525D01*
X023275Y013674D01*
X023080Y013755D01*
X022870Y013755D01*
X022675Y013674D01*
X022526Y013525D01*
X022445Y013330D01*
X022445Y013120D01*
X022526Y012925D01*
X022675Y012776D01*
X022735Y012751D01*
X022735Y012699D01*
X022675Y012674D01*
X022526Y012525D01*
X022445Y012330D01*
X022445Y012120D01*
X022526Y011925D01*
X022675Y011776D01*
X022797Y011725D01*
X022675Y011674D01*
X022526Y011525D01*
X022445Y011330D01*
X022445Y011120D01*
X022526Y010925D01*
X022675Y010776D01*
X022797Y010725D01*
X022675Y010674D01*
X022526Y010525D01*
X022445Y010330D01*
X022445Y010120D01*
X022526Y009925D01*
X022675Y009776D01*
X022870Y009695D01*
X023080Y009695D01*
X023275Y009776D01*
X023424Y009925D01*
X023428Y009933D01*
X023485Y009876D01*
X023485Y008685D01*
X023485Y008686D01*
X023445Y008763D01*
X023395Y008833D01*
X023333Y008895D01*
X023263Y008945D01*
X023186Y008985D01*
X023104Y009011D01*
X023018Y009025D01*
X022984Y009025D01*
X022984Y008484D01*
X022966Y008484D01*
X022966Y009025D01*
X022932Y009025D01*
X022846Y009011D01*
X022764Y008985D01*
X022687Y008945D01*
X022617Y008895D01*
X022555Y008833D01*
X022505Y008763D01*
X022465Y008686D01*
X022439Y008604D01*
X022425Y008518D01*
X022425Y008484D01*
X022966Y008484D01*
X022966Y008466D01*
X022984Y008466D01*
X022984Y007925D01*
X023018Y007925D01*
X023104Y007939D01*
X023186Y007965D01*
X023263Y008005D01*
X023333Y008055D01*
X023395Y008117D01*
X023445Y008187D01*
X023485Y008264D01*
X023485Y008265D01*
X023485Y004824D01*
X023428Y004767D01*
X023424Y004775D01*
X023275Y004924D01*
X023080Y005005D01*
X022870Y005005D01*
X022675Y004924D01*
X022526Y004775D01*
X022445Y004580D01*
X022445Y004370D01*
X022526Y004175D01*
X022675Y004026D01*
X022520Y004188D02*
X015365Y004188D01*
X015476Y004346D02*
X022455Y004346D01*
X022445Y004505D02*
X015521Y004505D01*
X015518Y004663D02*
X022479Y004663D01*
X022572Y004822D02*
X021037Y004822D01*
X021013Y004805D02*
X021083Y004855D01*
X021145Y004917D01*
X021195Y004987D01*
X021235Y005064D01*
X021261Y005146D01*
X021275Y005232D01*
X021275Y005275D01*
X021275Y005318D01*
X021261Y005404D01*
X021235Y005486D01*
X021195Y005563D01*
X021145Y005633D01*
X021083Y005695D01*
X021013Y005745D01*
X020936Y005785D01*
X020931Y005786D01*
X021025Y005826D01*
X021174Y005975D01*
X021255Y006170D01*
X021255Y006380D01*
X021174Y006575D01*
X021025Y006724D01*
X020903Y006775D01*
X021025Y006826D01*
X021174Y006975D01*
X021255Y007170D01*
X021255Y007380D01*
X021205Y007502D01*
X021215Y007527D01*
X021215Y007538D01*
X021218Y007549D01*
X021215Y007586D01*
X021215Y011506D01*
X021280Y011571D01*
X021335Y011703D01*
X021335Y011847D01*
X021280Y011979D01*
X021215Y012044D01*
X021215Y017523D01*
X021193Y017575D01*
X021215Y017628D01*
X021215Y017822D01*
X021140Y018003D01*
X021003Y018140D01*
X020822Y018215D01*
X020628Y018215D01*
X020447Y018140D01*
X020310Y018003D01*
X020235Y017822D01*
X020235Y017628D01*
X020310Y017447D01*
X020447Y017310D01*
X020628Y017235D01*
X020735Y017235D01*
X020735Y014224D01*
X020679Y014280D01*
X020547Y014335D01*
X020454Y014335D01*
X020215Y014574D01*
X020215Y024876D01*
X020354Y025014D01*
X020369Y025001D01*
X020372Y024984D01*
X020429Y024947D01*
X020479Y024901D01*
X020496Y024902D01*
X020526Y024882D01*
X020532Y024866D01*
X020594Y024838D01*
X020650Y024801D01*
X020667Y024804D01*
X020700Y024789D01*
X020708Y024774D01*
X020773Y024755D01*
X020835Y024727D01*
X020851Y024733D01*
X020886Y024723D01*
X020896Y024710D01*
X020963Y024701D01*
X021028Y024682D01*
X021043Y024691D01*
X021079Y024686D01*
X021092Y024674D01*
X021159Y024676D01*
X021226Y024668D01*
X021240Y024678D01*
X021276Y024679D01*
X021290Y024669D01*
X021357Y024681D01*
X021424Y024683D01*
X021436Y024695D01*
X021471Y024702D01*
X021487Y024694D01*
X021551Y024716D01*
X021618Y024728D01*
X021627Y024742D01*
X021661Y024754D01*
X021678Y024749D01*
X021738Y024780D01*
X021802Y024802D01*
X021809Y024817D01*
X021841Y024834D01*
X021858Y024831D01*
X021913Y024871D01*
X021973Y024903D01*
X021978Y024919D01*
X022007Y024940D01*
X022024Y024940D01*
X022072Y024988D01*
X022127Y025028D01*
X022129Y025045D01*
X022155Y025071D01*
X022172Y025073D01*
X022212Y025128D01*
X022260Y025176D01*
X022260Y025193D01*
X022281Y025222D01*
X022297Y025227D01*
X022329Y025287D01*
X022369Y025342D01*
X022366Y025359D01*
X022383Y025391D01*
X022398Y025398D01*
X022420Y025462D01*
X022451Y025522D01*
X022446Y025539D01*
X022458Y025573D01*
X022472Y025582D01*
X022484Y025649D01*
X022506Y025713D01*
X022498Y025729D01*
X022505Y025764D01*
X022517Y025776D01*
X022519Y025843D01*
X022531Y025910D01*
X022521Y025924D01*
X022522Y025960D01*
X022532Y025974D01*
X022524Y026041D01*
X022526Y026108D01*
X022514Y026121D01*
X022509Y026157D01*
X022518Y026172D01*
X022499Y026237D01*
X022490Y026304D01*
X022477Y026314D01*
X022467Y026349D01*
X022473Y026365D01*
X022445Y026427D01*
X022426Y026492D01*
X022411Y026500D01*
X022396Y026533D01*
X022399Y026550D01*
X022362Y026606D01*
X022334Y026668D01*
X022318Y026674D01*
X022298Y026704D01*
X022299Y026721D01*
X022253Y026771D01*
X022216Y026828D01*
X022199Y026831D01*
X022175Y026858D01*
X022173Y026875D01*
X022121Y026918D01*
X022076Y026968D01*
X022058Y026969D01*
X022031Y026991D01*
X022026Y027008D01*
X021968Y027042D01*
X021916Y027085D01*
X021898Y027083D01*
X021867Y027102D01*
X021861Y027118D01*
X021798Y027143D01*
X021740Y027177D01*
X021723Y027173D01*
X021689Y027186D01*
X021680Y027201D01*
X021614Y027216D01*
X021552Y027241D01*
X021536Y027234D01*
X021501Y027242D01*
X021489Y027255D01*
X021422Y027261D01*
X021356Y027276D01*
X021341Y027267D01*
X021306Y027269D01*
X021293Y027280D01*
X021225Y027276D01*
X021158Y027281D01*
X021145Y027270D01*
X021121Y027268D01*
X021107Y027277D01*
X021040Y027262D01*
X020972Y027257D01*
X020961Y027245D01*
X020938Y027240D01*
X020923Y027247D01*
X020859Y027223D01*
X020792Y027208D01*
X020783Y027195D01*
X020761Y027186D01*
X020745Y027191D01*
X020685Y027158D01*
X020621Y027134D01*
X020614Y027119D01*
X020593Y027108D01*
X020577Y027110D01*
X020522Y027069D01*
X020462Y027036D01*
X020457Y027021D01*
X020438Y027006D01*
X020422Y027006D01*
X020373Y026958D01*
X020318Y026917D01*
X020316Y026901D01*
X020299Y026884D01*
X020283Y026882D01*
X020242Y026827D01*
X020194Y026778D01*
X020194Y026762D01*
X020179Y026743D01*
X020164Y026738D01*
X020131Y026678D01*
X020090Y026623D01*
X020092Y026607D01*
X020081Y026586D01*
X020066Y026579D01*
X020042Y026515D01*
X020009Y026455D01*
X020014Y026439D01*
X020005Y026417D01*
X019992Y026408D01*
X019977Y026341D01*
X019953Y026277D01*
X019960Y026262D01*
X019955Y026239D01*
X019943Y026228D01*
X019938Y026160D01*
X019923Y026093D01*
X019932Y026079D01*
X019930Y026055D01*
X019919Y026042D01*
X019924Y025975D01*
X019920Y025907D01*
X019931Y025894D01*
X019933Y025859D01*
X019924Y025844D01*
X019939Y025778D01*
X019945Y025711D01*
X019958Y025699D01*
X019966Y025664D01*
X019959Y025648D01*
X019984Y025586D01*
X019999Y025520D01*
X020014Y025511D01*
X020027Y025477D01*
X020023Y025460D01*
X020057Y025402D01*
X020059Y025398D01*
X019772Y025111D01*
X019735Y025023D01*
X019735Y014427D01*
X019772Y014339D01*
X019839Y014272D01*
X020115Y013996D01*
X020115Y013903D01*
X020170Y013771D01*
X020271Y013670D01*
X020403Y013615D01*
X020547Y013615D01*
X020679Y013670D01*
X020735Y013726D01*
X020735Y012044D01*
X020670Y011979D01*
X020615Y011847D01*
X020615Y011703D01*
X020670Y011571D01*
X020735Y011506D01*
X020735Y007805D01*
X020620Y007805D01*
X020425Y007724D01*
X020276Y007575D01*
X020195Y007380D01*
X020195Y007170D01*
X020276Y006975D01*
X020425Y006826D01*
X020547Y006775D01*
X020425Y006724D01*
X020276Y006575D01*
X020195Y006380D01*
X020195Y006170D01*
X020276Y005975D01*
X020425Y005826D01*
X020519Y005786D01*
X020514Y005785D01*
X020437Y005745D01*
X020367Y005695D01*
X020305Y005633D01*
X020255Y005563D01*
X020215Y005486D01*
X020189Y005404D01*
X020175Y005318D01*
X020175Y005275D01*
X020725Y005275D01*
X021275Y005275D01*
X020725Y005275D01*
X020725Y005275D01*
X020725Y005275D01*
X020725Y004725D01*
X020768Y004725D01*
X020854Y004739D01*
X020936Y004765D01*
X021013Y004805D01*
X021191Y004980D02*
X022809Y004980D01*
X023141Y004980D02*
X023485Y004980D01*
X023485Y005139D02*
X021259Y005139D01*
X021275Y005297D02*
X023485Y005297D01*
X023485Y005456D02*
X021245Y005456D01*
X021159Y005614D02*
X023485Y005614D01*
X023485Y005773D02*
X020960Y005773D01*
X021131Y005931D02*
X023485Y005931D01*
X023485Y006090D02*
X021222Y006090D01*
X021255Y006248D02*
X023485Y006248D01*
X023485Y006407D02*
X021244Y006407D01*
X021179Y006565D02*
X023485Y006565D01*
X023485Y006724D02*
X021026Y006724D01*
X021082Y006882D02*
X023485Y006882D01*
X023485Y007041D02*
X021202Y007041D01*
X021255Y007199D02*
X023485Y007199D01*
X023485Y007358D02*
X021255Y007358D01*
X021210Y007516D02*
X023485Y007516D01*
X023485Y007675D02*
X021215Y007675D01*
X021215Y007833D02*
X023485Y007833D01*
X023485Y007992D02*
X023238Y007992D01*
X023419Y008150D02*
X023485Y008150D01*
X023965Y008150D02*
X025281Y008150D01*
X025201Y008309D02*
X023965Y008309D01*
X023965Y008467D02*
X025716Y008467D01*
X025716Y008309D02*
X025734Y008309D01*
X025734Y008150D02*
X025716Y008150D01*
X025716Y007992D02*
X025734Y007992D01*
X025988Y007992D02*
X026235Y007992D01*
X026235Y008150D02*
X026169Y008150D01*
X026235Y007833D02*
X023965Y007833D01*
X023965Y007675D02*
X026235Y007675D01*
X026235Y007516D02*
X023965Y007516D01*
X023965Y007358D02*
X026235Y007358D01*
X026235Y007199D02*
X023965Y007199D01*
X023965Y007041D02*
X026235Y007041D01*
X026235Y006882D02*
X023965Y006882D01*
X023965Y006724D02*
X026235Y006724D01*
X026235Y006565D02*
X023965Y006565D01*
X023965Y006407D02*
X026235Y006407D01*
X026235Y006248D02*
X023965Y006248D01*
X023965Y006090D02*
X026235Y006090D01*
X026235Y005931D02*
X023965Y005931D01*
X023965Y005773D02*
X026235Y005773D01*
X026235Y005614D02*
X023965Y005614D01*
X023965Y005456D02*
X026235Y005456D01*
X026235Y005297D02*
X023965Y005297D01*
X023965Y005139D02*
X026235Y005139D01*
X026235Y004980D02*
X025891Y004980D01*
X026128Y004822D02*
X026232Y004822D01*
X026475Y004725D02*
X026225Y004475D01*
X025725Y004475D01*
X025229Y004663D02*
X023959Y004663D01*
X023965Y004822D02*
X025322Y004822D01*
X025559Y004980D02*
X023965Y004980D01*
X023725Y004725D02*
X023475Y004475D01*
X022975Y004475D01*
X023378Y004822D02*
X023482Y004822D01*
X023725Y004725D02*
X023725Y009975D01*
X023475Y010225D01*
X022975Y010225D01*
X022773Y009735D02*
X021215Y009735D01*
X021215Y009577D02*
X023485Y009577D01*
X023485Y009735D02*
X023177Y009735D01*
X023393Y009894D02*
X023467Y009894D01*
X023485Y009418D02*
X021215Y009418D01*
X021215Y009260D02*
X023485Y009260D01*
X023485Y009101D02*
X021215Y009101D01*
X021215Y008943D02*
X022683Y008943D01*
X022520Y008784D02*
X021215Y008784D01*
X021215Y008626D02*
X022446Y008626D01*
X022425Y008466D02*
X022425Y008432D01*
X022439Y008346D01*
X022465Y008264D01*
X022505Y008187D01*
X022555Y008117D01*
X022617Y008055D01*
X022687Y008005D01*
X022764Y007965D01*
X022846Y007939D01*
X022932Y007925D01*
X022966Y007925D01*
X022966Y008466D01*
X022425Y008466D01*
X022451Y008309D02*
X021215Y008309D01*
X021215Y008467D02*
X022966Y008467D01*
X022966Y008309D02*
X022984Y008309D01*
X022984Y008150D02*
X022966Y008150D01*
X022966Y007992D02*
X022984Y007992D01*
X022712Y007992D02*
X021215Y007992D01*
X021215Y008150D02*
X022531Y008150D01*
X022966Y008626D02*
X022984Y008626D01*
X022984Y008784D02*
X022966Y008784D01*
X022966Y008943D02*
X022984Y008943D01*
X023267Y008943D02*
X023485Y008943D01*
X023485Y008784D02*
X023430Y008784D01*
X023965Y008784D02*
X025270Y008784D01*
X025196Y008626D02*
X023965Y008626D01*
X023965Y008943D02*
X025433Y008943D01*
X025716Y008943D02*
X025734Y008943D01*
X025734Y008784D02*
X025716Y008784D01*
X025716Y008626D02*
X025734Y008626D01*
X026017Y008943D02*
X026235Y008943D01*
X026235Y009101D02*
X023965Y009101D01*
X023965Y009260D02*
X026235Y009260D01*
X026235Y009418D02*
X023965Y009418D01*
X023965Y009577D02*
X026235Y009577D01*
X026235Y009735D02*
X025927Y009735D01*
X026143Y009894D02*
X026217Y009894D01*
X026475Y009975D02*
X026225Y010225D01*
X025725Y010225D01*
X025523Y009735D02*
X023965Y009735D01*
X023965Y009894D02*
X025307Y009894D01*
X025223Y010052D02*
X023953Y010052D01*
X023829Y010211D02*
X025195Y010211D01*
X025211Y010369D02*
X023670Y010369D01*
X023422Y010528D02*
X025278Y010528D01*
X025453Y010686D02*
X023247Y010686D01*
X023344Y010845D02*
X025356Y010845D01*
X025243Y011003D02*
X023457Y011003D01*
X023505Y011162D02*
X025195Y011162D01*
X025195Y011320D02*
X023505Y011320D01*
X023444Y011479D02*
X025256Y011479D01*
X025387Y011637D02*
X023313Y011637D01*
X023295Y011796D02*
X025405Y011796D01*
X025264Y011954D02*
X023436Y011954D01*
X023502Y012113D02*
X025198Y012113D01*
X025195Y012271D02*
X023505Y012271D01*
X023464Y012430D02*
X025236Y012430D01*
X025338Y012588D02*
X023362Y012588D01*
X023215Y012747D02*
X025485Y012747D01*
X025485Y012905D02*
X023405Y012905D01*
X023482Y013064D02*
X025485Y013064D01*
X025485Y013222D02*
X023505Y013222D01*
X023484Y013381D02*
X025485Y013381D01*
X025485Y013539D02*
X023411Y013539D01*
X023219Y013698D02*
X025485Y013698D01*
X025485Y013856D02*
X021215Y013856D01*
X021215Y013698D02*
X022731Y013698D01*
X022539Y013539D02*
X021215Y013539D01*
X021215Y013381D02*
X022466Y013381D01*
X022445Y013222D02*
X021215Y013222D01*
X021215Y013064D02*
X022468Y013064D01*
X022545Y012905D02*
X021215Y012905D01*
X021215Y012747D02*
X022735Y012747D01*
X022588Y012588D02*
X021215Y012588D01*
X021215Y012430D02*
X022486Y012430D01*
X022445Y012271D02*
X021215Y012271D01*
X021215Y012113D02*
X022448Y012113D01*
X022514Y011954D02*
X021291Y011954D01*
X021335Y011796D02*
X022655Y011796D01*
X022637Y011637D02*
X021308Y011637D01*
X021215Y011479D02*
X022506Y011479D01*
X022445Y011320D02*
X021215Y011320D01*
X021215Y011162D02*
X022445Y011162D01*
X022493Y011003D02*
X021215Y011003D01*
X021215Y010845D02*
X022606Y010845D01*
X022703Y010686D02*
X021215Y010686D01*
X021215Y010528D02*
X022528Y010528D01*
X022461Y010369D02*
X021215Y010369D01*
X021215Y010211D02*
X022445Y010211D01*
X022473Y010052D02*
X021215Y010052D01*
X021215Y009894D02*
X022557Y009894D01*
X020735Y009894D02*
X018729Y009894D01*
X018755Y009735D02*
X020735Y009735D01*
X020735Y009577D02*
X018737Y009577D01*
X018668Y009418D02*
X020735Y009418D01*
X020735Y009260D02*
X018486Y009260D01*
X018627Y009101D02*
X020735Y009101D01*
X020735Y008943D02*
X018731Y008943D01*
X018773Y008784D02*
X020735Y008784D01*
X020735Y008626D02*
X018766Y008626D01*
X018761Y008596D02*
X018775Y008682D01*
X018775Y008725D01*
X018225Y008725D01*
X018225Y008725D01*
X018225Y008175D01*
X018268Y008175D01*
X018354Y008189D01*
X018436Y008215D01*
X018513Y008255D01*
X018583Y008305D01*
X018645Y008367D01*
X018695Y008437D01*
X018735Y008514D01*
X018761Y008596D01*
X018711Y008467D02*
X020735Y008467D01*
X020735Y008309D02*
X018586Y008309D01*
X018225Y008309D02*
X018225Y008309D01*
X018225Y008175D02*
X018225Y008725D01*
X018225Y008725D01*
X018225Y008725D01*
X017675Y008725D01*
X017675Y008682D01*
X017689Y008596D01*
X017715Y008514D01*
X017755Y008437D01*
X017805Y008367D01*
X017867Y008305D01*
X017937Y008255D01*
X018014Y008215D01*
X018096Y008189D01*
X018182Y008175D01*
X018225Y008175D01*
X018225Y008467D02*
X018225Y008467D01*
X018225Y008626D02*
X018225Y008626D01*
X017864Y008309D02*
X015438Y008309D01*
X015504Y008467D02*
X017739Y008467D01*
X017684Y008626D02*
X015505Y008626D01*
X015462Y008784D02*
X017677Y008784D01*
X017719Y008943D02*
X015357Y008943D01*
X015215Y009101D02*
X017823Y009101D01*
X017964Y009260D02*
X015215Y009260D01*
X015215Y009418D02*
X017782Y009418D01*
X017713Y009577D02*
X015215Y009577D01*
X015215Y009735D02*
X015706Y009735D01*
X015670Y009771D02*
X015771Y009670D01*
X015903Y009615D01*
X016047Y009615D01*
X016179Y009670D01*
X016280Y009771D01*
X016335Y009903D01*
X016335Y010047D01*
X016280Y010179D01*
X016215Y010244D01*
X016215Y015376D01*
X016454Y015615D01*
X016547Y015615D01*
X016679Y015670D01*
X016780Y015771D01*
X016835Y015903D01*
X016835Y016047D01*
X016780Y016179D01*
X016679Y016280D01*
X016547Y016335D01*
X016403Y016335D01*
X016271Y016280D01*
X016170Y016179D01*
X016115Y016047D01*
X016115Y015954D01*
X015772Y015611D01*
X015735Y015523D01*
X015735Y010244D01*
X015670Y010179D01*
X015615Y010047D01*
X015615Y009903D01*
X015670Y009771D01*
X015619Y009894D02*
X015215Y009894D01*
X015215Y010052D02*
X015617Y010052D01*
X015701Y010211D02*
X015215Y010211D01*
X015215Y010369D02*
X015735Y010369D01*
X015735Y010528D02*
X015215Y010528D01*
X015215Y010686D02*
X015735Y010686D01*
X015735Y010845D02*
X015215Y010845D01*
X015215Y011003D02*
X015735Y011003D01*
X015735Y011162D02*
X015215Y011162D01*
X015215Y011320D02*
X015735Y011320D01*
X015735Y011479D02*
X015215Y011479D01*
X015215Y011637D02*
X015735Y011637D01*
X015735Y011796D02*
X015215Y011796D01*
X015215Y011954D02*
X015735Y011954D01*
X015735Y012113D02*
X015215Y012113D01*
X015215Y012271D02*
X015735Y012271D01*
X015735Y012430D02*
X015215Y012430D01*
X015215Y012588D02*
X015735Y012588D01*
X015735Y012747D02*
X015215Y012747D01*
X015215Y012905D02*
X015735Y012905D01*
X015735Y013064D02*
X015215Y013064D01*
X015215Y013222D02*
X015735Y013222D01*
X015735Y013381D02*
X015215Y013381D01*
X015215Y013539D02*
X015735Y013539D01*
X015735Y013698D02*
X015215Y013698D01*
X015215Y013856D02*
X015735Y013856D01*
X015735Y014015D02*
X015215Y014015D01*
X015215Y014173D02*
X015735Y014173D01*
X015735Y014332D02*
X015215Y014332D01*
X015215Y014490D02*
X015735Y014490D01*
X015735Y014649D02*
X015215Y014649D01*
X015215Y014807D02*
X015735Y014807D01*
X015735Y014966D02*
X015215Y014966D01*
X015215Y015124D02*
X015735Y015124D01*
X015735Y015283D02*
X015215Y015283D01*
X015215Y015441D02*
X015735Y015441D01*
X015767Y015600D02*
X015349Y015600D01*
X015459Y015758D02*
X015919Y015758D01*
X016077Y015917D02*
X015505Y015917D01*
X015505Y016075D02*
X016127Y016075D01*
X016224Y016234D02*
X015442Y016234D01*
X015308Y016392D02*
X017985Y016392D01*
X017985Y016234D02*
X016726Y016234D01*
X016823Y016075D02*
X017985Y016075D01*
X017985Y015917D02*
X016835Y015917D01*
X016767Y015758D02*
X017985Y015758D01*
X017985Y015600D02*
X016439Y015600D01*
X016280Y015441D02*
X017965Y015441D01*
X017783Y015283D02*
X016215Y015283D01*
X016215Y015124D02*
X017713Y015124D01*
X017695Y014966D02*
X016215Y014966D01*
X016215Y014807D02*
X017721Y014807D01*
X017802Y014649D02*
X016215Y014649D01*
X016215Y014490D02*
X017985Y014490D01*
X017985Y014332D02*
X016215Y014332D01*
X016215Y014173D02*
X017985Y014173D01*
X017985Y014015D02*
X016215Y014015D01*
X016215Y013856D02*
X017985Y013856D01*
X017985Y013698D02*
X016215Y013698D01*
X016215Y013539D02*
X017985Y013539D01*
X017985Y013381D02*
X016215Y013381D01*
X016215Y013222D02*
X017985Y013222D01*
X017985Y013064D02*
X016215Y013064D01*
X016215Y012905D02*
X017985Y012905D01*
X017985Y012747D02*
X016215Y012747D01*
X016215Y012588D02*
X017985Y012588D01*
X017985Y012430D02*
X016215Y012430D01*
X016215Y012271D02*
X017985Y012271D01*
X017985Y012113D02*
X016215Y012113D01*
X016215Y011954D02*
X017985Y011954D01*
X017985Y011796D02*
X016215Y011796D01*
X016215Y011637D02*
X017985Y011637D01*
X017985Y011479D02*
X016215Y011479D01*
X016215Y011320D02*
X017985Y011320D01*
X017912Y011162D02*
X016215Y011162D01*
X016215Y011003D02*
X017766Y011003D01*
X017701Y010845D02*
X016215Y010845D01*
X016215Y010686D02*
X017695Y010686D01*
X017733Y010528D02*
X016215Y010528D01*
X016215Y010369D02*
X017831Y010369D01*
X017985Y010211D02*
X016249Y010211D01*
X016333Y010052D02*
X017802Y010052D01*
X017721Y009894D02*
X016331Y009894D01*
X016244Y009735D02*
X017695Y009735D01*
X018225Y009725D02*
X018225Y010725D01*
X018225Y014975D01*
X018225Y016725D01*
X017975Y016975D01*
X014975Y016975D01*
X015357Y017343D02*
X019735Y017343D01*
X019735Y017185D02*
X018096Y017185D01*
X018263Y017026D02*
X019735Y017026D01*
X019735Y016868D02*
X018422Y016868D01*
X018465Y016709D02*
X019735Y016709D01*
X019735Y016551D02*
X018465Y016551D01*
X018465Y016392D02*
X019735Y016392D01*
X019735Y016234D02*
X018465Y016234D01*
X018465Y016075D02*
X019735Y016075D01*
X019735Y015917D02*
X018465Y015917D01*
X018465Y015758D02*
X019735Y015758D01*
X019735Y015600D02*
X018465Y015600D01*
X018485Y015441D02*
X019735Y015441D01*
X019735Y015283D02*
X018667Y015283D01*
X018737Y015124D02*
X019735Y015124D01*
X019735Y014966D02*
X018755Y014966D01*
X018729Y014807D02*
X019735Y014807D01*
X019735Y014649D02*
X018648Y014649D01*
X018465Y014490D02*
X019735Y014490D01*
X019779Y014332D02*
X018465Y014332D01*
X018465Y014173D02*
X019938Y014173D01*
X020096Y014015D02*
X018465Y014015D01*
X018465Y013856D02*
X020135Y013856D01*
X020243Y013698D02*
X018465Y013698D01*
X018465Y013539D02*
X020735Y013539D01*
X020735Y013381D02*
X018465Y013381D01*
X018465Y013222D02*
X020735Y013222D01*
X020735Y013064D02*
X018465Y013064D01*
X018465Y012905D02*
X020735Y012905D01*
X020735Y012747D02*
X018465Y012747D01*
X018465Y012588D02*
X020735Y012588D01*
X020735Y012430D02*
X018465Y012430D01*
X018465Y012271D02*
X020735Y012271D01*
X020735Y012113D02*
X018465Y012113D01*
X018465Y011954D02*
X020659Y011954D01*
X020615Y011796D02*
X018465Y011796D01*
X018465Y011637D02*
X020642Y011637D01*
X020735Y011479D02*
X018465Y011479D01*
X018465Y011320D02*
X020735Y011320D01*
X020735Y011162D02*
X018538Y011162D01*
X018684Y011003D02*
X020735Y011003D01*
X020735Y010845D02*
X018749Y010845D01*
X018755Y010686D02*
X020735Y010686D01*
X020735Y010528D02*
X018717Y010528D01*
X018619Y010369D02*
X020735Y010369D01*
X020735Y010211D02*
X018465Y010211D01*
X018648Y010052D02*
X020735Y010052D01*
X020975Y011775D02*
X020975Y007575D01*
X020725Y007275D01*
X020368Y006882D02*
X013215Y006882D01*
X013215Y006724D02*
X020424Y006724D01*
X020271Y006565D02*
X013215Y006565D01*
X013215Y006407D02*
X020206Y006407D01*
X020195Y006248D02*
X013215Y006248D01*
X013215Y006090D02*
X020228Y006090D01*
X020319Y005931D02*
X013215Y005931D01*
X013215Y005773D02*
X020490Y005773D01*
X020291Y005614D02*
X013215Y005614D01*
X013215Y005456D02*
X020205Y005456D01*
X020175Y005297D02*
X013215Y005297D01*
X013215Y005139D02*
X020191Y005139D01*
X020189Y005146D02*
X020215Y005064D01*
X020255Y004987D01*
X020305Y004917D01*
X020367Y004855D01*
X020437Y004805D01*
X020514Y004765D01*
X020596Y004739D01*
X020682Y004725D01*
X020725Y004725D01*
X020725Y005275D01*
X020725Y005275D01*
X020175Y005275D01*
X020175Y005232D01*
X020189Y005146D01*
X020259Y004980D02*
X015348Y004980D01*
X015467Y004822D02*
X020413Y004822D01*
X020725Y004822D02*
X020725Y004822D01*
X020725Y004980D02*
X020725Y004980D01*
X020725Y005139D02*
X020725Y005139D01*
X020809Y003712D02*
X014631Y003712D01*
X014954Y003554D02*
X020493Y003554D01*
X020310Y003395D02*
X015149Y003395D01*
X015285Y003237D02*
X020163Y003237D01*
X020065Y003078D02*
X015381Y003078D01*
X015448Y002920D02*
X020006Y002920D01*
X019960Y002761D02*
X015496Y002761D01*
X015525Y002603D02*
X019925Y002603D01*
X019922Y002444D02*
X015521Y002444D01*
X015517Y002286D02*
X019938Y002286D01*
X019968Y002127D02*
X015480Y002127D01*
X015424Y001969D02*
X020025Y001969D01*
X020112Y001810D02*
X015346Y001810D01*
X015235Y001652D02*
X020223Y001652D01*
X020371Y001493D02*
X015079Y001493D01*
X014863Y001335D02*
X020599Y001335D01*
X020986Y001176D02*
X014328Y001176D01*
X014280Y001176D02*
X014237Y001176D01*
X014160Y001176D02*
X014156Y001176D01*
X014090Y001176D02*
X007465Y001176D01*
X007522Y001018D02*
X021093Y001018D01*
X021252Y000859D02*
X007680Y000859D01*
X007863Y001335D02*
X013599Y001335D01*
X013371Y001493D02*
X008079Y001493D01*
X008235Y001652D02*
X013223Y001652D01*
X013112Y001810D02*
X008346Y001810D01*
X008424Y001969D02*
X013025Y001969D01*
X012968Y002127D02*
X008480Y002127D01*
X008517Y002286D02*
X012938Y002286D01*
X012922Y002444D02*
X008521Y002444D01*
X008525Y002603D02*
X012925Y002603D01*
X012960Y002761D02*
X008496Y002761D01*
X008448Y002920D02*
X013006Y002920D01*
X013033Y003078D02*
X008381Y003078D01*
X008285Y003237D02*
X012874Y003237D01*
X012748Y003395D02*
X008149Y003395D01*
X007954Y003554D02*
X012735Y003554D01*
X012735Y003712D02*
X007631Y003712D01*
X007465Y003871D02*
X007852Y003871D01*
X007867Y003855D02*
X007937Y003805D01*
X008014Y003765D01*
X008096Y003739D01*
X008182Y003725D01*
X008216Y003725D01*
X008216Y004266D01*
X007675Y004266D01*
X007675Y004232D01*
X007689Y004146D01*
X007715Y004064D01*
X007755Y003987D01*
X007805Y003917D01*
X007867Y003855D01*
X007733Y004029D02*
X007465Y004029D01*
X007465Y004188D02*
X007682Y004188D01*
X007675Y004284D02*
X008216Y004284D01*
X008216Y004825D01*
X008182Y004825D01*
X008096Y004811D01*
X008014Y004785D01*
X007937Y004745D01*
X007867Y004695D01*
X007805Y004633D01*
X007755Y004563D01*
X007715Y004486D01*
X007689Y004404D01*
X007675Y004318D01*
X007675Y004284D01*
X007679Y004346D02*
X007465Y004346D01*
X007465Y004505D02*
X007725Y004505D01*
X007835Y004663D02*
X007465Y004663D01*
X007465Y004822D02*
X008160Y004822D01*
X008216Y004822D02*
X008234Y004822D01*
X008234Y004825D02*
X008234Y004284D01*
X008216Y004284D01*
X008216Y004266D01*
X008234Y004266D01*
X008234Y004284D01*
X008775Y004284D01*
X008775Y004318D01*
X008761Y004404D01*
X008735Y004486D01*
X008695Y004563D01*
X008645Y004633D01*
X008583Y004695D01*
X008513Y004745D01*
X008436Y004785D01*
X008354Y004811D01*
X008268Y004825D01*
X008234Y004825D01*
X008290Y004822D02*
X011160Y004822D01*
X011182Y004825D02*
X011096Y004811D01*
X011014Y004785D01*
X010937Y004745D01*
X010867Y004695D01*
X010805Y004633D01*
X010755Y004563D01*
X010715Y004486D01*
X010689Y004404D01*
X010675Y004318D01*
X010675Y004284D01*
X011216Y004284D01*
X011216Y004825D01*
X011182Y004825D01*
X011216Y004822D02*
X011234Y004822D01*
X011234Y004825D02*
X011234Y004284D01*
X011216Y004284D01*
X011216Y004266D01*
X010675Y004266D01*
X010675Y004232D01*
X010689Y004146D01*
X010715Y004064D01*
X010755Y003987D01*
X010805Y003917D01*
X010867Y003855D01*
X010937Y003805D01*
X011014Y003765D01*
X011096Y003739D01*
X011182Y003725D01*
X011216Y003725D01*
X011216Y004266D01*
X011234Y004266D01*
X011234Y004284D01*
X011775Y004284D01*
X011775Y004318D01*
X011761Y004404D01*
X011735Y004486D01*
X011695Y004563D01*
X011645Y004633D01*
X011583Y004695D01*
X011513Y004745D01*
X011436Y004785D01*
X011354Y004811D01*
X011268Y004825D01*
X011234Y004825D01*
X011290Y004822D02*
X012735Y004822D01*
X012735Y004980D02*
X007465Y004980D01*
X007465Y005139D02*
X012735Y005139D01*
X012735Y005297D02*
X007465Y005297D01*
X007465Y005456D02*
X012735Y005456D01*
X012735Y005614D02*
X007465Y005614D01*
X007465Y005773D02*
X012735Y005773D01*
X012735Y005931D02*
X007465Y005931D01*
X007465Y006090D02*
X012735Y006090D01*
X012735Y006248D02*
X007465Y006248D01*
X007430Y006407D02*
X012735Y006407D01*
X012735Y006565D02*
X007274Y006565D01*
X007116Y006724D02*
X012735Y006724D01*
X012735Y006882D02*
X006957Y006882D01*
X006799Y007041D02*
X012735Y007041D01*
X012735Y007199D02*
X006640Y007199D01*
X006482Y007358D02*
X012735Y007358D01*
X012735Y007516D02*
X006323Y007516D01*
X008225Y008275D02*
X008225Y011975D01*
X008637Y011637D02*
X010708Y011637D01*
X010774Y011479D02*
X008465Y011479D01*
X008465Y011320D02*
X010938Y011320D01*
X010862Y011162D02*
X008465Y011162D01*
X008465Y011003D02*
X010746Y011003D01*
X010695Y010845D02*
X008465Y010845D01*
X008465Y010686D02*
X010695Y010686D01*
X010754Y010528D02*
X008465Y010528D01*
X008465Y010369D02*
X010881Y010369D01*
X010911Y010211D02*
X008465Y010211D01*
X008465Y010052D02*
X010766Y010052D01*
X010700Y009894D02*
X008465Y009894D01*
X008465Y009735D02*
X010695Y009735D01*
X010734Y009577D02*
X008465Y009577D01*
X008465Y009418D02*
X010832Y009418D01*
X010985Y009260D02*
X008465Y009260D01*
X008465Y009101D02*
X010985Y009101D01*
X010985Y008943D02*
X008465Y008943D01*
X008465Y008784D02*
X010985Y008784D01*
X010826Y008626D02*
X008624Y008626D01*
X008719Y008467D02*
X010731Y008467D01*
X010695Y008309D02*
X008755Y008309D01*
X008747Y008150D02*
X010703Y008150D01*
X010769Y007992D02*
X008681Y007992D01*
X008533Y007833D02*
X010917Y007833D01*
X011225Y008275D02*
X011225Y009775D01*
X013215Y009735D02*
X014735Y009735D01*
X014735Y009577D02*
X013215Y009577D01*
X013215Y009418D02*
X014735Y009418D01*
X014735Y009260D02*
X013215Y009260D01*
X013215Y009101D02*
X014735Y009101D01*
X014593Y008943D02*
X013215Y008943D01*
X013215Y008784D02*
X014488Y008784D01*
X014445Y008626D02*
X013215Y008626D01*
X013215Y008467D02*
X014446Y008467D01*
X014512Y008309D02*
X013215Y008309D01*
X013215Y008150D02*
X014650Y008150D01*
X014975Y008575D02*
X014975Y015975D01*
X014642Y016392D02*
X013215Y016392D01*
X013215Y016234D02*
X014508Y016234D01*
X014445Y016075D02*
X013215Y016075D01*
X013215Y015917D02*
X014445Y015917D01*
X014491Y015758D02*
X013215Y015758D01*
X013215Y015600D02*
X014601Y015600D01*
X014735Y015441D02*
X013215Y015441D01*
X013215Y015283D02*
X014735Y015283D01*
X014735Y015124D02*
X013215Y015124D01*
X013215Y014966D02*
X014735Y014966D01*
X014735Y014807D02*
X013215Y014807D01*
X013215Y014649D02*
X014735Y014649D01*
X014735Y014490D02*
X013215Y014490D01*
X013215Y014332D02*
X014735Y014332D01*
X014735Y014173D02*
X013215Y014173D01*
X013215Y014015D02*
X014735Y014015D01*
X014735Y013856D02*
X013215Y013856D01*
X013215Y013698D02*
X014735Y013698D01*
X014735Y013539D02*
X013215Y013539D01*
X013215Y013381D02*
X014735Y013381D01*
X014735Y013222D02*
X013215Y013222D01*
X013215Y013064D02*
X014735Y013064D01*
X014735Y012905D02*
X013215Y012905D01*
X013215Y012747D02*
X014735Y012747D01*
X014735Y012588D02*
X013215Y012588D01*
X013215Y012430D02*
X014735Y012430D01*
X014735Y012271D02*
X013215Y012271D01*
X013215Y012113D02*
X014735Y012113D01*
X014735Y011954D02*
X013215Y011954D01*
X013215Y011796D02*
X014735Y011796D01*
X014735Y011637D02*
X013215Y011637D01*
X013215Y011479D02*
X014735Y011479D01*
X014735Y011320D02*
X013215Y011320D01*
X013215Y011162D02*
X014735Y011162D01*
X014735Y011003D02*
X013215Y011003D01*
X013215Y010845D02*
X014735Y010845D01*
X014735Y010686D02*
X013215Y010686D01*
X013215Y010528D02*
X014735Y010528D01*
X014735Y010369D02*
X013215Y010369D01*
X013215Y010211D02*
X014735Y010211D01*
X014735Y010052D02*
X013215Y010052D01*
X013215Y009894D02*
X014735Y009894D01*
X015975Y009975D02*
X015975Y015475D01*
X016475Y015975D01*
X015438Y016709D02*
X017902Y016709D01*
X017985Y016551D02*
X015300Y016551D01*
X014650Y016551D02*
X013215Y016551D01*
X013215Y016709D02*
X014512Y016709D01*
X014446Y016868D02*
X013215Y016868D01*
X013215Y017026D02*
X014445Y017026D01*
X014488Y017185D02*
X013215Y017185D01*
X013215Y017343D02*
X014593Y017343D01*
X014733Y017502D02*
X013215Y017502D01*
X013215Y017660D02*
X014540Y017660D01*
X014466Y017819D02*
X013215Y017819D01*
X013215Y017977D02*
X014445Y017977D01*
X014468Y018136D02*
X013215Y018136D01*
X013206Y018294D02*
X014544Y018294D01*
X014743Y018453D02*
X013087Y018453D01*
X012928Y018611D02*
X015485Y018611D01*
X015485Y018453D02*
X015207Y018453D01*
X015406Y018294D02*
X015455Y018294D01*
X015725Y018225D02*
X015475Y017975D01*
X014975Y017975D01*
X015410Y017660D02*
X019735Y017660D01*
X019735Y017502D02*
X015217Y017502D01*
X015658Y017819D02*
X019735Y017819D01*
X019735Y017977D02*
X015816Y017977D01*
X015948Y018136D02*
X019735Y018136D01*
X019735Y018294D02*
X015965Y018294D01*
X015965Y018453D02*
X018101Y018453D01*
X018120Y018445D02*
X018330Y018445D01*
X018525Y018526D01*
X018674Y018675D01*
X018755Y018870D01*
X018755Y019080D01*
X018674Y019275D01*
X018525Y019424D01*
X018330Y019505D01*
X018120Y019505D01*
X017925Y019424D01*
X017776Y019275D01*
X017772Y019267D01*
X017715Y019324D01*
X017715Y020071D01*
X017776Y019925D01*
X017925Y019776D01*
X018120Y019695D01*
X018330Y019695D01*
X018525Y019776D01*
X018674Y019925D01*
X018755Y020120D01*
X018755Y020330D01*
X018674Y020525D01*
X018525Y020674D01*
X018403Y020725D01*
X018525Y020776D01*
X018674Y020925D01*
X018755Y021120D01*
X018755Y021330D01*
X018674Y021525D01*
X018525Y021674D01*
X018465Y021699D01*
X018465Y021751D01*
X018525Y021776D01*
X018674Y021925D01*
X018755Y022120D01*
X018755Y022330D01*
X018674Y022525D01*
X018525Y022674D01*
X018330Y022755D01*
X018120Y022755D01*
X017925Y022674D01*
X017776Y022525D01*
X017695Y022330D01*
X017695Y022120D01*
X017776Y021925D01*
X017925Y021776D01*
X017985Y021751D01*
X017985Y021699D01*
X017925Y021674D01*
X017776Y021525D01*
X017751Y021465D01*
X017677Y021465D01*
X017589Y021428D01*
X017339Y021178D01*
X017272Y021111D01*
X017235Y021023D01*
X017235Y019177D01*
X017272Y019089D01*
X017522Y018839D01*
X017589Y018772D01*
X017677Y018735D01*
X017751Y018735D01*
X017776Y018675D01*
X017925Y018526D01*
X018120Y018445D01*
X018349Y018453D02*
X019735Y018453D01*
X019735Y018611D02*
X018611Y018611D01*
X018714Y018770D02*
X019735Y018770D01*
X019735Y018928D02*
X018755Y018928D01*
X018752Y019087D02*
X019735Y019087D01*
X019735Y019245D02*
X018687Y019245D01*
X018546Y019404D02*
X019735Y019404D01*
X019735Y019562D02*
X017715Y019562D01*
X017715Y019404D02*
X017904Y019404D01*
X018058Y019721D02*
X017715Y019721D01*
X017715Y019879D02*
X017821Y019879D01*
X017729Y020038D02*
X017715Y020038D01*
X017235Y020038D02*
X015965Y020038D01*
X015965Y020196D02*
X017235Y020196D01*
X017235Y020355D02*
X015965Y020355D01*
X015965Y020513D02*
X017235Y020513D01*
X017235Y020672D02*
X015965Y020672D01*
X015965Y020830D02*
X017235Y020830D01*
X017235Y020989D02*
X015965Y020989D01*
X015965Y021147D02*
X017308Y021147D01*
X017466Y021306D02*
X015965Y021306D01*
X015965Y021464D02*
X017675Y021464D01*
X017725Y021225D02*
X017475Y020975D01*
X017475Y019225D01*
X017725Y018975D01*
X018225Y018975D01*
X017839Y018611D02*
X015965Y018611D01*
X015965Y018770D02*
X017594Y018770D01*
X017433Y018928D02*
X015965Y018928D01*
X015965Y019087D02*
X017274Y019087D01*
X017235Y019245D02*
X015965Y019245D01*
X015965Y019404D02*
X017235Y019404D01*
X017235Y019562D02*
X015965Y019562D01*
X015965Y019721D02*
X017235Y019721D01*
X017235Y019879D02*
X015965Y019879D01*
X015485Y019879D02*
X015379Y019879D01*
X015471Y020038D02*
X015485Y020038D01*
X015485Y019721D02*
X015142Y019721D01*
X014808Y019721D02*
X011693Y019721D01*
X011755Y019879D02*
X014571Y019879D01*
X014479Y020038D02*
X011755Y020038D01*
X011707Y020196D02*
X014415Y020196D01*
X014256Y020355D02*
X011595Y020355D01*
X011562Y019562D02*
X015485Y019562D01*
X015485Y019404D02*
X011546Y019404D01*
X011687Y019245D02*
X015485Y019245D01*
X015485Y019087D02*
X012453Y019087D01*
X012611Y018928D02*
X015485Y018928D01*
X015485Y018770D02*
X012770Y018770D01*
X012408Y018453D02*
X011457Y018453D01*
X011611Y018611D02*
X012250Y018611D01*
X012225Y018975D02*
X012975Y018225D01*
X012975Y003475D01*
X013975Y002475D01*
X014225Y002475D01*
X013493Y003554D02*
X013236Y003554D01*
X013215Y003712D02*
X013809Y003712D01*
X013215Y004188D02*
X014585Y004188D01*
X014474Y004346D02*
X013215Y004346D01*
X013215Y004505D02*
X014429Y004505D01*
X014432Y004663D02*
X013215Y004663D01*
X013215Y004822D02*
X014483Y004822D01*
X014602Y004980D02*
X013215Y004980D01*
X012735Y004663D02*
X011615Y004663D01*
X011725Y004505D02*
X012735Y004505D01*
X012735Y004346D02*
X011771Y004346D01*
X011775Y004266D02*
X011234Y004266D01*
X011234Y003725D01*
X011268Y003725D01*
X011354Y003739D01*
X011436Y003765D01*
X011513Y003805D01*
X011583Y003855D01*
X011645Y003917D01*
X011695Y003987D01*
X011735Y004064D01*
X011761Y004146D01*
X011775Y004232D01*
X011775Y004266D01*
X011768Y004188D02*
X012735Y004188D01*
X012735Y004029D02*
X011717Y004029D01*
X011598Y003871D02*
X012735Y003871D01*
X011234Y003871D02*
X011216Y003871D01*
X011216Y004029D02*
X011234Y004029D01*
X011234Y004188D02*
X011216Y004188D01*
X011216Y004346D02*
X011234Y004346D01*
X011234Y004505D02*
X011216Y004505D01*
X011216Y004663D02*
X011234Y004663D01*
X010835Y004663D02*
X008615Y004663D01*
X008725Y004505D02*
X010725Y004505D01*
X010679Y004346D02*
X008771Y004346D01*
X008775Y004266D02*
X008234Y004266D01*
X008234Y003725D01*
X008268Y003725D01*
X008354Y003739D01*
X008436Y003765D01*
X008513Y003805D01*
X008583Y003855D01*
X008645Y003917D01*
X008695Y003987D01*
X008735Y004064D01*
X008761Y004146D01*
X008775Y004232D01*
X008775Y004266D01*
X008768Y004188D02*
X010682Y004188D01*
X010733Y004029D02*
X008717Y004029D01*
X008598Y003871D02*
X010852Y003871D01*
X008234Y003871D02*
X008216Y003871D01*
X008216Y004029D02*
X008234Y004029D01*
X008234Y004188D02*
X008216Y004188D01*
X008216Y004346D02*
X008234Y004346D01*
X008234Y004505D02*
X008216Y004505D01*
X008216Y004663D02*
X008234Y004663D01*
X005234Y004663D02*
X005216Y004663D01*
X005216Y004505D02*
X005234Y004505D01*
X005234Y004346D02*
X005216Y004346D01*
X005216Y004188D02*
X005234Y004188D01*
X005234Y004029D02*
X005216Y004029D01*
X005216Y003871D02*
X005234Y003871D01*
X004852Y003871D02*
X000425Y003871D01*
X000425Y004029D02*
X004733Y004029D01*
X004682Y004188D02*
X000425Y004188D01*
X000425Y004346D02*
X004679Y004346D01*
X004725Y004505D02*
X000425Y004505D01*
X000425Y004663D02*
X004835Y004663D01*
X013215Y007041D02*
X020248Y007041D01*
X020195Y007199D02*
X013215Y007199D01*
X013215Y007358D02*
X020195Y007358D01*
X020251Y007516D02*
X013215Y007516D01*
X013215Y007675D02*
X020375Y007675D01*
X020735Y007833D02*
X013215Y007833D01*
X013215Y007992D02*
X020735Y007992D01*
X020735Y008150D02*
X015300Y008150D01*
X014984Y004980D02*
X014966Y004980D01*
X014966Y004822D02*
X014984Y004822D01*
X014984Y004663D02*
X014966Y004663D01*
X014966Y004505D02*
X014984Y004505D01*
X014984Y004346D02*
X014966Y004346D01*
X014966Y004188D02*
X014984Y004188D01*
X021225Y002475D02*
X021225Y001225D01*
X021475Y000975D01*
X031225Y000975D01*
X033475Y003225D01*
X033475Y010975D01*
X033715Y010686D02*
X033735Y010686D01*
X033735Y010528D02*
X033715Y010528D01*
X033715Y010369D02*
X033735Y010369D01*
X033735Y010211D02*
X033715Y010211D01*
X033715Y010052D02*
X033735Y010052D01*
X033735Y009894D02*
X033715Y009894D01*
X033715Y009735D02*
X033735Y009735D01*
X033735Y009577D02*
X033715Y009577D01*
X033715Y009418D02*
X033735Y009418D01*
X033735Y009260D02*
X033715Y009260D01*
X033715Y009101D02*
X033735Y009101D01*
X033735Y008943D02*
X033715Y008943D01*
X033715Y008784D02*
X033735Y008784D01*
X033735Y008626D02*
X033715Y008626D01*
X033715Y008467D02*
X033735Y008467D01*
X033735Y008309D02*
X033715Y008309D01*
X033715Y008150D02*
X033735Y008150D01*
X033735Y007992D02*
X033715Y007992D01*
X033715Y007833D02*
X033735Y007833D01*
X033735Y007675D02*
X033715Y007675D01*
X033715Y007516D02*
X033735Y007516D01*
X033735Y007358D02*
X033715Y007358D01*
X033715Y007199D02*
X033735Y007199D01*
X033735Y007041D02*
X033715Y007041D01*
X033715Y006882D02*
X033735Y006882D01*
X033735Y006724D02*
X033715Y006724D01*
X033715Y006565D02*
X033735Y006565D01*
X033735Y006407D02*
X033715Y006407D01*
X033715Y006248D02*
X033735Y006248D01*
X033735Y006090D02*
X033715Y006090D01*
X033715Y005931D02*
X033735Y005931D01*
X033735Y005773D02*
X033715Y005773D01*
X033715Y005614D02*
X033735Y005614D01*
X033735Y005456D02*
X033715Y005456D01*
X033715Y005297D02*
X033735Y005297D01*
X033735Y005139D02*
X033715Y005139D01*
X033715Y004980D02*
X033735Y004980D01*
X033735Y004822D02*
X033715Y004822D01*
X033715Y004663D02*
X033735Y004663D01*
X033735Y004505D02*
X033715Y004505D01*
X033715Y004346D02*
X033735Y004346D01*
X033735Y004188D02*
X033715Y004188D01*
X033715Y004029D02*
X033735Y004029D01*
X033735Y003871D02*
X033715Y003871D01*
X033715Y003712D02*
X033735Y003712D01*
X033735Y003554D02*
X033715Y003554D01*
X033715Y003395D02*
X033735Y003395D01*
X033735Y003237D02*
X033715Y003237D01*
X033735Y003078D02*
X033667Y003078D01*
X033580Y002920D02*
X033509Y002920D01*
X033422Y002761D02*
X033350Y002761D01*
X033263Y002603D02*
X033192Y002603D01*
X033105Y002444D02*
X033033Y002444D01*
X032946Y002286D02*
X032875Y002286D01*
X032788Y002127D02*
X032716Y002127D01*
X032629Y001969D02*
X032558Y001969D01*
X032471Y001810D02*
X032399Y001810D01*
X032312Y001652D02*
X032241Y001652D01*
X032154Y001493D02*
X032082Y001493D01*
X031995Y001335D02*
X031924Y001335D01*
X031837Y001176D02*
X031765Y001176D01*
X031678Y001018D02*
X031607Y001018D01*
X031520Y000859D02*
X031448Y000859D01*
X031245Y001335D02*
X028892Y001335D01*
X029110Y001493D02*
X031404Y001493D01*
X031562Y001652D02*
X029257Y001652D01*
X029367Y001810D02*
X031721Y001810D01*
X031879Y001969D02*
X029445Y001969D01*
X029498Y002127D02*
X032038Y002127D01*
X032196Y002286D02*
X029531Y002286D01*
X029539Y002603D02*
X032513Y002603D01*
X032672Y002761D02*
X029515Y002761D01*
X029470Y002920D02*
X032830Y002920D01*
X032989Y003078D02*
X029400Y003078D01*
X029303Y003237D02*
X033147Y003237D01*
X033235Y003395D02*
X029174Y003395D01*
X028987Y003554D02*
X033235Y003554D01*
X033235Y003712D02*
X028688Y003712D01*
X028305Y003712D02*
X028145Y003712D01*
X028145Y003554D02*
X028305Y003554D01*
X028305Y003395D02*
X028145Y003395D01*
X028145Y003237D02*
X028305Y003237D01*
X028305Y003078D02*
X028145Y003078D01*
X028145Y002920D02*
X028305Y002920D01*
X028305Y002761D02*
X028145Y002761D01*
X028145Y002603D02*
X028305Y002603D01*
X028305Y002444D02*
X032355Y002444D01*
X033235Y005139D02*
X031138Y005139D01*
X031225Y005475D02*
X030725Y005475D01*
X030725Y007516D02*
X030725Y007516D01*
X030725Y007675D02*
X030725Y007675D01*
X030725Y007833D02*
X030725Y007833D01*
X030725Y007992D02*
X030725Y007992D01*
X030535Y007992D02*
X029965Y007992D01*
X029965Y008150D02*
X031235Y008150D01*
X031235Y007992D02*
X030915Y007992D01*
X031058Y008309D02*
X031235Y008309D01*
X029372Y011637D02*
X026063Y011637D01*
X026045Y011796D02*
X029365Y011796D01*
X029445Y011954D02*
X026186Y011954D01*
X026214Y012430D02*
X030274Y012430D01*
X029676Y014015D02*
X028711Y014015D01*
X028755Y014173D02*
X029615Y014173D01*
X029629Y014332D02*
X028755Y014332D01*
X028689Y014490D02*
X029731Y014490D01*
X029975Y014225D02*
X030725Y014975D01*
X030725Y017975D01*
X030725Y019225D01*
X032735Y021781D02*
X026168Y021781D01*
X025988Y021940D02*
X032735Y021940D01*
X032735Y022098D02*
X026098Y022098D01*
X026208Y022257D02*
X032735Y022257D01*
X032735Y022415D02*
X026255Y022415D01*
X026255Y022574D02*
X032735Y022574D01*
X032735Y022732D02*
X026192Y022732D01*
X026059Y022891D02*
X032735Y022891D01*
X032735Y023049D02*
X020215Y023049D01*
X020215Y022891D02*
X022641Y022891D01*
X022675Y022924D02*
X022526Y022775D01*
X022501Y022715D01*
X021427Y022715D01*
X021339Y022678D01*
X020589Y021928D01*
X020522Y021861D01*
X020485Y021773D01*
X020485Y019156D01*
X020447Y019140D01*
X020310Y019003D01*
X020235Y018822D01*
X020235Y018628D01*
X020310Y018447D01*
X020447Y018310D01*
X020628Y018235D01*
X020822Y018235D01*
X021003Y018310D01*
X021140Y018447D01*
X021215Y018628D01*
X021215Y018822D01*
X021140Y019003D01*
X021003Y019140D01*
X020965Y019156D01*
X020965Y021626D01*
X021574Y022235D01*
X022501Y022235D01*
X022526Y022175D01*
X022675Y022026D01*
X022870Y021945D01*
X023080Y021945D01*
X023275Y022026D01*
X023424Y022175D01*
X023505Y022370D01*
X023505Y022580D01*
X023424Y022775D01*
X023275Y022924D01*
X023080Y023005D01*
X022870Y023005D01*
X022675Y022924D01*
X022508Y022732D02*
X020215Y022732D01*
X020215Y022574D02*
X021234Y022574D01*
X021076Y022415D02*
X020215Y022415D01*
X020215Y022257D02*
X020917Y022257D01*
X020759Y022098D02*
X020215Y022098D01*
X020215Y021940D02*
X020600Y021940D01*
X020488Y021781D02*
X020215Y021781D01*
X020215Y021623D02*
X020485Y021623D01*
X020485Y021464D02*
X020215Y021464D01*
X020215Y021306D02*
X020485Y021306D01*
X020485Y021147D02*
X020215Y021147D01*
X020215Y020989D02*
X020485Y020989D01*
X020485Y020830D02*
X020215Y020830D01*
X020215Y020672D02*
X020485Y020672D01*
X020485Y020513D02*
X020215Y020513D01*
X020215Y020355D02*
X020485Y020355D01*
X020485Y020196D02*
X020215Y020196D01*
X020215Y020038D02*
X020485Y020038D01*
X020485Y019879D02*
X020215Y019879D01*
X020215Y019721D02*
X020485Y019721D01*
X020485Y019562D02*
X020215Y019562D01*
X020215Y019404D02*
X020485Y019404D01*
X020485Y019245D02*
X020215Y019245D01*
X020215Y019087D02*
X020394Y019087D01*
X020279Y018928D02*
X020215Y018928D01*
X020215Y018770D02*
X020235Y018770D01*
X020242Y018611D02*
X020215Y018611D01*
X020215Y018453D02*
X020307Y018453D01*
X020215Y018294D02*
X020485Y018294D01*
X020443Y018136D02*
X020215Y018136D01*
X020215Y017977D02*
X020299Y017977D01*
X020235Y017819D02*
X020215Y017819D01*
X020215Y017660D02*
X020235Y017660D01*
X020215Y017502D02*
X020287Y017502D01*
X020215Y017343D02*
X020414Y017343D01*
X020215Y017185D02*
X020735Y017185D01*
X020735Y017026D02*
X020215Y017026D01*
X020215Y016868D02*
X020735Y016868D01*
X020735Y016709D02*
X020215Y016709D01*
X020215Y016551D02*
X020735Y016551D01*
X020735Y016392D02*
X020215Y016392D01*
X020215Y016234D02*
X020735Y016234D01*
X020735Y016075D02*
X020215Y016075D01*
X020215Y015917D02*
X020735Y015917D01*
X020735Y015758D02*
X020215Y015758D01*
X020215Y015600D02*
X020735Y015600D01*
X020735Y015441D02*
X020215Y015441D01*
X020215Y015283D02*
X020735Y015283D01*
X020735Y015124D02*
X020215Y015124D01*
X020215Y014966D02*
X020735Y014966D01*
X020735Y014807D02*
X020215Y014807D01*
X020215Y014649D02*
X020735Y014649D01*
X020735Y014490D02*
X020299Y014490D01*
X020555Y014332D02*
X020735Y014332D01*
X020475Y013975D02*
X019975Y014475D01*
X019975Y024975D01*
X020975Y025975D01*
X021225Y025975D01*
X022304Y026695D02*
X027140Y026695D01*
X027050Y026536D02*
X022397Y026536D01*
X022467Y026378D02*
X026985Y026378D01*
X026942Y026219D02*
X022504Y026219D01*
X022524Y026061D02*
X026931Y026061D01*
X026924Y025902D02*
X022529Y025902D01*
X022501Y025744D02*
X026942Y025744D01*
X026984Y025585D02*
X022473Y025585D01*
X022408Y025427D02*
X027043Y025427D01*
X027128Y025268D02*
X022319Y025268D01*
X022198Y025110D02*
X027248Y025110D01*
X027422Y024951D02*
X022035Y024951D01*
X021775Y024793D02*
X027692Y024793D01*
X028775Y024793D02*
X032735Y024793D01*
X032735Y024951D02*
X029035Y024951D01*
X029198Y025110D02*
X032735Y025110D01*
X032735Y025268D02*
X029319Y025268D01*
X029408Y025427D02*
X032684Y025427D01*
X032526Y025585D02*
X029473Y025585D01*
X029504Y026219D02*
X035025Y026219D01*
X035025Y026378D02*
X034400Y026378D01*
X034050Y026378D02*
X029467Y026378D01*
X029397Y026536D02*
X033712Y026536D01*
X033553Y026695D02*
X029304Y026695D01*
X029179Y026853D02*
X033459Y026853D01*
X033393Y027012D02*
X029021Y027012D01*
X028751Y027170D02*
X033375Y027170D01*
X033375Y027329D02*
X002075Y027329D01*
X002075Y027170D02*
X006707Y027170D01*
X006685Y027158D02*
X006621Y027134D01*
X006614Y027119D01*
X006593Y027108D01*
X006577Y027110D01*
X006522Y027069D01*
X006462Y027036D01*
X006457Y027021D01*
X006438Y027006D01*
X006422Y027006D01*
X006373Y026958D01*
X006318Y026917D01*
X006316Y026901D01*
X006299Y026884D01*
X006283Y026882D01*
X006242Y026827D01*
X006194Y026778D01*
X006194Y026762D01*
X006179Y026743D01*
X006164Y026738D01*
X006131Y026678D01*
X006090Y026623D01*
X006092Y026607D01*
X006081Y026586D01*
X006066Y026579D01*
X006042Y026515D01*
X006009Y026455D01*
X006014Y026439D01*
X006005Y026417D01*
X005992Y026408D01*
X005977Y026341D01*
X005953Y026277D01*
X005960Y026262D01*
X005955Y026239D01*
X005943Y026228D01*
X005938Y026160D01*
X005923Y026093D01*
X005932Y026079D01*
X005930Y026055D01*
X005919Y026042D01*
X005924Y025975D01*
X005920Y025907D01*
X005931Y025894D01*
X005933Y025859D01*
X005924Y025844D01*
X005939Y025778D01*
X005945Y025711D01*
X005958Y025699D01*
X005966Y025664D01*
X005959Y025648D01*
X005984Y025586D01*
X005999Y025520D01*
X006014Y025511D01*
X006027Y025477D01*
X006023Y025460D01*
X006057Y025402D01*
X006082Y025339D01*
X006098Y025333D01*
X006117Y025302D01*
X006115Y025284D01*
X006158Y025232D01*
X006192Y025174D01*
X006209Y025169D01*
X006231Y025142D01*
X006232Y025124D01*
X006282Y025079D01*
X006325Y025027D01*
X006342Y025025D01*
X006369Y025001D01*
X006372Y024984D01*
X006429Y024947D01*
X006479Y024901D01*
X006496Y024902D01*
X006526Y024882D01*
X006532Y024866D01*
X006594Y024838D01*
X006650Y024801D01*
X006667Y024804D01*
X006700Y024789D01*
X006708Y024774D01*
X006773Y024755D01*
X006835Y024727D01*
X006851Y024733D01*
X006886Y024723D01*
X006896Y024710D01*
X006963Y024701D01*
X007028Y024682D01*
X007043Y024691D01*
X007079Y024686D01*
X007092Y024674D01*
X007159Y024676D01*
X007226Y024668D01*
X007240Y024678D01*
X007276Y024679D01*
X007290Y024669D01*
X007357Y024681D01*
X007424Y024683D01*
X007436Y024695D01*
X007471Y024702D01*
X007487Y024694D01*
X007551Y024716D01*
X007618Y024728D01*
X007627Y024742D01*
X007661Y024754D01*
X007678Y024749D01*
X007738Y024780D01*
X007802Y024802D01*
X007809Y024817D01*
X007841Y024834D01*
X007858Y024831D01*
X007913Y024871D01*
X007973Y024903D01*
X007978Y024919D01*
X008007Y024940D01*
X008024Y024940D01*
X008072Y024988D01*
X008127Y025028D01*
X008129Y025045D01*
X008155Y025071D01*
X008172Y025073D01*
X008212Y025128D01*
X008260Y025176D01*
X008260Y025193D01*
X008281Y025222D01*
X008297Y025227D01*
X008329Y025287D01*
X008369Y025342D01*
X008366Y025359D01*
X008383Y025391D01*
X008398Y025398D01*
X008420Y025462D01*
X008451Y025522D01*
X008446Y025539D01*
X008458Y025573D01*
X008472Y025582D01*
X008484Y025649D01*
X008506Y025713D01*
X008498Y025729D01*
X008505Y025764D01*
X008517Y025776D01*
X008519Y025843D01*
X008531Y025910D01*
X008521Y025924D01*
X008522Y025960D01*
X008532Y025974D01*
X008524Y026041D01*
X008526Y026108D01*
X008514Y026121D01*
X008509Y026157D01*
X008518Y026172D01*
X008499Y026237D01*
X008490Y026304D01*
X008477Y026314D01*
X008467Y026349D01*
X008473Y026365D01*
X008445Y026427D01*
X008426Y026492D01*
X008411Y026500D01*
X008396Y026533D01*
X008399Y026550D01*
X008362Y026606D01*
X008334Y026668D01*
X008318Y026674D01*
X008298Y026704D01*
X008299Y026721D01*
X008253Y026771D01*
X008216Y026828D01*
X008199Y026831D01*
X008175Y026858D01*
X008173Y026875D01*
X008121Y026918D01*
X008076Y026968D01*
X008058Y026969D01*
X008031Y026991D01*
X008026Y027008D01*
X007968Y027042D01*
X007916Y027085D01*
X007898Y027083D01*
X007867Y027102D01*
X007861Y027118D01*
X007798Y027143D01*
X007740Y027177D01*
X007723Y027173D01*
X007689Y027186D01*
X007680Y027201D01*
X007614Y027216D01*
X007552Y027241D01*
X007536Y027234D01*
X007501Y027242D01*
X007489Y027255D01*
X007422Y027261D01*
X007356Y027276D01*
X007341Y027267D01*
X007306Y027269D01*
X007293Y027280D01*
X007225Y027276D01*
X007158Y027281D01*
X007145Y027270D01*
X007121Y027268D01*
X007107Y027277D01*
X007040Y027262D01*
X006972Y027257D01*
X006961Y027245D01*
X006938Y027240D01*
X006923Y027247D01*
X006859Y027223D01*
X006792Y027208D01*
X006783Y027195D01*
X006761Y027186D01*
X006745Y027191D01*
X006685Y027158D01*
X006445Y027012D02*
X002057Y027012D01*
X001991Y026853D02*
X006262Y026853D01*
X006140Y026695D02*
X001897Y026695D01*
X001738Y026536D02*
X006050Y026536D01*
X005985Y026378D02*
X001400Y026378D01*
X001050Y026378D02*
X000425Y026378D01*
X000425Y026536D02*
X000712Y026536D01*
X000553Y026695D02*
X000425Y026695D01*
X000425Y026853D02*
X000459Y026853D01*
X000425Y026219D02*
X005942Y026219D01*
X005931Y026061D02*
X000425Y026061D01*
X000425Y025902D02*
X005924Y025902D01*
X005942Y025744D02*
X000425Y025744D01*
X000425Y025585D02*
X005984Y025585D01*
X006043Y025427D02*
X000425Y025427D01*
X000425Y025268D02*
X006128Y025268D01*
X006248Y025110D02*
X000425Y025110D01*
X000425Y024951D02*
X006422Y024951D01*
X006692Y024793D02*
X000425Y024793D01*
X000425Y024634D02*
X013985Y024634D01*
X013985Y024476D02*
X000425Y024476D01*
X000425Y024317D02*
X013985Y024317D01*
X013985Y024159D02*
X000425Y024159D01*
X000425Y024000D02*
X013985Y024000D01*
X013985Y023842D02*
X000425Y023842D01*
X000425Y023683D02*
X013985Y023683D01*
X013985Y023525D02*
X000425Y023525D01*
X000425Y023366D02*
X013985Y023366D01*
X013985Y023208D02*
X000425Y023208D01*
X000425Y023049D02*
X013985Y023049D01*
X013985Y022891D02*
X000425Y022891D01*
X000425Y022732D02*
X008064Y022732D01*
X007824Y022574D02*
X000425Y022574D01*
X000425Y022415D02*
X007730Y022415D01*
X007695Y022257D02*
X000425Y022257D01*
X000425Y022098D02*
X007704Y022098D01*
X007770Y021940D02*
X000425Y021940D01*
X000425Y021781D02*
X007919Y021781D01*
X007873Y021623D02*
X000425Y021623D01*
X000425Y021464D02*
X007750Y021464D01*
X007695Y021306D02*
X000425Y021306D01*
X000425Y021147D02*
X007695Y021147D01*
X007749Y020989D02*
X000425Y020989D01*
X000425Y020830D02*
X007870Y020830D01*
X007922Y020672D02*
X000425Y020672D01*
X000425Y020513D02*
X007771Y020513D01*
X007705Y020355D02*
X000425Y020355D01*
X007775Y024793D02*
X013692Y024793D01*
X013422Y024951D02*
X008035Y024951D01*
X008198Y025110D02*
X013248Y025110D01*
X013128Y025268D02*
X008319Y025268D01*
X008408Y025427D02*
X013043Y025427D01*
X012984Y025585D02*
X008473Y025585D01*
X008501Y025744D02*
X012942Y025744D01*
X012924Y025902D02*
X008529Y025902D01*
X008524Y026061D02*
X012931Y026061D01*
X012942Y026219D02*
X008504Y026219D01*
X008467Y026378D02*
X012985Y026378D01*
X013050Y026536D02*
X008397Y026536D01*
X008304Y026695D02*
X013140Y026695D01*
X013262Y026853D02*
X008179Y026853D01*
X008021Y027012D02*
X013445Y027012D01*
X013707Y027170D02*
X007751Y027170D01*
X008386Y022732D02*
X013985Y022732D01*
X013985Y022574D02*
X008626Y022574D01*
X008720Y022415D02*
X013985Y022415D01*
X013985Y022257D02*
X008755Y022257D01*
X008746Y022098D02*
X013985Y022098D01*
X013985Y021940D02*
X008680Y021940D01*
X008531Y021781D02*
X013985Y021781D01*
X013985Y021623D02*
X008577Y021623D01*
X008700Y021464D02*
X013985Y021464D01*
X013985Y021306D02*
X008755Y021306D01*
X008755Y021147D02*
X013985Y021147D01*
X013985Y020989D02*
X008701Y020989D01*
X008725Y020725D02*
X014225Y020725D01*
X014725Y020225D01*
X014975Y020225D01*
X014225Y020725D02*
X014225Y025975D01*
X015501Y025744D02*
X019942Y025744D01*
X019924Y025902D02*
X015529Y025902D01*
X015524Y026061D02*
X019931Y026061D01*
X019942Y026219D02*
X015504Y026219D01*
X015467Y026378D02*
X019985Y026378D01*
X020050Y026536D02*
X015397Y026536D01*
X015304Y026695D02*
X020140Y026695D01*
X020262Y026853D02*
X015179Y026853D01*
X015021Y027012D02*
X020445Y027012D01*
X020707Y027170D02*
X014751Y027170D01*
X015473Y025585D02*
X019984Y025585D01*
X020043Y025427D02*
X015408Y025427D01*
X015319Y025268D02*
X019929Y025268D01*
X019771Y025110D02*
X015198Y025110D01*
X015035Y024951D02*
X019735Y024951D01*
X019735Y024793D02*
X014775Y024793D01*
X014465Y024634D02*
X019735Y024634D01*
X019735Y024476D02*
X014465Y024476D01*
X014465Y024317D02*
X019735Y024317D01*
X019735Y024159D02*
X014465Y024159D01*
X014465Y024000D02*
X019735Y024000D01*
X019735Y023842D02*
X014465Y023842D01*
X014465Y023683D02*
X019735Y023683D01*
X019735Y023525D02*
X014465Y023525D01*
X014465Y023366D02*
X019735Y023366D01*
X019735Y023208D02*
X014465Y023208D01*
X014465Y023049D02*
X019735Y023049D01*
X019735Y022891D02*
X014465Y022891D01*
X014465Y022732D02*
X014814Y022732D01*
X014574Y022574D02*
X014465Y022574D01*
X014465Y022415D02*
X014480Y022415D01*
X014975Y022225D02*
X015475Y022225D01*
X015725Y021975D01*
X015725Y018225D01*
X018392Y019721D02*
X019735Y019721D01*
X019735Y019879D02*
X018629Y019879D01*
X018721Y020038D02*
X019735Y020038D01*
X019735Y020196D02*
X018755Y020196D01*
X018745Y020355D02*
X019735Y020355D01*
X019735Y020513D02*
X018679Y020513D01*
X018528Y020672D02*
X019735Y020672D01*
X019735Y020830D02*
X018580Y020830D01*
X018701Y020989D02*
X019735Y020989D01*
X019735Y021147D02*
X018755Y021147D01*
X018755Y021306D02*
X019735Y021306D01*
X019735Y021464D02*
X018700Y021464D01*
X018577Y021623D02*
X019735Y021623D01*
X019735Y021781D02*
X018531Y021781D01*
X018680Y021940D02*
X019735Y021940D01*
X019735Y022098D02*
X018746Y022098D01*
X018755Y022257D02*
X019735Y022257D01*
X019735Y022415D02*
X018720Y022415D01*
X018626Y022574D02*
X019735Y022574D01*
X019735Y022732D02*
X018386Y022732D01*
X018064Y022732D02*
X015136Y022732D01*
X015376Y022574D02*
X017824Y022574D01*
X017730Y022415D02*
X015624Y022415D01*
X015783Y022257D02*
X017695Y022257D01*
X017704Y022098D02*
X015934Y022098D01*
X015965Y021940D02*
X017770Y021940D01*
X017919Y021781D02*
X015965Y021781D01*
X015965Y021623D02*
X017873Y021623D01*
X017725Y021225D02*
X018225Y021225D01*
X018225Y022225D01*
X020215Y023208D02*
X032735Y023208D01*
X032735Y023366D02*
X020215Y023366D01*
X020215Y023525D02*
X032735Y023525D01*
X032735Y023683D02*
X020215Y023683D01*
X020215Y023842D02*
X032735Y023842D01*
X032735Y024000D02*
X020215Y024000D01*
X020215Y024159D02*
X032735Y024159D01*
X032735Y024317D02*
X020215Y024317D01*
X020215Y024476D02*
X032735Y024476D01*
X032735Y024634D02*
X020215Y024634D01*
X020215Y024793D02*
X020692Y024793D01*
X020422Y024951D02*
X020290Y024951D01*
X022179Y026853D02*
X027262Y026853D01*
X027445Y027012D02*
X022021Y027012D01*
X021751Y027170D02*
X027707Y027170D01*
X028225Y025975D02*
X032475Y025975D01*
X033414Y027487D02*
X002036Y027487D01*
X001971Y027646D02*
X033479Y027646D01*
X033602Y027804D02*
X001848Y027804D01*
X001666Y027963D02*
X033784Y027963D01*
X034991Y026853D02*
X035025Y026853D01*
X035025Y026695D02*
X034897Y026695D01*
X035025Y026536D02*
X034738Y026536D01*
X025725Y022475D02*
X025225Y022475D01*
X024975Y022225D01*
X024975Y018975D01*
X025225Y018725D01*
X025725Y018725D01*
X025264Y018453D02*
X023505Y018453D01*
X023505Y018370D02*
X023505Y018580D01*
X023424Y018775D01*
X023275Y018924D01*
X023080Y019005D01*
X022870Y019005D01*
X022675Y018924D01*
X022526Y018775D01*
X022445Y018580D01*
X022445Y018370D01*
X022526Y018175D01*
X022675Y018026D01*
X022735Y018001D01*
X022735Y017699D01*
X022675Y017674D01*
X022526Y017525D01*
X022445Y017330D01*
X022445Y017120D01*
X022526Y016925D01*
X022675Y016776D01*
X022870Y016695D01*
X023080Y016695D01*
X023275Y016776D01*
X023424Y016925D01*
X023505Y017120D01*
X023505Y017330D01*
X023424Y017525D01*
X023275Y017674D01*
X023215Y017699D01*
X023215Y018001D01*
X023275Y018026D01*
X023424Y018175D01*
X023505Y018370D01*
X023474Y018294D02*
X025406Y018294D01*
X025386Y018136D02*
X023385Y018136D01*
X023215Y017977D02*
X025256Y017977D01*
X025195Y017819D02*
X023215Y017819D01*
X023290Y017660D02*
X025195Y017660D01*
X025244Y017502D02*
X023434Y017502D01*
X023500Y017343D02*
X025357Y017343D01*
X025449Y017185D02*
X023505Y017185D01*
X023466Y017026D02*
X025276Y017026D01*
X025210Y016868D02*
X023367Y016868D01*
X023114Y016709D02*
X025195Y016709D01*
X025224Y016551D02*
X021215Y016551D01*
X021215Y016709D02*
X022836Y016709D01*
X022583Y016868D02*
X021215Y016868D01*
X021215Y017026D02*
X022484Y017026D01*
X022445Y017185D02*
X021215Y017185D01*
X021215Y017343D02*
X022450Y017343D01*
X022516Y017502D02*
X021215Y017502D01*
X021215Y017660D02*
X022660Y017660D01*
X022735Y017819D02*
X021215Y017819D01*
X021151Y017977D02*
X022735Y017977D01*
X022565Y018136D02*
X021007Y018136D01*
X020965Y018294D02*
X022476Y018294D01*
X022445Y018453D02*
X021143Y018453D01*
X021208Y018611D02*
X022458Y018611D01*
X022523Y018770D02*
X021215Y018770D01*
X021171Y018928D02*
X022684Y018928D01*
X022975Y018475D02*
X022975Y017225D01*
X023492Y018611D02*
X025000Y018611D01*
X024841Y018770D02*
X023427Y018770D01*
X023266Y018928D02*
X024735Y018928D01*
X024735Y019087D02*
X021056Y019087D01*
X020965Y019245D02*
X024735Y019245D01*
X024735Y019404D02*
X020965Y019404D01*
X020965Y019562D02*
X024735Y019562D01*
X024735Y019721D02*
X020965Y019721D01*
X020965Y019879D02*
X024735Y019879D01*
X024735Y020038D02*
X020965Y020038D01*
X020965Y020196D02*
X024735Y020196D01*
X024735Y020355D02*
X020965Y020355D01*
X020965Y020513D02*
X024735Y020513D01*
X024735Y020672D02*
X020965Y020672D01*
X020965Y020830D02*
X024735Y020830D01*
X024735Y020989D02*
X020965Y020989D01*
X020965Y021147D02*
X024735Y021147D01*
X024735Y021306D02*
X020965Y021306D01*
X020965Y021464D02*
X024735Y021464D01*
X024735Y021623D02*
X020965Y021623D01*
X021120Y021781D02*
X024735Y021781D01*
X024735Y021940D02*
X021279Y021940D01*
X021437Y022098D02*
X022602Y022098D01*
X022975Y022475D02*
X021475Y022475D01*
X020725Y021725D01*
X020725Y018725D01*
X020725Y017725D02*
X020975Y017475D01*
X020975Y011775D01*
X022975Y012225D02*
X022975Y013225D01*
X021215Y014015D02*
X025485Y014015D01*
X025485Y014173D02*
X021215Y014173D01*
X021215Y014332D02*
X025485Y014332D01*
X025485Y014490D02*
X021215Y014490D01*
X021215Y014649D02*
X025485Y014649D01*
X025485Y014807D02*
X021215Y014807D01*
X021215Y014966D02*
X025485Y014966D01*
X025485Y015124D02*
X021215Y015124D01*
X021215Y015283D02*
X025485Y015283D01*
X025485Y015441D02*
X021215Y015441D01*
X021215Y015600D02*
X025485Y015600D01*
X025485Y015758D02*
X021215Y015758D01*
X021215Y015917D02*
X025485Y015917D01*
X025485Y016075D02*
X021215Y016075D01*
X021215Y016234D02*
X025485Y016234D01*
X025308Y016392D02*
X021215Y016392D01*
X020735Y013698D02*
X020707Y013698D01*
X025725Y012225D02*
X025725Y016725D01*
X028709Y015441D02*
X030485Y015441D01*
X030485Y015283D02*
X028755Y015283D01*
X028755Y015124D02*
X030485Y015124D01*
X030376Y014966D02*
X028691Y014966D01*
X028557Y014807D02*
X030218Y014807D01*
X030059Y014649D02*
X028551Y014649D01*
X030579Y014490D02*
X030583Y014490D01*
X026475Y009975D02*
X026475Y004725D01*
X025421Y004029D02*
X023279Y004029D01*
X023430Y004188D02*
X025270Y004188D01*
X025205Y004346D02*
X023685Y004346D01*
X023844Y004505D02*
X025195Y004505D01*
X027116Y003195D02*
X027116Y003195D01*
X027147Y003237D02*
X022285Y003237D01*
X022381Y003078D02*
X027049Y003078D01*
X027047Y003075D02*
X027047Y003075D01*
X026981Y002920D02*
X022448Y002920D01*
X022496Y002761D02*
X026936Y002761D01*
X026948Y002817D02*
X026948Y002817D01*
X026911Y002603D02*
X022525Y002603D01*
X022521Y002444D02*
X028145Y002444D01*
X027005Y001969D02*
X022424Y001969D01*
X022480Y002127D02*
X026950Y002127D01*
X026918Y002286D02*
X022517Y002286D01*
X022346Y001810D02*
X027085Y001810D01*
X027193Y001652D02*
X022235Y001652D01*
X022079Y001493D02*
X027343Y001493D01*
X027307Y001524D02*
X027307Y001524D01*
X027559Y001335D02*
X021863Y001335D01*
X022149Y003395D02*
X027277Y003395D01*
X027290Y003410D02*
X027290Y003410D01*
X027464Y003554D02*
X021954Y003554D01*
X021631Y003712D02*
X027761Y003712D01*
X025462Y007992D02*
X023965Y007992D01*
X026180Y008784D02*
X026235Y008784D01*
X025337Y019087D02*
X025215Y019087D01*
X024735Y022098D02*
X023348Y022098D01*
X023458Y022257D02*
X024735Y022257D01*
X024826Y022415D02*
X023505Y022415D01*
X023505Y022574D02*
X024984Y022574D01*
X025258Y022732D02*
X023442Y022732D01*
X023309Y022891D02*
X025391Y022891D01*
X012725Y018136D02*
X011732Y018136D01*
X011755Y017977D02*
X012735Y017977D01*
X012735Y017819D02*
X011734Y017819D01*
X011660Y017660D02*
X012735Y017660D01*
X012735Y017502D02*
X011467Y017502D01*
X010983Y017502D02*
X010715Y017502D01*
X010715Y017343D02*
X012735Y017343D01*
X012735Y017185D02*
X010715Y017185D01*
X010715Y017026D02*
X012735Y017026D01*
X012735Y016868D02*
X010715Y016868D01*
X010715Y016709D02*
X012735Y016709D01*
X012735Y016551D02*
X010715Y016551D01*
X010749Y017660D02*
X010790Y017660D01*
X010725Y017975D02*
X010475Y017725D01*
X010475Y013975D01*
X010725Y013725D01*
X011225Y013725D01*
X011630Y013381D02*
X011735Y013381D01*
X011722Y013539D02*
X011735Y013539D01*
X011735Y013222D02*
X011396Y013222D01*
X011637Y012113D02*
X011723Y012113D01*
X011225Y017975D02*
X010725Y017975D01*
X011656Y018294D02*
X012567Y018294D01*
X012225Y018975D02*
X011225Y018975D01*
X008225Y021225D02*
X008225Y022225D01*
D16*
X016475Y015975D03*
X020475Y013975D03*
X020975Y011775D03*
X015975Y009975D03*
X029725Y011725D03*
X029975Y014225D03*
X033475Y010975D03*
X034725Y004225D03*
M02*
