%
M48
M72
T01C0.0400
%
T01
X2180Y2200
X2180Y3200
X2180Y4200
X2180Y5200
X5180Y5200
X6180Y5200
X6180Y4200
X6180Y3200
X6180Y2200
X5180Y2200
X5180Y3200
X5180Y4200
X9180Y4200
X9180Y3200
X9180Y2200
X10455Y2200
X10455Y3200
X10455Y4200
X10455Y5200
X9180Y5200
X9180Y9476
X9180Y10476
X9180Y11476
X9180Y12476
X10455Y12476
X10455Y11476
X10455Y10476
X10455Y9476
X13455Y9476
X14455Y9476
X14455Y10476
X13455Y10476
X13455Y11476
X14455Y11476
X14455Y12476
X13455Y12476
X17455Y12476
X17455Y11476
X17455Y10476
X17455Y9476
X18731Y9476
X18731Y10476
X18731Y11476
X18731Y12476
X21731Y12476
X22731Y12476
X22731Y11476
X21731Y11476
X21731Y10476
X22731Y10476
X22731Y9476
X21731Y9476
X25731Y9476
X25731Y10476
X25731Y11476
X25731Y12476
X27007Y12476
X27007Y11476
X27007Y10476
X27007Y9476
X30007Y9476
X31007Y9476
X31007Y10476
X31007Y11476
X31007Y12476
X30007Y12476
X30007Y11476
X30007Y10476
X34007Y10476
X34007Y11476
X34007Y12476
X34007Y9476
X34007Y5200
X34007Y4200
X34007Y3200
X34007Y2200
X31007Y2200
X31007Y3200
X31007Y4200
X31007Y5200
X30007Y5200
X30007Y4200
X30007Y3200
X30007Y2200
X27007Y2200
X27007Y3200
X27007Y4200
X27007Y5200
X25731Y5200
X25731Y4200
X25731Y3200
X25731Y2200
X22731Y2200
X22731Y3200
X21731Y3200
X21731Y2200
X21731Y4200
X22731Y4200
X22731Y5200
X21731Y5200
X18731Y5200
X18731Y4200
X18731Y3200
X18731Y2200
X17455Y2200
X17455Y3200
X17455Y4200
X17455Y5200
X14455Y5200
X13455Y5200
X13455Y4200
X14455Y4200
X14455Y3200
X13455Y3200
X13455Y2200
X14455Y2200
X6180Y9476
X6180Y10476
X6180Y11476
X6180Y12476
X5180Y12476
X5180Y11476
X5180Y10476
X5180Y9476
X2180Y9476
X2180Y10476
X2180Y11476
X2180Y12476
X2180Y16751
X2180Y17751
X2180Y18751
X2180Y19751
X5180Y19751
X6180Y19751
X6180Y18751
X6180Y17751
X6180Y16751
X5180Y16751
X5180Y17751
X5180Y18751
X9180Y18751
X9180Y17751
X9180Y16751
X10455Y16751
X10455Y17751
X10455Y18751
X10455Y19751
X9180Y19751
X9180Y24027
X9180Y25027
X9180Y26027
X9180Y27027
X10455Y27027
X10455Y26027
X10455Y25027
X10455Y24027
X13455Y24027
X14455Y24027
X14455Y25027
X13455Y25027
X13455Y26027
X14455Y26027
X14455Y27027
X13455Y27027
X17455Y27027
X17455Y26027
X17455Y25027
X17455Y24027
X18731Y24027
X18731Y25027
X18731Y26027
X18731Y27027
X21731Y27027
X22731Y27027
X22731Y26027
X21731Y26027
X21731Y25027
X22731Y25027
X22731Y24027
X21731Y24027
X25731Y24027
X25731Y25027
X25731Y26027
X25731Y27027
X27007Y27027
X27007Y26027
X27007Y25027
X27007Y24027
X30007Y24027
X31007Y24027
X31007Y25027
X31007Y26027
X31007Y27027
X30007Y27027
X30007Y26027
X30007Y25027
X34007Y25027
X34007Y26027
X34007Y27027
X34007Y24027
X34007Y19751
X34007Y18751
X34007Y17751
X34007Y16751
X31007Y16751
X31007Y17751
X31007Y18751
X31007Y19751
X30007Y19751
X30007Y18751
X30007Y17751
X30007Y16751
X27007Y16751
X27007Y17751
X27007Y18751
X27007Y19751
X25731Y19751
X25731Y18751
X25731Y17751
X25731Y16751
X22731Y16751
X21731Y16751
X21731Y17751
X22731Y17751
X22731Y18751
X21731Y18751
X21731Y19751
X22731Y19751
X18731Y19751
X18731Y18751
X18731Y17751
X18731Y16751
X17455Y16751
X17455Y17751
X17455Y18751
X17455Y19751
X14455Y19751
X13455Y19751
X13455Y18751
X14455Y18751
X14455Y17751
X13455Y17751
X13455Y16751
X14455Y16751
X6180Y24027
X6180Y25027
X6180Y26027
X6180Y27027
X5180Y27027
X5180Y26027
X5180Y25027
X5180Y24027
X2180Y24027
X2180Y25027
X2180Y26027
X2180Y27027
X2180Y31302
X2180Y32302
X2180Y33302
X2180Y34302
X5180Y34302
X5180Y33302
X5180Y32302
X5180Y31302
X6180Y31302
X6180Y32302
X6180Y33302
X6180Y34302
X9180Y34302
X9180Y33302
X9180Y32302
X9180Y31302
X10455Y31302
X10455Y32302
X10455Y33302
X10455Y34302
X13455Y34302
X14455Y34302
X14455Y33302
X13455Y33302
X13455Y32302
X14455Y32302
X14455Y31302
X13455Y31302
X17455Y31302
X17455Y32302
X17455Y33302
X17455Y34302
X18731Y34302
X18731Y33302
X18731Y32302
X18731Y31302
X21731Y31302
X22731Y31302
X22731Y32302
X21731Y32302
X21731Y33302
X22731Y33302
X22731Y34302
X21731Y34302
X25731Y34302
X25731Y33302
X25731Y32302
X25731Y31302
X27007Y31302
X27007Y32302
X27007Y33302
X27007Y34302
X30007Y34302
X31007Y34302
X31007Y33302
X31007Y32302
X31007Y31302
X30007Y31302
X30007Y32302
X30007Y33302
X34007Y33302
X34007Y32302
X34007Y31302
X34007Y34302
M30
