G75*
%MOIN*%
%OFA0B0*%
%FSLAX24Y24*%
%IPPOS*%
%LPD*%
%AMOC8*
5,1,8,0,0,1.08239X$1,22.5*
%
%ADD10C,0.0740*%
%ADD11R,0.0740X0.0740*%
%ADD12C,0.0160*%
D10*
X002180Y002200D03*
X002180Y003200D03*
X002180Y004200D03*
X002180Y005200D03*
X005180Y005200D03*
X006180Y005200D03*
X006180Y004200D03*
X006180Y003200D03*
X005180Y003200D03*
X005180Y002200D03*
X005180Y004200D03*
X009180Y004200D03*
X009180Y003200D03*
X010455Y003200D03*
X010455Y002200D03*
X010455Y004200D03*
X010455Y005200D03*
X009180Y005200D03*
X010455Y009476D03*
X010455Y010476D03*
X010455Y011476D03*
X010455Y012476D03*
X009180Y012476D03*
X009180Y011476D03*
X009180Y010476D03*
X006180Y010476D03*
X006180Y011476D03*
X006180Y012476D03*
X005180Y012476D03*
X005180Y011476D03*
X005180Y010476D03*
X005180Y009476D03*
X002180Y009476D03*
X002180Y010476D03*
X002180Y011476D03*
X002180Y012476D03*
X002180Y016751D03*
X002180Y017751D03*
X002180Y018751D03*
X002180Y019751D03*
X005180Y019751D03*
X006180Y019751D03*
X006180Y018751D03*
X006180Y017751D03*
X005180Y017751D03*
X005180Y016751D03*
X005180Y018751D03*
X009180Y018751D03*
X009180Y017751D03*
X010455Y017751D03*
X010455Y016751D03*
X010455Y018751D03*
X010455Y019751D03*
X009180Y019751D03*
X010455Y024027D03*
X010455Y025027D03*
X010455Y026027D03*
X010455Y027027D03*
X009180Y027027D03*
X009180Y026027D03*
X009180Y025027D03*
X006180Y025027D03*
X006180Y026027D03*
X006180Y027027D03*
X005180Y027027D03*
X005180Y026027D03*
X005180Y025027D03*
X005180Y024027D03*
X002180Y024027D03*
X002180Y025027D03*
X002180Y026027D03*
X002180Y027027D03*
X002180Y031302D03*
X002180Y032302D03*
X002180Y033302D03*
X002180Y034302D03*
X005180Y034302D03*
X005180Y033302D03*
X005180Y032302D03*
X005180Y031302D03*
X006180Y032302D03*
X006180Y033302D03*
X006180Y034302D03*
X009180Y034302D03*
X009180Y033302D03*
X009180Y032302D03*
X010455Y032302D03*
X010455Y031302D03*
X010455Y033302D03*
X010455Y034302D03*
X013455Y034302D03*
X014455Y034302D03*
X014455Y033302D03*
X013455Y033302D03*
X013455Y032302D03*
X014455Y032302D03*
X013455Y031302D03*
X017455Y032302D03*
X017455Y033302D03*
X017455Y034302D03*
X018731Y034302D03*
X018731Y033302D03*
X018731Y032302D03*
X018731Y031302D03*
X021731Y031302D03*
X021731Y032302D03*
X022731Y032302D03*
X022731Y033302D03*
X021731Y033302D03*
X021731Y034302D03*
X022731Y034302D03*
X025731Y034302D03*
X025731Y033302D03*
X025731Y032302D03*
X027007Y032302D03*
X027007Y031302D03*
X027007Y033302D03*
X027007Y034302D03*
X030007Y034302D03*
X031007Y034302D03*
X031007Y033302D03*
X031007Y032302D03*
X030007Y032302D03*
X030007Y031302D03*
X030007Y033302D03*
X034007Y033302D03*
X034007Y032302D03*
X034007Y034302D03*
X034007Y027027D03*
X034007Y026027D03*
X034007Y025027D03*
X031007Y025027D03*
X031007Y026027D03*
X031007Y027027D03*
X030007Y027027D03*
X030007Y026027D03*
X030007Y025027D03*
X030007Y024027D03*
X027007Y024027D03*
X027007Y025027D03*
X027007Y026027D03*
X027007Y027027D03*
X025731Y027027D03*
X025731Y026027D03*
X025731Y025027D03*
X022731Y025027D03*
X021731Y025027D03*
X021731Y026027D03*
X022731Y026027D03*
X022731Y027027D03*
X021731Y027027D03*
X018731Y027027D03*
X018731Y026027D03*
X018731Y025027D03*
X018731Y024027D03*
X017455Y025027D03*
X017455Y026027D03*
X017455Y027027D03*
X014455Y027027D03*
X013455Y027027D03*
X013455Y026027D03*
X014455Y026027D03*
X014455Y025027D03*
X013455Y025027D03*
X013455Y024027D03*
X013455Y019751D03*
X014455Y019751D03*
X014455Y018751D03*
X013455Y018751D03*
X013455Y017751D03*
X014455Y017751D03*
X013455Y016751D03*
X017455Y017751D03*
X017455Y018751D03*
X017455Y019751D03*
X018731Y019751D03*
X018731Y018751D03*
X018731Y017751D03*
X018731Y016751D03*
X021731Y016751D03*
X021731Y017751D03*
X022731Y017751D03*
X022731Y018751D03*
X021731Y018751D03*
X021731Y019751D03*
X022731Y019751D03*
X025731Y019751D03*
X025731Y018751D03*
X025731Y017751D03*
X027007Y017751D03*
X027007Y016751D03*
X027007Y018751D03*
X027007Y019751D03*
X030007Y019751D03*
X031007Y019751D03*
X031007Y018751D03*
X031007Y017751D03*
X030007Y017751D03*
X030007Y016751D03*
X030007Y018751D03*
X034007Y018751D03*
X034007Y017751D03*
X034007Y019751D03*
X034007Y012476D03*
X034007Y011476D03*
X034007Y010476D03*
X031007Y010476D03*
X031007Y011476D03*
X031007Y012476D03*
X030007Y012476D03*
X030007Y011476D03*
X030007Y010476D03*
X030007Y009476D03*
X027007Y009476D03*
X027007Y010476D03*
X027007Y011476D03*
X027007Y012476D03*
X025731Y012476D03*
X025731Y011476D03*
X025731Y010476D03*
X022731Y010476D03*
X021731Y010476D03*
X021731Y011476D03*
X022731Y011476D03*
X022731Y012476D03*
X021731Y012476D03*
X018731Y012476D03*
X018731Y011476D03*
X018731Y010476D03*
X018731Y009476D03*
X017455Y010476D03*
X017455Y011476D03*
X017455Y012476D03*
X014455Y012476D03*
X013455Y012476D03*
X013455Y011476D03*
X014455Y011476D03*
X014455Y010476D03*
X013455Y010476D03*
X013455Y009476D03*
X013455Y005200D03*
X014455Y005200D03*
X014455Y004200D03*
X013455Y004200D03*
X013455Y003200D03*
X013455Y002200D03*
X014455Y003200D03*
X017455Y003200D03*
X017455Y004200D03*
X017455Y005200D03*
X018731Y005200D03*
X018731Y004200D03*
X018731Y003200D03*
X018731Y002200D03*
X021731Y002200D03*
X021731Y003200D03*
X022731Y003200D03*
X022731Y004200D03*
X021731Y004200D03*
X021731Y005200D03*
X022731Y005200D03*
X025731Y005200D03*
X025731Y004200D03*
X025731Y003200D03*
X027007Y003200D03*
X027007Y002200D03*
X027007Y004200D03*
X027007Y005200D03*
X030007Y005200D03*
X031007Y005200D03*
X031007Y004200D03*
X031007Y003200D03*
X030007Y003200D03*
X030007Y002200D03*
X030007Y004200D03*
X034007Y004200D03*
X034007Y003200D03*
X034007Y005200D03*
X021731Y009476D03*
X021731Y024027D03*
D11*
X022731Y024027D03*
X025731Y024027D03*
X031007Y024027D03*
X034007Y024027D03*
X034007Y031302D03*
X031007Y031302D03*
X025731Y031302D03*
X022731Y031302D03*
X017455Y031302D03*
X014455Y031302D03*
X009180Y031302D03*
X006180Y031302D03*
X006180Y024027D03*
X009180Y024027D03*
X014455Y024027D03*
X017455Y024027D03*
X017455Y016751D03*
X014455Y016751D03*
X009180Y016751D03*
X006180Y016751D03*
X006180Y009476D03*
X009180Y009476D03*
X014455Y009476D03*
X017455Y009476D03*
X022731Y009476D03*
X025731Y009476D03*
X031007Y009476D03*
X034007Y009476D03*
X034007Y002200D03*
X031007Y002200D03*
X025731Y002200D03*
X022731Y002200D03*
X017455Y002200D03*
X014455Y002200D03*
X009180Y002200D03*
X006180Y002200D03*
X022731Y016751D03*
X025731Y016751D03*
X031007Y016751D03*
X034007Y016751D03*
D12*
X031007Y016751D01*
X031007Y017751D02*
X034007Y017751D01*
X034007Y018751D02*
X031007Y018751D01*
X031212Y019240D02*
X031218Y019241D01*
X031295Y019281D01*
X031365Y019332D01*
X031426Y019393D01*
X031477Y019463D01*
X031516Y019540D01*
X031543Y019622D01*
X031557Y019708D01*
X031557Y019731D01*
X031027Y019731D01*
X031027Y019771D01*
X031557Y019771D01*
X031557Y019794D01*
X031543Y019880D01*
X031516Y019962D01*
X031477Y020039D01*
X031426Y020109D01*
X031365Y020171D01*
X031295Y020222D01*
X031218Y020261D01*
X031135Y020288D01*
X031050Y020301D01*
X031027Y020301D01*
X031027Y019771D01*
X030987Y019771D01*
X030987Y020301D01*
X030963Y020301D01*
X030878Y020288D01*
X030795Y020261D01*
X030718Y020222D01*
X030648Y020171D01*
X030587Y020109D01*
X030536Y020039D01*
X030497Y019962D01*
X030495Y019957D01*
X030456Y020051D01*
X030307Y020200D01*
X030112Y020281D01*
X029901Y020281D01*
X029706Y020200D01*
X029557Y020051D01*
X029532Y019991D01*
X027481Y019991D01*
X027456Y020051D01*
X027307Y020200D01*
X027112Y020281D01*
X026901Y020281D01*
X026707Y020201D01*
X026707Y021278D01*
X026712Y021331D01*
X026753Y021430D01*
X026828Y021505D01*
X026927Y021546D01*
X026980Y021551D01*
X034007Y021551D01*
X034065Y021545D01*
X034173Y021501D01*
X034173Y021501D01*
X034256Y021418D01*
X034301Y021310D01*
X034307Y021251D01*
X034307Y020213D01*
X034295Y020222D01*
X034218Y020261D01*
X034135Y020288D01*
X034050Y020301D01*
X034027Y020301D01*
X034027Y019771D01*
X033987Y019771D01*
X033987Y020301D01*
X033963Y020301D01*
X033878Y020288D01*
X033795Y020261D01*
X033718Y020222D01*
X033648Y020171D01*
X033587Y020109D01*
X033536Y020039D01*
X033497Y019962D01*
X033470Y019880D01*
X033457Y019794D01*
X033457Y019771D01*
X033987Y019771D01*
X033987Y019731D01*
X033457Y019731D01*
X033457Y019708D01*
X033470Y019622D01*
X033497Y019540D01*
X033536Y019463D01*
X033587Y019393D01*
X033648Y019332D01*
X033718Y019281D01*
X033795Y019241D01*
X033801Y019240D01*
X033706Y019200D01*
X033557Y019051D01*
X033532Y018991D01*
X031481Y018991D01*
X031456Y019051D01*
X031307Y019200D01*
X031212Y019240D01*
X031260Y019220D02*
X033754Y019220D01*
X033601Y019379D02*
X031412Y019379D01*
X031515Y019537D02*
X033498Y019537D01*
X033459Y019696D02*
X031555Y019696D01*
X031547Y019854D02*
X033466Y019854D01*
X033522Y020013D02*
X031491Y020013D01*
X031364Y020171D02*
X033649Y020171D01*
X033987Y020171D02*
X034027Y020171D01*
X034027Y020013D02*
X033987Y020013D01*
X033987Y019854D02*
X034027Y019854D01*
X034007Y019751D02*
X031007Y019751D01*
X030987Y019854D02*
X031027Y019854D01*
X031027Y020013D02*
X030987Y020013D01*
X030987Y020171D02*
X031027Y020171D01*
X030649Y020171D02*
X030336Y020171D01*
X030472Y020013D02*
X030522Y020013D01*
X030007Y019751D02*
X027007Y019751D01*
X027472Y020013D02*
X029541Y020013D01*
X029677Y020171D02*
X027336Y020171D01*
X026707Y020330D02*
X034307Y020330D01*
X034307Y020488D02*
X026707Y020488D01*
X026707Y020647D02*
X034307Y020647D01*
X034307Y020805D02*
X026707Y020805D01*
X026707Y020964D02*
X034307Y020964D01*
X034307Y021122D02*
X026707Y021122D01*
X026707Y021281D02*
X034304Y021281D01*
X034235Y021439D02*
X026762Y021439D01*
X026025Y021310D02*
X026031Y021251D01*
X026031Y020213D01*
X026019Y020222D01*
X025942Y020261D01*
X025860Y020288D01*
X025774Y020301D01*
X025751Y020301D01*
X025751Y019771D01*
X025711Y019771D01*
X025711Y019731D01*
X025181Y019731D01*
X025181Y019708D01*
X025195Y019622D01*
X025221Y019540D01*
X025261Y019463D01*
X025311Y019393D01*
X025373Y019332D01*
X025443Y019281D01*
X025520Y019241D01*
X025525Y019240D01*
X025431Y019200D01*
X025282Y019051D01*
X025257Y018991D01*
X023205Y018991D01*
X023180Y019051D01*
X023031Y019200D01*
X022937Y019240D01*
X022942Y019241D01*
X023019Y019281D01*
X023089Y019332D01*
X023150Y019393D01*
X023201Y019463D01*
X023241Y019540D01*
X023267Y019622D01*
X023281Y019708D01*
X023281Y019731D01*
X022751Y019731D01*
X022751Y019771D01*
X023281Y019771D01*
X023281Y019794D01*
X023267Y019880D01*
X023241Y019962D01*
X023201Y020039D01*
X023150Y020109D01*
X023089Y020171D01*
X025373Y020171D01*
X025311Y020109D01*
X025261Y020039D01*
X025221Y019962D01*
X025195Y019880D01*
X025181Y019794D01*
X025181Y019771D01*
X025711Y019771D01*
X025711Y020301D01*
X025688Y020301D01*
X025602Y020288D01*
X025520Y020261D01*
X025443Y020222D01*
X025373Y020171D01*
X025247Y020013D02*
X023215Y020013D01*
X023272Y019854D02*
X025190Y019854D01*
X025183Y019696D02*
X023279Y019696D01*
X023239Y019537D02*
X025223Y019537D01*
X025326Y019379D02*
X023136Y019379D01*
X022984Y019220D02*
X025478Y019220D01*
X025292Y019062D02*
X023170Y019062D01*
X022731Y018751D02*
X025731Y018751D01*
X025731Y017751D02*
X022731Y017751D01*
X021731Y017751D02*
X018731Y017751D01*
X018731Y018751D02*
X021731Y018751D01*
X021731Y019751D02*
X018731Y019751D01*
X019061Y020171D02*
X021401Y020171D01*
X021431Y020200D02*
X021282Y020051D01*
X021257Y019991D01*
X019205Y019991D01*
X019180Y020051D01*
X019031Y020200D01*
X018836Y020281D01*
X018626Y020281D01*
X018431Y020201D01*
X018431Y021278D01*
X018436Y021331D01*
X018477Y021430D01*
X018553Y021505D01*
X018651Y021546D01*
X018705Y021551D01*
X025731Y021551D01*
X025790Y021545D01*
X025898Y021501D01*
X025980Y021418D01*
X026025Y021310D01*
X026028Y021281D02*
X018431Y021281D01*
X018431Y021122D02*
X026031Y021122D01*
X026031Y020964D02*
X018431Y020964D01*
X018431Y020805D02*
X026031Y020805D01*
X026031Y020647D02*
X018431Y020647D01*
X018431Y020488D02*
X026031Y020488D01*
X026031Y020330D02*
X018431Y020330D01*
X017755Y020330D02*
X010155Y020330D01*
X010155Y020201D02*
X010155Y021278D01*
X010161Y021331D01*
X010202Y021430D01*
X010277Y021505D01*
X010376Y021546D01*
X010429Y021551D01*
X017455Y021551D01*
X017514Y021545D01*
X017622Y021501D01*
X017705Y021418D01*
X017750Y021310D01*
X017755Y021251D01*
X017755Y020213D01*
X017744Y020222D01*
X017667Y020261D01*
X017584Y020288D01*
X017499Y020301D01*
X017475Y020301D01*
X017475Y019771D01*
X017435Y019771D01*
X017435Y019731D01*
X016905Y019731D01*
X016905Y019708D01*
X016919Y019622D01*
X016946Y019540D01*
X016985Y019463D01*
X017036Y019393D01*
X017097Y019332D01*
X017167Y019281D01*
X017244Y019241D01*
X017250Y019240D01*
X017155Y019200D01*
X017006Y019051D01*
X016981Y018991D01*
X014930Y018991D01*
X014905Y019051D01*
X014756Y019200D01*
X014661Y019240D01*
X014667Y019241D01*
X014744Y019281D01*
X014814Y019332D01*
X014875Y019393D01*
X014926Y019463D01*
X014965Y019540D01*
X014992Y019622D01*
X015005Y019708D01*
X015005Y019731D01*
X014475Y019731D01*
X014475Y019771D01*
X014435Y019771D01*
X014435Y020301D01*
X014412Y020301D01*
X014327Y020288D01*
X014244Y020261D01*
X014167Y020222D01*
X014097Y020171D01*
X014036Y020109D01*
X013985Y020039D01*
X013946Y019962D01*
X013944Y019957D01*
X013905Y020051D01*
X013756Y020200D01*
X013561Y020281D01*
X013350Y020281D01*
X013155Y020200D01*
X013006Y020051D01*
X012981Y019991D01*
X010930Y019991D01*
X010905Y020051D01*
X010756Y020200D01*
X010561Y020281D01*
X010350Y020281D01*
X010155Y020201D01*
X010155Y020488D02*
X017755Y020488D01*
X017755Y020647D02*
X010155Y020647D01*
X010155Y020805D02*
X017755Y020805D01*
X017755Y020964D02*
X010155Y020964D01*
X010155Y021122D02*
X017755Y021122D01*
X017753Y021281D02*
X010156Y021281D01*
X010211Y021439D02*
X017684Y021439D01*
X018487Y021439D02*
X025959Y021439D01*
X025751Y020171D02*
X025711Y020171D01*
X025711Y020013D02*
X025751Y020013D01*
X025751Y019854D02*
X025711Y019854D01*
X025731Y019751D02*
X022731Y019751D01*
X022751Y019771D02*
X022711Y019771D01*
X022711Y020301D01*
X022688Y020301D01*
X022602Y020288D01*
X022520Y020261D01*
X022443Y020222D01*
X022373Y020171D01*
X022061Y020171D01*
X022031Y020200D02*
X021836Y020281D01*
X021626Y020281D01*
X021431Y020200D01*
X021266Y020013D02*
X019196Y020013D01*
X017475Y020013D02*
X017435Y020013D01*
X017435Y020171D02*
X017475Y020171D01*
X017435Y020301D02*
X017412Y020301D01*
X017327Y020288D01*
X017244Y020261D01*
X017167Y020222D01*
X017097Y020171D01*
X017036Y020109D01*
X016985Y020039D01*
X016946Y019962D01*
X016919Y019880D01*
X016905Y019794D01*
X016905Y019771D01*
X017435Y019771D01*
X017435Y020301D01*
X017098Y020171D02*
X014813Y020171D01*
X014814Y020171D02*
X014744Y020222D01*
X014667Y020261D01*
X014584Y020288D01*
X014499Y020301D01*
X014475Y020301D01*
X014475Y019771D01*
X015005Y019771D01*
X015005Y019794D01*
X014992Y019880D01*
X014965Y019962D01*
X014926Y020039D01*
X014875Y020109D01*
X014814Y020171D01*
X014940Y020013D02*
X016971Y020013D01*
X016915Y019854D02*
X014996Y019854D01*
X015003Y019696D02*
X016907Y019696D01*
X016947Y019537D02*
X014964Y019537D01*
X014861Y019379D02*
X017050Y019379D01*
X017202Y019220D02*
X014708Y019220D01*
X014895Y019062D02*
X017016Y019062D01*
X017455Y018751D02*
X014455Y018751D01*
X013455Y018751D02*
X010455Y018751D01*
X010455Y017751D02*
X013455Y017751D01*
X014455Y017751D02*
X017455Y017751D01*
X017455Y016751D02*
X014455Y016751D01*
X014455Y019751D02*
X017455Y019751D01*
X017435Y019854D02*
X017475Y019854D01*
X014475Y019854D02*
X014435Y019854D01*
X014435Y020013D02*
X014475Y020013D01*
X014475Y020171D02*
X014435Y020171D01*
X014098Y020171D02*
X013785Y020171D01*
X013921Y020013D02*
X013971Y020013D01*
X013455Y019751D02*
X010455Y019751D01*
X010785Y020171D02*
X013126Y020171D01*
X012990Y020013D02*
X010921Y020013D01*
X009480Y020213D02*
X009480Y021251D01*
X009474Y021310D01*
X009429Y021418D01*
X009346Y021501D01*
X009238Y021545D01*
X009180Y021551D01*
X002153Y021551D01*
X002100Y021546D01*
X002001Y021505D01*
X001926Y021430D01*
X001926Y021430D01*
X001885Y021331D01*
X001880Y021278D01*
X001880Y020201D01*
X002074Y020281D01*
X002285Y020281D01*
X002480Y020200D01*
X002629Y020051D01*
X002654Y019991D01*
X004706Y019991D01*
X004730Y020051D01*
X004880Y020200D01*
X005074Y020281D01*
X005285Y020281D01*
X005480Y020200D01*
X005629Y020051D01*
X005668Y019957D01*
X005670Y019962D01*
X005709Y020039D01*
X005760Y020109D01*
X005822Y020171D01*
X005509Y020171D01*
X005645Y020013D02*
X005696Y020013D01*
X005822Y020171D02*
X005892Y020222D01*
X005969Y020261D01*
X006051Y020288D01*
X006137Y020301D01*
X006160Y020301D01*
X006160Y019771D01*
X006200Y019771D01*
X006730Y019771D01*
X006730Y019794D01*
X006716Y019880D01*
X006690Y019962D01*
X006650Y020039D01*
X006599Y020109D01*
X006538Y020171D01*
X006468Y020222D01*
X006391Y020261D01*
X006309Y020288D01*
X006223Y020301D01*
X006200Y020301D01*
X006200Y019771D01*
X006200Y019731D01*
X006730Y019731D01*
X006730Y019708D01*
X006716Y019622D01*
X006690Y019540D01*
X006650Y019463D01*
X006599Y019393D01*
X006538Y019332D01*
X006468Y019281D01*
X006391Y019241D01*
X006385Y019240D01*
X006480Y019200D01*
X006629Y019051D01*
X006654Y018991D01*
X008706Y018991D01*
X008730Y019051D01*
X008880Y019200D01*
X008974Y019240D01*
X008969Y019241D01*
X008892Y019281D01*
X008822Y019332D01*
X008760Y019393D01*
X008709Y019463D01*
X008670Y019540D01*
X008643Y019622D01*
X008630Y019708D01*
X008630Y019731D01*
X009160Y019731D01*
X009160Y019771D01*
X008630Y019771D01*
X008630Y019794D01*
X008643Y019880D01*
X008670Y019962D01*
X008709Y020039D01*
X008760Y020109D01*
X008822Y020171D01*
X006538Y020171D01*
X006664Y020013D02*
X008696Y020013D01*
X008639Y019854D02*
X006720Y019854D01*
X006728Y019696D02*
X008632Y019696D01*
X008672Y019537D02*
X006688Y019537D01*
X006585Y019379D02*
X008775Y019379D01*
X008927Y019220D02*
X006433Y019220D01*
X006619Y019062D02*
X008741Y019062D01*
X009180Y018751D02*
X006180Y018751D01*
X006180Y017751D02*
X009180Y017751D01*
X009180Y016751D02*
X006180Y016751D01*
X005180Y017751D02*
X002180Y017751D01*
X002180Y018751D02*
X005180Y018751D01*
X005180Y019751D02*
X002180Y019751D01*
X002645Y020013D02*
X004714Y020013D01*
X004850Y020171D02*
X002509Y020171D01*
X001880Y020330D02*
X009480Y020330D01*
X009468Y020222D02*
X009391Y020261D01*
X009309Y020288D01*
X009223Y020301D01*
X009200Y020301D01*
X009200Y019771D01*
X009160Y019771D01*
X009160Y020301D01*
X009137Y020301D01*
X009051Y020288D01*
X008969Y020261D01*
X008892Y020222D01*
X008822Y020171D01*
X009160Y020171D02*
X009200Y020171D01*
X009200Y020013D02*
X009160Y020013D01*
X009160Y019854D02*
X009200Y019854D01*
X009180Y019751D02*
X006180Y019751D01*
X006160Y019854D02*
X006200Y019854D01*
X006200Y020013D02*
X006160Y020013D01*
X006160Y020171D02*
X006200Y020171D01*
X009408Y021439D02*
X001935Y021439D01*
X001880Y021281D02*
X009477Y021281D01*
X009480Y021122D02*
X001880Y021122D01*
X001880Y020964D02*
X009480Y020964D01*
X009480Y020805D02*
X001880Y020805D01*
X001880Y020647D02*
X009480Y020647D01*
X009480Y020488D02*
X001880Y020488D01*
X002180Y025027D02*
X005180Y025027D01*
X005180Y026027D02*
X002180Y026027D01*
X002180Y027027D02*
X005180Y027027D01*
X005668Y027232D02*
X005629Y027327D01*
X005480Y027476D01*
X005285Y027557D01*
X005074Y027557D01*
X004880Y027476D01*
X004730Y027327D01*
X004706Y027267D01*
X002654Y027267D01*
X002629Y027327D01*
X002480Y027476D01*
X002285Y027557D01*
X002074Y027557D01*
X001880Y027476D01*
X001880Y028553D01*
X001885Y028607D01*
X001926Y028705D01*
X002001Y028781D01*
X002100Y028822D01*
X002153Y028827D01*
X009180Y028827D01*
X009238Y028821D01*
X009346Y028776D01*
X009429Y028693D01*
X009474Y028585D01*
X009480Y028527D01*
X009480Y027489D01*
X009468Y027497D01*
X009391Y027536D01*
X009309Y027563D01*
X009223Y027577D01*
X009200Y027577D01*
X009200Y027047D01*
X009160Y027047D01*
X009160Y027577D01*
X009137Y027577D01*
X009051Y027563D01*
X008969Y027536D01*
X008892Y027497D01*
X008822Y027446D01*
X008760Y027385D01*
X008709Y027315D01*
X008670Y027238D01*
X008643Y027156D01*
X008630Y027070D01*
X008630Y027047D01*
X009160Y027047D01*
X009160Y027007D01*
X008630Y027007D01*
X008630Y026983D01*
X008643Y026898D01*
X008670Y026816D01*
X008709Y026739D01*
X008760Y026668D01*
X008822Y026607D01*
X008892Y026556D01*
X008969Y026517D01*
X008974Y026515D01*
X008880Y026476D01*
X008730Y026327D01*
X008706Y026267D01*
X006654Y026267D01*
X006629Y026327D01*
X006480Y026476D01*
X006385Y026515D01*
X006391Y026517D01*
X006468Y026556D01*
X006538Y026607D01*
X006599Y026668D01*
X006650Y026739D01*
X006690Y026816D01*
X006716Y026898D01*
X006730Y026983D01*
X006730Y027007D01*
X006200Y027007D01*
X006200Y027047D01*
X006160Y027047D01*
X006160Y027577D01*
X006137Y027577D01*
X006051Y027563D01*
X005969Y027536D01*
X005892Y027497D01*
X005822Y027446D01*
X005760Y027385D01*
X005709Y027315D01*
X005670Y027238D01*
X005668Y027232D01*
X005639Y027304D02*
X005704Y027304D01*
X005843Y027462D02*
X005494Y027462D01*
X004866Y027462D02*
X002494Y027462D01*
X002639Y027304D02*
X004721Y027304D01*
X006160Y027304D02*
X006200Y027304D01*
X006200Y027462D02*
X006160Y027462D01*
X006200Y027577D02*
X006200Y027047D01*
X006730Y027047D01*
X006730Y027070D01*
X006716Y027156D01*
X006690Y027238D01*
X006650Y027315D01*
X006599Y027385D01*
X006538Y027446D01*
X006468Y027497D01*
X006391Y027536D01*
X006309Y027563D01*
X006223Y027577D01*
X006200Y027577D01*
X006516Y027462D02*
X008843Y027462D01*
X008704Y027304D02*
X006656Y027304D01*
X006718Y027145D02*
X008642Y027145D01*
X008630Y026987D02*
X006730Y026987D01*
X006694Y026828D02*
X008666Y026828D01*
X008760Y026670D02*
X006600Y026670D01*
X006396Y026511D02*
X008964Y026511D01*
X008756Y026353D02*
X006604Y026353D01*
X006180Y026027D02*
X009180Y026027D01*
X009180Y027027D02*
X006180Y027027D01*
X006160Y027145D02*
X006200Y027145D01*
X006180Y025027D02*
X009180Y025027D01*
X009180Y024027D02*
X006180Y024027D01*
X009160Y027145D02*
X009200Y027145D01*
X009200Y027304D02*
X009160Y027304D01*
X009160Y027462D02*
X009200Y027462D01*
X009480Y027621D02*
X001880Y027621D01*
X001880Y027779D02*
X009480Y027779D01*
X009480Y027938D02*
X001880Y027938D01*
X001880Y028096D02*
X009480Y028096D01*
X009480Y028255D02*
X001880Y028255D01*
X001880Y028413D02*
X009480Y028413D01*
X009475Y028572D02*
X001882Y028572D01*
X001951Y028730D02*
X009393Y028730D01*
X010161Y028607D02*
X010202Y028705D01*
X010277Y028781D01*
X010376Y028822D01*
X010429Y028827D01*
X017455Y028827D01*
X017514Y028821D01*
X017622Y028776D01*
X017705Y028693D01*
X017750Y028585D01*
X017755Y028527D01*
X017755Y027489D01*
X017744Y027497D01*
X017667Y027536D01*
X017584Y027563D01*
X017499Y027577D01*
X017475Y027577D01*
X017475Y027047D01*
X017435Y027047D01*
X017435Y027007D01*
X016905Y027007D01*
X016905Y026983D01*
X016919Y026898D01*
X016946Y026816D01*
X016985Y026739D01*
X017036Y026668D01*
X017097Y026607D01*
X017167Y026556D01*
X017244Y026517D01*
X017250Y026515D01*
X017155Y026476D01*
X017006Y026327D01*
X016981Y026267D01*
X014930Y026267D01*
X014905Y026327D01*
X014756Y026476D01*
X014661Y026515D01*
X014667Y026517D01*
X014744Y026556D01*
X014814Y026607D01*
X014875Y026668D01*
X014926Y026739D01*
X014965Y026816D01*
X014992Y026898D01*
X015005Y026983D01*
X015005Y027007D01*
X014475Y027007D01*
X014475Y027047D01*
X014435Y027047D01*
X014435Y027577D01*
X014412Y027577D01*
X014327Y027563D01*
X014244Y027536D01*
X014167Y027497D01*
X014097Y027446D01*
X014036Y027385D01*
X013985Y027315D01*
X013946Y027238D01*
X013944Y027232D01*
X013905Y027327D01*
X013756Y027476D01*
X013561Y027557D01*
X013350Y027557D01*
X013155Y027476D01*
X013006Y027327D01*
X012981Y027267D01*
X010930Y027267D01*
X010905Y027327D01*
X010756Y027476D01*
X010561Y027557D01*
X010350Y027557D01*
X010155Y027476D01*
X010155Y028553D01*
X010161Y028607D01*
X010157Y028572D02*
X017751Y028572D01*
X017755Y028413D02*
X010155Y028413D01*
X010155Y028255D02*
X017755Y028255D01*
X017755Y028096D02*
X010155Y028096D01*
X010155Y027938D02*
X017755Y027938D01*
X017755Y027779D02*
X010155Y027779D01*
X010155Y027621D02*
X017755Y027621D01*
X017475Y027462D02*
X017435Y027462D01*
X017435Y027577D02*
X017412Y027577D01*
X017327Y027563D01*
X017244Y027536D01*
X017167Y027497D01*
X017097Y027446D01*
X017036Y027385D01*
X016985Y027315D01*
X016946Y027238D01*
X016919Y027156D01*
X016905Y027070D01*
X016905Y027047D01*
X017435Y027047D01*
X017435Y027577D01*
X017435Y027304D02*
X017475Y027304D01*
X017475Y027145D02*
X017435Y027145D01*
X017455Y027027D02*
X014455Y027027D01*
X014475Y027047D02*
X014475Y027577D01*
X014499Y027577D01*
X014584Y027563D01*
X014667Y027536D01*
X014744Y027497D01*
X014814Y027446D01*
X014875Y027385D01*
X014926Y027315D01*
X014965Y027238D01*
X014992Y027156D01*
X015005Y027070D01*
X015005Y027047D01*
X014475Y027047D01*
X014475Y027145D02*
X014435Y027145D01*
X014435Y027304D02*
X014475Y027304D01*
X014475Y027462D02*
X014435Y027462D01*
X014119Y027462D02*
X013770Y027462D01*
X013914Y027304D02*
X013979Y027304D01*
X013455Y027027D02*
X010455Y027027D01*
X010770Y027462D02*
X013141Y027462D01*
X012996Y027304D02*
X010914Y027304D01*
X010455Y026027D02*
X013455Y026027D01*
X014455Y026027D02*
X017455Y026027D01*
X017240Y026511D02*
X014671Y026511D01*
X014876Y026670D02*
X017035Y026670D01*
X016942Y026828D02*
X014969Y026828D01*
X015005Y026987D02*
X016905Y026987D01*
X016917Y027145D02*
X014994Y027145D01*
X014932Y027304D02*
X016979Y027304D01*
X017119Y027462D02*
X014792Y027462D01*
X014879Y026353D02*
X017032Y026353D01*
X018431Y027476D02*
X018431Y028553D01*
X018436Y028607D01*
X018477Y028705D01*
X018553Y028781D01*
X018651Y028822D01*
X018705Y028827D01*
X025731Y028827D01*
X025790Y028821D01*
X025898Y028776D01*
X025980Y028693D01*
X026025Y028585D01*
X026031Y028527D01*
X026031Y027489D01*
X026019Y027497D01*
X025942Y027536D01*
X025860Y027563D01*
X025774Y027577D01*
X025751Y027577D01*
X025751Y027047D01*
X025711Y027047D01*
X025711Y027577D01*
X025688Y027577D01*
X025602Y027563D01*
X025520Y027536D01*
X025443Y027497D01*
X025373Y027446D01*
X025311Y027385D01*
X025261Y027315D01*
X025221Y027238D01*
X025195Y027156D01*
X025181Y027070D01*
X025181Y027047D01*
X025711Y027047D01*
X025711Y027007D01*
X025181Y027007D01*
X025181Y026983D01*
X025195Y026898D01*
X025221Y026816D01*
X025261Y026739D01*
X025311Y026668D01*
X025373Y026607D01*
X025443Y026556D01*
X025520Y026517D01*
X025525Y026515D01*
X025431Y026476D01*
X025282Y026327D01*
X025257Y026267D01*
X023205Y026267D01*
X023180Y026327D01*
X023031Y026476D01*
X022937Y026515D01*
X022942Y026517D01*
X023019Y026556D01*
X023089Y026607D01*
X023150Y026668D01*
X023201Y026739D01*
X023241Y026816D01*
X023267Y026898D01*
X023281Y026983D01*
X023281Y027007D01*
X022751Y027007D01*
X022751Y027047D01*
X022711Y027047D01*
X022711Y027577D01*
X022688Y027577D01*
X022602Y027563D01*
X022520Y027536D01*
X022443Y027497D01*
X022373Y027446D01*
X022311Y027385D01*
X022261Y027315D01*
X022221Y027238D01*
X022219Y027232D01*
X022180Y027327D01*
X022031Y027476D01*
X021836Y027557D01*
X021626Y027557D01*
X021431Y027476D01*
X021282Y027327D01*
X021257Y027267D01*
X019205Y027267D01*
X019180Y027327D01*
X019031Y027476D01*
X018836Y027557D01*
X018626Y027557D01*
X018431Y027476D01*
X018431Y027621D02*
X026031Y027621D01*
X026031Y027779D02*
X018431Y027779D01*
X018431Y027938D02*
X026031Y027938D01*
X026031Y028096D02*
X018431Y028096D01*
X018431Y028255D02*
X026031Y028255D01*
X026031Y028413D02*
X018431Y028413D01*
X018433Y028572D02*
X026027Y028572D01*
X025944Y028730D02*
X018502Y028730D01*
X017668Y028730D02*
X010226Y028730D01*
X009180Y031302D02*
X006180Y031302D01*
X006180Y032302D02*
X009180Y032302D01*
X009180Y033302D02*
X006180Y033302D01*
X006385Y033791D02*
X006391Y033793D01*
X006468Y033832D01*
X006538Y033883D01*
X006599Y033944D01*
X006650Y034014D01*
X006690Y034091D01*
X006716Y034174D01*
X006730Y034259D01*
X006730Y034282D01*
X006200Y034282D01*
X006200Y034322D01*
X006730Y034322D01*
X006730Y034346D01*
X006716Y034431D01*
X006690Y034513D01*
X006650Y034591D01*
X006599Y034661D01*
X006538Y034722D01*
X006468Y034773D01*
X006391Y034812D01*
X006309Y034839D01*
X006223Y034852D01*
X006200Y034852D01*
X006200Y034322D01*
X006160Y034322D01*
X006160Y034852D01*
X006137Y034852D01*
X006051Y034839D01*
X005969Y034812D01*
X005892Y034773D01*
X005822Y034722D01*
X005760Y034661D01*
X005709Y034591D01*
X005670Y034513D01*
X005668Y034508D01*
X005629Y034603D01*
X005480Y034752D01*
X005285Y034832D01*
X005074Y034832D01*
X004880Y034752D01*
X004730Y034603D01*
X004706Y034542D01*
X002654Y034542D01*
X002629Y034603D01*
X002480Y034752D01*
X002285Y034832D01*
X002074Y034832D01*
X001880Y034752D01*
X001880Y035829D01*
X001885Y035882D01*
X001926Y035981D01*
X002001Y036056D01*
X002100Y036097D01*
X002153Y036102D01*
X009180Y036102D01*
X009238Y036097D01*
X009346Y036052D01*
X009429Y035969D01*
X009474Y035861D01*
X009480Y035802D01*
X009480Y034764D01*
X009468Y034773D01*
X009391Y034812D01*
X009309Y034839D01*
X009223Y034852D01*
X009200Y034852D01*
X009200Y034322D01*
X009160Y034322D01*
X009160Y034282D01*
X008630Y034282D01*
X008630Y034259D01*
X008643Y034174D01*
X008670Y034091D01*
X008709Y034014D01*
X008760Y033944D01*
X008822Y033883D01*
X008892Y033832D01*
X008969Y033793D01*
X008974Y033791D01*
X008880Y033752D01*
X008730Y033603D01*
X008706Y033542D01*
X006654Y033542D01*
X006629Y033603D01*
X006480Y033752D01*
X006385Y033791D01*
X006409Y033802D02*
X008950Y033802D01*
X008771Y033644D02*
X006588Y033644D01*
X006611Y033961D02*
X008748Y033961D01*
X008661Y034119D02*
X006699Y034119D01*
X006730Y034278D02*
X008630Y034278D01*
X008630Y034322D02*
X009160Y034322D01*
X009160Y034852D01*
X009137Y034852D01*
X009051Y034839D01*
X008969Y034812D01*
X008892Y034773D01*
X008822Y034722D01*
X008760Y034661D01*
X008709Y034591D01*
X008670Y034513D01*
X008643Y034431D01*
X008630Y034346D01*
X008630Y034322D01*
X008645Y034436D02*
X006715Y034436D01*
X006647Y034595D02*
X008712Y034595D01*
X008864Y034753D02*
X006495Y034753D01*
X006200Y034753D02*
X006160Y034753D01*
X006160Y034595D02*
X006200Y034595D01*
X006200Y034436D02*
X006160Y034436D01*
X006180Y034302D02*
X009180Y034302D01*
X009160Y034436D02*
X009200Y034436D01*
X009200Y034595D02*
X009160Y034595D01*
X009160Y034753D02*
X009200Y034753D01*
X009480Y034912D02*
X001880Y034912D01*
X001880Y035070D02*
X009480Y035070D01*
X009480Y035229D02*
X001880Y035229D01*
X001880Y035387D02*
X009480Y035387D01*
X009480Y035546D02*
X001880Y035546D01*
X001880Y035704D02*
X009480Y035704D01*
X009473Y035863D02*
X001883Y035863D01*
X001966Y036021D02*
X009377Y036021D01*
X010161Y035882D02*
X010202Y035981D01*
X010277Y036056D01*
X010376Y036097D01*
X010429Y036102D01*
X017455Y036102D01*
X017514Y036097D01*
X017622Y036052D01*
X017705Y035969D01*
X017750Y035861D01*
X017755Y035802D01*
X017755Y034764D01*
X017744Y034773D01*
X017667Y034812D01*
X017584Y034839D01*
X017499Y034852D01*
X017475Y034852D01*
X017475Y034322D01*
X017435Y034322D01*
X017435Y034282D01*
X016905Y034282D01*
X016905Y034259D01*
X016919Y034174D01*
X016946Y034091D01*
X016985Y034014D01*
X017036Y033944D01*
X017097Y033883D01*
X017167Y033832D01*
X017244Y033793D01*
X017250Y033791D01*
X017155Y033752D01*
X017006Y033603D01*
X016981Y033542D01*
X014930Y033542D01*
X014905Y033603D01*
X014756Y033752D01*
X014661Y033791D01*
X014667Y033793D01*
X014744Y033832D01*
X014814Y033883D01*
X014875Y033944D01*
X014926Y034014D01*
X014965Y034091D01*
X014992Y034174D01*
X015005Y034259D01*
X015005Y034282D01*
X014475Y034282D01*
X014475Y034322D01*
X014435Y034322D01*
X014435Y034852D01*
X014412Y034852D01*
X014327Y034839D01*
X014244Y034812D01*
X014167Y034773D01*
X014097Y034722D01*
X014036Y034661D01*
X013985Y034591D01*
X013946Y034513D01*
X013944Y034508D01*
X013905Y034603D01*
X013756Y034752D01*
X013561Y034832D01*
X013350Y034832D01*
X013155Y034752D01*
X013006Y034603D01*
X012981Y034542D01*
X010930Y034542D01*
X010905Y034603D01*
X010756Y034752D01*
X010561Y034832D01*
X010350Y034832D01*
X010155Y034752D01*
X010155Y035829D01*
X010161Y035882D01*
X010159Y035863D02*
X017749Y035863D01*
X017755Y035704D02*
X010155Y035704D01*
X010155Y035546D02*
X017755Y035546D01*
X017755Y035387D02*
X010155Y035387D01*
X010155Y035229D02*
X017755Y035229D01*
X017755Y035070D02*
X010155Y035070D01*
X010155Y034912D02*
X017755Y034912D01*
X017475Y034753D02*
X017435Y034753D01*
X017435Y034852D02*
X017412Y034852D01*
X017327Y034839D01*
X017244Y034812D01*
X017167Y034773D01*
X017097Y034722D01*
X017036Y034661D01*
X016985Y034591D01*
X016946Y034513D01*
X016919Y034431D01*
X016905Y034346D01*
X016905Y034322D01*
X017435Y034322D01*
X017435Y034852D01*
X017435Y034595D02*
X017475Y034595D01*
X017475Y034436D02*
X017435Y034436D01*
X017455Y034302D02*
X014455Y034302D01*
X014475Y034322D02*
X014475Y034852D01*
X014499Y034852D01*
X014584Y034839D01*
X014667Y034812D01*
X014744Y034773D01*
X014814Y034722D01*
X014875Y034661D01*
X014926Y034591D01*
X014965Y034513D01*
X014992Y034431D01*
X015005Y034346D01*
X015005Y034322D01*
X014475Y034322D01*
X014475Y034436D02*
X014435Y034436D01*
X014435Y034595D02*
X014475Y034595D01*
X014475Y034753D02*
X014435Y034753D01*
X014140Y034753D02*
X013752Y034753D01*
X013908Y034595D02*
X013988Y034595D01*
X013455Y034302D02*
X010455Y034302D01*
X010159Y034753D02*
X010155Y034753D01*
X010752Y034753D02*
X013159Y034753D01*
X013003Y034595D02*
X010908Y034595D01*
X010455Y033302D02*
X013455Y033302D01*
X014455Y033302D02*
X017455Y033302D01*
X017047Y033644D02*
X014864Y033644D01*
X014685Y033802D02*
X017226Y033802D01*
X017024Y033961D02*
X014887Y033961D01*
X014974Y034119D02*
X016937Y034119D01*
X016905Y034278D02*
X015005Y034278D01*
X014990Y034436D02*
X016921Y034436D01*
X016988Y034595D02*
X014923Y034595D01*
X014771Y034753D02*
X017140Y034753D01*
X018431Y034752D02*
X018431Y035829D01*
X018436Y035882D01*
X018477Y035981D01*
X018553Y036056D01*
X018651Y036097D01*
X018705Y036102D01*
X025731Y036102D01*
X025790Y036097D01*
X025898Y036052D01*
X025980Y035969D01*
X026025Y035861D01*
X026031Y035802D01*
X026031Y034764D01*
X026019Y034773D01*
X025942Y034812D01*
X025860Y034839D01*
X025774Y034852D01*
X025751Y034852D01*
X025751Y034322D01*
X025711Y034322D01*
X025711Y034282D01*
X025181Y034282D01*
X025181Y034259D01*
X025195Y034174D01*
X025221Y034091D01*
X025261Y034014D01*
X025311Y033944D01*
X025373Y033883D01*
X025443Y033832D01*
X025520Y033793D01*
X025525Y033791D01*
X025431Y033752D01*
X025282Y033603D01*
X025257Y033542D01*
X023205Y033542D01*
X023180Y033603D01*
X023031Y033752D01*
X022937Y033791D01*
X022942Y033793D01*
X023019Y033832D01*
X023089Y033883D01*
X023150Y033944D01*
X023201Y034014D01*
X023241Y034091D01*
X023267Y034174D01*
X023281Y034259D01*
X023281Y034282D01*
X022751Y034282D01*
X022751Y034322D01*
X023281Y034322D01*
X023281Y034346D01*
X023267Y034431D01*
X023241Y034513D01*
X023201Y034591D01*
X023150Y034661D01*
X023089Y034722D01*
X023019Y034773D01*
X022942Y034812D01*
X022860Y034839D01*
X022774Y034852D01*
X022751Y034852D01*
X022751Y034322D01*
X022711Y034322D01*
X022711Y034852D01*
X022688Y034852D01*
X022602Y034839D01*
X022520Y034812D01*
X022443Y034773D01*
X022373Y034722D01*
X022311Y034661D01*
X022261Y034591D01*
X022221Y034513D01*
X022219Y034508D01*
X022180Y034603D01*
X022031Y034752D01*
X021836Y034832D01*
X021626Y034832D01*
X021431Y034752D01*
X021282Y034603D01*
X021257Y034542D01*
X019205Y034542D01*
X019180Y034603D01*
X019031Y034752D01*
X018836Y034832D01*
X018626Y034832D01*
X018431Y034752D01*
X018431Y034753D02*
X018434Y034753D01*
X018431Y034912D02*
X026031Y034912D01*
X026031Y035070D02*
X018431Y035070D01*
X018431Y035229D02*
X026031Y035229D01*
X026031Y035387D02*
X018431Y035387D01*
X018431Y035546D02*
X026031Y035546D01*
X026031Y035704D02*
X018431Y035704D01*
X018434Y035863D02*
X026025Y035863D01*
X025928Y036021D02*
X018517Y036021D01*
X017653Y036021D02*
X010242Y036021D01*
X010455Y032302D02*
X013455Y032302D01*
X014455Y032302D02*
X017455Y032302D01*
X017455Y031302D02*
X014455Y031302D01*
X017622Y028776D02*
X017622Y028776D01*
X019045Y027462D02*
X021417Y027462D01*
X021272Y027304D02*
X019190Y027304D01*
X018731Y027027D02*
X021731Y027027D01*
X022190Y027304D02*
X022255Y027304D01*
X022394Y027462D02*
X022045Y027462D01*
X022711Y027462D02*
X022751Y027462D01*
X022751Y027577D02*
X022751Y027047D01*
X023281Y027047D01*
X023281Y027070D01*
X023267Y027156D01*
X023241Y027238D01*
X023201Y027315D01*
X023150Y027385D01*
X023089Y027446D01*
X023019Y027497D01*
X022942Y027536D01*
X022860Y027563D01*
X022774Y027577D01*
X022751Y027577D01*
X022751Y027304D02*
X022711Y027304D01*
X022711Y027145D02*
X022751Y027145D01*
X022731Y027027D02*
X025731Y027027D01*
X025711Y027145D02*
X025751Y027145D01*
X025751Y027304D02*
X025711Y027304D01*
X025711Y027462D02*
X025751Y027462D01*
X025394Y027462D02*
X023068Y027462D01*
X023207Y027304D02*
X025255Y027304D01*
X025193Y027145D02*
X023269Y027145D01*
X023281Y026987D02*
X025181Y026987D01*
X025217Y026828D02*
X023245Y026828D01*
X023151Y026670D02*
X025311Y026670D01*
X025515Y026511D02*
X022947Y026511D01*
X023155Y026353D02*
X025307Y026353D01*
X025731Y026027D02*
X022731Y026027D01*
X021731Y026027D02*
X018731Y026027D01*
X018731Y025027D02*
X021731Y025027D01*
X022731Y025027D02*
X025731Y025027D01*
X025731Y024027D02*
X022731Y024027D01*
X022751Y020301D02*
X022751Y019771D01*
X022751Y019854D02*
X022711Y019854D01*
X022711Y020013D02*
X022751Y020013D01*
X022751Y020171D02*
X022711Y020171D01*
X022751Y020301D02*
X022774Y020301D01*
X022860Y020288D01*
X022942Y020261D01*
X023019Y020222D01*
X023089Y020171D01*
X022373Y020171D02*
X022311Y020109D01*
X022261Y020039D01*
X022221Y019962D01*
X022219Y019957D01*
X022180Y020051D01*
X022031Y020200D01*
X022196Y020013D02*
X022247Y020013D01*
X022731Y016751D02*
X025731Y016751D01*
X027007Y017751D02*
X030007Y017751D01*
X030007Y018751D02*
X027007Y018751D01*
X031446Y019062D02*
X033567Y019062D01*
X034007Y014276D02*
X034065Y014270D01*
X034173Y014225D01*
X034256Y014142D01*
X034301Y014034D01*
X034307Y013976D01*
X034307Y012937D01*
X034295Y012946D01*
X034218Y012985D01*
X034135Y013012D01*
X034050Y013026D01*
X034027Y013026D01*
X034027Y012496D01*
X033987Y012496D01*
X033987Y013026D01*
X033963Y013026D01*
X033878Y013012D01*
X033795Y012985D01*
X033718Y012946D01*
X033648Y012895D01*
X033587Y012834D01*
X033536Y012764D01*
X033497Y012687D01*
X033470Y012604D01*
X033457Y012519D01*
X033457Y012496D01*
X033987Y012496D01*
X033987Y012456D01*
X033457Y012456D01*
X033457Y012432D01*
X033470Y012347D01*
X033497Y012264D01*
X033536Y012187D01*
X033587Y012117D01*
X033648Y012056D01*
X033718Y012005D01*
X033795Y011966D01*
X033801Y011964D01*
X033706Y011925D01*
X033557Y011776D01*
X033532Y011716D01*
X031481Y011716D01*
X031456Y011776D01*
X031307Y011925D01*
X031212Y011964D01*
X031218Y011966D01*
X031295Y012005D01*
X031365Y012056D01*
X031426Y012117D01*
X031477Y012187D01*
X031516Y012264D01*
X031543Y012347D01*
X031557Y012432D01*
X031557Y012456D01*
X031027Y012456D01*
X031027Y012496D01*
X031557Y012496D01*
X031557Y012519D01*
X031543Y012604D01*
X031516Y012687D01*
X031477Y012764D01*
X031426Y012834D01*
X031365Y012895D01*
X031295Y012946D01*
X031218Y012985D01*
X031135Y013012D01*
X031050Y013026D01*
X031027Y013026D01*
X031027Y012496D01*
X030987Y012496D01*
X030987Y013026D01*
X030963Y013026D01*
X030878Y013012D01*
X030795Y012985D01*
X030718Y012946D01*
X030648Y012895D01*
X030587Y012834D01*
X030536Y012764D01*
X030497Y012687D01*
X030495Y012681D01*
X030456Y012776D01*
X030307Y012925D01*
X030112Y013006D01*
X029901Y013006D01*
X029706Y012925D01*
X029557Y012776D01*
X029532Y012716D01*
X027481Y012716D01*
X027456Y012776D01*
X027307Y012925D01*
X027112Y013006D01*
X026901Y013006D01*
X026707Y012925D01*
X026707Y014002D01*
X026712Y014055D01*
X026753Y014154D01*
X026828Y014229D01*
X026927Y014270D01*
X026980Y014276D01*
X034007Y014276D01*
X034250Y014148D02*
X026750Y014148D01*
X026707Y013990D02*
X034305Y013990D01*
X034307Y013831D02*
X026707Y013831D01*
X026707Y013673D02*
X034307Y013673D01*
X034307Y013514D02*
X026707Y013514D01*
X026707Y013356D02*
X034307Y013356D01*
X034307Y013197D02*
X026707Y013197D01*
X026707Y013039D02*
X034307Y013039D01*
X034027Y012880D02*
X033987Y012880D01*
X033987Y012722D02*
X034027Y012722D01*
X034027Y012563D02*
X033987Y012563D01*
X034007Y012476D02*
X031007Y012476D01*
X030987Y012563D02*
X031027Y012563D01*
X031027Y012722D02*
X030987Y012722D01*
X030987Y012880D02*
X031027Y012880D01*
X031380Y012880D02*
X033633Y012880D01*
X033515Y012722D02*
X031499Y012722D01*
X031550Y012563D02*
X033464Y012563D01*
X033461Y012405D02*
X031552Y012405D01*
X031507Y012246D02*
X033506Y012246D01*
X033617Y012088D02*
X031396Y012088D01*
X031297Y011929D02*
X033716Y011929D01*
X033555Y011771D02*
X031458Y011771D01*
X031007Y011476D02*
X034007Y011476D01*
X034007Y010476D02*
X031007Y010476D01*
X031007Y009476D02*
X034007Y009476D01*
X034007Y007000D02*
X034065Y006994D01*
X034173Y006949D01*
X034256Y006867D01*
X034301Y006759D01*
X034307Y006700D01*
X034307Y005662D01*
X034295Y005670D01*
X034218Y005710D01*
X034135Y005736D01*
X034050Y005750D01*
X034027Y005750D01*
X034027Y005220D01*
X033987Y005220D01*
X033987Y005750D01*
X033963Y005750D01*
X033878Y005736D01*
X033795Y005710D01*
X033718Y005670D01*
X033648Y005620D01*
X033587Y005558D01*
X033536Y005488D01*
X033497Y005411D01*
X033470Y005329D01*
X033457Y005243D01*
X033457Y005220D01*
X033987Y005220D01*
X033987Y005180D01*
X033457Y005180D01*
X033457Y005157D01*
X033470Y005071D01*
X033497Y004989D01*
X033536Y004912D01*
X033587Y004842D01*
X033648Y004780D01*
X033718Y004730D01*
X033795Y004690D01*
X033801Y004689D01*
X033706Y004649D01*
X033557Y004500D01*
X033532Y004440D01*
X031481Y004440D01*
X031456Y004500D01*
X031307Y004649D01*
X031212Y004689D01*
X031218Y004690D01*
X031295Y004730D01*
X031365Y004780D01*
X031426Y004842D01*
X031477Y004912D01*
X031516Y004989D01*
X031543Y005071D01*
X031557Y005157D01*
X031557Y005180D01*
X031027Y005180D01*
X031027Y005220D01*
X031557Y005220D01*
X031557Y005243D01*
X031543Y005329D01*
X031516Y005411D01*
X031477Y005488D01*
X031426Y005558D01*
X031365Y005620D01*
X031295Y005670D01*
X031218Y005710D01*
X031135Y005736D01*
X031050Y005750D01*
X031027Y005750D01*
X031027Y005220D01*
X030987Y005220D01*
X030987Y005750D01*
X030963Y005750D01*
X030878Y005736D01*
X030795Y005710D01*
X030718Y005670D01*
X030648Y005620D01*
X030587Y005558D01*
X030536Y005488D01*
X030497Y005411D01*
X030495Y005406D01*
X030456Y005500D01*
X030307Y005649D01*
X030112Y005730D01*
X029901Y005730D01*
X029706Y005649D01*
X029557Y005500D01*
X029532Y005440D01*
X027481Y005440D01*
X027456Y005500D01*
X027307Y005649D01*
X027112Y005730D01*
X026901Y005730D01*
X026707Y005649D01*
X026707Y006726D01*
X026712Y006780D01*
X026753Y006878D01*
X026828Y006954D01*
X026927Y006995D01*
X026980Y007000D01*
X034007Y007000D01*
X034260Y006857D02*
X026744Y006857D01*
X026707Y006699D02*
X034307Y006699D01*
X034307Y006540D02*
X026707Y006540D01*
X026707Y006382D02*
X034307Y006382D01*
X034307Y006223D02*
X026707Y006223D01*
X026707Y006065D02*
X034307Y006065D01*
X034307Y005906D02*
X026707Y005906D01*
X026707Y005748D02*
X030948Y005748D01*
X030987Y005748D02*
X031027Y005748D01*
X031066Y005748D02*
X033948Y005748D01*
X033987Y005748D02*
X034027Y005748D01*
X034066Y005748D02*
X034307Y005748D01*
X034027Y005589D02*
X033987Y005589D01*
X033987Y005431D02*
X034027Y005431D01*
X034027Y005272D02*
X033987Y005272D01*
X034007Y005200D02*
X031007Y005200D01*
X030987Y005272D02*
X031027Y005272D01*
X031027Y005431D02*
X030987Y005431D01*
X030987Y005589D02*
X031027Y005589D01*
X031395Y005589D02*
X033618Y005589D01*
X033507Y005431D02*
X031506Y005431D01*
X031552Y005272D02*
X033461Y005272D01*
X033463Y005114D02*
X031550Y005114D01*
X031499Y004955D02*
X033514Y004955D01*
X033632Y004797D02*
X031381Y004797D01*
X031318Y004638D02*
X033695Y004638D01*
X033549Y004480D02*
X031464Y004480D01*
X031007Y004200D02*
X034007Y004200D01*
X034007Y003200D02*
X031007Y003200D01*
X031007Y002200D02*
X034007Y002200D01*
X030507Y005431D02*
X030485Y005431D01*
X030367Y005589D02*
X030618Y005589D01*
X030007Y005200D02*
X027007Y005200D01*
X027367Y005589D02*
X029646Y005589D01*
X030007Y004200D02*
X027007Y004200D01*
X027007Y003200D02*
X030007Y003200D01*
X025731Y003200D02*
X022731Y003200D01*
X022731Y002200D02*
X025731Y002200D01*
X025731Y004200D02*
X022731Y004200D01*
X022937Y004689D02*
X022942Y004690D01*
X023019Y004730D01*
X023089Y004780D01*
X023150Y004842D01*
X023201Y004912D01*
X023241Y004989D01*
X023267Y005071D01*
X023281Y005157D01*
X023281Y005180D01*
X022751Y005180D01*
X022751Y005220D01*
X023281Y005220D01*
X023281Y005243D01*
X023267Y005329D01*
X023241Y005411D01*
X023201Y005488D01*
X023150Y005558D01*
X023089Y005620D01*
X023019Y005670D01*
X022942Y005710D01*
X022860Y005736D01*
X022774Y005750D01*
X022751Y005750D01*
X022751Y005220D01*
X022711Y005220D01*
X022711Y005750D01*
X022688Y005750D01*
X022602Y005736D01*
X022520Y005710D01*
X022443Y005670D01*
X022373Y005620D01*
X022311Y005558D01*
X022261Y005488D01*
X022221Y005411D01*
X022219Y005406D01*
X022180Y005500D01*
X022031Y005649D01*
X021836Y005730D01*
X021626Y005730D01*
X021431Y005649D01*
X021282Y005500D01*
X021257Y005440D01*
X019205Y005440D01*
X019180Y005500D01*
X019031Y005649D01*
X018836Y005730D01*
X018626Y005730D01*
X018431Y005649D01*
X018431Y006726D01*
X018436Y006780D01*
X018477Y006878D01*
X018553Y006954D01*
X018651Y006995D01*
X018705Y007000D01*
X025731Y007000D01*
X025790Y006994D01*
X025898Y006949D01*
X025980Y006867D01*
X026025Y006759D01*
X026031Y006700D01*
X026031Y005662D01*
X026019Y005670D01*
X025942Y005710D01*
X025860Y005736D01*
X025774Y005750D01*
X025751Y005750D01*
X025751Y005220D01*
X025711Y005220D01*
X025711Y005750D01*
X025688Y005750D01*
X025602Y005736D01*
X025520Y005710D01*
X025443Y005670D01*
X025373Y005620D01*
X025311Y005558D01*
X025261Y005488D01*
X025221Y005411D01*
X025195Y005329D01*
X025181Y005243D01*
X025181Y005220D01*
X025711Y005220D01*
X025711Y005180D01*
X025181Y005180D01*
X025181Y005157D01*
X025195Y005071D01*
X025221Y004989D01*
X025261Y004912D01*
X025311Y004842D01*
X025373Y004780D01*
X025443Y004730D01*
X025520Y004690D01*
X025525Y004689D01*
X025431Y004649D01*
X025282Y004500D01*
X025257Y004440D01*
X023205Y004440D01*
X023180Y004500D01*
X023031Y004649D01*
X022937Y004689D01*
X023043Y004638D02*
X025419Y004638D01*
X025357Y004797D02*
X023105Y004797D01*
X023223Y004955D02*
X025239Y004955D01*
X025188Y005114D02*
X023274Y005114D01*
X023276Y005272D02*
X025186Y005272D01*
X025231Y005431D02*
X023231Y005431D01*
X023120Y005589D02*
X025342Y005589D01*
X025672Y005748D02*
X022790Y005748D01*
X022751Y005748D02*
X022711Y005748D01*
X022672Y005748D02*
X018431Y005748D01*
X018431Y005906D02*
X026031Y005906D01*
X026031Y005748D02*
X025790Y005748D01*
X025751Y005748D02*
X025711Y005748D01*
X025711Y005589D02*
X025751Y005589D01*
X025751Y005431D02*
X025711Y005431D01*
X025711Y005272D02*
X025751Y005272D01*
X025731Y005200D02*
X022731Y005200D01*
X022711Y005272D02*
X022751Y005272D01*
X022751Y005431D02*
X022711Y005431D01*
X022711Y005589D02*
X022751Y005589D01*
X022342Y005589D02*
X022092Y005589D01*
X022209Y005431D02*
X022231Y005431D01*
X021731Y005200D02*
X018731Y005200D01*
X019092Y005589D02*
X021370Y005589D01*
X021731Y004200D02*
X018731Y004200D01*
X018731Y003200D02*
X021731Y003200D01*
X023189Y004480D02*
X025273Y004480D01*
X026031Y006065D02*
X018431Y006065D01*
X018431Y006223D02*
X026031Y006223D01*
X026031Y006382D02*
X018431Y006382D01*
X018431Y006540D02*
X026031Y006540D01*
X026031Y006699D02*
X018431Y006699D01*
X018468Y006857D02*
X025984Y006857D01*
X025731Y009476D02*
X022731Y009476D01*
X022731Y010476D02*
X025731Y010476D01*
X025731Y011476D02*
X022731Y011476D01*
X022937Y011964D02*
X022942Y011966D01*
X023019Y012005D01*
X023089Y012056D01*
X023150Y012117D01*
X023201Y012187D01*
X023241Y012264D01*
X023267Y012347D01*
X023281Y012432D01*
X023281Y012456D01*
X022751Y012456D01*
X022751Y012496D01*
X022711Y012496D01*
X022711Y013026D01*
X022688Y013026D01*
X022602Y013012D01*
X022520Y012985D01*
X022443Y012946D01*
X022373Y012895D01*
X022311Y012834D01*
X022261Y012764D01*
X022221Y012687D01*
X022219Y012681D01*
X022180Y012776D01*
X022031Y012925D01*
X021836Y013006D01*
X021626Y013006D01*
X021431Y012925D01*
X021282Y012776D01*
X021257Y012716D01*
X019205Y012716D01*
X019180Y012776D01*
X019031Y012925D01*
X018836Y013006D01*
X018626Y013006D01*
X018431Y012925D01*
X018431Y014002D01*
X018436Y014055D01*
X018477Y014154D01*
X018477Y014154D01*
X018553Y014229D01*
X018651Y014270D01*
X018705Y014276D01*
X025731Y014276D01*
X025790Y014270D01*
X025898Y014225D01*
X025980Y014142D01*
X026025Y014034D01*
X026031Y013976D01*
X026031Y012937D01*
X026019Y012946D01*
X025942Y012985D01*
X025860Y013012D01*
X025774Y013026D01*
X025751Y013026D01*
X025751Y012496D01*
X025711Y012496D01*
X025711Y013026D01*
X025688Y013026D01*
X025602Y013012D01*
X025520Y012985D01*
X025443Y012946D01*
X025373Y012895D01*
X025311Y012834D01*
X025261Y012764D01*
X025221Y012687D01*
X025195Y012604D01*
X025181Y012519D01*
X025181Y012496D01*
X025711Y012496D01*
X025711Y012456D01*
X025181Y012456D01*
X025181Y012432D01*
X025195Y012347D01*
X025221Y012264D01*
X025261Y012187D01*
X025311Y012117D01*
X025373Y012056D01*
X025443Y012005D01*
X025520Y011966D01*
X025525Y011964D01*
X025431Y011925D01*
X025282Y011776D01*
X025257Y011716D01*
X023205Y011716D01*
X023180Y011776D01*
X023031Y011925D01*
X022937Y011964D01*
X023021Y011929D02*
X025441Y011929D01*
X025341Y012088D02*
X023121Y012088D01*
X023231Y012246D02*
X025231Y012246D01*
X025185Y012405D02*
X023277Y012405D01*
X023281Y012496D02*
X023281Y012519D01*
X023267Y012604D01*
X023241Y012687D01*
X023201Y012764D01*
X023150Y012834D01*
X023089Y012895D01*
X023019Y012946D01*
X022942Y012985D01*
X022860Y013012D01*
X022774Y013026D01*
X022751Y013026D01*
X022751Y012496D01*
X023281Y012496D01*
X023274Y012563D02*
X025188Y012563D01*
X025239Y012722D02*
X023223Y012722D01*
X023104Y012880D02*
X025358Y012880D01*
X025711Y012880D02*
X025751Y012880D01*
X025751Y012722D02*
X025711Y012722D01*
X025711Y012563D02*
X025751Y012563D01*
X025731Y012476D02*
X022731Y012476D01*
X022711Y012563D02*
X022751Y012563D01*
X022751Y012722D02*
X022711Y012722D01*
X022711Y012880D02*
X022751Y012880D01*
X022358Y012880D02*
X022076Y012880D01*
X022203Y012722D02*
X022239Y012722D01*
X021731Y012476D02*
X018731Y012476D01*
X019076Y012880D02*
X021386Y012880D01*
X021259Y012722D02*
X019203Y012722D01*
X018431Y013039D02*
X026031Y013039D01*
X026031Y013197D02*
X018431Y013197D01*
X018431Y013356D02*
X026031Y013356D01*
X026031Y013514D02*
X018431Y013514D01*
X018431Y013673D02*
X026031Y013673D01*
X026031Y013831D02*
X018431Y013831D01*
X018431Y013990D02*
X026030Y013990D01*
X025975Y014148D02*
X018475Y014148D01*
X017750Y014034D02*
X017755Y013976D01*
X017755Y012937D01*
X017744Y012946D01*
X017667Y012985D01*
X017584Y013012D01*
X017499Y013026D01*
X017475Y013026D01*
X017475Y012496D01*
X017435Y012496D01*
X017435Y013026D01*
X017412Y013026D01*
X017327Y013012D01*
X017244Y012985D01*
X017167Y012946D01*
X017097Y012895D01*
X017036Y012834D01*
X016985Y012764D01*
X016946Y012687D01*
X016919Y012604D01*
X016905Y012519D01*
X016905Y012496D01*
X017435Y012496D01*
X017435Y012456D01*
X016905Y012456D01*
X016905Y012432D01*
X016919Y012347D01*
X016946Y012264D01*
X016985Y012187D01*
X017036Y012117D01*
X017097Y012056D01*
X017167Y012005D01*
X017244Y011966D01*
X017250Y011964D01*
X017155Y011925D01*
X017006Y011776D01*
X016981Y011716D01*
X014930Y011716D01*
X014905Y011776D01*
X014756Y011925D01*
X014661Y011964D01*
X014667Y011966D01*
X014744Y012005D01*
X014814Y012056D01*
X014875Y012117D01*
X014926Y012187D01*
X014965Y012264D01*
X014992Y012347D01*
X015005Y012432D01*
X015005Y012456D01*
X014475Y012456D01*
X014475Y012496D01*
X014435Y012496D01*
X014435Y013026D01*
X014412Y013026D01*
X014327Y013012D01*
X014244Y012985D01*
X014167Y012946D01*
X014097Y012895D01*
X014036Y012834D01*
X013985Y012764D01*
X013946Y012687D01*
X013944Y012681D01*
X013905Y012776D01*
X013756Y012925D01*
X013561Y013006D01*
X013350Y013006D01*
X013155Y012925D01*
X013006Y012776D01*
X012981Y012716D01*
X010930Y012716D01*
X010905Y012776D01*
X010756Y012925D01*
X010561Y013006D01*
X010350Y013006D01*
X010155Y012925D01*
X010155Y014002D01*
X010161Y014055D01*
X010202Y014154D01*
X010277Y014229D01*
X010376Y014270D01*
X010429Y014276D01*
X017455Y014276D01*
X017514Y014270D01*
X017622Y014225D01*
X017705Y014142D01*
X017750Y014034D01*
X017754Y013990D02*
X010155Y013990D01*
X010155Y013831D02*
X017755Y013831D01*
X017755Y013673D02*
X010155Y013673D01*
X010155Y013514D02*
X017755Y013514D01*
X017755Y013356D02*
X010155Y013356D01*
X010155Y013197D02*
X017755Y013197D01*
X017755Y013039D02*
X010155Y013039D01*
X010455Y012476D02*
X013455Y012476D01*
X013110Y012880D02*
X010800Y012880D01*
X010927Y012722D02*
X012984Y012722D01*
X013800Y012880D02*
X014082Y012880D01*
X013963Y012722D02*
X013927Y012722D01*
X014435Y012722D02*
X014475Y012722D01*
X014475Y012880D02*
X014435Y012880D01*
X014475Y013026D02*
X014475Y012496D01*
X015005Y012496D01*
X015005Y012519D01*
X014992Y012604D01*
X014965Y012687D01*
X014926Y012764D01*
X014875Y012834D01*
X014814Y012895D01*
X014744Y012946D01*
X014667Y012985D01*
X014584Y013012D01*
X014499Y013026D01*
X014475Y013026D01*
X014829Y012880D02*
X017082Y012880D01*
X016963Y012722D02*
X014947Y012722D01*
X014998Y012563D02*
X016912Y012563D01*
X016910Y012405D02*
X015001Y012405D01*
X014956Y012246D02*
X016955Y012246D01*
X017066Y012088D02*
X014845Y012088D01*
X014746Y011929D02*
X017165Y011929D01*
X017004Y011771D02*
X014907Y011771D01*
X014455Y011476D02*
X017455Y011476D01*
X017455Y012476D02*
X014455Y012476D01*
X014435Y012563D02*
X014475Y012563D01*
X013455Y011476D02*
X010455Y011476D01*
X010455Y010476D02*
X013455Y010476D01*
X014455Y010476D02*
X017455Y010476D01*
X017455Y009476D02*
X014455Y009476D01*
X017455Y007000D02*
X017514Y006994D01*
X017622Y006949D01*
X017705Y006867D01*
X017750Y006759D01*
X017755Y006700D01*
X017755Y005662D01*
X017744Y005670D01*
X017667Y005710D01*
X017584Y005736D01*
X017499Y005750D01*
X017475Y005750D01*
X017475Y005220D01*
X017435Y005220D01*
X017435Y005180D01*
X016905Y005180D01*
X016905Y005157D01*
X016919Y005071D01*
X016946Y004989D01*
X016985Y004912D01*
X017036Y004842D01*
X017097Y004780D01*
X017167Y004730D01*
X017244Y004690D01*
X017250Y004689D01*
X017155Y004649D01*
X017006Y004500D01*
X016981Y004440D01*
X014930Y004440D01*
X014905Y004500D01*
X014756Y004649D01*
X014661Y004689D01*
X014667Y004690D01*
X014744Y004730D01*
X014814Y004780D01*
X014875Y004842D01*
X014926Y004912D01*
X014965Y004989D01*
X014992Y005071D01*
X015005Y005157D01*
X015005Y005180D01*
X014475Y005180D01*
X014475Y005220D01*
X014435Y005220D01*
X014435Y005750D01*
X014412Y005750D01*
X014327Y005736D01*
X014244Y005710D01*
X014167Y005670D01*
X014097Y005620D01*
X014036Y005558D01*
X013985Y005488D01*
X013946Y005411D01*
X013944Y005406D01*
X013905Y005500D01*
X013756Y005649D01*
X013561Y005730D01*
X013350Y005730D01*
X013155Y005649D01*
X013006Y005500D01*
X012981Y005440D01*
X010930Y005440D01*
X010905Y005500D01*
X010756Y005649D01*
X010561Y005730D01*
X010350Y005730D01*
X010155Y005649D01*
X010155Y006726D01*
X010161Y006780D01*
X010202Y006878D01*
X010277Y006954D01*
X010376Y006995D01*
X010429Y007000D01*
X017455Y007000D01*
X017709Y006857D02*
X010193Y006857D01*
X010155Y006699D02*
X017755Y006699D01*
X017755Y006540D02*
X010155Y006540D01*
X010155Y006382D02*
X017755Y006382D01*
X017755Y006223D02*
X010155Y006223D01*
X010155Y006065D02*
X017755Y006065D01*
X017755Y005906D02*
X010155Y005906D01*
X010155Y005748D02*
X014396Y005748D01*
X014435Y005748D02*
X014475Y005748D01*
X014475Y005750D02*
X014475Y005220D01*
X015005Y005220D01*
X015005Y005243D01*
X014992Y005329D01*
X014965Y005411D01*
X014926Y005488D01*
X014875Y005558D01*
X014814Y005620D01*
X014744Y005670D01*
X014667Y005710D01*
X014584Y005736D01*
X014499Y005750D01*
X014475Y005750D01*
X014514Y005748D02*
X017396Y005748D01*
X017412Y005750D02*
X017327Y005736D01*
X017244Y005710D01*
X017167Y005670D01*
X017097Y005620D01*
X017036Y005558D01*
X016985Y005488D01*
X016946Y005411D01*
X016919Y005329D01*
X016905Y005243D01*
X016905Y005220D01*
X017435Y005220D01*
X017435Y005750D01*
X017412Y005750D01*
X017435Y005748D02*
X017475Y005748D01*
X017514Y005748D02*
X017755Y005748D01*
X017475Y005589D02*
X017435Y005589D01*
X017435Y005431D02*
X017475Y005431D01*
X017475Y005272D02*
X017435Y005272D01*
X017455Y005200D02*
X014455Y005200D01*
X014435Y005272D02*
X014475Y005272D01*
X014475Y005431D02*
X014435Y005431D01*
X014435Y005589D02*
X014475Y005589D01*
X014844Y005589D02*
X017067Y005589D01*
X016956Y005431D02*
X014955Y005431D01*
X015001Y005272D02*
X016910Y005272D01*
X016912Y005114D02*
X014999Y005114D01*
X014948Y004955D02*
X016963Y004955D01*
X017081Y004797D02*
X014830Y004797D01*
X014767Y004638D02*
X017144Y004638D01*
X016998Y004480D02*
X014913Y004480D01*
X014455Y004200D02*
X017455Y004200D01*
X017455Y003200D02*
X014455Y003200D01*
X013455Y003200D02*
X010455Y003200D01*
X010455Y004200D02*
X013455Y004200D01*
X013455Y005200D02*
X010455Y005200D01*
X010816Y005589D02*
X013095Y005589D01*
X013816Y005589D02*
X014067Y005589D01*
X013956Y005431D02*
X013934Y005431D01*
X014455Y002200D02*
X017455Y002200D01*
X018731Y010476D02*
X021731Y010476D01*
X021731Y011476D02*
X018731Y011476D01*
X017475Y012563D02*
X017435Y012563D01*
X017435Y012722D02*
X017475Y012722D01*
X017475Y012880D02*
X017435Y012880D01*
X017699Y014148D02*
X010199Y014148D01*
X009474Y014034D02*
X009480Y013976D01*
X009480Y012937D01*
X009468Y012946D01*
X009391Y012985D01*
X009309Y013012D01*
X009223Y013026D01*
X009200Y013026D01*
X009200Y012496D01*
X009160Y012496D01*
X009160Y013026D01*
X009137Y013026D01*
X009051Y013012D01*
X008969Y012985D01*
X008892Y012946D01*
X008822Y012895D01*
X008760Y012834D01*
X008709Y012764D01*
X008670Y012687D01*
X008643Y012604D01*
X008630Y012519D01*
X008630Y012496D01*
X009160Y012496D01*
X009160Y012456D01*
X008630Y012456D01*
X008630Y012432D01*
X008643Y012347D01*
X008670Y012264D01*
X008709Y012187D01*
X008760Y012117D01*
X008822Y012056D01*
X008892Y012005D01*
X008969Y011966D01*
X008974Y011964D01*
X008880Y011925D01*
X008730Y011776D01*
X008706Y011716D01*
X006654Y011716D01*
X006629Y011776D01*
X006480Y011925D01*
X006385Y011964D01*
X006391Y011966D01*
X006468Y012005D01*
X006538Y012056D01*
X006599Y012117D01*
X006650Y012187D01*
X006690Y012264D01*
X006716Y012347D01*
X006730Y012432D01*
X006730Y012456D01*
X006200Y012456D01*
X006200Y012496D01*
X006160Y012496D01*
X006160Y013026D01*
X006137Y013026D01*
X006051Y013012D01*
X005969Y012985D01*
X005892Y012946D01*
X005822Y012895D01*
X005760Y012834D01*
X005709Y012764D01*
X005670Y012687D01*
X005668Y012681D01*
X005629Y012776D01*
X005480Y012925D01*
X005285Y013006D01*
X005074Y013006D01*
X004880Y012925D01*
X004730Y012776D01*
X004706Y012716D01*
X002654Y012716D01*
X002629Y012776D01*
X002480Y012925D01*
X002285Y013006D01*
X002074Y013006D01*
X001880Y012925D01*
X001880Y014002D01*
X001885Y014055D01*
X001926Y014154D01*
X002001Y014229D01*
X002100Y014270D01*
X002153Y014276D01*
X009180Y014276D01*
X009238Y014270D01*
X009346Y014225D01*
X009429Y014142D01*
X009474Y014034D01*
X009478Y013990D02*
X001880Y013990D01*
X001880Y013831D02*
X009480Y013831D01*
X009480Y013673D02*
X001880Y013673D01*
X001880Y013514D02*
X009480Y013514D01*
X009480Y013356D02*
X001880Y013356D01*
X001880Y013197D02*
X009480Y013197D01*
X009480Y013039D02*
X001880Y013039D01*
X002180Y012476D02*
X005180Y012476D01*
X005525Y012880D02*
X005806Y012880D01*
X005688Y012722D02*
X005652Y012722D01*
X006160Y012722D02*
X006200Y012722D01*
X006200Y012880D02*
X006160Y012880D01*
X006200Y013026D02*
X006200Y012496D01*
X006730Y012496D01*
X006730Y012519D01*
X006716Y012604D01*
X006690Y012687D01*
X006650Y012764D01*
X006599Y012834D01*
X006538Y012895D01*
X006468Y012946D01*
X006391Y012985D01*
X006309Y013012D01*
X006223Y013026D01*
X006200Y013026D01*
X006553Y012880D02*
X008806Y012880D01*
X008688Y012722D02*
X006672Y012722D01*
X006723Y012563D02*
X008637Y012563D01*
X008634Y012405D02*
X006725Y012405D01*
X006680Y012246D02*
X008679Y012246D01*
X008790Y012088D02*
X006570Y012088D01*
X006470Y011929D02*
X008890Y011929D01*
X008728Y011771D02*
X006631Y011771D01*
X006180Y011476D02*
X009180Y011476D01*
X009180Y012476D02*
X006180Y012476D01*
X006160Y012563D02*
X006200Y012563D01*
X005180Y011476D02*
X002180Y011476D01*
X002180Y010476D02*
X005180Y010476D01*
X006180Y010476D02*
X009180Y010476D01*
X009180Y009476D02*
X006180Y009476D01*
X009180Y007000D02*
X009238Y006994D01*
X009346Y006949D01*
X009429Y006867D01*
X009474Y006759D01*
X009480Y006700D01*
X009480Y005662D01*
X009468Y005670D01*
X009391Y005710D01*
X009309Y005736D01*
X009223Y005750D01*
X009200Y005750D01*
X009200Y005220D01*
X009160Y005220D01*
X009160Y005750D01*
X009137Y005750D01*
X009051Y005736D01*
X008969Y005710D01*
X008892Y005670D01*
X008822Y005620D01*
X008760Y005558D01*
X008709Y005488D01*
X008670Y005411D01*
X008643Y005329D01*
X008630Y005243D01*
X008630Y005220D01*
X009160Y005220D01*
X009160Y005180D01*
X008630Y005180D01*
X008630Y005157D01*
X008643Y005071D01*
X008670Y004989D01*
X008709Y004912D01*
X008760Y004842D01*
X008822Y004780D01*
X008892Y004730D01*
X008969Y004690D01*
X008974Y004689D01*
X008880Y004649D01*
X008730Y004500D01*
X008706Y004440D01*
X006654Y004440D01*
X006629Y004500D01*
X006480Y004649D01*
X006385Y004689D01*
X006391Y004690D01*
X006468Y004730D01*
X006538Y004780D01*
X006599Y004842D01*
X006650Y004912D01*
X006690Y004989D01*
X006716Y005071D01*
X006730Y005157D01*
X006730Y005180D01*
X006200Y005180D01*
X006200Y005220D01*
X006730Y005220D01*
X006730Y005243D01*
X006716Y005329D01*
X006690Y005411D01*
X006650Y005488D01*
X006599Y005558D01*
X006538Y005620D01*
X006468Y005670D01*
X006391Y005710D01*
X006309Y005736D01*
X006223Y005750D01*
X006200Y005750D01*
X006200Y005220D01*
X006160Y005220D01*
X006160Y005750D01*
X006137Y005750D01*
X006051Y005736D01*
X005969Y005710D01*
X005892Y005670D01*
X005822Y005620D01*
X005760Y005558D01*
X005709Y005488D01*
X005670Y005411D01*
X005668Y005406D01*
X005629Y005500D01*
X005480Y005649D01*
X005285Y005730D01*
X005074Y005730D01*
X004880Y005649D01*
X004730Y005500D01*
X004706Y005440D01*
X002654Y005440D01*
X002629Y005500D01*
X002480Y005649D01*
X002285Y005730D01*
X002074Y005730D01*
X001880Y005649D01*
X001880Y006726D01*
X001885Y006780D01*
X001926Y006878D01*
X002001Y006954D01*
X002100Y006995D01*
X002153Y007000D01*
X009180Y007000D01*
X009433Y006857D02*
X001917Y006857D01*
X001880Y006699D02*
X009480Y006699D01*
X009480Y006540D02*
X001880Y006540D01*
X001880Y006382D02*
X009480Y006382D01*
X009480Y006223D02*
X001880Y006223D01*
X001880Y006065D02*
X009480Y006065D01*
X009480Y005906D02*
X001880Y005906D01*
X001880Y005748D02*
X006121Y005748D01*
X006160Y005748D02*
X006200Y005748D01*
X006239Y005748D02*
X009121Y005748D01*
X009160Y005748D02*
X009200Y005748D01*
X009239Y005748D02*
X009480Y005748D01*
X009200Y005589D02*
X009160Y005589D01*
X009160Y005431D02*
X009200Y005431D01*
X009200Y005272D02*
X009160Y005272D01*
X009180Y005200D02*
X006180Y005200D01*
X006160Y005272D02*
X006200Y005272D01*
X006200Y005431D02*
X006160Y005431D01*
X006160Y005589D02*
X006200Y005589D01*
X006569Y005589D02*
X008791Y005589D01*
X008680Y005431D02*
X006680Y005431D01*
X006725Y005272D02*
X008634Y005272D01*
X008637Y005114D02*
X006723Y005114D01*
X006672Y004955D02*
X008687Y004955D01*
X008805Y004797D02*
X006554Y004797D01*
X006491Y004638D02*
X008868Y004638D01*
X008722Y004480D02*
X006638Y004480D01*
X006180Y004200D02*
X009180Y004200D01*
X009180Y003200D02*
X006180Y003200D01*
X006180Y002200D02*
X009180Y002200D01*
X005791Y005589D02*
X005540Y005589D01*
X005658Y005431D02*
X005680Y005431D01*
X005180Y005200D02*
X002180Y005200D01*
X002540Y005589D02*
X004819Y005589D01*
X005180Y004200D02*
X002180Y004200D01*
X002180Y003200D02*
X005180Y003200D01*
X004708Y012722D02*
X002652Y012722D01*
X002525Y012880D02*
X004835Y012880D01*
X001923Y014148D02*
X009423Y014148D01*
X009200Y012880D02*
X009160Y012880D01*
X009160Y012722D02*
X009200Y012722D01*
X009200Y012563D02*
X009160Y012563D01*
X009480Y020213D02*
X009468Y020222D01*
X010455Y025027D02*
X013455Y025027D01*
X014455Y025027D02*
X017455Y025027D01*
X017455Y024027D02*
X014455Y024027D01*
X018731Y032302D02*
X021731Y032302D01*
X022731Y032302D02*
X025731Y032302D01*
X025731Y031302D02*
X022731Y031302D01*
X022731Y033302D02*
X025731Y033302D01*
X025501Y033802D02*
X022961Y033802D01*
X023139Y033644D02*
X025323Y033644D01*
X025299Y033961D02*
X023162Y033961D01*
X023250Y034119D02*
X025212Y034119D01*
X025181Y034278D02*
X023281Y034278D01*
X023266Y034436D02*
X025196Y034436D01*
X025195Y034431D02*
X025181Y034346D01*
X025181Y034322D01*
X025711Y034322D01*
X025711Y034852D01*
X025688Y034852D01*
X025602Y034839D01*
X025520Y034812D01*
X025443Y034773D01*
X025373Y034722D01*
X025311Y034661D01*
X025261Y034591D01*
X025221Y034513D01*
X025195Y034431D01*
X025263Y034595D02*
X023199Y034595D01*
X023046Y034753D02*
X025416Y034753D01*
X025711Y034753D02*
X025751Y034753D01*
X025751Y034595D02*
X025711Y034595D01*
X025711Y034436D02*
X025751Y034436D01*
X025731Y034302D02*
X022731Y034302D01*
X022711Y034436D02*
X022751Y034436D01*
X022751Y034595D02*
X022711Y034595D01*
X022711Y034753D02*
X022751Y034753D01*
X022416Y034753D02*
X022028Y034753D01*
X022184Y034595D02*
X022263Y034595D01*
X021731Y034302D02*
X018731Y034302D01*
X019028Y034753D02*
X021434Y034753D01*
X021278Y034595D02*
X019184Y034595D01*
X018731Y033302D02*
X021731Y033302D01*
X026707Y034752D02*
X026707Y035829D01*
X026712Y035882D01*
X026753Y035981D01*
X026828Y036056D01*
X026927Y036097D01*
X026980Y036102D01*
X034007Y036102D01*
X034065Y036097D01*
X034173Y036052D01*
X034256Y035969D01*
X034301Y035861D01*
X034307Y035802D01*
X034307Y034764D01*
X034295Y034773D01*
X034218Y034812D01*
X034135Y034839D01*
X034050Y034852D01*
X034027Y034852D01*
X034027Y034322D01*
X033987Y034322D01*
X033987Y034282D01*
X033457Y034282D01*
X033457Y034259D01*
X033470Y034174D01*
X033497Y034091D01*
X033536Y034014D01*
X033587Y033944D01*
X033648Y033883D01*
X033718Y033832D01*
X033795Y033793D01*
X033801Y033791D01*
X033706Y033752D01*
X033557Y033603D01*
X033532Y033542D01*
X031481Y033542D01*
X031456Y033603D01*
X031307Y033752D01*
X031212Y033791D01*
X031218Y033793D01*
X031295Y033832D01*
X031365Y033883D01*
X031426Y033944D01*
X031477Y034014D01*
X031516Y034091D01*
X031543Y034174D01*
X031557Y034259D01*
X031557Y034282D01*
X031027Y034282D01*
X031027Y034322D01*
X031557Y034322D01*
X031557Y034346D01*
X031543Y034431D01*
X031516Y034513D01*
X031477Y034591D01*
X031426Y034661D01*
X031365Y034722D01*
X031295Y034773D01*
X031218Y034812D01*
X031135Y034839D01*
X031050Y034852D01*
X031027Y034852D01*
X031027Y034322D01*
X030987Y034322D01*
X030987Y034852D01*
X030963Y034852D01*
X030878Y034839D01*
X030795Y034812D01*
X030718Y034773D01*
X030648Y034722D01*
X030587Y034661D01*
X030536Y034591D01*
X030497Y034513D01*
X030495Y034508D01*
X030456Y034603D01*
X030307Y034752D01*
X030112Y034832D01*
X029901Y034832D01*
X029706Y034752D01*
X029557Y034603D01*
X029532Y034542D01*
X027481Y034542D01*
X027456Y034603D01*
X027307Y034752D01*
X027112Y034832D01*
X026901Y034832D01*
X026707Y034752D01*
X026707Y034753D02*
X026710Y034753D01*
X026707Y034912D02*
X034307Y034912D01*
X034307Y035070D02*
X026707Y035070D01*
X026707Y035229D02*
X034307Y035229D01*
X034307Y035387D02*
X026707Y035387D01*
X026707Y035546D02*
X034307Y035546D01*
X034307Y035704D02*
X026707Y035704D01*
X026710Y035863D02*
X034300Y035863D01*
X034204Y036021D02*
X026793Y036021D01*
X027303Y034753D02*
X029710Y034753D01*
X029554Y034595D02*
X027459Y034595D01*
X027007Y034302D02*
X030007Y034302D01*
X030303Y034753D02*
X030691Y034753D01*
X030539Y034595D02*
X030459Y034595D01*
X030987Y034595D02*
X031027Y034595D01*
X031027Y034753D02*
X030987Y034753D01*
X030987Y034436D02*
X031027Y034436D01*
X031007Y034302D02*
X034007Y034302D01*
X033987Y034322D02*
X033457Y034322D01*
X033457Y034346D01*
X033470Y034431D01*
X033497Y034513D01*
X033536Y034591D01*
X033587Y034661D01*
X033648Y034722D01*
X033718Y034773D01*
X033795Y034812D01*
X033878Y034839D01*
X033963Y034852D01*
X033987Y034852D01*
X033987Y034322D01*
X033987Y034436D02*
X034027Y034436D01*
X034027Y034595D02*
X033987Y034595D01*
X033987Y034753D02*
X034027Y034753D01*
X033691Y034753D02*
X031322Y034753D01*
X031474Y034595D02*
X033539Y034595D01*
X033472Y034436D02*
X031541Y034436D01*
X031557Y034278D02*
X033457Y034278D01*
X033488Y034119D02*
X031525Y034119D01*
X031438Y033961D02*
X033575Y033961D01*
X033777Y033802D02*
X031236Y033802D01*
X031415Y033644D02*
X033598Y033644D01*
X034007Y033302D02*
X031007Y033302D01*
X031007Y032302D02*
X034007Y032302D01*
X034007Y031302D02*
X031007Y031302D01*
X030007Y032302D02*
X027007Y032302D01*
X027007Y033302D02*
X030007Y033302D01*
X026980Y028827D02*
X034007Y028827D01*
X034065Y028821D01*
X034173Y028776D01*
X034256Y028693D01*
X034301Y028585D01*
X034307Y028527D01*
X034307Y027489D01*
X034295Y027497D01*
X034218Y027536D01*
X034135Y027563D01*
X034050Y027577D01*
X034027Y027577D01*
X034027Y027047D01*
X033987Y027047D01*
X033987Y027577D01*
X033963Y027577D01*
X033878Y027563D01*
X033795Y027536D01*
X033718Y027497D01*
X033648Y027446D01*
X033587Y027385D01*
X033536Y027315D01*
X033497Y027238D01*
X033470Y027156D01*
X033457Y027070D01*
X033457Y027047D01*
X033987Y027047D01*
X033987Y027007D01*
X033457Y027007D01*
X033457Y026983D01*
X033470Y026898D01*
X033497Y026816D01*
X033536Y026739D01*
X033587Y026668D01*
X033648Y026607D01*
X033718Y026556D01*
X033795Y026517D01*
X033801Y026515D01*
X033706Y026476D01*
X033557Y026327D01*
X033532Y026267D01*
X031481Y026267D01*
X031456Y026327D01*
X031307Y026476D01*
X031212Y026515D01*
X031218Y026517D01*
X031295Y026556D01*
X031365Y026607D01*
X031426Y026668D01*
X031477Y026739D01*
X031516Y026816D01*
X031543Y026898D01*
X031557Y026983D01*
X031557Y027007D01*
X031027Y027007D01*
X031027Y027047D01*
X031557Y027047D01*
X031557Y027070D01*
X031543Y027156D01*
X031516Y027238D01*
X031477Y027315D01*
X031426Y027385D01*
X031365Y027446D01*
X031295Y027497D01*
X031218Y027536D01*
X031135Y027563D01*
X031050Y027577D01*
X031027Y027577D01*
X031027Y027047D01*
X030987Y027047D01*
X030987Y027577D01*
X030963Y027577D01*
X030878Y027563D01*
X030795Y027536D01*
X030718Y027497D01*
X030648Y027446D01*
X030587Y027385D01*
X030536Y027315D01*
X030497Y027238D01*
X030495Y027232D01*
X030456Y027327D01*
X030307Y027476D01*
X030112Y027557D01*
X029901Y027557D01*
X029706Y027476D01*
X029557Y027327D01*
X029532Y027267D01*
X027481Y027267D01*
X027456Y027327D01*
X027307Y027476D01*
X027112Y027557D01*
X026901Y027557D01*
X026707Y027476D01*
X026707Y028553D01*
X026712Y028607D01*
X026753Y028705D01*
X026828Y028781D01*
X026927Y028822D01*
X026980Y028827D01*
X026778Y028730D02*
X034219Y028730D01*
X034302Y028572D02*
X026708Y028572D01*
X026707Y028413D02*
X034307Y028413D01*
X034307Y028255D02*
X026707Y028255D01*
X026707Y028096D02*
X034307Y028096D01*
X034307Y027938D02*
X026707Y027938D01*
X026707Y027779D02*
X034307Y027779D01*
X034307Y027621D02*
X026707Y027621D01*
X027007Y027027D02*
X030007Y027027D01*
X029548Y027304D02*
X027466Y027304D01*
X027321Y027462D02*
X029692Y027462D01*
X030321Y027462D02*
X030670Y027462D01*
X030530Y027304D02*
X030466Y027304D01*
X030987Y027304D02*
X031027Y027304D01*
X031027Y027462D02*
X030987Y027462D01*
X030987Y027145D02*
X031027Y027145D01*
X031007Y027027D02*
X034007Y027027D01*
X033987Y027145D02*
X034027Y027145D01*
X034027Y027304D02*
X033987Y027304D01*
X033987Y027462D02*
X034027Y027462D01*
X033670Y027462D02*
X031343Y027462D01*
X031483Y027304D02*
X033530Y027304D01*
X033468Y027145D02*
X031545Y027145D01*
X031557Y026987D02*
X033457Y026987D01*
X033493Y026828D02*
X031520Y026828D01*
X031427Y026670D02*
X033586Y026670D01*
X033791Y026511D02*
X031222Y026511D01*
X031430Y026353D02*
X033583Y026353D01*
X034007Y026027D02*
X031007Y026027D01*
X031007Y025027D02*
X034007Y025027D01*
X034007Y024027D02*
X031007Y024027D01*
X030007Y025027D02*
X027007Y025027D01*
X027007Y026027D02*
X030007Y026027D01*
X030352Y012880D02*
X030633Y012880D01*
X030515Y012722D02*
X030478Y012722D01*
X030007Y012476D02*
X027007Y012476D01*
X027352Y012880D02*
X029661Y012880D01*
X029535Y012722D02*
X027478Y012722D01*
X027007Y011476D02*
X030007Y011476D01*
X030007Y010476D02*
X027007Y010476D01*
X025279Y011771D02*
X023182Y011771D01*
X005180Y032302D02*
X002180Y032302D01*
X002180Y033302D02*
X005180Y033302D01*
X005180Y034302D02*
X002180Y034302D01*
X002632Y034595D02*
X004727Y034595D01*
X004883Y034753D02*
X002477Y034753D01*
X001883Y034753D02*
X001880Y034753D01*
X005477Y034753D02*
X005864Y034753D01*
X005712Y034595D02*
X005632Y034595D01*
M02*
