G75*
%MOIN*%
%OFA0B0*%
%FSLAX24Y24*%
%IPPOS*%
%LPD*%
%AMOC8*
5,1,8,0,0,1.08239X$1,22.5*
%
%ADD10C,0.0110*%
%ADD11C,0.0060*%
%ADD12R,0.0337X0.0000*%
%ADD13R,0.0337X0.0000*%
%ADD14R,0.0344X0.0001*%
%ADD15R,0.0348X0.0000*%
%ADD16R,0.0347X0.0000*%
%ADD17R,0.0350X0.0000*%
%ADD18R,0.0350X0.0000*%
%ADD19R,0.0352X0.0001*%
%ADD20R,0.0355X0.0000*%
%ADD21R,0.0354X0.0000*%
%ADD22R,0.0356X0.0001*%
%ADD23R,0.0359X0.0000*%
%ADD24R,0.0360X0.0000*%
%ADD25R,0.0361X0.0001*%
%ADD26R,0.0363X0.0000*%
%ADD27R,0.0362X0.0000*%
%ADD28R,0.0365X0.0001*%
%ADD29R,0.0364X0.0001*%
%ADD30R,0.0365X0.0000*%
%ADD31R,0.0366X0.0000*%
%ADD32R,0.0366X0.0000*%
%ADD33R,0.0367X0.0001*%
%ADD34R,0.0369X0.0000*%
%ADD35R,0.0370X0.0001*%
%ADD36R,0.0369X0.0001*%
%ADD37R,0.0370X0.0000*%
%ADD38R,0.0371X0.0000*%
%ADD39R,0.0371X0.0000*%
%ADD40R,0.0372X0.0001*%
%ADD41R,0.0372X0.0001*%
%ADD42R,0.0373X0.0000*%
%ADD43R,0.0373X0.0000*%
%ADD44R,0.0374X0.0001*%
%ADD45R,0.0374X0.0001*%
%ADD46R,0.0375X0.0000*%
%ADD47R,0.0374X0.0000*%
%ADD48R,0.0375X0.0000*%
%ADD49R,0.0375X0.0000*%
%ADD50R,0.0375X0.0001*%
%ADD51R,0.0376X0.0001*%
%ADD52R,0.0376X0.0000*%
%ADD53R,0.0377X0.0001*%
%ADD54R,0.0376X0.0001*%
%ADD55R,0.0377X0.0000*%
%ADD56R,0.0378X0.0000*%
%ADD57R,0.0378X0.0000*%
%ADD58R,0.0379X0.0001*%
%ADD59R,0.0379X0.0000*%
%ADD60R,0.0379X0.0000*%
%ADD61R,0.0380X0.0001*%
%ADD62R,0.0379X0.0001*%
%ADD63R,0.0380X0.0000*%
%ADD64R,0.0379X0.0000*%
%ADD65R,0.0380X0.0000*%
%ADD66R,0.0380X0.0000*%
%ADD67R,0.0380X0.0001*%
%ADD68R,0.0381X0.0001*%
%ADD69R,0.0381X0.0000*%
%ADD70R,0.0381X0.0001*%
%ADD71R,0.0381X0.0001*%
%ADD72R,0.0381X0.0000*%
%ADD73R,0.0382X0.0001*%
%ADD74R,0.0381X0.0001*%
%ADD75R,0.0382X0.0000*%
%ADD76R,0.0382X0.0000*%
%ADD77R,0.0382X0.0001*%
%ADD78R,0.0382X0.0000*%
%ADD79R,0.0383X0.0000*%
%ADD80R,0.0383X0.0001*%
%ADD81R,0.0383X0.0001*%
%ADD82R,0.0383X0.0000*%
%ADD83R,0.0382X0.0001*%
%ADD84R,0.0379X0.0001*%
%ADD85R,0.0381X0.0000*%
%ADD86R,0.0378X0.0001*%
%ADD87R,0.0377X0.0000*%
%ADD88R,0.0376X0.0000*%
%ADD89R,0.0374X0.0000*%
%ADD90R,0.0377X0.0001*%
%ADD91R,0.0372X0.0000*%
%ADD92R,0.0371X0.0001*%
%ADD93R,0.0376X0.0001*%
%ADD94R,0.0371X0.0000*%
%ADD95R,0.0376X0.0000*%
%ADD96R,0.0370X0.0000*%
%ADD97R,0.0369X0.0001*%
%ADD98R,0.0374X0.0001*%
%ADD99R,0.0368X0.0000*%
%ADD100R,0.0374X0.0000*%
%ADD101R,0.0367X0.0001*%
%ADD102R,0.0373X0.0001*%
%ADD103R,0.0366X0.0000*%
%ADD104R,0.0372X0.0000*%
%ADD105R,0.0365X0.0000*%
%ADD106R,0.0371X0.0000*%
%ADD107R,0.0364X0.0001*%
%ADD108R,0.0371X0.0001*%
%ADD109R,0.0362X0.0000*%
%ADD110R,0.0369X0.0000*%
%ADD111R,0.0360X0.0001*%
%ADD112R,0.0369X0.0001*%
%ADD113R,0.0359X0.0000*%
%ADD114R,0.0367X0.0000*%
%ADD115R,0.0357X0.0000*%
%ADD116R,0.0355X0.0001*%
%ADD117R,0.0365X0.0001*%
%ADD118R,0.0354X0.0000*%
%ADD119R,0.0364X0.0000*%
%ADD120R,0.0351X0.0001*%
%ADD121R,0.0363X0.0001*%
%ADD122R,0.0348X0.0000*%
%ADD123R,0.0361X0.0000*%
%ADD124R,0.0345X0.0000*%
%ADD125R,0.0340X0.0001*%
%ADD126R,0.0359X0.0001*%
%ADD127R,0.0258X0.0000*%
%ADD128R,0.0356X0.0000*%
%ADD129R,0.0257X0.0001*%
%ADD130R,0.0354X0.0001*%
%ADD131R,0.0257X0.0000*%
%ADD132R,0.0352X0.0000*%
%ADD133R,0.0347X0.0001*%
%ADD134R,0.0257X0.0000*%
%ADD135R,0.0344X0.0000*%
%ADD136R,0.0257X0.0001*%
%ADD137R,0.0338X0.0001*%
%ADD138R,0.0239X0.0000*%
%ADD139R,0.0256X0.0000*%
%ADD140R,0.0256X0.0001*%
%ADD141R,0.0239X0.0001*%
%ADD142R,0.0239X0.0001*%
%ADD143R,0.0256X0.0000*%
%ADD144R,0.0239X0.0000*%
%ADD145R,0.0256X0.0001*%
%ADD146R,0.0255X0.0000*%
%ADD147R,0.0238X0.0000*%
%ADD148R,0.0255X0.0001*%
%ADD149R,0.0238X0.0001*%
%ADD150R,0.0255X0.0000*%
%ADD151R,0.0255X0.0001*%
%ADD152R,0.0238X0.0001*%
%ADD153R,0.0238X0.0000*%
%ADD154R,0.0255X0.0000*%
%ADD155R,0.0238X0.0000*%
%ADD156R,0.0255X0.0001*%
%ADD157R,0.0238X0.0001*%
%ADD158R,0.0254X0.0000*%
%ADD159R,0.0254X0.0001*%
%ADD160R,0.0237X0.0000*%
%ADD161R,0.0254X0.0001*%
%ADD162R,0.0237X0.0001*%
%ADD163R,0.0254X0.0000*%
%ADD164R,0.0253X0.0000*%
%ADD165R,0.0236X0.0000*%
%ADD166R,0.0253X0.0001*%
%ADD167R,0.0236X0.0001*%
%ADD168R,0.0253X0.0000*%
%ADD169R,0.0253X0.0001*%
%ADD170R,0.0236X0.0001*%
%ADD171R,0.0236X0.0000*%
%ADD172R,0.0252X0.0001*%
%ADD173R,0.0252X0.0000*%
%ADD174R,0.0235X0.0000*%
%ADD175R,0.0235X0.0001*%
%ADD176R,0.0251X0.0000*%
%ADD177R,0.0251X0.0001*%
%ADD178R,0.0235X0.0001*%
%ADD179R,0.0235X0.0000*%
%ADD180R,0.0251X0.0001*%
%ADD181R,0.0251X0.0000*%
%ADD182R,0.0234X0.0000*%
%ADD183R,0.0250X0.0001*%
%ADD184R,0.0234X0.0001*%
%ADD185R,0.0250X0.0000*%
%ADD186R,0.0250X0.0000*%
%ADD187R,0.0234X0.0000*%
%ADD188R,0.0250X0.0001*%
%ADD189R,0.0234X0.0001*%
%ADD190R,0.0250X0.0001*%
%ADD191R,0.0250X0.0000*%
%ADD192R,0.0233X0.0000*%
%ADD193R,0.0249X0.0001*%
%ADD194R,0.0233X0.0001*%
%ADD195R,0.0249X0.0000*%
%ADD196R,0.0233X0.0001*%
%ADD197R,0.0233X0.0000*%
%ADD198R,0.0249X0.0000*%
%ADD199R,0.0249X0.0001*%
%ADD200R,0.0232X0.0000*%
%ADD201R,0.0248X0.0001*%
%ADD202R,0.0232X0.0001*%
%ADD203R,0.0248X0.0000*%
%ADD204R,0.0248X0.0001*%
%ADD205R,0.0232X0.0001*%
%ADD206R,0.0248X0.0000*%
%ADD207R,0.0232X0.0000*%
%ADD208R,0.0247X0.0000*%
%ADD209R,0.0231X0.0000*%
%ADD210R,0.0247X0.0001*%
%ADD211R,0.0231X0.0001*%
%ADD212R,0.0246X0.0001*%
%ADD213R,0.0246X0.0000*%
%ADD214R,0.0231X0.0000*%
%ADD215R,0.0231X0.0001*%
%ADD216R,0.0246X0.0000*%
%ADD217R,0.0246X0.0001*%
%ADD218R,0.0230X0.0000*%
%ADD219R,0.0245X0.0000*%
%ADD220R,0.0245X0.0001*%
%ADD221R,0.0230X0.0001*%
%ADD222R,0.0245X0.0001*%
%ADD223R,0.0230X0.0001*%
%ADD224R,0.0245X0.0000*%
%ADD225R,0.0230X0.0000*%
%ADD226R,0.0245X0.0000*%
%ADD227R,0.0229X0.0000*%
%ADD228R,0.0245X0.0001*%
%ADD229R,0.0229X0.0001*%
%ADD230R,0.0244X0.0000*%
%ADD231R,0.0244X0.0001*%
%ADD232R,0.0229X0.0001*%
%ADD233R,0.0229X0.0000*%
%ADD234R,0.0244X0.0000*%
%ADD235R,0.0228X0.0000*%
%ADD236R,0.0244X0.0001*%
%ADD237R,0.0228X0.0001*%
%ADD238R,0.0243X0.0000*%
%ADD239R,0.0243X0.0001*%
%ADD240R,0.0243X0.0000*%
%ADD241R,0.0228X0.0000*%
%ADD242R,0.0243X0.0001*%
%ADD243R,0.0228X0.0001*%
%ADD244R,0.0242X0.0000*%
%ADD245R,0.0227X0.0000*%
%ADD246R,0.0242X0.0001*%
%ADD247R,0.0227X0.0001*%
%ADD248R,0.0241X0.0000*%
%ADD249R,0.0241X0.0001*%
%ADD250R,0.0227X0.0001*%
%ADD251R,0.0227X0.0000*%
%ADD252R,0.0241X0.0001*%
%ADD253R,0.0241X0.0000*%
%ADD254R,0.0226X0.0000*%
%ADD255R,0.0226X0.0001*%
%ADD256R,0.0240X0.0000*%
%ADD257R,0.0240X0.0001*%
%ADD258R,0.0226X0.0001*%
%ADD259R,0.0240X0.0000*%
%ADD260R,0.0226X0.0000*%
%ADD261R,0.0240X0.0001*%
%ADD262R,0.0225X0.0000*%
%ADD263R,0.0240X0.0001*%
%ADD264R,0.0225X0.0001*%
%ADD265R,0.0240X0.0000*%
%ADD266R,0.0225X0.0000*%
%ADD267R,0.0225X0.0001*%
%ADD268R,0.0239X0.0001*%
%ADD269R,0.0239X0.0000*%
%ADD270R,0.0224X0.0000*%
%ADD271R,0.0224X0.0001*%
%ADD272R,0.0224X0.0001*%
%ADD273R,0.0224X0.0000*%
%ADD274R,0.0223X0.0000*%
%ADD275R,0.0237X0.0001*%
%ADD276R,0.0223X0.0001*%
%ADD277R,0.0237X0.0000*%
%ADD278R,0.0223X0.0001*%
%ADD279R,0.0223X0.0000*%
%ADD280R,0.0236X0.0000*%
%ADD281R,0.0222X0.0000*%
%ADD282R,0.0236X0.0001*%
%ADD283R,0.0222X0.0001*%
%ADD284R,0.0222X0.0000*%
%ADD285R,0.0222X0.0001*%
%ADD286R,0.0221X0.0000*%
%ADD287R,0.0235X0.0000*%
%ADD288R,0.0235X0.0001*%
%ADD289R,0.0221X0.0001*%
%ADD290R,0.0221X0.0001*%
%ADD291R,0.0221X0.0000*%
%ADD292R,0.0234X0.0000*%
%ADD293R,0.0220X0.0000*%
%ADD294R,0.0234X0.0001*%
%ADD295R,0.0220X0.0001*%
%ADD296R,0.0220X0.0001*%
%ADD297R,0.0220X0.0000*%
%ADD298R,0.0219X0.0000*%
%ADD299R,0.0219X0.0001*%
%ADD300R,0.0232X0.0000*%
%ADD301R,0.0232X0.0001*%
%ADD302R,0.0219X0.0000*%
%ADD303R,0.0219X0.0001*%
%ADD304R,0.0231X0.0000*%
%ADD305R,0.0218X0.0000*%
%ADD306R,0.0231X0.0001*%
%ADD307R,0.0218X0.0001*%
%ADD308R,0.0218X0.0001*%
%ADD309R,0.0218X0.0000*%
%ADD310R,0.0217X0.0000*%
%ADD311R,0.0217X0.0001*%
%ADD312R,0.0230X0.0000*%
%ADD313R,0.0230X0.0001*%
%ADD314R,0.0217X0.0001*%
%ADD315R,0.0217X0.0000*%
%ADD316R,0.0216X0.0000*%
%ADD317R,0.0229X0.0001*%
%ADD318R,0.0216X0.0001*%
%ADD319R,0.0229X0.0000*%
%ADD320R,0.0216X0.0000*%
%ADD321R,0.0216X0.0001*%
%ADD322R,0.0215X0.0000*%
%ADD323R,0.0227X0.0001*%
%ADD324R,0.0215X0.0001*%
%ADD325R,0.0227X0.0000*%
%ADD326R,0.0215X0.0001*%
%ADD327R,0.0215X0.0000*%
%ADD328R,0.0214X0.0000*%
%ADD329R,0.0226X0.0001*%
%ADD330R,0.0214X0.0001*%
%ADD331R,0.0226X0.0000*%
%ADD332R,0.0214X0.0001*%
%ADD333R,0.0214X0.0000*%
%ADD334R,0.0213X0.0000*%
%ADD335R,0.0213X0.0001*%
%ADD336R,0.0225X0.0001*%
%ADD337R,0.0225X0.0000*%
%ADD338R,0.0213X0.0000*%
%ADD339R,0.0213X0.0001*%
%ADD340R,0.0213X0.0000*%
%ADD341R,0.0224X0.0000*%
%ADD342R,0.0224X0.0001*%
%ADD343R,0.0213X0.0001*%
%ADD344R,0.0212X0.0001*%
%ADD345R,0.0212X0.0000*%
%ADD346R,0.0211X0.0000*%
%ADD347R,0.0211X0.0001*%
%ADD348R,0.0222X0.0000*%
%ADD349R,0.0222X0.0001*%
%ADD350R,0.0211X0.0001*%
%ADD351R,0.0211X0.0000*%
%ADD352R,0.0210X0.0000*%
%ADD353R,0.0210X0.0001*%
%ADD354R,0.0221X0.0000*%
%ADD355R,0.0221X0.0001*%
%ADD356R,0.0210X0.0000*%
%ADD357R,0.0210X0.0001*%
%ADD358R,0.0209X0.0000*%
%ADD359R,0.0209X0.0001*%
%ADD360R,0.0220X0.0000*%
%ADD361R,0.0220X0.0001*%
%ADD362R,0.0209X0.0001*%
%ADD363R,0.0209X0.0000*%
%ADD364R,0.0208X0.0000*%
%ADD365R,0.0208X0.0001*%
%ADD366R,0.0219X0.0000*%
%ADD367R,0.0219X0.0001*%
%ADD368R,0.0208X0.0001*%
%ADD369R,0.0208X0.0000*%
%ADD370R,0.0208X0.0000*%
%ADD371R,0.0208X0.0001*%
%ADD372R,0.0217X0.0000*%
%ADD373R,0.0207X0.0000*%
%ADD374R,0.0217X0.0001*%
%ADD375R,0.0207X0.0001*%
%ADD376R,0.0206X0.0000*%
%ADD377R,0.0216X0.0001*%
%ADD378R,0.0206X0.0001*%
%ADD379R,0.0216X0.0000*%
%ADD380R,0.0206X0.0001*%
%ADD381R,0.0206X0.0000*%
%ADD382R,0.0205X0.0000*%
%ADD383R,0.0205X0.0001*%
%ADD384R,0.0215X0.0001*%
%ADD385R,0.0205X0.0001*%
%ADD386R,0.0215X0.0000*%
%ADD387R,0.0205X0.0000*%
%ADD388R,0.0204X0.0000*%
%ADD389R,0.0204X0.0001*%
%ADD390R,0.0214X0.0001*%
%ADD391R,0.0214X0.0000*%
%ADD392R,0.0204X0.0000*%
%ADD393R,0.0204X0.0001*%
%ADD394R,0.0203X0.0000*%
%ADD395R,0.0203X0.0001*%
%ADD396R,0.0212X0.0001*%
%ADD397R,0.0203X0.0001*%
%ADD398R,0.0212X0.0000*%
%ADD399R,0.0203X0.0000*%
%ADD400R,0.0203X0.0000*%
%ADD401R,0.0203X0.0001*%
%ADD402R,0.0211X0.0000*%
%ADD403R,0.0211X0.0001*%
%ADD404R,0.0202X0.0001*%
%ADD405R,0.0202X0.0000*%
%ADD406R,0.0201X0.0000*%
%ADD407R,0.0201X0.0001*%
%ADD408R,0.0210X0.0000*%
%ADD409R,0.0201X0.0000*%
%ADD410R,0.0210X0.0001*%
%ADD411R,0.0201X0.0001*%
%ADD412R,0.0200X0.0000*%
%ADD413R,0.0200X0.0001*%
%ADD414R,0.0209X0.0000*%
%ADD415R,0.0209X0.0001*%
%ADD416R,0.0200X0.0001*%
%ADD417R,0.0200X0.0000*%
%ADD418R,0.0199X0.0000*%
%ADD419R,0.0199X0.0001*%
%ADD420R,0.0199X0.0001*%
%ADD421R,0.0207X0.0000*%
%ADD422R,0.0199X0.0000*%
%ADD423R,0.0207X0.0001*%
%ADD424R,0.0198X0.0000*%
%ADD425R,0.0198X0.0001*%
%ADD426R,0.0206X0.0000*%
%ADD427R,0.0198X0.0000*%
%ADD428R,0.0206X0.0001*%
%ADD429R,0.0198X0.0001*%
%ADD430R,0.0198X0.0000*%
%ADD431R,0.0198X0.0001*%
%ADD432R,0.0197X0.0001*%
%ADD433R,0.0205X0.0000*%
%ADD434R,0.0197X0.0000*%
%ADD435R,0.0205X0.0001*%
%ADD436R,0.0196X0.0000*%
%ADD437R,0.0196X0.0001*%
%ADD438R,0.0204X0.0001*%
%ADD439R,0.0196X0.0001*%
%ADD440R,0.0204X0.0000*%
%ADD441R,0.0196X0.0000*%
%ADD442R,0.0195X0.0000*%
%ADD443R,0.0195X0.0001*%
%ADD444R,0.0195X0.0000*%
%ADD445R,0.0202X0.0001*%
%ADD446R,0.0195X0.0001*%
%ADD447R,0.0202X0.0000*%
%ADD448R,0.0194X0.0000*%
%ADD449R,0.0194X0.0001*%
%ADD450R,0.0201X0.0001*%
%ADD451R,0.0194X0.0001*%
%ADD452R,0.0201X0.0000*%
%ADD453R,0.0194X0.0000*%
%ADD454R,0.0193X0.0000*%
%ADD455R,0.0193X0.0001*%
%ADD456R,0.0193X0.0001*%
%ADD457R,0.0193X0.0000*%
%ADD458R,0.0200X0.0001*%
%ADD459R,0.0200X0.0000*%
%ADD460R,0.0192X0.0000*%
%ADD461R,0.0192X0.0001*%
%ADD462R,0.0199X0.0000*%
%ADD463R,0.0192X0.0000*%
%ADD464R,0.0199X0.0001*%
%ADD465R,0.0192X0.0001*%
%ADD466R,0.0191X0.0000*%
%ADD467R,0.0191X0.0001*%
%ADD468R,0.0191X0.0001*%
%ADD469R,0.0191X0.0000*%
%ADD470R,0.0197X0.0000*%
%ADD471R,0.0197X0.0001*%
%ADD472R,0.0190X0.0000*%
%ADD473R,0.0190X0.0001*%
%ADD474R,0.0190X0.0001*%
%ADD475R,0.0196X0.0000*%
%ADD476R,0.0190X0.0000*%
%ADD477R,0.0196X0.0001*%
%ADD478R,0.0189X0.0000*%
%ADD479R,0.0189X0.0001*%
%ADD480R,0.0189X0.0000*%
%ADD481R,0.0189X0.0001*%
%ADD482R,0.0195X0.0000*%
%ADD483R,0.0195X0.0001*%
%ADD484R,0.0188X0.0000*%
%ADD485R,0.0188X0.0001*%
%ADD486R,0.0188X0.0001*%
%ADD487R,0.0194X0.0000*%
%ADD488R,0.0188X0.0000*%
%ADD489R,0.0194X0.0001*%
%ADD490R,0.0187X0.0000*%
%ADD491R,0.0187X0.0001*%
%ADD492R,0.0187X0.0001*%
%ADD493R,0.0187X0.0000*%
%ADD494R,0.0192X0.0000*%
%ADD495R,0.0186X0.0000*%
%ADD496R,0.0192X0.0001*%
%ADD497R,0.0186X0.0001*%
%ADD498R,0.0186X0.0000*%
%ADD499R,0.0191X0.0001*%
%ADD500R,0.0186X0.0001*%
%ADD501R,0.0191X0.0000*%
%ADD502R,0.0185X0.0000*%
%ADD503R,0.0185X0.0001*%
%ADD504R,0.0185X0.0001*%
%ADD505R,0.0185X0.0000*%
%ADD506R,0.0190X0.0001*%
%ADD507R,0.0190X0.0000*%
%ADD508R,0.0184X0.0000*%
%ADD509R,0.0184X0.0001*%
%ADD510R,0.0184X0.0001*%
%ADD511R,0.0184X0.0000*%
%ADD512R,0.0189X0.0001*%
%ADD513R,0.0189X0.0000*%
%ADD514R,0.0183X0.0000*%
%ADD515R,0.0183X0.0001*%
%ADD516R,0.0183X0.0000*%
%ADD517R,0.0183X0.0001*%
%ADD518R,0.0187X0.0001*%
%ADD519R,0.0187X0.0000*%
%ADD520R,0.0182X0.0000*%
%ADD521R,0.0182X0.0001*%
%ADD522R,0.0182X0.0001*%
%ADD523R,0.0182X0.0000*%
%ADD524R,0.0186X0.0000*%
%ADD525R,0.0186X0.0001*%
%ADD526R,0.0181X0.0000*%
%ADD527R,0.0181X0.0001*%
%ADD528R,0.0181X0.0001*%
%ADD529R,0.0181X0.0000*%
%ADD530R,0.0185X0.0000*%
%ADD531R,0.0180X0.0000*%
%ADD532R,0.0185X0.0001*%
%ADD533R,0.0180X0.0001*%
%ADD534R,0.0180X0.0000*%
%ADD535R,0.0180X0.0001*%
%ADD536R,0.0184X0.0000*%
%ADD537R,0.0184X0.0001*%
%ADD538R,0.0179X0.0000*%
%ADD539R,0.0179X0.0001*%
%ADD540R,0.0179X0.0001*%
%ADD541R,0.0179X0.0000*%
%ADD542R,0.0182X0.0000*%
%ADD543R,0.0178X0.0000*%
%ADD544R,0.0182X0.0001*%
%ADD545R,0.0178X0.0001*%
%ADD546R,0.0178X0.0001*%
%ADD547R,0.0178X0.0000*%
%ADD548R,0.0181X0.0000*%
%ADD549R,0.0177X0.0000*%
%ADD550R,0.0181X0.0001*%
%ADD551R,0.0177X0.0001*%
%ADD552R,0.0177X0.0000*%
%ADD553R,0.0177X0.0001*%
%ADD554R,0.0180X0.0000*%
%ADD555R,0.0176X0.0000*%
%ADD556R,0.0180X0.0001*%
%ADD557R,0.0176X0.0001*%
%ADD558R,0.0176X0.0001*%
%ADD559R,0.0176X0.0000*%
%ADD560R,0.0179X0.0001*%
%ADD561R,0.0179X0.0000*%
%ADD562R,0.0175X0.0000*%
%ADD563R,0.0175X0.0001*%
%ADD564R,0.0175X0.0001*%
%ADD565R,0.0175X0.0000*%
%ADD566R,0.0174X0.0000*%
%ADD567R,0.0177X0.0001*%
%ADD568R,0.0174X0.0001*%
%ADD569R,0.0177X0.0000*%
%ADD570R,0.0174X0.0000*%
%ADD571R,0.0174X0.0001*%
%ADD572R,0.0176X0.0001*%
%ADD573R,0.0176X0.0000*%
%ADD574R,0.0173X0.0000*%
%ADD575R,0.0173X0.0001*%
%ADD576R,0.0173X0.0001*%
%ADD577R,0.0173X0.0000*%
%ADD578R,0.0173X0.0000*%
%ADD579R,0.0175X0.0001*%
%ADD580R,0.0173X0.0001*%
%ADD581R,0.0175X0.0000*%
%ADD582R,0.0172X0.0001*%
%ADD583R,0.0172X0.0000*%
%ADD584R,0.0174X0.0000*%
%ADD585R,0.0171X0.0000*%
%ADD586R,0.0174X0.0001*%
%ADD587R,0.0171X0.0001*%
%ADD588R,0.0171X0.0000*%
%ADD589R,0.0171X0.0001*%
%ADD590R,0.0170X0.0000*%
%ADD591R,0.0172X0.0000*%
%ADD592R,0.0172X0.0001*%
%ADD593R,0.0170X0.0001*%
%ADD594R,0.0170X0.0001*%
%ADD595R,0.0170X0.0000*%
%ADD596R,0.0171X0.0000*%
%ADD597R,0.0169X0.0000*%
%ADD598R,0.0171X0.0001*%
%ADD599R,0.0169X0.0001*%
%ADD600R,0.0169X0.0001*%
%ADD601R,0.0169X0.0000*%
%ADD602R,0.0168X0.0000*%
%ADD603R,0.0168X0.0001*%
%ADD604R,0.0170X0.0000*%
%ADD605R,0.0170X0.0001*%
%ADD606R,0.0168X0.0000*%
%ADD607R,0.0168X0.0001*%
%ADD608R,0.0169X0.0000*%
%ADD609R,0.0168X0.0000*%
%ADD610R,0.0169X0.0001*%
%ADD611R,0.0168X0.0001*%
%ADD612R,0.0167X0.0001*%
%ADD613R,0.0167X0.0000*%
%ADD614R,0.0166X0.0000*%
%ADD615R,0.0166X0.0001*%
%ADD616R,0.0167X0.0000*%
%ADD617R,0.0167X0.0001*%
%ADD618R,0.0166X0.0001*%
%ADD619R,0.0166X0.0000*%
%ADD620R,0.0165X0.0000*%
%ADD621R,0.0166X0.0001*%
%ADD622R,0.0165X0.0001*%
%ADD623R,0.0166X0.0000*%
%ADD624R,0.0165X0.0000*%
%ADD625R,0.0165X0.0001*%
%ADD626R,0.0164X0.0000*%
%ADD627R,0.0165X0.0001*%
%ADD628R,0.0164X0.0001*%
%ADD629R,0.0165X0.0000*%
%ADD630R,0.0164X0.0001*%
%ADD631R,0.0164X0.0000*%
%ADD632R,0.0163X0.0000*%
%ADD633R,0.0164X0.0001*%
%ADD634R,0.0163X0.0001*%
%ADD635R,0.0164X0.0000*%
%ADD636R,0.0163X0.0001*%
%ADD637R,0.0163X0.0000*%
%ADD638R,0.0163X0.0000*%
%ADD639R,0.0163X0.0001*%
%ADD640R,0.0162X0.0001*%
%ADD641R,0.0162X0.0000*%
%ADD642R,0.0162X0.0000*%
%ADD643R,0.0161X0.0001*%
%ADD644R,0.0162X0.0001*%
%ADD645R,0.0161X0.0000*%
%ADD646R,0.0161X0.0000*%
%ADD647R,0.0161X0.0001*%
%ADD648R,0.0160X0.0001*%
%ADD649R,0.0161X0.0001*%
%ADD650R,0.0160X0.0000*%
%ADD651R,0.0161X0.0000*%
%ADD652R,0.0160X0.0000*%
%ADD653R,0.0160X0.0001*%
%ADD654R,0.0160X0.0000*%
%ADD655R,0.0160X0.0001*%
%ADD656R,0.0159X0.0001*%
%ADD657R,0.0159X0.0000*%
%ADD658R,0.0159X0.0000*%
%ADD659R,0.0159X0.0001*%
%ADD660R,0.0159X0.0000*%
%ADD661R,0.0159X0.0001*%
%ADD662R,0.0158X0.0000*%
%ADD663R,0.0158X0.0001*%
%ADD664R,0.0158X0.0000*%
%ADD665R,0.0158X0.0000*%
%ADD666R,0.0158X0.0001*%
%ADD667R,0.0158X0.0001*%
%ADD668R,0.0157X0.0000*%
%ADD669R,0.0157X0.0001*%
%ADD670R,0.0156X0.0000*%
%ADD671R,0.0156X0.0001*%
%ADD672R,0.0156X0.0000*%
%ADD673R,0.0156X0.0001*%
%ADD674R,0.0157X0.0001*%
%ADD675R,0.0155X0.0000*%
%ADD676R,0.0157X0.0000*%
%ADD677R,0.0155X0.0001*%
%ADD678R,0.0155X0.0001*%
%ADD679R,0.0155X0.0000*%
%ADD680R,0.0155X0.0000*%
%ADD681R,0.0156X0.0000*%
%ADD682R,0.0155X0.0001*%
%ADD683R,0.0156X0.0001*%
%ADD684R,0.0154X0.0000*%
%ADD685R,0.0154X0.0001*%
%ADD686R,0.0154X0.0001*%
%ADD687R,0.0154X0.0000*%
%ADD688R,0.0153X0.0000*%
%ADD689R,0.0153X0.0001*%
%ADD690R,0.0154X0.0000*%
%ADD691R,0.0152X0.0001*%
%ADD692R,0.0154X0.0001*%
%ADD693R,0.0152X0.0000*%
%ADD694R,0.0152X0.0001*%
%ADD695R,0.0152X0.0000*%
%ADD696R,0.0151X0.0000*%
%ADD697R,0.0153X0.0000*%
%ADD698R,0.0151X0.0001*%
%ADD699R,0.0153X0.0001*%
%ADD700R,0.0151X0.0001*%
%ADD701R,0.0151X0.0000*%
%ADD702R,0.0150X0.0001*%
%ADD703R,0.0150X0.0000*%
%ADD704R,0.0150X0.0000*%
%ADD705R,0.0150X0.0001*%
%ADD706R,0.0150X0.0001*%
%ADD707R,0.0152X0.0001*%
%ADD708R,0.0150X0.0000*%
%ADD709R,0.0152X0.0000*%
%ADD710R,0.0149X0.0000*%
%ADD711R,0.0149X0.0001*%
%ADD712R,0.0149X0.0000*%
%ADD713R,0.0149X0.0001*%
%ADD714R,0.0151X0.0001*%
%ADD715R,0.0151X0.0000*%
%ADD716R,0.0148X0.0001*%
%ADD717R,0.0148X0.0000*%
%ADD718R,0.0260X0.0000*%
%ADD719R,0.0259X0.0000*%
%ADD720R,0.0260X0.0001*%
%ADD721R,0.0259X0.0001*%
%ADD722R,0.0868X0.0000*%
%ADD723R,0.0868X0.0001*%
%ADD724R,0.0321X0.0000*%
%ADD725R,0.0305X0.0000*%
%ADD726R,0.0321X0.0001*%
%ADD727R,0.0305X0.0001*%
%ADD728R,0.0867X0.0000*%
%ADD729R,0.0867X0.0001*%
%ADD730R,0.0867X0.0000*%
%ADD731R,0.0867X0.0001*%
%ADD732R,0.0866X0.0000*%
%ADD733R,0.0866X0.0000*%
%ADD734R,0.0866X0.0001*%
%ADD735R,0.0866X0.0000*%
%ADD736R,0.0866X0.0001*%
%ADD737R,0.0865X0.0000*%
%ADD738R,0.0865X0.0001*%
%ADD739R,0.0864X0.0001*%
%ADD740R,0.0864X0.0000*%
%ADD741R,0.0864X0.0001*%
%ADD742R,0.0864X0.0000*%
%ADD743R,0.0864X0.0001*%
%ADD744R,0.0864X0.0000*%
%ADD745R,0.0863X0.0001*%
%ADD746R,0.0863X0.0000*%
%ADD747R,0.0862X0.0001*%
%ADD748R,0.0862X0.0000*%
%ADD749R,0.0862X0.0001*%
%ADD750R,0.0862X0.0000*%
%ADD751R,0.0861X0.0001*%
%ADD752R,0.0861X0.0000*%
%ADD753R,0.0861X0.0001*%
%ADD754R,0.0860X0.0001*%
%ADD755R,0.0860X0.0000*%
%ADD756R,0.0859X0.0000*%
%ADD757R,0.0859X0.0001*%
%ADD758R,0.0858X0.0000*%
%ADD759R,0.0858X0.0001*%
%ADD760R,0.0857X0.0001*%
%ADD761R,0.0857X0.0000*%
%ADD762R,0.0856X0.0000*%
%ADD763R,0.0856X0.0001*%
%ADD764R,0.0855X0.0000*%
%ADD765R,0.0855X0.0001*%
%ADD766R,0.0855X0.0000*%
%ADD767R,0.0855X0.0001*%
%ADD768R,0.0854X0.0000*%
%ADD769R,0.0854X0.0001*%
%ADD770R,0.0853X0.0000*%
%ADD771R,0.0853X0.0001*%
%ADD772R,0.0853X0.0000*%
%ADD773R,0.0853X0.0000*%
%ADD774R,0.0852X0.0001*%
%ADD775R,0.0852X0.0000*%
%ADD776R,0.0852X0.0001*%
%ADD777R,0.0851X0.0000*%
%ADD778R,0.0850X0.0001*%
%ADD779R,0.0850X0.0000*%
%ADD780R,0.0850X0.0001*%
%ADD781R,0.0849X0.0000*%
%ADD782R,0.0848X0.0001*%
%ADD783R,0.0848X0.0000*%
%ADD784R,0.0848X0.0001*%
%ADD785R,0.0848X0.0000*%
%ADD786R,0.0847X0.0000*%
%ADD787R,0.0847X0.0001*%
%ADD788R,0.0846X0.0000*%
%ADD789R,0.0846X0.0001*%
%ADD790R,0.0845X0.0000*%
%ADD791R,0.0845X0.0000*%
%ADD792R,0.0845X0.0001*%
%ADD793R,0.0843X0.0000*%
%ADD794R,0.0843X0.0001*%
%ADD795R,0.0841X0.0000*%
%ADD796R,0.0840X0.0000*%
%ADD797R,0.0839X0.0001*%
%ADD798R,0.0838X0.0000*%
%ADD799R,0.0837X0.0001*%
%ADD800R,0.0836X0.0000*%
%ADD801R,0.0835X0.0000*%
%ADD802R,0.0834X0.0001*%
%ADD803R,0.0833X0.0000*%
%ADD804R,0.0832X0.0001*%
%ADD805R,0.0831X0.0000*%
%ADD806R,0.0830X0.0000*%
%ADD807R,0.0829X0.0001*%
%ADD808R,0.0828X0.0000*%
%ADD809R,0.0827X0.0001*%
%ADD810R,0.0826X0.0000*%
%ADD811R,0.0825X0.0000*%
%ADD812R,0.0824X0.0001*%
%ADD813R,0.0823X0.0000*%
%ADD814R,0.0822X0.0001*%
%ADD815R,0.0821X0.0000*%
%ADD816R,0.0820X0.0000*%
%ADD817R,0.0819X0.0001*%
%ADD818R,0.0818X0.0000*%
%ADD819R,0.0817X0.0001*%
%ADD820R,0.0816X0.0000*%
%ADD821R,0.0815X0.0000*%
%ADD822R,0.0814X0.0001*%
%ADD823R,0.0813X0.0000*%
%ADD824R,0.0812X0.0001*%
%ADD825R,0.0811X0.0000*%
%ADD826R,0.0810X0.0000*%
%ADD827R,0.0808X0.0001*%
%ADD828R,0.0808X0.0000*%
%ADD829R,0.0807X0.0001*%
%ADD830R,0.0805X0.0000*%
%ADD831R,0.0805X0.0000*%
%ADD832R,0.0803X0.0001*%
%ADD833R,0.0803X0.0000*%
%ADD834R,0.0802X0.0001*%
%ADD835R,0.0800X0.0000*%
%ADD836R,0.0800X0.0000*%
%ADD837R,0.0798X0.0001*%
%ADD838R,0.0798X0.0000*%
%ADD839R,0.0797X0.0001*%
%ADD840R,0.0795X0.0000*%
%ADD841R,0.0795X0.0000*%
%ADD842R,0.0793X0.0001*%
%ADD843R,0.0793X0.0000*%
%ADD844R,0.0791X0.0001*%
%ADD845R,0.0790X0.0000*%
%ADD846R,0.0789X0.0000*%
%ADD847R,0.0788X0.0001*%
%ADD848R,0.0787X0.0000*%
%ADD849R,0.0786X0.0001*%
%ADD850R,0.0785X0.0000*%
%ADD851R,0.0784X0.0000*%
%ADD852R,0.0783X0.0001*%
%ADD853R,0.0782X0.0000*%
%ADD854R,0.0781X0.0001*%
%ADD855R,0.0780X0.0000*%
%ADD856R,0.0779X0.0000*%
%ADD857R,0.0778X0.0001*%
%ADD858R,0.0777X0.0000*%
%ADD859R,0.0776X0.0001*%
%ADD860R,0.0775X0.0000*%
%ADD861R,0.0774X0.0000*%
%ADD862R,0.0773X0.0001*%
%ADD863R,0.0772X0.0000*%
%ADD864R,0.0771X0.0001*%
%ADD865R,0.0770X0.0000*%
%ADD866R,0.0769X0.0000*%
%ADD867R,0.0768X0.0001*%
%ADD868R,0.0767X0.0000*%
%ADD869R,0.0766X0.0001*%
%ADD870R,0.0765X0.0000*%
%ADD871R,0.0764X0.0000*%
%ADD872R,0.0763X0.0001*%
%ADD873R,0.0762X0.0000*%
%ADD874R,0.0761X0.0001*%
%ADD875R,0.0760X0.0000*%
%ADD876R,0.0758X0.0000*%
%ADD877R,0.0757X0.0001*%
%ADD878R,0.0757X0.0000*%
%ADD879R,0.0755X0.0001*%
%ADD880R,0.0755X0.0000*%
%ADD881R,0.0753X0.0000*%
%ADD882R,0.0752X0.0001*%
%ADD883R,0.0752X0.0000*%
%ADD884R,0.0750X0.0001*%
%ADD885R,0.0750X0.0000*%
%ADD886R,0.0748X0.0000*%
%ADD887R,0.0747X0.0001*%
%ADD888R,0.0747X0.0000*%
%ADD889R,0.0745X0.0001*%
%ADD890R,0.0745X0.0000*%
%ADD891R,0.0743X0.0000*%
%ADD892R,0.0742X0.0001*%
%ADD893R,0.0741X0.0000*%
%ADD894R,0.0740X0.0001*%
%ADD895R,0.0739X0.0000*%
%ADD896R,0.0738X0.0000*%
%ADD897R,0.0737X0.0001*%
%ADD898R,0.0736X0.0000*%
%ADD899R,0.0735X0.0001*%
%ADD900R,0.0734X0.0000*%
%ADD901R,0.0733X0.0000*%
%ADD902R,0.0732X0.0001*%
%ADD903R,0.0731X0.0000*%
%ADD904R,0.0730X0.0001*%
%ADD905R,0.0729X0.0000*%
%ADD906R,0.0728X0.0000*%
%ADD907R,0.0727X0.0001*%
%ADD908R,0.0726X0.0000*%
%ADD909R,0.0725X0.0001*%
%ADD910R,0.0724X0.0000*%
%ADD911R,0.0723X0.0000*%
%ADD912R,0.0722X0.0001*%
%ADD913R,0.0721X0.0000*%
%ADD914R,0.0720X0.0001*%
%ADD915R,0.0719X0.0000*%
%ADD916R,0.0718X0.0000*%
%ADD917R,0.0717X0.0001*%
%ADD918R,0.0716X0.0000*%
%ADD919R,0.0715X0.0001*%
%ADD920R,0.0714X0.0000*%
%ADD921R,0.0713X0.0000*%
%ADD922R,0.0712X0.0001*%
%ADD923R,0.0711X0.0000*%
%ADD924R,0.0710X0.0001*%
%ADD925R,0.0709X0.0000*%
%ADD926R,0.0707X0.0000*%
%ADD927R,0.0707X0.0001*%
%ADD928R,0.0705X0.0000*%
%ADD929R,0.0705X0.0001*%
%ADD930R,0.0703X0.0000*%
%ADD931R,0.0703X0.0000*%
%ADD932R,0.0702X0.0001*%
%ADD933R,0.0700X0.0000*%
%ADD934R,0.0700X0.0001*%
%ADD935R,0.0698X0.0000*%
%ADD936R,0.0698X0.0000*%
%ADD937R,0.0697X0.0001*%
%ADD938R,0.0695X0.0000*%
%ADD939R,0.0695X0.0001*%
%ADD940R,0.0693X0.0000*%
%ADD941R,0.0692X0.0000*%
%ADD942R,0.0691X0.0001*%
%ADD943R,0.0690X0.0000*%
%ADD944R,0.0689X0.0001*%
%ADD945R,0.0688X0.0000*%
%ADD946R,0.0687X0.0000*%
%ADD947R,0.0686X0.0001*%
%ADD948R,0.0685X0.0000*%
%ADD949R,0.0684X0.0001*%
%ADD950R,0.0683X0.0000*%
%ADD951R,0.0682X0.0000*%
%ADD952R,0.0681X0.0001*%
%ADD953R,0.0680X0.0000*%
%ADD954R,0.0679X0.0001*%
%ADD955R,0.0678X0.0000*%
%ADD956R,0.0677X0.0000*%
%ADD957R,0.0676X0.0001*%
%ADD958R,0.0675X0.0000*%
%ADD959R,0.0674X0.0001*%
%ADD960R,0.0673X0.0000*%
%ADD961R,0.0672X0.0000*%
%ADD962R,0.0671X0.0001*%
%ADD963R,0.0670X0.0000*%
%ADD964R,0.0669X0.0001*%
%ADD965R,0.0668X0.0000*%
%ADD966R,0.0667X0.0000*%
%ADD967R,0.0666X0.0001*%
%ADD968R,0.0665X0.0000*%
%ADD969R,0.0664X0.0001*%
%ADD970R,0.0663X0.0000*%
%ADD971R,0.0662X0.0000*%
%ADD972R,0.0661X0.0001*%
%ADD973R,0.0660X0.0000*%
%ADD974R,0.0659X0.0001*%
%ADD975R,0.0658X0.0000*%
%ADD976R,0.0657X0.0000*%
%ADD977R,0.0655X0.0001*%
%ADD978R,0.0655X0.0000*%
%ADD979R,0.0653X0.0001*%
%ADD980R,0.0653X0.0000*%
%ADD981R,0.0652X0.0000*%
%ADD982R,0.0650X0.0001*%
%ADD983R,0.0650X0.0000*%
%ADD984R,0.0648X0.0001*%
%ADD985R,0.0648X0.0000*%
%ADD986R,0.0647X0.0000*%
%ADD987R,0.0645X0.0001*%
%ADD988R,0.0645X0.0000*%
%ADD989R,0.0643X0.0001*%
%ADD990R,0.0642X0.0000*%
%ADD991R,0.0641X0.0000*%
%ADD992R,0.0640X0.0001*%
%ADD993R,0.0639X0.0000*%
%ADD994R,0.0638X0.0001*%
%ADD995R,0.0637X0.0000*%
%ADD996R,0.0636X0.0000*%
%ADD997R,0.0635X0.0001*%
%ADD998R,0.0634X0.0000*%
%ADD999R,0.0633X0.0001*%
%ADD1000R,0.0632X0.0000*%
%ADD1001R,0.0631X0.0000*%
%ADD1002R,0.0630X0.0001*%
%ADD1003R,0.0629X0.0000*%
%ADD1004R,0.0628X0.0001*%
%ADD1005R,0.0627X0.0000*%
%ADD1006R,0.0626X0.0000*%
%ADD1007R,0.0625X0.0001*%
%ADD1008R,0.0624X0.0000*%
%ADD1009R,0.0623X0.0001*%
%ADD1010R,0.0622X0.0000*%
%ADD1011R,0.0621X0.0000*%
%ADD1012R,0.0620X0.0001*%
%ADD1013R,0.0619X0.0000*%
%ADD1014R,0.0618X0.0001*%
%ADD1015R,0.0617X0.0000*%
%ADD1016R,0.0616X0.0000*%
%ADD1017R,0.0615X0.0001*%
%ADD1018R,0.0614X0.0000*%
%ADD1019R,0.0613X0.0001*%
%ADD1020R,0.0612X0.0000*%
%ADD1021R,0.0611X0.0000*%
%ADD1022R,0.0610X0.0001*%
%ADD1023R,0.0609X0.0000*%
%ADD1024R,0.0607X0.0001*%
%ADD1025R,0.0607X0.0000*%
%ADD1026R,0.0605X0.0000*%
%ADD1027R,0.0605X0.0001*%
%ADD1028R,0.0603X0.0000*%
%ADD1029R,0.0602X0.0001*%
%ADD1030R,0.0602X0.0000*%
%ADD1031R,0.0600X0.0000*%
%ADD1032R,0.0600X0.0001*%
%ADD1033R,0.0598X0.0000*%
%ADD1034R,0.0597X0.0001*%
%ADD1035R,0.0597X0.0000*%
%ADD1036R,0.0595X0.0000*%
%ADD1037R,0.0595X0.0001*%
%ADD1038R,0.0593X0.0000*%
%ADD1039R,0.0592X0.0001*%
%ADD1040R,0.0591X0.0000*%
%ADD1041R,0.0590X0.0000*%
%ADD1042R,0.0589X0.0001*%
%ADD1043R,0.0588X0.0000*%
%ADD1044R,0.0587X0.0001*%
%ADD1045R,0.0586X0.0000*%
%ADD1046R,0.0585X0.0000*%
%ADD1047R,0.0584X0.0001*%
%ADD1048R,0.0583X0.0000*%
%ADD1049R,0.0582X0.0001*%
%ADD1050R,0.0581X0.0000*%
%ADD1051R,0.0580X0.0000*%
%ADD1052R,0.0579X0.0001*%
%ADD1053R,0.0578X0.0000*%
%ADD1054R,0.0577X0.0001*%
%ADD1055R,0.0576X0.0000*%
%ADD1056R,0.0575X0.0000*%
%ADD1057R,0.0574X0.0001*%
%ADD1058R,0.0573X0.0000*%
%ADD1059R,0.0571X0.0001*%
%ADD1060R,0.0568X0.0000*%
%ADD1061R,0.0565X0.0000*%
%ADD1062R,0.0563X0.0001*%
%ADD1063R,0.0560X0.0000*%
%ADD1064R,0.0557X0.0001*%
%ADD1065R,0.0554X0.0000*%
%ADD1066R,0.0551X0.0000*%
%ADD1067R,0.0548X0.0001*%
%ADD1068R,0.0545X0.0000*%
%ADD1069R,0.0542X0.0001*%
%ADD1070R,0.0537X0.0000*%
%ADD1071R,0.0533X0.0000*%
%ADD1072R,0.0530X0.0001*%
%ADD1073R,0.0526X0.0000*%
%ADD1074R,0.0522X0.0001*%
%ADD1075R,0.0518X0.0000*%
%ADD1076R,0.0513X0.0000*%
%ADD1077R,0.0508X0.0001*%
%ADD1078R,0.0503X0.0000*%
%ADD1079R,0.0496X0.0001*%
%ADD1080R,0.0489X0.0000*%
%ADD1081R,0.0477X0.0000*%
%ADD1082C,0.0000*%
%ADD1083C,0.0080*%
D10*
X007340Y000805D02*
X007734Y000805D01*
X007537Y000805D02*
X007537Y001396D01*
X007340Y001199D01*
D11*
X006847Y002030D02*
X006847Y002370D01*
X007073Y002370D01*
X006960Y002200D02*
X006847Y002200D01*
X006705Y002370D02*
X006478Y002370D01*
X006478Y002030D01*
X006337Y002087D02*
X006280Y002030D01*
X006167Y002030D01*
X006110Y002087D01*
X006110Y002314D01*
X006167Y002370D01*
X006280Y002370D01*
X006337Y002314D01*
X006337Y002087D01*
X006478Y002200D02*
X006592Y002200D01*
X006582Y003030D02*
X006582Y003370D01*
X006724Y003200D02*
X006951Y003200D01*
X006582Y003030D02*
X006356Y003370D01*
X006356Y003030D01*
X006223Y003030D02*
X006110Y003030D01*
X006167Y003030D02*
X006167Y003370D01*
X006223Y003370D02*
X006110Y003370D01*
X006110Y004030D02*
X006223Y004030D01*
X006167Y004030D02*
X006167Y004370D01*
X006223Y004370D02*
X006110Y004370D01*
X006356Y004370D02*
X006582Y004030D01*
X006582Y004370D01*
X006356Y004370D02*
X006356Y004030D01*
X006724Y004200D02*
X006951Y004200D01*
X006837Y004087D02*
X006837Y004314D01*
X006223Y005030D02*
X006337Y005143D01*
X006337Y005370D01*
X006478Y005200D02*
X006705Y005200D01*
X006223Y005030D02*
X006110Y005143D01*
X006110Y005370D01*
X002169Y005370D02*
X001942Y005370D01*
X001942Y005030D01*
X001942Y005200D02*
X002055Y005200D01*
X001800Y005370D02*
X001573Y005370D01*
X001573Y005030D01*
X001432Y005087D02*
X001432Y005314D01*
X001375Y005370D01*
X001262Y005370D01*
X001205Y005314D01*
X001205Y005087D01*
X001262Y005030D01*
X001375Y005030D01*
X001432Y005087D01*
X001573Y005200D02*
X001687Y005200D01*
X001800Y004370D02*
X001800Y004087D01*
X001744Y004030D01*
X001630Y004030D01*
X001573Y004087D01*
X001573Y004370D01*
X001432Y004314D02*
X001375Y004370D01*
X001262Y004370D01*
X001205Y004314D01*
X001205Y004087D01*
X001262Y004030D01*
X001375Y004030D01*
X001432Y004087D01*
X001432Y004314D01*
X001942Y004370D02*
X002169Y004370D01*
X002055Y004370D02*
X002055Y004030D01*
X001800Y003370D02*
X001800Y003143D01*
X001687Y003030D01*
X001573Y003143D01*
X001573Y003370D01*
X001942Y003200D02*
X002169Y003200D01*
X002055Y003087D02*
X002055Y003314D01*
X001998Y002370D02*
X001942Y002314D01*
X001942Y002087D01*
X001998Y002030D01*
X002112Y002030D01*
X002169Y002087D01*
X002169Y002314D02*
X002112Y002370D01*
X001998Y002370D01*
X001800Y002370D02*
X001800Y002030D01*
X001573Y002370D01*
X001573Y002030D01*
D12*
X001096Y000525D03*
D13*
X001713Y000525D03*
D14*
X001713Y000525D03*
X001096Y000525D03*
D15*
X001096Y000526D03*
D16*
X001713Y000526D03*
D17*
X001096Y000526D03*
D18*
X001713Y000526D03*
X001713Y000776D03*
D19*
X001713Y000527D03*
X001096Y000527D03*
D20*
X001096Y000528D03*
D21*
X001713Y000528D03*
D22*
X001713Y000528D03*
X001096Y000528D03*
D23*
X001096Y000529D03*
X001713Y000529D03*
D24*
X001713Y000529D03*
X001713Y000774D03*
X001096Y000529D03*
D25*
X001096Y000529D03*
X001713Y000529D03*
D26*
X001096Y000530D03*
D27*
X001713Y000530D03*
D28*
X001096Y000530D03*
D29*
X001713Y000530D03*
D30*
X001096Y000531D03*
D31*
X001713Y000531D03*
D32*
X001713Y000531D03*
X001713Y000771D03*
X001096Y000531D03*
D33*
X001096Y000532D03*
X001713Y000532D03*
D34*
X001713Y000533D03*
X001096Y000533D03*
D35*
X001096Y000533D03*
D36*
X001713Y000533D03*
D37*
X001096Y000534D03*
D38*
X001713Y000534D03*
D39*
X001713Y000534D03*
X001096Y000534D03*
D40*
X001096Y000534D03*
D41*
X001713Y000534D03*
D42*
X001096Y000535D03*
D43*
X001713Y000535D03*
D44*
X001096Y000535D03*
D45*
X001096Y000764D03*
X001713Y000535D03*
D46*
X001096Y000536D03*
X001096Y000764D03*
D47*
X001713Y000536D03*
D48*
X001096Y000536D03*
D49*
X001713Y000536D03*
X001713Y000766D03*
D50*
X001096Y000763D03*
X001096Y000537D03*
D51*
X001713Y000537D03*
D52*
X001713Y000538D03*
X001713Y000765D03*
X001096Y000538D03*
D53*
X001096Y000538D03*
D54*
X001096Y000762D03*
X001713Y000538D03*
D55*
X001713Y000539D03*
X001096Y000539D03*
X001096Y000761D03*
D56*
X001096Y000539D03*
D57*
X001713Y000539D03*
X001713Y000764D03*
D58*
X001713Y000763D03*
X001713Y000539D03*
X001096Y000539D03*
D59*
X001096Y000540D03*
D60*
X001096Y000760D03*
X001713Y000764D03*
X001713Y000540D03*
D61*
X001096Y000540D03*
D62*
X001713Y000540D03*
X001713Y000762D03*
D63*
X001096Y000759D03*
X001096Y000541D03*
D64*
X001713Y000541D03*
X001713Y000763D03*
D65*
X001096Y000758D03*
X001096Y000543D03*
X001096Y000541D03*
D66*
X001096Y000759D03*
X001713Y000761D03*
X001713Y000541D03*
D67*
X001096Y000542D03*
X001096Y000758D03*
D68*
X001713Y000760D03*
X001713Y000542D03*
D69*
X001713Y000543D03*
X001713Y000761D03*
D70*
X001096Y000757D03*
X001096Y000543D03*
D71*
X001713Y000543D03*
D72*
X001713Y000544D03*
X001713Y000544D03*
X001713Y000759D03*
X001713Y000759D03*
X001096Y000756D03*
X001096Y000756D03*
X001096Y000544D03*
X001096Y000544D03*
D73*
X001096Y000544D03*
D74*
X001096Y000755D03*
X001713Y000759D03*
X001713Y000544D03*
D75*
X001096Y000545D03*
X001096Y000755D03*
D76*
X001713Y000545D03*
D77*
X001713Y000545D03*
X001713Y000547D03*
X001713Y000755D03*
X001713Y000757D03*
X001096Y000754D03*
X001096Y000753D03*
X001096Y000547D03*
X001096Y000545D03*
D78*
X001096Y000546D03*
X001096Y000546D03*
X001096Y000753D03*
X001096Y000754D03*
X001096Y000754D03*
X001713Y000756D03*
X001713Y000756D03*
X001713Y000758D03*
X001713Y000548D03*
X001713Y000546D03*
X001713Y000546D03*
D79*
X001096Y000548D03*
X001096Y000549D03*
X001096Y000549D03*
X001096Y000550D03*
X001096Y000551D03*
X001096Y000551D03*
X001096Y000553D03*
X001096Y000554D03*
X001096Y000554D03*
X001096Y000555D03*
X001096Y000556D03*
X001096Y000556D03*
X001096Y000558D03*
X001096Y000559D03*
X001096Y000559D03*
X001096Y000560D03*
X001096Y000561D03*
X001096Y000561D03*
X001096Y000563D03*
X001096Y000564D03*
X001096Y000564D03*
X001096Y000565D03*
X001096Y000566D03*
X001096Y000566D03*
X001096Y000568D03*
X001096Y000569D03*
X001096Y000569D03*
X001096Y000570D03*
X001096Y000571D03*
X001096Y000571D03*
X001096Y000573D03*
X001096Y000574D03*
X001096Y000574D03*
X001096Y000575D03*
X001096Y000576D03*
X001096Y000576D03*
X001096Y000578D03*
X001096Y000579D03*
X001096Y000579D03*
X001096Y000580D03*
X001096Y000581D03*
X001096Y000581D03*
X001096Y000583D03*
X001096Y000584D03*
X001096Y000584D03*
X001096Y000585D03*
X001096Y000586D03*
X001096Y000586D03*
X001096Y000588D03*
X001096Y000589D03*
X001096Y000589D03*
X001096Y000590D03*
X001096Y000591D03*
X001096Y000591D03*
X001096Y000593D03*
X001096Y000594D03*
X001096Y000594D03*
X001096Y000595D03*
X001096Y000596D03*
X001096Y000596D03*
X001096Y000598D03*
X001096Y000599D03*
X001096Y000599D03*
X001096Y000600D03*
X001096Y000601D03*
X001096Y000601D03*
X001096Y000603D03*
X001096Y000604D03*
X001096Y000604D03*
X001096Y000605D03*
X001096Y000606D03*
X001096Y000606D03*
X001096Y000608D03*
X001096Y000609D03*
X001096Y000609D03*
X001096Y000610D03*
X001096Y000611D03*
X001096Y000611D03*
X001096Y000613D03*
X001096Y000614D03*
X001096Y000614D03*
X001096Y000615D03*
X001096Y000616D03*
X001096Y000616D03*
X001096Y000618D03*
X001096Y000619D03*
X001096Y000619D03*
X001096Y000620D03*
X001096Y000621D03*
X001096Y000621D03*
X001096Y000623D03*
X001096Y000624D03*
X001096Y000624D03*
X001096Y000625D03*
X001096Y000626D03*
X001096Y000626D03*
X001096Y000628D03*
X001096Y000629D03*
X001096Y000629D03*
X001096Y000630D03*
X001096Y000631D03*
X001096Y000631D03*
X001096Y000633D03*
X001096Y000634D03*
X001096Y000634D03*
X001096Y000635D03*
X001096Y000636D03*
X001096Y000636D03*
X001096Y000638D03*
X001096Y000639D03*
X001096Y000639D03*
X001096Y000640D03*
X001096Y000641D03*
X001096Y000641D03*
X001096Y000643D03*
X001096Y000644D03*
X001096Y000644D03*
X001096Y000645D03*
X001096Y000646D03*
X001096Y000646D03*
X001096Y000648D03*
X001096Y000649D03*
X001096Y000649D03*
X001096Y000650D03*
X001096Y000651D03*
X001096Y000651D03*
X001096Y000653D03*
X001096Y000654D03*
X001096Y000654D03*
X001096Y000655D03*
X001096Y000656D03*
X001096Y000656D03*
X001096Y000658D03*
X001096Y000659D03*
X001096Y000659D03*
X001096Y000660D03*
X001096Y000661D03*
X001096Y000661D03*
X001096Y000663D03*
X001096Y000664D03*
X001096Y000664D03*
X001096Y000665D03*
X001096Y000666D03*
X001096Y000666D03*
X001096Y000668D03*
X001096Y000669D03*
X001096Y000669D03*
X001096Y000670D03*
X001096Y000671D03*
X001096Y000671D03*
X001096Y000673D03*
X001096Y000674D03*
X001096Y000674D03*
X001096Y000675D03*
X001096Y000676D03*
X001096Y000676D03*
X001096Y000678D03*
X001096Y000679D03*
X001096Y000679D03*
X001096Y000680D03*
X001096Y000681D03*
X001096Y000681D03*
X001096Y000683D03*
X001096Y000684D03*
X001096Y000684D03*
X001096Y000685D03*
X001096Y000686D03*
X001096Y000686D03*
X001096Y000688D03*
X001096Y000689D03*
X001096Y000689D03*
X001096Y000690D03*
X001096Y000691D03*
X001096Y000691D03*
X001096Y000693D03*
X001096Y000694D03*
X001096Y000694D03*
X001096Y000695D03*
X001096Y000696D03*
X001096Y000696D03*
X001096Y000698D03*
X001096Y000699D03*
X001096Y000699D03*
X001096Y000700D03*
X001096Y000701D03*
X001096Y000701D03*
X001096Y000703D03*
X001096Y000704D03*
X001096Y000704D03*
X001096Y000705D03*
X001096Y000706D03*
X001096Y000706D03*
X001096Y000708D03*
X001096Y000709D03*
X001096Y000709D03*
X001096Y000710D03*
X001096Y000711D03*
X001096Y000711D03*
X001096Y000713D03*
X001096Y000714D03*
X001096Y000714D03*
X001096Y000715D03*
X001096Y000716D03*
X001096Y000716D03*
X001096Y000718D03*
X001096Y000719D03*
X001096Y000719D03*
X001096Y000720D03*
X001096Y000721D03*
X001096Y000721D03*
X001096Y000723D03*
X001096Y000724D03*
X001096Y000724D03*
X001096Y000725D03*
X001096Y000726D03*
X001096Y000726D03*
X001096Y000728D03*
X001096Y000729D03*
X001096Y000729D03*
X001096Y000730D03*
X001096Y000731D03*
X001096Y000731D03*
X001096Y000733D03*
X001096Y000734D03*
X001096Y000734D03*
X001096Y000735D03*
X001096Y000736D03*
X001096Y000736D03*
X001096Y000738D03*
X001096Y000739D03*
X001096Y000739D03*
X001096Y000740D03*
X001096Y000741D03*
X001096Y000741D03*
X001096Y000743D03*
X001096Y000744D03*
X001096Y000744D03*
X001096Y000745D03*
X001096Y000746D03*
X001096Y000746D03*
X001096Y000748D03*
X001096Y000749D03*
X001096Y000749D03*
X001096Y000750D03*
X001096Y000751D03*
X001096Y000751D03*
D80*
X001096Y000750D03*
X001096Y000749D03*
X001096Y000748D03*
X001096Y000747D03*
X001096Y000745D03*
X001096Y000744D03*
X001096Y000743D03*
X001096Y000742D03*
X001096Y000740D03*
X001096Y000739D03*
X001096Y000738D03*
X001096Y000737D03*
X001096Y000735D03*
X001096Y000734D03*
X001096Y000733D03*
X001096Y000732D03*
X001096Y000730D03*
X001096Y000729D03*
X001096Y000728D03*
X001096Y000727D03*
X001096Y000725D03*
X001096Y000724D03*
X001096Y000723D03*
X001096Y000722D03*
X001096Y000720D03*
X001096Y000719D03*
X001096Y000718D03*
X001096Y000717D03*
X001096Y000715D03*
X001096Y000714D03*
X001096Y000713D03*
X001096Y000712D03*
X001096Y000710D03*
X001096Y000709D03*
X001096Y000708D03*
X001096Y000707D03*
X001096Y000705D03*
X001096Y000704D03*
X001096Y000703D03*
X001096Y000702D03*
X001096Y000700D03*
X001096Y000699D03*
X001096Y000698D03*
X001096Y000697D03*
X001096Y000695D03*
X001096Y000694D03*
X001096Y000693D03*
X001096Y000692D03*
X001096Y000690D03*
X001096Y000689D03*
X001096Y000688D03*
X001096Y000687D03*
X001096Y000685D03*
X001096Y000684D03*
X001096Y000683D03*
X001096Y000682D03*
X001096Y000680D03*
X001096Y000679D03*
X001096Y000678D03*
X001096Y000677D03*
X001096Y000675D03*
X001096Y000674D03*
X001096Y000673D03*
X001096Y000672D03*
X001096Y000670D03*
X001096Y000669D03*
X001096Y000668D03*
X001096Y000667D03*
X001096Y000665D03*
X001096Y000664D03*
X001096Y000663D03*
X001096Y000662D03*
X001096Y000660D03*
X001096Y000659D03*
X001096Y000658D03*
X001096Y000657D03*
X001096Y000655D03*
X001096Y000654D03*
X001096Y000653D03*
X001096Y000652D03*
X001096Y000650D03*
X001096Y000649D03*
X001096Y000648D03*
X001096Y000647D03*
X001096Y000645D03*
X001096Y000644D03*
X001096Y000643D03*
X001096Y000642D03*
X001096Y000640D03*
X001096Y000639D03*
X001096Y000638D03*
X001096Y000637D03*
X001096Y000635D03*
X001096Y000634D03*
X001096Y000633D03*
X001096Y000632D03*
X001096Y000630D03*
X001096Y000629D03*
X001096Y000628D03*
X001096Y000627D03*
X001096Y000625D03*
X001096Y000624D03*
X001096Y000623D03*
X001096Y000622D03*
X001096Y000620D03*
X001096Y000619D03*
X001096Y000618D03*
X001096Y000617D03*
X001096Y000615D03*
X001096Y000614D03*
X001096Y000613D03*
X001096Y000612D03*
X001096Y000610D03*
X001096Y000609D03*
X001096Y000608D03*
X001096Y000607D03*
X001096Y000605D03*
X001096Y000604D03*
X001096Y000603D03*
X001096Y000602D03*
X001096Y000600D03*
X001096Y000599D03*
X001096Y000598D03*
X001096Y000597D03*
X001096Y000595D03*
X001096Y000594D03*
X001096Y000593D03*
X001096Y000592D03*
X001096Y000590D03*
X001096Y000589D03*
X001096Y000588D03*
X001096Y000587D03*
X001096Y000585D03*
X001096Y000584D03*
X001096Y000583D03*
X001096Y000582D03*
X001096Y000580D03*
X001096Y000579D03*
X001096Y000578D03*
X001096Y000577D03*
X001096Y000575D03*
X001096Y000574D03*
X001096Y000573D03*
X001096Y000572D03*
X001096Y000570D03*
X001096Y000569D03*
X001096Y000568D03*
X001096Y000567D03*
X001096Y000565D03*
X001096Y000564D03*
X001096Y000563D03*
X001096Y000562D03*
X001096Y000560D03*
X001096Y000559D03*
X001096Y000558D03*
X001096Y000557D03*
X001096Y000555D03*
X001096Y000554D03*
X001096Y000553D03*
X001096Y000552D03*
X001096Y000550D03*
X001096Y000549D03*
X001096Y000548D03*
X001096Y000752D03*
D81*
X001713Y000753D03*
X001713Y000752D03*
X001713Y000750D03*
X001713Y000749D03*
X001713Y000748D03*
X001713Y000747D03*
X001713Y000745D03*
X001713Y000744D03*
X001713Y000743D03*
X001713Y000742D03*
X001713Y000740D03*
X001713Y000739D03*
X001713Y000738D03*
X001713Y000737D03*
X001713Y000735D03*
X001713Y000734D03*
X001713Y000733D03*
X001713Y000732D03*
X001713Y000730D03*
X001713Y000729D03*
X001713Y000728D03*
X001713Y000727D03*
X001713Y000725D03*
X001713Y000724D03*
X001713Y000723D03*
X001713Y000722D03*
X001713Y000720D03*
X001713Y000719D03*
X001713Y000718D03*
X001713Y000717D03*
X001713Y000715D03*
X001713Y000714D03*
X001713Y000713D03*
X001713Y000712D03*
X001713Y000710D03*
X001713Y000709D03*
X001713Y000708D03*
X001713Y000707D03*
X001713Y000705D03*
X001713Y000704D03*
X001713Y000703D03*
X001713Y000702D03*
X001713Y000700D03*
X001713Y000699D03*
X001713Y000698D03*
X001713Y000697D03*
X001713Y000695D03*
X001713Y000694D03*
X001713Y000693D03*
X001713Y000692D03*
X001713Y000690D03*
X001713Y000689D03*
X001713Y000688D03*
X001713Y000687D03*
X001713Y000685D03*
X001713Y000684D03*
X001713Y000683D03*
X001713Y000682D03*
X001713Y000680D03*
X001713Y000679D03*
X001713Y000678D03*
X001713Y000677D03*
X001713Y000675D03*
X001713Y000674D03*
X001713Y000673D03*
X001713Y000672D03*
X001713Y000670D03*
X001713Y000669D03*
X001713Y000668D03*
X001713Y000667D03*
X001713Y000665D03*
X001713Y000664D03*
X001713Y000663D03*
X001713Y000662D03*
X001713Y000660D03*
X001713Y000659D03*
X001713Y000658D03*
X001713Y000657D03*
X001713Y000655D03*
X001713Y000654D03*
X001713Y000653D03*
X001713Y000652D03*
X001713Y000650D03*
X001713Y000649D03*
X001713Y000648D03*
X001713Y000647D03*
X001713Y000645D03*
X001713Y000644D03*
X001713Y000643D03*
X001713Y000642D03*
X001713Y000640D03*
X001713Y000639D03*
X001713Y000638D03*
X001713Y000637D03*
X001713Y000635D03*
X001713Y000634D03*
X001713Y000633D03*
X001713Y000632D03*
X001713Y000630D03*
X001713Y000629D03*
X001713Y000628D03*
X001713Y000627D03*
X001713Y000625D03*
X001713Y000624D03*
X001713Y000623D03*
X001713Y000622D03*
X001713Y000620D03*
X001713Y000619D03*
X001713Y000618D03*
X001713Y000617D03*
X001713Y000615D03*
X001713Y000614D03*
X001713Y000613D03*
X001713Y000612D03*
X001713Y000610D03*
X001713Y000609D03*
X001713Y000608D03*
X001713Y000607D03*
X001713Y000605D03*
X001713Y000604D03*
X001713Y000603D03*
X001713Y000602D03*
X001713Y000600D03*
X001713Y000599D03*
X001713Y000598D03*
X001713Y000597D03*
X001713Y000595D03*
X001713Y000594D03*
X001713Y000593D03*
X001713Y000592D03*
X001713Y000590D03*
X001713Y000589D03*
X001713Y000588D03*
X001713Y000587D03*
X001713Y000585D03*
X001713Y000584D03*
X001713Y000583D03*
X001713Y000582D03*
X001713Y000580D03*
X001713Y000579D03*
X001713Y000578D03*
X001713Y000577D03*
X001713Y000575D03*
X001713Y000574D03*
X001713Y000573D03*
X001713Y000572D03*
X001713Y000570D03*
X001713Y000569D03*
X001713Y000568D03*
X001713Y000567D03*
X001713Y000565D03*
X001713Y000564D03*
X001713Y000563D03*
X001713Y000562D03*
X001713Y000560D03*
X001713Y000559D03*
X001713Y000558D03*
X001713Y000557D03*
X001713Y000555D03*
X001713Y000554D03*
X001713Y000553D03*
X001713Y000552D03*
X001713Y000550D03*
X001713Y000549D03*
X001713Y000548D03*
X001713Y000754D03*
D82*
X001713Y000754D03*
X001713Y000754D03*
X001713Y000755D03*
X001713Y000753D03*
X001713Y000751D03*
X001713Y000751D03*
X001713Y000750D03*
X001713Y000749D03*
X001713Y000749D03*
X001713Y000748D03*
X001713Y000746D03*
X001713Y000746D03*
X001713Y000745D03*
X001713Y000744D03*
X001713Y000744D03*
X001713Y000743D03*
X001713Y000741D03*
X001713Y000741D03*
X001713Y000740D03*
X001713Y000739D03*
X001713Y000739D03*
X001713Y000738D03*
X001713Y000736D03*
X001713Y000736D03*
X001713Y000735D03*
X001713Y000734D03*
X001713Y000734D03*
X001713Y000733D03*
X001713Y000731D03*
X001713Y000731D03*
X001713Y000730D03*
X001713Y000729D03*
X001713Y000729D03*
X001713Y000728D03*
X001713Y000726D03*
X001713Y000726D03*
X001713Y000725D03*
X001713Y000724D03*
X001713Y000724D03*
X001713Y000723D03*
X001713Y000721D03*
X001713Y000721D03*
X001713Y000720D03*
X001713Y000719D03*
X001713Y000719D03*
X001713Y000718D03*
X001713Y000716D03*
X001713Y000716D03*
X001713Y000715D03*
X001713Y000714D03*
X001713Y000714D03*
X001713Y000713D03*
X001713Y000711D03*
X001713Y000711D03*
X001713Y000710D03*
X001713Y000709D03*
X001713Y000709D03*
X001713Y000708D03*
X001713Y000706D03*
X001713Y000706D03*
X001713Y000705D03*
X001713Y000704D03*
X001713Y000704D03*
X001713Y000703D03*
X001713Y000701D03*
X001713Y000701D03*
X001713Y000700D03*
X001713Y000699D03*
X001713Y000699D03*
X001713Y000698D03*
X001713Y000696D03*
X001713Y000696D03*
X001713Y000695D03*
X001713Y000694D03*
X001713Y000694D03*
X001713Y000693D03*
X001713Y000691D03*
X001713Y000691D03*
X001713Y000690D03*
X001713Y000689D03*
X001713Y000689D03*
X001713Y000688D03*
X001713Y000686D03*
X001713Y000686D03*
X001713Y000685D03*
X001713Y000684D03*
X001713Y000684D03*
X001713Y000683D03*
X001713Y000681D03*
X001713Y000681D03*
X001713Y000680D03*
X001713Y000679D03*
X001713Y000679D03*
X001713Y000678D03*
X001713Y000676D03*
X001713Y000676D03*
X001713Y000675D03*
X001713Y000674D03*
X001713Y000674D03*
X001713Y000673D03*
X001713Y000671D03*
X001713Y000671D03*
X001713Y000670D03*
X001713Y000669D03*
X001713Y000669D03*
X001713Y000668D03*
X001713Y000666D03*
X001713Y000666D03*
X001713Y000665D03*
X001713Y000664D03*
X001713Y000664D03*
X001713Y000663D03*
X001713Y000661D03*
X001713Y000661D03*
X001713Y000660D03*
X001713Y000659D03*
X001713Y000659D03*
X001713Y000658D03*
X001713Y000656D03*
X001713Y000656D03*
X001713Y000655D03*
X001713Y000654D03*
X001713Y000654D03*
X001713Y000653D03*
X001713Y000651D03*
X001713Y000651D03*
X001713Y000650D03*
X001713Y000649D03*
X001713Y000649D03*
X001713Y000648D03*
X001713Y000646D03*
X001713Y000646D03*
X001713Y000645D03*
X001713Y000644D03*
X001713Y000644D03*
X001713Y000643D03*
X001713Y000641D03*
X001713Y000641D03*
X001713Y000640D03*
X001713Y000639D03*
X001713Y000639D03*
X001713Y000638D03*
X001713Y000636D03*
X001713Y000636D03*
X001713Y000635D03*
X001713Y000634D03*
X001713Y000634D03*
X001713Y000633D03*
X001713Y000631D03*
X001713Y000631D03*
X001713Y000630D03*
X001713Y000629D03*
X001713Y000629D03*
X001713Y000628D03*
X001713Y000626D03*
X001713Y000626D03*
X001713Y000625D03*
X001713Y000624D03*
X001713Y000624D03*
X001713Y000623D03*
X001713Y000621D03*
X001713Y000621D03*
X001713Y000620D03*
X001713Y000619D03*
X001713Y000619D03*
X001713Y000618D03*
X001713Y000616D03*
X001713Y000616D03*
X001713Y000615D03*
X001713Y000614D03*
X001713Y000614D03*
X001713Y000613D03*
X001713Y000611D03*
X001713Y000611D03*
X001713Y000610D03*
X001713Y000609D03*
X001713Y000609D03*
X001713Y000608D03*
X001713Y000606D03*
X001713Y000606D03*
X001713Y000605D03*
X001713Y000604D03*
X001713Y000604D03*
X001713Y000603D03*
X001713Y000601D03*
X001713Y000601D03*
X001713Y000600D03*
X001713Y000599D03*
X001713Y000599D03*
X001713Y000598D03*
X001713Y000596D03*
X001713Y000596D03*
X001713Y000595D03*
X001713Y000594D03*
X001713Y000594D03*
X001713Y000593D03*
X001713Y000591D03*
X001713Y000591D03*
X001713Y000590D03*
X001713Y000589D03*
X001713Y000589D03*
X001713Y000588D03*
X001713Y000586D03*
X001713Y000586D03*
X001713Y000585D03*
X001713Y000584D03*
X001713Y000584D03*
X001713Y000583D03*
X001713Y000581D03*
X001713Y000581D03*
X001713Y000580D03*
X001713Y000579D03*
X001713Y000579D03*
X001713Y000578D03*
X001713Y000576D03*
X001713Y000576D03*
X001713Y000575D03*
X001713Y000574D03*
X001713Y000574D03*
X001713Y000573D03*
X001713Y000571D03*
X001713Y000571D03*
X001713Y000570D03*
X001713Y000569D03*
X001713Y000569D03*
X001713Y000568D03*
X001713Y000566D03*
X001713Y000566D03*
X001713Y000565D03*
X001713Y000564D03*
X001713Y000564D03*
X001713Y000563D03*
X001713Y000561D03*
X001713Y000561D03*
X001713Y000560D03*
X001713Y000559D03*
X001713Y000559D03*
X001713Y000558D03*
X001713Y000556D03*
X001713Y000556D03*
X001713Y000555D03*
X001713Y000554D03*
X001713Y000554D03*
X001713Y000553D03*
X001713Y000551D03*
X001713Y000551D03*
X001713Y000550D03*
X001713Y000549D03*
X001713Y000549D03*
D83*
X001713Y000758D03*
D84*
X001096Y000759D03*
D85*
X001713Y000760D03*
D86*
X001096Y000760D03*
D87*
X001096Y000761D03*
D88*
X001096Y000763D03*
D89*
X001096Y000764D03*
D90*
X001713Y000764D03*
D91*
X001096Y000765D03*
D92*
X001096Y000765D03*
D93*
X001713Y000765D03*
D94*
X001096Y000766D03*
D95*
X001713Y000766D03*
D96*
X001096Y000766D03*
D97*
X001096Y000767D03*
D98*
X001713Y000767D03*
D99*
X001096Y000768D03*
D100*
X001713Y000768D03*
D101*
X001096Y000768D03*
D102*
X001713Y000768D03*
D103*
X001096Y000769D03*
D104*
X001713Y000769D03*
D105*
X001096Y000769D03*
D106*
X001713Y000769D03*
D107*
X001096Y000769D03*
D108*
X001713Y000769D03*
D109*
X001096Y000770D03*
D110*
X001713Y000770D03*
D111*
X001096Y000770D03*
D112*
X001713Y000770D03*
D113*
X001096Y000771D03*
D114*
X001713Y000771D03*
D115*
X001096Y000771D03*
D116*
X001096Y000772D03*
D117*
X001713Y000772D03*
D118*
X001096Y000773D03*
D119*
X001713Y000773D03*
D120*
X001096Y000773D03*
D121*
X001713Y000773D03*
D122*
X001096Y000774D03*
D123*
X001713Y000774D03*
D124*
X001096Y000774D03*
D125*
X001096Y000774D03*
D126*
X001713Y000774D03*
D127*
X001098Y000775D03*
D128*
X001713Y000775D03*
D129*
X001098Y000775D03*
X001098Y000777D03*
D130*
X001713Y000775D03*
D131*
X001098Y000776D03*
X001098Y000776D03*
D132*
X001713Y000776D03*
D133*
X001713Y000777D03*
D134*
X001097Y000778D03*
X001097Y000779D03*
D135*
X001713Y000778D03*
D136*
X001097Y000778D03*
D137*
X001713Y000778D03*
D138*
X001717Y000779D03*
X001717Y000779D03*
X001717Y000780D03*
D139*
X001097Y000780D03*
X001097Y000779D03*
D140*
X001097Y000779D03*
X001097Y000780D03*
D141*
X001717Y000779D03*
D142*
X001717Y000780D03*
X001717Y000782D03*
X001088Y000839D03*
D143*
X001097Y000781D03*
X001097Y000781D03*
D144*
X001088Y000839D03*
X001088Y000839D03*
X001088Y000840D03*
X001717Y000781D03*
X001717Y000781D03*
D145*
X001097Y000782D03*
D146*
X001096Y000783D03*
X001096Y000784D03*
D147*
X001718Y000784D03*
X001718Y000784D03*
X001718Y000783D03*
D148*
X001096Y000783D03*
D149*
X001718Y000783D03*
D150*
X001096Y000784D03*
X001096Y000785D03*
D151*
X001096Y000785D03*
X001096Y000784D03*
D152*
X001088Y000842D03*
X001088Y000843D03*
X001718Y000785D03*
X001718Y000784D03*
D153*
X001718Y000785D03*
X001718Y000786D03*
X001088Y000843D03*
D154*
X001096Y000786D03*
X001096Y000786D03*
D155*
X001088Y000844D03*
X001088Y000844D03*
X001088Y000845D03*
X001718Y000789D03*
X001718Y000788D03*
X001718Y000786D03*
D156*
X001096Y000787D03*
D157*
X001088Y000844D03*
X001718Y000788D03*
X001718Y000787D03*
D158*
X001096Y000788D03*
X001096Y000789D03*
X001096Y000789D03*
D159*
X001096Y000788D03*
D160*
X001718Y000789D03*
X001718Y000790D03*
D161*
X001095Y000790D03*
X001095Y000789D03*
D162*
X001718Y000789D03*
X001718Y000790D03*
D163*
X001095Y000790D03*
D164*
X001095Y000791D03*
X001095Y000791D03*
D165*
X001087Y000848D03*
X001087Y000849D03*
X001718Y000793D03*
X001718Y000791D03*
X001718Y000791D03*
D166*
X001095Y000792D03*
D167*
X001087Y000847D03*
X001087Y000848D03*
X001718Y000792D03*
D168*
X001095Y000793D03*
X001095Y000794D03*
X001095Y000794D03*
D169*
X001095Y000793D03*
D170*
X001719Y000793D03*
X001719Y000794D03*
D171*
X001719Y000794D03*
X001719Y000794D03*
D172*
X001095Y000794D03*
X001095Y000795D03*
D173*
X001095Y000795D03*
D174*
X001086Y000851D03*
X001086Y000851D03*
X001719Y000796D03*
X001719Y000796D03*
X001719Y000795D03*
D175*
X001719Y000795D03*
X001086Y000850D03*
D176*
X001094Y000798D03*
X001094Y000796D03*
X001094Y000796D03*
D177*
X001094Y000797D03*
D178*
X001086Y000852D03*
X001086Y000853D03*
X001719Y000798D03*
X001719Y000797D03*
D179*
X001719Y000798D03*
X001719Y000799D03*
X001086Y000853D03*
X001086Y000854D03*
D180*
X001094Y000798D03*
D181*
X001094Y000799D03*
X001094Y000799D03*
D182*
X001719Y000800D03*
X001719Y000801D03*
X001719Y000799D03*
D183*
X001094Y000799D03*
X001094Y000800D03*
D184*
X001719Y000800D03*
X001719Y000799D03*
D185*
X001094Y000800D03*
D186*
X001094Y000801D03*
X001094Y000801D03*
X001094Y000803D03*
D187*
X001086Y000856D03*
X001086Y000856D03*
X001720Y000803D03*
X001720Y000801D03*
D188*
X001094Y000802D03*
D189*
X001086Y000855D03*
X001086Y000857D03*
X001720Y000803D03*
X001720Y000802D03*
D190*
X001094Y000803D03*
D191*
X001094Y000804D03*
X001094Y000804D03*
D192*
X001720Y000805D03*
X001720Y000804D03*
X001720Y000804D03*
D193*
X001093Y000804D03*
X001093Y000805D03*
D194*
X001720Y000804D03*
D195*
X001093Y000805D03*
X001093Y000806D03*
D196*
X001085Y000859D03*
X001720Y000807D03*
X001720Y000805D03*
D197*
X001720Y000806D03*
X001720Y000806D03*
X001085Y000859D03*
X001085Y000860D03*
D198*
X001093Y000808D03*
X001093Y000806D03*
D199*
X001093Y000807D03*
D200*
X001085Y000861D03*
X001085Y000861D03*
X001720Y000809D03*
X001720Y000809D03*
X001720Y000808D03*
D201*
X001093Y000808D03*
D202*
X001085Y000860D03*
X001085Y000862D03*
X001720Y000808D03*
D203*
X001093Y000809D03*
X001093Y000809D03*
D204*
X001093Y000809D03*
X001093Y000810D03*
D205*
X001721Y000810D03*
X001721Y000809D03*
D206*
X001093Y000810D03*
X001093Y000811D03*
D207*
X001721Y000811D03*
X001721Y000810D03*
D208*
X001092Y000811D03*
X001092Y000813D03*
D209*
X001084Y000864D03*
X001084Y000865D03*
X001721Y000814D03*
X001721Y000813D03*
X001721Y000811D03*
D210*
X001092Y000812D03*
D211*
X001084Y000864D03*
X001084Y000865D03*
X001721Y000813D03*
X001721Y000812D03*
D212*
X001092Y000813D03*
X001092Y000814D03*
D213*
X001092Y000814D03*
X001092Y000814D03*
D214*
X001721Y000815D03*
X001721Y000814D03*
D215*
X001721Y000814D03*
X001721Y000815D03*
D216*
X001092Y000816D03*
X001092Y000815D03*
D217*
X001092Y000815D03*
D218*
X001084Y000868D03*
X001084Y000869D03*
X001721Y000818D03*
X001721Y000816D03*
X001721Y000816D03*
D219*
X001091Y000816D03*
X001091Y000818D03*
D220*
X001091Y000817D03*
D221*
X001084Y000868D03*
X001721Y000817D03*
D222*
X001091Y000818D03*
X001091Y000819D03*
D223*
X001084Y000869D03*
X001084Y000870D03*
X001722Y000819D03*
X001722Y000818D03*
D224*
X001091Y000819D03*
X001091Y000819D03*
D225*
X001084Y000869D03*
X001084Y000870D03*
X001722Y000819D03*
X001722Y000819D03*
D226*
X001091Y000820D03*
X001091Y000821D03*
D227*
X001722Y000821D03*
X001722Y000821D03*
X001722Y000820D03*
D228*
X001091Y000820D03*
D229*
X001722Y000820D03*
D230*
X001091Y000821D03*
X001091Y000823D03*
D231*
X001091Y000823D03*
X001091Y000822D03*
D232*
X001083Y000873D03*
X001722Y000823D03*
X001722Y000822D03*
D233*
X001722Y000823D03*
X001722Y000824D03*
X001083Y000873D03*
X001083Y000874D03*
X001083Y000874D03*
D234*
X001090Y000824D03*
X001090Y000824D03*
D235*
X001723Y000825D03*
X001723Y000826D03*
X001723Y000824D03*
D236*
X001090Y000824D03*
D237*
X001723Y000824D03*
X001723Y000825D03*
D238*
X001090Y000826D03*
X001090Y000825D03*
D239*
X001090Y000825D03*
D240*
X001090Y000826D03*
X001090Y000828D03*
D241*
X001083Y000876D03*
X001083Y000876D03*
X001723Y000828D03*
X001723Y000826D03*
D242*
X001090Y000827D03*
X001090Y000828D03*
D243*
X001083Y000877D03*
X001723Y000828D03*
X001723Y000827D03*
D244*
X001090Y000829D03*
X001090Y000829D03*
D245*
X001083Y000878D03*
X001083Y000879D03*
X001083Y000879D03*
X001723Y000830D03*
X001723Y000829D03*
X001723Y000829D03*
D246*
X001090Y000829D03*
D247*
X001083Y000878D03*
X001723Y000829D03*
D248*
X001089Y000830D03*
X001089Y000831D03*
X001089Y000831D03*
D249*
X001089Y000830D03*
D250*
X001723Y000830D03*
X001723Y000832D03*
D251*
X001723Y000831D03*
X001723Y000831D03*
D252*
X001089Y000832D03*
X001089Y000833D03*
D253*
X001089Y000833D03*
D254*
X001082Y000881D03*
X001082Y000881D03*
X001082Y000883D03*
X001723Y000834D03*
X001723Y000834D03*
X001723Y000833D03*
D255*
X001723Y000833D03*
X001082Y000882D03*
D256*
X001089Y000834D03*
X001089Y000834D03*
D257*
X001089Y000834D03*
D258*
X001724Y000834D03*
X001724Y000835D03*
D259*
X001089Y000836D03*
X001089Y000836D03*
X001089Y000835D03*
D260*
X001724Y000836D03*
X001724Y000835D03*
D261*
X001089Y000835D03*
D262*
X001081Y000885D03*
X001081Y000886D03*
X001724Y000839D03*
X001724Y000838D03*
X001724Y000836D03*
D263*
X001089Y000837D03*
X001089Y000838D03*
D264*
X001081Y000884D03*
X001081Y000885D03*
X001724Y000838D03*
X001724Y000837D03*
D265*
X001089Y000838D03*
D266*
X001081Y000886D03*
X001081Y000888D03*
X001724Y000840D03*
X001724Y000839D03*
D267*
X001724Y000839D03*
X001724Y000840D03*
X001081Y000887D03*
D268*
X001088Y000840D03*
D269*
X001088Y000841D03*
X001088Y000841D03*
D270*
X001724Y000841D03*
X001724Y000841D03*
X001724Y000843D03*
D271*
X001724Y000842D03*
D272*
X001725Y000843D03*
X001725Y000844D03*
X001081Y000889D03*
X001081Y000890D03*
D273*
X001081Y000890D03*
X001081Y000891D03*
X001725Y000844D03*
X001725Y000844D03*
D274*
X001725Y000845D03*
X001725Y000846D03*
X001725Y000846D03*
D275*
X001087Y000845D03*
D276*
X001725Y000845D03*
D277*
X001087Y000846D03*
X001087Y000846D03*
D278*
X001080Y000893D03*
X001080Y000894D03*
X001725Y000848D03*
X001725Y000847D03*
D279*
X001725Y000848D03*
X001725Y000849D03*
X001080Y000894D03*
X001080Y000894D03*
D280*
X001087Y000850D03*
X001087Y000849D03*
D281*
X001080Y000895D03*
X001080Y000896D03*
X001725Y000851D03*
X001725Y000850D03*
X001725Y000849D03*
D282*
X001087Y000849D03*
D283*
X001080Y000895D03*
X001725Y000850D03*
X001725Y000849D03*
D284*
X001726Y000851D03*
X001726Y000853D03*
D285*
X001726Y000853D03*
X001726Y000852D03*
D286*
X001726Y000854D03*
X001726Y000854D03*
X001726Y000855D03*
X001079Y000899D03*
X001079Y000899D03*
D287*
X001086Y000855D03*
X001086Y000854D03*
D288*
X001086Y000854D03*
D289*
X001079Y000898D03*
X001079Y000899D03*
X001726Y000854D03*
D290*
X001726Y000855D03*
X001726Y000857D03*
D291*
X001726Y000856D03*
X001726Y000856D03*
D292*
X001085Y000858D03*
X001085Y000859D03*
D293*
X001079Y000901D03*
X001079Y000903D03*
X001726Y000859D03*
X001726Y000859D03*
X001726Y000858D03*
D294*
X001085Y000858D03*
D295*
X001079Y000902D03*
X001079Y000903D03*
X001726Y000858D03*
D296*
X001727Y000859D03*
X001727Y000860D03*
X001079Y000904D03*
D297*
X001079Y000904D03*
X001079Y000904D03*
X001727Y000861D03*
X001727Y000860D03*
D298*
X001727Y000861D03*
X001727Y000863D03*
X001727Y000864D03*
D299*
X001727Y000863D03*
X001727Y000862D03*
D300*
X001085Y000863D03*
X001085Y000864D03*
D301*
X001085Y000863D03*
D302*
X001078Y000906D03*
X001078Y000908D03*
X001727Y000865D03*
X001727Y000864D03*
D303*
X001727Y000864D03*
X001727Y000865D03*
X001078Y000907D03*
X001078Y000908D03*
D304*
X001084Y000866D03*
X001084Y000866D03*
D305*
X001728Y000866D03*
X001728Y000866D03*
X001728Y000868D03*
D306*
X001084Y000867D03*
D307*
X001728Y000867D03*
D308*
X001728Y000868D03*
X001728Y000869D03*
X001078Y000910D03*
D309*
X001078Y000910D03*
X001078Y000911D03*
X001078Y000911D03*
X001728Y000869D03*
X001728Y000869D03*
D310*
X001728Y000870D03*
X001728Y000871D03*
X001728Y000871D03*
X001078Y000913D03*
D311*
X001078Y000913D03*
X001078Y000912D03*
X001728Y000870D03*
D312*
X001084Y000871D03*
X001084Y000871D03*
D313*
X001084Y000872D03*
D314*
X001728Y000873D03*
X001728Y000872D03*
D315*
X001728Y000873D03*
X001728Y000874D03*
D316*
X001728Y000874D03*
X001728Y000875D03*
X001728Y000876D03*
X001077Y000915D03*
X001077Y000916D03*
X001077Y000916D03*
D317*
X001083Y000875D03*
X001083Y000874D03*
D318*
X001077Y000915D03*
X001728Y000875D03*
X001728Y000874D03*
D319*
X001083Y000875D03*
D320*
X001729Y000876D03*
X001729Y000878D03*
D321*
X001729Y000878D03*
X001729Y000877D03*
D322*
X001729Y000879D03*
X001729Y000879D03*
X001729Y000880D03*
X001076Y000919D03*
X001076Y000919D03*
X001076Y000920D03*
D323*
X001082Y000880D03*
X001082Y000879D03*
D324*
X001076Y000919D03*
X001729Y000879D03*
D325*
X001082Y000880D03*
D326*
X001076Y000920D03*
X001729Y000882D03*
X001729Y000880D03*
D327*
X001729Y000881D03*
X001729Y000881D03*
X001076Y000921D03*
X001076Y000921D03*
D328*
X001729Y000884D03*
X001729Y000884D03*
X001729Y000883D03*
D329*
X001082Y000883D03*
D330*
X001729Y000883D03*
D331*
X001082Y000884D03*
X001082Y000884D03*
D332*
X001076Y000924D03*
X001730Y000885D03*
X001730Y000884D03*
D333*
X001730Y000885D03*
X001730Y000886D03*
X001076Y000924D03*
X001076Y000924D03*
X001076Y000925D03*
D334*
X001730Y000889D03*
X001730Y000888D03*
X001730Y000886D03*
D335*
X001730Y000887D03*
X001730Y000888D03*
D336*
X001081Y000888D03*
D337*
X001081Y000889D03*
X001081Y000889D03*
D338*
X001075Y000928D03*
X001075Y000929D03*
X001730Y000890D03*
X001730Y000889D03*
D339*
X001730Y000889D03*
X001730Y000890D03*
X001075Y000927D03*
X001075Y000928D03*
D340*
X001075Y000929D03*
X001075Y000930D03*
X001730Y000893D03*
X001730Y000891D03*
X001730Y000891D03*
D341*
X001080Y000891D03*
X001080Y000893D03*
D342*
X001080Y000892D03*
D343*
X001075Y000929D03*
X001730Y000892D03*
D344*
X001731Y000893D03*
X001731Y000894D03*
D345*
X001731Y000894D03*
X001731Y000894D03*
D346*
X001731Y000895D03*
X001731Y000896D03*
X001731Y000896D03*
X001074Y000933D03*
X001074Y000934D03*
D347*
X001074Y000933D03*
X001074Y000932D03*
X001731Y000895D03*
D348*
X001080Y000896D03*
X001080Y000898D03*
D349*
X001080Y000897D03*
D350*
X001731Y000898D03*
X001731Y000897D03*
D351*
X001731Y000898D03*
X001731Y000899D03*
D352*
X001731Y000899D03*
X001731Y000900D03*
X001731Y000901D03*
X001074Y000936D03*
X001074Y000936D03*
D353*
X001074Y000935D03*
X001074Y000937D03*
X001731Y000900D03*
X001731Y000899D03*
D354*
X001079Y000900D03*
X001079Y000901D03*
D355*
X001079Y000900D03*
D356*
X001074Y000938D03*
X001074Y000939D03*
X001732Y000903D03*
X001732Y000901D03*
D357*
X001732Y000902D03*
X001732Y000903D03*
X001074Y000938D03*
D358*
X001732Y000905D03*
X001732Y000904D03*
X001732Y000904D03*
D359*
X001732Y000904D03*
D360*
X001079Y000905D03*
X001079Y000906D03*
D361*
X001079Y000905D03*
D362*
X001073Y000940D03*
X001073Y000942D03*
X001732Y000907D03*
X001732Y000905D03*
D363*
X001732Y000906D03*
X001732Y000906D03*
X001073Y000941D03*
X001073Y000941D03*
D364*
X001733Y000909D03*
X001733Y000909D03*
X001733Y000908D03*
D365*
X001733Y000908D03*
D366*
X001078Y000909D03*
X001078Y000909D03*
D367*
X001078Y000909D03*
D368*
X001073Y000944D03*
X001073Y000945D03*
X001733Y000910D03*
X001733Y000909D03*
D369*
X001733Y000910D03*
X001733Y000911D03*
X001073Y000944D03*
X001073Y000945D03*
D370*
X001073Y000946D03*
X001073Y000946D03*
X001733Y000914D03*
X001733Y000913D03*
X001733Y000911D03*
D371*
X001733Y000912D03*
X001733Y000913D03*
X001073Y000947D03*
D372*
X001077Y000914D03*
X001077Y000914D03*
D373*
X001733Y000915D03*
X001733Y000914D03*
D374*
X001077Y000914D03*
D375*
X001733Y000914D03*
X001733Y000915D03*
D376*
X001733Y000916D03*
X001733Y000916D03*
X001733Y000918D03*
X001072Y000949D03*
X001072Y000950D03*
D377*
X001077Y000918D03*
X001077Y000917D03*
D378*
X001072Y000949D03*
X001072Y000950D03*
X001733Y000917D03*
D379*
X001077Y000918D03*
D380*
X001734Y000918D03*
X001734Y000919D03*
D381*
X001734Y000919D03*
X001734Y000919D03*
D382*
X001734Y000920D03*
X001734Y000921D03*
X001734Y000921D03*
X001071Y000953D03*
X001071Y000954D03*
X001071Y000954D03*
D383*
X001071Y000953D03*
X001734Y000920D03*
D384*
X001076Y000922D03*
X001076Y000923D03*
D385*
X001071Y000954D03*
X001071Y000955D03*
X001734Y000923D03*
X001734Y000922D03*
D386*
X001076Y000923D03*
D387*
X001071Y000955D03*
X001734Y000924D03*
X001734Y000923D03*
D388*
X001734Y000924D03*
X001734Y000925D03*
X001734Y000926D03*
D389*
X001734Y000925D03*
X001734Y000924D03*
D390*
X001075Y000925D03*
D391*
X001075Y000926D03*
X001075Y000926D03*
D392*
X001071Y000958D03*
X001071Y000959D03*
X001071Y000959D03*
X001735Y000928D03*
X001735Y000926D03*
D393*
X001735Y000927D03*
X001735Y000928D03*
X001071Y000958D03*
D394*
X001735Y000930D03*
X001735Y000929D03*
X001735Y000929D03*
D395*
X001735Y000929D03*
D396*
X001075Y000930D03*
D397*
X001070Y000962D03*
X001735Y000932D03*
X001735Y000930D03*
D398*
X001075Y000931D03*
X001075Y000931D03*
D399*
X001070Y000961D03*
X001070Y000961D03*
X001070Y000963D03*
X001735Y000931D03*
X001735Y000931D03*
D400*
X001735Y000933D03*
X001735Y000934D03*
X001735Y000934D03*
X001070Y000964D03*
X001070Y000964D03*
D401*
X001070Y000963D03*
X001735Y000933D03*
D402*
X001074Y000934D03*
X001074Y000935D03*
D403*
X001074Y000934D03*
D404*
X001736Y000934D03*
X001736Y000935D03*
D405*
X001736Y000935D03*
X001736Y000936D03*
D406*
X001736Y000936D03*
X001736Y000938D03*
X001736Y000939D03*
X001069Y000966D03*
X001069Y000966D03*
X001069Y000968D03*
D407*
X001069Y000967D03*
X001736Y000938D03*
X001736Y000937D03*
D408*
X001074Y000939D03*
X001074Y000940D03*
D409*
X001736Y000940D03*
X001736Y000939D03*
D410*
X001074Y000939D03*
D411*
X001736Y000939D03*
X001736Y000940D03*
D412*
X001736Y000941D03*
X001736Y000941D03*
X001736Y000943D03*
X001069Y000970D03*
X001069Y000971D03*
D413*
X001069Y000970D03*
X001069Y000969D03*
X001736Y000942D03*
D414*
X001073Y000943D03*
X001073Y000944D03*
D415*
X001073Y000943D03*
D416*
X001069Y000972D03*
X001737Y000944D03*
X001737Y000943D03*
D417*
X001737Y000944D03*
X001737Y000944D03*
X001069Y000971D03*
X001069Y000973D03*
D418*
X001737Y000946D03*
X001737Y000946D03*
X001737Y000945D03*
D419*
X001737Y000945D03*
D420*
X001737Y000947D03*
X001737Y000948D03*
X001068Y000974D03*
X001068Y000975D03*
D421*
X001072Y000949D03*
X001072Y000948D03*
D422*
X001068Y000975D03*
X001068Y000976D03*
X001737Y000949D03*
X001737Y000948D03*
D423*
X001072Y000948D03*
D424*
X001738Y000949D03*
X001738Y000950D03*
X001738Y000951D03*
D425*
X001738Y000950D03*
X001738Y000949D03*
D426*
X001072Y000951D03*
X001072Y000951D03*
D427*
X001068Y000979D03*
X001068Y000979D03*
X001738Y000953D03*
X001738Y000951D03*
D428*
X001072Y000952D03*
D429*
X001068Y000978D03*
X001068Y000979D03*
X001738Y000953D03*
X001738Y000952D03*
D430*
X001738Y000954D03*
X001738Y000954D03*
X001738Y000955D03*
X001068Y000980D03*
X001068Y000981D03*
D431*
X001068Y000980D03*
X001738Y000954D03*
D432*
X001738Y000955D03*
X001738Y000957D03*
D433*
X001071Y000956D03*
X001071Y000956D03*
D434*
X001738Y000956D03*
X001738Y000956D03*
D435*
X001071Y000957D03*
D436*
X001067Y000984D03*
X001067Y000984D03*
X001738Y000959D03*
X001738Y000959D03*
X001738Y000958D03*
D437*
X001738Y000958D03*
X001067Y000983D03*
X001067Y000984D03*
D438*
X001070Y000960D03*
X001070Y000959D03*
D439*
X001739Y000959D03*
X001739Y000960D03*
D440*
X001070Y000960D03*
D441*
X001739Y000961D03*
X001739Y000960D03*
D442*
X001739Y000961D03*
X001739Y000963D03*
X001739Y000964D03*
X001066Y000986D03*
X001066Y000988D03*
D443*
X001066Y000988D03*
X001066Y000987D03*
X001739Y000963D03*
X001739Y000962D03*
D444*
X001739Y000964D03*
X001739Y000965D03*
X001066Y000989D03*
X001066Y000989D03*
D445*
X001070Y000965D03*
X001070Y000964D03*
D446*
X001066Y000989D03*
X001739Y000965D03*
X001739Y000964D03*
D447*
X001070Y000965D03*
D448*
X001739Y000966D03*
X001739Y000966D03*
X001739Y000968D03*
D449*
X001739Y000967D03*
D450*
X001069Y000968D03*
D451*
X001066Y000992D03*
X001066Y000993D03*
X001740Y000969D03*
X001740Y000968D03*
D452*
X001069Y000969D03*
X001069Y000969D03*
D453*
X001066Y000991D03*
X001066Y000993D03*
X001740Y000969D03*
X001740Y000969D03*
D454*
X001740Y000970D03*
X001740Y000971D03*
X001740Y000971D03*
D455*
X001740Y000970D03*
D456*
X001740Y000972D03*
X001740Y000973D03*
X001065Y000995D03*
D457*
X001065Y000995D03*
X001065Y000996D03*
X001065Y000996D03*
X001740Y000974D03*
X001740Y000973D03*
D458*
X001069Y000973D03*
D459*
X001069Y000974D03*
X001069Y000974D03*
D460*
X001065Y000998D03*
X001740Y000976D03*
X001740Y000975D03*
X001740Y000974D03*
D461*
X001740Y000974D03*
X001740Y000975D03*
X001065Y000997D03*
X001065Y000998D03*
D462*
X001068Y000978D03*
X001068Y000976D03*
D463*
X001741Y000976D03*
X001741Y000978D03*
D464*
X001068Y000977D03*
D465*
X001741Y000978D03*
X001741Y000977D03*
D466*
X001741Y000979D03*
X001741Y000979D03*
X001741Y000980D03*
X001064Y001000D03*
X001064Y001001D03*
X001064Y001001D03*
D467*
X001064Y001000D03*
X001741Y000979D03*
D468*
X001741Y000980D03*
X001741Y000982D03*
D469*
X001741Y000981D03*
X001741Y000981D03*
D470*
X001067Y000981D03*
X001067Y000983D03*
D471*
X001067Y000982D03*
D472*
X001064Y001004D03*
X001064Y001004D03*
X001064Y001005D03*
X001741Y000984D03*
X001741Y000984D03*
X001741Y000983D03*
D473*
X001741Y000983D03*
X001064Y001004D03*
D474*
X001064Y001005D03*
X001742Y000985D03*
X001742Y000984D03*
D475*
X001067Y000985D03*
X001067Y000986D03*
D476*
X001064Y001006D03*
X001064Y001006D03*
X001742Y000986D03*
X001742Y000985D03*
D477*
X001067Y000985D03*
D478*
X001742Y000986D03*
X001742Y000988D03*
X001742Y000989D03*
D479*
X001742Y000988D03*
X001742Y000987D03*
D480*
X001742Y000989D03*
X001742Y000990D03*
X001063Y001009D03*
X001063Y001009D03*
X001063Y001010D03*
D481*
X001063Y001009D03*
X001742Y000990D03*
X001742Y000989D03*
D482*
X001066Y000990D03*
X001066Y000991D03*
D483*
X001066Y000990D03*
D484*
X001743Y000991D03*
X001743Y000991D03*
X001743Y000993D03*
D485*
X001743Y000992D03*
D486*
X001743Y000993D03*
X001743Y000994D03*
X001063Y001012D03*
X001063Y001013D03*
D487*
X001065Y000994D03*
X001065Y000994D03*
D488*
X001063Y001013D03*
X001063Y001014D03*
X001743Y000994D03*
X001743Y000994D03*
D489*
X001065Y000994D03*
D490*
X001063Y001014D03*
X001063Y001015D03*
X001743Y000996D03*
X001743Y000996D03*
X001743Y000995D03*
D491*
X001743Y000995D03*
X001063Y001014D03*
D492*
X001743Y000998D03*
X001743Y000997D03*
D493*
X001743Y000998D03*
X001743Y000999D03*
D494*
X001065Y000999D03*
X001065Y000999D03*
D495*
X001062Y001018D03*
X001062Y001019D03*
X001743Y001001D03*
X001743Y001000D03*
X001743Y000999D03*
D496*
X001065Y000999D03*
D497*
X001062Y001017D03*
X001062Y001018D03*
X001743Y001000D03*
X001743Y000999D03*
D498*
X001744Y001001D03*
X001744Y001003D03*
D499*
X001064Y001003D03*
X001064Y001002D03*
D500*
X001744Y001003D03*
X001744Y001002D03*
D501*
X001064Y001003D03*
D502*
X001061Y001021D03*
X001061Y001021D03*
X001744Y001005D03*
X001744Y001004D03*
X001744Y001004D03*
D503*
X001744Y001004D03*
X001061Y001020D03*
X001061Y001022D03*
D504*
X001061Y001023D03*
X001744Y001007D03*
X001744Y001005D03*
D505*
X001744Y001006D03*
X001744Y001006D03*
X001061Y001023D03*
X001061Y001024D03*
D506*
X001064Y001008D03*
X001064Y001007D03*
D507*
X001064Y001008D03*
D508*
X001744Y001009D03*
X001744Y001009D03*
X001744Y001008D03*
D509*
X001744Y001008D03*
D510*
X001745Y001009D03*
X001745Y001010D03*
X001061Y001025D03*
X001061Y001027D03*
D511*
X001061Y001026D03*
X001061Y001026D03*
X001745Y001011D03*
X001745Y001010D03*
D512*
X001063Y001010D03*
D513*
X001063Y001011D03*
X001063Y001011D03*
D514*
X001745Y001011D03*
X001745Y001013D03*
X001745Y001014D03*
D515*
X001745Y001013D03*
X001745Y001012D03*
D516*
X001745Y001014D03*
X001745Y001015D03*
X001060Y001029D03*
X001060Y001030D03*
D517*
X001060Y001030D03*
X001060Y001029D03*
X001745Y001015D03*
X001745Y001014D03*
D518*
X001062Y001015D03*
D519*
X001062Y001016D03*
X001062Y001016D03*
D520*
X001060Y001031D03*
X001060Y001031D03*
X001745Y001018D03*
X001745Y001016D03*
X001745Y001016D03*
D521*
X001745Y001017D03*
X001060Y001032D03*
D522*
X001746Y001019D03*
X001746Y001018D03*
D523*
X001746Y001019D03*
X001746Y001019D03*
D524*
X001062Y001020D03*
X001062Y001019D03*
D525*
X001062Y001019D03*
D526*
X001059Y001034D03*
X001059Y001035D03*
X001746Y001021D03*
X001746Y001021D03*
X001746Y001020D03*
D527*
X001746Y001020D03*
X001059Y001034D03*
X001059Y001035D03*
D528*
X001746Y001023D03*
X001746Y001022D03*
D529*
X001746Y001023D03*
X001746Y001024D03*
D530*
X001061Y001025D03*
X001061Y001024D03*
D531*
X001059Y001038D03*
X001059Y001039D03*
X001059Y001039D03*
X001746Y001026D03*
X001746Y001025D03*
X001746Y001024D03*
D532*
X001061Y001024D03*
D533*
X001059Y001038D03*
X001746Y001025D03*
X001746Y001024D03*
D534*
X001747Y001026D03*
X001747Y001028D03*
X001059Y001040D03*
D535*
X001059Y001040D03*
X001059Y001039D03*
X001747Y001028D03*
X001747Y001027D03*
D536*
X001060Y001028D03*
X001060Y001029D03*
D537*
X001060Y001028D03*
D538*
X001747Y001029D03*
X001747Y001029D03*
X001747Y001030D03*
D539*
X001747Y001029D03*
D540*
X001747Y001030D03*
X001747Y001032D03*
X001058Y001043D03*
D541*
X001058Y001043D03*
X001058Y001044D03*
X001058Y001044D03*
X001747Y001031D03*
X001747Y001031D03*
D542*
X001060Y001033D03*
X001060Y001034D03*
D543*
X001748Y001034D03*
X001748Y001034D03*
X001748Y001033D03*
D544*
X001060Y001033D03*
D545*
X001748Y001033D03*
D546*
X001748Y001034D03*
X001748Y001035D03*
X001058Y001047D03*
D547*
X001058Y001048D03*
X001058Y001046D03*
X001058Y001046D03*
X001748Y001036D03*
X001748Y001035D03*
D548*
X001059Y001036D03*
X001059Y001036D03*
D549*
X001058Y001049D03*
X001058Y001049D03*
X001748Y001039D03*
X001748Y001038D03*
X001748Y001036D03*
D550*
X001059Y001037D03*
D551*
X001058Y001048D03*
X001748Y001038D03*
X001748Y001037D03*
D552*
X001748Y001039D03*
X001748Y001040D03*
D553*
X001748Y001040D03*
X001748Y001039D03*
D554*
X001059Y001041D03*
X001059Y001041D03*
D555*
X001057Y001051D03*
X001057Y001051D03*
X001057Y001053D03*
X001748Y001043D03*
X001748Y001041D03*
X001748Y001041D03*
D556*
X001059Y001042D03*
D557*
X001057Y001052D03*
X001748Y001042D03*
D558*
X001749Y001043D03*
X001749Y001044D03*
D559*
X001749Y001044D03*
X001749Y001044D03*
D560*
X001058Y001044D03*
X001058Y001045D03*
D561*
X001058Y001045D03*
D562*
X001056Y001055D03*
X001056Y001056D03*
X001749Y001046D03*
X001749Y001046D03*
X001749Y001045D03*
D563*
X001749Y001045D03*
X001056Y001054D03*
X001056Y001055D03*
D564*
X001056Y001057D03*
X001749Y001048D03*
X001749Y001047D03*
D565*
X001749Y001048D03*
X001749Y001049D03*
X001056Y001056D03*
X001056Y001058D03*
D566*
X001749Y001051D03*
X001749Y001050D03*
X001749Y001049D03*
D567*
X001057Y001049D03*
X001057Y001050D03*
D568*
X001749Y001050D03*
X001749Y001049D03*
D569*
X001057Y001050D03*
D570*
X001056Y001060D03*
X001056Y001061D03*
X001750Y001053D03*
X001750Y001051D03*
D571*
X001750Y001052D03*
X001750Y001053D03*
X001056Y001059D03*
X001056Y001060D03*
D572*
X001057Y001053D03*
D573*
X001057Y001054D03*
X001057Y001054D03*
D574*
X001750Y001055D03*
X001750Y001054D03*
X001750Y001054D03*
D575*
X001750Y001054D03*
D576*
X001750Y001055D03*
X001750Y001057D03*
X001055Y001063D03*
X001055Y001064D03*
D577*
X001055Y001064D03*
X001055Y001064D03*
X001750Y001056D03*
X001750Y001056D03*
D578*
X001750Y001058D03*
X001750Y001059D03*
X001750Y001059D03*
X001055Y001065D03*
X001055Y001066D03*
D579*
X001056Y001058D03*
D580*
X001055Y001065D03*
X001750Y001058D03*
D581*
X001056Y001059D03*
X001056Y001059D03*
D582*
X001751Y001059D03*
X001751Y001060D03*
D583*
X001751Y001060D03*
X001751Y001061D03*
D584*
X001055Y001061D03*
X001055Y001063D03*
D585*
X001054Y001069D03*
X001054Y001069D03*
X001751Y001064D03*
X001751Y001063D03*
X001751Y001061D03*
D586*
X001055Y001062D03*
D587*
X001054Y001068D03*
X001054Y001069D03*
X001751Y001063D03*
X001751Y001062D03*
D588*
X001751Y001064D03*
X001751Y001065D03*
D589*
X001751Y001065D03*
X001751Y001064D03*
D590*
X001751Y001066D03*
X001751Y001066D03*
X001751Y001068D03*
X001054Y001071D03*
X001054Y001073D03*
D591*
X001055Y001068D03*
X001055Y001066D03*
D592*
X001055Y001067D03*
D593*
X001054Y001072D03*
X001054Y001073D03*
X001751Y001067D03*
D594*
X001752Y001068D03*
X001752Y001069D03*
X001054Y001074D03*
D595*
X001054Y001074D03*
X001054Y001074D03*
X001752Y001069D03*
X001752Y001069D03*
D596*
X001054Y001070D03*
X001054Y001071D03*
D597*
X001752Y001071D03*
X001752Y001071D03*
X001752Y001070D03*
D598*
X001054Y001070D03*
D599*
X001752Y001070D03*
D600*
X001752Y001072D03*
X001752Y001073D03*
X001053Y001077D03*
X001053Y001078D03*
D601*
X001053Y001078D03*
X001053Y001076D03*
X001752Y001074D03*
X001752Y001073D03*
D602*
X001753Y001074D03*
X001753Y001075D03*
X001753Y001076D03*
D603*
X001753Y001075D03*
X001753Y001074D03*
D604*
X001054Y001075D03*
X001054Y001076D03*
D605*
X001054Y001075D03*
D606*
X001053Y001080D03*
X001053Y001081D03*
X001053Y001081D03*
X001753Y001078D03*
X001753Y001076D03*
D607*
X001753Y001077D03*
X001753Y001078D03*
X001053Y001080D03*
D608*
X001053Y001079D03*
X001053Y001079D03*
D609*
X001053Y001083D03*
X001753Y001080D03*
X001753Y001079D03*
X001753Y001079D03*
D610*
X001053Y001079D03*
D611*
X001053Y001082D03*
X001053Y001083D03*
X001753Y001079D03*
D612*
X001753Y001080D03*
X001753Y001082D03*
D613*
X001753Y001081D03*
X001753Y001081D03*
D614*
X001753Y001083D03*
X001753Y001084D03*
X001753Y001084D03*
X001052Y001085D03*
X001052Y001086D03*
X001052Y001086D03*
D615*
X001052Y001085D03*
X001753Y001083D03*
D616*
X001052Y001084D03*
X001052Y001084D03*
D617*
X001052Y001084D03*
D618*
X001754Y001084D03*
X001754Y001085D03*
D619*
X001754Y001085D03*
X001754Y001086D03*
D620*
X001754Y001086D03*
X001754Y001088D03*
X001754Y001089D03*
X001051Y001090D03*
X001051Y001089D03*
X001051Y001089D03*
D621*
X001052Y001088D03*
X001052Y001087D03*
D622*
X001051Y001089D03*
X001754Y001088D03*
X001754Y001087D03*
D623*
X001052Y001088D03*
D624*
X001051Y001091D03*
X001051Y001091D03*
X001754Y001090D03*
X001754Y001089D03*
D625*
X001754Y001089D03*
X001754Y001090D03*
X001051Y001090D03*
D626*
X001754Y001091D03*
X001754Y001091D03*
X001754Y001093D03*
D627*
X001051Y001093D03*
X001051Y001092D03*
D628*
X001754Y001092D03*
D629*
X001051Y001093D03*
D630*
X001051Y001094D03*
X001755Y001094D03*
X001755Y001093D03*
D631*
X001755Y001094D03*
X001755Y001094D03*
X001051Y001095D03*
X001051Y001094D03*
X001051Y001094D03*
D632*
X001755Y001095D03*
X001755Y001096D03*
X001755Y001096D03*
D633*
X001050Y001095D03*
D634*
X001755Y001095D03*
D635*
X001050Y001096D03*
X001050Y001096D03*
D636*
X001050Y001097D03*
X001050Y001098D03*
X001755Y001098D03*
X001755Y001097D03*
D637*
X001755Y001098D03*
X001755Y001099D03*
X001050Y001099D03*
X001050Y001098D03*
D638*
X001050Y001099D03*
X001050Y001100D03*
X001755Y001101D03*
X001755Y001100D03*
X001755Y001099D03*
D639*
X001755Y001099D03*
X001755Y001100D03*
X001050Y001099D03*
D640*
X001050Y001100D03*
D641*
X001050Y001101D03*
X001050Y001101D03*
D642*
X001756Y001101D03*
X001756Y001103D03*
D643*
X001756Y001104D03*
X001049Y001103D03*
X001049Y001102D03*
D644*
X001756Y001103D03*
X001756Y001102D03*
D645*
X001756Y001104D03*
X001756Y001104D03*
X001756Y001105D03*
X001049Y001104D03*
X001049Y001103D03*
D646*
X001049Y001104D03*
X001049Y001105D03*
D647*
X001049Y001104D03*
D648*
X001049Y001105D03*
X001049Y001107D03*
X001756Y001108D03*
D649*
X001756Y001107D03*
X001756Y001105D03*
D650*
X001756Y001108D03*
X001756Y001109D03*
X001756Y001109D03*
X001049Y001106D03*
X001049Y001106D03*
D651*
X001756Y001106D03*
X001756Y001106D03*
D652*
X001757Y001110D03*
X001757Y001111D03*
X001049Y001109D03*
X001049Y001108D03*
D653*
X001049Y001108D03*
X001757Y001109D03*
X001757Y001110D03*
D654*
X001049Y001110D03*
X001049Y001109D03*
D655*
X001049Y001109D03*
D656*
X001048Y001110D03*
X001048Y001112D03*
X001757Y001114D03*
X001757Y001115D03*
D657*
X001757Y001115D03*
X001757Y001114D03*
X001048Y001111D03*
X001048Y001111D03*
D658*
X001757Y001111D03*
X001757Y001113D03*
X001757Y001114D03*
D659*
X001757Y001113D03*
X001757Y001112D03*
D660*
X001048Y001113D03*
X001048Y001114D03*
D661*
X001048Y001113D03*
D662*
X001048Y001114D03*
X001048Y001115D03*
X001758Y001119D03*
X001758Y001119D03*
D663*
X001758Y001119D03*
X001758Y001118D03*
X001048Y001115D03*
X001048Y001114D03*
D664*
X001048Y001116D03*
X001048Y001116D03*
X001758Y001120D03*
X001758Y001121D03*
X001758Y001121D03*
D665*
X001758Y001118D03*
X001758Y001116D03*
X001758Y001116D03*
D666*
X001758Y001120D03*
X001048Y001117D03*
D667*
X001758Y001117D03*
D668*
X001047Y001118D03*
X001047Y001119D03*
D669*
X001047Y001118D03*
D670*
X001047Y001119D03*
X001047Y001120D03*
X001758Y001124D03*
X001758Y001125D03*
X001758Y001126D03*
D671*
X001758Y001125D03*
X001758Y001124D03*
X001047Y001120D03*
X001047Y001119D03*
D672*
X001047Y001121D03*
X001047Y001121D03*
D673*
X001047Y001122D03*
D674*
X001758Y001123D03*
X001758Y001122D03*
D675*
X001759Y001129D03*
X001759Y001129D03*
X001759Y001130D03*
X001046Y001124D03*
X001046Y001124D03*
X001046Y001123D03*
D676*
X001758Y001124D03*
X001758Y001123D03*
D677*
X001759Y001129D03*
X001046Y001123D03*
D678*
X001046Y001124D03*
X001046Y001125D03*
X001759Y001130D03*
X001759Y001132D03*
D679*
X001759Y001131D03*
X001759Y001131D03*
X001046Y001125D03*
D680*
X001046Y001126D03*
X001046Y001126D03*
D681*
X001759Y001126D03*
X001759Y001128D03*
D682*
X001046Y001127D03*
D683*
X001759Y001128D03*
X001759Y001127D03*
D684*
X001760Y001135D03*
X001760Y001136D03*
X001046Y001129D03*
X001046Y001129D03*
X001046Y001128D03*
D685*
X001046Y001128D03*
X001760Y001134D03*
X001760Y001135D03*
D686*
X001045Y001130D03*
X001045Y001129D03*
D687*
X001045Y001130D03*
D688*
X001045Y001131D03*
X001045Y001131D03*
X001045Y001133D03*
X001760Y001139D03*
X001760Y001140D03*
D689*
X001760Y001140D03*
X001760Y001139D03*
X001045Y001132D03*
D690*
X001759Y001133D03*
X001759Y001134D03*
X001759Y001134D03*
D691*
X001760Y001142D03*
X001045Y001133D03*
D692*
X001759Y001133D03*
D693*
X001760Y001141D03*
X001760Y001141D03*
X001760Y001143D03*
X001045Y001134D03*
X001045Y001134D03*
D694*
X001045Y001134D03*
X001045Y001135D03*
D695*
X001045Y001135D03*
D696*
X001044Y001136D03*
X001044Y001136D03*
X001044Y001138D03*
X001761Y001145D03*
X001761Y001146D03*
X001761Y001146D03*
D697*
X001760Y001139D03*
X001760Y001138D03*
X001760Y001136D03*
D698*
X001761Y001145D03*
X001044Y001137D03*
D699*
X001760Y001138D03*
X001760Y001137D03*
D700*
X001044Y001138D03*
D701*
X001044Y001139D03*
X001044Y001139D03*
D702*
X001044Y001139D03*
X001044Y001140D03*
X001761Y001149D03*
D703*
X001761Y001149D03*
X001044Y001141D03*
X001044Y001140D03*
D704*
X001044Y001141D03*
X001044Y001143D03*
D705*
X001044Y001142D03*
D706*
X001044Y001143D03*
X001044Y001144D03*
D707*
X001761Y001144D03*
X001761Y001143D03*
D708*
X001044Y001144D03*
X001044Y001144D03*
D709*
X001761Y001144D03*
X001761Y001144D03*
D710*
X001043Y001145D03*
X001043Y001146D03*
D711*
X001043Y001145D03*
D712*
X001043Y001146D03*
X001043Y001148D03*
D713*
X001043Y001147D03*
D714*
X001761Y001148D03*
X001761Y001147D03*
D715*
X001761Y001148D03*
X001761Y001149D03*
D716*
X001043Y001149D03*
X001043Y001148D03*
D717*
X001043Y001149D03*
X001043Y001149D03*
D718*
X001099Y001150D03*
X001099Y001151D03*
X001099Y001151D03*
X001099Y001153D03*
X001099Y001154D03*
X001099Y001154D03*
X001099Y001155D03*
X001099Y001156D03*
X001099Y001156D03*
X001099Y001158D03*
X001099Y001159D03*
X001099Y001159D03*
X001099Y001160D03*
X001099Y001161D03*
X001099Y001161D03*
X001099Y001163D03*
X001099Y001164D03*
X001099Y001164D03*
X001099Y001165D03*
X001099Y001166D03*
X001099Y001166D03*
X001099Y001168D03*
X001099Y001169D03*
X001099Y001169D03*
X001099Y001170D03*
X001099Y001171D03*
X001099Y001171D03*
X001099Y001173D03*
X001099Y001174D03*
X001099Y001174D03*
X001099Y001175D03*
D719*
X001707Y001175D03*
X001707Y001174D03*
X001707Y001174D03*
X001707Y001173D03*
X001707Y001171D03*
X001707Y001171D03*
X001707Y001170D03*
X001707Y001169D03*
X001707Y001169D03*
X001707Y001168D03*
X001707Y001166D03*
X001707Y001166D03*
X001707Y001165D03*
X001707Y001164D03*
X001707Y001164D03*
X001707Y001163D03*
X001707Y001161D03*
X001707Y001161D03*
X001707Y001160D03*
X001707Y001159D03*
X001707Y001159D03*
X001707Y001158D03*
X001707Y001156D03*
X001707Y001156D03*
X001707Y001155D03*
X001707Y001154D03*
X001707Y001154D03*
X001707Y001153D03*
X001707Y001151D03*
X001707Y001151D03*
X001707Y001150D03*
D720*
X001099Y001150D03*
X001099Y001152D03*
X001099Y001153D03*
X001099Y001154D03*
X001099Y001155D03*
X001099Y001157D03*
X001099Y001158D03*
X001099Y001159D03*
X001099Y001160D03*
X001099Y001162D03*
X001099Y001163D03*
X001099Y001164D03*
X001099Y001165D03*
X001099Y001167D03*
X001099Y001168D03*
X001099Y001169D03*
X001099Y001170D03*
X001099Y001172D03*
X001099Y001173D03*
X001099Y001174D03*
X001099Y001175D03*
D721*
X001707Y001175D03*
X001707Y001174D03*
X001707Y001173D03*
X001707Y001172D03*
X001707Y001170D03*
X001707Y001169D03*
X001707Y001168D03*
X001707Y001167D03*
X001707Y001165D03*
X001707Y001164D03*
X001707Y001163D03*
X001707Y001162D03*
X001707Y001160D03*
X001707Y001159D03*
X001707Y001158D03*
X001707Y001157D03*
X001707Y001155D03*
X001707Y001154D03*
X001707Y001153D03*
X001707Y001152D03*
X001707Y001150D03*
D722*
X001403Y001176D03*
X001403Y001176D03*
X001403Y001178D03*
X001403Y001179D03*
X001403Y001179D03*
X001403Y001180D03*
X001403Y001181D03*
X001403Y001181D03*
X001403Y001183D03*
X001403Y001184D03*
X001403Y001184D03*
X001403Y001185D03*
X001403Y001186D03*
X001403Y001186D03*
X001403Y001188D03*
X001403Y001189D03*
X001403Y001189D03*
X001403Y001190D03*
X001403Y001191D03*
X001403Y001191D03*
X001403Y001193D03*
X001403Y001194D03*
X001403Y001194D03*
X001403Y001195D03*
X001403Y001196D03*
X001403Y001325D03*
X001403Y001326D03*
X001403Y001326D03*
X001403Y001328D03*
X001403Y001329D03*
X001403Y001329D03*
X001403Y001330D03*
X001403Y001331D03*
X001403Y001331D03*
X001403Y001333D03*
X001403Y001334D03*
X001403Y001334D03*
X001403Y001335D03*
X001403Y001336D03*
X001403Y001336D03*
X001403Y001338D03*
X001403Y001339D03*
X001403Y001339D03*
X001403Y001340D03*
X001403Y001341D03*
X001403Y001341D03*
X001403Y001343D03*
X001403Y001344D03*
X001403Y001344D03*
X001403Y001345D03*
X001403Y001346D03*
X001403Y001346D03*
X001403Y001348D03*
X001403Y001349D03*
X001403Y001349D03*
X001403Y001350D03*
X001403Y001351D03*
X001403Y001351D03*
X001403Y001353D03*
X001403Y001354D03*
X001403Y001354D03*
X001403Y001355D03*
X001403Y001356D03*
X001403Y001356D03*
X001403Y001358D03*
X001403Y001359D03*
X001403Y001359D03*
X001403Y001360D03*
X001403Y001361D03*
D723*
X001403Y001360D03*
X001403Y001359D03*
X001403Y001358D03*
X001403Y001357D03*
X001403Y001355D03*
X001403Y001354D03*
X001403Y001353D03*
X001403Y001352D03*
X001403Y001350D03*
X001403Y001349D03*
X001403Y001348D03*
X001403Y001347D03*
X001403Y001345D03*
X001403Y001344D03*
X001403Y001343D03*
X001403Y001342D03*
X001403Y001340D03*
X001403Y001339D03*
X001403Y001338D03*
X001403Y001337D03*
X001403Y001335D03*
X001403Y001334D03*
X001403Y001333D03*
X001403Y001332D03*
X001403Y001330D03*
X001403Y001329D03*
X001403Y001328D03*
X001403Y001327D03*
X001403Y001325D03*
X001403Y001195D03*
X001403Y001194D03*
X001403Y001193D03*
X001403Y001192D03*
X001403Y001190D03*
X001403Y001189D03*
X001403Y001188D03*
X001403Y001187D03*
X001403Y001185D03*
X001403Y001184D03*
X001403Y001183D03*
X001403Y001182D03*
X001403Y001180D03*
X001403Y001179D03*
X001403Y001178D03*
X001403Y001177D03*
D724*
X001129Y001196D03*
X001129Y001198D03*
X001129Y001199D03*
X001129Y001199D03*
X001129Y001200D03*
X001129Y001201D03*
X001129Y001201D03*
X001129Y001203D03*
X001129Y001204D03*
X001129Y001204D03*
X001129Y001205D03*
X001129Y001206D03*
X001129Y001206D03*
X001129Y001208D03*
X001129Y001209D03*
X001129Y001209D03*
X001129Y001210D03*
X001129Y001211D03*
X001129Y001211D03*
X001129Y001213D03*
X001129Y001214D03*
X001129Y001214D03*
X001129Y001215D03*
X001129Y001216D03*
X001129Y001216D03*
X001129Y001218D03*
X001129Y001219D03*
X001129Y001219D03*
X001129Y001220D03*
X001129Y001221D03*
X001129Y001221D03*
X001129Y001223D03*
X001129Y001224D03*
X001129Y001224D03*
X001129Y001225D03*
X001129Y001226D03*
X001129Y001226D03*
X001129Y001228D03*
X001129Y001229D03*
X001129Y001229D03*
X001129Y001230D03*
X001129Y001231D03*
X001129Y001231D03*
X001129Y001233D03*
X001129Y001234D03*
X001129Y001234D03*
X001129Y001235D03*
X001129Y001236D03*
X001129Y001236D03*
X001129Y001238D03*
X001129Y001239D03*
X001129Y001239D03*
X001129Y001240D03*
X001129Y001241D03*
X001129Y001241D03*
X001129Y001243D03*
X001129Y001244D03*
X001129Y001244D03*
X001129Y001245D03*
X001129Y001246D03*
X001129Y001246D03*
X001129Y001248D03*
X001129Y001249D03*
X001129Y001249D03*
X001129Y001250D03*
X001129Y001251D03*
X001129Y001251D03*
X001129Y001253D03*
X001129Y001254D03*
X001129Y001254D03*
X001129Y001255D03*
X001129Y001256D03*
X001129Y001256D03*
X001129Y001258D03*
X001129Y001259D03*
X001129Y001259D03*
X001129Y001260D03*
X001129Y001261D03*
X001129Y001261D03*
X001129Y001263D03*
X001129Y001264D03*
X001129Y001264D03*
X001129Y001265D03*
X001129Y001266D03*
X001129Y001266D03*
X001129Y001268D03*
X001129Y001269D03*
X001129Y001269D03*
X001129Y001270D03*
X001129Y001271D03*
X001129Y001271D03*
X001129Y001273D03*
X001129Y001274D03*
X001129Y001274D03*
X001129Y001275D03*
X001129Y001276D03*
X001129Y001276D03*
X001129Y001278D03*
X001129Y001279D03*
X001129Y001279D03*
X001129Y001280D03*
X001129Y001281D03*
X001129Y001281D03*
X001129Y001283D03*
X001129Y001284D03*
X001129Y001284D03*
X001129Y001285D03*
X001129Y001286D03*
X001129Y001286D03*
X001129Y001288D03*
X001129Y001289D03*
X001129Y001289D03*
X001129Y001290D03*
X001129Y001291D03*
X001129Y001291D03*
X001129Y001293D03*
X001129Y001294D03*
X001129Y001294D03*
X001129Y001295D03*
X001129Y001296D03*
X001129Y001296D03*
X001129Y001298D03*
X001129Y001299D03*
X001129Y001299D03*
X001129Y001300D03*
X001129Y001301D03*
X001129Y001301D03*
X001129Y001303D03*
X001129Y001304D03*
X001129Y001304D03*
X001129Y001305D03*
X001129Y001306D03*
X001129Y001306D03*
X001129Y001308D03*
X001129Y001309D03*
X001129Y001309D03*
X001129Y001310D03*
X001129Y001311D03*
X001129Y001311D03*
X001129Y001313D03*
X001129Y001314D03*
X001129Y001314D03*
X001129Y001315D03*
X001129Y001316D03*
X001129Y001316D03*
X001129Y001318D03*
X001129Y001319D03*
X001129Y001319D03*
X001129Y001320D03*
X001129Y001321D03*
X001129Y001321D03*
X001129Y001323D03*
X001129Y001324D03*
X001129Y001324D03*
D725*
X001684Y001324D03*
X001684Y001324D03*
X001684Y001323D03*
X001684Y001321D03*
X001684Y001321D03*
X001684Y001320D03*
X001684Y001319D03*
X001684Y001319D03*
X001684Y001318D03*
X001684Y001316D03*
X001684Y001316D03*
X001684Y001315D03*
X001684Y001314D03*
X001684Y001314D03*
X001684Y001313D03*
X001684Y001311D03*
X001684Y001311D03*
X001684Y001310D03*
X001684Y001309D03*
X001684Y001309D03*
X001684Y001308D03*
X001684Y001306D03*
X001684Y001306D03*
X001684Y001305D03*
X001684Y001304D03*
X001684Y001304D03*
X001684Y001303D03*
X001684Y001301D03*
X001684Y001301D03*
X001684Y001300D03*
X001684Y001299D03*
X001684Y001299D03*
X001684Y001298D03*
X001684Y001296D03*
X001684Y001296D03*
X001684Y001295D03*
X001684Y001294D03*
X001684Y001294D03*
X001684Y001293D03*
X001684Y001291D03*
X001684Y001291D03*
X001684Y001290D03*
X001684Y001289D03*
X001684Y001289D03*
X001684Y001288D03*
X001684Y001286D03*
X001684Y001286D03*
X001684Y001285D03*
X001684Y001284D03*
X001684Y001284D03*
X001684Y001283D03*
X001684Y001281D03*
X001684Y001281D03*
X001684Y001280D03*
X001684Y001279D03*
X001684Y001279D03*
X001684Y001278D03*
X001684Y001276D03*
X001684Y001276D03*
X001684Y001275D03*
X001684Y001274D03*
X001684Y001274D03*
X001684Y001273D03*
X001684Y001271D03*
X001684Y001271D03*
X001684Y001270D03*
X001684Y001269D03*
X001684Y001269D03*
X001684Y001268D03*
X001684Y001266D03*
X001684Y001266D03*
X001684Y001265D03*
X001684Y001264D03*
X001684Y001264D03*
X001684Y001263D03*
X001684Y001261D03*
X001684Y001261D03*
X001684Y001260D03*
X001684Y001259D03*
X001684Y001259D03*
X001684Y001258D03*
X001684Y001256D03*
X001684Y001256D03*
X001684Y001255D03*
X001684Y001254D03*
X001684Y001254D03*
X001684Y001253D03*
X001684Y001251D03*
X001684Y001251D03*
X001684Y001250D03*
X001684Y001249D03*
X001684Y001249D03*
X001684Y001248D03*
X001684Y001246D03*
X001684Y001246D03*
X001684Y001245D03*
X001684Y001244D03*
X001684Y001244D03*
X001684Y001243D03*
X001684Y001241D03*
X001684Y001241D03*
X001684Y001240D03*
X001684Y001239D03*
X001684Y001239D03*
X001684Y001238D03*
X001684Y001236D03*
X001684Y001236D03*
X001684Y001235D03*
X001684Y001234D03*
X001684Y001234D03*
X001684Y001233D03*
X001684Y001231D03*
X001684Y001231D03*
X001684Y001230D03*
X001684Y001229D03*
X001684Y001229D03*
X001684Y001228D03*
X001684Y001226D03*
X001684Y001226D03*
X001684Y001225D03*
X001684Y001224D03*
X001684Y001224D03*
X001684Y001223D03*
X001684Y001221D03*
X001684Y001221D03*
X001684Y001220D03*
X001684Y001219D03*
X001684Y001219D03*
X001684Y001218D03*
X001684Y001216D03*
X001684Y001216D03*
X001684Y001215D03*
X001684Y001214D03*
X001684Y001214D03*
X001684Y001213D03*
X001684Y001211D03*
X001684Y001211D03*
X001684Y001210D03*
X001684Y001209D03*
X001684Y001209D03*
X001684Y001208D03*
X001684Y001206D03*
X001684Y001206D03*
X001684Y001205D03*
X001684Y001204D03*
X001684Y001204D03*
X001684Y001203D03*
X001684Y001201D03*
X001684Y001201D03*
X001684Y001200D03*
X001684Y001199D03*
X001684Y001199D03*
X001684Y001198D03*
X001684Y001196D03*
D726*
X001129Y001197D03*
X001129Y001198D03*
X001129Y001199D03*
X001129Y001200D03*
X001129Y001202D03*
X001129Y001203D03*
X001129Y001204D03*
X001129Y001205D03*
X001129Y001207D03*
X001129Y001208D03*
X001129Y001209D03*
X001129Y001210D03*
X001129Y001212D03*
X001129Y001213D03*
X001129Y001214D03*
X001129Y001215D03*
X001129Y001217D03*
X001129Y001218D03*
X001129Y001219D03*
X001129Y001220D03*
X001129Y001222D03*
X001129Y001223D03*
X001129Y001224D03*
X001129Y001225D03*
X001129Y001227D03*
X001129Y001228D03*
X001129Y001229D03*
X001129Y001230D03*
X001129Y001232D03*
X001129Y001233D03*
X001129Y001234D03*
X001129Y001235D03*
X001129Y001237D03*
X001129Y001238D03*
X001129Y001239D03*
X001129Y001240D03*
X001129Y001242D03*
X001129Y001243D03*
X001129Y001244D03*
X001129Y001245D03*
X001129Y001247D03*
X001129Y001248D03*
X001129Y001249D03*
X001129Y001250D03*
X001129Y001252D03*
X001129Y001253D03*
X001129Y001254D03*
X001129Y001255D03*
X001129Y001257D03*
X001129Y001258D03*
X001129Y001259D03*
X001129Y001260D03*
X001129Y001262D03*
X001129Y001263D03*
X001129Y001264D03*
X001129Y001265D03*
X001129Y001267D03*
X001129Y001268D03*
X001129Y001269D03*
X001129Y001270D03*
X001129Y001272D03*
X001129Y001273D03*
X001129Y001274D03*
X001129Y001275D03*
X001129Y001277D03*
X001129Y001278D03*
X001129Y001279D03*
X001129Y001280D03*
X001129Y001282D03*
X001129Y001283D03*
X001129Y001284D03*
X001129Y001285D03*
X001129Y001287D03*
X001129Y001288D03*
X001129Y001289D03*
X001129Y001290D03*
X001129Y001292D03*
X001129Y001293D03*
X001129Y001294D03*
X001129Y001295D03*
X001129Y001297D03*
X001129Y001298D03*
X001129Y001299D03*
X001129Y001300D03*
X001129Y001302D03*
X001129Y001303D03*
X001129Y001304D03*
X001129Y001305D03*
X001129Y001307D03*
X001129Y001308D03*
X001129Y001309D03*
X001129Y001310D03*
X001129Y001312D03*
X001129Y001313D03*
X001129Y001314D03*
X001129Y001315D03*
X001129Y001317D03*
X001129Y001318D03*
X001129Y001319D03*
X001129Y001320D03*
X001129Y001322D03*
X001129Y001323D03*
X001129Y001324D03*
D727*
X001684Y001324D03*
X001684Y001323D03*
X001684Y001322D03*
X001684Y001320D03*
X001684Y001319D03*
X001684Y001318D03*
X001684Y001317D03*
X001684Y001315D03*
X001684Y001314D03*
X001684Y001313D03*
X001684Y001312D03*
X001684Y001310D03*
X001684Y001309D03*
X001684Y001308D03*
X001684Y001307D03*
X001684Y001305D03*
X001684Y001304D03*
X001684Y001303D03*
X001684Y001302D03*
X001684Y001300D03*
X001684Y001299D03*
X001684Y001298D03*
X001684Y001297D03*
X001684Y001295D03*
X001684Y001294D03*
X001684Y001293D03*
X001684Y001292D03*
X001684Y001290D03*
X001684Y001289D03*
X001684Y001288D03*
X001684Y001287D03*
X001684Y001285D03*
X001684Y001284D03*
X001684Y001283D03*
X001684Y001282D03*
X001684Y001280D03*
X001684Y001279D03*
X001684Y001278D03*
X001684Y001277D03*
X001684Y001275D03*
X001684Y001274D03*
X001684Y001273D03*
X001684Y001272D03*
X001684Y001270D03*
X001684Y001269D03*
X001684Y001268D03*
X001684Y001267D03*
X001684Y001265D03*
X001684Y001264D03*
X001684Y001263D03*
X001684Y001262D03*
X001684Y001260D03*
X001684Y001259D03*
X001684Y001258D03*
X001684Y001257D03*
X001684Y001255D03*
X001684Y001254D03*
X001684Y001253D03*
X001684Y001252D03*
X001684Y001250D03*
X001684Y001249D03*
X001684Y001248D03*
X001684Y001247D03*
X001684Y001245D03*
X001684Y001244D03*
X001684Y001243D03*
X001684Y001242D03*
X001684Y001240D03*
X001684Y001239D03*
X001684Y001238D03*
X001684Y001237D03*
X001684Y001235D03*
X001684Y001234D03*
X001684Y001233D03*
X001684Y001232D03*
X001684Y001230D03*
X001684Y001229D03*
X001684Y001228D03*
X001684Y001227D03*
X001684Y001225D03*
X001684Y001224D03*
X001684Y001223D03*
X001684Y001222D03*
X001684Y001220D03*
X001684Y001219D03*
X001684Y001218D03*
X001684Y001217D03*
X001684Y001215D03*
X001684Y001214D03*
X001684Y001213D03*
X001684Y001212D03*
X001684Y001210D03*
X001684Y001209D03*
X001684Y001208D03*
X001684Y001207D03*
X001684Y001205D03*
X001684Y001204D03*
X001684Y001203D03*
X001684Y001202D03*
X001684Y001200D03*
X001684Y001199D03*
X001684Y001198D03*
X001684Y001197D03*
D728*
X001403Y001361D03*
D729*
X001403Y001362D03*
D730*
X001403Y001363D03*
X001403Y001364D03*
X001403Y001364D03*
X001403Y001365D03*
D731*
X001403Y001365D03*
X001403Y001364D03*
X001403Y001363D03*
D732*
X001403Y001366D03*
D733*
X001403Y001366D03*
X001403Y001368D03*
X001403Y001369D03*
D734*
X001403Y001368D03*
X001403Y001367D03*
D735*
X001403Y001369D03*
D736*
X001403Y001369D03*
D737*
X001403Y001370D03*
X001403Y001371D03*
X001403Y001371D03*
D738*
X001403Y001370D03*
D739*
X001403Y001372D03*
D740*
X001403Y001373D03*
D741*
X001403Y001373D03*
D742*
X001403Y001374D03*
X001403Y001374D03*
D743*
X001403Y001374D03*
D744*
X001403Y001375D03*
D745*
X001403Y001375D03*
D746*
X001403Y001376D03*
X001403Y001376D03*
D747*
X001403Y001377D03*
D748*
X001403Y001378D03*
D749*
X001403Y001378D03*
D750*
X001403Y001379D03*
X001403Y001379D03*
D751*
X001403Y001379D03*
D752*
X001403Y001380D03*
X001403Y001381D03*
X001403Y001381D03*
D753*
X001403Y001380D03*
D754*
X001403Y001382D03*
X001403Y001383D03*
D755*
X001403Y001383D03*
X001403Y001384D03*
D756*
X001403Y001384D03*
X001403Y001385D03*
D757*
X001403Y001385D03*
X001403Y001384D03*
D758*
X001403Y001386D03*
X001403Y001386D03*
X001403Y001388D03*
D759*
X001403Y001387D03*
D760*
X001403Y001388D03*
X001403Y001389D03*
D761*
X001403Y001389D03*
X001403Y001389D03*
D762*
X001403Y001390D03*
X001403Y001391D03*
D763*
X001403Y001390D03*
D764*
X001403Y001391D03*
D765*
X001403Y001392D03*
D766*
X001403Y001393D03*
D767*
X001403Y001393D03*
D768*
X001403Y001394D03*
X001403Y001394D03*
D769*
X001403Y001394D03*
D770*
X001403Y001395D03*
D771*
X001403Y001395D03*
D772*
X001403Y001396D03*
D773*
X001403Y001396D03*
D774*
X001403Y001397D03*
D775*
X001403Y001398D03*
D776*
X001403Y001398D03*
D777*
X001403Y001399D03*
X001403Y001399D03*
D778*
X001403Y001399D03*
D779*
X001403Y001400D03*
D780*
X001403Y001400D03*
D781*
X001403Y001401D03*
X001403Y001401D03*
D782*
X001403Y001402D03*
D783*
X001403Y001403D03*
D784*
X001403Y001403D03*
D785*
X001403Y001404D03*
D786*
X001403Y001404D03*
D787*
X001403Y001404D03*
D788*
X001403Y001405D03*
D789*
X001403Y001405D03*
D790*
X001403Y001406D03*
D791*
X001403Y001406D03*
D792*
X001403Y001407D03*
D793*
X001403Y001408D03*
D794*
X001403Y001408D03*
D795*
X001403Y001409D03*
D796*
X001403Y001409D03*
D797*
X001403Y001409D03*
D798*
X001403Y001410D03*
D799*
X001403Y001410D03*
D800*
X001403Y001411D03*
D801*
X001403Y001411D03*
D802*
X001403Y001412D03*
D803*
X001403Y001413D03*
D804*
X001403Y001413D03*
D805*
X001403Y001414D03*
D806*
X001403Y001414D03*
D807*
X001403Y001414D03*
D808*
X001403Y001415D03*
D809*
X001403Y001415D03*
D810*
X001403Y001416D03*
D811*
X001403Y001416D03*
D812*
X001403Y001417D03*
D813*
X001403Y001418D03*
D814*
X001403Y001418D03*
D815*
X001403Y001419D03*
D816*
X001403Y001419D03*
D817*
X001403Y001419D03*
D818*
X001403Y001420D03*
D819*
X001403Y001420D03*
D820*
X001403Y001421D03*
D821*
X001403Y001421D03*
D822*
X001403Y001422D03*
D823*
X001403Y001423D03*
D824*
X001403Y001423D03*
D825*
X001403Y001424D03*
D826*
X001403Y001424D03*
D827*
X001403Y001424D03*
D828*
X001403Y001425D03*
D829*
X001403Y001425D03*
D830*
X001403Y001426D03*
D831*
X001403Y001426D03*
D832*
X001403Y001427D03*
D833*
X001403Y001428D03*
D834*
X001403Y001428D03*
D835*
X001403Y001429D03*
D836*
X001403Y001429D03*
D837*
X001403Y001429D03*
D838*
X001403Y001430D03*
D839*
X001403Y001430D03*
D840*
X001403Y001431D03*
D841*
X001403Y001431D03*
D842*
X001403Y001432D03*
D843*
X001403Y001433D03*
D844*
X001403Y001433D03*
D845*
X001403Y001434D03*
D846*
X001403Y001434D03*
D847*
X001403Y001434D03*
D848*
X001403Y001435D03*
D849*
X001403Y001435D03*
D850*
X001403Y001436D03*
D851*
X001403Y001436D03*
D852*
X001403Y001437D03*
D853*
X001403Y001438D03*
D854*
X001403Y001438D03*
D855*
X001403Y001439D03*
D856*
X001403Y001439D03*
D857*
X001403Y001439D03*
D858*
X001403Y001440D03*
D859*
X001403Y001440D03*
D860*
X001403Y001441D03*
D861*
X001403Y001441D03*
D862*
X001403Y001442D03*
D863*
X001403Y001443D03*
D864*
X001403Y001443D03*
D865*
X001403Y001444D03*
D866*
X001403Y001444D03*
D867*
X001403Y001444D03*
D868*
X001403Y001445D03*
D869*
X001403Y001445D03*
D870*
X001403Y001446D03*
D871*
X001403Y001446D03*
D872*
X001403Y001447D03*
D873*
X001403Y001448D03*
D874*
X001403Y001448D03*
D875*
X001403Y001449D03*
D876*
X001403Y001449D03*
D877*
X001403Y001449D03*
D878*
X001403Y001450D03*
D879*
X001403Y001450D03*
D880*
X001403Y001451D03*
D881*
X001403Y001451D03*
D882*
X001403Y001452D03*
D883*
X001403Y001453D03*
D884*
X001403Y001453D03*
D885*
X001403Y001454D03*
D886*
X001403Y001454D03*
D887*
X001403Y001454D03*
D888*
X001403Y001455D03*
D889*
X001403Y001455D03*
D890*
X001403Y001456D03*
D891*
X001403Y001456D03*
D892*
X001403Y001457D03*
D893*
X001403Y001458D03*
D894*
X001403Y001458D03*
D895*
X001403Y001459D03*
D896*
X001403Y001459D03*
D897*
X001403Y001459D03*
D898*
X001403Y001460D03*
D899*
X001403Y001460D03*
D900*
X001403Y001461D03*
D901*
X001403Y001461D03*
D902*
X001403Y001462D03*
D903*
X001403Y001463D03*
D904*
X001403Y001463D03*
D905*
X001403Y001464D03*
D906*
X001403Y001464D03*
D907*
X001403Y001464D03*
D908*
X001403Y001465D03*
D909*
X001403Y001465D03*
D910*
X001403Y001466D03*
D911*
X001403Y001466D03*
D912*
X001403Y001467D03*
D913*
X001403Y001468D03*
D914*
X001403Y001468D03*
D915*
X001403Y001469D03*
D916*
X001403Y001469D03*
D917*
X001403Y001469D03*
D918*
X001403Y001470D03*
D919*
X001403Y001470D03*
D920*
X001403Y001471D03*
D921*
X001403Y001471D03*
D922*
X001403Y001472D03*
D923*
X001403Y001473D03*
D924*
X001403Y001473D03*
D925*
X001403Y001474D03*
D926*
X001403Y001474D03*
D927*
X001403Y001474D03*
D928*
X001403Y001475D03*
D929*
X001403Y001475D03*
D930*
X001403Y001476D03*
D931*
X001403Y001476D03*
D932*
X001403Y001477D03*
D933*
X001403Y001478D03*
D934*
X001403Y001478D03*
D935*
X001403Y001479D03*
D936*
X001403Y001479D03*
D937*
X001403Y001479D03*
D938*
X001403Y001480D03*
D939*
X001403Y001480D03*
D940*
X001403Y001481D03*
D941*
X001403Y001481D03*
D942*
X001403Y001482D03*
D943*
X001403Y001483D03*
D944*
X001403Y001483D03*
D945*
X001403Y001484D03*
D946*
X001403Y001484D03*
D947*
X001403Y001484D03*
D948*
X001403Y001485D03*
D949*
X001403Y001485D03*
D950*
X001403Y001486D03*
D951*
X001403Y001486D03*
D952*
X001403Y001487D03*
D953*
X001403Y001488D03*
D954*
X001403Y001488D03*
D955*
X001403Y001489D03*
D956*
X001403Y001489D03*
D957*
X001403Y001489D03*
D958*
X001403Y001490D03*
D959*
X001403Y001490D03*
D960*
X001403Y001491D03*
D961*
X001403Y001491D03*
D962*
X001403Y001492D03*
D963*
X001403Y001493D03*
D964*
X001403Y001493D03*
D965*
X001403Y001494D03*
D966*
X001403Y001494D03*
D967*
X001403Y001494D03*
D968*
X001403Y001495D03*
D969*
X001403Y001495D03*
D970*
X001403Y001496D03*
D971*
X001403Y001496D03*
D972*
X001403Y001497D03*
D973*
X001403Y001498D03*
D974*
X001403Y001498D03*
D975*
X001403Y001499D03*
D976*
X001403Y001499D03*
D977*
X001403Y001499D03*
D978*
X001403Y001500D03*
D979*
X001403Y001500D03*
D980*
X001403Y001501D03*
D981*
X001403Y001501D03*
D982*
X001403Y001502D03*
D983*
X001403Y001503D03*
D984*
X001403Y001503D03*
D985*
X001403Y001504D03*
D986*
X001403Y001504D03*
D987*
X001403Y001504D03*
D988*
X001403Y001505D03*
D989*
X001403Y001505D03*
D990*
X001403Y001506D03*
D991*
X001403Y001506D03*
D992*
X001403Y001507D03*
D993*
X001403Y001508D03*
D994*
X001403Y001508D03*
D995*
X001403Y001509D03*
D996*
X001403Y001509D03*
D997*
X001403Y001509D03*
D998*
X001403Y001510D03*
D999*
X001403Y001510D03*
D1000*
X001403Y001511D03*
D1001*
X001403Y001511D03*
D1002*
X001403Y001512D03*
D1003*
X001403Y001513D03*
D1004*
X001403Y001513D03*
D1005*
X001403Y001514D03*
D1006*
X001403Y001514D03*
D1007*
X001403Y001514D03*
D1008*
X001403Y001515D03*
D1009*
X001403Y001515D03*
D1010*
X001403Y001516D03*
D1011*
X001403Y001516D03*
D1012*
X001403Y001517D03*
D1013*
X001403Y001518D03*
D1014*
X001403Y001518D03*
D1015*
X001403Y001519D03*
D1016*
X001403Y001519D03*
D1017*
X001403Y001519D03*
D1018*
X001403Y001520D03*
D1019*
X001403Y001520D03*
D1020*
X001403Y001521D03*
D1021*
X001403Y001521D03*
D1022*
X001403Y001522D03*
D1023*
X001403Y001523D03*
D1024*
X001403Y001523D03*
D1025*
X001403Y001524D03*
D1026*
X001403Y001524D03*
D1027*
X001403Y001524D03*
D1028*
X001403Y001525D03*
D1029*
X001403Y001525D03*
D1030*
X001403Y001526D03*
D1031*
X001403Y001526D03*
D1032*
X001403Y001527D03*
D1033*
X001403Y001528D03*
D1034*
X001403Y001528D03*
D1035*
X001403Y001529D03*
D1036*
X001403Y001529D03*
D1037*
X001403Y001529D03*
D1038*
X001403Y001530D03*
D1039*
X001403Y001530D03*
D1040*
X001403Y001531D03*
D1041*
X001403Y001531D03*
D1042*
X001403Y001532D03*
D1043*
X001403Y001533D03*
D1044*
X001403Y001533D03*
D1045*
X001403Y001534D03*
D1046*
X001403Y001534D03*
D1047*
X001403Y001534D03*
D1048*
X001403Y001535D03*
D1049*
X001403Y001535D03*
D1050*
X001403Y001536D03*
D1051*
X001403Y001536D03*
D1052*
X001403Y001537D03*
D1053*
X001403Y001538D03*
D1054*
X001403Y001538D03*
D1055*
X001403Y001539D03*
D1056*
X001403Y001539D03*
D1057*
X001403Y001539D03*
D1058*
X001403Y001540D03*
D1059*
X001403Y001540D03*
D1060*
X001403Y001541D03*
D1061*
X001403Y001541D03*
D1062*
X001403Y001542D03*
D1063*
X001403Y001543D03*
D1064*
X001403Y001543D03*
D1065*
X001403Y001544D03*
D1066*
X001403Y001544D03*
D1067*
X001403Y001544D03*
D1068*
X001403Y001545D03*
D1069*
X001403Y001545D03*
D1070*
X001403Y001546D03*
D1071*
X001403Y001546D03*
D1072*
X001402Y001547D03*
D1073*
X001402Y001548D03*
D1074*
X001402Y001548D03*
D1075*
X001402Y001549D03*
D1076*
X001402Y001549D03*
D1077*
X001402Y001549D03*
D1078*
X001402Y001550D03*
D1079*
X001402Y001550D03*
D1080*
X001402Y001551D03*
D1081*
X001402Y001551D03*
D1082*
X000881Y000499D02*
X000880Y000498D01*
X000881Y000498D02*
X000881Y000498D01*
X000881Y000498D01*
X000882Y000498D01*
X000882Y000498D01*
X000882Y000498D01*
X000882Y000498D01*
X000882Y000498D01*
X000883Y000498D01*
X000883Y000498D01*
X000883Y000498D01*
X000883Y000498D01*
X000883Y000498D01*
X000883Y000498D01*
X000883Y000498D01*
X000883Y000498D01*
X000883Y000498D01*
X000882Y000498D01*
X000882Y000498D01*
X000882Y000498D01*
X000881Y000499D02*
X000881Y000498D01*
X000884Y000498D02*
X000884Y000498D01*
X000884Y000498D01*
X000884Y000498D01*
X000884Y000498D01*
X000884Y000498D01*
X000884Y000498D01*
X000884Y000498D01*
X000884Y000498D01*
X000885Y000498D02*
X000885Y000499D01*
X000886Y000498D02*
X000886Y000498D01*
X000886Y000498D01*
X000887Y000498D01*
X000887Y000498D01*
X000887Y000498D01*
X000888Y000498D01*
X000888Y000498D01*
X000888Y000498D01*
X000889Y000498D01*
X000889Y000498D01*
X000889Y000498D01*
X000889Y000498D01*
X000889Y000498D01*
X000890Y000498D01*
X000890Y000498D01*
X000890Y000499D01*
X000891Y000498D02*
X000891Y000498D01*
X000891Y000498D01*
X000891Y000498D01*
X000891Y000498D01*
X000891Y000498D01*
X000891Y000498D01*
X000891Y000498D01*
X000892Y000498D02*
X000892Y000498D01*
X000892Y000498D01*
X000892Y000498D01*
X000892Y000499D02*
X000892Y000499D01*
X000893Y000499D02*
X000893Y000499D01*
X000893Y000498D01*
X000894Y000498D01*
X000894Y000498D01*
X000894Y000498D01*
X000894Y000498D01*
X000894Y000498D01*
X000894Y000498D01*
X000894Y000498D01*
X000894Y000498D01*
X000894Y000498D01*
X000895Y000498D02*
X000895Y000498D01*
X000895Y000498D01*
X000895Y000498D01*
X000895Y000497D01*
X000895Y000497D01*
X000895Y000497D01*
X000895Y000498D02*
X000895Y000498D01*
X000895Y000498D01*
X000896Y000498D02*
X000896Y000498D01*
X000896Y000498D01*
X000896Y000498D01*
X000896Y000498D01*
X000896Y000498D01*
X000896Y000498D01*
X000896Y000498D01*
X000896Y000498D01*
X000897Y000498D02*
X000897Y000498D01*
X000898Y000498D01*
X000898Y000498D01*
X000898Y000498D01*
X000898Y000498D01*
X000898Y000498D01*
X000898Y000498D01*
X000898Y000498D01*
X000898Y000498D01*
X000898Y000498D01*
X000899Y000498D01*
X000899Y000498D01*
X000899Y000497D01*
X000899Y000498D02*
X000899Y000498D01*
X000899Y000498D01*
X000900Y000498D01*
X000900Y000498D01*
X000899Y000498D01*
X000898Y000498D02*
X000897Y000498D01*
X000897Y000498D01*
X000897Y000499D01*
X000897Y000498D02*
X000897Y000498D01*
X000897Y000498D01*
X000893Y000497D02*
X000892Y000497D01*
X000890Y000498D02*
X000889Y000498D01*
X000889Y000498D01*
X000888Y000498D01*
X000888Y000498D01*
X000888Y000498D01*
X000888Y000498D01*
X000887Y000498D01*
X000887Y000498D01*
X000888Y000498D01*
X000887Y000498D02*
X000886Y000498D01*
X000887Y000499D02*
X000887Y000499D01*
D1083*
X002438Y000231D02*
X002438Y007169D01*
X005922Y007169D01*
X005922Y004200D01*
X005480Y004200D01*
X005480Y003200D01*
X005922Y003200D01*
X005922Y000231D01*
X002438Y000231D01*
X004520Y001480D02*
X004940Y001480D01*
X004940Y001340D02*
X004940Y001620D01*
X004660Y001340D02*
X004520Y001480D01*
M02*
