G75*
%MOIN*%
%OFA0B0*%
%FSLAX24Y24*%
%IPPOS*%
%LPD*%
%AMOC8*
5,1,8,0,0,1.08239X$1,22.5*
%
%ADD10C,0.0080*%
%ADD11C,0.0740*%
%ADD12R,0.0740X0.0740*%
%ADD13C,0.0160*%
D10*
X000680Y000200D02*
X007680Y000200D01*
X007724Y000202D01*
X007767Y000208D01*
X007809Y000217D01*
X007851Y000230D01*
X007891Y000247D01*
X007930Y000267D01*
X007967Y000290D01*
X008001Y000317D01*
X008034Y000346D01*
X008063Y000379D01*
X008090Y000413D01*
X008113Y000450D01*
X008133Y000489D01*
X008150Y000529D01*
X008163Y000571D01*
X008172Y000613D01*
X008178Y000656D01*
X008180Y000700D01*
X008180Y006700D01*
X008178Y006744D01*
X008172Y006787D01*
X008163Y006829D01*
X008150Y006871D01*
X008133Y006911D01*
X008113Y006950D01*
X008090Y006987D01*
X008063Y007021D01*
X008034Y007054D01*
X008001Y007083D01*
X007967Y007110D01*
X007930Y007133D01*
X007891Y007153D01*
X007851Y007170D01*
X007809Y007183D01*
X007767Y007192D01*
X007724Y007198D01*
X007680Y007200D01*
X000654Y007200D01*
X000613Y007198D01*
X000572Y007193D01*
X000531Y007184D01*
X000492Y007171D01*
X000454Y007156D01*
X000417Y007136D01*
X000382Y007114D01*
X000349Y007089D01*
X000319Y007061D01*
X000291Y007031D01*
X000266Y006998D01*
X000244Y006963D01*
X000224Y006926D01*
X000209Y006888D01*
X000196Y006849D01*
X000187Y006808D01*
X000182Y006767D01*
X000180Y006726D01*
X000180Y000700D01*
X000182Y000656D01*
X000188Y000613D01*
X000197Y000571D01*
X000210Y000529D01*
X000227Y000489D01*
X000247Y000450D01*
X000270Y000413D01*
X000297Y000379D01*
X000326Y000346D01*
X000359Y000317D01*
X000393Y000290D01*
X000430Y000267D01*
X000469Y000247D01*
X000509Y000230D01*
X000551Y000217D01*
X000593Y000208D01*
X000636Y000202D01*
X000680Y000200D01*
D11*
X000680Y002200D03*
X000680Y003200D03*
X000680Y004200D03*
X000680Y005200D03*
X003680Y005200D03*
X004680Y005200D03*
X004680Y004200D03*
X003680Y004200D03*
X003680Y003200D03*
X004680Y003200D03*
X003680Y002200D03*
X007680Y003200D03*
X007680Y004200D03*
X007680Y005200D03*
D12*
X007680Y002200D03*
X004680Y002200D03*
D13*
X000513Y000451D02*
X000431Y000533D01*
X000386Y000641D01*
X000380Y000700D01*
X000380Y001751D01*
X000575Y001670D01*
X000785Y001670D01*
X000980Y001751D01*
X001129Y001900D01*
X001210Y002095D01*
X001210Y002305D01*
X001129Y002500D01*
X000980Y002649D01*
X000858Y002700D01*
X000980Y002751D01*
X001129Y002900D01*
X001210Y003095D01*
X001210Y003305D01*
X001129Y003500D01*
X000980Y003649D01*
X000858Y003700D01*
X000980Y003751D01*
X001129Y003900D01*
X001210Y004095D01*
X001210Y004305D01*
X001129Y004500D01*
X000980Y004649D01*
X000858Y004700D01*
X000980Y004751D01*
X001129Y004900D01*
X001210Y005095D01*
X001210Y005305D01*
X001129Y005500D01*
X000980Y005649D01*
X000785Y005730D01*
X000575Y005730D01*
X000380Y005649D01*
X000380Y006726D01*
X000385Y006780D01*
X000426Y006878D01*
X000502Y006954D01*
X000600Y006995D01*
X000654Y007000D01*
X007680Y007000D01*
X007739Y006994D01*
X007847Y006949D01*
X007929Y006867D01*
X007974Y006759D01*
X007980Y006700D01*
X007980Y005662D01*
X007968Y005670D01*
X007891Y005710D01*
X007809Y005736D01*
X007723Y005750D01*
X007700Y005750D01*
X007700Y005220D01*
X007660Y005220D01*
X007660Y005750D01*
X007637Y005750D01*
X007551Y005736D01*
X007469Y005710D01*
X007392Y005670D01*
X007322Y005620D01*
X007260Y005558D01*
X007210Y005488D01*
X007170Y005411D01*
X007144Y005329D01*
X007130Y005243D01*
X007130Y005220D01*
X007660Y005220D01*
X007660Y005180D01*
X007130Y005180D01*
X007130Y005157D01*
X007144Y005071D01*
X007170Y004989D01*
X007210Y004912D01*
X007260Y004842D01*
X007322Y004780D01*
X007392Y004730D01*
X007469Y004690D01*
X007474Y004689D01*
X007380Y004649D01*
X007231Y004500D01*
X007150Y004305D01*
X007150Y004095D01*
X007231Y003900D01*
X007380Y003751D01*
X007502Y003700D01*
X007380Y003649D01*
X007231Y003500D01*
X007150Y003305D01*
X007150Y003095D01*
X007231Y002900D01*
X007380Y002751D01*
X007430Y002730D01*
X007244Y002730D01*
X007150Y002636D01*
X007150Y001764D01*
X007244Y001670D01*
X007980Y001670D01*
X007980Y000700D01*
X007974Y000641D01*
X007929Y000533D01*
X007847Y000451D01*
X007739Y000406D01*
X007680Y000400D01*
X000680Y000400D01*
X000621Y000406D01*
X000513Y000451D01*
X000447Y000517D02*
X007913Y000517D01*
X007978Y000676D02*
X000382Y000676D01*
X000380Y000834D02*
X007980Y000834D01*
X007980Y000993D02*
X000380Y000993D01*
X000380Y001151D02*
X007980Y001151D01*
X007980Y001310D02*
X000380Y001310D01*
X000380Y001468D02*
X007980Y001468D01*
X007980Y001627D02*
X000380Y001627D01*
X001015Y001785D02*
X003345Y001785D01*
X003380Y001751D02*
X003575Y001670D01*
X003785Y001670D01*
X003980Y001751D01*
X004129Y001900D01*
X004150Y001950D01*
X004150Y001764D01*
X004244Y001670D01*
X005116Y001670D01*
X005210Y001764D01*
X005210Y002636D01*
X005116Y002730D01*
X004930Y002730D01*
X004980Y002751D01*
X005129Y002900D01*
X005210Y003095D01*
X005210Y003305D01*
X005129Y003500D01*
X004980Y003649D01*
X004858Y003700D01*
X004980Y003751D01*
X005129Y003900D01*
X005210Y004095D01*
X005210Y004305D01*
X005129Y004500D01*
X004980Y004649D01*
X004886Y004689D01*
X004891Y004690D01*
X004968Y004730D01*
X005038Y004780D01*
X005100Y004842D01*
X005150Y004912D01*
X005190Y004989D01*
X005216Y005071D01*
X005230Y005157D01*
X005230Y005180D01*
X004700Y005180D01*
X004700Y005220D01*
X004660Y005220D01*
X004660Y005750D01*
X004637Y005750D01*
X004551Y005736D01*
X004469Y005710D01*
X004392Y005670D01*
X004322Y005620D01*
X004260Y005558D01*
X004210Y005488D01*
X004170Y005411D01*
X004169Y005406D01*
X004129Y005500D01*
X003980Y005649D01*
X003785Y005730D01*
X003575Y005730D01*
X003380Y005649D01*
X003231Y005500D01*
X003150Y005305D01*
X003150Y005095D01*
X003231Y004900D01*
X003380Y004751D01*
X003502Y004700D01*
X003380Y004649D01*
X003231Y004500D01*
X003150Y004305D01*
X003150Y004095D01*
X003231Y003900D01*
X003380Y003751D01*
X003502Y003700D01*
X003380Y003649D01*
X003231Y003500D01*
X003150Y003305D01*
X003150Y003095D01*
X003231Y002900D01*
X003380Y002751D01*
X003502Y002700D01*
X003380Y002649D01*
X003231Y002500D01*
X003150Y002305D01*
X003150Y002095D01*
X003231Y001900D01*
X003380Y001751D01*
X003213Y001944D02*
X001147Y001944D01*
X001210Y002102D02*
X003150Y002102D01*
X003150Y002261D02*
X001210Y002261D01*
X001163Y002419D02*
X003197Y002419D01*
X003308Y002578D02*
X001052Y002578D01*
X000945Y002736D02*
X003415Y002736D01*
X003236Y002895D02*
X001124Y002895D01*
X001193Y003053D02*
X003167Y003053D01*
X003150Y003212D02*
X001210Y003212D01*
X001183Y003370D02*
X003177Y003370D01*
X003259Y003529D02*
X001101Y003529D01*
X000889Y003687D02*
X003471Y003687D01*
X003285Y003846D02*
X001075Y003846D01*
X001172Y004004D02*
X003188Y004004D01*
X003150Y004163D02*
X001210Y004163D01*
X001204Y004321D02*
X003156Y004321D01*
X003222Y004480D02*
X001138Y004480D01*
X000992Y004638D02*
X003368Y004638D01*
X003334Y004797D02*
X001026Y004797D01*
X001152Y004955D02*
X003208Y004955D01*
X003150Y005114D02*
X001210Y005114D01*
X001210Y005272D02*
X003150Y005272D01*
X003202Y005431D02*
X001158Y005431D01*
X001041Y005589D02*
X003319Y005589D01*
X004041Y005589D02*
X004291Y005589D01*
X004180Y005431D02*
X004158Y005431D01*
X004660Y005431D02*
X004700Y005431D01*
X004700Y005589D02*
X004660Y005589D01*
X004660Y005748D02*
X004700Y005748D01*
X004700Y005750D02*
X004700Y005220D01*
X005230Y005220D01*
X005230Y005243D01*
X005216Y005329D01*
X005190Y005411D01*
X005150Y005488D01*
X005100Y005558D01*
X005038Y005620D01*
X004968Y005670D01*
X004891Y005710D01*
X004809Y005736D01*
X004723Y005750D01*
X004700Y005750D01*
X004739Y005748D02*
X007621Y005748D01*
X007660Y005748D02*
X007700Y005748D01*
X007739Y005748D02*
X007980Y005748D01*
X007980Y005906D02*
X000380Y005906D01*
X000380Y006065D02*
X007980Y006065D01*
X007980Y006223D02*
X000380Y006223D01*
X000380Y006382D02*
X007980Y006382D01*
X007980Y006540D02*
X000380Y006540D01*
X000380Y006699D02*
X007980Y006699D01*
X007933Y006857D02*
X000417Y006857D01*
X000380Y005748D02*
X004621Y005748D01*
X005069Y005589D02*
X007291Y005589D01*
X007180Y005431D02*
X005180Y005431D01*
X005225Y005272D02*
X007135Y005272D01*
X007137Y005114D02*
X005223Y005114D01*
X005172Y004955D02*
X007188Y004955D01*
X007306Y004797D02*
X005054Y004797D01*
X004992Y004638D02*
X007368Y004638D01*
X007222Y004480D02*
X005138Y004480D01*
X005204Y004321D02*
X007156Y004321D01*
X007150Y004163D02*
X005210Y004163D01*
X005172Y004004D02*
X007188Y004004D01*
X007285Y003846D02*
X005075Y003846D01*
X004889Y003687D02*
X007471Y003687D01*
X007259Y003529D02*
X005101Y003529D01*
X005183Y003370D02*
X007177Y003370D01*
X007150Y003212D02*
X005210Y003212D01*
X005193Y003053D02*
X007167Y003053D01*
X007236Y002895D02*
X005124Y002895D01*
X004945Y002736D02*
X007415Y002736D01*
X007150Y002578D02*
X005210Y002578D01*
X005210Y002419D02*
X007150Y002419D01*
X007150Y002261D02*
X005210Y002261D01*
X005210Y002102D02*
X007150Y002102D01*
X007150Y001944D02*
X005210Y001944D01*
X005210Y001785D02*
X007150Y001785D01*
X004150Y001785D02*
X004015Y001785D01*
X004147Y001944D02*
X004150Y001944D01*
X004660Y005272D02*
X004700Y005272D01*
X007660Y005272D02*
X007700Y005272D01*
X007700Y005431D02*
X007660Y005431D01*
X007660Y005589D02*
X007700Y005589D01*
M02*
