G75*
%MOIN*%
%OFA0B0*%
%FSLAX24Y24*%
%IPPOS*%
%LPD*%
%AMOC8*
5,1,8,0,0,1.08239X$1,22.5*
%
%ADD10C,0.0080*%
%ADD11C,0.0010*%
%ADD12C,0.0740*%
%ADD13R,0.0740X0.0740*%
%ADD14C,0.0160*%
D10*
X001680Y000700D02*
X001680Y006726D01*
X001679Y006726D02*
X001681Y006767D01*
X001686Y006808D01*
X001695Y006849D01*
X001708Y006888D01*
X001723Y006926D01*
X001743Y006963D01*
X001765Y006998D01*
X001790Y007031D01*
X001818Y007061D01*
X001848Y007089D01*
X001881Y007114D01*
X001916Y007136D01*
X001953Y007156D01*
X001991Y007171D01*
X002030Y007184D01*
X002071Y007193D01*
X002112Y007198D01*
X002153Y007200D01*
X009180Y007200D01*
X009180Y007476D02*
X002180Y007476D01*
X002136Y007478D01*
X002093Y007484D01*
X002051Y007493D01*
X002009Y007506D01*
X001969Y007523D01*
X001930Y007543D01*
X001893Y007566D01*
X001859Y007593D01*
X001826Y007622D01*
X001797Y007655D01*
X001770Y007689D01*
X001747Y007726D01*
X001727Y007765D01*
X001710Y007805D01*
X001697Y007847D01*
X001688Y007889D01*
X001682Y007932D01*
X001680Y007976D01*
X001680Y014002D01*
X001679Y014002D02*
X001681Y014043D01*
X001686Y014084D01*
X001695Y014125D01*
X001708Y014164D01*
X001723Y014202D01*
X001743Y014239D01*
X001765Y014274D01*
X001790Y014307D01*
X001818Y014337D01*
X001848Y014365D01*
X001881Y014390D01*
X001916Y014412D01*
X001953Y014432D01*
X001991Y014447D01*
X002030Y014460D01*
X002071Y014469D01*
X002112Y014474D01*
X002153Y014476D01*
X009180Y014476D01*
X009180Y014751D02*
X002180Y014751D01*
X002136Y014753D01*
X002093Y014759D01*
X002051Y014768D01*
X002009Y014781D01*
X001969Y014798D01*
X001930Y014818D01*
X001893Y014841D01*
X001859Y014868D01*
X001826Y014897D01*
X001797Y014930D01*
X001770Y014964D01*
X001747Y015001D01*
X001727Y015040D01*
X001710Y015080D01*
X001697Y015122D01*
X001688Y015164D01*
X001682Y015207D01*
X001680Y015251D01*
X001680Y021278D01*
X001679Y021278D02*
X001681Y021319D01*
X001686Y021360D01*
X001695Y021401D01*
X001708Y021440D01*
X001723Y021478D01*
X001743Y021515D01*
X001765Y021550D01*
X001790Y021583D01*
X001818Y021613D01*
X001848Y021641D01*
X001881Y021666D01*
X001916Y021688D01*
X001953Y021708D01*
X001991Y021723D01*
X002030Y021736D01*
X002071Y021745D01*
X002112Y021750D01*
X002153Y021752D01*
X002153Y021751D02*
X009180Y021751D01*
X009180Y022027D02*
X002180Y022027D01*
X002136Y022029D01*
X002093Y022035D01*
X002051Y022044D01*
X002009Y022057D01*
X001969Y022074D01*
X001930Y022094D01*
X001893Y022117D01*
X001859Y022144D01*
X001826Y022173D01*
X001797Y022206D01*
X001770Y022240D01*
X001747Y022277D01*
X001727Y022316D01*
X001710Y022356D01*
X001697Y022398D01*
X001688Y022440D01*
X001682Y022483D01*
X001680Y022527D01*
X001680Y028553D01*
X001679Y028553D02*
X001681Y028594D01*
X001686Y028635D01*
X001695Y028676D01*
X001708Y028715D01*
X001723Y028753D01*
X001743Y028790D01*
X001765Y028825D01*
X001790Y028858D01*
X001818Y028888D01*
X001848Y028916D01*
X001881Y028941D01*
X001916Y028963D01*
X001953Y028983D01*
X001991Y028998D01*
X002030Y029011D01*
X002071Y029020D01*
X002112Y029025D01*
X002153Y029027D01*
X009180Y029027D01*
X009180Y029302D02*
X002180Y029302D01*
X002136Y029304D01*
X002093Y029310D01*
X002051Y029319D01*
X002009Y029332D01*
X001969Y029349D01*
X001930Y029369D01*
X001893Y029392D01*
X001859Y029419D01*
X001826Y029448D01*
X001797Y029481D01*
X001770Y029515D01*
X001747Y029552D01*
X001727Y029591D01*
X001710Y029631D01*
X001697Y029673D01*
X001688Y029715D01*
X001682Y029758D01*
X001680Y029802D01*
X001680Y035829D01*
X001679Y035829D02*
X001681Y035870D01*
X001686Y035911D01*
X001695Y035952D01*
X001708Y035991D01*
X001723Y036029D01*
X001743Y036066D01*
X001765Y036101D01*
X001790Y036134D01*
X001818Y036164D01*
X001848Y036192D01*
X001881Y036217D01*
X001916Y036239D01*
X001953Y036259D01*
X001991Y036274D01*
X002030Y036287D01*
X002071Y036296D01*
X002112Y036301D01*
X002153Y036303D01*
X002153Y036302D02*
X009180Y036302D01*
X009224Y036300D01*
X009267Y036294D01*
X009309Y036285D01*
X009351Y036272D01*
X009391Y036255D01*
X009430Y036235D01*
X009467Y036212D01*
X009501Y036185D01*
X009534Y036156D01*
X009563Y036123D01*
X009590Y036089D01*
X009613Y036052D01*
X009633Y036013D01*
X009650Y035973D01*
X009663Y035931D01*
X009672Y035889D01*
X009678Y035846D01*
X009680Y035802D01*
X009680Y029802D01*
X009955Y029802D02*
X009955Y035829D01*
X009957Y035870D01*
X009962Y035911D01*
X009971Y035952D01*
X009984Y035991D01*
X009999Y036029D01*
X010019Y036066D01*
X010041Y036101D01*
X010066Y036134D01*
X010094Y036164D01*
X010124Y036192D01*
X010157Y036217D01*
X010192Y036239D01*
X010229Y036259D01*
X010267Y036274D01*
X010306Y036287D01*
X010347Y036296D01*
X010388Y036301D01*
X010429Y036303D01*
X010429Y036302D02*
X017455Y036302D01*
X017499Y036300D01*
X017542Y036294D01*
X017584Y036285D01*
X017626Y036272D01*
X017666Y036255D01*
X017705Y036235D01*
X017742Y036212D01*
X017776Y036185D01*
X017809Y036156D01*
X017838Y036123D01*
X017865Y036089D01*
X017888Y036052D01*
X017908Y036013D01*
X017925Y035973D01*
X017938Y035931D01*
X017947Y035889D01*
X017953Y035846D01*
X017955Y035802D01*
X017955Y029802D01*
X018231Y029802D02*
X018231Y035829D01*
X018233Y035870D01*
X018238Y035911D01*
X018247Y035952D01*
X018260Y035991D01*
X018275Y036029D01*
X018295Y036066D01*
X018317Y036101D01*
X018342Y036134D01*
X018370Y036164D01*
X018400Y036192D01*
X018433Y036217D01*
X018468Y036239D01*
X018505Y036259D01*
X018543Y036274D01*
X018582Y036287D01*
X018623Y036296D01*
X018664Y036301D01*
X018705Y036303D01*
X018705Y036302D02*
X025731Y036302D01*
X025775Y036300D01*
X025818Y036294D01*
X025860Y036285D01*
X025902Y036272D01*
X025942Y036255D01*
X025981Y036235D01*
X026018Y036212D01*
X026052Y036185D01*
X026085Y036156D01*
X026114Y036123D01*
X026141Y036089D01*
X026164Y036052D01*
X026184Y036013D01*
X026201Y035973D01*
X026214Y035931D01*
X026223Y035889D01*
X026229Y035846D01*
X026231Y035802D01*
X026231Y029802D01*
X026507Y029802D02*
X026507Y035829D01*
X026506Y035829D02*
X026508Y035870D01*
X026513Y035911D01*
X026522Y035952D01*
X026535Y035991D01*
X026550Y036029D01*
X026570Y036066D01*
X026592Y036101D01*
X026617Y036134D01*
X026645Y036164D01*
X026675Y036192D01*
X026708Y036217D01*
X026743Y036239D01*
X026780Y036259D01*
X026818Y036274D01*
X026857Y036287D01*
X026898Y036296D01*
X026939Y036301D01*
X026980Y036303D01*
X026980Y036302D02*
X034007Y036302D01*
X034051Y036300D01*
X034094Y036294D01*
X034136Y036285D01*
X034178Y036272D01*
X034218Y036255D01*
X034257Y036235D01*
X034294Y036212D01*
X034328Y036185D01*
X034361Y036156D01*
X034390Y036123D01*
X034417Y036089D01*
X034440Y036052D01*
X034460Y036013D01*
X034477Y035973D01*
X034490Y035931D01*
X034499Y035889D01*
X034505Y035846D01*
X034507Y035802D01*
X034507Y029802D01*
X034505Y029758D01*
X034499Y029715D01*
X034490Y029673D01*
X034477Y029631D01*
X034460Y029591D01*
X034440Y029552D01*
X034417Y029515D01*
X034390Y029481D01*
X034361Y029448D01*
X034328Y029419D01*
X034294Y029392D01*
X034257Y029369D01*
X034218Y029349D01*
X034178Y029332D01*
X034136Y029319D01*
X034094Y029310D01*
X034051Y029304D01*
X034007Y029302D01*
X027007Y029302D01*
X026980Y029027D02*
X034007Y029027D01*
X034051Y029025D01*
X034094Y029019D01*
X034136Y029010D01*
X034178Y028997D01*
X034218Y028980D01*
X034257Y028960D01*
X034294Y028937D01*
X034328Y028910D01*
X034361Y028881D01*
X034390Y028848D01*
X034417Y028814D01*
X034440Y028777D01*
X034460Y028738D01*
X034477Y028698D01*
X034490Y028656D01*
X034499Y028614D01*
X034505Y028571D01*
X034507Y028527D01*
X034507Y022527D01*
X034505Y022483D01*
X034499Y022440D01*
X034490Y022398D01*
X034477Y022356D01*
X034460Y022316D01*
X034440Y022277D01*
X034417Y022240D01*
X034390Y022206D01*
X034361Y022173D01*
X034328Y022144D01*
X034294Y022117D01*
X034257Y022094D01*
X034218Y022074D01*
X034178Y022057D01*
X034136Y022044D01*
X034094Y022035D01*
X034051Y022029D01*
X034007Y022027D01*
X027007Y022027D01*
X026980Y021751D02*
X034007Y021751D01*
X034051Y021749D01*
X034094Y021743D01*
X034136Y021734D01*
X034178Y021721D01*
X034218Y021704D01*
X034257Y021684D01*
X034294Y021661D01*
X034328Y021634D01*
X034361Y021605D01*
X034390Y021572D01*
X034417Y021538D01*
X034440Y021501D01*
X034460Y021462D01*
X034477Y021422D01*
X034490Y021380D01*
X034499Y021338D01*
X034505Y021295D01*
X034507Y021251D01*
X034507Y015251D01*
X034505Y015207D01*
X034499Y015164D01*
X034490Y015122D01*
X034477Y015080D01*
X034460Y015040D01*
X034440Y015001D01*
X034417Y014964D01*
X034390Y014930D01*
X034361Y014897D01*
X034328Y014868D01*
X034294Y014841D01*
X034257Y014818D01*
X034218Y014798D01*
X034178Y014781D01*
X034136Y014768D01*
X034094Y014759D01*
X034051Y014753D01*
X034007Y014751D01*
X027007Y014751D01*
X026980Y014476D02*
X034007Y014476D01*
X034051Y014474D01*
X034094Y014468D01*
X034136Y014459D01*
X034178Y014446D01*
X034218Y014429D01*
X034257Y014409D01*
X034294Y014386D01*
X034328Y014359D01*
X034361Y014330D01*
X034390Y014297D01*
X034417Y014263D01*
X034440Y014226D01*
X034460Y014187D01*
X034477Y014147D01*
X034490Y014105D01*
X034499Y014063D01*
X034505Y014020D01*
X034507Y013976D01*
X034507Y007976D01*
X034505Y007932D01*
X034499Y007889D01*
X034490Y007847D01*
X034477Y007805D01*
X034460Y007765D01*
X034440Y007726D01*
X034417Y007689D01*
X034390Y007655D01*
X034361Y007622D01*
X034328Y007593D01*
X034294Y007566D01*
X034257Y007543D01*
X034218Y007523D01*
X034178Y007506D01*
X034136Y007493D01*
X034094Y007484D01*
X034051Y007478D01*
X034007Y007476D01*
X027007Y007476D01*
X026980Y007200D02*
X034007Y007200D01*
X034051Y007198D01*
X034094Y007192D01*
X034136Y007183D01*
X034178Y007170D01*
X034218Y007153D01*
X034257Y007133D01*
X034294Y007110D01*
X034328Y007083D01*
X034361Y007054D01*
X034390Y007021D01*
X034417Y006987D01*
X034440Y006950D01*
X034460Y006911D01*
X034477Y006871D01*
X034490Y006829D01*
X034499Y006787D01*
X034505Y006744D01*
X034507Y006700D01*
X034507Y000700D01*
X034505Y000656D01*
X034499Y000613D01*
X034490Y000571D01*
X034477Y000529D01*
X034460Y000489D01*
X034440Y000450D01*
X034417Y000413D01*
X034390Y000379D01*
X034361Y000346D01*
X034328Y000317D01*
X034294Y000290D01*
X034257Y000267D01*
X034218Y000247D01*
X034178Y000230D01*
X034136Y000217D01*
X034094Y000208D01*
X034051Y000202D01*
X034007Y000200D01*
X027007Y000200D01*
X026963Y000202D01*
X026920Y000208D01*
X026878Y000217D01*
X026836Y000230D01*
X026796Y000247D01*
X026757Y000267D01*
X026720Y000290D01*
X026686Y000317D01*
X026653Y000346D01*
X026624Y000379D01*
X026597Y000413D01*
X026574Y000450D01*
X026554Y000489D01*
X026537Y000529D01*
X026524Y000571D01*
X026515Y000613D01*
X026509Y000656D01*
X026507Y000700D01*
X026507Y006726D01*
X026231Y006700D02*
X026231Y000700D01*
X026229Y000656D01*
X026223Y000613D01*
X026214Y000571D01*
X026201Y000529D01*
X026184Y000489D01*
X026164Y000450D01*
X026141Y000413D01*
X026114Y000379D01*
X026085Y000346D01*
X026052Y000317D01*
X026018Y000290D01*
X025981Y000267D01*
X025942Y000247D01*
X025902Y000230D01*
X025860Y000217D01*
X025818Y000208D01*
X025775Y000202D01*
X025731Y000200D01*
X018731Y000200D01*
X018687Y000202D01*
X018644Y000208D01*
X018602Y000217D01*
X018560Y000230D01*
X018520Y000247D01*
X018481Y000267D01*
X018444Y000290D01*
X018410Y000317D01*
X018377Y000346D01*
X018348Y000379D01*
X018321Y000413D01*
X018298Y000450D01*
X018278Y000489D01*
X018261Y000529D01*
X018248Y000571D01*
X018239Y000613D01*
X018233Y000656D01*
X018231Y000700D01*
X018231Y006726D01*
X017955Y006700D02*
X017955Y000700D01*
X017953Y000656D01*
X017947Y000613D01*
X017938Y000571D01*
X017925Y000529D01*
X017908Y000489D01*
X017888Y000450D01*
X017865Y000413D01*
X017838Y000379D01*
X017809Y000346D01*
X017776Y000317D01*
X017742Y000290D01*
X017705Y000267D01*
X017666Y000247D01*
X017626Y000230D01*
X017584Y000217D01*
X017542Y000208D01*
X017499Y000202D01*
X017455Y000200D01*
X010455Y000200D01*
X010411Y000202D01*
X010368Y000208D01*
X010326Y000217D01*
X010284Y000230D01*
X010244Y000247D01*
X010205Y000267D01*
X010168Y000290D01*
X010134Y000317D01*
X010101Y000346D01*
X010072Y000379D01*
X010045Y000413D01*
X010022Y000450D01*
X010002Y000489D01*
X009985Y000529D01*
X009972Y000571D01*
X009963Y000613D01*
X009957Y000656D01*
X009955Y000700D01*
X009955Y006726D01*
X009680Y006700D02*
X009680Y000700D01*
X009678Y000656D01*
X009672Y000613D01*
X009663Y000571D01*
X009650Y000529D01*
X009633Y000489D01*
X009613Y000450D01*
X009590Y000413D01*
X009563Y000379D01*
X009534Y000346D01*
X009501Y000317D01*
X009467Y000290D01*
X009430Y000267D01*
X009391Y000247D01*
X009351Y000230D01*
X009309Y000217D01*
X009267Y000208D01*
X009224Y000202D01*
X009180Y000200D01*
X002180Y000200D01*
X002136Y000202D01*
X002093Y000208D01*
X002051Y000217D01*
X002009Y000230D01*
X001969Y000247D01*
X001930Y000267D01*
X001893Y000290D01*
X001859Y000317D01*
X001826Y000346D01*
X001797Y000379D01*
X001770Y000413D01*
X001747Y000450D01*
X001727Y000489D01*
X001710Y000529D01*
X001697Y000571D01*
X001688Y000613D01*
X001682Y000656D01*
X001680Y000700D01*
X009180Y007200D02*
X009224Y007198D01*
X009267Y007192D01*
X009309Y007183D01*
X009351Y007170D01*
X009391Y007153D01*
X009430Y007133D01*
X009467Y007110D01*
X009501Y007083D01*
X009534Y007054D01*
X009563Y007021D01*
X009590Y006987D01*
X009613Y006950D01*
X009633Y006911D01*
X009650Y006871D01*
X009663Y006829D01*
X009672Y006787D01*
X009678Y006744D01*
X009680Y006700D01*
X009955Y006726D02*
X009957Y006767D01*
X009962Y006808D01*
X009971Y006849D01*
X009984Y006888D01*
X009999Y006926D01*
X010019Y006963D01*
X010041Y006998D01*
X010066Y007031D01*
X010094Y007061D01*
X010124Y007089D01*
X010157Y007114D01*
X010192Y007136D01*
X010229Y007156D01*
X010267Y007171D01*
X010306Y007184D01*
X010347Y007193D01*
X010388Y007198D01*
X010429Y007200D01*
X017455Y007200D01*
X017455Y007476D02*
X010455Y007476D01*
X010411Y007478D01*
X010368Y007484D01*
X010326Y007493D01*
X010284Y007506D01*
X010244Y007523D01*
X010205Y007543D01*
X010168Y007566D01*
X010134Y007593D01*
X010101Y007622D01*
X010072Y007655D01*
X010045Y007689D01*
X010022Y007726D01*
X010002Y007765D01*
X009985Y007805D01*
X009972Y007847D01*
X009963Y007889D01*
X009957Y007932D01*
X009955Y007976D01*
X009955Y014002D01*
X009680Y013976D02*
X009680Y007976D01*
X009678Y007932D01*
X009672Y007889D01*
X009663Y007847D01*
X009650Y007805D01*
X009633Y007765D01*
X009613Y007726D01*
X009590Y007689D01*
X009563Y007655D01*
X009534Y007622D01*
X009501Y007593D01*
X009467Y007566D01*
X009430Y007543D01*
X009391Y007523D01*
X009351Y007506D01*
X009309Y007493D01*
X009267Y007484D01*
X009224Y007478D01*
X009180Y007476D01*
X009680Y013976D02*
X009678Y014020D01*
X009672Y014063D01*
X009663Y014105D01*
X009650Y014147D01*
X009633Y014187D01*
X009613Y014226D01*
X009590Y014263D01*
X009563Y014297D01*
X009534Y014330D01*
X009501Y014359D01*
X009467Y014386D01*
X009430Y014409D01*
X009391Y014429D01*
X009351Y014446D01*
X009309Y014459D01*
X009267Y014468D01*
X009224Y014474D01*
X009180Y014476D01*
X009180Y014751D02*
X009224Y014753D01*
X009267Y014759D01*
X009309Y014768D01*
X009351Y014781D01*
X009391Y014798D01*
X009430Y014818D01*
X009467Y014841D01*
X009501Y014868D01*
X009534Y014897D01*
X009563Y014930D01*
X009590Y014964D01*
X009613Y015001D01*
X009633Y015040D01*
X009650Y015080D01*
X009663Y015122D01*
X009672Y015164D01*
X009678Y015207D01*
X009680Y015251D01*
X009680Y021251D01*
X009955Y021278D02*
X009955Y015251D01*
X009957Y015207D01*
X009963Y015164D01*
X009972Y015122D01*
X009985Y015080D01*
X010002Y015040D01*
X010022Y015001D01*
X010045Y014964D01*
X010072Y014930D01*
X010101Y014897D01*
X010134Y014868D01*
X010168Y014841D01*
X010205Y014818D01*
X010244Y014798D01*
X010284Y014781D01*
X010326Y014768D01*
X010368Y014759D01*
X010411Y014753D01*
X010455Y014751D01*
X017455Y014751D01*
X017455Y014476D02*
X010429Y014476D01*
X010388Y014474D01*
X010347Y014469D01*
X010306Y014460D01*
X010267Y014447D01*
X010229Y014432D01*
X010192Y014412D01*
X010157Y014390D01*
X010124Y014365D01*
X010094Y014337D01*
X010066Y014307D01*
X010041Y014274D01*
X010019Y014239D01*
X009999Y014202D01*
X009984Y014164D01*
X009971Y014125D01*
X009962Y014084D01*
X009957Y014043D01*
X009955Y014002D01*
X009680Y021251D02*
X009678Y021295D01*
X009672Y021338D01*
X009663Y021380D01*
X009650Y021422D01*
X009633Y021462D01*
X009613Y021501D01*
X009590Y021538D01*
X009563Y021572D01*
X009534Y021605D01*
X009501Y021634D01*
X009467Y021661D01*
X009430Y021684D01*
X009391Y021704D01*
X009351Y021721D01*
X009309Y021734D01*
X009267Y021743D01*
X009224Y021749D01*
X009180Y021751D01*
X009180Y022027D02*
X009224Y022029D01*
X009267Y022035D01*
X009309Y022044D01*
X009351Y022057D01*
X009391Y022074D01*
X009430Y022094D01*
X009467Y022117D01*
X009501Y022144D01*
X009534Y022173D01*
X009563Y022206D01*
X009590Y022240D01*
X009613Y022277D01*
X009633Y022316D01*
X009650Y022356D01*
X009663Y022398D01*
X009672Y022440D01*
X009678Y022483D01*
X009680Y022527D01*
X009680Y028527D01*
X009955Y028553D02*
X009955Y022527D01*
X009957Y022483D01*
X009963Y022440D01*
X009972Y022398D01*
X009985Y022356D01*
X010002Y022316D01*
X010022Y022277D01*
X010045Y022240D01*
X010072Y022206D01*
X010101Y022173D01*
X010134Y022144D01*
X010168Y022117D01*
X010205Y022094D01*
X010244Y022074D01*
X010284Y022057D01*
X010326Y022044D01*
X010368Y022035D01*
X010411Y022029D01*
X010455Y022027D01*
X017455Y022027D01*
X017455Y021751D02*
X010429Y021751D01*
X010429Y021752D02*
X010388Y021750D01*
X010347Y021745D01*
X010306Y021736D01*
X010267Y021723D01*
X010229Y021708D01*
X010192Y021688D01*
X010157Y021666D01*
X010124Y021641D01*
X010094Y021613D01*
X010066Y021583D01*
X010041Y021550D01*
X010019Y021515D01*
X009999Y021478D01*
X009984Y021440D01*
X009971Y021401D01*
X009962Y021360D01*
X009957Y021319D01*
X009955Y021278D01*
X009680Y028527D02*
X009678Y028571D01*
X009672Y028614D01*
X009663Y028656D01*
X009650Y028698D01*
X009633Y028738D01*
X009613Y028777D01*
X009590Y028814D01*
X009563Y028848D01*
X009534Y028881D01*
X009501Y028910D01*
X009467Y028937D01*
X009430Y028960D01*
X009391Y028980D01*
X009351Y028997D01*
X009309Y029010D01*
X009267Y029019D01*
X009224Y029025D01*
X009180Y029027D01*
X009180Y029302D02*
X009224Y029304D01*
X009267Y029310D01*
X009309Y029319D01*
X009351Y029332D01*
X009391Y029349D01*
X009430Y029369D01*
X009467Y029392D01*
X009501Y029419D01*
X009534Y029448D01*
X009563Y029481D01*
X009590Y029515D01*
X009613Y029552D01*
X009633Y029591D01*
X009650Y029631D01*
X009663Y029673D01*
X009672Y029715D01*
X009678Y029758D01*
X009680Y029802D01*
X009955Y029802D02*
X009957Y029758D01*
X009963Y029715D01*
X009972Y029673D01*
X009985Y029631D01*
X010002Y029591D01*
X010022Y029552D01*
X010045Y029515D01*
X010072Y029481D01*
X010101Y029448D01*
X010134Y029419D01*
X010168Y029392D01*
X010205Y029369D01*
X010244Y029349D01*
X010284Y029332D01*
X010326Y029319D01*
X010368Y029310D01*
X010411Y029304D01*
X010455Y029302D01*
X017455Y029302D01*
X017455Y029027D02*
X010429Y029027D01*
X010388Y029025D01*
X010347Y029020D01*
X010306Y029011D01*
X010267Y028998D01*
X010229Y028983D01*
X010192Y028963D01*
X010157Y028941D01*
X010124Y028916D01*
X010094Y028888D01*
X010066Y028858D01*
X010041Y028825D01*
X010019Y028790D01*
X009999Y028753D01*
X009984Y028715D01*
X009971Y028676D01*
X009962Y028635D01*
X009957Y028594D01*
X009955Y028553D01*
X017455Y029027D02*
X017499Y029025D01*
X017542Y029019D01*
X017584Y029010D01*
X017626Y028997D01*
X017666Y028980D01*
X017705Y028960D01*
X017742Y028937D01*
X017776Y028910D01*
X017809Y028881D01*
X017838Y028848D01*
X017865Y028814D01*
X017888Y028777D01*
X017908Y028738D01*
X017925Y028698D01*
X017938Y028656D01*
X017947Y028614D01*
X017953Y028571D01*
X017955Y028527D01*
X017955Y022527D01*
X018231Y022527D02*
X018231Y028553D01*
X018233Y028594D01*
X018238Y028635D01*
X018247Y028676D01*
X018260Y028715D01*
X018275Y028753D01*
X018295Y028790D01*
X018317Y028825D01*
X018342Y028858D01*
X018370Y028888D01*
X018400Y028916D01*
X018433Y028941D01*
X018468Y028963D01*
X018505Y028983D01*
X018543Y028998D01*
X018582Y029011D01*
X018623Y029020D01*
X018664Y029025D01*
X018705Y029027D01*
X025731Y029027D01*
X025731Y029302D02*
X018731Y029302D01*
X018687Y029304D01*
X018644Y029310D01*
X018602Y029319D01*
X018560Y029332D01*
X018520Y029349D01*
X018481Y029369D01*
X018444Y029392D01*
X018410Y029419D01*
X018377Y029448D01*
X018348Y029481D01*
X018321Y029515D01*
X018298Y029552D01*
X018278Y029591D01*
X018261Y029631D01*
X018248Y029673D01*
X018239Y029715D01*
X018233Y029758D01*
X018231Y029802D01*
X017955Y029802D02*
X017953Y029758D01*
X017947Y029715D01*
X017938Y029673D01*
X017925Y029631D01*
X017908Y029591D01*
X017888Y029552D01*
X017865Y029515D01*
X017838Y029481D01*
X017809Y029448D01*
X017776Y029419D01*
X017742Y029392D01*
X017705Y029369D01*
X017666Y029349D01*
X017626Y029332D01*
X017584Y029319D01*
X017542Y029310D01*
X017499Y029304D01*
X017455Y029302D01*
X017955Y022527D02*
X017953Y022483D01*
X017947Y022440D01*
X017938Y022398D01*
X017925Y022356D01*
X017908Y022316D01*
X017888Y022277D01*
X017865Y022240D01*
X017838Y022206D01*
X017809Y022173D01*
X017776Y022144D01*
X017742Y022117D01*
X017705Y022094D01*
X017666Y022074D01*
X017626Y022057D01*
X017584Y022044D01*
X017542Y022035D01*
X017499Y022029D01*
X017455Y022027D01*
X017455Y021751D02*
X017499Y021749D01*
X017542Y021743D01*
X017584Y021734D01*
X017626Y021721D01*
X017666Y021704D01*
X017705Y021684D01*
X017742Y021661D01*
X017776Y021634D01*
X017809Y021605D01*
X017838Y021572D01*
X017865Y021538D01*
X017888Y021501D01*
X017908Y021462D01*
X017925Y021422D01*
X017938Y021380D01*
X017947Y021338D01*
X017953Y021295D01*
X017955Y021251D01*
X017955Y015251D01*
X018231Y015251D02*
X018231Y021278D01*
X018233Y021319D01*
X018238Y021360D01*
X018247Y021401D01*
X018260Y021440D01*
X018275Y021478D01*
X018295Y021515D01*
X018317Y021550D01*
X018342Y021583D01*
X018370Y021613D01*
X018400Y021641D01*
X018433Y021666D01*
X018468Y021688D01*
X018505Y021708D01*
X018543Y021723D01*
X018582Y021736D01*
X018623Y021745D01*
X018664Y021750D01*
X018705Y021752D01*
X018705Y021751D02*
X025731Y021751D01*
X025731Y022027D02*
X018731Y022027D01*
X018687Y022029D01*
X018644Y022035D01*
X018602Y022044D01*
X018560Y022057D01*
X018520Y022074D01*
X018481Y022094D01*
X018444Y022117D01*
X018410Y022144D01*
X018377Y022173D01*
X018348Y022206D01*
X018321Y022240D01*
X018298Y022277D01*
X018278Y022316D01*
X018261Y022356D01*
X018248Y022398D01*
X018239Y022440D01*
X018233Y022483D01*
X018231Y022527D01*
X018231Y015251D02*
X018233Y015207D01*
X018239Y015164D01*
X018248Y015122D01*
X018261Y015080D01*
X018278Y015040D01*
X018298Y015001D01*
X018321Y014964D01*
X018348Y014930D01*
X018377Y014897D01*
X018410Y014868D01*
X018444Y014841D01*
X018481Y014818D01*
X018520Y014798D01*
X018560Y014781D01*
X018602Y014768D01*
X018644Y014759D01*
X018687Y014753D01*
X018731Y014751D01*
X025731Y014751D01*
X025731Y014476D02*
X018705Y014476D01*
X018664Y014474D01*
X018623Y014469D01*
X018582Y014460D01*
X018543Y014447D01*
X018505Y014432D01*
X018468Y014412D01*
X018433Y014390D01*
X018400Y014365D01*
X018370Y014337D01*
X018342Y014307D01*
X018317Y014274D01*
X018295Y014239D01*
X018275Y014202D01*
X018260Y014164D01*
X018247Y014125D01*
X018238Y014084D01*
X018233Y014043D01*
X018231Y014002D01*
X018231Y007976D01*
X017955Y007976D02*
X017955Y013976D01*
X017953Y014020D01*
X017947Y014063D01*
X017938Y014105D01*
X017925Y014147D01*
X017908Y014187D01*
X017888Y014226D01*
X017865Y014263D01*
X017838Y014297D01*
X017809Y014330D01*
X017776Y014359D01*
X017742Y014386D01*
X017705Y014409D01*
X017666Y014429D01*
X017626Y014446D01*
X017584Y014459D01*
X017542Y014468D01*
X017499Y014474D01*
X017455Y014476D01*
X017455Y014751D02*
X017499Y014753D01*
X017542Y014759D01*
X017584Y014768D01*
X017626Y014781D01*
X017666Y014798D01*
X017705Y014818D01*
X017742Y014841D01*
X017776Y014868D01*
X017809Y014897D01*
X017838Y014930D01*
X017865Y014964D01*
X017888Y015001D01*
X017908Y015040D01*
X017925Y015080D01*
X017938Y015122D01*
X017947Y015164D01*
X017953Y015207D01*
X017955Y015251D01*
X017955Y007976D02*
X017953Y007932D01*
X017947Y007889D01*
X017938Y007847D01*
X017925Y007805D01*
X017908Y007765D01*
X017888Y007726D01*
X017865Y007689D01*
X017838Y007655D01*
X017809Y007622D01*
X017776Y007593D01*
X017742Y007566D01*
X017705Y007543D01*
X017666Y007523D01*
X017626Y007506D01*
X017584Y007493D01*
X017542Y007484D01*
X017499Y007478D01*
X017455Y007476D01*
X017455Y007200D02*
X017499Y007198D01*
X017542Y007192D01*
X017584Y007183D01*
X017626Y007170D01*
X017666Y007153D01*
X017705Y007133D01*
X017742Y007110D01*
X017776Y007083D01*
X017809Y007054D01*
X017838Y007021D01*
X017865Y006987D01*
X017888Y006950D01*
X017908Y006911D01*
X017925Y006871D01*
X017938Y006829D01*
X017947Y006787D01*
X017953Y006744D01*
X017955Y006700D01*
X018231Y006726D02*
X018233Y006767D01*
X018238Y006808D01*
X018247Y006849D01*
X018260Y006888D01*
X018275Y006926D01*
X018295Y006963D01*
X018317Y006998D01*
X018342Y007031D01*
X018370Y007061D01*
X018400Y007089D01*
X018433Y007114D01*
X018468Y007136D01*
X018505Y007156D01*
X018543Y007171D01*
X018582Y007184D01*
X018623Y007193D01*
X018664Y007198D01*
X018705Y007200D01*
X025731Y007200D01*
X025731Y007476D02*
X018731Y007476D01*
X018687Y007478D01*
X018644Y007484D01*
X018602Y007493D01*
X018560Y007506D01*
X018520Y007523D01*
X018481Y007543D01*
X018444Y007566D01*
X018410Y007593D01*
X018377Y007622D01*
X018348Y007655D01*
X018321Y007689D01*
X018298Y007726D01*
X018278Y007765D01*
X018261Y007805D01*
X018248Y007847D01*
X018239Y007889D01*
X018233Y007932D01*
X018231Y007976D01*
X025731Y007476D02*
X025775Y007478D01*
X025818Y007484D01*
X025860Y007493D01*
X025902Y007506D01*
X025942Y007523D01*
X025981Y007543D01*
X026018Y007566D01*
X026052Y007593D01*
X026085Y007622D01*
X026114Y007655D01*
X026141Y007689D01*
X026164Y007726D01*
X026184Y007765D01*
X026201Y007805D01*
X026214Y007847D01*
X026223Y007889D01*
X026229Y007932D01*
X026231Y007976D01*
X026231Y013976D01*
X026507Y014002D02*
X026507Y007976D01*
X026509Y007932D01*
X026515Y007889D01*
X026524Y007847D01*
X026537Y007805D01*
X026554Y007765D01*
X026574Y007726D01*
X026597Y007689D01*
X026624Y007655D01*
X026653Y007622D01*
X026686Y007593D01*
X026720Y007566D01*
X026757Y007543D01*
X026796Y007523D01*
X026836Y007506D01*
X026878Y007493D01*
X026920Y007484D01*
X026963Y007478D01*
X027007Y007476D01*
X026980Y007200D02*
X026939Y007198D01*
X026898Y007193D01*
X026857Y007184D01*
X026818Y007171D01*
X026780Y007156D01*
X026743Y007136D01*
X026708Y007114D01*
X026675Y007089D01*
X026645Y007061D01*
X026617Y007031D01*
X026592Y006998D01*
X026570Y006963D01*
X026550Y006926D01*
X026535Y006888D01*
X026522Y006849D01*
X026513Y006808D01*
X026508Y006767D01*
X026506Y006726D01*
X026231Y006700D02*
X026229Y006744D01*
X026223Y006787D01*
X026214Y006829D01*
X026201Y006871D01*
X026184Y006911D01*
X026164Y006950D01*
X026141Y006987D01*
X026114Y007021D01*
X026085Y007054D01*
X026052Y007083D01*
X026018Y007110D01*
X025981Y007133D01*
X025942Y007153D01*
X025902Y007170D01*
X025860Y007183D01*
X025818Y007192D01*
X025775Y007198D01*
X025731Y007200D01*
X026231Y013976D02*
X026229Y014020D01*
X026223Y014063D01*
X026214Y014105D01*
X026201Y014147D01*
X026184Y014187D01*
X026164Y014226D01*
X026141Y014263D01*
X026114Y014297D01*
X026085Y014330D01*
X026052Y014359D01*
X026018Y014386D01*
X025981Y014409D01*
X025942Y014429D01*
X025902Y014446D01*
X025860Y014459D01*
X025818Y014468D01*
X025775Y014474D01*
X025731Y014476D01*
X025731Y014751D02*
X025775Y014753D01*
X025818Y014759D01*
X025860Y014768D01*
X025902Y014781D01*
X025942Y014798D01*
X025981Y014818D01*
X026018Y014841D01*
X026052Y014868D01*
X026085Y014897D01*
X026114Y014930D01*
X026141Y014964D01*
X026164Y015001D01*
X026184Y015040D01*
X026201Y015080D01*
X026214Y015122D01*
X026223Y015164D01*
X026229Y015207D01*
X026231Y015251D01*
X026231Y021251D01*
X026507Y021278D02*
X026507Y015251D01*
X026509Y015207D01*
X026515Y015164D01*
X026524Y015122D01*
X026537Y015080D01*
X026554Y015040D01*
X026574Y015001D01*
X026597Y014964D01*
X026624Y014930D01*
X026653Y014897D01*
X026686Y014868D01*
X026720Y014841D01*
X026757Y014818D01*
X026796Y014798D01*
X026836Y014781D01*
X026878Y014768D01*
X026920Y014759D01*
X026963Y014753D01*
X027007Y014751D01*
X026980Y014476D02*
X026939Y014474D01*
X026898Y014469D01*
X026857Y014460D01*
X026818Y014447D01*
X026780Y014432D01*
X026743Y014412D01*
X026708Y014390D01*
X026675Y014365D01*
X026645Y014337D01*
X026617Y014307D01*
X026592Y014274D01*
X026570Y014239D01*
X026550Y014202D01*
X026535Y014164D01*
X026522Y014125D01*
X026513Y014084D01*
X026508Y014043D01*
X026506Y014002D01*
X026231Y021251D02*
X026229Y021295D01*
X026223Y021338D01*
X026214Y021380D01*
X026201Y021422D01*
X026184Y021462D01*
X026164Y021501D01*
X026141Y021538D01*
X026114Y021572D01*
X026085Y021605D01*
X026052Y021634D01*
X026018Y021661D01*
X025981Y021684D01*
X025942Y021704D01*
X025902Y021721D01*
X025860Y021734D01*
X025818Y021743D01*
X025775Y021749D01*
X025731Y021751D01*
X025731Y022027D02*
X025775Y022029D01*
X025818Y022035D01*
X025860Y022044D01*
X025902Y022057D01*
X025942Y022074D01*
X025981Y022094D01*
X026018Y022117D01*
X026052Y022144D01*
X026085Y022173D01*
X026114Y022206D01*
X026141Y022240D01*
X026164Y022277D01*
X026184Y022316D01*
X026201Y022356D01*
X026214Y022398D01*
X026223Y022440D01*
X026229Y022483D01*
X026231Y022527D01*
X026231Y028527D01*
X026507Y028553D02*
X026507Y022527D01*
X026509Y022483D01*
X026515Y022440D01*
X026524Y022398D01*
X026537Y022356D01*
X026554Y022316D01*
X026574Y022277D01*
X026597Y022240D01*
X026624Y022206D01*
X026653Y022173D01*
X026686Y022144D01*
X026720Y022117D01*
X026757Y022094D01*
X026796Y022074D01*
X026836Y022057D01*
X026878Y022044D01*
X026920Y022035D01*
X026963Y022029D01*
X027007Y022027D01*
X026980Y021752D02*
X026939Y021750D01*
X026898Y021745D01*
X026857Y021736D01*
X026818Y021723D01*
X026780Y021708D01*
X026743Y021688D01*
X026708Y021666D01*
X026675Y021641D01*
X026645Y021613D01*
X026617Y021583D01*
X026592Y021550D01*
X026570Y021515D01*
X026550Y021478D01*
X026535Y021440D01*
X026522Y021401D01*
X026513Y021360D01*
X026508Y021319D01*
X026506Y021278D01*
X026231Y028527D02*
X026229Y028571D01*
X026223Y028614D01*
X026214Y028656D01*
X026201Y028698D01*
X026184Y028738D01*
X026164Y028777D01*
X026141Y028814D01*
X026114Y028848D01*
X026085Y028881D01*
X026052Y028910D01*
X026018Y028937D01*
X025981Y028960D01*
X025942Y028980D01*
X025902Y028997D01*
X025860Y029010D01*
X025818Y029019D01*
X025775Y029025D01*
X025731Y029027D01*
X025731Y029302D02*
X025775Y029304D01*
X025818Y029310D01*
X025860Y029319D01*
X025902Y029332D01*
X025942Y029349D01*
X025981Y029369D01*
X026018Y029392D01*
X026052Y029419D01*
X026085Y029448D01*
X026114Y029481D01*
X026141Y029515D01*
X026164Y029552D01*
X026184Y029591D01*
X026201Y029631D01*
X026214Y029673D01*
X026223Y029715D01*
X026229Y029758D01*
X026231Y029802D01*
X026507Y029802D02*
X026509Y029758D01*
X026515Y029715D01*
X026524Y029673D01*
X026537Y029631D01*
X026554Y029591D01*
X026574Y029552D01*
X026597Y029515D01*
X026624Y029481D01*
X026653Y029448D01*
X026686Y029419D01*
X026720Y029392D01*
X026757Y029369D01*
X026796Y029349D01*
X026836Y029332D01*
X026878Y029319D01*
X026920Y029310D01*
X026963Y029304D01*
X027007Y029302D01*
X026980Y029027D02*
X026939Y029025D01*
X026898Y029020D01*
X026857Y029011D01*
X026818Y028998D01*
X026780Y028983D01*
X026743Y028963D01*
X026708Y028941D01*
X026675Y028916D01*
X026645Y028888D01*
X026617Y028858D01*
X026592Y028825D01*
X026570Y028790D01*
X026550Y028753D01*
X026535Y028715D01*
X026522Y028676D01*
X026513Y028635D01*
X026508Y028594D01*
X026506Y028553D01*
D11*
X001404Y000200D02*
X000105Y000200D01*
X000105Y036302D01*
X001404Y036302D01*
X001404Y000200D01*
X034782Y000200D02*
X036081Y000200D01*
X036081Y036302D01*
X034782Y036302D01*
X034782Y000200D01*
D12*
X034007Y003200D03*
X034007Y004200D03*
X034007Y005200D03*
X031007Y005200D03*
X031007Y004200D03*
X031007Y003200D03*
X030007Y003200D03*
X030007Y002200D03*
X030007Y004200D03*
X030007Y005200D03*
X027007Y005200D03*
X027007Y004200D03*
X027007Y003200D03*
X027007Y002200D03*
X025731Y003200D03*
X025731Y004200D03*
X025731Y005200D03*
X022731Y005200D03*
X021731Y005200D03*
X021731Y004200D03*
X022731Y004200D03*
X022731Y003200D03*
X021731Y003200D03*
X021731Y002200D03*
X018731Y002200D03*
X018731Y003200D03*
X018731Y004200D03*
X018731Y005200D03*
X017455Y005200D03*
X017455Y004200D03*
X017455Y003200D03*
X014455Y003200D03*
X013455Y003200D03*
X013455Y002200D03*
X013455Y004200D03*
X014455Y004200D03*
X014455Y005200D03*
X013455Y005200D03*
X010455Y005200D03*
X010455Y004200D03*
X010455Y003200D03*
X010455Y002200D03*
X009180Y003200D03*
X009180Y004200D03*
X009180Y005200D03*
X006180Y005200D03*
X006180Y004200D03*
X006180Y003200D03*
X005180Y003200D03*
X005180Y002200D03*
X005180Y004200D03*
X005180Y005200D03*
X002180Y005200D03*
X002180Y004200D03*
X002180Y003200D03*
X002180Y002200D03*
X002180Y009476D03*
X002180Y010476D03*
X002180Y011476D03*
X002180Y012476D03*
X005180Y012476D03*
X006180Y012476D03*
X006180Y011476D03*
X005180Y011476D03*
X005180Y010476D03*
X006180Y010476D03*
X005180Y009476D03*
X009180Y010476D03*
X009180Y011476D03*
X009180Y012476D03*
X010455Y012476D03*
X010455Y011476D03*
X010455Y010476D03*
X010455Y009476D03*
X013455Y009476D03*
X013455Y010476D03*
X014455Y010476D03*
X014455Y011476D03*
X013455Y011476D03*
X013455Y012476D03*
X014455Y012476D03*
X017455Y012476D03*
X017455Y011476D03*
X017455Y010476D03*
X018731Y010476D03*
X018731Y011476D03*
X018731Y012476D03*
X021731Y012476D03*
X022731Y012476D03*
X022731Y011476D03*
X021731Y011476D03*
X021731Y010476D03*
X022731Y010476D03*
X021731Y009476D03*
X018731Y009476D03*
X025731Y010476D03*
X025731Y011476D03*
X025731Y012476D03*
X027007Y012476D03*
X027007Y011476D03*
X027007Y010476D03*
X027007Y009476D03*
X030007Y009476D03*
X030007Y010476D03*
X031007Y010476D03*
X031007Y011476D03*
X031007Y012476D03*
X030007Y012476D03*
X030007Y011476D03*
X034007Y011476D03*
X034007Y012476D03*
X034007Y010476D03*
X030007Y016751D03*
X030007Y017751D03*
X031007Y017751D03*
X031007Y018751D03*
X031007Y019751D03*
X030007Y019751D03*
X030007Y018751D03*
X027007Y018751D03*
X027007Y017751D03*
X027007Y016751D03*
X025731Y017751D03*
X025731Y018751D03*
X025731Y019751D03*
X027007Y019751D03*
X027007Y024027D03*
X027007Y025027D03*
X027007Y026027D03*
X027007Y027027D03*
X025731Y027027D03*
X025731Y026027D03*
X025731Y025027D03*
X022731Y025027D03*
X021731Y025027D03*
X021731Y026027D03*
X022731Y026027D03*
X022731Y027027D03*
X021731Y027027D03*
X018731Y027027D03*
X018731Y026027D03*
X018731Y025027D03*
X018731Y024027D03*
X017455Y025027D03*
X017455Y026027D03*
X017455Y027027D03*
X014455Y027027D03*
X013455Y027027D03*
X013455Y026027D03*
X014455Y026027D03*
X014455Y025027D03*
X013455Y025027D03*
X013455Y024027D03*
X010455Y024027D03*
X010455Y025027D03*
X010455Y026027D03*
X010455Y027027D03*
X009180Y027027D03*
X009180Y026027D03*
X009180Y025027D03*
X006180Y025027D03*
X006180Y026027D03*
X006180Y027027D03*
X005180Y027027D03*
X005180Y026027D03*
X005180Y025027D03*
X005180Y024027D03*
X002180Y024027D03*
X002180Y025027D03*
X002180Y026027D03*
X002180Y027027D03*
X002180Y031302D03*
X002180Y032302D03*
X002180Y033302D03*
X002180Y034302D03*
X005180Y034302D03*
X005180Y033302D03*
X005180Y032302D03*
X005180Y031302D03*
X006180Y032302D03*
X006180Y033302D03*
X006180Y034302D03*
X009180Y034302D03*
X009180Y033302D03*
X009180Y032302D03*
X010455Y032302D03*
X010455Y031302D03*
X010455Y033302D03*
X010455Y034302D03*
X013455Y034302D03*
X014455Y034302D03*
X014455Y033302D03*
X013455Y033302D03*
X013455Y032302D03*
X014455Y032302D03*
X013455Y031302D03*
X017455Y032302D03*
X017455Y033302D03*
X017455Y034302D03*
X018731Y034302D03*
X018731Y033302D03*
X018731Y032302D03*
X018731Y031302D03*
X021731Y031302D03*
X021731Y032302D03*
X022731Y032302D03*
X022731Y033302D03*
X021731Y033302D03*
X021731Y034302D03*
X022731Y034302D03*
X025731Y034302D03*
X025731Y033302D03*
X025731Y032302D03*
X027007Y032302D03*
X027007Y031302D03*
X027007Y033302D03*
X027007Y034302D03*
X030007Y034302D03*
X031007Y034302D03*
X031007Y033302D03*
X031007Y032302D03*
X030007Y032302D03*
X030007Y031302D03*
X030007Y033302D03*
X034007Y033302D03*
X034007Y032302D03*
X034007Y034302D03*
X034007Y027027D03*
X034007Y026027D03*
X034007Y025027D03*
X031007Y025027D03*
X031007Y026027D03*
X031007Y027027D03*
X030007Y027027D03*
X030007Y026027D03*
X030007Y025027D03*
X030007Y024027D03*
X034007Y019751D03*
X034007Y018751D03*
X034007Y017751D03*
X022731Y017751D03*
X021731Y017751D03*
X021731Y016751D03*
X021731Y018751D03*
X022731Y018751D03*
X022731Y019751D03*
X021731Y019751D03*
X018731Y019751D03*
X018731Y018751D03*
X018731Y017751D03*
X018731Y016751D03*
X017455Y017751D03*
X017455Y018751D03*
X017455Y019751D03*
X014455Y019751D03*
X013455Y019751D03*
X013455Y018751D03*
X014455Y018751D03*
X014455Y017751D03*
X013455Y017751D03*
X013455Y016751D03*
X010455Y016751D03*
X010455Y017751D03*
X010455Y018751D03*
X010455Y019751D03*
X009180Y019751D03*
X009180Y018751D03*
X009180Y017751D03*
X006180Y017751D03*
X006180Y018751D03*
X006180Y019751D03*
X005180Y019751D03*
X005180Y018751D03*
X005180Y017751D03*
X005180Y016751D03*
X002180Y016751D03*
X002180Y017751D03*
X002180Y018751D03*
X002180Y019751D03*
X021731Y024027D03*
D13*
X022731Y024027D03*
X025731Y024027D03*
X031007Y024027D03*
X034007Y024027D03*
X034007Y031302D03*
X031007Y031302D03*
X025731Y031302D03*
X022731Y031302D03*
X017455Y031302D03*
X014455Y031302D03*
X009180Y031302D03*
X006180Y031302D03*
X006180Y024027D03*
X009180Y024027D03*
X014455Y024027D03*
X017455Y024027D03*
X017455Y016751D03*
X014455Y016751D03*
X009180Y016751D03*
X006180Y016751D03*
X006180Y009476D03*
X009180Y009476D03*
X014455Y009476D03*
X017455Y009476D03*
X022731Y009476D03*
X025731Y009476D03*
X031007Y009476D03*
X034007Y009476D03*
X034007Y002200D03*
X031007Y002200D03*
X025731Y002200D03*
X022731Y002200D03*
X017455Y002200D03*
X014455Y002200D03*
X009180Y002200D03*
X006180Y002200D03*
X022731Y016751D03*
X025731Y016751D03*
X031007Y016751D03*
X034007Y016751D03*
D14*
X033477Y016684D02*
X031537Y016684D01*
X031537Y016526D02*
X033477Y016526D01*
X033477Y016367D02*
X031537Y016367D01*
X031537Y016315D02*
X031537Y017187D01*
X031443Y017281D01*
X031257Y017281D01*
X031307Y017302D01*
X031456Y017451D01*
X031537Y017646D01*
X031537Y017857D01*
X031456Y018051D01*
X031307Y018200D01*
X031184Y018251D01*
X031307Y018302D01*
X031456Y018451D01*
X031537Y018646D01*
X031537Y018857D01*
X031456Y019051D01*
X031307Y019200D01*
X031212Y019240D01*
X031218Y019241D01*
X031295Y019281D01*
X031365Y019332D01*
X031426Y019393D01*
X031477Y019463D01*
X031516Y019540D01*
X031543Y019622D01*
X031557Y019708D01*
X031557Y019731D01*
X031027Y019731D01*
X031027Y019771D01*
X031557Y019771D01*
X031557Y019794D01*
X031543Y019880D01*
X031516Y019962D01*
X031477Y020039D01*
X031426Y020109D01*
X031365Y020171D01*
X031295Y020222D01*
X031218Y020261D01*
X031135Y020288D01*
X031050Y020301D01*
X031027Y020301D01*
X031027Y019771D01*
X030987Y019771D01*
X030987Y020301D01*
X030963Y020301D01*
X030878Y020288D01*
X030795Y020261D01*
X030718Y020222D01*
X030648Y020171D01*
X030587Y020109D01*
X030536Y020039D01*
X030497Y019962D01*
X030495Y019957D01*
X030456Y020051D01*
X030307Y020200D01*
X030112Y020281D01*
X029901Y020281D01*
X029706Y020200D01*
X029557Y020051D01*
X029477Y019857D01*
X029477Y019646D01*
X029557Y019451D01*
X029706Y019302D01*
X029829Y019251D01*
X029706Y019200D01*
X029557Y019051D01*
X029477Y018857D01*
X029477Y018646D01*
X029557Y018451D01*
X029706Y018302D01*
X029829Y018251D01*
X029706Y018200D01*
X029557Y018051D01*
X029477Y017857D01*
X029477Y017646D01*
X029557Y017451D01*
X029706Y017302D01*
X029829Y017251D01*
X029706Y017200D01*
X029557Y017051D01*
X029477Y016857D01*
X029477Y016646D01*
X029557Y016451D01*
X029706Y016302D01*
X029901Y016221D01*
X030112Y016221D01*
X030307Y016302D01*
X030456Y016451D01*
X030477Y016501D01*
X030477Y016315D01*
X030570Y016221D01*
X031443Y016221D01*
X031537Y016315D01*
X031537Y016843D02*
X033477Y016843D01*
X033477Y017001D02*
X031537Y017001D01*
X031537Y017160D02*
X033477Y017160D01*
X033477Y017187D02*
X033477Y016315D01*
X033570Y016221D01*
X034307Y016221D01*
X034307Y015251D01*
X034301Y015193D01*
X034256Y015085D01*
X034173Y015002D01*
X034065Y014957D01*
X034007Y014951D01*
X027007Y014951D01*
X026948Y014957D01*
X026840Y015002D01*
X026757Y015085D01*
X026712Y015193D01*
X026707Y015251D01*
X026707Y016302D01*
X026901Y016221D01*
X027112Y016221D01*
X027307Y016302D01*
X027456Y016451D01*
X027537Y016646D01*
X027537Y016857D01*
X027456Y017051D01*
X027307Y017200D01*
X027184Y017251D01*
X027307Y017302D01*
X027456Y017451D01*
X027537Y017646D01*
X027537Y017857D01*
X027456Y018051D01*
X027307Y018200D01*
X027184Y018251D01*
X027307Y018302D01*
X027456Y018451D01*
X027537Y018646D01*
X027537Y018857D01*
X027456Y019051D01*
X027307Y019200D01*
X027184Y019251D01*
X027307Y019302D01*
X027456Y019451D01*
X027537Y019646D01*
X027537Y019857D01*
X027456Y020051D01*
X027307Y020200D01*
X027112Y020281D01*
X026901Y020281D01*
X026707Y020201D01*
X026707Y021278D01*
X026712Y021331D01*
X026753Y021430D01*
X026828Y021505D01*
X026927Y021546D01*
X026980Y021551D01*
X034007Y021551D01*
X034065Y021545D01*
X034173Y021501D01*
X034173Y021501D01*
X034256Y021418D01*
X034301Y021310D01*
X034307Y021251D01*
X034307Y020213D01*
X034295Y020222D01*
X034218Y020261D01*
X034135Y020288D01*
X034050Y020301D01*
X034027Y020301D01*
X034027Y019771D01*
X033987Y019771D01*
X033987Y020301D01*
X033963Y020301D01*
X033878Y020288D01*
X033795Y020261D01*
X033718Y020222D01*
X033648Y020171D01*
X033587Y020109D01*
X033536Y020039D01*
X033497Y019962D01*
X033470Y019880D01*
X033457Y019794D01*
X033457Y019771D01*
X033987Y019771D01*
X033987Y019731D01*
X033457Y019731D01*
X033457Y019708D01*
X033470Y019622D01*
X033497Y019540D01*
X033536Y019463D01*
X033587Y019393D01*
X033648Y019332D01*
X033718Y019281D01*
X033795Y019241D01*
X033801Y019240D01*
X033706Y019200D01*
X033557Y019051D01*
X033477Y018857D01*
X033477Y018646D01*
X033557Y018451D01*
X033706Y018302D01*
X033829Y018251D01*
X033706Y018200D01*
X033557Y018051D01*
X033477Y017857D01*
X033477Y017646D01*
X033557Y017451D01*
X033706Y017302D01*
X033756Y017281D01*
X033570Y017281D01*
X033477Y017187D01*
X033690Y017318D02*
X031323Y017318D01*
X031466Y017477D02*
X033547Y017477D01*
X033481Y017635D02*
X031532Y017635D01*
X031537Y017794D02*
X033477Y017794D01*
X033516Y017952D02*
X031497Y017952D01*
X031397Y018111D02*
X033616Y018111D01*
X033786Y018269D02*
X031228Y018269D01*
X031432Y018428D02*
X033581Y018428D01*
X033501Y018586D02*
X031512Y018586D01*
X031537Y018745D02*
X033477Y018745D01*
X033496Y018903D02*
X031517Y018903D01*
X031446Y019062D02*
X033567Y019062D01*
X033754Y019220D02*
X031260Y019220D01*
X031412Y019379D02*
X033601Y019379D01*
X033498Y019537D02*
X031515Y019537D01*
X031555Y019696D02*
X033459Y019696D01*
X033466Y019854D02*
X031547Y019854D01*
X031491Y020013D02*
X033522Y020013D01*
X033649Y020171D02*
X031364Y020171D01*
X031027Y020171D02*
X030987Y020171D01*
X030987Y020013D02*
X031027Y020013D01*
X031027Y019854D02*
X030987Y019854D01*
X030649Y020171D02*
X030336Y020171D01*
X030472Y020013D02*
X030522Y020013D01*
X029677Y020171D02*
X027336Y020171D01*
X027472Y020013D02*
X029541Y020013D01*
X029477Y019854D02*
X027537Y019854D01*
X027537Y019696D02*
X029477Y019696D01*
X029522Y019537D02*
X027492Y019537D01*
X027383Y019379D02*
X029630Y019379D01*
X029754Y019220D02*
X027260Y019220D01*
X027446Y019062D02*
X029567Y019062D01*
X029496Y018903D02*
X027517Y018903D01*
X027537Y018745D02*
X029477Y018745D01*
X029501Y018586D02*
X027512Y018586D01*
X027432Y018428D02*
X029581Y018428D01*
X029786Y018269D02*
X027228Y018269D01*
X027397Y018111D02*
X029616Y018111D01*
X029516Y017952D02*
X027497Y017952D01*
X027537Y017794D02*
X029477Y017794D01*
X029481Y017635D02*
X027532Y017635D01*
X027466Y017477D02*
X029547Y017477D01*
X029690Y017318D02*
X027323Y017318D01*
X027348Y017160D02*
X029665Y017160D01*
X029536Y017001D02*
X027477Y017001D01*
X027537Y016843D02*
X029477Y016843D01*
X029477Y016684D02*
X027537Y016684D01*
X027487Y016526D02*
X029526Y016526D01*
X029641Y016367D02*
X027372Y016367D01*
X026707Y016209D02*
X034307Y016209D01*
X034307Y016050D02*
X026707Y016050D01*
X026707Y015892D02*
X034307Y015892D01*
X034307Y015733D02*
X026707Y015733D01*
X026707Y015575D02*
X034307Y015575D01*
X034307Y015416D02*
X026707Y015416D01*
X026707Y015258D02*
X034307Y015258D01*
X034262Y015099D02*
X026751Y015099D01*
X026025Y015193D02*
X025980Y015085D01*
X025898Y015002D01*
X025790Y014957D01*
X025731Y014951D01*
X018731Y014951D01*
X018672Y014957D01*
X018564Y015002D01*
X018482Y015085D01*
X018437Y015193D01*
X018431Y015251D01*
X018431Y016302D01*
X018626Y016221D01*
X018836Y016221D01*
X019031Y016302D01*
X019180Y016451D01*
X019261Y016646D01*
X019261Y016857D01*
X019180Y017051D01*
X019031Y017200D01*
X018909Y017251D01*
X019031Y017302D01*
X019180Y017451D01*
X019261Y017646D01*
X019261Y017857D01*
X019180Y018051D01*
X019031Y018200D01*
X018909Y018251D01*
X019031Y018302D01*
X019180Y018451D01*
X019261Y018646D01*
X019261Y018857D01*
X019180Y019051D01*
X019031Y019200D01*
X018909Y019251D01*
X019031Y019302D01*
X019180Y019451D01*
X019261Y019646D01*
X019261Y019857D01*
X019180Y020051D01*
X019031Y020200D01*
X018836Y020281D01*
X018626Y020281D01*
X018431Y020201D01*
X018431Y021278D01*
X018436Y021331D01*
X018477Y021430D01*
X018553Y021505D01*
X018651Y021546D01*
X018705Y021551D01*
X025731Y021551D01*
X025790Y021545D01*
X025898Y021501D01*
X025980Y021418D01*
X026025Y021310D01*
X026031Y021251D01*
X026031Y020213D01*
X026019Y020222D01*
X025942Y020261D01*
X025860Y020288D01*
X025774Y020301D01*
X025751Y020301D01*
X025751Y019771D01*
X025711Y019771D01*
X025711Y019731D01*
X025181Y019731D01*
X025181Y019708D01*
X025195Y019622D01*
X025221Y019540D01*
X025261Y019463D01*
X025311Y019393D01*
X025373Y019332D01*
X025443Y019281D01*
X025520Y019241D01*
X025525Y019240D01*
X025431Y019200D01*
X025282Y019051D01*
X025201Y018857D01*
X025201Y018646D01*
X025282Y018451D01*
X025431Y018302D01*
X025553Y018251D01*
X025431Y018200D01*
X025282Y018051D01*
X025201Y017857D01*
X025201Y017646D01*
X025282Y017451D01*
X025431Y017302D01*
X025481Y017281D01*
X025295Y017281D01*
X025201Y017187D01*
X025201Y016315D01*
X025295Y016221D01*
X026031Y016221D01*
X026031Y015251D01*
X026025Y015193D01*
X026031Y015258D02*
X018431Y015258D01*
X018431Y015416D02*
X026031Y015416D01*
X026031Y015575D02*
X018431Y015575D01*
X018431Y015733D02*
X026031Y015733D01*
X026031Y015892D02*
X018431Y015892D01*
X018431Y016050D02*
X026031Y016050D01*
X026031Y016209D02*
X018431Y016209D01*
X017755Y016209D02*
X010155Y016209D01*
X010155Y016302D02*
X010350Y016221D01*
X010561Y016221D01*
X010756Y016302D01*
X010905Y016451D01*
X010985Y016646D01*
X010985Y016857D01*
X010905Y017051D01*
X010756Y017200D01*
X010633Y017251D01*
X010756Y017302D01*
X010905Y017451D01*
X010985Y017646D01*
X010985Y017857D01*
X010905Y018051D01*
X010756Y018200D01*
X010633Y018251D01*
X010756Y018302D01*
X010905Y018451D01*
X010985Y018646D01*
X010985Y018857D01*
X010905Y019051D01*
X010756Y019200D01*
X010633Y019251D01*
X010756Y019302D01*
X010905Y019451D01*
X010985Y019646D01*
X010985Y019857D01*
X010905Y020051D01*
X010756Y020200D01*
X010561Y020281D01*
X010350Y020281D01*
X010155Y020201D01*
X010155Y021278D01*
X010161Y021331D01*
X010202Y021430D01*
X010277Y021505D01*
X010376Y021546D01*
X010429Y021551D01*
X017455Y021551D01*
X017514Y021545D01*
X017622Y021501D01*
X017705Y021418D01*
X017750Y021310D01*
X017755Y021251D01*
X017755Y020213D01*
X017744Y020222D01*
X017667Y020261D01*
X017584Y020288D01*
X017499Y020301D01*
X017475Y020301D01*
X017475Y019771D01*
X017435Y019771D01*
X017435Y019731D01*
X016905Y019731D01*
X016905Y019708D01*
X016919Y019622D01*
X016946Y019540D01*
X016985Y019463D01*
X017036Y019393D01*
X017097Y019332D01*
X017167Y019281D01*
X017244Y019241D01*
X017250Y019240D01*
X017155Y019200D01*
X017006Y019051D01*
X016925Y018857D01*
X016925Y018646D01*
X017006Y018451D01*
X017155Y018302D01*
X017278Y018251D01*
X017155Y018200D01*
X017006Y018051D01*
X016925Y017857D01*
X016925Y017646D01*
X017006Y017451D01*
X017155Y017302D01*
X017205Y017281D01*
X017019Y017281D01*
X016925Y017187D01*
X016925Y016315D01*
X017019Y016221D01*
X017755Y016221D01*
X017755Y015251D01*
X017750Y015193D01*
X017705Y015085D01*
X017622Y015002D01*
X017514Y014957D01*
X017455Y014951D01*
X010455Y014951D01*
X010397Y014957D01*
X010289Y015002D01*
X010206Y015085D01*
X010161Y015193D01*
X010155Y015251D01*
X010155Y016302D01*
X010155Y016050D02*
X017755Y016050D01*
X017755Y015892D02*
X010155Y015892D01*
X010155Y015733D02*
X017755Y015733D01*
X017755Y015575D02*
X010155Y015575D01*
X010155Y015416D02*
X017755Y015416D01*
X017755Y015258D02*
X010155Y015258D01*
X010200Y015099D02*
X017711Y015099D01*
X017514Y014270D02*
X017622Y014225D01*
X017705Y014142D01*
X017750Y014034D01*
X017755Y013976D01*
X017755Y012937D01*
X017744Y012946D01*
X017667Y012985D01*
X017584Y013012D01*
X017499Y013026D01*
X017475Y013026D01*
X017475Y012496D01*
X017435Y012496D01*
X017435Y013026D01*
X017412Y013026D01*
X017327Y013012D01*
X017244Y012985D01*
X017167Y012946D01*
X017097Y012895D01*
X017036Y012834D01*
X016985Y012764D01*
X016946Y012687D01*
X016919Y012604D01*
X016905Y012519D01*
X016905Y012496D01*
X017435Y012496D01*
X017435Y012456D01*
X016905Y012456D01*
X016905Y012432D01*
X016919Y012347D01*
X016946Y012264D01*
X016985Y012187D01*
X017036Y012117D01*
X017097Y012056D01*
X017167Y012005D01*
X017244Y011966D01*
X017250Y011964D01*
X017155Y011925D01*
X017006Y011776D01*
X016925Y011581D01*
X016925Y011370D01*
X017006Y011175D01*
X017155Y011026D01*
X017278Y010976D01*
X017155Y010925D01*
X017006Y010776D01*
X016925Y010581D01*
X016925Y010370D01*
X017006Y010175D01*
X017155Y010026D01*
X017205Y010006D01*
X017019Y010006D01*
X016925Y009912D01*
X016925Y009039D01*
X017019Y008946D01*
X017755Y008946D01*
X017755Y007976D01*
X017750Y007917D01*
X017705Y007809D01*
X017705Y007809D01*
X017622Y007726D01*
X017514Y007681D01*
X017455Y007676D01*
X010455Y007676D01*
X010397Y007681D01*
X010289Y007726D01*
X010206Y007809D01*
X010161Y007917D01*
X010155Y007976D01*
X010155Y009026D01*
X010350Y008946D01*
X010561Y008946D01*
X010756Y009026D01*
X010905Y009175D01*
X010985Y009370D01*
X010985Y009581D01*
X010905Y009776D01*
X010756Y009925D01*
X010633Y009976D01*
X010756Y010026D01*
X010905Y010175D01*
X010985Y010370D01*
X010985Y010581D01*
X010905Y010776D01*
X010756Y010925D01*
X010633Y010976D01*
X010756Y011026D01*
X010905Y011175D01*
X010985Y011370D01*
X010985Y011581D01*
X010905Y011776D01*
X010756Y011925D01*
X010633Y011976D01*
X010756Y012026D01*
X010905Y012175D01*
X010985Y012370D01*
X010985Y012581D01*
X010905Y012776D01*
X010756Y012925D01*
X010561Y013006D01*
X010350Y013006D01*
X010155Y012925D01*
X010155Y014002D01*
X010161Y014055D01*
X010202Y014154D01*
X010277Y014229D01*
X010376Y014270D01*
X010429Y014276D01*
X017455Y014276D01*
X017514Y014270D01*
X017699Y014148D02*
X010199Y014148D01*
X010155Y013990D02*
X017754Y013990D01*
X017755Y013831D02*
X010155Y013831D01*
X010155Y013673D02*
X017755Y013673D01*
X017755Y013514D02*
X010155Y013514D01*
X010155Y013356D02*
X017755Y013356D01*
X017755Y013197D02*
X010155Y013197D01*
X010155Y013039D02*
X017755Y013039D01*
X017475Y012880D02*
X017435Y012880D01*
X017435Y012722D02*
X017475Y012722D01*
X017475Y012563D02*
X017435Y012563D01*
X017082Y012880D02*
X014829Y012880D01*
X014814Y012895D02*
X014744Y012946D01*
X014667Y012985D01*
X014584Y013012D01*
X014499Y013026D01*
X014475Y013026D01*
X014475Y012496D01*
X014435Y012496D01*
X014435Y013026D01*
X014412Y013026D01*
X014327Y013012D01*
X014244Y012985D01*
X014167Y012946D01*
X014097Y012895D01*
X014036Y012834D01*
X013985Y012764D01*
X013946Y012687D01*
X013944Y012681D01*
X013905Y012776D01*
X013756Y012925D01*
X013561Y013006D01*
X013350Y013006D01*
X013155Y012925D01*
X013006Y012776D01*
X012925Y012581D01*
X012925Y012370D01*
X013006Y012175D01*
X013155Y012026D01*
X013278Y011976D01*
X013155Y011925D01*
X013006Y011776D01*
X012925Y011581D01*
X012925Y011370D01*
X013006Y011175D01*
X013155Y011026D01*
X013278Y010976D01*
X013155Y010925D01*
X013006Y010776D01*
X012925Y010581D01*
X012925Y010370D01*
X013006Y010175D01*
X013155Y010026D01*
X013278Y009976D01*
X013155Y009925D01*
X013006Y009776D01*
X012925Y009581D01*
X012925Y009370D01*
X013006Y009175D01*
X013155Y009026D01*
X013350Y008946D01*
X013561Y008946D01*
X013756Y009026D01*
X013905Y009175D01*
X013925Y009225D01*
X013925Y009039D01*
X014019Y008946D01*
X014892Y008946D01*
X014985Y009039D01*
X014985Y009912D01*
X014892Y010006D01*
X014706Y010006D01*
X014756Y010026D01*
X014905Y010175D01*
X014985Y010370D01*
X014985Y010581D01*
X014905Y010776D01*
X014756Y010925D01*
X014633Y010976D01*
X014756Y011026D01*
X014905Y011175D01*
X014985Y011370D01*
X014985Y011581D01*
X014905Y011776D01*
X014756Y011925D01*
X014661Y011964D01*
X014667Y011966D01*
X014744Y012005D01*
X014814Y012056D01*
X014875Y012117D01*
X014926Y012187D01*
X014965Y012264D01*
X014992Y012347D01*
X015005Y012432D01*
X015005Y012456D01*
X014475Y012456D01*
X014475Y012496D01*
X015005Y012496D01*
X015005Y012519D01*
X014992Y012604D01*
X014965Y012687D01*
X014926Y012764D01*
X014875Y012834D01*
X014814Y012895D01*
X014947Y012722D02*
X016963Y012722D01*
X016912Y012563D02*
X014998Y012563D01*
X015001Y012405D02*
X016910Y012405D01*
X016955Y012246D02*
X014956Y012246D01*
X014845Y012088D02*
X017066Y012088D01*
X017165Y011929D02*
X014746Y011929D01*
X014907Y011771D02*
X017004Y011771D01*
X016938Y011612D02*
X014973Y011612D01*
X014985Y011454D02*
X016925Y011454D01*
X016957Y011295D02*
X014954Y011295D01*
X014866Y011137D02*
X017045Y011137D01*
X017272Y010978D02*
X014639Y010978D01*
X014861Y010820D02*
X017050Y010820D01*
X016959Y010661D02*
X014952Y010661D01*
X014985Y010503D02*
X016925Y010503D01*
X016936Y010344D02*
X014975Y010344D01*
X014909Y010186D02*
X017002Y010186D01*
X017154Y010027D02*
X014756Y010027D01*
X014985Y009869D02*
X016925Y009869D01*
X016925Y009710D02*
X014985Y009710D01*
X014985Y009552D02*
X016925Y009552D01*
X016925Y009393D02*
X014985Y009393D01*
X014985Y009235D02*
X016925Y009235D01*
X016925Y009076D02*
X014985Y009076D01*
X013925Y009076D02*
X013805Y009076D01*
X013105Y009076D02*
X010805Y009076D01*
X010929Y009235D02*
X012982Y009235D01*
X012925Y009393D02*
X010985Y009393D01*
X010985Y009552D02*
X012925Y009552D01*
X012979Y009710D02*
X010932Y009710D01*
X010812Y009869D02*
X013099Y009869D01*
X013154Y010027D02*
X010756Y010027D01*
X010909Y010186D02*
X013002Y010186D01*
X012936Y010344D02*
X010975Y010344D01*
X010985Y010503D02*
X012925Y010503D01*
X012959Y010661D02*
X010952Y010661D01*
X010861Y010820D02*
X013050Y010820D01*
X013272Y010978D02*
X010639Y010978D01*
X010866Y011137D02*
X013045Y011137D01*
X012957Y011295D02*
X010954Y011295D01*
X010985Y011454D02*
X012925Y011454D01*
X012938Y011612D02*
X010973Y011612D01*
X010907Y011771D02*
X013004Y011771D01*
X013165Y011929D02*
X010746Y011929D01*
X010817Y012088D02*
X013094Y012088D01*
X012977Y012246D02*
X010934Y012246D01*
X010985Y012405D02*
X012925Y012405D01*
X012925Y012563D02*
X010985Y012563D01*
X010927Y012722D02*
X012984Y012722D01*
X013110Y012880D02*
X010800Y012880D01*
X009480Y012937D02*
X009480Y013976D01*
X009474Y014034D01*
X009429Y014142D01*
X009346Y014225D01*
X009238Y014270D01*
X009180Y014276D01*
X002153Y014276D01*
X002100Y014270D01*
X002001Y014229D01*
X001926Y014154D01*
X001885Y014055D01*
X001880Y014002D01*
X001880Y012925D01*
X002074Y013006D01*
X002285Y013006D01*
X002480Y012925D01*
X002629Y012776D01*
X002710Y012581D01*
X002710Y012370D01*
X002629Y012175D01*
X002480Y012026D01*
X002358Y011976D01*
X002480Y011925D01*
X002629Y011776D01*
X002710Y011581D01*
X002710Y011370D01*
X002629Y011175D01*
X002480Y011026D01*
X002358Y010976D01*
X002480Y010925D01*
X002629Y010776D01*
X002710Y010581D01*
X002710Y010370D01*
X002629Y010175D01*
X002480Y010026D01*
X002358Y009976D01*
X002480Y009925D01*
X002629Y009776D01*
X002710Y009581D01*
X002710Y009370D01*
X002629Y009175D01*
X002480Y009026D01*
X002285Y008946D01*
X002074Y008946D01*
X001880Y009026D01*
X001880Y007976D01*
X001886Y007917D01*
X001930Y007809D01*
X002013Y007726D01*
X002121Y007681D01*
X002180Y007676D01*
X009180Y007676D01*
X009238Y007681D01*
X009346Y007726D01*
X009429Y007809D01*
X009474Y007917D01*
X009480Y007976D01*
X009480Y008946D01*
X008744Y008946D01*
X008650Y009039D01*
X008650Y009912D01*
X008744Y010006D01*
X008930Y010006D01*
X008880Y010026D01*
X008730Y010175D01*
X008650Y010370D01*
X008650Y010581D01*
X008730Y010776D01*
X008880Y010925D01*
X009002Y010976D01*
X008880Y011026D01*
X008730Y011175D01*
X008650Y011370D01*
X008650Y011581D01*
X008730Y011776D01*
X008880Y011925D01*
X008974Y011964D01*
X008969Y011966D01*
X008892Y012005D01*
X008822Y012056D01*
X008760Y012117D01*
X008709Y012187D01*
X008670Y012264D01*
X008643Y012347D01*
X008630Y012432D01*
X008630Y012456D01*
X009160Y012456D01*
X009160Y012496D01*
X009160Y013026D01*
X009137Y013026D01*
X009051Y013012D01*
X008969Y012985D01*
X008892Y012946D01*
X008822Y012895D01*
X008760Y012834D01*
X008709Y012764D01*
X008670Y012687D01*
X008643Y012604D01*
X008630Y012519D01*
X008630Y012496D01*
X009160Y012496D01*
X009200Y012496D01*
X009200Y013026D01*
X009223Y013026D01*
X009309Y013012D01*
X009391Y012985D01*
X009468Y012946D01*
X009480Y012937D01*
X009480Y013039D02*
X001880Y013039D01*
X001880Y013197D02*
X009480Y013197D01*
X009480Y013356D02*
X001880Y013356D01*
X001880Y013514D02*
X009480Y013514D01*
X009480Y013673D02*
X001880Y013673D01*
X001880Y013831D02*
X009480Y013831D01*
X009478Y013990D02*
X001880Y013990D01*
X001923Y014148D02*
X009423Y014148D01*
X009238Y014957D02*
X009180Y014951D01*
X002180Y014951D01*
X002121Y014957D01*
X002013Y015002D01*
X001930Y015085D01*
X001886Y015193D01*
X001880Y015251D01*
X001880Y016302D01*
X002074Y016221D01*
X002285Y016221D01*
X002480Y016302D01*
X002629Y016451D01*
X002710Y016646D01*
X002710Y016857D01*
X002629Y017051D01*
X002480Y017200D01*
X002358Y017251D01*
X002480Y017302D01*
X002629Y017451D01*
X002710Y017646D01*
X002710Y017857D01*
X002629Y018051D01*
X002480Y018200D01*
X002358Y018251D01*
X002480Y018302D01*
X002629Y018451D01*
X002710Y018646D01*
X002710Y018857D01*
X002629Y019051D01*
X002480Y019200D01*
X002358Y019251D01*
X002480Y019302D01*
X002629Y019451D01*
X002710Y019646D01*
X002710Y019857D01*
X002629Y020051D01*
X002480Y020200D01*
X002285Y020281D01*
X002074Y020281D01*
X001880Y020201D01*
X001880Y021278D01*
X001885Y021331D01*
X001926Y021430D01*
X002001Y021505D01*
X002100Y021546D01*
X002153Y021551D01*
X009180Y021551D01*
X009238Y021545D01*
X009346Y021501D01*
X009429Y021418D01*
X009474Y021310D01*
X009480Y021251D01*
X009480Y020213D01*
X009468Y020222D01*
X009391Y020261D01*
X009309Y020288D01*
X009223Y020301D01*
X009200Y020301D01*
X009200Y019771D01*
X009160Y019771D01*
X009160Y020301D01*
X009137Y020301D01*
X009051Y020288D01*
X008969Y020261D01*
X008892Y020222D01*
X008822Y020171D01*
X006538Y020171D01*
X006468Y020222D01*
X006391Y020261D01*
X006309Y020288D01*
X006223Y020301D01*
X006200Y020301D01*
X006200Y019771D01*
X006730Y019771D01*
X006730Y019794D01*
X006716Y019880D01*
X006690Y019962D01*
X006650Y020039D01*
X006599Y020109D01*
X006538Y020171D01*
X006664Y020013D02*
X008696Y020013D01*
X008709Y020039D02*
X008670Y019962D01*
X008643Y019880D01*
X008630Y019794D01*
X008630Y019771D01*
X009160Y019771D01*
X009160Y019731D01*
X008630Y019731D01*
X008630Y019708D01*
X008643Y019622D01*
X008670Y019540D01*
X008709Y019463D01*
X008760Y019393D01*
X008822Y019332D01*
X008892Y019281D01*
X008969Y019241D01*
X008974Y019240D01*
X008880Y019200D01*
X008730Y019051D01*
X008650Y018857D01*
X008650Y018646D01*
X008730Y018451D01*
X008880Y018302D01*
X009002Y018251D01*
X008880Y018200D01*
X008730Y018051D01*
X008650Y017857D01*
X008650Y017646D01*
X008730Y017451D01*
X008880Y017302D01*
X008930Y017281D01*
X008744Y017281D01*
X008650Y017187D01*
X008650Y016315D01*
X008744Y016221D01*
X009480Y016221D01*
X009480Y015251D01*
X009474Y015193D01*
X009429Y015085D01*
X009346Y015002D01*
X009238Y014957D01*
X009435Y015099D02*
X001924Y015099D01*
X001880Y015258D02*
X009480Y015258D01*
X009480Y015416D02*
X001880Y015416D01*
X001880Y015575D02*
X009480Y015575D01*
X009480Y015733D02*
X001880Y015733D01*
X001880Y015892D02*
X009480Y015892D01*
X009480Y016050D02*
X001880Y016050D01*
X001880Y016209D02*
X009480Y016209D01*
X008650Y016367D02*
X006710Y016367D01*
X006710Y016315D02*
X006710Y017187D01*
X006616Y017281D01*
X006430Y017281D01*
X006480Y017302D01*
X006629Y017451D01*
X006710Y017646D01*
X006710Y017857D01*
X006629Y018051D01*
X006480Y018200D01*
X006358Y018251D01*
X006480Y018302D01*
X006629Y018451D01*
X006710Y018646D01*
X006710Y018857D01*
X006629Y019051D01*
X006480Y019200D01*
X006385Y019240D01*
X006391Y019241D01*
X006468Y019281D01*
X006538Y019332D01*
X006599Y019393D01*
X006650Y019463D01*
X006690Y019540D01*
X006716Y019622D01*
X006730Y019708D01*
X006730Y019731D01*
X006200Y019731D01*
X006200Y019771D01*
X006160Y019771D01*
X006160Y020301D01*
X006137Y020301D01*
X006051Y020288D01*
X005969Y020261D01*
X005892Y020222D01*
X005822Y020171D01*
X005509Y020171D01*
X005480Y020200D02*
X005285Y020281D01*
X005074Y020281D01*
X004880Y020200D01*
X004730Y020051D01*
X004650Y019857D01*
X004650Y019646D01*
X004730Y019451D01*
X004880Y019302D01*
X005002Y019251D01*
X004880Y019200D01*
X004730Y019051D01*
X004650Y018857D01*
X004650Y018646D01*
X004730Y018451D01*
X004880Y018302D01*
X005002Y018251D01*
X004880Y018200D01*
X004730Y018051D01*
X004650Y017857D01*
X004650Y017646D01*
X004730Y017451D01*
X004880Y017302D01*
X005002Y017251D01*
X004880Y017200D01*
X004730Y017051D01*
X004650Y016857D01*
X004650Y016646D01*
X004730Y016451D01*
X004880Y016302D01*
X005074Y016221D01*
X005285Y016221D01*
X005480Y016302D01*
X005629Y016451D01*
X005650Y016501D01*
X005650Y016315D01*
X005744Y016221D01*
X006616Y016221D01*
X006710Y016315D01*
X006710Y016526D02*
X008650Y016526D01*
X008650Y016684D02*
X006710Y016684D01*
X006710Y016843D02*
X008650Y016843D01*
X008650Y017001D02*
X006710Y017001D01*
X006710Y017160D02*
X008650Y017160D01*
X008863Y017318D02*
X006496Y017318D01*
X006640Y017477D02*
X008720Y017477D01*
X008654Y017635D02*
X006705Y017635D01*
X006710Y017794D02*
X008650Y017794D01*
X008689Y017952D02*
X006670Y017952D01*
X006570Y018111D02*
X008790Y018111D01*
X008959Y018269D02*
X006401Y018269D01*
X006606Y018428D02*
X008754Y018428D01*
X008675Y018586D02*
X006685Y018586D01*
X006710Y018745D02*
X008650Y018745D01*
X008669Y018903D02*
X006691Y018903D01*
X006619Y019062D02*
X008741Y019062D01*
X008927Y019220D02*
X006433Y019220D01*
X006585Y019379D02*
X008775Y019379D01*
X008672Y019537D02*
X006688Y019537D01*
X006728Y019696D02*
X008632Y019696D01*
X008639Y019854D02*
X006720Y019854D01*
X006200Y019854D02*
X006160Y019854D01*
X006160Y020013D02*
X006200Y020013D01*
X006200Y020171D02*
X006160Y020171D01*
X005822Y020171D02*
X005760Y020109D01*
X005709Y020039D01*
X005670Y019962D01*
X005668Y019957D01*
X005629Y020051D01*
X005480Y020200D01*
X005645Y020013D02*
X005696Y020013D01*
X004850Y020171D02*
X002509Y020171D01*
X002645Y020013D02*
X004714Y020013D01*
X004650Y019854D02*
X002710Y019854D01*
X002710Y019696D02*
X004650Y019696D01*
X004695Y019537D02*
X002665Y019537D01*
X002557Y019379D02*
X004803Y019379D01*
X004927Y019220D02*
X002433Y019220D01*
X002619Y019062D02*
X004741Y019062D01*
X004669Y018903D02*
X002691Y018903D01*
X002710Y018745D02*
X004650Y018745D01*
X004675Y018586D02*
X002685Y018586D01*
X002606Y018428D02*
X004754Y018428D01*
X004959Y018269D02*
X002401Y018269D01*
X002570Y018111D02*
X004790Y018111D01*
X004689Y017952D02*
X002670Y017952D01*
X002710Y017794D02*
X004650Y017794D01*
X004654Y017635D02*
X002705Y017635D01*
X002640Y017477D02*
X004720Y017477D01*
X004863Y017318D02*
X002496Y017318D01*
X002521Y017160D02*
X004839Y017160D01*
X004710Y017001D02*
X002650Y017001D01*
X002710Y016843D02*
X004650Y016843D01*
X004650Y016684D02*
X002710Y016684D01*
X002660Y016526D02*
X004700Y016526D01*
X004814Y016367D02*
X002545Y016367D01*
X005545Y016367D02*
X005650Y016367D01*
X006137Y013026D02*
X006051Y013012D01*
X005969Y012985D01*
X005892Y012946D01*
X005822Y012895D01*
X005760Y012834D01*
X005709Y012764D01*
X005670Y012687D01*
X005668Y012681D01*
X005629Y012776D01*
X005480Y012925D01*
X005285Y013006D01*
X005074Y013006D01*
X004880Y012925D01*
X004730Y012776D01*
X004650Y012581D01*
X004650Y012370D01*
X004730Y012175D01*
X004880Y012026D01*
X005002Y011976D01*
X004880Y011925D01*
X004730Y011776D01*
X004650Y011581D01*
X004650Y011370D01*
X004730Y011175D01*
X004880Y011026D01*
X005002Y010976D01*
X004880Y010925D01*
X004730Y010776D01*
X004650Y010581D01*
X004650Y010370D01*
X004730Y010175D01*
X004880Y010026D01*
X005002Y009976D01*
X004880Y009925D01*
X004730Y009776D01*
X004650Y009581D01*
X004650Y009370D01*
X004730Y009175D01*
X004880Y009026D01*
X005074Y008946D01*
X005285Y008946D01*
X005480Y009026D01*
X005629Y009175D01*
X005650Y009225D01*
X005650Y009039D01*
X005744Y008946D01*
X006616Y008946D01*
X006710Y009039D01*
X006710Y009912D01*
X006616Y010006D01*
X006430Y010006D01*
X006480Y010026D01*
X006629Y010175D01*
X006710Y010370D01*
X006710Y010581D01*
X006629Y010776D01*
X006480Y010925D01*
X006358Y010976D01*
X006480Y011026D01*
X006629Y011175D01*
X006710Y011370D01*
X006710Y011581D01*
X006629Y011776D01*
X006480Y011925D01*
X006385Y011964D01*
X006391Y011966D01*
X006468Y012005D01*
X006538Y012056D01*
X006599Y012117D01*
X006650Y012187D01*
X006690Y012264D01*
X006716Y012347D01*
X006730Y012432D01*
X006730Y012456D01*
X006200Y012456D01*
X006200Y012496D01*
X006160Y012496D01*
X006160Y013026D01*
X006137Y013026D01*
X006200Y013026D02*
X006200Y012496D01*
X006730Y012496D01*
X006730Y012519D01*
X006716Y012604D01*
X006690Y012687D01*
X006650Y012764D01*
X006599Y012834D01*
X006538Y012895D01*
X006468Y012946D01*
X006391Y012985D01*
X006309Y013012D01*
X006223Y013026D01*
X006200Y013026D01*
X006200Y012880D02*
X006160Y012880D01*
X006160Y012722D02*
X006200Y012722D01*
X006200Y012563D02*
X006160Y012563D01*
X005806Y012880D02*
X005525Y012880D01*
X005652Y012722D02*
X005688Y012722D01*
X004835Y012880D02*
X002525Y012880D01*
X002652Y012722D02*
X004708Y012722D01*
X004650Y012563D02*
X002710Y012563D01*
X002710Y012405D02*
X004650Y012405D01*
X004701Y012246D02*
X002658Y012246D01*
X002541Y012088D02*
X004818Y012088D01*
X004890Y011929D02*
X002470Y011929D01*
X002631Y011771D02*
X004728Y011771D01*
X004663Y011612D02*
X002697Y011612D01*
X002710Y011454D02*
X004650Y011454D01*
X004681Y011295D02*
X002679Y011295D01*
X002590Y011137D02*
X004769Y011137D01*
X004996Y010978D02*
X002364Y010978D01*
X002585Y010820D02*
X004774Y010820D01*
X004683Y010661D02*
X002677Y010661D01*
X002710Y010503D02*
X004650Y010503D01*
X004661Y010344D02*
X002699Y010344D01*
X002633Y010186D02*
X004726Y010186D01*
X004879Y010027D02*
X002481Y010027D01*
X002536Y009869D02*
X004823Y009869D01*
X004703Y009710D02*
X002656Y009710D01*
X002710Y009552D02*
X004650Y009552D01*
X004650Y009393D02*
X002710Y009393D01*
X002654Y009235D02*
X004706Y009235D01*
X004830Y009076D02*
X002530Y009076D01*
X001880Y008918D02*
X009480Y008918D01*
X009480Y008759D02*
X001880Y008759D01*
X001880Y008601D02*
X009480Y008601D01*
X009480Y008442D02*
X001880Y008442D01*
X001880Y008284D02*
X009480Y008284D01*
X009480Y008125D02*
X001880Y008125D01*
X001881Y007967D02*
X009479Y007967D01*
X009428Y007808D02*
X001931Y007808D01*
X002100Y006995D02*
X002153Y007000D01*
X009180Y007000D01*
X009238Y006994D01*
X009346Y006949D01*
X009429Y006867D01*
X009474Y006759D01*
X009480Y006700D01*
X009480Y005662D01*
X009468Y005670D01*
X009391Y005710D01*
X009309Y005736D01*
X009223Y005750D01*
X009200Y005750D01*
X009200Y005220D01*
X009160Y005220D01*
X009160Y005750D01*
X009137Y005750D01*
X009051Y005736D01*
X008969Y005710D01*
X008892Y005670D01*
X008822Y005620D01*
X008760Y005558D01*
X008709Y005488D01*
X008670Y005411D01*
X008643Y005329D01*
X008630Y005243D01*
X008630Y005220D01*
X009160Y005220D01*
X009160Y005180D01*
X008630Y005180D01*
X008630Y005157D01*
X008643Y005071D01*
X008670Y004989D01*
X008709Y004912D01*
X008760Y004842D01*
X008822Y004780D01*
X008892Y004730D01*
X008969Y004690D01*
X008974Y004689D01*
X008880Y004649D01*
X008730Y004500D01*
X008650Y004305D01*
X008650Y004095D01*
X008730Y003900D01*
X008880Y003751D01*
X009002Y003700D01*
X008880Y003649D01*
X008730Y003500D01*
X008650Y003305D01*
X008650Y003095D01*
X008730Y002900D01*
X008880Y002751D01*
X008930Y002730D01*
X008744Y002730D01*
X008650Y002636D01*
X008650Y001764D01*
X008744Y001670D01*
X009480Y001670D01*
X009480Y000700D01*
X009474Y000641D01*
X009429Y000533D01*
X009346Y000451D01*
X009238Y000406D01*
X009180Y000400D01*
X002180Y000400D01*
X002121Y000406D01*
X002013Y000451D01*
X001930Y000533D01*
X001886Y000641D01*
X001880Y000700D01*
X001880Y001751D01*
X002074Y001670D01*
X002285Y001670D01*
X002480Y001751D01*
X002629Y001900D01*
X002710Y002095D01*
X002710Y002305D01*
X002629Y002500D01*
X002480Y002649D01*
X002358Y002700D01*
X002480Y002751D01*
X002629Y002900D01*
X002710Y003095D01*
X002710Y003305D01*
X002629Y003500D01*
X002480Y003649D01*
X002358Y003700D01*
X002480Y003751D01*
X002629Y003900D01*
X002710Y004095D01*
X002710Y004305D01*
X002629Y004500D01*
X002480Y004649D01*
X002358Y004700D01*
X002480Y004751D01*
X002629Y004900D01*
X002710Y005095D01*
X002710Y005305D01*
X002629Y005500D01*
X002480Y005649D01*
X002285Y005730D01*
X002074Y005730D01*
X001880Y005649D01*
X001880Y006726D01*
X001885Y006780D01*
X001926Y006878D01*
X002001Y006954D01*
X002100Y006995D01*
X001917Y006857D02*
X009433Y006857D01*
X009480Y006699D02*
X001880Y006699D01*
X001880Y006540D02*
X009480Y006540D01*
X009480Y006382D02*
X001880Y006382D01*
X001880Y006223D02*
X009480Y006223D01*
X009480Y006065D02*
X001880Y006065D01*
X001880Y005906D02*
X009480Y005906D01*
X009480Y005748D02*
X009239Y005748D01*
X009200Y005748D02*
X009160Y005748D01*
X009121Y005748D02*
X006239Y005748D01*
X006223Y005750D02*
X006200Y005750D01*
X006200Y005220D01*
X006730Y005220D01*
X006730Y005243D01*
X006716Y005329D01*
X006690Y005411D01*
X006650Y005488D01*
X006599Y005558D01*
X006538Y005620D01*
X006468Y005670D01*
X006391Y005710D01*
X006309Y005736D01*
X006223Y005750D01*
X006200Y005748D02*
X006160Y005748D01*
X006160Y005750D02*
X006137Y005750D01*
X006051Y005736D01*
X005969Y005710D01*
X005892Y005670D01*
X005822Y005620D01*
X005760Y005558D01*
X005709Y005488D01*
X005670Y005411D01*
X005668Y005406D01*
X005629Y005500D01*
X005480Y005649D01*
X005285Y005730D01*
X005074Y005730D01*
X004880Y005649D01*
X004730Y005500D01*
X004650Y005305D01*
X004650Y005095D01*
X004730Y004900D01*
X004880Y004751D01*
X005002Y004700D01*
X004880Y004649D01*
X004730Y004500D01*
X004650Y004305D01*
X004650Y004095D01*
X004730Y003900D01*
X004880Y003751D01*
X005002Y003700D01*
X004880Y003649D01*
X004730Y003500D01*
X004650Y003305D01*
X004650Y003095D01*
X004730Y002900D01*
X004880Y002751D01*
X005002Y002700D01*
X004880Y002649D01*
X004730Y002500D01*
X004650Y002305D01*
X004650Y002095D01*
X004730Y001900D01*
X004880Y001751D01*
X005074Y001670D01*
X005285Y001670D01*
X005480Y001751D01*
X005629Y001900D01*
X005650Y001950D01*
X005650Y001764D01*
X005744Y001670D01*
X006616Y001670D01*
X006710Y001764D01*
X006710Y002636D01*
X006616Y002730D01*
X006430Y002730D01*
X006480Y002751D01*
X006629Y002900D01*
X006710Y003095D01*
X006710Y003305D01*
X006629Y003500D01*
X006480Y003649D01*
X006358Y003700D01*
X006480Y003751D01*
X006629Y003900D01*
X006710Y004095D01*
X006710Y004305D01*
X006629Y004500D01*
X006480Y004649D01*
X006385Y004689D01*
X006391Y004690D01*
X006468Y004730D01*
X006538Y004780D01*
X006599Y004842D01*
X006650Y004912D01*
X006690Y004989D01*
X006716Y005071D01*
X006730Y005157D01*
X006730Y005180D01*
X006200Y005180D01*
X006200Y005220D01*
X006160Y005220D01*
X006160Y005750D01*
X006121Y005748D02*
X001880Y005748D01*
X002540Y005589D02*
X004819Y005589D01*
X004702Y005431D02*
X002658Y005431D01*
X002710Y005272D02*
X004650Y005272D01*
X004650Y005114D02*
X002710Y005114D01*
X002652Y004955D02*
X004708Y004955D01*
X004834Y004797D02*
X002526Y004797D01*
X002491Y004638D02*
X004868Y004638D01*
X004722Y004480D02*
X002638Y004480D01*
X002703Y004321D02*
X004656Y004321D01*
X004650Y004163D02*
X002710Y004163D01*
X002672Y004004D02*
X004687Y004004D01*
X004785Y003846D02*
X002575Y003846D01*
X002389Y003687D02*
X004971Y003687D01*
X004759Y003529D02*
X002601Y003529D01*
X002683Y003370D02*
X004677Y003370D01*
X004650Y003212D02*
X002710Y003212D01*
X002693Y003053D02*
X004667Y003053D01*
X004736Y002895D02*
X002624Y002895D01*
X002445Y002736D02*
X004915Y002736D01*
X004808Y002578D02*
X002552Y002578D01*
X002663Y002419D02*
X004697Y002419D01*
X004650Y002261D02*
X002710Y002261D01*
X002710Y002102D02*
X004650Y002102D01*
X004712Y001944D02*
X002647Y001944D01*
X002514Y001785D02*
X004845Y001785D01*
X005514Y001785D02*
X005650Y001785D01*
X005647Y001944D02*
X005650Y001944D01*
X006445Y002736D02*
X008915Y002736D01*
X008736Y002895D02*
X006624Y002895D01*
X006693Y003053D02*
X008667Y003053D01*
X008650Y003212D02*
X006710Y003212D01*
X006683Y003370D02*
X008677Y003370D01*
X008759Y003529D02*
X006601Y003529D01*
X006389Y003687D02*
X008971Y003687D01*
X008785Y003846D02*
X006575Y003846D01*
X006672Y004004D02*
X008687Y004004D01*
X008650Y004163D02*
X006710Y004163D01*
X006703Y004321D02*
X008656Y004321D01*
X008722Y004480D02*
X006638Y004480D01*
X006491Y004638D02*
X008868Y004638D01*
X008805Y004797D02*
X006554Y004797D01*
X006672Y004955D02*
X008687Y004955D01*
X008637Y005114D02*
X006723Y005114D01*
X006725Y005272D02*
X008634Y005272D01*
X008680Y005431D02*
X006680Y005431D01*
X006569Y005589D02*
X008791Y005589D01*
X009160Y005589D02*
X009200Y005589D01*
X009200Y005431D02*
X009160Y005431D01*
X009160Y005272D02*
X009200Y005272D01*
X010155Y005649D02*
X010155Y006726D01*
X010161Y006780D01*
X010202Y006878D01*
X010277Y006954D01*
X010376Y006995D01*
X010429Y007000D01*
X017455Y007000D01*
X017514Y006994D01*
X017622Y006949D01*
X017705Y006867D01*
X017750Y006759D01*
X017755Y006700D01*
X017755Y005662D01*
X017744Y005670D01*
X017667Y005710D01*
X017584Y005736D01*
X017499Y005750D01*
X017475Y005750D01*
X017475Y005220D01*
X017435Y005220D01*
X017435Y005180D01*
X016905Y005180D01*
X016905Y005157D01*
X016919Y005071D01*
X016946Y004989D01*
X016985Y004912D01*
X017036Y004842D01*
X017097Y004780D01*
X017167Y004730D01*
X017244Y004690D01*
X017250Y004689D01*
X017155Y004649D01*
X017006Y004500D01*
X016925Y004305D01*
X016925Y004095D01*
X017006Y003900D01*
X017155Y003751D01*
X017278Y003700D01*
X017155Y003649D01*
X017006Y003500D01*
X016925Y003305D01*
X016925Y003095D01*
X017006Y002900D01*
X017155Y002751D01*
X017205Y002730D01*
X017019Y002730D01*
X016925Y002636D01*
X016925Y001764D01*
X017019Y001670D01*
X017755Y001670D01*
X017755Y000700D01*
X017750Y000641D01*
X017705Y000533D01*
X017622Y000451D01*
X017514Y000406D01*
X017455Y000400D01*
X010455Y000400D01*
X010397Y000406D01*
X010289Y000451D01*
X010206Y000533D01*
X010161Y000641D01*
X010155Y000700D01*
X010155Y001751D01*
X010350Y001670D01*
X010561Y001670D01*
X010756Y001751D01*
X010905Y001900D01*
X010985Y002095D01*
X010985Y002305D01*
X010905Y002500D01*
X010756Y002649D01*
X010633Y002700D01*
X010756Y002751D01*
X010905Y002900D01*
X010985Y003095D01*
X010985Y003305D01*
X010905Y003500D01*
X010756Y003649D01*
X010633Y003700D01*
X010756Y003751D01*
X010905Y003900D01*
X010985Y004095D01*
X010985Y004305D01*
X010905Y004500D01*
X010756Y004649D01*
X010633Y004700D01*
X010756Y004751D01*
X010905Y004900D01*
X010985Y005095D01*
X010985Y005305D01*
X010905Y005500D01*
X010756Y005649D01*
X010561Y005730D01*
X010350Y005730D01*
X010155Y005649D01*
X010155Y005748D02*
X014396Y005748D01*
X014412Y005750D02*
X014327Y005736D01*
X014244Y005710D01*
X014167Y005670D01*
X014097Y005620D01*
X014036Y005558D01*
X013985Y005488D01*
X013946Y005411D01*
X013944Y005406D01*
X013905Y005500D01*
X013756Y005649D01*
X013561Y005730D01*
X013350Y005730D01*
X013155Y005649D01*
X013006Y005500D01*
X012925Y005305D01*
X012925Y005095D01*
X013006Y004900D01*
X013155Y004751D01*
X013278Y004700D01*
X013155Y004649D01*
X013006Y004500D01*
X012925Y004305D01*
X012925Y004095D01*
X013006Y003900D01*
X013155Y003751D01*
X013278Y003700D01*
X013155Y003649D01*
X013006Y003500D01*
X012925Y003305D01*
X012925Y003095D01*
X013006Y002900D01*
X013155Y002751D01*
X013278Y002700D01*
X013155Y002649D01*
X013006Y002500D01*
X012925Y002305D01*
X012925Y002095D01*
X013006Y001900D01*
X013155Y001751D01*
X013350Y001670D01*
X013561Y001670D01*
X013756Y001751D01*
X013905Y001900D01*
X013925Y001950D01*
X013925Y001764D01*
X014019Y001670D01*
X014892Y001670D01*
X014985Y001764D01*
X014985Y002636D01*
X014892Y002730D01*
X014706Y002730D01*
X014756Y002751D01*
X014905Y002900D01*
X014985Y003095D01*
X014985Y003305D01*
X014905Y003500D01*
X014756Y003649D01*
X014633Y003700D01*
X014756Y003751D01*
X014905Y003900D01*
X014985Y004095D01*
X014985Y004305D01*
X014905Y004500D01*
X014756Y004649D01*
X014661Y004689D01*
X014667Y004690D01*
X014744Y004730D01*
X014814Y004780D01*
X014875Y004842D01*
X014926Y004912D01*
X014965Y004989D01*
X014992Y005071D01*
X015005Y005157D01*
X015005Y005180D01*
X014475Y005180D01*
X014475Y005220D01*
X014435Y005220D01*
X014435Y005750D01*
X014412Y005750D01*
X014435Y005748D02*
X014475Y005748D01*
X014475Y005750D02*
X014475Y005220D01*
X015005Y005220D01*
X015005Y005243D01*
X014992Y005329D01*
X014965Y005411D01*
X014926Y005488D01*
X014875Y005558D01*
X014814Y005620D01*
X014744Y005670D01*
X014667Y005710D01*
X014584Y005736D01*
X014499Y005750D01*
X014475Y005750D01*
X014514Y005748D02*
X017396Y005748D01*
X017412Y005750D02*
X017327Y005736D01*
X017244Y005710D01*
X017167Y005670D01*
X017097Y005620D01*
X017036Y005558D01*
X016985Y005488D01*
X016946Y005411D01*
X016919Y005329D01*
X016905Y005243D01*
X016905Y005220D01*
X017435Y005220D01*
X017435Y005750D01*
X017412Y005750D01*
X017435Y005748D02*
X017475Y005748D01*
X017514Y005748D02*
X017755Y005748D01*
X017755Y005906D02*
X010155Y005906D01*
X010155Y006065D02*
X017755Y006065D01*
X017755Y006223D02*
X010155Y006223D01*
X010155Y006382D02*
X017755Y006382D01*
X017755Y006540D02*
X010155Y006540D01*
X010155Y006699D02*
X017755Y006699D01*
X017709Y006857D02*
X010193Y006857D01*
X010207Y007808D02*
X017704Y007808D01*
X017755Y007967D02*
X010156Y007967D01*
X010155Y008125D02*
X017755Y008125D01*
X017755Y008284D02*
X010155Y008284D01*
X010155Y008442D02*
X017755Y008442D01*
X017755Y008601D02*
X010155Y008601D01*
X010155Y008759D02*
X017755Y008759D01*
X017755Y008918D02*
X010155Y008918D01*
X008879Y010027D02*
X006481Y010027D01*
X006633Y010186D02*
X008726Y010186D01*
X008661Y010344D02*
X006699Y010344D01*
X006710Y010503D02*
X008650Y010503D01*
X008683Y010661D02*
X006677Y010661D01*
X006585Y010820D02*
X008774Y010820D01*
X008996Y010978D02*
X006364Y010978D01*
X006590Y011137D02*
X008769Y011137D01*
X008681Y011295D02*
X006679Y011295D01*
X006710Y011454D02*
X008650Y011454D01*
X008663Y011612D02*
X006697Y011612D01*
X006631Y011771D02*
X008728Y011771D01*
X008890Y011929D02*
X006470Y011929D01*
X006570Y012088D02*
X008790Y012088D01*
X008679Y012246D02*
X006680Y012246D01*
X006725Y012405D02*
X008634Y012405D01*
X008637Y012563D02*
X006723Y012563D01*
X006672Y012722D02*
X008688Y012722D01*
X008806Y012880D02*
X006553Y012880D01*
X009160Y012880D02*
X009200Y012880D01*
X009200Y012722D02*
X009160Y012722D01*
X009160Y012563D02*
X009200Y012563D01*
X008650Y009869D02*
X006710Y009869D01*
X006710Y009710D02*
X008650Y009710D01*
X008650Y009552D02*
X006710Y009552D01*
X006710Y009393D02*
X008650Y009393D01*
X008650Y009235D02*
X006710Y009235D01*
X006710Y009076D02*
X008650Y009076D01*
X005650Y009076D02*
X005530Y009076D01*
X005540Y005589D02*
X005791Y005589D01*
X005680Y005431D02*
X005658Y005431D01*
X006160Y005431D02*
X006200Y005431D01*
X006200Y005589D02*
X006160Y005589D01*
X006160Y005272D02*
X006200Y005272D01*
X006710Y002578D02*
X008650Y002578D01*
X008650Y002419D02*
X006710Y002419D01*
X006710Y002261D02*
X008650Y002261D01*
X008650Y002102D02*
X006710Y002102D01*
X006710Y001944D02*
X008650Y001944D01*
X008650Y001785D02*
X006710Y001785D01*
X009480Y001627D02*
X001880Y001627D01*
X001880Y001468D02*
X009480Y001468D01*
X009480Y001310D02*
X001880Y001310D01*
X001880Y001151D02*
X009480Y001151D01*
X009480Y000993D02*
X001880Y000993D01*
X001880Y000834D02*
X009480Y000834D01*
X009477Y000676D02*
X001882Y000676D01*
X001947Y000517D02*
X009413Y000517D01*
X010158Y000676D02*
X017753Y000676D01*
X017755Y000834D02*
X010155Y000834D01*
X010155Y000993D02*
X017755Y000993D01*
X017755Y001151D02*
X010155Y001151D01*
X010155Y001310D02*
X017755Y001310D01*
X017755Y001468D02*
X010155Y001468D01*
X010155Y001627D02*
X017755Y001627D01*
X018431Y001627D02*
X026031Y001627D01*
X026031Y001670D02*
X026031Y000700D01*
X026025Y000641D01*
X025980Y000533D01*
X025898Y000451D01*
X025790Y000406D01*
X025731Y000400D01*
X018731Y000400D01*
X018672Y000406D01*
X018564Y000451D01*
X018482Y000533D01*
X018437Y000641D01*
X018431Y000700D01*
X018431Y001751D01*
X018626Y001670D01*
X018836Y001670D01*
X019031Y001751D01*
X019180Y001900D01*
X019261Y002095D01*
X019261Y002305D01*
X019180Y002500D01*
X019031Y002649D01*
X018909Y002700D01*
X019031Y002751D01*
X019180Y002900D01*
X019261Y003095D01*
X019261Y003305D01*
X019180Y003500D01*
X019031Y003649D01*
X018909Y003700D01*
X019031Y003751D01*
X019180Y003900D01*
X019261Y004095D01*
X019261Y004305D01*
X019180Y004500D01*
X019031Y004649D01*
X018909Y004700D01*
X019031Y004751D01*
X019180Y004900D01*
X019261Y005095D01*
X019261Y005305D01*
X019180Y005500D01*
X019031Y005649D01*
X018836Y005730D01*
X018626Y005730D01*
X018431Y005649D01*
X018431Y006726D01*
X018436Y006780D01*
X018477Y006878D01*
X018553Y006954D01*
X018651Y006995D01*
X018705Y007000D01*
X025731Y007000D01*
X025790Y006994D01*
X025898Y006949D01*
X025980Y006867D01*
X026025Y006759D01*
X026031Y006700D01*
X026031Y005662D01*
X026019Y005670D01*
X025942Y005710D01*
X025860Y005736D01*
X025774Y005750D01*
X025751Y005750D01*
X025751Y005220D01*
X025711Y005220D01*
X025711Y005750D01*
X025688Y005750D01*
X025602Y005736D01*
X025520Y005710D01*
X025443Y005670D01*
X025373Y005620D01*
X025311Y005558D01*
X025261Y005488D01*
X025221Y005411D01*
X025195Y005329D01*
X025181Y005243D01*
X025181Y005220D01*
X025711Y005220D01*
X025711Y005180D01*
X025181Y005180D01*
X025181Y005157D01*
X025195Y005071D01*
X025221Y004989D01*
X025261Y004912D01*
X025311Y004842D01*
X025373Y004780D01*
X025443Y004730D01*
X025520Y004690D01*
X025525Y004689D01*
X025431Y004649D01*
X025282Y004500D01*
X025201Y004305D01*
X025201Y004095D01*
X025282Y003900D01*
X025431Y003751D01*
X025553Y003700D01*
X025431Y003649D01*
X025282Y003500D01*
X025201Y003305D01*
X025201Y003095D01*
X025282Y002900D01*
X025431Y002751D01*
X025481Y002730D01*
X025295Y002730D01*
X025201Y002636D01*
X025201Y001764D01*
X025295Y001670D01*
X026031Y001670D01*
X026031Y001468D02*
X018431Y001468D01*
X018431Y001310D02*
X026031Y001310D01*
X026031Y001151D02*
X018431Y001151D01*
X018431Y000993D02*
X026031Y000993D01*
X026031Y000834D02*
X018431Y000834D01*
X018433Y000676D02*
X026029Y000676D01*
X025964Y000517D02*
X018498Y000517D01*
X017689Y000517D02*
X010222Y000517D01*
X010790Y001785D02*
X013121Y001785D01*
X012988Y001944D02*
X010923Y001944D01*
X010985Y002102D02*
X012925Y002102D01*
X012925Y002261D02*
X010985Y002261D01*
X010938Y002419D02*
X012972Y002419D01*
X013083Y002578D02*
X010827Y002578D01*
X010720Y002736D02*
X013191Y002736D01*
X013011Y002895D02*
X010899Y002895D01*
X010968Y003053D02*
X012943Y003053D01*
X012925Y003212D02*
X010985Y003212D01*
X010959Y003370D02*
X012952Y003370D01*
X013034Y003529D02*
X010876Y003529D01*
X010665Y003687D02*
X013246Y003687D01*
X013060Y003846D02*
X010850Y003846D01*
X010948Y004004D02*
X012963Y004004D01*
X012925Y004163D02*
X010985Y004163D01*
X010979Y004321D02*
X012932Y004321D01*
X012998Y004480D02*
X010913Y004480D01*
X010767Y004638D02*
X013144Y004638D01*
X013109Y004797D02*
X010801Y004797D01*
X010928Y004955D02*
X012983Y004955D01*
X012925Y005114D02*
X010985Y005114D01*
X010985Y005272D02*
X012925Y005272D01*
X012977Y005431D02*
X010934Y005431D01*
X010816Y005589D02*
X013095Y005589D01*
X013816Y005589D02*
X014067Y005589D01*
X013956Y005431D02*
X013934Y005431D01*
X014435Y005431D02*
X014475Y005431D01*
X014475Y005589D02*
X014435Y005589D01*
X014435Y005272D02*
X014475Y005272D01*
X014844Y005589D02*
X017067Y005589D01*
X016956Y005431D02*
X014955Y005431D01*
X015001Y005272D02*
X016910Y005272D01*
X016912Y005114D02*
X014999Y005114D01*
X014948Y004955D02*
X016963Y004955D01*
X017081Y004797D02*
X014830Y004797D01*
X014767Y004638D02*
X017144Y004638D01*
X016998Y004480D02*
X014913Y004480D01*
X014979Y004321D02*
X016932Y004321D01*
X016925Y004163D02*
X014985Y004163D01*
X014948Y004004D02*
X016963Y004004D01*
X017060Y003846D02*
X014850Y003846D01*
X014665Y003687D02*
X017246Y003687D01*
X017034Y003529D02*
X014876Y003529D01*
X014959Y003370D02*
X016952Y003370D01*
X016925Y003212D02*
X014985Y003212D01*
X014968Y003053D02*
X016943Y003053D01*
X017011Y002895D02*
X014899Y002895D01*
X014720Y002736D02*
X017191Y002736D01*
X016925Y002578D02*
X014985Y002578D01*
X014985Y002419D02*
X016925Y002419D01*
X016925Y002261D02*
X014985Y002261D01*
X014985Y002102D02*
X016925Y002102D01*
X016925Y001944D02*
X014985Y001944D01*
X014985Y001785D02*
X016925Y001785D01*
X019066Y001785D02*
X021396Y001785D01*
X021431Y001751D02*
X021626Y001670D01*
X021836Y001670D01*
X022031Y001751D01*
X022180Y001900D01*
X022201Y001950D01*
X022201Y001764D01*
X022295Y001670D01*
X023167Y001670D01*
X023261Y001764D01*
X023261Y002636D01*
X023167Y002730D01*
X022981Y002730D01*
X023031Y002751D01*
X023180Y002900D01*
X023261Y003095D01*
X023261Y003305D01*
X023180Y003500D01*
X023031Y003649D01*
X022909Y003700D01*
X023031Y003751D01*
X023180Y003900D01*
X023261Y004095D01*
X023261Y004305D01*
X023180Y004500D01*
X023031Y004649D01*
X022937Y004689D01*
X022942Y004690D01*
X023019Y004730D01*
X023089Y004780D01*
X023150Y004842D01*
X023201Y004912D01*
X023241Y004989D01*
X023267Y005071D01*
X023281Y005157D01*
X023281Y005180D01*
X022751Y005180D01*
X022751Y005220D01*
X023281Y005220D01*
X023281Y005243D01*
X023267Y005329D01*
X023241Y005411D01*
X023201Y005488D01*
X023150Y005558D01*
X023089Y005620D01*
X023019Y005670D01*
X022942Y005710D01*
X022860Y005736D01*
X022774Y005750D01*
X022751Y005750D01*
X022751Y005220D01*
X022711Y005220D01*
X022711Y005750D01*
X022688Y005750D01*
X022602Y005736D01*
X022520Y005710D01*
X022443Y005670D01*
X022373Y005620D01*
X022311Y005558D01*
X022261Y005488D01*
X022221Y005411D01*
X022219Y005406D01*
X022180Y005500D01*
X022031Y005649D01*
X021836Y005730D01*
X021626Y005730D01*
X021431Y005649D01*
X021282Y005500D01*
X021201Y005305D01*
X021201Y005095D01*
X021282Y004900D01*
X021431Y004751D01*
X021553Y004700D01*
X021431Y004649D01*
X021282Y004500D01*
X021201Y004305D01*
X021201Y004095D01*
X021282Y003900D01*
X021431Y003751D01*
X021553Y003700D01*
X021431Y003649D01*
X021282Y003500D01*
X021201Y003305D01*
X021201Y003095D01*
X021282Y002900D01*
X021431Y002751D01*
X021553Y002700D01*
X021431Y002649D01*
X021282Y002500D01*
X021201Y002305D01*
X021201Y002095D01*
X021282Y001900D01*
X021431Y001751D01*
X021264Y001944D02*
X019198Y001944D01*
X019261Y002102D02*
X021201Y002102D01*
X021201Y002261D02*
X019261Y002261D01*
X019214Y002419D02*
X021248Y002419D01*
X021359Y002578D02*
X019103Y002578D01*
X018996Y002736D02*
X021466Y002736D01*
X021287Y002895D02*
X019175Y002895D01*
X019244Y003053D02*
X021218Y003053D01*
X021201Y003212D02*
X019261Y003212D01*
X019234Y003370D02*
X021228Y003370D01*
X021310Y003529D02*
X019152Y003529D01*
X018940Y003687D02*
X021522Y003687D01*
X021336Y003846D02*
X019126Y003846D01*
X019223Y004004D02*
X021238Y004004D01*
X021201Y004163D02*
X019261Y004163D01*
X019255Y004321D02*
X021207Y004321D01*
X021273Y004480D02*
X019189Y004480D01*
X019043Y004638D02*
X021419Y004638D01*
X021385Y004797D02*
X019077Y004797D01*
X019203Y004955D02*
X021259Y004955D01*
X021201Y005114D02*
X019261Y005114D01*
X019261Y005272D02*
X021201Y005272D01*
X021253Y005431D02*
X019209Y005431D01*
X019092Y005589D02*
X021370Y005589D01*
X022092Y005589D02*
X022342Y005589D01*
X022231Y005431D02*
X022209Y005431D01*
X022711Y005431D02*
X022751Y005431D01*
X022751Y005589D02*
X022711Y005589D01*
X022711Y005748D02*
X022751Y005748D01*
X022790Y005748D02*
X025672Y005748D01*
X025711Y005748D02*
X025751Y005748D01*
X025790Y005748D02*
X026031Y005748D01*
X026031Y005906D02*
X018431Y005906D01*
X018431Y005748D02*
X022672Y005748D01*
X023120Y005589D02*
X025342Y005589D01*
X025231Y005431D02*
X023231Y005431D01*
X023276Y005272D02*
X025186Y005272D01*
X025188Y005114D02*
X023274Y005114D01*
X023223Y004955D02*
X025239Y004955D01*
X025357Y004797D02*
X023105Y004797D01*
X023043Y004638D02*
X025419Y004638D01*
X025273Y004480D02*
X023189Y004480D01*
X023255Y004321D02*
X025207Y004321D01*
X025201Y004163D02*
X023261Y004163D01*
X023223Y004004D02*
X025238Y004004D01*
X025336Y003846D02*
X023126Y003846D01*
X022940Y003687D02*
X025522Y003687D01*
X025310Y003529D02*
X023152Y003529D01*
X023234Y003370D02*
X025228Y003370D01*
X025201Y003212D02*
X023261Y003212D01*
X023244Y003053D02*
X025218Y003053D01*
X025287Y002895D02*
X023175Y002895D01*
X022996Y002736D02*
X025466Y002736D01*
X025201Y002578D02*
X023261Y002578D01*
X023261Y002419D02*
X025201Y002419D01*
X025201Y002261D02*
X023261Y002261D01*
X023261Y002102D02*
X025201Y002102D01*
X025201Y001944D02*
X023261Y001944D01*
X023261Y001785D02*
X025201Y001785D01*
X026707Y001751D02*
X026707Y000700D01*
X026712Y000641D01*
X026757Y000533D01*
X026840Y000451D01*
X026948Y000406D01*
X027007Y000400D01*
X034007Y000400D01*
X034065Y000406D01*
X034173Y000451D01*
X034256Y000533D01*
X034256Y000533D01*
X034301Y000641D01*
X034307Y000700D01*
X034307Y001670D01*
X033570Y001670D01*
X033477Y001764D01*
X033477Y002636D01*
X033570Y002730D01*
X033756Y002730D01*
X033706Y002751D01*
X033557Y002900D01*
X033477Y003095D01*
X033477Y003305D01*
X033557Y003500D01*
X033706Y003649D01*
X033829Y003700D01*
X033706Y003751D01*
X033557Y003900D01*
X033477Y004095D01*
X033477Y004305D01*
X033557Y004500D01*
X033706Y004649D01*
X033801Y004689D01*
X033795Y004690D01*
X033718Y004730D01*
X033648Y004780D01*
X033587Y004842D01*
X033536Y004912D01*
X033497Y004989D01*
X033470Y005071D01*
X033457Y005157D01*
X033457Y005180D01*
X033987Y005180D01*
X033987Y005220D01*
X033987Y005750D01*
X033963Y005750D01*
X033878Y005736D01*
X033795Y005710D01*
X033718Y005670D01*
X033648Y005620D01*
X033587Y005558D01*
X033536Y005488D01*
X033497Y005411D01*
X033470Y005329D01*
X033457Y005243D01*
X033457Y005220D01*
X033987Y005220D01*
X034027Y005220D01*
X034027Y005750D01*
X034050Y005750D01*
X034135Y005736D01*
X034218Y005710D01*
X034295Y005670D01*
X034307Y005662D01*
X034307Y006700D01*
X034301Y006759D01*
X034256Y006867D01*
X034173Y006949D01*
X034065Y006994D01*
X034007Y007000D01*
X026980Y007000D01*
X026927Y006995D01*
X026828Y006954D01*
X026753Y006878D01*
X026712Y006780D01*
X026707Y006726D01*
X026707Y005649D01*
X026901Y005730D01*
X027112Y005730D01*
X027307Y005649D01*
X027456Y005500D01*
X027537Y005305D01*
X027537Y005095D01*
X027456Y004900D01*
X027307Y004751D01*
X027184Y004700D01*
X027307Y004649D01*
X027456Y004500D01*
X027537Y004305D01*
X027537Y004095D01*
X027456Y003900D01*
X027307Y003751D01*
X027184Y003700D01*
X027307Y003649D01*
X027456Y003500D01*
X027537Y003305D01*
X027537Y003095D01*
X027456Y002900D01*
X027307Y002751D01*
X027184Y002700D01*
X027307Y002649D01*
X027456Y002500D01*
X027537Y002305D01*
X027537Y002095D01*
X027456Y001900D01*
X027307Y001751D01*
X027112Y001670D01*
X026901Y001670D01*
X026707Y001751D01*
X026707Y001627D02*
X034307Y001627D01*
X034307Y001468D02*
X026707Y001468D01*
X026707Y001310D02*
X034307Y001310D01*
X034307Y001151D02*
X026707Y001151D01*
X026707Y000993D02*
X034307Y000993D01*
X034307Y000834D02*
X026707Y000834D01*
X026709Y000676D02*
X034304Y000676D01*
X034240Y000517D02*
X026773Y000517D01*
X027341Y001785D02*
X029672Y001785D01*
X029706Y001751D02*
X029557Y001900D01*
X029477Y002095D01*
X029477Y002305D01*
X029557Y002500D01*
X029706Y002649D01*
X029829Y002700D01*
X029706Y002751D01*
X029557Y002900D01*
X029477Y003095D01*
X029477Y003305D01*
X029557Y003500D01*
X029706Y003649D01*
X029829Y003700D01*
X029706Y003751D01*
X029557Y003900D01*
X029477Y004095D01*
X029477Y004305D01*
X029557Y004500D01*
X029706Y004649D01*
X029829Y004700D01*
X029706Y004751D01*
X029557Y004900D01*
X029477Y005095D01*
X029477Y005305D01*
X029557Y005500D01*
X029706Y005649D01*
X029901Y005730D01*
X030112Y005730D01*
X030307Y005649D01*
X030456Y005500D01*
X030495Y005406D01*
X030497Y005411D01*
X030536Y005488D01*
X030587Y005558D01*
X030648Y005620D01*
X030718Y005670D01*
X030795Y005710D01*
X030878Y005736D01*
X030963Y005750D01*
X030987Y005750D01*
X030987Y005220D01*
X031027Y005220D01*
X031557Y005220D01*
X031557Y005243D01*
X031543Y005329D01*
X031516Y005411D01*
X031477Y005488D01*
X031426Y005558D01*
X031365Y005620D01*
X031295Y005670D01*
X031218Y005710D01*
X031135Y005736D01*
X031050Y005750D01*
X031027Y005750D01*
X031027Y005220D01*
X031027Y005180D01*
X031557Y005180D01*
X031557Y005157D01*
X031543Y005071D01*
X031516Y004989D01*
X031477Y004912D01*
X031426Y004842D01*
X031365Y004780D01*
X031295Y004730D01*
X031218Y004690D01*
X031212Y004689D01*
X031307Y004649D01*
X031456Y004500D01*
X031537Y004305D01*
X031537Y004095D01*
X031456Y003900D01*
X031307Y003751D01*
X031184Y003700D01*
X031307Y003649D01*
X031456Y003500D01*
X031537Y003305D01*
X031537Y003095D01*
X031456Y002900D01*
X031307Y002751D01*
X031257Y002730D01*
X031443Y002730D01*
X031537Y002636D01*
X031537Y001764D01*
X031443Y001670D01*
X030570Y001670D01*
X030477Y001764D01*
X030477Y001950D01*
X030456Y001900D01*
X030307Y001751D01*
X030112Y001670D01*
X029901Y001670D01*
X029706Y001751D01*
X029539Y001944D02*
X027474Y001944D01*
X027537Y002102D02*
X029477Y002102D01*
X029477Y002261D02*
X027537Y002261D01*
X027490Y002419D02*
X029524Y002419D01*
X029635Y002578D02*
X027379Y002578D01*
X027271Y002736D02*
X029742Y002736D01*
X029563Y002895D02*
X027451Y002895D01*
X027519Y003053D02*
X029494Y003053D01*
X029477Y003212D02*
X027537Y003212D01*
X027510Y003370D02*
X029503Y003370D01*
X029586Y003529D02*
X027428Y003529D01*
X027216Y003687D02*
X029797Y003687D01*
X029612Y003846D02*
X027402Y003846D01*
X027499Y004004D02*
X029514Y004004D01*
X029477Y004163D02*
X027537Y004163D01*
X027530Y004321D02*
X029483Y004321D01*
X029549Y004480D02*
X027464Y004480D01*
X027318Y004638D02*
X029695Y004638D01*
X029661Y004797D02*
X027353Y004797D01*
X027479Y004955D02*
X029534Y004955D01*
X029477Y005114D02*
X027537Y005114D01*
X027537Y005272D02*
X029477Y005272D01*
X029528Y005431D02*
X027485Y005431D01*
X027367Y005589D02*
X029646Y005589D01*
X030367Y005589D02*
X030618Y005589D01*
X030507Y005431D02*
X030485Y005431D01*
X030987Y005431D02*
X031027Y005431D01*
X031027Y005589D02*
X030987Y005589D01*
X030987Y005748D02*
X031027Y005748D01*
X031066Y005748D02*
X033948Y005748D01*
X033987Y005748D02*
X034027Y005748D01*
X034066Y005748D02*
X034307Y005748D01*
X034307Y005906D02*
X026707Y005906D01*
X026707Y005748D02*
X030948Y005748D01*
X031395Y005589D02*
X033618Y005589D01*
X033507Y005431D02*
X031506Y005431D01*
X031552Y005272D02*
X033461Y005272D01*
X033463Y005114D02*
X031550Y005114D01*
X031499Y004955D02*
X033514Y004955D01*
X033632Y004797D02*
X031381Y004797D01*
X031318Y004638D02*
X033695Y004638D01*
X033549Y004480D02*
X031464Y004480D01*
X031530Y004321D02*
X033483Y004321D01*
X033477Y004163D02*
X031537Y004163D01*
X031499Y004004D02*
X033514Y004004D01*
X033612Y003846D02*
X031402Y003846D01*
X031216Y003687D02*
X033797Y003687D01*
X033586Y003529D02*
X031428Y003529D01*
X031510Y003370D02*
X033503Y003370D01*
X033477Y003212D02*
X031537Y003212D01*
X031519Y003053D02*
X033494Y003053D01*
X033563Y002895D02*
X031451Y002895D01*
X031271Y002736D02*
X033742Y002736D01*
X033477Y002578D02*
X031537Y002578D01*
X031537Y002419D02*
X033477Y002419D01*
X033477Y002261D02*
X031537Y002261D01*
X031537Y002102D02*
X033477Y002102D01*
X033477Y001944D02*
X031537Y001944D01*
X031537Y001785D02*
X033477Y001785D01*
X030477Y001785D02*
X030341Y001785D01*
X030474Y001944D02*
X030477Y001944D01*
X030987Y005272D02*
X031027Y005272D01*
X033987Y005272D02*
X034027Y005272D01*
X034027Y005431D02*
X033987Y005431D01*
X033987Y005589D02*
X034027Y005589D01*
X034307Y006065D02*
X026707Y006065D01*
X026707Y006223D02*
X034307Y006223D01*
X034307Y006382D02*
X026707Y006382D01*
X026707Y006540D02*
X034307Y006540D01*
X034307Y006699D02*
X026707Y006699D01*
X026744Y006857D02*
X034260Y006857D01*
X034065Y007681D02*
X034007Y007676D01*
X027007Y007676D01*
X026948Y007681D01*
X026840Y007726D01*
X026757Y007809D01*
X026712Y007917D01*
X026707Y007976D01*
X026707Y009026D01*
X026901Y008946D01*
X027112Y008946D01*
X027307Y009026D01*
X027456Y009175D01*
X027537Y009370D01*
X027537Y009581D01*
X027456Y009776D01*
X027307Y009925D01*
X027184Y009976D01*
X027307Y010026D01*
X027456Y010175D01*
X027537Y010370D01*
X027537Y010581D01*
X027456Y010776D01*
X027307Y010925D01*
X027184Y010976D01*
X027307Y011026D01*
X027456Y011175D01*
X027537Y011370D01*
X027537Y011581D01*
X027456Y011776D01*
X027307Y011925D01*
X027184Y011976D01*
X027307Y012026D01*
X027456Y012175D01*
X027537Y012370D01*
X027537Y012581D01*
X027456Y012776D01*
X027307Y012925D01*
X027112Y013006D01*
X026901Y013006D01*
X026707Y012925D01*
X026707Y014002D01*
X026712Y014055D01*
X026753Y014154D01*
X026828Y014229D01*
X026927Y014270D01*
X026980Y014276D01*
X034007Y014276D01*
X034065Y014270D01*
X034173Y014225D01*
X034256Y014142D01*
X034301Y014034D01*
X034307Y013976D01*
X034307Y012937D01*
X034295Y012946D01*
X034218Y012985D01*
X034135Y013012D01*
X034050Y013026D01*
X034027Y013026D01*
X034027Y012496D01*
X033987Y012496D01*
X033987Y013026D01*
X033963Y013026D01*
X033878Y013012D01*
X033795Y012985D01*
X033718Y012946D01*
X033648Y012895D01*
X033587Y012834D01*
X033536Y012764D01*
X033497Y012687D01*
X033470Y012604D01*
X033457Y012519D01*
X033457Y012496D01*
X033987Y012496D01*
X033987Y012456D01*
X033457Y012456D01*
X033457Y012432D01*
X033470Y012347D01*
X033497Y012264D01*
X033536Y012187D01*
X033587Y012117D01*
X033648Y012056D01*
X033718Y012005D01*
X033795Y011966D01*
X033801Y011964D01*
X033706Y011925D01*
X033557Y011776D01*
X033477Y011581D01*
X033477Y011370D01*
X033557Y011175D01*
X033706Y011026D01*
X033829Y010976D01*
X033706Y010925D01*
X033557Y010776D01*
X033477Y010581D01*
X033477Y010370D01*
X033557Y010175D01*
X033706Y010026D01*
X033756Y010006D01*
X033570Y010006D01*
X033477Y009912D01*
X033477Y009039D01*
X033570Y008946D01*
X034307Y008946D01*
X034307Y007976D01*
X034301Y007917D01*
X034256Y007809D01*
X034173Y007726D01*
X034065Y007681D01*
X034255Y007808D02*
X026758Y007808D01*
X026707Y007967D02*
X034306Y007967D01*
X034307Y008125D02*
X026707Y008125D01*
X026707Y008284D02*
X034307Y008284D01*
X034307Y008442D02*
X026707Y008442D01*
X026707Y008601D02*
X034307Y008601D01*
X034307Y008759D02*
X026707Y008759D01*
X026707Y008918D02*
X034307Y008918D01*
X033477Y009076D02*
X031537Y009076D01*
X031537Y009039D02*
X031537Y009912D01*
X031443Y010006D01*
X031257Y010006D01*
X031307Y010026D01*
X031456Y010175D01*
X031537Y010370D01*
X031537Y010581D01*
X031456Y010776D01*
X031307Y010925D01*
X031184Y010976D01*
X031307Y011026D01*
X031456Y011175D01*
X031537Y011370D01*
X031537Y011581D01*
X031456Y011776D01*
X031307Y011925D01*
X031212Y011964D01*
X031218Y011966D01*
X031295Y012005D01*
X031365Y012056D01*
X031426Y012117D01*
X031477Y012187D01*
X031516Y012264D01*
X031543Y012347D01*
X031557Y012432D01*
X031557Y012456D01*
X031027Y012456D01*
X031027Y012496D01*
X031557Y012496D01*
X031557Y012519D01*
X031543Y012604D01*
X031516Y012687D01*
X031477Y012764D01*
X031426Y012834D01*
X031365Y012895D01*
X031295Y012946D01*
X031218Y012985D01*
X031135Y013012D01*
X031050Y013026D01*
X031027Y013026D01*
X031027Y012496D01*
X030987Y012496D01*
X030987Y013026D01*
X030963Y013026D01*
X030878Y013012D01*
X030795Y012985D01*
X030718Y012946D01*
X030648Y012895D01*
X030587Y012834D01*
X030536Y012764D01*
X030497Y012687D01*
X030495Y012681D01*
X030456Y012776D01*
X030307Y012925D01*
X030112Y013006D01*
X029901Y013006D01*
X029706Y012925D01*
X029557Y012776D01*
X029477Y012581D01*
X029477Y012370D01*
X029557Y012175D01*
X029706Y012026D01*
X029829Y011976D01*
X029706Y011925D01*
X029557Y011776D01*
X029477Y011581D01*
X029477Y011370D01*
X029557Y011175D01*
X029706Y011026D01*
X029829Y010976D01*
X029706Y010925D01*
X029557Y010776D01*
X029477Y010581D01*
X029477Y010370D01*
X029557Y010175D01*
X029706Y010026D01*
X029829Y009976D01*
X029706Y009925D01*
X029557Y009776D01*
X029477Y009581D01*
X029477Y009370D01*
X029557Y009175D01*
X029706Y009026D01*
X029901Y008946D01*
X030112Y008946D01*
X030307Y009026D01*
X030456Y009175D01*
X030477Y009225D01*
X030477Y009039D01*
X030570Y008946D01*
X031443Y008946D01*
X031537Y009039D01*
X031537Y009235D02*
X033477Y009235D01*
X033477Y009393D02*
X031537Y009393D01*
X031537Y009552D02*
X033477Y009552D01*
X033477Y009710D02*
X031537Y009710D01*
X031537Y009869D02*
X033477Y009869D01*
X033706Y010027D02*
X031308Y010027D01*
X031460Y010186D02*
X033553Y010186D01*
X033487Y010344D02*
X031526Y010344D01*
X031537Y010503D02*
X033477Y010503D01*
X033510Y010661D02*
X031503Y010661D01*
X031412Y010820D02*
X033601Y010820D01*
X033823Y010978D02*
X031190Y010978D01*
X031417Y011137D02*
X033596Y011137D01*
X033508Y011295D02*
X031505Y011295D01*
X031537Y011454D02*
X033477Y011454D01*
X033489Y011612D02*
X031524Y011612D01*
X031458Y011771D02*
X033555Y011771D01*
X033716Y011929D02*
X031297Y011929D01*
X031396Y012088D02*
X033617Y012088D01*
X033506Y012246D02*
X031507Y012246D01*
X031552Y012405D02*
X033461Y012405D01*
X033464Y012563D02*
X031550Y012563D01*
X031499Y012722D02*
X033515Y012722D01*
X033633Y012880D02*
X031380Y012880D01*
X031027Y012880D02*
X030987Y012880D01*
X030987Y012722D02*
X031027Y012722D01*
X031027Y012563D02*
X030987Y012563D01*
X030633Y012880D02*
X030352Y012880D01*
X030478Y012722D02*
X030515Y012722D01*
X029716Y011929D02*
X027297Y011929D01*
X027368Y012088D02*
X029645Y012088D01*
X029528Y012246D02*
X027485Y012246D01*
X027537Y012405D02*
X029477Y012405D01*
X029477Y012563D02*
X027537Y012563D01*
X027478Y012722D02*
X029535Y012722D01*
X029661Y012880D02*
X027352Y012880D01*
X026707Y013039D02*
X034307Y013039D01*
X034307Y013197D02*
X026707Y013197D01*
X026707Y013356D02*
X034307Y013356D01*
X034307Y013514D02*
X026707Y013514D01*
X026707Y013673D02*
X034307Y013673D01*
X034307Y013831D02*
X026707Y013831D01*
X026707Y013990D02*
X034305Y013990D01*
X034250Y014148D02*
X026750Y014148D01*
X026025Y014034D02*
X026031Y013976D01*
X026031Y012937D01*
X026019Y012946D01*
X025942Y012985D01*
X025860Y013012D01*
X025774Y013026D01*
X025751Y013026D01*
X025751Y012496D01*
X025711Y012496D01*
X025711Y013026D01*
X025688Y013026D01*
X025602Y013012D01*
X025520Y012985D01*
X025443Y012946D01*
X025373Y012895D01*
X025311Y012834D01*
X025261Y012764D01*
X025221Y012687D01*
X025195Y012604D01*
X025181Y012519D01*
X025181Y012496D01*
X025711Y012496D01*
X025711Y012456D01*
X025181Y012456D01*
X025181Y012432D01*
X025195Y012347D01*
X025221Y012264D01*
X025261Y012187D01*
X025311Y012117D01*
X025373Y012056D01*
X025443Y012005D01*
X025520Y011966D01*
X025525Y011964D01*
X025431Y011925D01*
X025282Y011776D01*
X025201Y011581D01*
X025201Y011370D01*
X025282Y011175D01*
X025431Y011026D01*
X025553Y010976D01*
X025431Y010925D01*
X025282Y010776D01*
X025201Y010581D01*
X025201Y010370D01*
X025282Y010175D01*
X025431Y010026D01*
X025481Y010006D01*
X025295Y010006D01*
X025201Y009912D01*
X025201Y009039D01*
X025295Y008946D01*
X026031Y008946D01*
X026031Y007976D01*
X026025Y007917D01*
X025980Y007809D01*
X025898Y007726D01*
X025790Y007681D01*
X025731Y007676D01*
X018731Y007676D01*
X018672Y007681D01*
X018564Y007726D01*
X018482Y007809D01*
X018437Y007917D01*
X018431Y007976D01*
X018431Y009026D01*
X018626Y008946D01*
X018836Y008946D01*
X019031Y009026D01*
X019180Y009175D01*
X019261Y009370D01*
X019261Y009581D01*
X019180Y009776D01*
X019031Y009925D01*
X018909Y009976D01*
X019031Y010026D01*
X019180Y010175D01*
X019261Y010370D01*
X019261Y010581D01*
X019180Y010776D01*
X019031Y010925D01*
X018909Y010976D01*
X019031Y011026D01*
X019180Y011175D01*
X019261Y011370D01*
X019261Y011581D01*
X019180Y011776D01*
X019031Y011925D01*
X018909Y011976D01*
X019031Y012026D01*
X019180Y012175D01*
X019261Y012370D01*
X019261Y012581D01*
X019180Y012776D01*
X019031Y012925D01*
X018836Y013006D01*
X018626Y013006D01*
X018431Y012925D01*
X018431Y014002D01*
X018436Y014055D01*
X018477Y014154D01*
X018477Y014154D01*
X018553Y014229D01*
X018651Y014270D01*
X018705Y014276D01*
X025731Y014276D01*
X025790Y014270D01*
X025898Y014225D01*
X025980Y014142D01*
X026025Y014034D01*
X026030Y013990D02*
X018431Y013990D01*
X018431Y013831D02*
X026031Y013831D01*
X026031Y013673D02*
X018431Y013673D01*
X018431Y013514D02*
X026031Y013514D01*
X026031Y013356D02*
X018431Y013356D01*
X018431Y013197D02*
X026031Y013197D01*
X026031Y013039D02*
X018431Y013039D01*
X019076Y012880D02*
X021386Y012880D01*
X021431Y012925D02*
X021282Y012776D01*
X021201Y012581D01*
X021201Y012370D01*
X021282Y012175D01*
X021431Y012026D01*
X021553Y011976D01*
X021431Y011925D01*
X021282Y011776D01*
X021201Y011581D01*
X021201Y011370D01*
X021282Y011175D01*
X021431Y011026D01*
X021553Y010976D01*
X021431Y010925D01*
X021282Y010776D01*
X021201Y010581D01*
X021201Y010370D01*
X021282Y010175D01*
X021431Y010026D01*
X021553Y009976D01*
X021431Y009925D01*
X021282Y009776D01*
X021201Y009581D01*
X021201Y009370D01*
X021282Y009175D01*
X021431Y009026D01*
X021626Y008946D01*
X021836Y008946D01*
X022031Y009026D01*
X022180Y009175D01*
X022201Y009225D01*
X022201Y009039D01*
X022295Y008946D01*
X023167Y008946D01*
X023261Y009039D01*
X023261Y009912D01*
X023167Y010006D01*
X022981Y010006D01*
X023031Y010026D01*
X023180Y010175D01*
X023261Y010370D01*
X023261Y010581D01*
X023180Y010776D01*
X023031Y010925D01*
X022909Y010976D01*
X023031Y011026D01*
X023180Y011175D01*
X023261Y011370D01*
X023261Y011581D01*
X023180Y011776D01*
X023031Y011925D01*
X022937Y011964D01*
X022942Y011966D01*
X023019Y012005D01*
X023089Y012056D01*
X023150Y012117D01*
X023201Y012187D01*
X023241Y012264D01*
X023267Y012347D01*
X023281Y012432D01*
X023281Y012456D01*
X022751Y012456D01*
X022751Y012496D01*
X022711Y012496D01*
X022711Y013026D01*
X022688Y013026D01*
X022602Y013012D01*
X022520Y012985D01*
X022443Y012946D01*
X022373Y012895D01*
X022311Y012834D01*
X022261Y012764D01*
X022221Y012687D01*
X022219Y012681D01*
X022180Y012776D01*
X022031Y012925D01*
X021836Y013006D01*
X021626Y013006D01*
X021431Y012925D01*
X021259Y012722D02*
X019203Y012722D01*
X019261Y012563D02*
X021201Y012563D01*
X021201Y012405D02*
X019261Y012405D01*
X019210Y012246D02*
X021252Y012246D01*
X021370Y012088D02*
X019092Y012088D01*
X019021Y011929D02*
X021441Y011929D01*
X021279Y011771D02*
X019182Y011771D01*
X019248Y011612D02*
X021214Y011612D01*
X021201Y011454D02*
X019261Y011454D01*
X019230Y011295D02*
X021232Y011295D01*
X021321Y011137D02*
X019141Y011137D01*
X018915Y010978D02*
X021547Y010978D01*
X021325Y010820D02*
X019137Y010820D01*
X019228Y010661D02*
X021234Y010661D01*
X021201Y010503D02*
X019261Y010503D01*
X019250Y010344D02*
X021212Y010344D01*
X021277Y010186D02*
X019184Y010186D01*
X019032Y010027D02*
X021430Y010027D01*
X021374Y009869D02*
X019088Y009869D01*
X019208Y009710D02*
X021254Y009710D01*
X021201Y009552D02*
X019261Y009552D01*
X019261Y009393D02*
X021201Y009393D01*
X021257Y009235D02*
X019205Y009235D01*
X019081Y009076D02*
X021381Y009076D01*
X022081Y009076D02*
X022201Y009076D01*
X023261Y009076D02*
X025201Y009076D01*
X025201Y009235D02*
X023261Y009235D01*
X023261Y009393D02*
X025201Y009393D01*
X025201Y009552D02*
X023261Y009552D01*
X023261Y009710D02*
X025201Y009710D01*
X025201Y009869D02*
X023261Y009869D01*
X023032Y010027D02*
X025430Y010027D01*
X025277Y010186D02*
X023184Y010186D01*
X023250Y010344D02*
X025212Y010344D01*
X025201Y010503D02*
X023261Y010503D01*
X023228Y010661D02*
X025234Y010661D01*
X025325Y010820D02*
X023137Y010820D01*
X022915Y010978D02*
X025547Y010978D01*
X025321Y011137D02*
X023141Y011137D01*
X023230Y011295D02*
X025232Y011295D01*
X025201Y011454D02*
X023261Y011454D01*
X023248Y011612D02*
X025214Y011612D01*
X025279Y011771D02*
X023182Y011771D01*
X023021Y011929D02*
X025441Y011929D01*
X025341Y012088D02*
X023121Y012088D01*
X023231Y012246D02*
X025231Y012246D01*
X025185Y012405D02*
X023277Y012405D01*
X023281Y012496D02*
X023281Y012519D01*
X023267Y012604D01*
X023241Y012687D01*
X023201Y012764D01*
X023150Y012834D01*
X023089Y012895D01*
X023019Y012946D01*
X022942Y012985D01*
X022860Y013012D01*
X022774Y013026D01*
X022751Y013026D01*
X022751Y012496D01*
X023281Y012496D01*
X023274Y012563D02*
X025188Y012563D01*
X025239Y012722D02*
X023223Y012722D01*
X023104Y012880D02*
X025358Y012880D01*
X025711Y012880D02*
X025751Y012880D01*
X025751Y012722D02*
X025711Y012722D01*
X025711Y012563D02*
X025751Y012563D01*
X025975Y014148D02*
X018475Y014148D01*
X018476Y015099D02*
X025986Y015099D01*
X025201Y016367D02*
X023261Y016367D01*
X023261Y016315D02*
X023261Y017187D01*
X023167Y017281D01*
X022981Y017281D01*
X023031Y017302D01*
X023180Y017451D01*
X023261Y017646D01*
X023261Y017857D01*
X023180Y018051D01*
X023031Y018200D01*
X022909Y018251D01*
X023031Y018302D01*
X023180Y018451D01*
X023261Y018646D01*
X023261Y018857D01*
X023180Y019051D01*
X023031Y019200D01*
X022937Y019240D01*
X022942Y019241D01*
X023019Y019281D01*
X023089Y019332D01*
X023150Y019393D01*
X023201Y019463D01*
X023241Y019540D01*
X023267Y019622D01*
X023281Y019708D01*
X023281Y019731D01*
X022751Y019731D01*
X022751Y019771D01*
X023281Y019771D01*
X023281Y019794D01*
X023267Y019880D01*
X023241Y019962D01*
X023201Y020039D01*
X023150Y020109D01*
X023089Y020171D01*
X025373Y020171D01*
X025311Y020109D01*
X025261Y020039D01*
X025221Y019962D01*
X025195Y019880D01*
X025181Y019794D01*
X025181Y019771D01*
X025711Y019771D01*
X025711Y020301D01*
X025688Y020301D01*
X025602Y020288D01*
X025520Y020261D01*
X025443Y020222D01*
X025373Y020171D01*
X025247Y020013D02*
X023215Y020013D01*
X023272Y019854D02*
X025190Y019854D01*
X025183Y019696D02*
X023279Y019696D01*
X023239Y019537D02*
X025223Y019537D01*
X025326Y019379D02*
X023136Y019379D01*
X022984Y019220D02*
X025478Y019220D01*
X025292Y019062D02*
X023170Y019062D01*
X023242Y018903D02*
X025220Y018903D01*
X025201Y018745D02*
X023261Y018745D01*
X023236Y018586D02*
X025226Y018586D01*
X025305Y018428D02*
X023157Y018428D01*
X022952Y018269D02*
X025510Y018269D01*
X025341Y018111D02*
X023121Y018111D01*
X023221Y017952D02*
X025241Y017952D01*
X025201Y017794D02*
X023261Y017794D01*
X023257Y017635D02*
X025205Y017635D01*
X025271Y017477D02*
X023191Y017477D01*
X023047Y017318D02*
X025415Y017318D01*
X025201Y017160D02*
X023261Y017160D01*
X023261Y017001D02*
X025201Y017001D01*
X025201Y016843D02*
X023261Y016843D01*
X023261Y016684D02*
X025201Y016684D01*
X025201Y016526D02*
X023261Y016526D01*
X023261Y016315D02*
X023167Y016221D01*
X022295Y016221D01*
X022201Y016315D01*
X022201Y016501D01*
X022180Y016451D01*
X022031Y016302D01*
X021836Y016221D01*
X021626Y016221D01*
X021431Y016302D01*
X021282Y016451D01*
X021201Y016646D01*
X021201Y016857D01*
X021282Y017051D01*
X021431Y017200D01*
X021553Y017251D01*
X021431Y017302D01*
X021282Y017451D01*
X021201Y017646D01*
X021201Y017857D01*
X021282Y018051D01*
X021431Y018200D01*
X021553Y018251D01*
X021431Y018302D01*
X021282Y018451D01*
X021201Y018646D01*
X021201Y018857D01*
X021282Y019051D01*
X021431Y019200D01*
X021553Y019251D01*
X021431Y019302D01*
X021282Y019451D01*
X021201Y019646D01*
X021201Y019857D01*
X021282Y020051D01*
X021431Y020200D01*
X021626Y020281D01*
X021836Y020281D01*
X022031Y020200D01*
X022180Y020051D01*
X022219Y019957D01*
X022221Y019962D01*
X022261Y020039D01*
X022311Y020109D01*
X022373Y020171D01*
X022061Y020171D01*
X022196Y020013D02*
X022247Y020013D01*
X022373Y020171D02*
X022443Y020222D01*
X022520Y020261D01*
X022602Y020288D01*
X022688Y020301D01*
X022711Y020301D01*
X022711Y019771D01*
X022751Y019771D01*
X022751Y020301D01*
X022774Y020301D01*
X022860Y020288D01*
X022942Y020261D01*
X023019Y020222D01*
X023089Y020171D01*
X022751Y020171D02*
X022711Y020171D01*
X022711Y020013D02*
X022751Y020013D01*
X022751Y019854D02*
X022711Y019854D01*
X021401Y020171D02*
X019061Y020171D01*
X019196Y020013D02*
X021266Y020013D01*
X021201Y019854D02*
X019261Y019854D01*
X019261Y019696D02*
X021201Y019696D01*
X021246Y019537D02*
X019216Y019537D01*
X019108Y019379D02*
X021354Y019379D01*
X021478Y019220D02*
X018984Y019220D01*
X019170Y019062D02*
X021292Y019062D01*
X021220Y018903D02*
X019242Y018903D01*
X019261Y018745D02*
X021201Y018745D01*
X021226Y018586D02*
X019236Y018586D01*
X019157Y018428D02*
X021305Y018428D01*
X021510Y018269D02*
X018952Y018269D01*
X019121Y018111D02*
X021341Y018111D01*
X021241Y017952D02*
X019221Y017952D01*
X019261Y017794D02*
X021201Y017794D01*
X021205Y017635D02*
X019257Y017635D01*
X019191Y017477D02*
X021271Y017477D01*
X021415Y017318D02*
X019047Y017318D01*
X019072Y017160D02*
X021390Y017160D01*
X021261Y017001D02*
X019201Y017001D01*
X019261Y016843D02*
X021201Y016843D01*
X021201Y016684D02*
X019261Y016684D01*
X019211Y016526D02*
X021251Y016526D01*
X021366Y016367D02*
X019096Y016367D01*
X017139Y017318D02*
X014772Y017318D01*
X014756Y017302D02*
X014905Y017451D01*
X014985Y017646D01*
X014985Y017857D01*
X014905Y018051D01*
X014756Y018200D01*
X014633Y018251D01*
X014756Y018302D01*
X014905Y018451D01*
X014985Y018646D01*
X014985Y018857D01*
X014905Y019051D01*
X014756Y019200D01*
X014661Y019240D01*
X014667Y019241D01*
X014744Y019281D01*
X014814Y019332D01*
X014875Y019393D01*
X014926Y019463D01*
X014965Y019540D01*
X014992Y019622D01*
X015005Y019708D01*
X015005Y019731D01*
X014475Y019731D01*
X014475Y019771D01*
X014435Y019771D01*
X014435Y020301D01*
X014412Y020301D01*
X014327Y020288D01*
X014244Y020261D01*
X014167Y020222D01*
X014097Y020171D01*
X014036Y020109D01*
X013985Y020039D01*
X013946Y019962D01*
X013944Y019957D01*
X013905Y020051D01*
X013756Y020200D01*
X013561Y020281D01*
X013350Y020281D01*
X013155Y020200D01*
X013006Y020051D01*
X012925Y019857D01*
X012925Y019646D01*
X013006Y019451D01*
X013155Y019302D01*
X013278Y019251D01*
X013155Y019200D01*
X013006Y019051D01*
X012925Y018857D01*
X012925Y018646D01*
X013006Y018451D01*
X013155Y018302D01*
X013278Y018251D01*
X013155Y018200D01*
X013006Y018051D01*
X012925Y017857D01*
X012925Y017646D01*
X013006Y017451D01*
X013155Y017302D01*
X013278Y017251D01*
X013155Y017200D01*
X013006Y017051D01*
X012925Y016857D01*
X012925Y016646D01*
X013006Y016451D01*
X013155Y016302D01*
X013350Y016221D01*
X013561Y016221D01*
X013756Y016302D01*
X013905Y016451D01*
X013925Y016501D01*
X013925Y016315D01*
X014019Y016221D01*
X014892Y016221D01*
X014985Y016315D01*
X014985Y017187D01*
X014892Y017281D01*
X014706Y017281D01*
X014756Y017302D01*
X014915Y017477D02*
X016995Y017477D01*
X016930Y017635D02*
X014981Y017635D01*
X014985Y017794D02*
X016925Y017794D01*
X016965Y017952D02*
X014946Y017952D01*
X014846Y018111D02*
X017065Y018111D01*
X017234Y018269D02*
X014676Y018269D01*
X014881Y018428D02*
X017030Y018428D01*
X016950Y018586D02*
X014961Y018586D01*
X014985Y018745D02*
X016925Y018745D01*
X016945Y018903D02*
X014966Y018903D01*
X014895Y019062D02*
X017016Y019062D01*
X017202Y019220D02*
X014708Y019220D01*
X014861Y019379D02*
X017050Y019379D01*
X016947Y019537D02*
X014964Y019537D01*
X015003Y019696D02*
X016907Y019696D01*
X016905Y019771D02*
X017435Y019771D01*
X017435Y020301D01*
X017412Y020301D01*
X017327Y020288D01*
X017244Y020261D01*
X017167Y020222D01*
X017097Y020171D01*
X017036Y020109D01*
X016985Y020039D01*
X016946Y019962D01*
X016919Y019880D01*
X016905Y019794D01*
X016905Y019771D01*
X016915Y019854D02*
X014996Y019854D01*
X014992Y019880D02*
X014965Y019962D01*
X014926Y020039D01*
X014875Y020109D01*
X014814Y020171D01*
X014744Y020222D01*
X014667Y020261D01*
X014584Y020288D01*
X014499Y020301D01*
X014475Y020301D01*
X014475Y019771D01*
X015005Y019771D01*
X015005Y019794D01*
X014992Y019880D01*
X014940Y020013D02*
X016971Y020013D01*
X017098Y020171D02*
X014813Y020171D01*
X014475Y020171D02*
X014435Y020171D01*
X014435Y020013D02*
X014475Y020013D01*
X014475Y019854D02*
X014435Y019854D01*
X014098Y020171D02*
X013785Y020171D01*
X013921Y020013D02*
X013971Y020013D01*
X013126Y020171D02*
X010785Y020171D01*
X010921Y020013D02*
X012990Y020013D01*
X012925Y019854D02*
X010985Y019854D01*
X010985Y019696D02*
X012925Y019696D01*
X012970Y019537D02*
X010940Y019537D01*
X010832Y019379D02*
X013079Y019379D01*
X013202Y019220D02*
X010708Y019220D01*
X010895Y019062D02*
X013016Y019062D01*
X012945Y018903D02*
X010966Y018903D01*
X010985Y018745D02*
X012925Y018745D01*
X012950Y018586D02*
X010961Y018586D01*
X010881Y018428D02*
X013030Y018428D01*
X013234Y018269D02*
X010676Y018269D01*
X010846Y018111D02*
X013065Y018111D01*
X012965Y017952D02*
X010946Y017952D01*
X010985Y017794D02*
X012925Y017794D01*
X012930Y017635D02*
X010981Y017635D01*
X010915Y017477D02*
X012995Y017477D01*
X013139Y017318D02*
X010772Y017318D01*
X010797Y017160D02*
X013114Y017160D01*
X012985Y017001D02*
X010926Y017001D01*
X010985Y016843D02*
X012925Y016843D01*
X012925Y016684D02*
X010985Y016684D01*
X010936Y016526D02*
X012975Y016526D01*
X013090Y016367D02*
X010821Y016367D01*
X013821Y016367D02*
X013925Y016367D01*
X014985Y016367D02*
X016925Y016367D01*
X016925Y016526D02*
X014985Y016526D01*
X014985Y016684D02*
X016925Y016684D01*
X016925Y016843D02*
X014985Y016843D01*
X014985Y017001D02*
X016925Y017001D01*
X016925Y017160D02*
X014985Y017160D01*
X017435Y019854D02*
X017475Y019854D01*
X017475Y020013D02*
X017435Y020013D01*
X017435Y020171D02*
X017475Y020171D01*
X017755Y020330D02*
X010155Y020330D01*
X010155Y020488D02*
X017755Y020488D01*
X017755Y020647D02*
X010155Y020647D01*
X010155Y020805D02*
X017755Y020805D01*
X017755Y020964D02*
X010155Y020964D01*
X010155Y021122D02*
X017755Y021122D01*
X017753Y021281D02*
X010156Y021281D01*
X010211Y021439D02*
X017684Y021439D01*
X018431Y021281D02*
X026028Y021281D01*
X026031Y021122D02*
X018431Y021122D01*
X018431Y020964D02*
X026031Y020964D01*
X026031Y020805D02*
X018431Y020805D01*
X018431Y020647D02*
X026031Y020647D01*
X026031Y020488D02*
X018431Y020488D01*
X018431Y020330D02*
X026031Y020330D01*
X025751Y020171D02*
X025711Y020171D01*
X025711Y020013D02*
X025751Y020013D01*
X025751Y019854D02*
X025711Y019854D01*
X026707Y020330D02*
X034307Y020330D01*
X034307Y020488D02*
X026707Y020488D01*
X026707Y020647D02*
X034307Y020647D01*
X034307Y020805D02*
X026707Y020805D01*
X026707Y020964D02*
X034307Y020964D01*
X034307Y021122D02*
X026707Y021122D01*
X026707Y021281D02*
X034304Y021281D01*
X034235Y021439D02*
X026762Y021439D01*
X025959Y021439D02*
X018487Y021439D01*
X018672Y022233D02*
X018564Y022277D01*
X018564Y022277D01*
X018482Y022360D01*
X018437Y022468D01*
X018431Y022527D01*
X018431Y023577D01*
X018626Y023497D01*
X018836Y023497D01*
X019031Y023577D01*
X019180Y023727D01*
X019261Y023921D01*
X019261Y024132D01*
X019180Y024327D01*
X019031Y024476D01*
X018909Y024527D01*
X019031Y024577D01*
X019180Y024727D01*
X019261Y024921D01*
X019261Y025132D01*
X019180Y025327D01*
X019031Y025476D01*
X018909Y025527D01*
X019031Y025577D01*
X019180Y025727D01*
X019261Y025921D01*
X019261Y026132D01*
X019180Y026327D01*
X019031Y026476D01*
X018909Y026527D01*
X019031Y026577D01*
X019180Y026727D01*
X019261Y026921D01*
X019261Y027132D01*
X019180Y027327D01*
X019031Y027476D01*
X018836Y027557D01*
X018626Y027557D01*
X018431Y027476D01*
X018431Y028553D01*
X018436Y028607D01*
X018477Y028705D01*
X018553Y028781D01*
X018651Y028822D01*
X018705Y028827D01*
X025731Y028827D01*
X025790Y028821D01*
X025898Y028776D01*
X025980Y028693D01*
X026025Y028585D01*
X026031Y028527D01*
X026031Y027489D01*
X026019Y027497D01*
X025942Y027536D01*
X025860Y027563D01*
X025774Y027577D01*
X025751Y027577D01*
X025751Y027047D01*
X025711Y027047D01*
X025711Y027577D01*
X025688Y027577D01*
X025602Y027563D01*
X025520Y027536D01*
X025443Y027497D01*
X025373Y027446D01*
X025311Y027385D01*
X025261Y027315D01*
X025221Y027238D01*
X025195Y027156D01*
X025181Y027070D01*
X025181Y027047D01*
X025711Y027047D01*
X025711Y027007D01*
X025181Y027007D01*
X025181Y026983D01*
X025195Y026898D01*
X025221Y026816D01*
X025261Y026739D01*
X025311Y026668D01*
X025373Y026607D01*
X025443Y026556D01*
X025520Y026517D01*
X025525Y026515D01*
X025431Y026476D01*
X025282Y026327D01*
X025201Y026132D01*
X025201Y025921D01*
X025282Y025727D01*
X025431Y025577D01*
X025553Y025527D01*
X025431Y025476D01*
X025282Y025327D01*
X025201Y025132D01*
X025201Y024921D01*
X025282Y024727D01*
X025431Y024577D01*
X025481Y024557D01*
X025295Y024557D01*
X025201Y024463D01*
X025201Y023590D01*
X025295Y023497D01*
X026031Y023497D01*
X026031Y022527D01*
X026025Y022468D01*
X025980Y022360D01*
X025898Y022277D01*
X025790Y022233D01*
X025731Y022227D01*
X018731Y022227D01*
X018672Y022233D01*
X018683Y022232D02*
X025779Y022232D01*
X025993Y022390D02*
X018469Y022390D01*
X018431Y022549D02*
X026031Y022549D01*
X026031Y022707D02*
X018431Y022707D01*
X018431Y022866D02*
X026031Y022866D01*
X026031Y023024D02*
X018431Y023024D01*
X018431Y023183D02*
X026031Y023183D01*
X026031Y023341D02*
X018431Y023341D01*
X018431Y023500D02*
X018619Y023500D01*
X018843Y023500D02*
X021619Y023500D01*
X021626Y023497D02*
X021836Y023497D01*
X022031Y023577D01*
X022180Y023727D01*
X022201Y023776D01*
X022201Y023590D01*
X022295Y023497D01*
X023167Y023497D01*
X023261Y023590D01*
X023261Y024463D01*
X023167Y024557D01*
X022981Y024557D01*
X023031Y024577D01*
X023180Y024727D01*
X023261Y024921D01*
X023261Y025132D01*
X023180Y025327D01*
X023031Y025476D01*
X022909Y025527D01*
X023031Y025577D01*
X023180Y025727D01*
X023261Y025921D01*
X023261Y026132D01*
X023180Y026327D01*
X023031Y026476D01*
X022937Y026515D01*
X022942Y026517D01*
X023019Y026556D01*
X023089Y026607D01*
X023150Y026668D01*
X023201Y026739D01*
X023241Y026816D01*
X023267Y026898D01*
X023281Y026983D01*
X023281Y027007D01*
X022751Y027007D01*
X022751Y027047D01*
X022711Y027047D01*
X022711Y027577D01*
X022688Y027577D01*
X022602Y027563D01*
X022520Y027536D01*
X022443Y027497D01*
X022373Y027446D01*
X022311Y027385D01*
X022261Y027315D01*
X022221Y027238D01*
X022219Y027232D01*
X022180Y027327D01*
X022031Y027476D01*
X021836Y027557D01*
X021626Y027557D01*
X021431Y027476D01*
X021282Y027327D01*
X021201Y027132D01*
X021201Y026921D01*
X021282Y026727D01*
X021431Y026577D01*
X021553Y026527D01*
X021431Y026476D01*
X021282Y026327D01*
X021201Y026132D01*
X021201Y025921D01*
X021282Y025727D01*
X021431Y025577D01*
X021553Y025527D01*
X021431Y025476D01*
X021282Y025327D01*
X021201Y025132D01*
X021201Y024921D01*
X021282Y024727D01*
X021431Y024577D01*
X021553Y024527D01*
X021431Y024476D01*
X021282Y024327D01*
X021201Y024132D01*
X021201Y023921D01*
X021282Y023727D01*
X021431Y023577D01*
X021626Y023497D01*
X021843Y023500D02*
X022292Y023500D01*
X022201Y023658D02*
X022112Y023658D01*
X021350Y023658D02*
X019112Y023658D01*
X019218Y023817D02*
X021244Y023817D01*
X021201Y023975D02*
X019261Y023975D01*
X019260Y024134D02*
X021202Y024134D01*
X021267Y024292D02*
X019195Y024292D01*
X019057Y024451D02*
X021405Y024451D01*
X021399Y024609D02*
X019063Y024609D01*
X019197Y024768D02*
X021265Y024768D01*
X021201Y024926D02*
X019261Y024926D01*
X019261Y025085D02*
X021201Y025085D01*
X021247Y025243D02*
X019215Y025243D01*
X019106Y025402D02*
X021356Y025402D01*
X021473Y025560D02*
X018989Y025560D01*
X019172Y025719D02*
X021290Y025719D01*
X021219Y025877D02*
X019243Y025877D01*
X019261Y026036D02*
X021201Y026036D01*
X021227Y026194D02*
X019235Y026194D01*
X019155Y026353D02*
X021307Y026353D01*
X021515Y026511D02*
X018947Y026511D01*
X019123Y026670D02*
X021339Y026670D01*
X021240Y026828D02*
X019222Y026828D01*
X019261Y026987D02*
X021201Y026987D01*
X021206Y027145D02*
X019256Y027145D01*
X019190Y027304D02*
X021272Y027304D01*
X021417Y027462D02*
X019045Y027462D01*
X018431Y027621D02*
X026031Y027621D01*
X026031Y027779D02*
X018431Y027779D01*
X018431Y027938D02*
X026031Y027938D01*
X026031Y028096D02*
X018431Y028096D01*
X018431Y028255D02*
X026031Y028255D01*
X026031Y028413D02*
X018431Y028413D01*
X018433Y028572D02*
X026027Y028572D01*
X025944Y028730D02*
X018502Y028730D01*
X017750Y028585D02*
X017755Y028527D01*
X017755Y027489D01*
X017744Y027497D01*
X017667Y027536D01*
X017584Y027563D01*
X017499Y027577D01*
X017475Y027577D01*
X017475Y027047D01*
X017435Y027047D01*
X017435Y027007D01*
X016905Y027007D01*
X016905Y026983D01*
X016919Y026898D01*
X016946Y026816D01*
X016985Y026739D01*
X017036Y026668D01*
X017097Y026607D01*
X017167Y026556D01*
X017244Y026517D01*
X017250Y026515D01*
X017155Y026476D01*
X017006Y026327D01*
X016925Y026132D01*
X016925Y025921D01*
X017006Y025727D01*
X017155Y025577D01*
X017278Y025527D01*
X017155Y025476D01*
X017006Y025327D01*
X016925Y025132D01*
X016925Y024921D01*
X017006Y024727D01*
X017155Y024577D01*
X017205Y024557D01*
X017019Y024557D01*
X016925Y024463D01*
X016925Y023590D01*
X017019Y023497D01*
X017755Y023497D01*
X017755Y022527D01*
X017750Y022468D01*
X017705Y022360D01*
X017622Y022277D01*
X017514Y022233D01*
X017455Y022227D01*
X010455Y022227D01*
X010397Y022233D01*
X010289Y022277D01*
X010206Y022360D01*
X010161Y022468D01*
X010155Y022527D01*
X010155Y023577D01*
X010350Y023497D01*
X010561Y023497D01*
X010756Y023577D01*
X010905Y023727D01*
X010985Y023921D01*
X010985Y024132D01*
X010905Y024327D01*
X010756Y024476D01*
X010633Y024527D01*
X010756Y024577D01*
X010905Y024727D01*
X010985Y024921D01*
X010985Y025132D01*
X010905Y025327D01*
X010756Y025476D01*
X010633Y025527D01*
X010756Y025577D01*
X010905Y025727D01*
X010985Y025921D01*
X010985Y026132D01*
X010905Y026327D01*
X010756Y026476D01*
X010633Y026527D01*
X010756Y026577D01*
X010905Y026727D01*
X010985Y026921D01*
X010985Y027132D01*
X010905Y027327D01*
X010756Y027476D01*
X010561Y027557D01*
X010350Y027557D01*
X010155Y027476D01*
X010155Y028553D01*
X010161Y028607D01*
X010202Y028705D01*
X010277Y028781D01*
X010376Y028822D01*
X010429Y028827D01*
X017455Y028827D01*
X017514Y028821D01*
X017622Y028776D01*
X017705Y028693D01*
X017750Y028585D01*
X017751Y028572D02*
X010157Y028572D01*
X010155Y028413D02*
X017755Y028413D01*
X017755Y028255D02*
X010155Y028255D01*
X010155Y028096D02*
X017755Y028096D01*
X017755Y027938D02*
X010155Y027938D01*
X010155Y027779D02*
X017755Y027779D01*
X017755Y027621D02*
X010155Y027621D01*
X010770Y027462D02*
X013141Y027462D01*
X013155Y027476D02*
X013006Y027327D01*
X012925Y027132D01*
X012925Y026921D01*
X013006Y026727D01*
X013155Y026577D01*
X013278Y026527D01*
X013155Y026476D01*
X013006Y026327D01*
X012925Y026132D01*
X012925Y025921D01*
X013006Y025727D01*
X013155Y025577D01*
X013278Y025527D01*
X013155Y025476D01*
X013006Y025327D01*
X012925Y025132D01*
X012925Y024921D01*
X013006Y024727D01*
X013155Y024577D01*
X013278Y024527D01*
X013155Y024476D01*
X013006Y024327D01*
X012925Y024132D01*
X012925Y023921D01*
X013006Y023727D01*
X013155Y023577D01*
X013350Y023497D01*
X013561Y023497D01*
X013756Y023577D01*
X013905Y023727D01*
X013925Y023776D01*
X013925Y023590D01*
X014019Y023497D01*
X014892Y023497D01*
X014985Y023590D01*
X014985Y024463D01*
X014892Y024557D01*
X014706Y024557D01*
X014756Y024577D01*
X014905Y024727D01*
X014985Y024921D01*
X014985Y025132D01*
X014905Y025327D01*
X014756Y025476D01*
X014633Y025527D01*
X014756Y025577D01*
X014905Y025727D01*
X014985Y025921D01*
X014985Y026132D01*
X014905Y026327D01*
X014756Y026476D01*
X014661Y026515D01*
X014667Y026517D01*
X014744Y026556D01*
X014814Y026607D01*
X014875Y026668D01*
X014926Y026739D01*
X014965Y026816D01*
X014992Y026898D01*
X015005Y026983D01*
X015005Y027007D01*
X014475Y027007D01*
X014475Y027047D01*
X014435Y027047D01*
X014435Y027577D01*
X014412Y027577D01*
X014327Y027563D01*
X014244Y027536D01*
X014167Y027497D01*
X014097Y027446D01*
X014036Y027385D01*
X013985Y027315D01*
X013946Y027238D01*
X013944Y027232D01*
X013905Y027327D01*
X013756Y027476D01*
X013561Y027557D01*
X013350Y027557D01*
X013155Y027476D01*
X012996Y027304D02*
X010914Y027304D01*
X010980Y027145D02*
X012931Y027145D01*
X012925Y026987D02*
X010985Y026987D01*
X010947Y026828D02*
X012964Y026828D01*
X013063Y026670D02*
X010848Y026670D01*
X010671Y026511D02*
X013240Y026511D01*
X013032Y026353D02*
X010879Y026353D01*
X010960Y026194D02*
X012951Y026194D01*
X012925Y026036D02*
X010985Y026036D01*
X010967Y025877D02*
X012944Y025877D01*
X013014Y025719D02*
X010897Y025719D01*
X010714Y025560D02*
X013197Y025560D01*
X013081Y025402D02*
X010830Y025402D01*
X010939Y025243D02*
X012971Y025243D01*
X012925Y025085D02*
X010985Y025085D01*
X010985Y024926D02*
X012925Y024926D01*
X012989Y024768D02*
X010922Y024768D01*
X010787Y024609D02*
X013124Y024609D01*
X013130Y024451D02*
X010781Y024451D01*
X010919Y024292D02*
X012992Y024292D01*
X012926Y024134D02*
X010985Y024134D01*
X010985Y023975D02*
X012925Y023975D01*
X012969Y023817D02*
X010942Y023817D01*
X010836Y023658D02*
X013075Y023658D01*
X013343Y023500D02*
X010567Y023500D01*
X010343Y023500D02*
X010155Y023500D01*
X010155Y023341D02*
X017755Y023341D01*
X017755Y023183D02*
X010155Y023183D01*
X010155Y023024D02*
X017755Y023024D01*
X017755Y022866D02*
X010155Y022866D01*
X010155Y022707D02*
X017755Y022707D01*
X017755Y022549D02*
X010155Y022549D01*
X010194Y022390D02*
X017717Y022390D01*
X017504Y022232D02*
X010407Y022232D01*
X009474Y022468D02*
X009429Y022360D01*
X009346Y022277D01*
X009238Y022233D01*
X009180Y022227D01*
X002180Y022227D01*
X002121Y022233D01*
X002013Y022277D01*
X001930Y022360D01*
X001886Y022468D01*
X001880Y022527D01*
X001880Y023577D01*
X002074Y023497D01*
X002285Y023497D01*
X002480Y023577D01*
X002629Y023727D01*
X002710Y023921D01*
X002710Y024132D01*
X002629Y024327D01*
X002480Y024476D01*
X002358Y024527D01*
X002480Y024577D01*
X002629Y024727D01*
X002710Y024921D01*
X002710Y025132D01*
X002629Y025327D01*
X002480Y025476D01*
X002358Y025527D01*
X002480Y025577D01*
X002629Y025727D01*
X002710Y025921D01*
X002710Y026132D01*
X002629Y026327D01*
X002480Y026476D01*
X002358Y026527D01*
X002480Y026577D01*
X002629Y026727D01*
X002710Y026921D01*
X002710Y027132D01*
X002629Y027327D01*
X002480Y027476D01*
X002285Y027557D01*
X002074Y027557D01*
X001880Y027476D01*
X001880Y028553D01*
X001885Y028607D01*
X001926Y028705D01*
X002001Y028781D01*
X002100Y028822D01*
X002153Y028827D01*
X009180Y028827D01*
X009238Y028821D01*
X009346Y028776D01*
X009429Y028693D01*
X009474Y028585D01*
X009480Y028527D01*
X009480Y027489D01*
X009468Y027497D01*
X009391Y027536D01*
X009309Y027563D01*
X009223Y027577D01*
X009200Y027577D01*
X009200Y027047D01*
X009160Y027047D01*
X009160Y027577D01*
X009137Y027577D01*
X009051Y027563D01*
X008969Y027536D01*
X008892Y027497D01*
X008822Y027446D01*
X008760Y027385D01*
X008709Y027315D01*
X008670Y027238D01*
X008643Y027156D01*
X008630Y027070D01*
X008630Y027047D01*
X009160Y027047D01*
X009160Y027007D01*
X008630Y027007D01*
X008630Y026983D01*
X008643Y026898D01*
X008670Y026816D01*
X008709Y026739D01*
X008760Y026668D01*
X008822Y026607D01*
X008892Y026556D01*
X008969Y026517D01*
X008974Y026515D01*
X008880Y026476D01*
X008730Y026327D01*
X008650Y026132D01*
X008650Y025921D01*
X008730Y025727D01*
X008880Y025577D01*
X009002Y025527D01*
X008880Y025476D01*
X008730Y025327D01*
X008650Y025132D01*
X008650Y024921D01*
X008730Y024727D01*
X008880Y024577D01*
X008930Y024557D01*
X008744Y024557D01*
X008650Y024463D01*
X008650Y023590D01*
X008744Y023497D01*
X009480Y023497D01*
X009480Y022527D01*
X009474Y022468D01*
X009480Y022549D02*
X001880Y022549D01*
X001880Y022707D02*
X009480Y022707D01*
X009480Y022866D02*
X001880Y022866D01*
X001880Y023024D02*
X009480Y023024D01*
X009480Y023183D02*
X001880Y023183D01*
X001880Y023341D02*
X009480Y023341D01*
X008741Y023500D02*
X006619Y023500D01*
X006616Y023497D02*
X006710Y023590D01*
X006710Y024463D01*
X006616Y024557D01*
X006430Y024557D01*
X006480Y024577D01*
X006629Y024727D01*
X006710Y024921D01*
X006710Y025132D01*
X006629Y025327D01*
X006480Y025476D01*
X006358Y025527D01*
X006480Y025577D01*
X006629Y025727D01*
X006710Y025921D01*
X006710Y026132D01*
X006629Y026327D01*
X006480Y026476D01*
X006385Y026515D01*
X006391Y026517D01*
X006468Y026556D01*
X006538Y026607D01*
X006599Y026668D01*
X006650Y026739D01*
X006690Y026816D01*
X006716Y026898D01*
X006730Y026983D01*
X006730Y027007D01*
X006200Y027007D01*
X006200Y027047D01*
X006160Y027047D01*
X006160Y027577D01*
X006137Y027577D01*
X006051Y027563D01*
X005969Y027536D01*
X005892Y027497D01*
X005822Y027446D01*
X005760Y027385D01*
X005709Y027315D01*
X005670Y027238D01*
X005668Y027232D01*
X005629Y027327D01*
X005480Y027476D01*
X005285Y027557D01*
X005074Y027557D01*
X004880Y027476D01*
X004730Y027327D01*
X004650Y027132D01*
X004650Y026921D01*
X004730Y026727D01*
X004880Y026577D01*
X005002Y026527D01*
X004880Y026476D01*
X004730Y026327D01*
X004650Y026132D01*
X004650Y025921D01*
X004730Y025727D01*
X004880Y025577D01*
X005002Y025527D01*
X004880Y025476D01*
X004730Y025327D01*
X004650Y025132D01*
X004650Y024921D01*
X004730Y024727D01*
X004880Y024577D01*
X005002Y024527D01*
X004880Y024476D01*
X004730Y024327D01*
X004650Y024132D01*
X004650Y023921D01*
X004730Y023727D01*
X004880Y023577D01*
X005074Y023497D01*
X005285Y023497D01*
X005480Y023577D01*
X005629Y023727D01*
X005650Y023776D01*
X005650Y023590D01*
X005744Y023497D01*
X006616Y023497D01*
X006710Y023658D02*
X008650Y023658D01*
X008650Y023817D02*
X006710Y023817D01*
X006710Y023975D02*
X008650Y023975D01*
X008650Y024134D02*
X006710Y024134D01*
X006710Y024292D02*
X008650Y024292D01*
X008650Y024451D02*
X006710Y024451D01*
X006512Y024609D02*
X008848Y024609D01*
X008714Y024768D02*
X006646Y024768D01*
X006710Y024926D02*
X008650Y024926D01*
X008650Y025085D02*
X006710Y025085D01*
X006664Y025243D02*
X008696Y025243D01*
X008805Y025402D02*
X006555Y025402D01*
X006438Y025560D02*
X008922Y025560D01*
X008739Y025719D02*
X006621Y025719D01*
X006691Y025877D02*
X008668Y025877D01*
X008650Y026036D02*
X006710Y026036D01*
X006684Y026194D02*
X008675Y026194D01*
X008756Y026353D02*
X006604Y026353D01*
X006396Y026511D02*
X008964Y026511D01*
X008760Y026670D02*
X006600Y026670D01*
X006694Y026828D02*
X008666Y026828D01*
X008630Y026987D02*
X006730Y026987D01*
X006730Y027047D02*
X006200Y027047D01*
X006200Y027577D01*
X006223Y027577D01*
X006309Y027563D01*
X006391Y027536D01*
X006468Y027497D01*
X006538Y027446D01*
X006599Y027385D01*
X006650Y027315D01*
X006690Y027238D01*
X006716Y027156D01*
X006730Y027070D01*
X006730Y027047D01*
X006718Y027145D02*
X008642Y027145D01*
X008704Y027304D02*
X006656Y027304D01*
X006516Y027462D02*
X008843Y027462D01*
X009160Y027462D02*
X009200Y027462D01*
X009200Y027304D02*
X009160Y027304D01*
X009160Y027145D02*
X009200Y027145D01*
X009480Y027621D02*
X001880Y027621D01*
X001880Y027779D02*
X009480Y027779D01*
X009480Y027938D02*
X001880Y027938D01*
X001880Y028096D02*
X009480Y028096D01*
X009480Y028255D02*
X001880Y028255D01*
X001880Y028413D02*
X009480Y028413D01*
X009475Y028572D02*
X001882Y028572D01*
X001951Y028730D02*
X009393Y028730D01*
X009238Y029508D02*
X009180Y029502D01*
X002180Y029502D01*
X002121Y029508D01*
X002013Y029553D01*
X001930Y029636D01*
X001886Y029744D01*
X001880Y029802D01*
X001880Y030853D01*
X002074Y030772D01*
X002285Y030772D01*
X002480Y030853D01*
X002629Y031002D01*
X002710Y031197D01*
X002710Y031408D01*
X002629Y031603D01*
X002480Y031752D01*
X002358Y031802D01*
X002480Y031853D01*
X002629Y032002D01*
X002710Y032197D01*
X002710Y032408D01*
X002629Y032603D01*
X002480Y032752D01*
X002358Y032802D01*
X002480Y032853D01*
X002629Y033002D01*
X002710Y033197D01*
X002710Y033408D01*
X002629Y033603D01*
X002480Y033752D01*
X002358Y033802D01*
X005001Y033802D01*
X005002Y033802D02*
X004880Y033752D01*
X004730Y033603D01*
X004650Y033408D01*
X004650Y033197D01*
X004730Y033002D01*
X004880Y032853D01*
X005002Y032802D01*
X004880Y032752D01*
X004730Y032603D01*
X004650Y032408D01*
X004650Y032197D01*
X004730Y032002D01*
X004880Y031853D01*
X005002Y031802D01*
X004880Y031752D01*
X004730Y031603D01*
X004650Y031408D01*
X004650Y031197D01*
X004730Y031002D01*
X004880Y030853D01*
X005074Y030772D01*
X005285Y030772D01*
X005480Y030853D01*
X005629Y031002D01*
X005650Y031052D01*
X005650Y030866D01*
X005744Y030772D01*
X006616Y030772D01*
X006710Y030866D01*
X006710Y031739D01*
X006616Y031832D01*
X006430Y031832D01*
X006480Y031853D01*
X006629Y032002D01*
X006710Y032197D01*
X006710Y032408D01*
X006629Y032603D01*
X006480Y032752D01*
X006358Y032802D01*
X006480Y032853D01*
X006629Y033002D01*
X006710Y033197D01*
X006710Y033408D01*
X006629Y033603D01*
X006480Y033752D01*
X006385Y033791D01*
X006391Y033793D01*
X006468Y033832D01*
X006538Y033883D01*
X006599Y033944D01*
X006650Y034014D01*
X006690Y034091D01*
X006716Y034174D01*
X006730Y034259D01*
X006730Y034282D01*
X006200Y034282D01*
X006200Y034322D01*
X006730Y034322D01*
X006730Y034346D01*
X006716Y034431D01*
X006690Y034513D01*
X006650Y034591D01*
X006599Y034661D01*
X006538Y034722D01*
X006468Y034773D01*
X006391Y034812D01*
X006309Y034839D01*
X006223Y034852D01*
X006200Y034852D01*
X006200Y034322D01*
X006160Y034322D01*
X006160Y034852D01*
X006137Y034852D01*
X006051Y034839D01*
X005969Y034812D01*
X005892Y034773D01*
X005822Y034722D01*
X005760Y034661D01*
X005709Y034591D01*
X005670Y034513D01*
X005668Y034508D01*
X005629Y034603D01*
X005480Y034752D01*
X005285Y034832D01*
X005074Y034832D01*
X004880Y034752D01*
X004730Y034603D01*
X004650Y034408D01*
X004650Y034197D01*
X004730Y034002D01*
X004880Y033853D01*
X005002Y033802D01*
X004772Y033961D02*
X002588Y033961D01*
X002629Y034002D02*
X002710Y034197D01*
X002710Y034408D01*
X002629Y034603D01*
X002480Y034752D01*
X002285Y034832D01*
X002074Y034832D01*
X001880Y034752D01*
X001880Y035829D01*
X001885Y035882D01*
X001926Y035981D01*
X002001Y036056D01*
X002100Y036097D01*
X002153Y036102D01*
X009180Y036102D01*
X009238Y036097D01*
X009346Y036052D01*
X009429Y035969D01*
X009474Y035861D01*
X009480Y035802D01*
X009480Y034764D01*
X009468Y034773D01*
X009391Y034812D01*
X009309Y034839D01*
X009223Y034852D01*
X009200Y034852D01*
X009200Y034322D01*
X009160Y034322D01*
X009160Y034282D01*
X008630Y034282D01*
X008630Y034259D01*
X008643Y034174D01*
X008670Y034091D01*
X008709Y034014D01*
X008760Y033944D01*
X008822Y033883D01*
X008892Y033832D01*
X008969Y033793D01*
X008974Y033791D01*
X008880Y033752D01*
X008730Y033603D01*
X008650Y033408D01*
X008650Y033197D01*
X008730Y033002D01*
X008880Y032853D01*
X009002Y032802D01*
X008880Y032752D01*
X008730Y032603D01*
X008650Y032408D01*
X008650Y032197D01*
X008730Y032002D01*
X008880Y031853D01*
X008930Y031832D01*
X008744Y031832D01*
X008650Y031739D01*
X008650Y030866D01*
X008744Y030772D01*
X009480Y030772D01*
X009480Y029802D01*
X009474Y029744D01*
X009429Y029636D01*
X009346Y029553D01*
X009238Y029508D01*
X009273Y029523D02*
X002086Y029523D01*
X002013Y029553D02*
X002013Y029553D01*
X001912Y029681D02*
X009448Y029681D01*
X009480Y029840D02*
X001880Y029840D01*
X001880Y029998D02*
X009480Y029998D01*
X009480Y030157D02*
X001880Y030157D01*
X001880Y030315D02*
X009480Y030315D01*
X009480Y030474D02*
X001880Y030474D01*
X001880Y030632D02*
X009480Y030632D01*
X010155Y030632D02*
X017755Y030632D01*
X017755Y030772D02*
X017755Y029802D01*
X017750Y029744D01*
X017705Y029636D01*
X017622Y029553D01*
X017514Y029508D01*
X017455Y029502D01*
X010455Y029502D01*
X010397Y029508D01*
X010289Y029553D01*
X010206Y029636D01*
X010161Y029744D01*
X010155Y029802D01*
X010155Y030853D01*
X010350Y030772D01*
X010561Y030772D01*
X010756Y030853D01*
X010905Y031002D01*
X010985Y031197D01*
X010985Y031408D01*
X010905Y031603D01*
X010756Y031752D01*
X010633Y031802D01*
X010756Y031853D01*
X010905Y032002D01*
X010985Y032197D01*
X010985Y032408D01*
X010905Y032603D01*
X010756Y032752D01*
X010633Y032802D01*
X010756Y032853D01*
X010905Y033002D01*
X010985Y033197D01*
X010985Y033408D01*
X010905Y033603D01*
X010756Y033752D01*
X010633Y033802D01*
X010756Y033853D01*
X010905Y034002D01*
X010985Y034197D01*
X010985Y034408D01*
X010905Y034603D01*
X010756Y034752D01*
X010561Y034832D01*
X010350Y034832D01*
X010155Y034752D01*
X010155Y035829D01*
X010161Y035882D01*
X010202Y035981D01*
X010277Y036056D01*
X010376Y036097D01*
X010429Y036102D01*
X017455Y036102D01*
X017514Y036097D01*
X017622Y036052D01*
X017705Y035969D01*
X017750Y035861D01*
X017755Y035802D01*
X017755Y034764D01*
X017744Y034773D01*
X017667Y034812D01*
X017584Y034839D01*
X017499Y034852D01*
X017475Y034852D01*
X017475Y034322D01*
X017435Y034322D01*
X017435Y034282D01*
X016905Y034282D01*
X016905Y034259D01*
X016919Y034174D01*
X016946Y034091D01*
X016985Y034014D01*
X017036Y033944D01*
X017097Y033883D01*
X017167Y033832D01*
X017244Y033793D01*
X017250Y033791D01*
X017155Y033752D01*
X017006Y033603D01*
X016925Y033408D01*
X016925Y033197D01*
X017006Y033002D01*
X017155Y032853D01*
X017278Y032802D01*
X017155Y032752D01*
X017006Y032603D01*
X016925Y032408D01*
X016925Y032197D01*
X017006Y032002D01*
X017155Y031853D01*
X017205Y031832D01*
X017019Y031832D01*
X016925Y031739D01*
X016925Y030866D01*
X017019Y030772D01*
X017755Y030772D01*
X017755Y030474D02*
X010155Y030474D01*
X010155Y030315D02*
X017755Y030315D01*
X017755Y030157D02*
X010155Y030157D01*
X010155Y029998D02*
X017755Y029998D01*
X017755Y029840D02*
X010155Y029840D01*
X010187Y029681D02*
X017724Y029681D01*
X017549Y029523D02*
X010362Y029523D01*
X010226Y028730D02*
X017668Y028730D01*
X017622Y028776D02*
X017622Y028776D01*
X017435Y027577D02*
X017412Y027577D01*
X017327Y027563D01*
X017244Y027536D01*
X017167Y027497D01*
X017097Y027446D01*
X017036Y027385D01*
X016985Y027315D01*
X016946Y027238D01*
X016919Y027156D01*
X016905Y027070D01*
X016905Y027047D01*
X017435Y027047D01*
X017435Y027577D01*
X017435Y027462D02*
X017475Y027462D01*
X017475Y027304D02*
X017435Y027304D01*
X017435Y027145D02*
X017475Y027145D01*
X017119Y027462D02*
X014792Y027462D01*
X014814Y027446D02*
X014744Y027497D01*
X014667Y027536D01*
X014584Y027563D01*
X014499Y027577D01*
X014475Y027577D01*
X014475Y027047D01*
X015005Y027047D01*
X015005Y027070D01*
X014992Y027156D01*
X014965Y027238D01*
X014926Y027315D01*
X014875Y027385D01*
X014814Y027446D01*
X014932Y027304D02*
X016979Y027304D01*
X016917Y027145D02*
X014994Y027145D01*
X015005Y026987D02*
X016905Y026987D01*
X016942Y026828D02*
X014969Y026828D01*
X014876Y026670D02*
X017035Y026670D01*
X017240Y026511D02*
X014671Y026511D01*
X014879Y026353D02*
X017032Y026353D01*
X016951Y026194D02*
X014960Y026194D01*
X014985Y026036D02*
X016925Y026036D01*
X016944Y025877D02*
X014967Y025877D01*
X014897Y025719D02*
X017014Y025719D01*
X017197Y025560D02*
X014714Y025560D01*
X014830Y025402D02*
X017081Y025402D01*
X016971Y025243D02*
X014939Y025243D01*
X014985Y025085D02*
X016925Y025085D01*
X016925Y024926D02*
X014985Y024926D01*
X014922Y024768D02*
X016989Y024768D01*
X017124Y024609D02*
X014787Y024609D01*
X014985Y024451D02*
X016925Y024451D01*
X016925Y024292D02*
X014985Y024292D01*
X014985Y024134D02*
X016925Y024134D01*
X016925Y023975D02*
X014985Y023975D01*
X014985Y023817D02*
X016925Y023817D01*
X016925Y023658D02*
X014985Y023658D01*
X014894Y023500D02*
X017016Y023500D01*
X014016Y023500D02*
X013567Y023500D01*
X013836Y023658D02*
X013925Y023658D01*
X014435Y027145D02*
X014475Y027145D01*
X014475Y027304D02*
X014435Y027304D01*
X014435Y027462D02*
X014475Y027462D01*
X014119Y027462D02*
X013770Y027462D01*
X013914Y027304D02*
X013979Y027304D01*
X014019Y030772D02*
X014892Y030772D01*
X014985Y030866D01*
X014985Y031739D01*
X014892Y031832D01*
X014706Y031832D01*
X014756Y031853D01*
X014905Y032002D01*
X014985Y032197D01*
X014985Y032408D01*
X014905Y032603D01*
X014756Y032752D01*
X014633Y032802D01*
X014756Y032853D01*
X014905Y033002D01*
X014985Y033197D01*
X014985Y033408D01*
X014905Y033603D01*
X014756Y033752D01*
X014661Y033791D01*
X014667Y033793D01*
X014744Y033832D01*
X014814Y033883D01*
X014875Y033944D01*
X014926Y034014D01*
X014965Y034091D01*
X014992Y034174D01*
X015005Y034259D01*
X015005Y034282D01*
X014475Y034282D01*
X014475Y034322D01*
X014435Y034322D01*
X014435Y034852D01*
X014412Y034852D01*
X014327Y034839D01*
X014244Y034812D01*
X014167Y034773D01*
X014097Y034722D01*
X014036Y034661D01*
X013985Y034591D01*
X013946Y034513D01*
X013944Y034508D01*
X013905Y034603D01*
X013756Y034752D01*
X013561Y034832D01*
X013350Y034832D01*
X013155Y034752D01*
X013006Y034603D01*
X012925Y034408D01*
X012925Y034197D01*
X013006Y034002D01*
X013155Y033853D01*
X013278Y033802D01*
X013155Y033752D01*
X013006Y033603D01*
X012925Y033408D01*
X012925Y033197D01*
X013006Y033002D01*
X013155Y032853D01*
X013278Y032802D01*
X013155Y032752D01*
X013006Y032603D01*
X012925Y032408D01*
X012925Y032197D01*
X013006Y032002D01*
X013155Y031853D01*
X013278Y031802D01*
X013155Y031752D01*
X013006Y031603D01*
X012925Y031408D01*
X012925Y031197D01*
X013006Y031002D01*
X013155Y030853D01*
X013350Y030772D01*
X013561Y030772D01*
X013756Y030853D01*
X013905Y031002D01*
X013925Y031052D01*
X013925Y030866D01*
X014019Y030772D01*
X014001Y030791D02*
X013605Y030791D01*
X013852Y030949D02*
X013925Y030949D01*
X013306Y030791D02*
X010605Y030791D01*
X010852Y030949D02*
X013059Y030949D01*
X012962Y031108D02*
X010948Y031108D01*
X010985Y031266D02*
X012925Y031266D01*
X012932Y031425D02*
X010978Y031425D01*
X010913Y031583D02*
X012998Y031583D01*
X013145Y031742D02*
X010766Y031742D01*
X010803Y031900D02*
X013108Y031900D01*
X012983Y032059D02*
X010928Y032059D01*
X010985Y032217D02*
X012925Y032217D01*
X012925Y032376D02*
X010985Y032376D01*
X010933Y032534D02*
X012978Y032534D01*
X013096Y032693D02*
X010815Y032693D01*
X010751Y032851D02*
X013160Y032851D01*
X013003Y033010D02*
X010908Y033010D01*
X010973Y033168D02*
X012937Y033168D01*
X012925Y033327D02*
X010985Y033327D01*
X010953Y033485D02*
X012957Y033485D01*
X013047Y033644D02*
X010864Y033644D01*
X010634Y033802D02*
X013277Y033802D01*
X013048Y033961D02*
X010863Y033961D01*
X010953Y034119D02*
X012958Y034119D01*
X012925Y034278D02*
X010985Y034278D01*
X010974Y034436D02*
X012937Y034436D01*
X013003Y034595D02*
X010908Y034595D01*
X010752Y034753D02*
X013159Y034753D01*
X013752Y034753D02*
X014140Y034753D01*
X013988Y034595D02*
X013908Y034595D01*
X014435Y034595D02*
X014475Y034595D01*
X014475Y034753D02*
X014435Y034753D01*
X014475Y034852D02*
X014475Y034322D01*
X015005Y034322D01*
X015005Y034346D01*
X014992Y034431D01*
X014965Y034513D01*
X014926Y034591D01*
X014875Y034661D01*
X014814Y034722D01*
X014744Y034773D01*
X014667Y034812D01*
X014584Y034839D01*
X014499Y034852D01*
X014475Y034852D01*
X014771Y034753D02*
X017140Y034753D01*
X017167Y034773D02*
X017097Y034722D01*
X017036Y034661D01*
X016985Y034591D01*
X016946Y034513D01*
X016919Y034431D01*
X016905Y034346D01*
X016905Y034322D01*
X017435Y034322D01*
X017435Y034852D01*
X017412Y034852D01*
X017327Y034839D01*
X017244Y034812D01*
X017167Y034773D01*
X016988Y034595D02*
X014923Y034595D01*
X014990Y034436D02*
X016921Y034436D01*
X016905Y034278D02*
X015005Y034278D01*
X014974Y034119D02*
X016937Y034119D01*
X017024Y033961D02*
X014887Y033961D01*
X014685Y033802D02*
X017226Y033802D01*
X017047Y033644D02*
X014864Y033644D01*
X014953Y033485D02*
X016957Y033485D01*
X016925Y033327D02*
X014985Y033327D01*
X014973Y033168D02*
X016937Y033168D01*
X017003Y033010D02*
X014908Y033010D01*
X014751Y032851D02*
X017160Y032851D01*
X017096Y032693D02*
X014815Y032693D01*
X014933Y032534D02*
X016978Y032534D01*
X016925Y032376D02*
X014985Y032376D01*
X014985Y032217D02*
X016925Y032217D01*
X016983Y032059D02*
X014928Y032059D01*
X014803Y031900D02*
X017108Y031900D01*
X016928Y031742D02*
X014982Y031742D01*
X014985Y031583D02*
X016925Y031583D01*
X016925Y031425D02*
X014985Y031425D01*
X014985Y031266D02*
X016925Y031266D01*
X016925Y031108D02*
X014985Y031108D01*
X014985Y030949D02*
X016925Y030949D01*
X017001Y030791D02*
X014910Y030791D01*
X018431Y030791D02*
X018582Y030791D01*
X018626Y030772D02*
X018836Y030772D01*
X019031Y030853D01*
X019180Y031002D01*
X019261Y031197D01*
X019261Y031408D01*
X019180Y031603D01*
X019031Y031752D01*
X018909Y031802D01*
X019031Y031853D01*
X019180Y032002D01*
X019261Y032197D01*
X019261Y032408D01*
X019180Y032603D01*
X019031Y032752D01*
X018909Y032802D01*
X019031Y032853D01*
X019180Y033002D01*
X019261Y033197D01*
X019261Y033408D01*
X019180Y033603D01*
X019031Y033752D01*
X018909Y033802D01*
X019031Y033853D01*
X019180Y034002D01*
X019261Y034197D01*
X019261Y034408D01*
X019180Y034603D01*
X019031Y034752D01*
X018836Y034832D01*
X018626Y034832D01*
X018431Y034752D01*
X018431Y035829D01*
X018436Y035882D01*
X018477Y035981D01*
X018553Y036056D01*
X018651Y036097D01*
X018705Y036102D01*
X025731Y036102D01*
X025790Y036097D01*
X025898Y036052D01*
X025980Y035969D01*
X026025Y035861D01*
X026031Y035802D01*
X026031Y034764D01*
X026019Y034773D01*
X025942Y034812D01*
X025860Y034839D01*
X025774Y034852D01*
X025751Y034852D01*
X025751Y034322D01*
X025711Y034322D01*
X025711Y034282D01*
X025181Y034282D01*
X025181Y034259D01*
X025195Y034174D01*
X025221Y034091D01*
X025261Y034014D01*
X025311Y033944D01*
X025373Y033883D01*
X025443Y033832D01*
X025520Y033793D01*
X025525Y033791D01*
X025431Y033752D01*
X025282Y033603D01*
X025201Y033408D01*
X025201Y033197D01*
X025282Y033002D01*
X025431Y032853D01*
X025553Y032802D01*
X025431Y032752D01*
X025282Y032603D01*
X025201Y032408D01*
X025201Y032197D01*
X025282Y032002D01*
X025431Y031853D01*
X025481Y031832D01*
X025295Y031832D01*
X025201Y031739D01*
X025201Y030866D01*
X025295Y030772D01*
X026031Y030772D01*
X026031Y029802D01*
X026025Y029744D01*
X025980Y029636D01*
X025898Y029553D01*
X025790Y029508D01*
X025731Y029502D01*
X018731Y029502D01*
X018672Y029508D01*
X018564Y029553D01*
X018482Y029636D01*
X018437Y029744D01*
X018431Y029802D01*
X018431Y030853D01*
X018626Y030772D01*
X018431Y030632D02*
X026031Y030632D01*
X026031Y030474D02*
X018431Y030474D01*
X018431Y030315D02*
X026031Y030315D01*
X026031Y030157D02*
X018431Y030157D01*
X018431Y029998D02*
X026031Y029998D01*
X026031Y029840D02*
X018431Y029840D01*
X018463Y029681D02*
X025999Y029681D01*
X025824Y029523D02*
X018638Y029523D01*
X018880Y030791D02*
X021582Y030791D01*
X021626Y030772D02*
X021836Y030772D01*
X022031Y030853D01*
X022180Y031002D01*
X022201Y031052D01*
X022201Y030866D01*
X022295Y030772D01*
X023167Y030772D01*
X023261Y030866D01*
X023261Y031739D01*
X023167Y031832D01*
X022981Y031832D01*
X023031Y031853D01*
X023180Y032002D01*
X023261Y032197D01*
X023261Y032408D01*
X023180Y032603D01*
X023031Y032752D01*
X022909Y032802D01*
X023031Y032853D01*
X023180Y033002D01*
X023261Y033197D01*
X023261Y033408D01*
X023180Y033603D01*
X023031Y033752D01*
X022937Y033791D01*
X022942Y033793D01*
X023019Y033832D01*
X023089Y033883D01*
X023150Y033944D01*
X023201Y034014D01*
X023241Y034091D01*
X023267Y034174D01*
X023281Y034259D01*
X023281Y034282D01*
X022751Y034282D01*
X022751Y034322D01*
X023281Y034322D01*
X023281Y034346D01*
X023267Y034431D01*
X023241Y034513D01*
X023201Y034591D01*
X023150Y034661D01*
X023089Y034722D01*
X023019Y034773D01*
X022942Y034812D01*
X022860Y034839D01*
X022774Y034852D01*
X022751Y034852D01*
X022751Y034322D01*
X022711Y034322D01*
X022711Y034852D01*
X022688Y034852D01*
X022602Y034839D01*
X022520Y034812D01*
X022443Y034773D01*
X022373Y034722D01*
X022311Y034661D01*
X022261Y034591D01*
X022221Y034513D01*
X022219Y034508D01*
X022180Y034603D01*
X022031Y034752D01*
X021836Y034832D01*
X021626Y034832D01*
X021431Y034752D01*
X021282Y034603D01*
X021201Y034408D01*
X021201Y034197D01*
X021282Y034002D01*
X021431Y033853D01*
X021553Y033802D01*
X021431Y033752D01*
X021282Y033603D01*
X021201Y033408D01*
X021201Y033197D01*
X021282Y033002D01*
X021431Y032853D01*
X021553Y032802D01*
X021431Y032752D01*
X021282Y032603D01*
X021201Y032408D01*
X021201Y032197D01*
X021282Y032002D01*
X021431Y031853D01*
X021553Y031802D01*
X021431Y031752D01*
X021282Y031603D01*
X021201Y031408D01*
X021201Y031197D01*
X021282Y031002D01*
X021431Y030853D01*
X021626Y030772D01*
X021880Y030791D02*
X022277Y030791D01*
X022201Y030949D02*
X022127Y030949D01*
X021335Y030949D02*
X019127Y030949D01*
X019224Y031108D02*
X021238Y031108D01*
X021201Y031266D02*
X019261Y031266D01*
X019254Y031425D02*
X021208Y031425D01*
X021274Y031583D02*
X019188Y031583D01*
X019041Y031742D02*
X021421Y031742D01*
X021384Y031900D02*
X019078Y031900D01*
X019204Y032059D02*
X021258Y032059D01*
X021201Y032217D02*
X019261Y032217D01*
X019261Y032376D02*
X021201Y032376D01*
X021253Y032534D02*
X019209Y032534D01*
X019090Y032693D02*
X021372Y032693D01*
X021436Y032851D02*
X019026Y032851D01*
X019183Y033010D02*
X021279Y033010D01*
X021213Y033168D02*
X019249Y033168D01*
X019261Y033327D02*
X021201Y033327D01*
X021233Y033485D02*
X019229Y033485D01*
X019139Y033644D02*
X021323Y033644D01*
X021552Y033802D02*
X018910Y033802D01*
X019139Y033961D02*
X021323Y033961D01*
X021233Y034119D02*
X019229Y034119D01*
X019261Y034278D02*
X021201Y034278D01*
X021213Y034436D02*
X019249Y034436D01*
X019184Y034595D02*
X021278Y034595D01*
X021434Y034753D02*
X019028Y034753D01*
X018434Y034753D02*
X018431Y034753D01*
X018431Y034912D02*
X026031Y034912D01*
X026031Y035070D02*
X018431Y035070D01*
X018431Y035229D02*
X026031Y035229D01*
X026031Y035387D02*
X018431Y035387D01*
X018431Y035546D02*
X026031Y035546D01*
X026031Y035704D02*
X018431Y035704D01*
X018434Y035863D02*
X026025Y035863D01*
X025928Y036021D02*
X018517Y036021D01*
X017749Y035863D02*
X010159Y035863D01*
X010155Y035704D02*
X017755Y035704D01*
X017755Y035546D02*
X010155Y035546D01*
X010155Y035387D02*
X017755Y035387D01*
X017755Y035229D02*
X010155Y035229D01*
X010155Y035070D02*
X017755Y035070D01*
X017755Y034912D02*
X010155Y034912D01*
X010155Y034753D02*
X010159Y034753D01*
X009480Y034912D02*
X001880Y034912D01*
X001880Y035070D02*
X009480Y035070D01*
X009480Y035229D02*
X001880Y035229D01*
X001880Y035387D02*
X009480Y035387D01*
X009480Y035546D02*
X001880Y035546D01*
X001880Y035704D02*
X009480Y035704D01*
X009473Y035863D02*
X001883Y035863D01*
X001966Y036021D02*
X009377Y036021D01*
X010242Y036021D02*
X017653Y036021D01*
X017475Y034753D02*
X017435Y034753D01*
X017435Y034595D02*
X017475Y034595D01*
X017475Y034436D02*
X017435Y034436D01*
X014475Y034436D02*
X014435Y034436D01*
X010306Y030791D02*
X010155Y030791D01*
X008725Y030791D02*
X006634Y030791D01*
X006710Y030949D02*
X008650Y030949D01*
X008650Y031108D02*
X006710Y031108D01*
X006710Y031266D02*
X008650Y031266D01*
X008650Y031425D02*
X006710Y031425D01*
X006710Y031583D02*
X008650Y031583D01*
X008653Y031742D02*
X006707Y031742D01*
X006527Y031900D02*
X008833Y031900D01*
X008707Y032059D02*
X006652Y032059D01*
X006710Y032217D02*
X008650Y032217D01*
X008650Y032376D02*
X006710Y032376D01*
X006658Y032534D02*
X008702Y032534D01*
X008820Y032693D02*
X006539Y032693D01*
X006475Y032851D02*
X008884Y032851D01*
X008727Y033010D02*
X006632Y033010D01*
X006698Y033168D02*
X008662Y033168D01*
X008650Y033327D02*
X006710Y033327D01*
X006678Y033485D02*
X008682Y033485D01*
X008771Y033644D02*
X006588Y033644D01*
X006409Y033802D02*
X008950Y033802D01*
X008748Y033961D02*
X006611Y033961D01*
X006699Y034119D02*
X008661Y034119D01*
X008630Y034278D02*
X006730Y034278D01*
X006715Y034436D02*
X008645Y034436D01*
X008643Y034431D02*
X008630Y034346D01*
X008630Y034322D01*
X009160Y034322D01*
X009160Y034852D01*
X009137Y034852D01*
X009051Y034839D01*
X008969Y034812D01*
X008892Y034773D01*
X008822Y034722D01*
X008760Y034661D01*
X008709Y034591D01*
X008670Y034513D01*
X008643Y034431D01*
X008712Y034595D02*
X006647Y034595D01*
X006495Y034753D02*
X008864Y034753D01*
X009160Y034753D02*
X009200Y034753D01*
X009200Y034595D02*
X009160Y034595D01*
X009160Y034436D02*
X009200Y034436D01*
X006200Y034436D02*
X006160Y034436D01*
X006160Y034595D02*
X006200Y034595D01*
X006200Y034753D02*
X006160Y034753D01*
X005864Y034753D02*
X005477Y034753D01*
X005632Y034595D02*
X005712Y034595D01*
X004883Y034753D02*
X002477Y034753D01*
X002632Y034595D02*
X004727Y034595D01*
X004662Y034436D02*
X002698Y034436D01*
X002710Y034278D02*
X004650Y034278D01*
X004682Y034119D02*
X002678Y034119D01*
X002629Y034002D02*
X002480Y033853D01*
X002358Y033802D01*
X002588Y033644D02*
X004771Y033644D01*
X004682Y033485D02*
X002678Y033485D01*
X002710Y033327D02*
X004650Y033327D01*
X004662Y033168D02*
X002698Y033168D01*
X002632Y033010D02*
X004727Y033010D01*
X004884Y032851D02*
X002475Y032851D01*
X002539Y032693D02*
X004820Y032693D01*
X004702Y032534D02*
X002658Y032534D01*
X002710Y032376D02*
X004650Y032376D01*
X004650Y032217D02*
X002710Y032217D01*
X002652Y032059D02*
X004707Y032059D01*
X004833Y031900D02*
X002527Y031900D01*
X002490Y031742D02*
X004869Y031742D01*
X004722Y031583D02*
X002637Y031583D01*
X002703Y031425D02*
X004657Y031425D01*
X004650Y031266D02*
X002710Y031266D01*
X002673Y031108D02*
X004687Y031108D01*
X004784Y030949D02*
X002576Y030949D01*
X002329Y030791D02*
X005030Y030791D01*
X005329Y030791D02*
X005725Y030791D01*
X005650Y030949D02*
X005576Y030949D01*
X005494Y027462D02*
X005843Y027462D01*
X005704Y027304D02*
X005639Y027304D01*
X006160Y027304D02*
X006200Y027304D01*
X006200Y027462D02*
X006160Y027462D01*
X006160Y027145D02*
X006200Y027145D01*
X004866Y027462D02*
X002494Y027462D01*
X002639Y027304D02*
X004721Y027304D01*
X004655Y027145D02*
X002704Y027145D01*
X002710Y026987D02*
X004650Y026987D01*
X004688Y026828D02*
X002671Y026828D01*
X002572Y026670D02*
X004788Y026670D01*
X004964Y026511D02*
X002396Y026511D01*
X002604Y026353D02*
X004756Y026353D01*
X004675Y026194D02*
X002684Y026194D01*
X002710Y026036D02*
X004650Y026036D01*
X004668Y025877D02*
X002691Y025877D01*
X002621Y025719D02*
X004739Y025719D01*
X004922Y025560D02*
X002438Y025560D01*
X002555Y025402D02*
X004805Y025402D01*
X004696Y025243D02*
X002664Y025243D01*
X002710Y025085D02*
X004650Y025085D01*
X004650Y024926D02*
X002710Y024926D01*
X002646Y024768D02*
X004714Y024768D01*
X004848Y024609D02*
X002512Y024609D01*
X002506Y024451D02*
X004854Y024451D01*
X004716Y024292D02*
X002644Y024292D01*
X002709Y024134D02*
X004650Y024134D01*
X004650Y023975D02*
X002710Y023975D01*
X002666Y023817D02*
X004693Y023817D01*
X004799Y023658D02*
X002561Y023658D01*
X002292Y023500D02*
X005068Y023500D01*
X005292Y023500D02*
X005741Y023500D01*
X005650Y023658D02*
X005561Y023658D01*
X008822Y020171D02*
X008760Y020109D01*
X008709Y020039D01*
X009160Y020013D02*
X009200Y020013D01*
X009200Y020171D02*
X009160Y020171D01*
X009160Y019854D02*
X009200Y019854D01*
X009480Y020330D02*
X001880Y020330D01*
X001880Y020488D02*
X009480Y020488D01*
X009480Y020647D02*
X001880Y020647D01*
X001880Y020805D02*
X009480Y020805D01*
X009480Y020964D02*
X001880Y020964D01*
X001880Y021122D02*
X009480Y021122D01*
X009477Y021281D02*
X001880Y021281D01*
X001926Y021430D02*
X001926Y021430D01*
X001935Y021439D02*
X009408Y021439D01*
X009228Y022232D02*
X002131Y022232D01*
X001918Y022390D02*
X009442Y022390D01*
X002068Y023500D02*
X001880Y023500D01*
X001880Y030791D02*
X002030Y030791D01*
X001880Y034753D02*
X001883Y034753D01*
X022028Y034753D02*
X022416Y034753D01*
X022263Y034595D02*
X022184Y034595D01*
X022711Y034595D02*
X022751Y034595D01*
X022751Y034753D02*
X022711Y034753D01*
X022711Y034436D02*
X022751Y034436D01*
X023046Y034753D02*
X025416Y034753D01*
X025443Y034773D02*
X025373Y034722D01*
X025311Y034661D01*
X025261Y034591D01*
X025221Y034513D01*
X025195Y034431D01*
X025181Y034346D01*
X025181Y034322D01*
X025711Y034322D01*
X025711Y034852D01*
X025688Y034852D01*
X025602Y034839D01*
X025520Y034812D01*
X025443Y034773D01*
X025263Y034595D02*
X023199Y034595D01*
X023266Y034436D02*
X025196Y034436D01*
X025181Y034278D02*
X023281Y034278D01*
X023250Y034119D02*
X025212Y034119D01*
X025299Y033961D02*
X023162Y033961D01*
X022961Y033802D02*
X025501Y033802D01*
X025323Y033644D02*
X023139Y033644D01*
X023229Y033485D02*
X025233Y033485D01*
X025201Y033327D02*
X023261Y033327D01*
X023249Y033168D02*
X025213Y033168D01*
X025279Y033010D02*
X023183Y033010D01*
X023026Y032851D02*
X025436Y032851D01*
X025372Y032693D02*
X023090Y032693D01*
X023209Y032534D02*
X025253Y032534D01*
X025201Y032376D02*
X023261Y032376D01*
X023261Y032217D02*
X025201Y032217D01*
X025258Y032059D02*
X023204Y032059D01*
X023078Y031900D02*
X025384Y031900D01*
X025204Y031742D02*
X023258Y031742D01*
X023261Y031583D02*
X025201Y031583D01*
X025201Y031425D02*
X023261Y031425D01*
X023261Y031266D02*
X025201Y031266D01*
X025201Y031108D02*
X023261Y031108D01*
X023261Y030949D02*
X025201Y030949D01*
X025277Y030791D02*
X023185Y030791D01*
X022774Y027577D02*
X022751Y027577D01*
X022751Y027047D01*
X023281Y027047D01*
X023281Y027070D01*
X023267Y027156D01*
X023241Y027238D01*
X023201Y027315D01*
X023150Y027385D01*
X023089Y027446D01*
X023019Y027497D01*
X022942Y027536D01*
X022860Y027563D01*
X022774Y027577D01*
X022751Y027462D02*
X022711Y027462D01*
X022711Y027304D02*
X022751Y027304D01*
X022751Y027145D02*
X022711Y027145D01*
X022394Y027462D02*
X022045Y027462D01*
X022190Y027304D02*
X022255Y027304D01*
X023068Y027462D02*
X025394Y027462D01*
X025255Y027304D02*
X023207Y027304D01*
X023269Y027145D02*
X025193Y027145D01*
X025181Y026987D02*
X023281Y026987D01*
X023245Y026828D02*
X025217Y026828D01*
X025311Y026670D02*
X023151Y026670D01*
X022947Y026511D02*
X025515Y026511D01*
X025307Y026353D02*
X023155Y026353D01*
X023235Y026194D02*
X025227Y026194D01*
X025201Y026036D02*
X023261Y026036D01*
X023243Y025877D02*
X025219Y025877D01*
X025290Y025719D02*
X023172Y025719D01*
X022989Y025560D02*
X025473Y025560D01*
X025356Y025402D02*
X023106Y025402D01*
X023215Y025243D02*
X025247Y025243D01*
X025201Y025085D02*
X023261Y025085D01*
X023261Y024926D02*
X025201Y024926D01*
X025265Y024768D02*
X023197Y024768D01*
X023063Y024609D02*
X025399Y024609D01*
X025201Y024451D02*
X023261Y024451D01*
X023261Y024292D02*
X025201Y024292D01*
X025201Y024134D02*
X023261Y024134D01*
X023261Y023975D02*
X025201Y023975D01*
X025201Y023817D02*
X023261Y023817D01*
X023261Y023658D02*
X025201Y023658D01*
X025292Y023500D02*
X023170Y023500D01*
X026707Y023500D02*
X026894Y023500D01*
X026901Y023497D02*
X027112Y023497D01*
X027307Y023577D01*
X027456Y023727D01*
X027537Y023921D01*
X027537Y024132D01*
X027456Y024327D01*
X027307Y024476D01*
X027184Y024527D01*
X027307Y024577D01*
X027456Y024727D01*
X027537Y024921D01*
X027537Y025132D01*
X027456Y025327D01*
X027307Y025476D01*
X027184Y025527D01*
X027307Y025577D01*
X027456Y025727D01*
X027537Y025921D01*
X027537Y026132D01*
X027456Y026327D01*
X027307Y026476D01*
X027184Y026527D01*
X027307Y026577D01*
X027456Y026727D01*
X027537Y026921D01*
X027537Y027132D01*
X027456Y027327D01*
X027307Y027476D01*
X027112Y027557D01*
X026901Y027557D01*
X026707Y027476D01*
X026707Y028553D01*
X026712Y028607D01*
X026753Y028705D01*
X026828Y028781D01*
X026927Y028822D01*
X026980Y028827D01*
X034007Y028827D01*
X034065Y028821D01*
X034173Y028776D01*
X034256Y028693D01*
X034301Y028585D01*
X034307Y028527D01*
X034307Y027489D01*
X034295Y027497D01*
X034218Y027536D01*
X034135Y027563D01*
X034050Y027577D01*
X034027Y027577D01*
X034027Y027047D01*
X033987Y027047D01*
X033987Y027577D01*
X033963Y027577D01*
X033878Y027563D01*
X033795Y027536D01*
X033718Y027497D01*
X033648Y027446D01*
X033587Y027385D01*
X033536Y027315D01*
X033497Y027238D01*
X033470Y027156D01*
X033457Y027070D01*
X033457Y027047D01*
X033987Y027047D01*
X033987Y027007D01*
X033457Y027007D01*
X033457Y026983D01*
X033470Y026898D01*
X033497Y026816D01*
X033536Y026739D01*
X033587Y026668D01*
X033648Y026607D01*
X033718Y026556D01*
X033795Y026517D01*
X033801Y026515D01*
X033706Y026476D01*
X033557Y026327D01*
X033477Y026132D01*
X033477Y025921D01*
X033557Y025727D01*
X033706Y025577D01*
X033829Y025527D01*
X033706Y025476D01*
X033557Y025327D01*
X033477Y025132D01*
X033477Y024921D01*
X033557Y024727D01*
X033706Y024577D01*
X033756Y024557D01*
X033570Y024557D01*
X033477Y024463D01*
X033477Y023590D01*
X033570Y023497D01*
X034307Y023497D01*
X034307Y022527D01*
X034301Y022468D01*
X034256Y022360D01*
X034173Y022277D01*
X034065Y022233D01*
X034007Y022227D01*
X027007Y022227D01*
X026948Y022233D01*
X026840Y022277D01*
X026757Y022360D01*
X026712Y022468D01*
X026707Y022527D01*
X026707Y023577D01*
X026901Y023497D01*
X027119Y023500D02*
X029894Y023500D01*
X029901Y023497D02*
X030112Y023497D01*
X030307Y023577D01*
X030456Y023727D01*
X030477Y023777D01*
X030477Y023590D01*
X030570Y023497D01*
X031443Y023497D01*
X031537Y023590D01*
X031537Y024463D01*
X031443Y024557D01*
X031257Y024557D01*
X031307Y024577D01*
X031456Y024727D01*
X031537Y024921D01*
X031537Y025132D01*
X031456Y025327D01*
X031307Y025476D01*
X031184Y025527D01*
X031307Y025577D01*
X031456Y025727D01*
X031537Y025921D01*
X031537Y026132D01*
X031456Y026327D01*
X031307Y026476D01*
X031212Y026515D01*
X031218Y026517D01*
X031295Y026556D01*
X031365Y026607D01*
X031426Y026668D01*
X031477Y026739D01*
X031516Y026816D01*
X031543Y026898D01*
X031557Y026983D01*
X031557Y027007D01*
X031027Y027007D01*
X031027Y027047D01*
X031557Y027047D01*
X031557Y027070D01*
X031543Y027156D01*
X031516Y027238D01*
X031477Y027315D01*
X031426Y027385D01*
X031365Y027446D01*
X031295Y027497D01*
X031218Y027536D01*
X031135Y027563D01*
X031050Y027577D01*
X031027Y027577D01*
X031027Y027047D01*
X030987Y027047D01*
X030987Y027577D01*
X030963Y027577D01*
X030878Y027563D01*
X030795Y027536D01*
X030718Y027497D01*
X030648Y027446D01*
X030587Y027385D01*
X030536Y027315D01*
X030497Y027238D01*
X030495Y027232D01*
X030456Y027327D01*
X030307Y027476D01*
X030112Y027557D01*
X029901Y027557D01*
X029706Y027476D01*
X029557Y027327D01*
X029477Y027132D01*
X029477Y026921D01*
X029557Y026727D01*
X029706Y026577D01*
X029829Y026527D01*
X029706Y026476D01*
X029557Y026327D01*
X029477Y026132D01*
X029477Y025921D01*
X029557Y025727D01*
X029706Y025577D01*
X029829Y025527D01*
X029706Y025476D01*
X029557Y025327D01*
X029477Y025132D01*
X029477Y024921D01*
X029557Y024727D01*
X029706Y024577D01*
X029829Y024527D01*
X029706Y024476D01*
X029557Y024327D01*
X029477Y024132D01*
X029477Y023921D01*
X029557Y023727D01*
X029706Y023577D01*
X029901Y023497D01*
X030119Y023500D02*
X030568Y023500D01*
X030477Y023658D02*
X030387Y023658D01*
X029626Y023658D02*
X027387Y023658D01*
X027493Y023817D02*
X029520Y023817D01*
X029477Y023975D02*
X027537Y023975D01*
X027536Y024134D02*
X029477Y024134D01*
X029543Y024292D02*
X027470Y024292D01*
X027332Y024451D02*
X029681Y024451D01*
X029675Y024609D02*
X027338Y024609D01*
X027473Y024768D02*
X029540Y024768D01*
X029477Y024926D02*
X027537Y024926D01*
X027537Y025085D02*
X029477Y025085D01*
X029522Y025243D02*
X027491Y025243D01*
X027381Y025402D02*
X029632Y025402D01*
X029748Y025560D02*
X027265Y025560D01*
X027448Y025719D02*
X029565Y025719D01*
X029495Y025877D02*
X027518Y025877D01*
X027537Y026036D02*
X029477Y026036D01*
X029502Y026194D02*
X027511Y026194D01*
X027430Y026353D02*
X029583Y026353D01*
X029791Y026511D02*
X027222Y026511D01*
X027399Y026670D02*
X029614Y026670D01*
X029515Y026828D02*
X027498Y026828D01*
X027537Y026987D02*
X029477Y026987D01*
X029482Y027145D02*
X027531Y027145D01*
X027466Y027304D02*
X029548Y027304D01*
X029692Y027462D02*
X027321Y027462D01*
X026707Y027621D02*
X034307Y027621D01*
X034307Y027779D02*
X026707Y027779D01*
X026707Y027938D02*
X034307Y027938D01*
X034307Y028096D02*
X026707Y028096D01*
X026707Y028255D02*
X034307Y028255D01*
X034307Y028413D02*
X026707Y028413D01*
X026708Y028572D02*
X034302Y028572D01*
X034219Y028730D02*
X026778Y028730D01*
X026948Y029508D02*
X026840Y029553D01*
X026757Y029636D01*
X026712Y029744D01*
X026707Y029802D01*
X026707Y030853D01*
X026901Y030772D01*
X027112Y030772D01*
X027307Y030853D01*
X027456Y031002D01*
X027537Y031197D01*
X027537Y031408D01*
X027456Y031603D01*
X027307Y031752D01*
X027184Y031802D01*
X027307Y031853D01*
X027456Y032002D01*
X027537Y032197D01*
X027537Y032408D01*
X027456Y032603D01*
X027307Y032752D01*
X027184Y032802D01*
X027307Y032853D01*
X027456Y033002D01*
X027537Y033197D01*
X027537Y033408D01*
X027456Y033603D01*
X027307Y033752D01*
X027184Y033802D01*
X027307Y033853D01*
X027456Y034002D01*
X027537Y034197D01*
X027537Y034408D01*
X027456Y034603D01*
X027307Y034752D01*
X027112Y034832D01*
X026901Y034832D01*
X026707Y034752D01*
X026707Y035829D01*
X026712Y035882D01*
X026753Y035981D01*
X026828Y036056D01*
X026927Y036097D01*
X026980Y036102D01*
X034007Y036102D01*
X034065Y036097D01*
X034173Y036052D01*
X034256Y035969D01*
X034301Y035861D01*
X034307Y035802D01*
X034307Y034764D01*
X034295Y034773D01*
X034218Y034812D01*
X034135Y034839D01*
X034050Y034852D01*
X034027Y034852D01*
X034027Y034322D01*
X033987Y034322D01*
X033987Y034852D01*
X033963Y034852D01*
X033878Y034839D01*
X033795Y034812D01*
X033718Y034773D01*
X033648Y034722D01*
X033587Y034661D01*
X033536Y034591D01*
X033497Y034513D01*
X033470Y034431D01*
X033457Y034346D01*
X033457Y034322D01*
X033987Y034322D01*
X033987Y034282D01*
X033457Y034282D01*
X033457Y034259D01*
X033470Y034174D01*
X033497Y034091D01*
X033536Y034014D01*
X033587Y033944D01*
X033648Y033883D01*
X033718Y033832D01*
X033795Y033793D01*
X033801Y033791D01*
X033706Y033752D01*
X033557Y033603D01*
X033477Y033408D01*
X033477Y033197D01*
X033557Y033002D01*
X033706Y032853D01*
X033829Y032802D01*
X033706Y032752D01*
X033557Y032603D01*
X033477Y032408D01*
X033477Y032197D01*
X033557Y032002D01*
X033706Y031853D01*
X033756Y031832D01*
X033570Y031832D01*
X033477Y031739D01*
X033477Y030866D01*
X033570Y030772D01*
X034307Y030772D01*
X034307Y029802D01*
X034301Y029744D01*
X034256Y029636D01*
X034173Y029553D01*
X034065Y029508D01*
X034007Y029502D01*
X027007Y029502D01*
X026948Y029508D01*
X026913Y029523D02*
X034100Y029523D01*
X034275Y029681D02*
X026738Y029681D01*
X026707Y029840D02*
X034307Y029840D01*
X034307Y029998D02*
X026707Y029998D01*
X026707Y030157D02*
X034307Y030157D01*
X034307Y030315D02*
X026707Y030315D01*
X026707Y030474D02*
X034307Y030474D01*
X034307Y030632D02*
X026707Y030632D01*
X026707Y030791D02*
X026857Y030791D01*
X027156Y030791D02*
X029857Y030791D01*
X029901Y030772D02*
X030112Y030772D01*
X030307Y030853D01*
X030456Y031002D01*
X030477Y031052D01*
X030477Y030866D01*
X030570Y030772D01*
X031443Y030772D01*
X031537Y030866D01*
X031537Y031739D01*
X031443Y031832D01*
X031257Y031832D01*
X031307Y031853D01*
X031456Y032002D01*
X031537Y032197D01*
X031537Y032408D01*
X031456Y032603D01*
X031307Y032752D01*
X031184Y032802D01*
X031307Y032853D01*
X031456Y033002D01*
X031537Y033197D01*
X031537Y033408D01*
X031456Y033603D01*
X031307Y033752D01*
X031212Y033791D01*
X031218Y033793D01*
X031295Y033832D01*
X031365Y033883D01*
X031426Y033944D01*
X031477Y034014D01*
X031516Y034091D01*
X031543Y034174D01*
X031557Y034259D01*
X031557Y034282D01*
X031027Y034282D01*
X031027Y034322D01*
X031557Y034322D01*
X031557Y034346D01*
X031543Y034431D01*
X031516Y034513D01*
X031477Y034591D01*
X031426Y034661D01*
X031365Y034722D01*
X031295Y034773D01*
X031218Y034812D01*
X031135Y034839D01*
X031050Y034852D01*
X031027Y034852D01*
X031027Y034322D01*
X030987Y034322D01*
X030987Y034852D01*
X030963Y034852D01*
X030878Y034839D01*
X030795Y034812D01*
X030718Y034773D01*
X030648Y034722D01*
X030587Y034661D01*
X030536Y034591D01*
X030497Y034513D01*
X030495Y034508D01*
X030456Y034603D01*
X030307Y034752D01*
X030112Y034832D01*
X029901Y034832D01*
X029706Y034752D01*
X029557Y034603D01*
X029477Y034408D01*
X029477Y034197D01*
X029557Y034002D01*
X029706Y033853D01*
X029829Y033802D01*
X029706Y033752D01*
X029557Y033603D01*
X029477Y033408D01*
X029477Y033197D01*
X029557Y033002D01*
X029706Y032853D01*
X029829Y032802D01*
X029706Y032752D01*
X029557Y032603D01*
X029477Y032408D01*
X029477Y032197D01*
X029557Y032002D01*
X029706Y031853D01*
X029829Y031802D01*
X029706Y031752D01*
X029557Y031603D01*
X029477Y031408D01*
X029477Y031197D01*
X029557Y031002D01*
X029706Y030853D01*
X029901Y030772D01*
X030156Y030791D02*
X030552Y030791D01*
X030477Y030949D02*
X030403Y030949D01*
X031461Y030791D02*
X033552Y030791D01*
X033477Y030949D02*
X031537Y030949D01*
X031537Y031108D02*
X033477Y031108D01*
X033477Y031266D02*
X031537Y031266D01*
X031537Y031425D02*
X033477Y031425D01*
X033477Y031583D02*
X031537Y031583D01*
X031534Y031742D02*
X033479Y031742D01*
X033659Y031900D02*
X031354Y031900D01*
X031479Y032059D02*
X033534Y032059D01*
X033477Y032217D02*
X031537Y032217D01*
X031537Y032376D02*
X033477Y032376D01*
X033529Y032534D02*
X031484Y032534D01*
X031366Y032693D02*
X033647Y032693D01*
X033711Y032851D02*
X031302Y032851D01*
X031459Y033010D02*
X033554Y033010D01*
X033489Y033168D02*
X031525Y033168D01*
X031537Y033327D02*
X033477Y033327D01*
X033509Y033485D02*
X031505Y033485D01*
X031415Y033644D02*
X033598Y033644D01*
X033777Y033802D02*
X031236Y033802D01*
X031438Y033961D02*
X033575Y033961D01*
X033488Y034119D02*
X031525Y034119D01*
X031557Y034278D02*
X033457Y034278D01*
X033472Y034436D02*
X031541Y034436D01*
X031474Y034595D02*
X033539Y034595D01*
X033691Y034753D02*
X031322Y034753D01*
X031027Y034753D02*
X030987Y034753D01*
X030987Y034595D02*
X031027Y034595D01*
X031027Y034436D02*
X030987Y034436D01*
X030691Y034753D02*
X030303Y034753D01*
X030459Y034595D02*
X030539Y034595D01*
X029710Y034753D02*
X027303Y034753D01*
X027459Y034595D02*
X029554Y034595D01*
X029488Y034436D02*
X027525Y034436D01*
X027537Y034278D02*
X029477Y034278D01*
X029509Y034119D02*
X027504Y034119D01*
X027414Y033961D02*
X029599Y033961D01*
X029828Y033802D02*
X027185Y033802D01*
X027415Y033644D02*
X029598Y033644D01*
X029509Y033485D02*
X027505Y033485D01*
X027537Y033327D02*
X029477Y033327D01*
X029489Y033168D02*
X027525Y033168D01*
X027459Y033010D02*
X029554Y033010D01*
X029711Y032851D02*
X027302Y032851D01*
X027366Y032693D02*
X029647Y032693D01*
X029529Y032534D02*
X027484Y032534D01*
X027537Y032376D02*
X029477Y032376D01*
X029477Y032217D02*
X027537Y032217D01*
X027479Y032059D02*
X029534Y032059D01*
X029659Y031900D02*
X027354Y031900D01*
X027317Y031742D02*
X029696Y031742D01*
X029549Y031583D02*
X027464Y031583D01*
X027530Y031425D02*
X029484Y031425D01*
X029477Y031266D02*
X027537Y031266D01*
X027500Y031108D02*
X029514Y031108D01*
X029610Y030949D02*
X027403Y030949D01*
X025751Y027462D02*
X025711Y027462D01*
X025711Y027304D02*
X025751Y027304D01*
X025751Y027145D02*
X025711Y027145D01*
X026707Y023341D02*
X034307Y023341D01*
X034307Y023183D02*
X026707Y023183D01*
X026707Y023024D02*
X034307Y023024D01*
X034307Y022866D02*
X026707Y022866D01*
X026707Y022707D02*
X034307Y022707D01*
X034307Y022549D02*
X026707Y022549D01*
X026745Y022390D02*
X034268Y022390D01*
X034055Y022232D02*
X026958Y022232D01*
X031446Y023500D02*
X033568Y023500D01*
X033477Y023658D02*
X031537Y023658D01*
X031537Y023817D02*
X033477Y023817D01*
X033477Y023975D02*
X031537Y023975D01*
X031537Y024134D02*
X033477Y024134D01*
X033477Y024292D02*
X031537Y024292D01*
X031537Y024451D02*
X033477Y024451D01*
X033675Y024609D02*
X031338Y024609D01*
X031473Y024768D02*
X033540Y024768D01*
X033477Y024926D02*
X031537Y024926D01*
X031537Y025085D02*
X033477Y025085D01*
X033522Y025243D02*
X031491Y025243D01*
X031381Y025402D02*
X033632Y025402D01*
X033748Y025560D02*
X031265Y025560D01*
X031448Y025719D02*
X033565Y025719D01*
X033495Y025877D02*
X031518Y025877D01*
X031537Y026036D02*
X033477Y026036D01*
X033502Y026194D02*
X031511Y026194D01*
X031430Y026353D02*
X033583Y026353D01*
X033791Y026511D02*
X031222Y026511D01*
X031427Y026670D02*
X033586Y026670D01*
X033493Y026828D02*
X031520Y026828D01*
X031557Y026987D02*
X033457Y026987D01*
X033468Y027145D02*
X031545Y027145D01*
X031483Y027304D02*
X033530Y027304D01*
X033670Y027462D02*
X031343Y027462D01*
X031027Y027462D02*
X030987Y027462D01*
X030987Y027304D02*
X031027Y027304D01*
X031027Y027145D02*
X030987Y027145D01*
X030670Y027462D02*
X030321Y027462D01*
X030466Y027304D02*
X030530Y027304D01*
X033987Y027304D02*
X034027Y027304D01*
X034027Y027462D02*
X033987Y027462D01*
X033987Y027145D02*
X034027Y027145D01*
X033987Y020171D02*
X034027Y020171D01*
X034027Y020013D02*
X033987Y020013D01*
X033987Y019854D02*
X034027Y019854D01*
X030477Y016367D02*
X030372Y016367D01*
X033987Y012880D02*
X034027Y012880D01*
X034027Y012722D02*
X033987Y012722D01*
X033987Y012563D02*
X034027Y012563D01*
X030477Y009076D02*
X030357Y009076D01*
X029657Y009076D02*
X027357Y009076D01*
X027480Y009235D02*
X029533Y009235D01*
X029477Y009393D02*
X027537Y009393D01*
X027537Y009552D02*
X029477Y009552D01*
X029530Y009710D02*
X027483Y009710D01*
X027363Y009869D02*
X029650Y009869D01*
X029706Y010027D02*
X027308Y010027D01*
X027460Y010186D02*
X029553Y010186D01*
X029487Y010344D02*
X027526Y010344D01*
X027537Y010503D02*
X029477Y010503D01*
X029510Y010661D02*
X027503Y010661D01*
X027412Y010820D02*
X029601Y010820D01*
X029823Y010978D02*
X027190Y010978D01*
X027417Y011137D02*
X029596Y011137D01*
X029508Y011295D02*
X027505Y011295D01*
X027537Y011454D02*
X029477Y011454D01*
X029489Y011612D02*
X027524Y011612D01*
X027458Y011771D02*
X029555Y011771D01*
X026031Y008918D02*
X018431Y008918D01*
X018431Y008759D02*
X026031Y008759D01*
X026031Y008601D02*
X018431Y008601D01*
X018431Y008442D02*
X026031Y008442D01*
X026031Y008284D02*
X018431Y008284D01*
X018431Y008125D02*
X026031Y008125D01*
X026030Y007967D02*
X018432Y007967D01*
X018482Y007808D02*
X025980Y007808D01*
X025984Y006857D02*
X018468Y006857D01*
X018431Y006699D02*
X026031Y006699D01*
X026031Y006540D02*
X018431Y006540D01*
X018431Y006382D02*
X026031Y006382D01*
X026031Y006223D02*
X018431Y006223D01*
X018431Y006065D02*
X026031Y006065D01*
X025751Y005589D02*
X025711Y005589D01*
X025711Y005431D02*
X025751Y005431D01*
X025751Y005272D02*
X025711Y005272D01*
X022751Y005272D02*
X022711Y005272D01*
X022201Y001944D02*
X022198Y001944D01*
X022201Y001785D02*
X022066Y001785D01*
X017475Y005272D02*
X017435Y005272D01*
X017435Y005431D02*
X017475Y005431D01*
X017475Y005589D02*
X017435Y005589D01*
X013925Y001944D02*
X013923Y001944D01*
X013925Y001785D02*
X013790Y001785D01*
X014435Y012563D02*
X014475Y012563D01*
X014475Y012722D02*
X014435Y012722D01*
X014435Y012880D02*
X014475Y012880D01*
X014082Y012880D02*
X013800Y012880D01*
X013927Y012722D02*
X013963Y012722D01*
X022076Y012880D02*
X022358Y012880D01*
X022239Y012722D02*
X022203Y012722D01*
X022711Y012722D02*
X022751Y012722D01*
X022751Y012880D02*
X022711Y012880D01*
X022711Y012563D02*
X022751Y012563D01*
X022201Y016367D02*
X022096Y016367D01*
X025711Y034436D02*
X025751Y034436D01*
X025751Y034595D02*
X025711Y034595D01*
X025711Y034753D02*
X025751Y034753D01*
X026707Y034753D02*
X026710Y034753D01*
X026707Y034912D02*
X034307Y034912D01*
X034307Y035070D02*
X026707Y035070D01*
X026707Y035229D02*
X034307Y035229D01*
X034307Y035387D02*
X026707Y035387D01*
X026707Y035546D02*
X034307Y035546D01*
X034307Y035704D02*
X026707Y035704D01*
X026710Y035863D02*
X034300Y035863D01*
X034204Y036021D02*
X026793Y036021D01*
X033987Y034753D02*
X034027Y034753D01*
X034027Y034595D02*
X033987Y034595D01*
X033987Y034436D02*
X034027Y034436D01*
M02*
